<svg width="24" height="24" viewBox="0 0 24 24" fill="none" xmlns="http://www.w3.org/2000/svg">
<path d="M12 4.25C11.7473 4.25 11.4971 4.26071 11.2498 4.28171V1H12.7498V4.28168C12.5027 4.2607 12.2526 4.25 12 4.25Z" fill="black"/>
<path d="M6.65106 1.62789L8.55217 4.95549C8.08925 5.15415 7.64692 5.3916 7.22927 5.66376L5.34863 2.37199L6.65106 1.62789Z" fill="black"/>
<path d="M18.651 2.3721L16.7703 5.66345C16.3526 5.39132 15.9102 5.1539 15.4473 4.95526L17.3487 1.6279L18.651 2.3721Z" fill="black"/>
<path d="M4.25 13C4.25 8.71979 7.71979 5.25 12 5.25C16.2802 5.25 19.75 8.71979 19.75 13V18.3345C20.4973 18.7667 21 19.5746 21 20.5C21 21.8807 19.8807 23 18.5 23H5.5C4.11929 23 3 21.8807 3 20.5C3 19.5746 3.50275 18.7667 4.25 18.3345V13ZM18.25 13C18.25 9.54822 15.4518 6.75 12 6.75C8.54822 6.75 5.75 9.54822 5.75 13V18H18.25V13ZM5.5 21.5H18.5C19.0523 21.5 19.5 21.0523 19.5 20.5C19.5 19.9477 19.0523 19.5 18.5 19.5H5.5C4.94772 19.5 4.5 19.9477 4.5 20.5C4.5 21.0523 4.94772 21.5 5.5 21.5Z" fill="black"/>
</svg>
