<svg width="24" height="25" viewBox="0 0 24 25" fill="none" xmlns="http://www.w3.org/2000/svg">
<path d="M9.16785 2.69922H14.8306L16.2992 4.16785V6.69922H19.9992C20.9933 6.69922 21.7992 7.50511 21.7992 8.49922V20.4992C21.7992 21.4933 20.9933 22.2992 19.9992 22.2992H3.99922C3.00511 22.2992 2.19922 21.4933 2.19922 20.4992V8.49922C2.19922 7.50511 3.00511 6.69922 3.99922 6.69922H7.69922V4.16785L9.16785 2.69922ZM9.29922 6.69922H14.6992V4.83059L14.1678 4.29922H9.83059L9.29922 4.83059V6.69922ZM3.99922 8.29922C3.88876 8.29922 3.79922 8.38876 3.79922 8.49922V20.4992C3.79922 20.6097 3.88876 20.6992 3.99922 20.6992H19.9992C20.1097 20.6992 20.1992 20.6097 20.1992 20.4992V8.49922C20.1992 8.38876 20.1097 8.29922 19.9992 8.29922H3.99922Z" fill="#6B6D73"/>
</svg>
