<svg width="24" height="24" viewBox="0 0 24 24" fill="none" xmlns="http://www.w3.org/2000/svg">
<path d="M5.53572 10.0667C5.53572 6.76954 8.03774 4.06148 11.25 3.69277V1H12.75V3.69277C15.9623 4.06149 18.4643 6.76954 18.4643 10.0667V14.3713L20.6224 17.5816C20.777 17.8115 20.7922 18.108 20.6619 18.3526C20.5317 18.5972 20.2771 18.75 20 18.75H4C3.72288 18.75 3.46835 18.5972 3.33806 18.3526C3.20778 18.108 3.22297 17.8115 3.37758 17.5816L5.53572 14.3713V10.0667ZM7.03572 10.0667V14.6C7.03572 14.7491 6.9913 14.8947 6.90814 15.0184L5.40793 17.25H18.5921L17.0919 15.0184C17.0087 14.8947 16.9643 14.7491 16.9643 14.6V10.0667C16.9643 7.35717 14.7476 5.15 12 5.15C9.25237 5.15 7.03572 7.35717 7.03572 10.0667Z" fill="black"/>
<path d="M10 20H14C14 20.5973 13.7381 21.1336 13.3229 21.5C12.9703 21.8112 12.5072 22 12 22C11.4928 22 11.0297 21.8112 10.6771 21.5C10.2619 21.1335 10 20.5974 10 20Z" fill="black"/>
</svg>
