<svg width="24" height="24" viewBox="0 0 24 24" fill="none" xmlns="http://www.w3.org/2000/svg">
<path d="M5.28572 10.0667C5.28572 6.71565 7.77169 3.95262 11 3.47352V1H13V3.47352C16.2283 3.95262 18.7143 6.71565 18.7143 10.0667V14.2951L20.8299 17.4421C21.036 17.7487 21.0563 18.144 20.8826 18.4702C20.7089 18.7963 20.3695 19 20 19H4C3.63051 19 3.29113 18.7963 3.11742 18.4702C2.9437 18.144 2.96396 17.7487 3.1701 17.4421L5.28572 14.2951V10.0667ZM7.28572 10.0667V14.6C7.28572 14.7987 7.2265 14.993 7.11561 15.1579L5.87724 17H18.1228L16.8844 15.1579C16.7735 14.993 16.7143 14.7987 16.7143 14.6V10.0667C16.7143 7.49721 14.6115 5.4 12 5.4C9.38847 5.4 7.28572 7.49721 7.28572 10.0667ZM10 20H14C14 20.5973 13.7381 21.1336 13.3229 21.5C12.9703 21.8112 12.5072 22 12 22C11.4928 22 11.0297 21.8112 10.6771 21.5C10.2619 21.1335 10 20.5974 10 20Z" fill="black"/>
</svg>
