<svg width="24" height="24" viewBox="0 0 24 24" fill="none" xmlns="http://www.w3.org/2000/svg">
<path d="M4.5 2.75C4.12176 2.75 3.80271 3.03165 3.7558 3.40697L3.2558 7.40697C3.24038 7.53034 3.256 7.6541 3.29941 7.76772C2.43618 9.30214 1.25012 12.1057 1.25012 14.9986C1.25012 17.288 2.34846 18.9007 4.08363 19.8988C5.76807 20.8676 8.02606 21.2486 10.4257 21.2486C12.8268 21.2486 15.1898 20.8669 16.9811 19.9102C18.8131 18.9317 20.0693 17.3283 20.0693 14.9986C20.0693 14.7693 20.0583 14.5414 20.0377 14.3155C21.0836 13.1221 21.301 11.4654 21.4328 10.4617L21.4429 10.385C21.481 10.096 21.5103 9.88175 21.5411 9.72394C21.9953 9.66339 22.4211 9.48766 22.7497 9.13659C23.1629 8.6952 23.3033 8.10277 23.3033 7.49902C23.3033 6.73177 22.8248 6.26542 22.3689 6.03164C21.9398 5.81164 21.4621 5.74902 21.149 5.74902C19.3248 5.74902 17.9892 6.59186 17.0629 7.64239C16.9378 7.47652 16.8216 7.32707 16.7178 7.19585L16.2442 3.40697C16.1973 3.03165 15.8782 2.75 15.5 2.75H4.5ZM4.75319 8.25H15.6384C15.8653 8.54074 16.1392 8.90561 16.4278 9.32899L17.066 10.265L17.6784 9.31196C18.4118 8.17085 19.523 7.24902 21.149 7.24902C21.304 7.24902 21.5284 7.28641 21.6845 7.36641C21.7559 7.40305 21.7845 7.43441 21.7928 7.44588C21.7953 7.44911 21.8033 7.45906 21.8033 7.49902C21.8033 7.89527 21.7095 8.05285 21.6547 8.11146C21.6085 8.16075 21.4884 8.24902 21.149 8.24902C20.7923 8.24902 20.5328 8.43806 20.3794 8.63829C20.2462 8.81202 20.1767 9.00981 20.1352 9.15532C20.0547 9.4374 20.0062 9.80588 19.9613 10.1467L19.9557 10.1889C19.7992 11.3758 19.5957 12.7009 18.7399 13.5025L18.4568 13.7676L18.5096 14.1519C18.5485 14.4353 18.5693 14.718 18.5693 14.9986C18.5693 16.6689 17.719 17.8155 16.2745 18.5871C14.7892 19.3803 12.7054 19.7486 10.4257 19.7486C8.1444 19.7486 6.18962 19.3797 4.83151 18.5985C3.52413 17.8465 2.75012 16.7093 2.75012 14.9986C2.75012 12.2662 3.97984 9.54182 4.75319 8.25ZM15.1502 6.74863H4.84976L5.16209 4.25H14.8379L15.1502 6.74863Z" fill="black"/>
</svg>
