<svg width="24" height="24" viewBox="0 0 24 24" fill="none" xmlns="http://www.w3.org/2000/svg">
<path d="M1.74447 3.99496C3.07613 3.51239 4.50887 3.25 6 3.25C8.16855 3.25 10.2118 3.80485 12 4.7829C13.7882 3.80485 15.8315 3.25 18 3.25C19.4911 3.25 20.9239 3.51239 22.2555 3.99496L22.75 4.17415V20.1236L21.7445 19.7592C20.5739 19.335 19.3139 19.104 18 19.104C15.9534 19.104 14.0357 19.6646 12.3826 20.6451L12 20.872L11.6174 20.6451C9.96426 19.6646 8.04661 19.104 6 19.104C4.68605 19.104 3.4261 19.335 2.25553 19.7592L1.25 20.1236V4.17415L1.74447 3.99496ZM11.25 6.08245C9.68269 5.23148 7.89673 4.75 6 4.75C4.86915 4.75 3.7783 4.92112 2.75 5.23924V18.0321C3.7881 17.7527 4.8775 17.604 6 17.604C7.87106 17.604 9.64884 18.0171 11.25 18.7586V6.08245ZM12.75 18.7586C14.3512 18.0171 16.1289 17.604 18 17.604C19.1225 17.604 20.2119 17.7527 21.25 18.0321V5.23924C20.2217 4.92112 19.1308 4.75 18 4.75C16.1033 4.75 14.3173 5.23148 12.75 6.08245V18.7586Z" fill="black"/>
</svg>
