<svg width="24" height="24" viewBox="0 0 24 24" fill="none" xmlns="http://www.w3.org/2000/svg">
<path d="M14.8795 11.5098C14.2787 11.762 13.7318 12.2034 13.1811 12.5428C13.1811 12.2368 13.1811 11.7231 13.1811 11.4097C13.6984 11.1704 13.8875 11.1055 14.2324 10.9665C14.4901 10.8626 15.1242 10.5344 15.1428 10.1171C15.1483 10.0132 15.152 9.9539 15.0816 9.83892C14.9128 9.5626 14.4493 9.6034 14.1415 9.6238C13.8337 9.6442 13.7763 9.67016 13.1903 9.74805L13.1941 9.30854C13.9598 8.98957 14.2899 8.9395 14.8294 8.75776C15.139 8.6539 15.5117 8.56303 15.6341 8.23294C15.6452 8.20326 15.6916 8.0957 15.597 7.8676C15.5395 7.73593 15.4598 7.62095 15.3653 7.51154C14.8387 6.92181 13.9784 6.8124 13.2163 6.79756C13.2219 6.50641 13.2274 5.99642 13.2274 5.99642C13.4184 5.95933 14.5327 5.85548 14.8906 5.88515C15.3189 5.91853 15.4932 6.03722 15.801 6.04464C16.131 6.05391 16.4425 5.89257 16.6706 5.66261C16.7781 5.55505 16.856 5.42339 16.869 5.25463C16.8764 5.13038 16.8764 4.99129 16.6854 4.7873C16.5426 4.63152 16.4944 4.59443 16.2107 4.4164C15.814 4.17531 15.5859 4.15121 15.1539 3.96205C14.7979 3.80813 14.2954 3.60599 13.8653 3.32225C13.8263 3.12753 13.8078 3.03666 13.7114 2.8475C13.5834 2.60271 13.2701 2.49515 12.864 2.3301C12.5173 2.1873 11.8294 2 11.7627 2L11.5049 2.25036C11.5476 2.31155 11.5884 2.37461 11.6217 2.43766C11.8739 2.89757 11.9481 3.08858 12.0093 3.60599C12.0389 3.86005 12.0389 4.11783 12.0426 4.3756C12.0445 4.69272 12.0482 5.21939 12.0445 5.21939C11.6421 5.29913 9.67305 5.67374 7.57973 6.13922L7.67244 6.44892C7.9487 6.68629 8.5309 7.08872 8.88133 7.20184C9.22064 7.31125 9.46168 7.19628 9.78059 7.07203C10.1125 6.94036 10.4407 6.74749 10.7781 6.62324C11.1934 6.46932 11.6199 6.33394 12.0501 6.21896V6.93665C11.5921 7.07944 11.1434 7.27231 10.7243 7.50598C9.97713 7.92138 9.47837 8.51667 9.23362 9.3549C9.089 9.84634 9.19468 10.412 9.27627 10.6642C9.40976 11.0814 9.64338 11.5877 9.89184 11.9493C9.90111 11.9642 7.36836 12.8951 6.25958 13.3532C5.85724 13.5219 5.44006 13.687 5.08777 13.9466C4.89494 14.0913 4.74661 14.2674 4.63536 14.4789C4.49815 14.7459 4.50001 14.9072 4.50001 14.9499C4.49815 15.2559 4.79482 15.3857 4.97467 15.4988C5.29914 15.6973 6.13165 16.1423 6.40235 16.2276C6.61743 16.2944 6.99011 16.2184 7.18851 16.0997C7.39061 15.9791 7.69469 15.8252 7.89308 15.701C8.27318 15.4636 9.85661 14.7904 10.3832 14.6291C10.9283 14.464 11.5161 14.247 12.0742 14.1228V14.8646C11.5569 15.0092 11.1823 15.1316 10.5686 15.4042C10.118 15.6064 9.72311 15.8085 9.4246 16.2054C9.30222 16.3649 9.17058 16.5967 9.14277 16.7951C9.03523 17.5925 9.52287 18.0747 9.81582 18.3158C10.157 18.5995 10.5742 18.7905 11.0025 18.9074C11.2138 18.9649 11.4215 19.0094 11.6421 19.0001C12.3523 18.9741 12.9845 18.8072 13.2608 18.1359C13.322 17.982 13.3609 17.8188 13.385 17.6556C13.4073 17.4998 13.3368 17.1326 13.3127 17.0269C13.2386 16.6634 13.2311 15.7492 13.2311 15.7492C13.3683 15.7603 13.5018 15.7788 13.6353 15.8178C14.1452 15.9569 14.5457 16.3278 14.6236 16.847C14.6885 17.2754 14.6329 17.7205 14.4641 18.1211C14.1953 18.7479 13.6984 19.2968 13.1755 19.74C12.8084 20.046 12.4561 20.3094 12.0222 20.5208C11.5939 20.7303 11.1471 20.8731 10.6873 21.0048C10.0272 21.1958 9.35414 21.3405 8.66996 21.4202C8.16378 21.4777 7.65019 21.5055 7.14215 21.4425C7.08097 21.435 6.89555 21.3961 6.8696 21.3979C6.8251 21.4035 6.65822 21.4888 6.61929 21.5037C6.97899 21.6557 7.37021 21.7522 7.75217 21.83C8.60878 22.0025 9.49135 22.0433 10.3628 21.9543C11.3362 21.8542 12.2318 21.5871 13.1199 21.181C13.8708 20.836 14.5902 20.4114 15.2151 19.8717C15.8733 19.3042 16.5315 18.5958 16.7151 17.739C16.8319 17.1808 16.7188 16.7506 16.6539 16.5559C16.487 16.0348 16.1551 15.5841 15.7009 15.2633C14.9777 14.7533 14.0766 14.5975 13.2015 14.6643C13.2015 14.655 13.1922 13.8836 13.1922 13.8836C13.5426 13.8224 14.1285 13.7167 15.3319 13.8706C15.9363 13.9485 16.4907 14.2192 17.0748 14.3806C17.6273 14.5289 18.2651 14.5957 18.8214 14.4232C19.0402 14.3565 19.5037 14.2025 19.5 13.661C19.4944 12.9786 19.1978 12.5391 18.8992 12.2368C18.4783 11.8065 18.0074 11.5877 17.4289 11.393C17.0321 11.2595 16.5945 11.2242 16.1755 11.2131C15.7231 11.2038 15.2911 11.3336 14.8813 11.5098H14.8795ZM13.7484 3.65606C13.9895 3.80627 14.2843 3.98245 14.4957 4.16975C14.6533 4.30884 14.8999 4.47574 14.8869 4.7261C14.8795 4.87075 14.2046 4.91711 13.2423 5.04322C13.2552 4.3348 13.5445 4.05292 13.7484 3.6542V3.65606ZM13.2089 7.64506C13.4573 7.64506 13.7874 7.64877 14.0266 7.71182C14.3306 7.79157 14.4623 7.99371 14.4845 8.02523C14.6996 8.30526 14.1063 8.38129 13.9283 8.41653C13.487 8.50184 13.4889 8.50925 13.1978 8.57231C13.2033 8.23479 13.2033 7.95662 13.2089 7.64506ZM13.1866 10.284C13.3609 10.2506 13.5389 10.2117 13.7169 10.2098C13.7948 10.208 13.8634 10.2172 13.9598 10.2358C13.9598 10.2358 14.136 10.2747 14.1248 10.3452C14.1081 10.4379 14.0952 10.5121 13.7725 10.6586C13.5389 10.7662 13.3813 10.8088 13.1829 10.8626C13.1848 10.653 13.1848 10.4936 13.1885 10.284H13.1866ZM12.0538 7.85091V7.97331L12.0593 8.80226C11.6162 9.01368 11.4178 9.0452 11.2639 9.37159C11.1916 9.52922 11.097 9.73322 11.0766 9.8111C10.9654 10.208 11.1415 10.3285 11.3622 10.3823C11.5902 10.4361 11.8276 10.449 12.0612 10.449V11.2112C11.7015 11.3299 10.8671 11.6285 10.3869 11.7824C10.0921 11.2595 10.0476 10.6308 10.0383 10.5344C9.88628 8.86161 11.0692 8.18101 12.0538 7.85091ZM8.54759 14.349C8.16007 14.4714 7.78739 14.5901 7.39061 14.6606C7.1848 14.6958 6.65637 14.8442 6.56923 14.7051C6.38381 14.4195 6.5822 14.3323 9.43387 12.986C9.76205 12.8339 10.0698 12.693 10.3591 12.5632C10.4722 12.6744 10.9283 13.062 11.5494 13.4663C11.4438 13.5071 8.88504 14.2433 8.54759 14.3509V14.349ZM11.2287 12.7134C11.0952 12.6299 10.8838 12.4148 10.8245 12.3536C11.3065 12.1441 11.7219 11.9716 12.0649 11.8344V13.0472C12.0649 13.0472 11.6384 13.0138 11.2287 12.7115V12.7134ZM12.0315 16.0348C12.0018 16.4242 12.0148 16.8137 11.9536 17.1975C11.9425 17.2643 11.9351 17.3125 11.8962 17.3681C11.8238 17.4627 11.7441 17.4887 11.6774 17.5221C11.4586 17.6333 11.1156 17.6055 10.9135 17.472C10.7318 17.3496 10.6817 17.2457 10.6743 17.0529C10.6743 16.7302 10.8096 16.491 11.0711 16.2721C11.3381 16.0681 11.7015 15.9068 12.0445 15.8345C12.0445 15.8883 12.0315 16.0292 12.0315 16.0348ZM16.9246 12.9304C16.741 13.0286 16.3257 13.0231 16.0921 13.0342C15.7954 13.049 15.4932 13.0453 15.1947 13.049C14.5327 13.0546 13.8412 13.1418 13.1811 13.2085C13.3572 13.0731 13.5723 12.8914 13.767 12.7764C14.3158 12.4389 14.9369 12.0587 15.6193 12.0532C15.9233 12.0495 16.2441 12.0717 16.5185 12.196C17.2027 12.5057 17.0989 12.8358 16.9246 12.9304Z" fill="#1A1B1E"/>
</svg>
