<svg width="24" height="24" viewBox="0 0 24 24" fill="none" xmlns="http://www.w3.org/2000/svg">
<path d="M1.28125 1.28125H14.7188V9.28125H17.2813V7H18.7188V9.28125H22.7188V22.7188H17.2813V18.7188H14.7188V22.7188H9.28125V18.7188H6.71875V22.7188H1.28125V1.28125ZM6.71875 17.2813H9.28125V14.7188H6.71875V17.2813ZM5.28125 14.7188H2.71875V17.2813H5.28125V14.7188ZM6.71875 13.2813H9.28125V10.7188H6.71875V13.2813ZM5.28125 10.7188H2.71875V13.2813H5.28125V10.7188ZM6.71875 9.28125H9.28125V6.71875H6.71875V9.28125ZM5.28125 6.71875H2.71875V9.28125H5.28125V6.71875ZM6.71875 5.28125H9.28125V2.71875H6.71875V5.28125ZM5.28125 2.71875H2.71875V5.28125H5.28125V2.71875ZM10.7188 2.71875V5.28125H13.2813V2.71875H10.7188ZM13.2813 6.71875H10.7188V9.28125H13.2813V6.71875ZM13.2813 10.7188H10.7188V13.2813H13.2813V10.7188ZM13.2813 14.7188H10.7188V17.2813H13.2813V14.7188ZM14.7188 17.2813H18.7188V21.2813H21.2813V10.7188H14.7188V17.2813ZM13.2813 18.7188H10.7188V21.2813H13.2813V18.7188ZM2.71875 18.7188V21.2813H5.28125V18.7188H2.71875ZM17.2813 15V13H18.7188V15H17.2813Z" fill="black"/>
</svg>
