<svg width="24" height="24" viewBox="0 0 24 24" fill="none" xmlns="http://www.w3.org/2000/svg">
<path d="M20 7.25H18V8.75H20V7.25Z" fill="black"/>
<path d="M17 12C17 9.23858 14.7614 7 12 7C9.23858 7 7 9.23858 7 12C7 14.7614 9.23858 17 12 17C14.7614 17 17 14.7614 17 12ZM15.5 12C15.5 13.933 13.933 15.5 12 15.5C10.067 15.5 8.5 13.933 8.5 12C8.5 10.067 10.067 8.5 12 8.5C13.933 8.5 15.5 10.067 15.5 12Z" fill="black"/>
<path d="M7.75 3.25H4.25V4.25H3C2.0335 4.25 1.25 5.0335 1.25 6V18C1.25 18.9665 2.0335 19.75 3 19.75H21C21.9665 19.75 22.75 18.9665 22.75 18V6C22.75 5.0335 21.9665 4.25 21 4.25H7.75V3.25ZM2.75 6C2.75 5.86193 2.86193 5.75 3 5.75H21C21.1381 5.75 21.25 5.86193 21.25 6V18C21.25 18.1381 21.1381 18.25 21 18.25H3C2.86193 18.25 2.75 18.1381 2.75 18V6Z" fill="black"/>
</svg>
