<svg width="24" height="24" viewBox="0 0 24 24" fill="none" xmlns="http://www.w3.org/2000/svg">
<path d="M18 2.25C18.9665 2.25 19.75 3.0335 19.75 4L19.75 21C19.75 21.9665 18.9665 22.75 18 22.75H6C5.0335 22.75 4.25 21.9665 4.25 21L4.25 4C4.25 3.0335 5.0335 2.25 6 2.25L8.5 2.25V3.75L6 3.75C5.86193 3.75 5.75 3.86193 5.75 4L5.75 21C5.75 21.1381 5.86193 21.25 6 21.25H18C18.1381 21.25 18.25 21.1381 18.25 21L18.25 4C18.25 3.86193 18.1381 3.75 18 3.75L15.5 3.75V2.25L18 2.25Z" fill="#252525"/>
<path d="M11.1328 3.5H9.5V4.5H14.5V3.5H12.8672L12.434 2.75109C12.3453 2.59772 12.1832 2.5 12 2.5C11.8168 2.5 11.6547 2.59772 11.566 2.75109L11.1328 3.5ZM16 6H8V2H10.2676C10.6134 1.4022 11.2597 1 12 1C12.7403 1 13.3866 1.4022 13.7324 2H16V6Z" fill="#252525"/>
<path d="M16.513 10.5472L10.6667 16.028L7.48704 13.0472L8.51296 11.9528L10.6667 13.972L15.487 9.45285L16.513 10.5472Z" fill="#252525"/>
</svg>
