<svg width="24" height="24" viewBox="0 0 24 24" fill="none" xmlns="http://www.w3.org/2000/svg">
<path d="M16.4697 6.46967L6.46967 16.4697L7.53033 17.5303L17.5303 7.53033L16.4697 6.46967Z" fill="black"/>
<path d="M8.5 5.75C6.98122 5.75 5.75 6.98122 5.75 8.5C5.75 10.0188 6.98122 11.25 8.5 11.25C10.0188 11.25 11.25 10.0188 11.25 8.5C11.25 6.98122 10.0188 5.75 8.5 5.75ZM7.25 8.5C7.25 7.80964 7.80964 7.25 8.5 7.25C9.19036 7.25 9.75 7.80964 9.75 8.5C9.75 9.19036 9.19036 9.75 8.5 9.75C7.80964 9.75 7.25 9.19036 7.25 8.5Z" fill="black"/>
<path d="M15.5 12.75C13.9812 12.75 12.75 13.9812 12.75 15.5C12.75 17.0188 13.9812 18.25 15.5 18.25C17.0188 18.25 18.25 17.0188 18.25 15.5C18.25 13.9812 17.0188 12.75 15.5 12.75ZM14.25 15.5C14.25 14.8096 14.8096 14.25 15.5 14.25C16.1904 14.25 16.75 14.8096 16.75 15.5C16.75 16.1904 16.1904 16.75 15.5 16.75C14.8096 16.75 14.25 16.1904 14.25 15.5Z" fill="black"/>
<path d="M12 1.25C6.06294 1.25 1.25 6.06294 1.25 12C1.25 17.9371 6.06294 22.75 12 22.75C17.9371 22.75 22.75 17.9371 22.75 12C22.75 6.06294 17.9371 1.25 12 1.25ZM2.75 12C2.75 6.89137 6.89137 2.75 12 2.75C17.1086 2.75 21.25 6.89137 21.25 12C21.25 17.1086 17.1086 21.25 12 21.25C6.89137 21.25 2.75 17.1086 2.75 12Z" fill="black"/>
</svg>
