<svg width="24" height="24" viewBox="0 0 24 24" fill="none" xmlns="http://www.w3.org/2000/svg">
<path d="M17 5.63824L12 10.5L7 5.63824L8.17062 4.5L12 8.22349L15.8293 4.5L17 5.63824Z" fill="black"/>
<path d="M8.17062 19.5L7 18.3618L12 13.5L17 18.3618L15.8293 19.5L12 15.7766L8.17062 19.5Z" fill="black"/>
<path d="M2 3.11111C2 2.49747 2.49747 2 3.11111 2H20.8889C21.5026 2 22 2.49747 22 3.11111V20.8889C22 21.5026 21.5026 22 20.8889 22H3.11111C2.49747 22 2 21.5026 2 20.8889V3.11111ZM3.66667 20.3333H20.3333V3.66667H3.66667V20.3333Z" fill="black"/>
</svg>
