<svg width="20" height="20" viewBox="0 0 20 20" fill="none" xmlns="http://www.w3.org/2000/svg">
<path d="M9.2551 0.400017H16.1447C16.6277 0.400017 17.0263 0.400007 17.351 0.426537C17.6883 0.454097 17.9983 0.513227 18.2895 0.661607C18.7411 0.891707 19.1082 1.25886 19.3383 1.71045C19.4867 2.00165 19.5458 2.31167 19.5734 2.64893C19.5999 2.97366 19.5999 3.3723 19.5999 3.85531V10.7447C19.5999 11.2278 19.5999 11.6264 19.5734 11.9511C19.5458 12.2884 19.4867 12.5984 19.3383 12.8896C19.1082 13.3412 18.7411 13.7083 18.2895 13.9384C17.9983 14.0868 17.6883 14.146 17.351 14.1735C17.0263 14.2 16.6277 14.2 16.1447 14.2H14.1999V16.1448C14.1999 16.6278 14.1999 17.0264 14.1734 17.3511C14.1458 17.6884 14.0867 17.9984 13.9383 18.2896C13.7082 18.7412 13.3411 19.1083 12.8895 19.3384C12.5983 19.4868 12.2883 19.546 11.951 19.5735C11.6263 19.6 11.2276 19.6 10.7446 19.6H3.85519C3.37218 19.6 2.97354 19.6 2.64881 19.5735C2.31155 19.546 2.00153 19.4868 1.71033 19.3384C1.25874 19.1083 0.891583 18.7412 0.661493 18.2896C0.513113 17.9984 0.453973 17.6884 0.426423 17.3511C0.399893 17.0264 0.399893 16.6278 0.399903 16.1448V9.2552C0.399893 8.7723 0.399893 8.3736 0.426423 8.0489C0.453973 7.71167 0.513113 7.40165 0.661493 7.11045C0.891583 6.65886 1.25874 6.29171 1.71033 6.06161C2.00153 5.91323 2.31155 5.8541 2.64881 5.82654C2.97353 5.80001 3.37215 5.80002 3.85514 5.80002H5.7999V3.85526C5.79989 3.37227 5.79989 2.97365 5.82642 2.64893C5.85397 2.31167 5.91311 2.00165 6.06149 1.71045C6.29158 1.25886 6.65874 0.891707 7.11033 0.661607C7.40153 0.513227 7.71155 0.454097 8.0488 0.426537C8.3735 0.400007 8.7721 0.400017 9.2551 0.400017ZM3.8799 7.00002C3.36596 7.00002 3.01658 7.00049 2.74653 7.02256C2.48348 7.04405 2.34895 7.083 2.25511 7.13082C2.02932 7.24586 1.84574 7.42944 1.7307 7.65524C1.68288 7.74908 1.64393 7.8836 1.62243 8.1466C1.60037 8.4167 1.5999 8.7661 1.5999 9.28V16.12C1.5999 16.634 1.60037 16.9833 1.62243 17.2534C1.64393 17.5165 1.68288 17.651 1.7307 17.7448C1.84574 17.9706 2.02932 18.1542 2.25511 18.2692C2.34895 18.317 2.48348 18.356 2.74653 18.3775C3.01658 18.3996 3.36596 18.4 3.8799 18.4H10.7199C11.2339 18.4 11.5832 18.3996 11.8533 18.3775C12.1163 18.356 12.2509 18.317 12.3447 18.2692C12.5705 18.1542 12.7541 17.9706 12.8691 17.7448C12.9169 17.651 12.9559 17.5165 12.9774 17.2534C12.9994 16.9833 12.9999 16.634 12.9999 16.12V9.28C12.9999 8.7661 12.9994 8.4167 12.9774 8.1466C12.9559 7.8836 12.9169 7.74908 12.8691 7.65524C12.7541 7.42944 12.5705 7.24586 12.3447 7.13082C12.2509 7.083 12.1163 7.04405 11.8533 7.02256C11.5832 7.00049 11.2339 7.00002 10.7199 7.00002H3.8799ZM14.1999 13V9.2553C14.1999 8.7723 14.1999 8.3736 14.1734 8.0489C14.1458 7.71167 14.0867 7.40165 13.9383 7.11045C13.7082 6.65886 13.3411 6.29171 12.8895 6.06161C12.5983 5.91323 12.2883 5.8541 11.951 5.82654C11.6263 5.80001 11.2277 5.80002 10.7447 5.80002H6.9999V3.88002C6.9999 3.36608 7.00037 3.0167 7.02243 2.74665C7.04393 2.4836 7.08288 2.34908 7.13069 2.25524C7.24574 2.02944 7.42932 1.84587 7.65511 1.73082C7.74895 1.683 7.88348 1.64405 8.1465 1.62256C8.4166 1.60049 8.766 1.60002 9.2799 1.60002H16.1199C16.6338 1.60002 16.9832 1.60049 17.2533 1.62256C17.5163 1.64405 17.6509 1.683 17.7447 1.73082C17.9705 1.84586 18.1541 2.02944 18.2691 2.25524C18.3169 2.34908 18.3559 2.4836 18.3774 2.74665C18.3994 3.0167 18.3999 3.36608 18.3999 3.88002V10.72C18.3999 11.234 18.3994 11.5833 18.3774 11.8534C18.3559 12.1165 18.3169 12.251 18.2691 12.3448C18.1541 12.5706 17.9705 12.7542 17.7447 12.8692C17.6509 12.917 17.5163 12.956 17.2533 12.9775C16.9832 12.9996 16.6338 13 16.1199 13H14.1999Z" fill="black"/>
</svg>
