<svg width="20" height="20" viewBox="0 0 20 20" fill="none" xmlns="http://www.w3.org/2000/svg">
<path d="M16.1447 0.400025C16.6277 0.400017 17.0263 0.400011 17.351 0.426541C17.6883 0.454096 17.9983 0.513235 18.2895 0.66161C18.7411 0.891706 19.1082 1.25886 19.3383 1.71045C19.4867 2.00165 19.5458 2.31167 19.5734 2.64893C19.5999 2.97366 19.5999 3.3723 19.5999 3.85531V10.7447C19.5999 11.2278 19.5999 11.6264 19.5734 11.9511C19.5458 12.2884 19.4867 12.5984 19.3383 12.8896C19.1082 13.3412 18.7411 13.7083 18.2895 13.9384C17.9983 14.0868 17.6883 14.146 17.351 14.1735C17.0263 14.2 16.6276 14.2 16.1447 14.2H14.1999V16.1448C14.1999 16.6278 14.1999 17.0264 14.1734 17.3511C14.1458 17.6884 14.0867 17.9984 13.9383 18.2896C13.7082 18.7412 13.3411 19.1083 12.8895 19.3384C12.5983 19.4868 12.2883 19.546 11.951 19.5735C11.6263 19.6 11.2276 19.6 10.7446 19.6H3.85519C3.37218 19.6 2.97354 19.6 2.64881 19.5735C2.31155 19.546 2.00153 19.4868 1.71033 19.3384C1.25874 19.1083 0.891584 18.7412 0.661487 18.2896C0.513113 17.9984 0.453974 17.6884 0.426419 17.3511C0.399889 17.0264 0.399895 16.6278 0.399903 16.1448V9.25523C0.399895 8.77226 0.399889 8.37364 0.426419 8.04893C0.453974 7.71167 0.513113 7.40165 0.661487 7.11045C0.891584 6.65886 1.25874 6.29171 1.71033 6.06161C2.00153 5.91324 2.31155 5.8541 2.64881 5.82654C2.97352 5.80001 3.37216 5.80002 3.85514 5.80002H5.7999V3.85524C5.7999 3.37226 5.79989 2.97365 5.82642 2.64893C5.85397 2.31167 5.91311 2.00165 6.06149 1.71045C6.29158 1.25886 6.65874 0.891706 7.11033 0.66161C7.40153 0.513235 7.71155 0.454096 8.04881 0.426541C8.37352 0.400011 8.77215 0.400017 9.25512 0.400025H16.1447ZM2.74653 7.02256C2.48348 7.04405 2.34895 7.083 2.25511 7.13082C2.02932 7.24587 1.84574 7.42944 1.7307 7.65524C1.68288 7.74908 1.64393 7.8836 1.62243 8.14665C1.60037 8.4167 1.5999 8.76608 1.5999 9.28002V16.12C1.5999 16.634 1.60037 16.9833 1.62243 17.2534C1.64393 17.5165 1.68288 17.651 1.7307 17.7448C1.84574 17.9706 2.02932 18.1542 2.25511 18.2692C2.34895 18.317 2.48348 18.356 2.74653 18.3775C3.01658 18.3996 3.36596 18.4 3.8799 18.4H10.7199C11.2339 18.4 11.5832 18.3996 11.8533 18.3775C12.1163 18.356 12.2509 18.317 12.3447 18.2692C12.5705 18.1542 12.7541 17.9706 12.8691 17.7448C12.9169 17.651 12.9559 17.5165 12.9774 17.2534C12.9994 16.9833 12.9999 16.634 12.9999 16.12V9.28002C12.9999 8.76608 12.9994 8.4167 12.9774 8.14665C12.9559 7.8836 12.9169 7.74908 12.8691 7.65524C12.7541 7.42944 12.5705 7.24587 12.3447 7.13082C12.2509 7.083 12.1163 7.04405 11.8533 7.02256C11.5832 7.00049 11.2339 7.00003 10.7199 7.00003H3.8799C3.36596 7.00003 3.01658 7.00049 2.74653 7.02256ZM14.2 13L16.12 13C16.2484 13 16.3666 13 16.4758 12.9996C16.6619 12.9989 16.822 12.9972 16.9627 12.9929C17.0699 12.9895 17.1658 12.9847 17.2534 12.9775C17.5164 12.956 17.6509 12.9171 17.7448 12.8692C17.9706 12.7542 18.1542 12.5706 18.2692 12.3448C18.317 12.251 18.356 12.1165 18.3775 11.8534C18.3995 11.5834 18.4 11.234 18.4 10.72V3.88004C18.4 3.36609 18.3995 3.01671 18.3775 2.74666C18.356 2.48361 18.317 2.34909 18.2692 2.25525C18.1542 2.02945 17.9706 1.84588 17.7448 1.73083C17.6979 1.70691 17.6407 1.68522 17.5624 1.66682C17.4842 1.64842 17.3849 1.63331 17.2534 1.62257C17.0355 1.60476 16.7659 1.60101 16.3999 1.60023C16.3123 1.60004 16.2192 1.60004 16.12 1.60004H9.28C8.76605 1.60004 8.41668 1.6005 8.14662 1.62257C7.88357 1.64406 7.74905 1.68302 7.65521 1.73083C7.42942 1.84588 7.24584 2.02945 7.13079 2.25525C7.08298 2.34909 7.04402 2.48361 7.02253 2.74666C7.00047 3.01671 7 3.36609 7 3.88004V5.80002L10.7448 5.80004C11.1069 5.80003 11.4217 5.80002 11.6934 5.8112C11.784 5.81494 11.8698 5.81991 11.951 5.82654V5.82654C11.972 5.82826 11.9931 5.83011 12.0139 5.83209C12.1242 5.84257 12.2315 5.85688 12.3362 5.87711C12.5289 5.91431 12.7127 5.9715 12.8896 6.06162C13.3412 6.29172 13.7083 6.65887 13.9384 7.11046C14.0868 7.40166 14.1459 7.71168 14.1735 8.04894C14.2 8.37365 14.2 8.77226 14.2 9.25523V13Z" fill="black"/>
</svg>
