<svg width="24" height="24" viewBox="0 0 24 24" fill="none" xmlns="http://www.w3.org/2000/svg">
<path d="M12 20.5C7.30558 20.5 3.5 16.6944 3.5 12C3.5 7.30558 7.30558 3.5 12 3.5C16.6944 3.5 20.5 7.30558 20.5 12C20.5 16.6944 16.6944 20.5 12 20.5ZM12 22C17.5228 22 22 17.5228 22 12C22 6.47715 17.5228 2 12 2C6.47715 2 2 6.47715 2 12C2 17.5228 6.47715 22 12 22Z" fill="black"/>
<path d="M9.48058 16.75C9.79033 16.758 10.0731 16.5747 10.1923 16.2887L12 11.9502L13.8077 16.2887C13.9269 16.5747 14.2097 16.758 14.5194 16.75C14.8292 16.7419 15.1021 16.5443 15.2063 16.2525L17.7063 9.25246C17.8456 8.86237 17.6423 8.43321 17.2523 8.2939C16.8622 8.15458 16.433 8.35787 16.2937 8.74795L14.4462 13.921L12.6923 9.71174C12.5759 9.43226 12.3028 9.2502 12 9.2502C11.6972 9.2502 11.4241 9.43226 11.3077 9.71174L9.55382 13.921L7.7063 8.74795C7.56698 8.35787 7.13782 8.15458 6.74774 8.2939C6.35766 8.43321 6.15437 8.86237 6.29368 9.25246L8.79368 16.2525C8.8979 16.5443 9.17083 16.7419 9.48058 16.75Z" fill="black"/>
<path d="M5.25 12.0002C5.25 12.4144 5.58579 12.7502 6 12.7502H18C18.4142 12.7502 18.75 12.4144 18.75 12.0002C18.75 11.586 18.4142 11.2502 18 11.2502H6C5.58579 11.2502 5.25 11.586 5.25 12.0002Z" fill="black"/>
</svg>
