<svg width="25" height="24" viewBox="0 0 25 24" fill="none" xmlns="http://www.w3.org/2000/svg">
<g id="ico-deer">
<g id="Vector">
<path d="M22.0857 8.5H2.51427C2.11978 8.5 1.79999 8.8198 1.79999 9.21429C1.79999 11.5812 3.71877 13.5 6.0857 13.5H6.29999V16.5C6.29999 19.8137 8.98628 22.5 12.3 22.5C15.6137 22.5 18.3 19.8137 18.3 16.5V13.5H18.5143C20.8812 13.5 22.8 11.5812 22.8 9.21429C22.8 8.8198 22.4802 8.5 22.0857 8.5ZM6.29999 10V12H6.0857C4.82004 12 3.75152 11.1559 3.41233 10H6.29999ZM7.79999 16.5V10H16.8V16.5C16.8 18.9853 14.7853 21 12.3 21C9.81471 21 7.79999 18.9853 7.79999 16.5ZM18.3 12V10H21.1876C20.8485 11.1559 19.7799 12 18.5143 12H18.3Z" fill="#1A1B1E"/>
<path d="M6.54999 1V6C6.54999 6.13807 6.66192 6.25 6.79999 6.25H8.79999V4.5H10.3V9.5H8.79999V7.75H6.79999C5.91837 7.75 5.18902 7.09807 5.06771 6.25H3.29999C2.33349 6.25 1.54999 5.4665 1.54999 4.5V2.5H3.04999V4.5C3.04999 4.63807 3.16192 4.75 3.29999 4.75H5.04999V1H6.54999Z" fill="#1A1B1E"/>
<path d="M19.55 4.75V1H18.05V6C18.05 6.13807 17.9381 6.25 17.8 6.25H15.8V4.5H14.3V9.5H15.8V7.75H17.8C18.6816 7.75 19.411 7.09807 19.5323 6.25H21.3C22.2665 6.25 23.05 5.4665 23.05 4.5V2.5H21.55V4.5C21.55 4.63807 21.4381 4.75 21.3 4.75H19.55Z" fill="#1A1B1E"/>
</g>
</g>
</svg>
