<svg width="24" height="24" viewBox="0 0 24 24" fill="none" xmlns="http://www.w3.org/2000/svg">
<path d="M3.26 13.1619C2.82571 12.7429 2.5 12.1143 2.5 11.381V5.51429C2.5 4.88572 2.82571 4.15238 3.26 3.73333C3.80286 3.20952 4.45429 3 5.10571 3H6.3V14H5.21429C4.45429 14 3.80286 13.6857 3.26 13.1619Z" fill="black"/>
<path d="M20.6998 14.0438C20.3901 14.449 19.9771 14.753 19.5641 14.9556C19.1511 15.1583 18.6348 15.2596 18.2218 15.2596H14.8145V18.4005C14.8145 19.0084 14.608 19.515 14.195 20.0216C13.782 20.4269 13.2658 20.8321 12.7495 20.9334C12.2333 21.0348 11.717 21.0348 11.2008 20.8321C10.6845 20.6295 10.3748 20.2242 10.1683 19.8189L8 15.1583V3H17.499C18.1185 3 18.6348 3.20264 19.0478 3.50659C19.4608 3.81055 19.7706 4.31715 19.9771 4.92506L21.4226 11.4095C21.5258 11.9161 21.5258 12.3213 21.4226 12.8279C21.2161 13.2332 21.0096 13.7398 20.6998 14.0438Z" fill="black"/>
</svg>
