<svg width="24" height="24" viewBox="0 0 24 24" fill="none" xmlns="http://www.w3.org/2000/svg">
<path d="M19.9426 7.76868L19.9426 20C19.9426 20.9389 19.1815 21.7001 18.2426 21.7001H5.00029C4.06141 21.7001 3.30029 20.9389 3.30029 20L3.30029 4.00005C3.30029 3.06117 4.06141 2.30005 5.00029 2.30005L14.474 2.30005C14.6596 2.30005 14.8377 2.3738 14.969 2.50507L19.7376 7.27371C19.8689 7.40498 19.9426 7.58303 19.9426 7.76868ZM17.5527 7.06868L15.174 4.69V7.06868H17.5527ZM13.774 3.70005L5.00029 3.70005C4.83461 3.70005 4.70029 3.83436 4.70029 4.00005L4.70029 20C4.70029 20.1657 4.83461 20.3 5.00029 20.3H18.2426C18.4083 20.3 18.5426 20.1657 18.5426 20L18.5426 8.46868H13.774V3.70005ZM17.1355 17.2942C17.1355 17.6808 16.8221 17.9942 16.4355 17.9942L6.81269 17.9942C6.42609 17.9942 6.11269 17.6808 6.11269 17.2942C6.11269 16.9076 6.42609 16.5942 6.81269 16.5942L16.4355 16.5942C16.8221 16.5942 17.1355 16.9076 17.1355 17.2942ZM15.174 14.203C15.174 14.5896 14.8606 14.903 14.474 14.903H6.81269C6.42609 14.903 6.11269 14.5896 6.11269 14.203C6.11269 13.8164 6.42609 13.503 6.81269 13.503H14.474C14.8606 13.503 15.174 13.8164 15.174 14.203Z" fill="#6B6D73"/>
<path d="M9.33019 6.35881C8.86667 6.35881 8.49092 6.73457 8.49092 7.19808C8.49092 7.6616 8.86667 8.03735 9.33019 8.03735C9.7937 8.03735 10.1695 7.6616 10.1695 7.19808C10.1695 6.73457 9.7937 6.35881 9.33019 6.35881ZM7.49092 7.19808C7.49092 6.18228 8.31439 5.35881 9.33019 5.35881C10.346 5.35881 11.1695 6.18228 11.1695 7.19808C11.1695 8.21388 10.346 9.03735 9.33019 9.03735C8.31439 9.03735 7.49092 8.21388 7.49092 7.19808Z" fill="#6B6D73"/>
<path d="M7.58841 10.8647C7.98256 10.2938 8.6212 9.93015 9.33014 9.93015C10.0391 9.93015 10.6777 10.2938 11.0719 10.8647H7.58841ZM6.32167 11.2204C6.27604 11.3718 6.30475 11.5359 6.39908 11.6629C6.49342 11.7898 6.64225 11.8647 6.80041 11.8647H11.8599C12.018 11.8647 12.1669 11.7898 12.2612 11.6629C12.3555 11.5359 12.3842 11.3718 12.3386 11.2204C11.9424 9.90553 10.7556 8.93015 9.33014 8.93015C7.9047 8.93015 6.71784 9.90553 6.32167 11.2204Z" fill="#6B6D73"/>
</svg>
