<svg width="24" height="24" viewBox="0 0 24 24" fill="none" xmlns="http://www.w3.org/2000/svg">
<path d="M16.1673 2C16.6289 2 17.0006 2.37333 17.0006 2.83333V7.83333C17.0006 8.29333 16.6289 8.66667 16.1673 8.66667C15.7072 8.66667 15.3339 8.29333 15.3339 7.83333V3.66667H8.5136L11.4079 4.535C11.7604 4.64083 12.0021 4.96583 12.0021 5.33333V18.6667H15.3356V14.5C15.3356 14.04 15.7081 13.6667 16.1689 13.6667C16.6298 13.6667 17.0023 14.04 17.0023 14.5V19.5C17.0023 19.96 16.6298 20.3333 16.1689 20.3333H12.0021V21.1667C12.0021 21.4167 11.8896 21.6525 11.6971 21.8108C11.5471 21.9342 11.3596 22 11.1687 22C11.1145 22 11.0595 21.995 11.0054 21.9833L2.67169 20.3167C2.28168 20.2392 2 19.8975 2 19.5V2.83333C2 2.81667 2.01167 2.80167 2.0125 2.785C2.0125 2.76083 2.00583 2.7375 2.01 2.7125C2.02 2.6425 2.04917 2.58083 2.075 2.5175C2.08334 2.49417 2.0875 2.47 2.09917 2.4475C2.15417 2.34333 2.23001 2.25583 2.32085 2.18417L2.33668 2.165C2.35335 2.15167 2.37668 2.15083 2.39502 2.13917C2.46919 2.0925 2.54836 2.05833 2.63586 2.03583C2.67336 2.02667 2.70836 2.02 2.74836 2.01583C2.77753 2.0125 2.8042 2 2.83337 2H16.1673ZM18.079 8.0775C18.404 7.7525 18.9315 7.7525 19.2574 8.0775L21.7567 10.5767C21.8342 10.6542 21.895 10.7467 21.9375 10.8483C22.0208 11.0517 22.0208 11.2817 21.9375 11.485C21.895 11.5875 21.8342 11.68 21.7567 11.7567L19.2566 14.2558C19.0949 14.4192 18.8815 14.5 18.6682 14.5C18.4549 14.5 18.2415 14.4192 18.079 14.2558C17.7532 13.9308 17.7532 13.4033 18.079 13.0775L19.1565 12H14.5005C14.0397 12 13.6672 11.6267 13.6672 11.1667C13.6672 10.7067 14.0397 10.3333 14.5005 10.3333H19.1557L18.0782 9.25583C17.7523 8.93083 17.7523 8.40333 18.0782 8.0775H18.079Z" fill="black"/>
</svg>
