<svg width="25" height="24" viewBox="0 0 25 24" fill="none" xmlns="http://www.w3.org/2000/svg">
<g id="ico-earth">
<g id="Union">
<path d="M16.7 2.83209C16.9558 2.94383 17.2059 3.06596 17.45 3.19795C20.5763 4.88863 22.7 8.19631 22.7 12C22.7 15.158 21.2362 17.9741 18.95 19.8067C18.7089 20 18.4586 20.1823 18.2 20.353C16.6221 21.394 14.7318 22 12.7 22C12.0151 22 11.3462 21.9311 10.7 21.8C10.4464 21.7485 10.1962 21.6874 9.95 21.6171C5.76435 20.4225 2.7 16.5691 2.7 12C2.7 10.485 3.0369 9.04868 3.63987 7.76189C3.76124 7.50288 3.89338 7.24992 4.03573 7.00361C5.76427 4.01261 8.9971 2 12.7 2C14.1222 2 15.4751 2.29689 16.7 2.83209ZM12.3 13.25H15.2C17.2711 13.25 18.95 14.9289 18.95 17V17.7609C20.3468 16.2463 21.2 14.2228 21.2 12C21.2 9.06667 19.714 6.47804 17.45 4.94966V6C17.45 7.24264 16.4426 8.25 15.2 8.25H14.95C14.6739 8.25 14.45 8.47386 14.45 8.75V8.8C14.45 9.87696 13.577 10.75 12.5 10.75C11.9201 10.75 11.45 11.2201 11.45 11.8V12.4C11.45 12.8694 11.8306 13.25 12.3 13.25ZM15.95 4.14303C14.9506 3.72909 13.8538 3.5 12.7 3.5C9.58843 3.5 6.86544 5.17117 5.38263 7.67187L10.4843 15.3244C11.114 16.2689 11.45 17.3787 11.45 18.5139V20.4089C11.8573 20.4689 12.2746 20.5 12.7 20.5C14.4594 20.5 16.0939 19.9655 17.45 19.05V17C17.45 15.7574 16.4426 14.75 15.2 14.75H12.3C11.0021 14.75 9.95 13.6979 9.95 12.4V11.8C9.95 10.3917 11.0917 9.25 12.5 9.25C12.7485 9.25 12.95 9.04853 12.95 8.8V8.75C12.95 7.64543 13.8454 6.75 14.95 6.75H15.2C15.6142 6.75 15.95 6.41421 15.95 6V4.14303ZM4.64672 9.27217C4.35713 10.1275 4.2 11.0445 4.2 12C4.2 15.731 6.60504 18.903 9.95 20.0457V18.5139C9.95 17.6748 9.70164 16.8545 9.23621 16.1564L4.64672 9.27217Z" fill="#1A1B1E"/>
</g>
</g>
</svg>
