<svg width="24" height="24" viewBox="0 0 24 24" fill="none" xmlns="http://www.w3.org/2000/svg">
<path d="M14.5206 12.5279C14.0522 12.5281 13.5934 12.3955 13.1974 12.1453C12.8014 11.8952 12.4846 11.5378 12.2837 11.1147C12.0827 10.6916 12.006 10.2202 12.0624 9.75524C12.1188 9.29028 12.3059 8.85086 12.6021 8.48804C11.5074 8.35479 10.3993 8.58734 9.45051 9.14949C8.50172 9.71163 7.76549 10.5718 7.35651 11.596C6.94754 12.6201 6.88878 13.7508 7.1894 14.8119C7.49001 15.8729 8.13312 16.8048 9.01853 17.4622C9.90395 18.1197 10.9819 18.4659 12.0846 18.4468C13.1873 18.4277 14.2526 18.0445 15.1148 17.3568C15.9769 16.6691 16.5874 15.7156 16.8512 14.6448C17.1149 13.574 17.0171 12.446 16.573 11.4366C16.3465 11.7728 16.0409 12.0481 15.683 12.2384C15.3251 12.4287 14.9259 12.5281 14.5206 12.5279Z" fill="black"/>
<path d="M12.0001 6.45044C16.0042 6.45044 19.2501 9.69637 19.2501 13.7004H20.7501C20.7501 8.86795 16.8326 4.95044 12.0001 4.95044C7.16763 4.95044 3.25012 8.86795 3.25012 13.7004H4.75012C4.75012 9.69637 7.99606 6.45044 12.0001 6.45044Z" fill="black"/>
</svg>
