<svg width="24" height="24" viewBox="0 0 24 24" fill="none" xmlns="http://www.w3.org/2000/svg">
<path d="M12 2.75C6.89137 2.75 2.75 6.89137 2.75 12C2.75 17.1086 6.89137 21.25 12 21.25C17.1086 21.25 21.25 17.1086 21.25 12C21.25 6.89137 17.1086 2.75 12 2.75ZM1.25 12C1.25 6.06294 6.06294 1.25 12 1.25C17.9371 1.25 22.75 6.06294 22.75 12C22.75 17.9371 17.9371 22.75 12 22.75C6.06294 22.75 1.25 17.9371 1.25 12ZM7.75 9C7.75 8.30964 8.30964 7.75 9 7.75C9.69036 7.75 10.25 8.30964 10.25 9C10.25 9.69036 9.69036 10.25 9 10.25C8.30964 10.25 7.75 9.69036 7.75 9ZM13.75 9C13.75 8.30964 14.3096 7.75 15 7.75C15.6904 7.75 16.25 8.30964 16.25 9C16.25 9.69036 15.6904 10.25 15 10.25C14.3096 10.25 13.75 9.69036 13.75 9ZM6.75 14C6.75 13.5858 7.08579 13.25 7.5 13.25H16.5C16.9142 13.25 17.25 13.5858 17.25 14C17.25 15.1267 16.5884 16.196 15.6634 16.9549C14.7237 17.726 13.4324 18.25 12 18.25C10.5676 18.25 9.27628 17.726 8.33657 16.9549C7.41164 16.196 6.75 15.1267 6.75 14ZM8.43693 14.75C8.60488 15.1024 8.8871 15.4663 9.28805 15.7953C9.97322 16.3575 10.9319 16.75 12 16.75C13.0681 16.75 14.0268 16.3575 14.7119 15.7953C15.1129 15.4663 15.3951 15.1024 15.5631 14.75H8.43693Z" fill="black"/>
</svg>
