<svg width="24" height="24" viewBox="0 0 24 24" fill="none" xmlns="http://www.w3.org/2000/svg">
<path d="M10.9999 3.58579L9.70702 2.29289L8.29281 3.70711L10.9999 6.41421V8.12602C10.285 8.31003 9.64738 8.68674 9.14581 9.19748L7.66248 8.34108L6.67161 4.64311L4.73976 5.16074L5.21299 6.92687L2.97363 5.63397L1.97363 7.36602L4.21299 8.65892L2.44686 9.13215L2.9645 11.064L6.66248 10.0731L8.1449 10.929C8.05041 11.2699 7.99991 11.629 7.99991 12C7.99991 13.8638 9.27468 15.4299 10.9999 15.874V17.5858L8.29281 20.2929L9.70702 21.7071L10.9999 20.4142V23H12.9999V20.4142L14.2928 21.7071L15.707 20.2929L12.9999 17.5858V15.874C13.7149 15.69 14.3524 15.3133 14.854 14.8025L16.3373 15.6589L17.3282 19.3569L19.2601 18.8393L18.7868 17.0731L21.0262 18.366L22.0262 16.634L19.7868 15.3411L21.553 14.8679L21.0353 12.936L17.3373 13.9269L15.8549 13.071C15.9494 12.7301 15.9999 12.371 15.9999 12C15.9999 10.1362 14.7251 8.57006 12.9999 8.12602V6.41421L15.707 3.70711L14.2928 2.29289L12.9999 3.58579V1H10.9999V3.58579ZM17.3282 4.64314L19.26 5.16078L18.4208 8.29293L21.5529 9.13218L21.0353 11.064L15.9713 9.70714L17.3282 4.64314ZM11.9999 10C13.1045 10 13.9999 10.8954 13.9999 12C13.9999 13.1046 13.1045 14 11.9999 14C10.8953 14 9.99991 13.1046 9.99991 12C9.99991 10.8954 10.8953 10 11.9999 10ZM2.96452 12.936L8.02852 14.2929L6.67163 19.3569L4.73978 18.8392L5.57903 15.7071L2.44688 14.8678L2.96452 12.936Z" fill="black"/>
</svg>
