<svg width="24" height="24" viewBox="0 0 24 24" fill="none" xmlns="http://www.w3.org/2000/svg">
<path d="M11.9999 15C13.6568 15 14.9999 13.6569 14.9999 12C14.9999 10.3431 13.6568 9 11.9999 9M11.9999 15C10.3431 15 8.99991 13.6569 8.99991 12C8.99991 10.3431 10.3431 9 11.9999 9M11.9999 15V23M11.9999 9V1M8.99991 3L11.9999 6L14.9999 3M14.9999 21L11.9999 18L8.99991 21M21.5262 17.5L14.598 13.5M21.2941 13.9019L17.1961 15L18.2941 19.0981M2.47363 6.5L9.40184 10.5M2.70568 10.0981L6.80376 9L5.70568 4.90192M18.2941 4.90196L17.196 9.00003L21.2941 10.0981M5.7057 19.098L6.80378 15L2.7057 13.9019" stroke="black" stroke-width="2"/>
</svg>
