<svg width="24" height="24" viewBox="0 0 24 24" fill="none" xmlns="http://www.w3.org/2000/svg">
<path d="M11.6517 2.34835C10.1872 0.883883 7.81282 0.883883 6.34835 2.34835C5.01128 3.68542 4.89497 5.78097 5.99941 7.25001L4.00004 7.25001C3.03355 7.25001 2.25005 8.03351 2.25004 9L2.25 21C2.25 21.9665 3.0335 22.75 4 22.75H20C20.9665 22.75 21.75 21.9665 21.75 21V9C21.75 8.0335 20.9665 7.25 20 7.25L18.0006 7.25C19.105 5.78097 18.9887 3.68542 17.6517 2.34835C16.1872 0.883883 13.8128 0.883883 12.3483 2.34835C12.2212 2.47551 12.1051 2.60952 12 2.74921C11.8949 2.60952 11.7788 2.47551 11.6517 2.34835ZM13.4467 8.75L17.4697 12.773L18.5303 11.7123L15.568 8.75L20 8.75C20.1381 8.75 20.25 8.86193 20.25 9V21C20.25 21.1381 20.1381 21.25 20 21.25H12.75L12.75 8.75L13.4467 8.75ZM8.43197 8.75001L5.46967 11.7123L6.53033 12.773L10.5533 8.75L11.25 8.75L11.25 21.25H4C3.86193 21.25 3.75 21.1381 3.75 21L3.75004 9.00001C3.75004 8.86194 3.86197 8.75001 4.00004 8.75001L8.43197 8.75001ZM10.591 3.40901C11.4697 4.28769 11.4697 5.71231 10.591 6.59099C9.71231 7.46967 8.28769 7.46967 7.40901 6.59099C6.53033 5.71231 6.53033 4.28769 7.40901 3.40901C8.28769 2.53033 9.71231 2.53033 10.591 3.40901ZM16.591 3.40901C17.4697 4.28769 17.4697 5.71231 16.591 6.59099C15.7123 7.46967 14.2877 7.46967 13.409 6.59099C12.5303 5.71231 12.5303 4.28769 13.409 3.40901C14.2877 2.53033 15.7123 2.53033 16.591 3.40901Z" fill="black"/>
</svg>
