<svg width="24" height="24" viewBox="0 0 24 24" fill="none" xmlns="http://www.w3.org/2000/svg">
<path d="M7 5C4.79086 5 3 6.79086 3 9C3 10.0354 3.06517 11.1107 4.11596 12.3366C4.70484 13.0236 6.80361 14.9734 8.831 16.814C9.82873 17.7199 10.7869 18.5795 11.4959 19.2128C11.6825 19.3795 11.8518 19.5305 12 19.6625C12.1482 19.5305 12.3175 19.3795 12.5041 19.2128C13.2131 18.5795 14.1713 17.7199 15.169 16.814C17.1964 14.9734 19.2952 13.0236 19.884 12.3366C20.9348 11.1107 21 10.0354 21 9C21 6.79086 19.2091 5 17 5C14.7909 5 13 6.79086 13 9C13 9.55228 12.5523 10 12 10C11.4477 10 11 9.55228 11 9C11 6.79086 9.20914 5 7 5ZM12 5.68221C13.0749 4.06551 14.913 3 17 3C20.3137 3 23 5.68629 23 9C23 10.2158 22.9142 11.8746 21.4025 13.6382C20.7102 14.4459 18.4873 16.5027 16.5134 18.2948C15.5104 19.2054 14.548 20.0687 13.8365 20.7043C13.4807 21.0222 13.1875 21.2832 12.9832 21.4648L12.6629 21.7491C12.6628 21.7491 12.6629 21.7491 12 21.0004L12.6629 21.7491L12 22.336L11.3367 21.7487L12 21.0004C11.3371 21.7491 11.3368 21.7488 11.3367 21.7487L11.0168 21.4648C10.8125 21.2832 10.5193 21.0222 10.1635 20.7043C9.45198 20.0687 8.48957 19.2054 7.48662 18.2948C5.51268 16.5027 3.2898 14.4459 2.59745 13.6382C1.08579 11.8746 1 10.2158 1 9C1 5.68629 3.68629 3 7 3C9.08697 3 10.9251 4.06551 12 5.68221Z" fill="black"/>
</svg>
  