<svg width="20" height="20" viewBox="0 0 20 20" fill="none" xmlns="http://www.w3.org/2000/svg">
<g id="Union">
<path d="M0.400755 12.8119C0.139903 11.9199 0 10.9763 0 10C0 4.47715 4.47715 0 10 0C15.5228 0 20 4.47715 20 10C20 15.5228 15.5228 20 10 20C5.51335 20 1.71682 17.0453 0.450144 12.9755C0.42773 12.9224 0.4113 12.8675 0.400755 12.8119ZM18.5 10C18.5 9.53533 18.4627 9.07937 18.391 8.63494C18.3286 8.58493 18.2727 8.52481 18.2256 8.45508C17.7078 7.68765 16.5674 6.70257 14.6252 6.70257C13.4882 6.70257 12.6121 7.24996 11.9268 8.05452C11.2302 8.87233 10.7724 9.91478 10.5226 10.7477C10.3173 11.432 9.9387 12.4789 9.11004 13.3563C8.25469 14.262 6.9791 14.9248 5.11821 14.9248C4.26885 14.9248 3.51193 14.8091 2.85669 14.6087C4.37051 16.9503 7.00428 18.5 10 18.5C14.6944 18.5 18.5 14.6944 18.5 10ZM17.2945 5.63404C15.8091 3.15747 13.0981 1.5 10 1.5C5.30558 1.5 1.5 5.30558 1.5 10C1.5 10.7108 1.58725 11.4012 1.75162 12.0611C1.77988 12.0872 1.80664 12.1157 1.83161 12.1464C2.25335 12.6653 3.29708 13.2975 5.11821 13.2975C6.54621 13.2975 7.38907 12.8085 7.92697 12.239C8.49157 11.6412 8.78104 10.8895 8.96387 10.2801C9.25357 9.31444 9.79784 8.04439 10.6879 6.99935C11.5893 5.94107 12.8844 5.07526 14.6252 5.07526C15.6709 5.07526 16.5582 5.29568 17.2945 5.63404Z" fill="#1A1B1E"/>
</g>
</svg>
