<svg width="24" height="24" viewBox="0 0 24 24" fill="none" xmlns="http://www.w3.org/2000/svg">
<g id="ico-korea">
<g id="Union">
<path d="M2.40076 14.8119C2.1399 13.9199 2 12.9763 2 12C2 6.47715 6.47715 2 12 2C17.5228 2 22 6.47715 22 12C22 17.5228 17.5228 22 12 22C7.51335 22 3.71682 19.0453 2.45014 14.9755C2.42773 14.9224 2.4113 14.8675 2.40076 14.8119ZM20.5 12C20.5 11.5353 20.4627 11.0794 20.391 10.6349C20.3286 10.5849 20.2727 10.5248 20.2256 10.4551C19.7078 9.68765 18.5674 8.70257 16.6252 8.70257C15.4882 8.70257 14.6121 9.24996 13.9268 10.0545C13.2302 10.8723 12.7724 11.9148 12.5226 12.7477C12.3173 13.432 11.9387 14.4789 11.11 15.3563C10.2547 16.262 8.9791 16.9248 7.11821 16.9248C6.26885 16.9248 5.51193 16.8091 4.85669 16.6087C6.37051 18.9503 9.00428 20.5 12 20.5C16.6944 20.5 20.5 16.6944 20.5 12ZM19.2945 7.63404C17.8091 5.15747 15.0981 3.5 12 3.5C7.30558 3.5 3.5 7.30558 3.5 12C3.5 12.7108 3.58725 13.4012 3.75162 14.0611C3.77988 14.0872 3.80664 14.1157 3.83161 14.1464C4.25335 14.6653 5.29708 15.2975 7.11821 15.2975C8.54621 15.2975 9.38907 14.8085 9.92697 14.239C10.4916 13.6412 10.781 12.8895 10.9639 12.2801C11.2536 11.3144 11.7978 10.0444 12.6879 8.99935C13.5893 7.94107 14.8844 7.07526 16.6252 7.07526C17.6709 7.07526 18.5582 7.29568 19.2945 7.63404Z" fill="#1A1B1E"/>
</g>
</g>
</svg>
