<svg width="25" height="24" viewBox="0 0 25 24" fill="none" xmlns="http://www.w3.org/2000/svg">
<g id="ico-law">
<g id="Union">
<path d="M20.6045 2.16509L23.1045 6.49522C23.7948 7.69095 23.3851 9.21992 22.1894 9.91028C21.481 10.3193 20.6557 10.3422 19.9571 10.0443L17.7922 11.2942L21.7922 18.2224C22.4826 19.4181 22.0729 20.9471 20.8772 21.6374C19.6814 22.3278 18.1524 21.9181 17.4621 20.7224L13.4621 13.7942L11.2972 15.0441C11.2058 15.7981 10.7733 16.5013 10.065 16.9103C8.86923 17.6006 7.34025 17.1909 6.6499 15.9952L4.1499 11.6651C3.45954 10.4694 3.86923 8.94038 5.06496 8.25003C5.77327 7.84108 6.59852 7.81814 7.29712 8.11594L15.9572 3.11603C16.0486 2.36215 16.4811 1.65896 17.1894 1.25003C18.3851 0.559671 19.9141 0.969359 20.6045 2.16509ZM16.4932 12.0442L14.7611 13.0442L15.5112 14.3433L17.2432 13.3433L16.4932 12.0442ZM18.7743 8.99516L16.2743 4.66503L8.48004 9.16503L10.98 13.4952L18.7743 8.99516ZM21.4394 8.61124C21.9177 8.3351 22.0816 7.72351 21.8054 7.24522L19.3054 2.91509C19.0293 2.4368 18.4177 2.27292 17.9394 2.54906C17.4611 2.82521 17.2972 3.4368 17.5734 3.91509L20.0734 8.24522C20.3495 8.72351 20.9611 8.88738 21.4394 8.61124ZM7.94894 15.2452C8.22508 15.7235 8.83667 15.8874 9.31496 15.6112C9.79325 15.3351 9.95713 14.7235 9.68099 14.2452L7.18099 9.91509C6.90485 9.4368 6.29325 9.27292 5.81496 9.54906C5.33667 9.82521 5.17279 10.4368 5.44894 10.9151L7.94894 15.2452ZM17.9932 14.6424L16.2612 15.6424L18.7611 19.9724C19.0373 20.4507 19.6489 20.6146 20.1272 20.3384C20.6054 20.0623 20.7693 19.4507 20.4932 18.9724L17.9932 14.6424Z" fill="#1A1B1E"/>
<path d="M5.39999 18C4.01928 18 2.89999 19.1193 2.89999 20.5C2.89999 21.8807 4.01928 23 5.39999 23H12.4C13.7807 23 14.9 21.8807 14.9 20.5C14.9 19.1193 13.7807 18 12.4 18H5.39999ZM5.39999 21.5C4.84771 21.5 4.39999 21.0523 4.39999 20.5C4.39999 19.9477 4.84771 19.5 5.39999 19.5H12.4C12.9523 19.5 13.4 19.9477 13.4 20.5C13.4 21.0523 12.9523 21.5 12.4 21.5H5.39999Z" fill="#1A1B1E"/>
</g>
</g>
</svg>
