<svg width="24" height="24" viewBox="0 0 24 24" fill="none" xmlns="http://www.w3.org/2000/svg">
<path d="M3.26 10.8381C2.82571 11.2571 2.5 11.8857 2.5 12.619V18.4857C2.5 19.1143 2.82571 19.8476 3.26 20.2667C3.80286 20.7905 4.45429 21 5.10571 21H6.3V10H5.21429C4.45429 10 3.80286 10.3143 3.26 10.8381Z" fill="black"/>
<path d="M20.6998 9.95624C20.3901 9.55097 19.9771 9.24701 19.5641 9.04437C19.1511 8.84173 18.6348 8.74041 18.2218 8.74041H14.8145V5.59953C14.8145 4.99161 14.608 4.48502 14.195 3.97842C13.782 3.57315 13.2658 3.16787 12.7495 3.06655C12.2333 2.96523 11.717 2.96523 11.2008 3.16787C10.6845 3.37051 10.3748 3.77578 10.1683 4.18106L8 8.84173V21H17.499C18.1185 21 18.6348 20.7974 19.0478 20.4934C19.4608 20.1894 19.7706 19.6829 19.9771 19.0749L21.4226 12.5905C21.5258 12.0839 21.5258 11.6787 21.4226 11.1721C21.2161 10.7668 21.0096 10.2602 20.6998 9.95624Z" fill="black"/>
</svg>
