<svg width="24" height="24" viewBox="0 0 24 24" fill="none" xmlns="http://www.w3.org/2000/svg">
<path d="M7.25065 22C5.84496 22 4.5323 21.4516 3.54005 20.4584C2.5478 19.4651 2 18.1407 2 16.7439C2 15.3471 2.5478 14.0228 3.54005 13.0295L6.46512 10.1014L7.56072 11.1981L4.63566 14.1262C3.93282 14.8298 3.55039 15.7506 3.55039 16.7439C3.55039 17.7372 3.93282 18.6787 4.63566 19.3616C5.29716 20.0238 6.24806 20.4066 7.25065 20.4066C8.25323 20.4066 9.1938 20.0238 9.86563 19.3513L12.7907 16.4232L13.8863 17.5199L10.9612 20.448C9.96899 21.4413 8.64599 21.9897 7.25065 21.9897V22ZM7.73643 15.1609L15.1576 7.73202L16.2532 8.82876L8.83204 16.2576L7.73643 15.1609ZM16.4393 12.7915L19.3643 9.86342C20.801 8.42525 20.801 6.07656 19.3643 4.62804C18.6615 3.92447 17.7313 3.54165 16.7494 3.54165C15.7674 3.54165 14.8372 3.92447 14.1447 4.62804L11.2196 7.55613L10.124 6.45939L13.0491 3.5313C14.0413 2.53802 15.354 2 16.7597 2C18.1654 2 19.478 2.54837 20.4703 3.5313C21.4625 4.51423 22 5.83859 22 7.24573C22 8.65287 21.4522 9.96689 20.4703 10.9602L17.5452 13.8883L16.4496 12.7915H16.4393Z" fill="black"/>
</svg>
