<svg width="24" height="24" viewBox="0 0 24 24" fill="none" xmlns="http://www.w3.org/2000/svg">
<path d="M11.25 3.03081C6.87765 3.39152 3.39152 6.87765 3.03081 11.25H1V12.75H3.03081C3.39152 17.1223 6.87765 20.6085 11.25 20.9692V23H12.75V20.9692C17.1223 20.6085 20.6085 17.1223 20.9692 12.75H23V11.25H20.9692C20.6085 6.87765 17.1223 3.39152 12.75 3.03081V1H11.25V3.03081ZM12 4.5C16.1421 4.5 19.5 7.85786 19.5 12C19.5 16.1421 16.1421 19.5 12 19.5C7.85786 19.5 4.5 16.1421 4.5 12C4.5 7.85786 7.85786 4.5 12 4.5Z" fill="black"/>
<path d="M12 14.5C10.6193 14.5 9.5 13.3807 9.5 12C9.5 10.6193 10.6193 9.5 12 9.5C13.3807 9.5 14.5 10.6193 14.5 12C14.5 13.3807 13.3807 14.5 12 14.5ZM12 16C14.2091 16 16 14.2091 16 12C16 9.79086 14.2091 8 12 8C9.79086 8 8 9.79086 8 12C8 14.2091 9.79086 16 12 16Z" fill="black"/>
</svg>
