<svg width="24" height="24" viewBox="0 0 24 24" fill="none" xmlns="http://www.w3.org/2000/svg">
<path d="M11 3.1643C6.88848 3.62449 3.62449 6.88848 3.1643 11H1V13H3.1643C3.62449 17.1115 6.88848 20.3755 11 20.8357V23H13V20.8357C17.1115 20.3755 20.3755 17.1115 20.8357 13H23V11H20.8357C20.3755 6.88848 17.1115 3.62449 13 3.1643V1H11V3.1643ZM12 5.1087C15.806 5.1087 18.8913 8.19404 18.8913 12C18.8913 15.806 15.806 18.8913 12 18.8913C8.19404 18.8913 5.1087 15.806 5.1087 12C5.1087 8.19404 8.19404 5.1087 12 5.1087Z" fill="black"/>
<path d="M12 14C10.8954 14 10 13.1046 10 12C10 10.8954 10.8954 10 12 10C13.1046 10 14 10.8954 14 12C14 13.1046 13.1046 14 12 14ZM12 16C14.2091 16 16 14.2091 16 12C16 9.79086 14.2091 8 12 8C9.79086 8 8 9.79086 8 12C8 14.2091 9.79086 16 12 16Z" fill="black"/>
</svg>
