<svg width="24" height="24" viewBox="0 0 24 24" fill="none" xmlns="http://www.w3.org/2000/svg">
<path d="M12 2.75C7.99594 2.75 4.75 5.99594 4.75 10C4.75 11.9714 5.63988 13.8108 7.09421 15.6992C8.32046 17.2915 9.89001 18.8482 11.5594 20.504C11.7055 20.649 11.8525 20.7947 12 20.9413C12.1475 20.7947 12.2944 20.649 12.4406 20.504C14.11 18.8482 15.6795 17.2915 16.9058 15.6992C18.3601 13.8108 19.25 11.9714 19.25 10C19.25 5.99594 16.0041 2.75 12 2.75ZM3.25 10C3.25 5.16751 7.16751 1.25 12 1.25C16.8325 1.25 20.75 5.16751 20.75 10C20.75 12.4469 19.6399 14.6075 18.0942 16.6145C16.8011 18.2936 15.1459 19.9345 13.4779 21.5882C13.1617 21.9017 12.8451 22.2156 12.5303 22.5303C12.2374 22.8232 11.7626 22.8232 11.4697 22.5303C11.1549 22.2156 10.8383 21.9016 10.5221 21.5882C8.85407 19.9345 7.19894 18.2936 5.90579 16.6145C4.36012 14.6075 3.25 12.4469 3.25 10ZM12 7.75C10.7574 7.75 9.75 8.75736 9.75 10C9.75 11.2426 10.7574 12.25 12 12.25C13.2426 12.25 14.25 11.2426 14.25 10C14.25 8.75736 13.2426 7.75 12 7.75ZM8.25 10C8.25 7.92893 9.92893 6.25 12 6.25C14.0711 6.25 15.75 7.92893 15.75 10C15.75 12.0711 14.0711 13.75 12 13.75C9.92893 13.75 8.25 12.0711 8.25 10Z" fill="black"/>
</svg>
