<svg width="25" height="24" viewBox="0 0 25 24" fill="none" xmlns="http://www.w3.org/2000/svg">
<path d="M2.00391 6C2.00391 5.0335 2.78741 4.25 3.75391 4.25H21.7539C22.7204 4.25 23.5039 5.0335 23.5039 6V18C23.5039 18.9665 22.7204 19.75 21.7539 19.75H3.75391C2.78741 19.75 2.00391 18.9665 2.00391 18V6ZM3.75391 5.75C3.61584 5.75 3.50391 5.86193 3.50391 6V18C3.50391 18.1381 3.61584 18.25 3.75391 18.25H21.7539C21.892 18.25 22.0039 18.1381 22.0039 18V6C22.0039 5.86193 21.892 5.75 21.7539 5.75H3.75391Z" fill="black"/>
<path d="M2.36803 8.64312L3.13978 7.35688L12.7539 13.1254L22.368 7.35688L23.1398 8.64312L12.7539 14.8746L2.36803 8.64312Z" fill="black"/>
</svg>
