<svg width="24" height="24" viewBox="0 0 24 24" fill="none" xmlns="http://www.w3.org/2000/svg">
<path d="M14.9996 5.05127L8.99961 3.05127L2.78338 5.12335C2.37504 5.25946 2.09961 5.6416 2.09961 6.07203V20.8612C2.09961 21.5438 2.76831 22.0257 3.41584 21.8099L9.89961 19.6486V5.24864L14.0996 6.64864V8.99995H15.8996V6.64864L20.0996 5.24864V11H21.8996V4.1387C21.8996 3.45613 21.2309 2.97417 20.5834 3.19001L14.9996 5.05127ZM8.09961 18.3513L3.89961 19.7513V6.64864L8.09961 5.24864V18.3513Z" fill="black"/>
<path d="M16.0329 11.1C13.3083 11.1 11.0996 13.3087 11.0996 16.0333C11.0996 18.7579 13.3083 20.9666 16.0329 20.9666C17.0701 20.9666 18.0325 20.6466 18.8267 20.0999L22.3632 23.6364L23.636 22.3636L20.0995 18.8271C20.6462 18.0328 20.9663 17.0704 20.9663 16.0333C20.9663 13.3087 18.7575 11.1 16.0329 11.1ZM12.8996 16.0333C12.8996 14.3028 14.3025 12.9 16.0329 12.9C17.7634 12.9 19.1663 14.3028 19.1663 16.0333C19.1663 17.7638 17.7634 19.1666 16.0329 19.1666C14.3025 19.1666 12.8996 17.7638 12.8996 16.0333Z" fill="black"/>
</svg>
