<svg width="24" height="24" viewBox="0 0 24 24" fill="none" xmlns="http://www.w3.org/2000/svg">
<path d="M8.43503 2.25H1.68848L7.00747 11.2923V13.932L4.93945 16L7.00747 18.068V20.9926H9.9321L12.0001 23.0607L14.0681 20.9926H16.9928V18.068L19.0608 16L16.9928 13.932V11.2912L22.3111 2.25H15.5645L11.9998 8.48833L8.43503 2.25ZM15.4194 11.0074H14.0681L12.9353 9.87452L16.435 3.75H19.6885L15.4194 11.0074ZM11.0645 9.87493L9.93209 11.0074H8.58013L4.3111 3.75H7.56455L11.0645 9.87493ZM10.5534 12.5074L12.0001 11.0607L13.4468 12.5074H15.4928V14.5533L16.9395 16L15.4928 17.4467V19.4926H13.4468L12.0001 20.9393L10.5534 19.4926H8.50747V17.4467L7.06077 16L8.50747 14.5533V12.5074H10.5534Z" fill="black"/>
</svg>
