<svg width="24" height="24" viewBox="0 0 24 24" fill="none" xmlns="http://www.w3.org/2000/svg">
<path d="M15.4695 10.4587V6.75481C15.4695 5.81028 14.4128 5.24704 13.6239 5.77081L9.53509 8.48734V4.78414C9.53509 3.83961 8.47832 3.27637 7.68943 3.80014L4.12836 6.16548C3.79804 6.38489 3.59998 6.75414 3.59998 7.14948V14.1619C3.59998 15.1064 4.65675 15.6696 5.44563 15.1459L9.53509 12.4293V16.1325C9.53509 17.0771 10.5919 17.6403 11.3807 17.1165L15.4702 14.4V18.1032C15.4702 19.0477 16.527 19.611 17.3159 19.0872L20.8769 16.7219C21.2073 16.5025 21.4053 16.1332 21.4053 15.7379V8.72615C21.4053 7.78162 20.3485 7.21838 19.5597 7.74215L15.4695 10.4587Z" fill="#B5B7BF"/>
</svg>
