<svg width="24" height="24" viewBox="0 0 24 24" fill="none" xmlns="http://www.w3.org/2000/svg">
<path d="M12 22C17.5228 22 22 17.5228 22 12C22 6.47715 17.5228 2 12 2C6.47715 2 2 6.47715 2 12C2 17.5228 6.47715 22 12 22ZM14.8102 10.3916C14.7677 10.0989 14.6805 9.8346 14.5486 9.59886C14.4168 9.36312 14.2424 9.1616 14.0255 8.9943C13.8086 8.827 13.5513 8.69962 13.2536 8.61217C12.9601 8.52091 12.6348 8.47529 12.2775 8.47529C11.6438 8.47529 11.0973 8.61407 10.638 8.89164C10.1829 9.1692 9.832 9.57034 9.58533 10.0951C9.3429 10.6198 9.22169 11.2548 9.22169 12C9.22169 12.7757 9.34503 13.4259 9.59171 13.9506C9.84264 14.4715 10.1935 14.865 10.6443 15.1312C11.0994 15.3935 11.6374 15.5247 12.2584 15.5247C12.6071 15.5247 12.924 15.4848 13.2089 15.4049C13.4981 15.3251 13.7512 15.2091 13.9681 15.057C14.1893 14.9011 14.37 14.7129 14.5104 14.4924C14.655 14.2681 14.7549 14.0152 14.8102 13.7338L18 13.7509C17.9447 14.2681 17.7767 14.7776 17.496 15.2795C17.2196 15.7814 16.8389 16.2395 16.3541 16.654C15.8692 17.0646 15.278 17.3916 14.5805 17.635C13.8873 17.8783 13.092 18 12.1946 18C11.0122 18 9.95322 17.7681 9.01754 17.3042C8.08612 16.8365 7.35035 16.1559 6.81021 15.2624C6.27007 14.3688 6 13.2814 6 12C6 10.7148 6.27432 9.62548 6.82297 8.73194C7.37161 7.8384 8.11377 7.1597 9.04944 6.69582C9.98511 6.23194 11.0335 6 12.1946 6C12.9856 6 13.7172 6.09886 14.3892 6.29658C15.0611 6.49049 15.6523 6.77567 16.1627 7.15209C16.673 7.52471 17.0877 7.98289 17.4067 8.52662C17.7257 9.07034 17.9234 9.69202 18 10.3916H14.8102Z" fill="white"/>
</svg>
