<svg width="24" height="24" viewBox="0 0 24 24" fill="none" xmlns="http://www.w3.org/2000/svg">
<path d="M8.71883 14.0328L8.66586 14.7809L8.66586 14.7809L8.71883 14.0328ZM2.43874 18.6838L3.15027 18.9209L3.1518 18.9163L2.43874 18.6838ZM3.96986 13.9876L4.68292 14.2201C4.80452 13.8471 4.61816 13.4434 4.25542 13.2941L3.96986 13.9876ZM8 7L8.02348 6.25037L8.0115 6.24999L7.99951 6.25L8 7ZM13.8725 14.8321L14.0706 14.1087L13.8725 14.8321ZM13.8688 6.18051L14.0929 6.89626L13.8688 6.18051ZM13.25 6.27622V14.7355H14.75V6.27622H13.25ZM14.0706 14.1087C11.7256 13.4668 9.71902 13.3517 8.77179 13.2846L8.66586 14.7809C9.61477 14.8481 11.4875 14.9568 13.6745 15.5555L14.0706 14.1087ZM7.06056 14.4466L5.51641 19.0791L6.93944 19.5534L8.48359 14.9209L7.06056 14.4466ZM5.27924 19.25H3.38743V20.75H5.27924V19.25ZM3.1518 18.9163L4.68292 14.2201L3.2568 13.7551L1.72568 18.4513L3.1518 18.9163ZM5.96889 7.75134L8.0005 7.75L7.99951 6.25L5.9679 6.25134L5.96889 7.75134ZM8 7C7.97652 7.74963 7.97666 7.74964 7.9768 7.74964C7.97687 7.74964 7.97703 7.74965 7.97715 7.74965C7.97741 7.74966 7.97771 7.74967 7.97806 7.74968C7.97875 7.7497 7.97962 7.74973 7.98068 7.74976C7.98278 7.74982 7.9856 7.74989 7.98912 7.74999C7.99617 7.75017 8.00604 7.75041 8.01863 7.75066C8.04381 7.75117 8.0799 7.75177 8.12617 7.75217C8.2187 7.75297 8.35202 7.75301 8.52024 7.7501C8.85646 7.74429 9.33333 7.72671 9.9034 7.67974C11.0392 7.58617 12.5655 7.37439 14.0929 6.89626L13.6448 5.46476C12.2586 5.89868 10.8504 6.09665 9.78025 6.18481C9.24731 6.22871 8.80326 6.24499 8.49433 6.25032C8.33997 6.25299 8.21965 6.25292 8.13917 6.25222C8.09895 6.25188 8.0687 6.25137 8.04917 6.25097C8.03941 6.25077 8.03232 6.2506 8.02801 6.25049C8.02585 6.25043 8.02439 6.25039 8.02363 6.25037C8.02325 6.25036 8.02305 6.25035 8.02302 6.25035C8.02301 6.25035 8.02304 6.25035 8.02312 6.25036C8.02316 6.25036 8.02325 6.25036 8.02327 6.25036C8.02337 6.25036 8.02348 6.25037 8 7ZM4.25542 13.2941C2.30557 12.4912 1.87337 10.1237 3.02603 8.63692L1.84056 7.71786C0.145921 9.90373 0.722591 13.4616 3.6843 14.6811L4.25542 13.2941ZM3.38743 19.25C3.21679 19.25 3.09629 19.0828 3.15026 18.9209L1.72723 18.4466C1.3495 19.5798 2.19295 20.75 3.38743 20.75V19.25ZM5.51641 19.0791C5.48238 19.1811 5.38685 19.25 5.27924 19.25V20.75C6.03249 20.75 6.70124 20.268 6.93944 19.5534L5.51641 19.0791ZM8.77179 13.2846C7.97748 13.2284 7.29738 13.7361 7.06056 14.4466L8.48359 14.9209C8.519 14.8147 8.60146 14.7763 8.66586 14.7809L8.77179 13.2846ZM5.9679 6.25134C5.29792 6.25178 4.53556 6.28784 3.81875 6.47842C3.09365 6.67121 2.37057 7.03422 1.84056 7.71786L3.02603 8.63692C3.29496 8.29003 3.68746 8.06544 4.20418 7.92806C4.7292 7.78847 5.33491 7.75176 5.96889 7.75134L5.9679 6.25134ZM13.25 14.7355C13.25 14.2997 13.6641 13.9974 14.0706 14.1087L13.6745 15.5555C14.2087 15.7017 14.75 15.3037 14.75 14.7355H13.25ZM14.75 6.27622C14.75 5.69459 14.1853 5.29555 13.6448 5.46476L14.0929 6.89626C13.6819 7.0249 13.25 6.72207 13.25 6.27622H14.75Z" fill="black"/>
<mask id="mask0_1_10" style="mask-type:alpha" maskUnits="userSpaceOnUse" x="17" y="3" width="6" height="15">
<path d="M17 3H23V17.9725H17V3Z" fill="white"/>
</mask>
<g mask="url(#mask0_1_10)">
<circle cx="16" cy="11" r="6.25" stroke="black" stroke-width="1.5"/>
<circle cx="16" cy="11" r="2.25" stroke="black" stroke-width="1.5"/>
</g>
</svg>
