<svg width="24" height="24" viewBox="0 0 24 24" fill="none" xmlns="http://www.w3.org/2000/svg">
<path d="M8.71875 14.0328L8.66579 14.7809H8.66579L8.71875 14.0328ZM2.43867 18.6838L3.1502 18.9209L3.15173 18.9162L2.43867 18.6838ZM3.96978 13.9876L4.68284 14.2201C4.80444 13.8471 4.61809 13.4434 4.25535 13.2941L3.96978 13.9876ZM7.99993 6.99999L8.02341 6.25036L8.01142 6.24998L7.99943 6.24999L7.99993 6.99999ZM13.8725 14.8321L14.0705 14.1087L13.8725 14.8321ZM13.8687 6.1805L14.0928 6.89625L13.8687 6.1805ZM13.2499 6.27621V14.7355H14.7499V6.27621H13.2499ZM14.0705 14.1087C11.7255 13.4668 9.71894 13.3517 8.77172 13.2846L8.66579 14.7809C9.61469 14.8481 11.4875 14.9568 13.6744 15.5555L14.0705 14.1087ZM7.06049 14.4466L5.51634 19.079L6.93936 19.5534L8.48351 14.9209L7.06049 14.4466ZM5.27917 19.25H3.38735V20.75H5.27917V19.25ZM3.15173 18.9162L4.68284 14.2201L3.25673 13.7551L1.72561 18.4513L3.15173 18.9162ZM5.96882 7.75133L8.00042 7.74999L7.99943 6.24999L5.96783 6.25133L5.96882 7.75133ZM7.99993 6.99999C7.97645 7.74962 7.97658 7.74963 7.97673 7.74963C7.97679 7.74963 7.97695 7.74964 7.97708 7.74964C7.97733 7.74965 7.97764 7.74966 7.97798 7.74967C7.97868 7.74969 7.97955 7.74972 7.9806 7.74975C7.98271 7.74981 7.98553 7.74988 7.98905 7.74998C7.9961 7.75016 8.00596 7.7504 8.01856 7.75065C8.04374 7.75116 8.07983 7.75176 8.1261 7.75216C8.21862 7.75296 8.35194 7.753 8.52016 7.75009C8.85639 7.74428 9.33326 7.7267 9.90333 7.67973C11.0392 7.58616 12.5654 7.37438 14.0928 6.89625L13.6447 5.46475C12.2585 5.89867 10.8503 6.09664 9.78017 6.1848C9.24723 6.2287 8.80319 6.24498 8.49425 6.25031C8.33989 6.25298 8.21957 6.25291 8.1391 6.25221C8.09887 6.25187 8.06863 6.25136 8.0491 6.25096C8.03933 6.25076 8.03225 6.25059 8.02794 6.25048C8.02578 6.25042 8.02432 6.25038 8.02356 6.25036C8.02318 6.25035 8.02297 6.25034 8.02295 6.25034C8.02294 6.25034 8.02297 6.25034 8.02304 6.25035C8.02308 6.25035 8.02317 6.25035 8.02319 6.25035C8.02329 6.25035 8.02341 6.25036 7.99993 6.99999ZM4.25535 13.2941C2.30549 12.4912 1.87329 10.1237 3.02596 8.63691L1.84049 7.71785C0.145846 9.90372 0.722516 13.4616 3.68422 14.6811L4.25535 13.2941ZM3.38735 19.25C3.21671 19.25 3.09622 19.0828 3.15018 18.9209L1.72716 18.4466C1.34943 19.5798 2.19288 20.75 3.38735 20.75V19.25ZM5.51634 19.079C5.48231 19.1811 5.38678 19.25 5.27917 19.25V20.75C6.03242 20.75 6.70116 20.268 6.93936 19.5534L5.51634 19.079ZM8.77172 13.2846C7.97741 13.2284 7.29731 13.7361 7.06049 14.4466L8.48351 14.9209C8.51892 14.8147 8.60138 14.7763 8.66579 14.7809L8.77172 13.2846ZM5.96783 6.25133C5.29785 6.25177 4.53549 6.28783 3.81868 6.47841C3.09358 6.6712 2.3705 7.03421 1.84049 7.71785L3.02596 8.63691C3.29489 8.29002 3.68738 8.06543 4.20411 7.92805C4.72912 7.78846 5.33484 7.75175 5.96882 7.75133L5.96783 6.25133ZM13.2499 14.7355C13.2499 14.2997 13.6641 13.9974 14.0705 14.1087L13.6744 15.5555C14.2087 15.7017 14.7499 15.3037 14.7499 14.7355H13.2499ZM14.7499 6.27621C14.7499 5.69458 14.1852 5.29554 13.6447 5.46475L14.0928 6.89625C13.6818 7.02489 13.2499 6.72206 13.2499 6.27621H14.7499Z" fill="black"/>
<path d="M17 17.125C20.3827 17.125 23.125 14.3827 23.125 11C23.125 7.61726 20.3827 4.875 17 4.875" stroke="black" stroke-width="1.5"/>
<path d="M17 13.625C17.3068 13.625 17.6013 13.5724 17.875 13.4756C18.8945 13.1153 19.625 12.1429 19.625 11C19.625 9.85706 18.8945 8.88472 17.875 8.52437C17.6013 8.42763 17.3068 8.375 17 8.375" stroke="black" stroke-width="1.5"/>
</svg>
