<svg width="24" height="24" viewBox="0 0 24 24" fill="none" xmlns="http://www.w3.org/2000/svg">
<path d="M11.25 9.00004H9.75C9.75 7.55595 11.0005 6.59998 12.269 6.59998C13.5591 6.59998 14.75 7.57578 14.75 9.00004C14.75 9.6453 14.4433 10.07 14.1267 10.3777C14.0063 10.4947 13.8691 10.6092 13.752 10.707L13.6893 10.7594C13.5502 10.8763 13.4247 10.9856 13.306 11.1097C13.1968 11.2239 13.1354 11.3224 13.095 11.4335C13.052 11.5518 13.019 11.7233 13.019 12H11.519C11.519 11.6088 11.565 11.2521 11.6852 10.9211C11.8082 10.5829 11.9943 10.3109 12.2221 10.0728C12.3995 9.88738 12.5765 9.73524 12.7246 9.61083L12.8023 9.5457C12.9195 9.4477 13.005 9.37612 13.0813 9.30196C13.2347 9.15292 13.25 9.09144 13.25 9.00004C13.25 8.51077 12.8415 8.09998 12.269 8.09998C11.6748 8.09998 11.25 8.5306 11.25 9.00004Z" fill="black"/>
<path d="M11.519 13H13.019V14H11.519V13Z" fill="black"/>
<path d="M20 3.25C20.9665 3.25 21.75 4.0335 21.75 5V16C21.75 16.9665 20.9665 17.75 20 17.75H7.01309L3.63099 20.4557C3.07445 20.9009 2.25 20.5047 2.25 19.7919V5C2.25 4.0335 3.0335 3.25 4 3.25H20ZM20.25 5C20.25 4.86193 20.1381 4.75 20 4.75H4C3.86193 4.75 3.75 4.86193 3.75 5V18.4395L6.48691 16.25H20C20.1381 16.25 20.25 16.1381 20.25 16V5Z" fill="black"/>
</svg>
