<svg width="24" height="24" viewBox="0 0 24 24" fill="none" xmlns="http://www.w3.org/2000/svg">
<path d="M19 4H5C3.89543 4 3 4.89543 3 6V19.7919C3 19.8758 3.09699 19.9224 3.16247 19.87L6.75 17H19C20.1046 17 21 16.1046 21 15V6C21 4.89543 20.1046 4 19 4Z" fill="black"/>
<path d="M21.75 6C21.75 4.48122 20.5188 3.25 19 3.25H5C3.48122 3.25 2.25 4.48122 2.25 6V19.7919C2.25 20.5047 3.07445 20.9009 3.63099 20.4557L7.01309 17.75H19C20.5188 17.75 21.75 16.5188 21.75 15V6ZM19 4.75C19.6904 4.75 20.25 5.30964 20.25 6V15C20.25 15.6904 19.6904 16.25 19 16.25H6.48691L3.75 18.4395V6C3.75 5.30964 4.30964 4.75 5 4.75H19Z" fill="black"/>
<path d="M8.99951 10.4998C8.99951 11.0521 8.5518 11.4998 7.99951 11.4998C7.44723 11.4998 6.99951 11.0521 6.99951 10.4998C6.99951 9.94753 7.44723 9.49982 7.99951 9.49982C8.5518 9.49982 8.99951 9.94753 8.99951 10.4998Z" fill="white"/>
<path d="M12.9993 10.4998C12.9993 11.0521 12.5516 11.4998 11.9993 11.4998C11.447 11.4998 10.9993 11.0521 10.9993 10.4998C10.9993 9.94753 11.447 9.49982 11.9993 9.49982C12.5516 9.49982 12.9993 9.94753 12.9993 10.4998Z" fill="white"/>
<path d="M15.9998 11.4998C16.552 11.4998 16.9998 11.0521 16.9998 10.4998C16.9998 9.94753 16.552 9.49982 15.9998 9.49982C15.4475 9.49982 14.9998 9.94753 14.9998 10.4998C14.9998 11.0521 15.4475 11.4998 15.9998 11.4998Z" fill="white"/>
</svg>
