<svg width="24" height="24" viewBox="0 0 24 24" fill="none" xmlns="http://www.w3.org/2000/svg">
<path d="M7 8H17.5V9.3125H7V8ZM15.75 12.8125H7V11.5H15.75V12.8125Z" fill="#666666"/>
<path d="M18.75 3C20.2688 3 21.5 4.23122 21.5 5.75V14.75C21.5 16.2688 20.2688 17.5 18.75 17.5H6.76309L3.38099 20.2057C2.82445 20.6509 2 20.2547 2 19.5419V5.75C2 4.23122 3.23122 3 4.75 3H18.75ZM20 5.75C20 5.05964 19.4404 4.5 18.75 4.5H4.75C4.05964 4.5 3.5 5.05964 3.5 5.75V18.1895L6.23691 16H18.75C19.4404 16 20 15.4404 20 14.75V5.75Z" fill="#666666"/>
</svg>