<svg width="24" height="24" viewBox="0 0 24 24" fill="none" xmlns="http://www.w3.org/2000/svg">
<path d="M8 11.4998C7.44772 11.4998 7 11.052 7 10.4998C7 9.94747 7.44772 9.49976 8 9.49976C8.55228 9.49976 9 9.94747 9 10.4998C9 11.052 8.55228 11.4998 8 11.4998Z" fill="black"/>
<path d="M11.9998 11.4998C11.4475 11.4998 10.9998 11.052 10.9998 10.4998C10.9998 9.94747 11.4475 9.49976 11.9998 9.49976C12.552 9.49976 12.9998 9.94747 12.9998 10.4998C12.9998 11.052 12.552 11.4998 11.9998 11.4998Z" fill="black"/>
<path d="M17.0002 10.4998C17.0002 11.052 16.5525 11.4998 16.0002 11.4998C15.448 11.4998 15.0002 11.052 15.0002 10.4998C15.0002 9.94747 15.448 9.49976 16.0002 9.49976C16.5525 9.49976 17.0002 9.94747 17.0002 10.4998Z" fill="black"/>
<path d="M19 3.25C20.5188 3.25 21.75 4.48122 21.75 6V15C21.75 16.5188 20.5188 17.75 19 17.75H7.01309L3.63099 20.4557C3.07445 20.9009 2.25 20.5047 2.25 19.7919V6C2.25 4.48122 3.48122 3.25 5 3.25H19ZM20.25 6C20.25 5.30964 19.6904 4.75 19 4.75H5C4.30964 4.75 3.75 5.30964 3.75 6V18.4395L6.48691 16.25H19C19.6904 16.25 20.25 15.6904 20.25 15V6Z" fill="black"/>
</svg>
 