<svg width="24" height="24" viewBox="0 0 24 24" fill="none" xmlns="http://www.w3.org/2000/svg">
<path d="M11.25 6V2H12.75V6H11.25Z" fill="black"/>
<path d="M11.25 22V18H12.75V22H11.25Z" fill="black"/>
<path d="M17 12C17 14.7614 14.7614 17 12 17C9.23858 17 7 14.7614 7 12C7 9.23858 9.23858 7 12 7C14.7614 7 17 9.23858 17 12ZM12 8.5C10.067 8.5 8.5 10.067 8.5 12C8.5 13.933 10.067 15.5 12 15.5V8.5Z" fill="black"/>
<path d="M6 11.25V12.75H2V11.25H6Z" fill="black"/>
<path d="M5.45966 4.39862L8.28809 7.22705L7.22743 8.28771L4.399 5.45928L5.45966 4.39862Z" fill="black"/>
<path d="M5.45898 19.6014L4.39832 18.5408L7.22675 15.7124L8.28741 16.773L5.45898 19.6014Z" fill="black"/>
</svg>
