<svg width="24" height="24" viewBox="0 0 24 24" fill="none" xmlns="http://www.w3.org/2000/svg">
<path d="M15.4272 21.18C14.9515 21.18 14.4757 21.1218 14.0194 20.9958C13.1942 20.7632 12.4466 20.3367 11.8252 19.7455C11.8058 19.7261 11.7961 19.7164 11.7767 19.697C11.7282 19.6485 11.6893 19.6098 11.6408 19.5613C11.5243 19.445 11.3981 19.3287 11.2815 19.2124C11.1068 19.0476 10.9417 18.8731 10.767 18.7083C10.5728 18.5145 10.3689 18.3206 10.1748 18.1268C9.98058 17.9329 9.76699 17.7294 9.57281 17.5258C9.38835 17.3417 9.20388 17.1672 9.01941 16.983C8.87378 16.8473 8.73786 16.7019 8.59223 16.5662C8.55339 16.5275 8.50485 16.479 8.46602 16.4402C8.43689 16.4111 8.27184 16.227 8.23301 16.3142C8.23301 16.3239 8.23301 16.3336 8.23301 16.3433C8.29126 16.4402 8.37864 16.5178 8.43689 16.6147C8.49514 16.7116 8.5631 16.8086 8.61165 16.9152C8.71844 17.109 8.79611 17.3126 8.84466 17.5258C8.88349 17.7003 8.90291 17.8748 8.90291 18.0589C8.90291 18.6793 8.66019 19.2608 8.2233 19.697C7.7767 20.1332 7.19417 20.3658 6.57281 20.3658C5.95145 20.3658 5.35922 20.1235 4.92233 19.697C3.99029 18.7859 3.26214 17.71 2.75728 16.5081C2.25243 15.3062 2 14.0364 2 12.7279C2 11.4194 2.25243 10.1496 2.75728 8.9477C3.26214 7.74579 3.99029 6.66989 4.92233 5.75877C6.82524 3.89775 9.33009 2.88 12.0097 2.88C14.6893 2.88 17.1942 3.89775 19.0777 5.75877C20.0194 6.68927 20.7476 7.76517 21.2427 8.9477C21.7476 10.1496 22 11.4194 22 12.7182C22 14.017 21.7476 15.2965 21.2427 16.4984C20.7379 17.6906 20.0097 18.7665 19.068 19.6873C18.4272 20.3173 17.6214 20.7826 16.7476 21.0055C16.3107 21.1122 15.8738 21.1703 15.4272 21.18ZM8.48543 14.87C8.61165 14.8894 8.73786 14.9282 8.86407 14.9669C9.05825 15.0348 9.23301 15.1608 9.37864 15.2965L12.8058 18.6696C13.5049 19.3578 14.4369 19.7358 15.4272 19.7358C16.4175 19.7358 17.3495 19.3578 18.0485 18.6696C18.8447 17.9038 19.466 16.983 19.9029 15.9556C20.3301 14.9378 20.5534 13.8523 20.5534 12.7376C20.5534 11.6229 20.3398 10.547 19.9029 9.51957C19.466 8.49213 18.8447 7.58101 18.0583 6.80559C16.4466 5.20628 14.2913 4.33392 12 4.33392C9.70873 4.33392 7.57281 5.20628 5.96116 6.7862C5.16505 7.57132 4.54369 8.48244 4.10679 9.50018C3.67961 10.5082 3.45631 11.5938 3.45631 12.7182C3.45631 13.8426 3.6699 14.8991 4.10679 15.9362C4.54369 16.9636 5.16505 17.8845 5.95145 18.6502C6.1165 18.815 6.3398 18.9119 6.58252 18.9119C6.82524 18.9119 7.04854 18.8247 7.21359 18.6502C7.37864 18.4854 7.47573 18.2722 7.47573 18.0395C7.47573 17.8069 7.38835 17.5937 7.21359 17.4289C7.05825 17.2738 6.94175 17.109 6.87378 16.9249C6.79611 16.7407 6.75728 16.5468 6.75728 16.353C6.75728 16.1591 6.79611 15.9653 6.87378 15.7714C6.95145 15.597 7.06796 15.4225 7.21359 15.2771C7.41747 15.0832 7.67961 14.9378 7.95145 14.87C8.12621 14.8312 8.31068 14.8312 8.49514 14.8603L8.48543 14.87Z" fill="black"/>
<path d="M17.6408 14.3369C16.767 14.3369 16.0583 13.6293 16.0583 12.757C16.0583 11.8846 16.767 11.177 17.6408 11.177C18.5146 11.177 19.2233 11.8846 19.2233 12.757C19.2233 13.6293 18.5146 14.3369 17.6408 14.3369ZM17.6408 12.4371C17.466 12.4371 17.3204 12.5825 17.3204 12.757C17.3204 12.9314 17.466 13.0768 17.6408 13.0768C17.8155 13.0768 17.9612 12.9314 17.9612 12.757C17.9612 12.5825 17.8155 12.4371 17.6408 12.4371Z" fill="black"/>
<path d="M10.5728 9.83942C9.53399 9.83942 8.68933 8.99615 8.68933 7.95902C8.68933 6.92189 9.53399 6.07861 10.5728 6.07861C11.6117 6.07861 12.4563 6.92189 12.4563 7.95902C12.4563 8.99615 11.6117 9.83942 10.5728 9.83942ZM10.5728 7.34837C10.233 7.34837 9.95148 7.62946 9.95148 7.96871C9.95148 8.30796 10.233 8.58905 10.5728 8.58905C10.9126 8.58905 11.1942 8.30796 11.1942 7.96871C11.1942 7.62946 10.9126 7.34837 10.5728 7.34837Z" fill="black"/>
<path d="M15.4078 10.6827C14.369 10.6827 13.5243 9.83947 13.5243 8.80234C13.5243 7.76521 14.369 6.92194 15.4078 6.92194C16.4466 6.92194 17.2913 7.76521 17.2913 8.80234C17.2913 9.83947 16.4466 10.6827 15.4078 10.6827ZM15.4078 8.19169C15.068 8.19169 14.7864 8.47278 14.7864 8.81203C14.7864 9.15128 15.068 9.43237 15.4078 9.43237C15.7476 9.43237 16.0291 9.15128 16.0291 8.81203C16.0291 8.47278 15.7476 8.19169 15.4078 8.19169Z" fill="black"/>
<path d="M15.4078 18.8925C14.1748 18.8925 13.1748 17.8942 13.1748 16.6632C13.1748 15.4322 14.1748 14.4338 15.4078 14.4338C16.6408 14.4338 17.6408 15.4322 17.6408 16.6632C17.6408 17.8942 16.6408 18.8925 15.4078 18.8925ZM15.4078 15.6939C14.8738 15.6939 14.4369 16.1301 14.4369 16.6632C14.4369 17.1963 14.8738 17.6325 15.4078 17.6325C15.9418 17.6325 16.3787 17.1963 16.3787 16.6632C16.3787 16.1301 15.9418 15.6939 15.4078 15.6939Z" fill="black"/>
</svg>
