<svg width="24" height="24" viewBox="0 0 24 24" fill="none" xmlns="http://www.w3.org/2000/svg">
<path d="M6.90502 3.66234C6.62124 3.5188 6.2861 3.5188 6.00232 3.66234C5.8956 3.71632 5.76256 3.83158 5.17554 4.41861L5.0179 4.57624C4.45769 5.13646 4.30668 5.29848 4.18597 5.51336C4.04606 5.76243 3.92884 6.21317 3.92969 6.49884C3.93045 6.75305 3.96798 6.90614 4.13324 7.48839C4.94884 10.362 6.48744 13.0737 8.75177 15.3381C11.0161 17.6024 13.7279 19.141 16.6014 19.9566C17.1837 20.1219 17.3368 20.1594 17.591 20.1601C17.8767 20.161 18.3274 20.0438 18.5765 19.9039C18.7914 19.7831 18.9534 19.6321 19.5136 19.0719L19.6712 18.9143C20.2582 18.3273 20.3735 18.1942 20.4275 18.0875C20.571 17.8037 20.571 17.4686 20.4275 17.1848C20.3735 17.0781 20.2583 16.9451 19.6712 16.358L19.4764 16.1632C19.0907 15.7775 19.0039 15.6985 18.9382 15.6557C18.6067 15.4402 18.1795 15.4402 17.848 15.6557C17.7823 15.6985 17.6955 15.7775 17.3098 16.1632C17.3022 16.1708 17.2944 16.1786 17.2864 16.1866C17.1967 16.2767 17.0831 16.3907 16.9466 16.4884C16.4597 16.8371 15.7976 16.95 15.2226 16.7824C15.0622 16.7356 14.9302 16.672 14.8275 16.6225C14.8193 16.6186 14.8114 16.6148 14.8037 16.611C13.2537 15.8669 11.802 14.8528 10.5195 13.5703C9.23706 12.2878 8.22297 10.8361 7.4788 9.28617C7.47507 9.27842 7.47125 9.27048 7.46733 9.26236C7.41783 9.15967 7.35419 9.02766 7.30744 8.86728C7.13981 8.29225 7.25271 7.63018 7.60141 7.1432C7.69911 7.00676 7.81314 6.89315 7.9032 6.80341C7.91122 6.79542 7.91906 6.78761 7.92667 6.78C8.31238 6.39429 8.39136 6.30756 8.43409 6.24183C8.64959 5.91038 8.64959 5.48309 8.4341 5.15165C8.39136 5.08591 8.31238 4.99918 7.92667 4.61347L7.7318 4.4186C7.14478 3.83158 7.01174 3.71632 6.90502 3.66234ZM5.09963 1.87764C5.95097 1.44704 6.95637 1.44704 7.80771 1.87764C8.24031 2.09645 8.61586 2.47296 9.0503 2.90851C9.08188 2.94017 9.11377 2.97215 9.14601 3.00439L9.34088 3.19926C9.36213 3.22051 9.38318 3.24152 9.40402 3.26233C9.69068 3.5485 9.93761 3.79501 10.1108 4.06146C10.7573 5.0558 10.7573 6.33767 10.1108 7.33201C9.93761 7.59846 9.69068 7.84497 9.40402 8.13114C9.38318 8.15195 9.36213 8.17296 9.34088 8.19421C9.28328 8.25182 9.25389 8.28136 9.23342 8.30302L9.23235 8.3084C9.23198 8.31056 9.23151 8.31438 9.23151 8.31438C9.23481 8.32169 9.23927 8.33136 9.24542 8.34443C9.25503 8.36485 9.26632 8.38839 9.28176 8.42053C9.92958 9.76981 10.8131 11.0354 11.9337 12.1561C13.0544 13.2768 14.32 14.1603 15.6693 14.8081C15.7014 14.8235 15.725 14.8348 15.7454 14.8444C15.7585 14.8506 15.7681 14.855 15.7755 14.8583C15.7755 14.8583 15.7793 14.8579 15.7814 14.8575L15.7868 14.8564C15.8085 14.8359 15.838 14.8066 15.8956 14.7489C15.9169 14.7277 15.9379 14.7066 15.9587 14.6858C16.2449 14.3991 16.4914 14.1522 16.7578 13.979C17.7522 13.3325 19.034 13.3325 20.0284 13.979C20.2948 14.1522 20.5413 14.3991 20.8275 14.6858C20.8483 14.7066 20.8693 14.7277 20.8906 14.7489L21.0854 14.9438C21.1177 14.9761 21.1497 15.0079 21.1813 15.0395C21.6169 15.474 21.9934 15.8495 22.2122 16.2821C22.6428 17.1335 22.6428 18.1389 22.2122 18.9902C21.9934 19.4228 21.6169 19.7984 21.1813 20.2328C21.1497 20.2644 21.1177 20.2963 21.0854 20.3285L20.9278 20.4861C20.905 20.509 20.8824 20.5316 20.8601 20.5539C20.3948 21.0196 20.0381 21.3768 19.556 21.6476C19.0061 21.9565 18.2158 22.162 17.585 22.1601C17.0332 22.1585 16.6307 22.0441 16.1117 21.8966C16.0931 21.8913 16.0743 21.886 16.0554 21.8806C12.8621 20.9743 9.84919 19.2639 7.33755 16.7523C4.82592 14.2406 3.11557 11.2277 2.20923 8.03448C2.20386 8.01555 2.19853 7.99678 2.19323 7.97816C2.04573 7.45915 1.93134 7.05668 1.9297 6.5048C1.92782 5.87402 2.13333 5.08378 2.44226 4.53384C2.71306 4.05177 3.07021 3.69498 3.53594 3.22973C3.55828 3.20742 3.58086 3.18486 3.60369 3.16203L3.76132 3.00439C3.79357 2.97215 3.82546 2.94017 3.85704 2.90851C4.29148 2.47296 4.66703 2.09645 5.09963 1.87764Z" fill="black"/>
</svg>
