<svg width="24" height="24" viewBox="0 0 24 24" fill="none" xmlns="http://www.w3.org/2000/svg">
<path d="M7.01785 3.43925C6.66313 3.25983 6.24421 3.25983 5.88949 3.43925C5.7381 3.51582 5.57189 3.6687 4.99876 4.24183L4.84113 4.39946C4.28856 4.95203 4.1091 5.13975 3.96801 5.39092C3.80697 5.6776 3.67871 6.17078 3.67969 6.49959C3.68057 6.79348 3.72874 6.97885 3.89274 7.55665C4.71968 10.4702 6.27975 13.2196 8.57499 15.5148C10.8702 17.8101 13.6197 19.3701 16.5332 20.1971C17.111 20.3611 17.2964 20.4093 17.5903 20.4101C17.9191 20.4111 18.4122 20.2829 18.6989 20.1218C18.9501 19.9807 19.1378 19.8013 19.6904 19.2487L19.848 19.0911C20.4211 18.5179 20.574 18.3517 20.6506 18.2003C20.83 17.8456 20.83 17.4267 20.6506 17.072C20.574 16.9206 20.4211 16.7544 19.848 16.1813L19.6531 15.9864C19.2765 15.6097 19.1677 15.5068 19.0745 15.4461C18.6602 15.1768 18.126 15.1768 17.7117 15.4461C17.6185 15.5068 17.5097 15.6097 17.1331 15.9864C17.1258 15.9937 17.1184 16.001 17.1111 16.0084C17.0189 16.1008 16.9197 16.2002 16.8011 16.2852C16.3765 16.5892 15.7939 16.6885 15.2925 16.5424C15.1529 16.5017 15.0384 16.4466 14.9339 16.3962C14.9265 16.3927 14.9192 16.3892 14.9119 16.3857C13.387 15.6535 11.9586 14.6558 10.6963 13.3935C9.43406 12.1313 8.4363 10.7028 7.70417 9.17797C7.70067 9.17068 7.69713 9.16334 7.69358 9.15595C7.64325 9.0514 7.58816 8.93697 7.54745 8.79732C7.4013 8.29595 7.50065 7.71334 7.80468 7.28874C7.88964 7.17009 7.98905 7.07091 8.08142 6.97876C8.08881 6.97139 8.09616 6.96406 8.10345 6.95677C8.48013 6.58009 8.58306 6.47134 8.64369 6.3781C8.91306 5.96379 8.91306 5.42968 8.64369 5.01537C8.58307 4.92213 8.48013 4.81338 8.10345 4.4367L7.90858 4.24183C7.33545 3.6687 7.16924 3.51582 7.01785 3.43925ZM5.21247 2.10073C5.99286 1.70601 6.91448 1.70601 7.69487 2.10073C8.09002 2.30059 8.4371 2.64823 8.88557 3.09741C8.91307 3.12495 8.94094 3.15287 8.96924 3.18117L9.16411 3.37604C9.18274 3.39467 9.20113 3.41304 9.21926 3.43115C9.51488 3.72646 9.74301 3.95435 9.90126 4.19774C10.4939 5.10921 10.4939 6.28426 9.90126 7.19574C9.74301 7.43912 9.51488 7.66701 9.21925 7.96233C9.20113 7.98044 9.18274 7.9988 9.16411 8.01743C9.10368 8.07787 9.07095 8.11072 9.04682 8.13651C9.03619 8.14787 9.03046 8.15445 9.02749 8.158L9.02487 8.16121C8.98889 8.21147 8.97021 8.31819 8.98751 8.37753C8.98751 8.37753 8.99 8.3861 8.99785 8.40416C9.00885 8.42946 9.02433 8.46196 9.05639 8.52874C9.71625 9.9031 10.6161 11.192 11.757 12.3329C12.8979 13.4738 14.1867 14.3736 15.5611 15.0334C15.6279 15.0655 15.6604 15.081 15.6857 15.092C15.7037 15.0998 15.712 15.1022 15.712 15.1022C15.7713 15.1195 15.8775 15.1016 15.9278 15.0656L15.9318 15.0623C15.9354 15.0594 15.942 15.0536 15.9533 15.043C15.9791 15.0189 16.012 14.9862 16.0724 14.9257C16.091 14.9071 16.1094 14.8887 16.1275 14.8706C16.4228 14.575 16.6507 14.3468 16.8941 14.1886C17.8056 13.596 18.9806 13.596 19.8921 14.1886C20.1355 14.3468 20.3634 14.575 20.6587 14.8706C20.6768 14.8887 20.6952 14.9071 20.7138 14.9257L20.9087 15.1206C20.937 15.1489 20.9649 15.1768 20.9924 15.2043C21.4416 15.6527 21.7892 15.9998 21.9891 16.395C22.3838 17.1754 22.3838 18.097 21.9891 18.8774C21.7892 19.2725 21.4416 19.6196 20.9924 20.0681C20.9649 20.0956 20.937 20.1234 20.9087 20.1517L20.751 20.3094C20.732 20.3284 20.7131 20.3473 20.6945 20.3659C20.2184 20.8423 19.8848 21.1761 19.4336 21.4296C18.9212 21.7174 18.1734 21.9119 17.5858 21.9101C17.0688 21.9086 16.6963 21.8028 16.17 21.6533L16.1236 21.6401C12.9703 20.7451 9.99505 19.0562 7.51433 16.5755C5.03361 14.0948 3.34473 11.1195 2.44973 7.96622C2.44531 7.95062 2.44092 7.93516 2.43656 7.91983C2.28706 7.39355 2.18124 7.02099 2.1797 6.50405C2.17795 5.91642 2.37242 5.16861 2.66022 4.65628C2.91371 4.20504 3.24755 3.8714 3.72391 3.39534C3.74254 3.37672 3.76139 3.35788 3.78047 3.3388L3.9381 3.18117C3.9664 3.15287 3.99428 3.12495 4.02177 3.09741C4.47024 2.64823 4.81732 2.30059 5.21247 2.10073Z" fill="#1A1B1E"/>
</svg>
