<svg width="24" height="24" viewBox="0 0 24 24" fill="none" xmlns="http://www.w3.org/2000/svg">
<path d="M8.44396 15.1553L12.9578 15.1553C13.2254 15.1553 13.4818 15.2625 13.6697 15.453L16.5692 18.3926C16.9606 18.7894 16.9521 19.4296 16.5503 19.8158L13.713 22.5432L13.1808 22.3416C10.4108 21.2922 8.17994 19.1374 7.00518 16.4115C6.42232 15.059 6.09961 13.5663 6.09961 11.9999C6.09961 10.4336 6.42232 8.94092 7.00518 7.58843C8.17994 4.86251 10.4108 2.7077 13.1808 1.65832L13.713 1.45669L16.5503 4.18409C16.9521 4.57032 16.9606 5.21047 16.5692 5.60726L13.6697 8.54686C13.4818 8.73737 13.2254 8.84462 12.9578 8.84462L8.44396 8.84462C8.09194 9.82808 7.89961 10.8903 7.89961 11.9999C7.89961 13.1096 8.09194 14.1718 8.44396 15.1553ZM9.31798 7.04462L12.6232 7.04462L14.7187 4.92017L13.3003 3.55671C11.6611 4.29818 10.2753 5.51865 9.31798 7.04462ZM9.31798 16.9553C10.2753 18.4812 11.6611 19.7017 13.3003 20.4432L14.7187 19.0797L12.6232 16.9553L9.31798 16.9553Z" fill="black"/>
</svg>
