<svg width="24" height="24" viewBox="0 0 24 24" fill="none" xmlns="http://www.w3.org/2000/svg">
<path d="M4 4L4 20H20V4L4 4ZM2 4C2 2.89544 2.89544 2 4 2H20C21.1046 2 22 2.89546 22 4V20C22 21.1046 21.1046 22 20 22H4C2.89546 22 2 21.1046 2 20V4Z" fill="#1D77FF"/>
<path d="M10.1685 10.5402L14.5817 15.0373L16.5746 13.0645L21.7714 19.3637L20.2286 20.6364L16.4254 16.0264L14.5612 17.8718L10.2315 13.4598L3.7433 20.669L2.2567 19.3311L10.1685 10.5402Z" fill="#1D77FF"/>
<path d="M15.75 7C15.0597 7 14.5 7.55966 14.5 8.25C14.5 8.94034 15.0597 9.5 15.75 9.5C16.4403 9.5 17 8.94034 17 8.25C17 7.55966 16.4403 7 15.75 7ZM12.5 8.25C12.5 6.45507 13.9551 5 15.75 5C17.5449 5 19 6.45507 19 8.25C19 10.0449 17.5449 11.5 15.75 11.5C13.9551 11.5 12.5 10.0449 12.5 8.25Z" fill="#1D77FF"/>
</svg>
