<svg width="24" height="24" viewBox="0 0 24 24" fill="none" xmlns="http://www.w3.org/2000/svg">
<path d="M16 5.25C17.5188 5.25 18.75 6.48122 18.75 8C18.75 9.51878 17.5188 10.75 16 10.75C14.4812 10.75 13.25 9.51878 13.25 8C13.25 6.48122 14.4812 5.25 16 5.25ZM14.75 8C14.75 8.69036 15.3096 9.25 16 9.25C16.6904 9.25 17.25 8.69036 17.25 8C17.25 7.30964 16.6904 6.75 16 6.75C15.3096 6.75 14.75 7.30964 14.75 8Z" fill="black"/>
<path d="M2.25 4C2.25 3.0335 3.0335 2.25 4 2.25H20C20.9665 2.25 21.75 3.0335 21.75 4V20C21.75 20.9665 20.9665 21.75 20 21.75H4C3.0335 21.75 2.25 20.9665 2.25 20V4ZM4 3.75C3.86193 3.75 3.75 3.86193 3.75 4V18.3618L10.6138 9.78204L14.0085 14.2297L15.4999 12.3315L20.25 18.3771V4C20.25 3.86193 20.1381 3.75 20 3.75H4ZM3.75 20C3.75 20.1381 3.86193 20.25 4 20.25H20C20.1381 20.25 20.25 20.1381 20.25 20V18.75H3.75V20ZM6.56039 17.25H17.4568L15.4999 14.7594L13.9913 16.6794L10.586 12.2179L6.56039 17.25Z" fill="black"/>
</svg>
