<svg width="24" height="24" viewBox="0 0 24 24" fill="none" xmlns="http://www.w3.org/2000/svg">
<path d="M12 22C6.47716 22 2 17.5229 2 12C2 6.47716 6.47716 2 12 2C17.5229 2 22 6.47716 22 12C22 17.5229 17.5229 22 12 22ZM12.8525 6.28571H8.42857V17.7143H10.543V13.8469H12.82C15.5361 13.8469 17 12.2684 17 10.0742C17 7.88003 15.5524 6.28571 12.8525 6.28571ZM12.5272 12.1579C14.1212 12.1579 14.8368 11.2897 14.8368 10.0742C14.8368 8.84294 14.1212 8.00631 12.5272 8.00631H10.543V12.1579H12.5272Z" fill="black"/>
</svg>
