<svg width="24" height="24" viewBox="0 0 24 24" fill="none" xmlns="http://www.w3.org/2000/svg">
<path d="M20.5 12C20.5 7.30558 16.6944 3.5 12 3.5C7.30558 3.5 3.5 7.30558 3.5 12C3.5 16.6944 7.30558 20.5 12 20.5C16.6944 20.5 20.5 16.6944 20.5 12ZM22 12C22 17.5228 17.5228 22 12 22C6.47715 22 2 17.5228 2 12C2 6.47715 6.47715 2 12 2C17.5228 2 22 6.47715 22 12ZM16.5304 8.53033L13.0607 12L16.5304 15.4697L15.4697 16.5303L12.0001 13.0607L8.53039 16.5303L7.46973 15.4697L10.9394 12L7.46973 8.53033L8.53039 7.46967L12.0001 10.9393L15.4697 7.46967L16.5304 8.53033Z" fill="black"/>
</svg>
 