<svg width="17" height="17" viewBox="0 0 17 17" fill="none" xmlns="http://www.w3.org/2000/svg">
<path d="M0.772727 0C1.19949 0 1.54545 0.345962 1.54545 0.772727V2.125C1.54545 3.76063 1.54606 4.94088 1.62185 5.86852C1.6969 6.78714 1.84182 7.38977 2.0929 7.88254C2.57444 8.82763 3.34282 9.59601 4.28791 10.0776C4.78068 10.3286 5.38332 10.4736 6.30194 10.5486C7.22957 10.6244 8.40982 10.625 10.0455 10.625H14.3617L10.8513 7.11458C10.5496 6.81281 10.5496 6.32355 10.8513 6.02178C11.1531 5.72001 11.6424 5.72001 11.9441 6.02178L16.7737 10.8513C17.0754 11.1531 17.0754 11.6424 16.7737 11.9441L11.9441 16.7737C11.6424 17.0754 11.1531 17.0754 10.8513 16.7737C10.5496 16.4719 10.5496 15.9826 10.8513 15.6809L14.3617 12.1705H10.0106C8.41723 12.1705 7.174 12.1705 6.17609 12.0889C5.1619 12.0061 4.33324 11.8352 3.58629 11.4546C2.35041 10.8249 1.3456 9.82005 0.715889 8.58417C0.335301 7.83722 0.164387 7.00856 0.0815248 5.99437C-7.54202e-06 4.99646 -4.14258e-06 3.75323 6.02245e-08 2.15984L1.7537e-07 0.772727C1.7537e-07 0.345962 0.345962 0 0.772727 0Z" fill="black"/>
</svg>
