<svg width="24" height="24" viewBox="0 0 24 24" fill="none" xmlns="http://www.w3.org/2000/svg">
<path d="M9.80573 2.25H14.1938L14.6906 5.29377C15.3341 5.55005 15.9318 5.89533 16.4685 6.31415L19.3465 5.22494L21.5405 9.0251L19.1749 10.9593C19.2243 11.2995 19.2498 11.647 19.2498 12C19.2498 12.3531 19.2243 12.7006 19.1749 13.0407L21.5405 14.9749L19.346 18.776L16.472 17.6831C15.9345 18.1031 15.3355 18.4494 14.6906 18.7062L14.1938 21.75H9.80573L9.3089 18.7062C8.66543 18.45 8.06771 18.1047 7.53105 17.6858L4.65301 18.7751L2.45898 14.9749L4.82461 13.0407C4.77526 12.7005 4.74975 12.353 4.74975 12C4.74975 11.6469 4.77526 11.2994 4.82461 10.9593L2.45898 9.02506L4.65353 5.224L7.52749 6.31694C8.06506 5.89685 8.664 5.55061 9.3089 5.29377L9.80573 2.25ZM11.0807 3.75L10.6448 6.42073L10.2103 6.56213C9.44764 6.81031 8.75464 7.21325 8.16896 7.73415L7.82909 8.03644L5.31403 7.07998L4.39553 8.67087L6.46841 10.3657L6.37362 10.8127C6.29254 11.1951 6.24975 11.5922 6.24975 12C6.24975 12.4078 6.29254 12.8049 6.37362 13.1873L6.4684 13.6342L4.39553 15.3291L5.31454 16.9209L7.83318 15.9677L8.17238 16.2689C8.75734 16.7883 9.44912 17.1902 10.2103 17.4379L10.6448 17.5793L11.0807 20.25H12.9188L13.3547 17.5793L13.7892 17.4379C14.5519 17.1897 15.2449 16.7867 15.8306 16.2658L16.1704 15.9636L18.6855 16.92L19.604 15.3291L17.5311 13.6343L17.6259 13.1873C17.707 12.8049 17.7498 12.4078 17.7498 12C17.7498 11.5922 17.707 11.1951 17.6259 10.8127L17.5311 10.3658L19.604 8.67091L18.685 7.07913L16.1663 8.03232L15.8272 7.73112C15.2422 7.21169 14.5504 6.80983 13.7892 6.56213L13.3547 6.42073L12.9188 3.75H11.0807ZM11.9998 9.75C10.7571 9.75 9.74977 10.7574 9.74977 12C9.74977 13.2426 10.7571 14.25 11.9998 14.25C13.2424 14.25 14.2498 13.2426 14.2498 12C14.2498 10.7574 13.2424 9.75 11.9998 9.75ZM8.24977 12C8.24977 9.92893 9.9287 8.25 11.9998 8.25C14.0708 8.25 15.7498 9.92893 15.7498 12C15.7498 14.0711 14.0708 15.75 11.9998 15.75C9.9287 15.75 8.24977 14.0711 8.24977 12Z" fill="black"/>
</svg>
