<svg width="24" height="24" viewBox="0 0 24 24" fill="none" xmlns="http://www.w3.org/2000/svg">
<path d="M15.75 6C15.75 5.17157 16.4216 4.5 17.25 4.5C18.0784 4.5 18.75 5.17157 18.75 6C18.75 6.82843 18.0784 7.5 17.25 7.5C16.4216 7.5 15.75 6.82843 15.75 6ZM17.25 3C15.5931 3 14.25 4.34315 14.25 6C14.25 6.20952 14.2715 6.41402 14.3124 6.61142L7.86875 10.1261C7.32606 9.58473 6.57712 9.25 5.75 9.25C4.09315 9.25 2.75 10.5931 2.75 12.25C2.75 13.9069 4.09315 15.25 5.75 15.25C6.73867 15.25 7.61565 14.7717 8.16219 14.034L14.3123 17.3886C14.2715 17.586 14.25 17.7905 14.25 18C14.25 19.6569 15.5931 21 17.25 21C18.9069 21 20.25 19.6569 20.25 18C20.25 16.3431 18.9069 15 17.25 15C16.3412 15 15.5269 15.4041 14.9767 16.0423L8.72581 12.6328C8.74177 12.5074 8.75 12.3797 8.75 12.25C8.75 11.9613 8.70921 11.6821 8.63308 11.4178L14.9767 7.95768C15.5269 8.59594 16.3412 9 17.25 9C18.9069 9 20.25 7.65685 20.25 6C20.25 4.34315 18.9069 3 17.25 3ZM15.75 18C15.75 17.1716 16.4216 16.5 17.25 16.5C18.0784 16.5 18.75 17.1716 18.75 18C18.75 18.8284 18.0784 19.5 17.25 19.5C16.4216 19.5 15.75 18.8284 15.75 18ZM5.75 10.75C6.57843 10.75 7.25 11.4216 7.25 12.25C7.25 13.0784 6.57843 13.75 5.75 13.75C4.92157 13.75 4.25 13.0784 4.25 12.25C4.25 11.4216 4.92157 10.75 5.75 10.75Z" fill="black"/>
</svg>
