<svg width="24" height="24" viewBox="0 0 24 24" fill="none" xmlns="http://www.w3.org/2000/svg">
<path d="M12 2.25C12.2995 2.25 12.5703 2.42824 12.6888 2.70335L14.9461 7.945L20.6287 8.47205C20.927 8.49972 21.1802 8.7022 21.2728 8.98708C21.3653 9.27197 21.2795 9.58461 21.0545 9.78231L16.7669 13.5489L18.0217 19.1163C18.0875 19.4085 17.9732 19.7118 17.7309 19.8879C17.4885 20.064 17.1647 20.079 16.9071 19.926L12 17.0123L7.09282 19.926C6.83526 20.079 6.5114 20.064 6.26906 19.8879C6.02673 19.7118 5.91239 19.4085 5.97825 19.1163L7.23303 13.5489L2.94547 9.78231C2.72043 9.58461 2.6346 9.27197 2.72717 8.98708C2.81973 8.7022 3.07293 8.49972 3.3712 8.47205L9.05384 7.945L11.3111 2.70335C11.4296 2.42824 11.7004 2.25 12 2.25ZM12 4.8962L10.2554 8.94732C10.1468 9.19945 9.90915 9.37211 9.6358 9.39746L5.24386 9.80481L8.55758 12.7159C8.76382 12.8971 8.8546 13.1764 8.79424 13.4442L7.82446 17.7471L11.617 15.4951C11.8531 15.355 12.1468 15.355 12.3829 15.4951L16.1755 17.7471L15.2057 13.4442C15.1453 13.1764 15.2361 12.8971 15.4424 12.7159L18.7561 9.80481L14.3641 9.39746C14.0908 9.37211 13.8531 9.19945 13.7446 8.94732L12 4.8962Z" fill="black"/>
</svg>
