<svg width="24" height="24" viewBox="0 0 24 24" fill="none" xmlns="http://www.w3.org/2000/svg">
<path d="M5.6389 1.25C6.05311 1.25 6.3889 1.58579 6.3889 2V4.16216C6.3889 4.57638 6.05311 4.91216 5.6389 4.91216C5.22469 4.91216 4.8889 4.57638 4.8889 4.16216V3.83108H4C3.86193 3.83108 3.75 3.94301 3.75 4.08108V11.1892C3.75 13.4788 5.55759 15.3041 7.74994 15.3041C9.94231 15.3041 11.75 13.4787 11.75 11.1892V4.08108C11.75 3.94301 11.6381 3.83108 11.5 3.83108H10.6111V4.16216C10.6111 4.57638 10.2754 4.91216 9.86114 4.91216C9.44693 4.91216 9.11114 4.57638 9.11114 4.16216V2C9.11114 1.58579 9.44693 1.25 9.86114 1.25C10.2754 1.25 10.6111 1.58579 10.6111 2V2.33108H11.5C12.4665 2.33108 13.25 3.11458 13.25 4.08108V11.1892C13.25 14.0006 11.2175 16.3524 8.54424 16.7461C8.87419 19.3011 11.0059 21.25 13.5555 21.25C16.3308 21.25 18.6111 18.9407 18.6111 16.0541V12.9358C17.0904 12.5868 15.9722 11.1991 15.9722 9.56757C15.9722 7.67768 17.4727 6.11486 19.3611 6.11486C21.2495 6.11486 22.75 7.67768 22.75 9.56757C22.75 11.1991 21.6318 12.5868 20.1111 12.9358V16.0541C20.1111 19.7351 17.1929 22.75 13.5555 22.75C10.1528 22.75 7.37933 20.1115 7.03576 16.7573C4.32309 16.3992 2.25 14.0286 2.25 11.1892V4.08108C2.25 3.11458 3.0335 2.33108 4 2.33108H4.8889V2C4.8889 1.58579 5.22469 1.25 5.6389 1.25ZM19.3611 7.61486C18.3347 7.61486 17.4722 8.47213 17.4722 9.56757C17.4722 10.663 18.3347 11.5203 19.3611 11.5203C20.3875 11.5203 21.25 10.663 21.25 9.56757C21.25 8.47213 20.3875 7.61486 19.3611 7.61486Z" fill="#252525"/>
</svg>
