<svg width="24" height="24" viewBox="0 0 24 24" fill="none" xmlns="http://www.w3.org/2000/svg">
  <path d="M5 4v3.013L6.973 9 8 7.965 6.454 6.407V4H5Z" fill="#000"/>
  <path d="M10.37 5.957A4.5 4.5 0 0 0 9.225 4.3a4.901 4.901 0 0 0-1.787-1.044 5.139 5.139 0 0 0-2.091-.233 5.06 5.06 0 0 0-1.998.623 4.722 4.722 0 0 0-1.527 1.359 4.389 4.389 0 0 0-.766 1.84 4.271 4.271 0 0 0 .14 1.97 4.473 4.473 0 0 0 1.02 1.727v6.748h1.943a2.34 2.34 0 0 0 .131 1.018c.118.328.308.628.557.883.249.255.552.459.889.598a2.816 2.816 0 0 0 2.141 0c.338-.139.641-.343.89-.598.249-.255.438-.555.557-.883.118-.327.163-.674.131-1.018h6.306c-.032.344.013.691.131 1.018.118.328.308.628.557.883.249.255.552.459.889.598a2.816 2.816 0 0 0 2.142 0 2.66 2.66 0 0 0 .889-.598c.249-.255.439-.555.557-.883.118-.327.163-.674.131-1.018H23v-4.553l-2.802-3.155H17.2V5.957h-6.83ZM9.224 7.544c0 .841-.356 1.648-.991 2.243a3.498 3.498 0 0 1-2.393.93 3.495 3.495 0 0 1-2.392-.93 3.074 3.074 0 0 1-.991-2.243c0-.842.356-1.649.991-2.244a3.5 3.5 0 0 1 2.392-.93c.898 0 1.758.335 2.393.93.635.595.991 1.402.991 2.244Zm1.45 0c0-.078-.001-.153-.006-.227h5.082v8.613H8.859a2.638 2.638 0 0 0-.917-.671 2.807 2.807 0 0 0-2.269 0 2.638 2.638 0 0 0-.917.671h-1.09v-4.338a5.108 5.108 0 0 0 4.71-.189 4.66 4.66 0 0 0 1.685-1.649 4.317 4.317 0 0 0 .613-2.21ZM17.2 14.57h4.35v1.36h-1.092a2.68 2.68 0 0 0-1.51-.856 2.802 2.802 0 0 0-1.748.221v-.725Zm2.32-3.627 2.012 2.267H17.2v-2.267h2.32ZM5.758 16.95c.08-.129.185-.242.311-.333a1.261 1.261 0 0 1 .892-.225c.158.019.309.067.447.141.137.074.258.173.355.291.096.118.167.252.209.396a1.061 1.061 0 0 1-.12.86c-.159.26-.423.45-.732.529-.31.078-.639.037-.917-.112a1.143 1.143 0 0 1-.564-.688c-.083-.29-.04-.599.119-.859Zm11.601 0a1.16 1.16 0 0 1 .311-.333c.126-.091.269-.157.422-.196a1.31 1.31 0 0 1 .471-.029 1.24 1.24 0 0 1 .801.433c.097.118.168.253.209.396a1.061 1.061 0 0 1-.12.86 1.2 1.2 0 0 1-.733.529 1.28 1.28 0 0 1-.917-.113 1.148 1.148 0 0 1-.564-.687c-.083-.29-.04-.6.12-.86Z" fill="#000"/>
</svg>