<svg width="20" height="20" viewBox="0 0 20 20" fill="none" xmlns="http://www.w3.org/2000/svg">
<path d="M2.5 17.5013C2.5 17.0411 2.8731 16.668 3.33333 16.668H16.6667C17.1269 16.668 17.5 17.0411 17.5 17.5013C17.5 17.9615 17.1269 18.3346 16.6667 18.3346H3.33333C2.8731 18.3346 2.5 17.9615 2.5 17.5013Z" fill="#3872F0"/>
<path d="M15.5521 8.0138C15.9032 8.0138 16.0789 7.58914 15.8304 7.34106L10.2674 1.78703C10.1136 1.63349 9.86448 1.63349 9.71069 1.78703L4.14765 7.34106C3.89917 7.58914 4.07486 8.0138 4.42599 8.0138H6.75175C6.96932 8.0138 7.1457 8.19017 7.1457 8.40774V15.4449C7.1457 15.6625 7.32207 15.8389 7.53964 15.8389H12.4526C12.6701 15.8389 12.8465 15.6625 12.8465 15.4449V8.40774C12.8465 8.19017 13.0229 8.0138 13.2404 8.0138H15.5521Z" fill="#3872F0"/>
</svg>
