<svg width="24" height="24" viewBox="0 0 24 24" fill="none" xmlns="http://www.w3.org/2000/svg">
<path d="M8.5 7.29999C8.5 9.23298 10.067 10.8 12 10.8C13.933 10.8 15.5 9.23298 15.5 7.29999C15.5 5.36699 13.933 3.79999 12 3.79999C10.067 3.79999 8.5 5.36699 8.5 7.29999ZM12 1.79999C15.0376 1.79999 17.5 4.26242 17.5 7.29999C17.5 10.3376 15.0376 12.8 12 12.8C8.96243 12.8 6.5 10.3376 6.5 7.29999C6.5 4.26242 8.96243 1.79999 12 1.79999ZM12 15.8C8.95327 15.8 6.28254 17.6128 4.96357 20.3H19.0364C17.7175 17.6128 15.0467 15.8 12 15.8ZM12 13.8C16.4653 13.8 20.2057 16.8568 21.4575 21.0115C21.5487 21.3144 21.4913 21.6426 21.3027 21.8964C21.114 22.1503 20.8163 22.3 20.5 22.3H3.50001C3.18369 22.3 2.88603 22.1503 2.69736 21.8964C2.50869 21.6426 2.45127 21.3144 2.54253 21.0115C3.79432 16.8568 7.53467 13.8 12 13.8Z" fill="black"/>
</svg>
