<svg width="24" height="24" viewBox="0 0 24 24" fill="none" xmlns="http://www.w3.org/2000/svg">
<path d="M6.75 7.29999C6.75 4.40049 9.10051 2.04999 12 2.04999C14.8995 2.04999 17.25 4.40049 17.25 7.29999C17.25 10.1995 14.8995 12.55 12 12.55C9.10051 12.55 6.75 10.1995 6.75 7.29999Z" fill="black"/>
<path d="M2.78189 21.0836C4.00451 17.0258 7.65385 14.05 12 14.05C16.3462 14.05 19.9955 17.0258 21.2181 21.0836C21.2866 21.3108 21.2435 21.5569 21.102 21.7473C20.9605 21.9377 20.7372 22.05 20.5 22.05H3.50001C3.26277 22.05 3.03952 21.9377 2.89802 21.7473C2.75652 21.5569 2.71345 21.3108 2.78189 21.0836Z" fill="black"/>
</svg>
