<svg width="20" height="20" viewBox="0 0 20 20" fill="none" xmlns="http://www.w3.org/2000/svg">
<path d="M11.9832 5.75179C12.2134 5.75179 12.3999 5.56524 12.3999 5.33512C12.3999 5.10501 12.2134 4.91846 11.9832 4.91846H8.01657C7.78645 4.91846 7.5999 5.10501 7.5999 5.33512C7.5999 5.56524 7.78645 5.75179 8.01657 5.75179H11.9832Z" fill="black"/>
<path d="M13.7977 9.5819C14.0286 9.83847 14.0078 10.2336 13.7513 10.4646L9.30683 14.4646C9.06914 14.6785 8.70831 14.6785 8.47062 14.4646L6.2484 12.4646C5.99183 12.2336 5.97103 11.8385 6.20195 11.5819C6.43286 11.3253 6.82804 11.3045 7.08461 11.5354L8.88873 13.1591L12.9151 9.53544C13.1716 9.30453 13.5668 9.32533 13.7977 9.5819Z" fill="black"/>
<path d="M5.12229 3.30324C5.34368 2.93426 5.74243 2.7085 6.17272 2.7085H13.8266C14.2569 2.7085 14.6557 2.93426 14.8771 3.30324L17.2023 7.1786C17.2606 7.27574 17.2913 7.38689 17.2913 7.50016V16.0668C17.2913 16.7434 16.7429 17.2918 16.0663 17.2918H3.93301C3.25646 17.2918 2.70801 16.7434 2.70801 16.0668V7.50016C2.70801 7.38689 2.73879 7.27574 2.79707 7.1786L5.12229 3.30324ZM6.18688 3.9585L4.43688 6.87516H15.5625L13.8125 3.9585H6.18688ZM16.0413 8.12516H3.95801V16.0418H16.0413V8.12516Z" fill="black"/>
</svg>
