<svg width="793" height="555" viewBox="0 0 793 555" fill="none" xmlns="http://www.w3.org/2000/svg">
<rect x="183" y="183" width="61" height="61" fill="#3C4552"/>
<rect x="183" y="61" width="61" height="61" fill="#3C4552"/>
<rect x="244" y="183" width="61" height="61" fill="#3C6EB6" fill-opacity="0.1"/>
<rect x="183" width="61" height="61" fill="#3C6EB6" fill-opacity="0.1"/>
<rect x="122" y="61" width="61" height="61" fill="#CF5D1C" fill-opacity="0.1"/>
<rect y="183" width="61" height="61" fill="#CF5D1C" fill-opacity="0.1"/>
<rect x="61" y="244" width="61" height="61" fill="#CF5D1C" fill-opacity="0.1"/>
<rect x="122" y="244" width="61" height="61" fill="#CF5D1C" fill-opacity="0.1"/>
<rect x="122" y="305" width="61" height="61" fill="#CF5D1C" fill-opacity="0.1"/>
<rect x="122" y="366" width="61" height="61" fill="#CF5D1C" fill-opacity="0.1"/>
<rect x="122" y="427" width="61" height="61" fill="#CF5D1C" fill-opacity="0.2"/>
<rect x="61" y="427" width="61" height="61" fill="#CF5D1C" fill-opacity="0.1"/>
<rect y="494" width="61" height="61" fill="#CF5D1C" fill-opacity="0.1"/>
<rect x="366" y="488" width="61" height="61" fill="#3C4552" fill-opacity="0.1"/>
<rect x="183" y="244" width="61" height="61" fill="#102139"/>
<rect x="244" y="244" width="61" height="61" fill="#3C6EB6" fill-opacity="0.1"/>
<rect x="183" y="305" width="61" height="61" fill="#41273B"/>
<rect x="244" y="305" width="61" height="61" fill="#3C6EB6" fill-opacity="0.1"/>
<rect x="183" y="366" width="61" height="61" fill="#41273B"/>
<rect x="244" y="366" width="61" height="61" fill="#3C6EB6" fill-opacity="0.1"/>
<rect x="305" y="427" width="61" height="61" fill="#3C6EB6" fill-opacity="0.1"/>
<rect x="183" y="427" width="61" height="61" fill="#102139"/>
<rect x="244" y="427" width="61" height="61" fill="#3C6EB6" fill-opacity="0.2"/>
<rect x="244" y="61" width="61" height="61" fill="#3C6EB6" fill-opacity="0.2"/>
<rect x="183" y="488" width="61" height="61" fill="#102139"/>
<rect x="122" y="488" width="61" height="61" fill="#102139"/>
<rect x="61" y="488" width="61" height="61" fill="#52433C"/>
<rect x="244" y="488" width="61" height="61" fill="#3C4552"/>
<rect x="305" y="488" width="61" height="61" fill="#3C4552"/>
<rect x="122" y="183" width="61" height="61" fill="#102139"/>
<rect x="61" y="183" width="61" height="61" fill="#52433C"/>
<rect x="549" y="183" width="61" height="61" fill="#3C4552"/>
<rect x="549" y="61" width="61" height="61" fill="#3C4552"/>
<rect x="610" y="183" width="61" height="61" fill="#3C6EB6" fill-opacity="0.1"/>
<rect x="549" width="61" height="61" fill="#3C6EB6" fill-opacity="0.1"/>
<rect x="488" y="61" width="61" height="61" fill="#CF5D1C" fill-opacity="0.1"/>
<rect x="366" y="183" width="61" height="61" fill="#CF5D1C" fill-opacity="0.1"/>
<rect x="427" y="244" width="61" height="61" fill="#CF5D1C" fill-opacity="0.1"/>
<rect x="488" y="244" width="61" height="61" fill="#CF5D1C" fill-opacity="0.1"/>
<rect x="488" y="305" width="61" height="61" fill="#CF5D1C" fill-opacity="0.1"/>
<rect x="488" y="366" width="61" height="61" fill="#CF5D1C" fill-opacity="0.1"/>
<rect x="488" y="427" width="61" height="61" fill="#CF5D1C" fill-opacity="0.2"/>
<rect x="427" y="427" width="61" height="61" fill="#CF5D1C" fill-opacity="0.1"/>
<rect x="366" y="494" width="61" height="61" fill="#CF5D1C" fill-opacity="0.1"/>
<rect x="732" y="488" width="61" height="61" fill="#3C4552" fill-opacity="0.1"/>
<rect x="549" y="244" width="61" height="61" fill="#102139"/>
<rect x="610" y="244" width="61" height="61" fill="#3C6EB6" fill-opacity="0.1"/>
<rect x="549" y="305" width="61" height="61" fill="#41273B"/>
<rect x="610" y="305" width="61" height="61" fill="#3C6EB6" fill-opacity="0.1"/>
<rect x="549" y="366" width="61" height="61" fill="#41273B"/>
<rect x="610" y="366" width="61" height="61" fill="#3C6EB6" fill-opacity="0.1"/>
<rect x="671" y="427" width="61" height="61" fill="#3C6EB6" fill-opacity="0.1"/>
<rect x="549" y="427" width="61" height="61" fill="#102139"/>
<rect x="610" y="427" width="61" height="61" fill="#3C6EB6" fill-opacity="0.2"/>
<rect x="610" y="61" width="61" height="61" fill="#3C6EB6" fill-opacity="0.2"/>
<rect x="549" y="488" width="61" height="61" fill="#102139"/>
<rect x="488" y="488" width="61" height="61" fill="#102139"/>
<rect x="427" y="488" width="61" height="61" fill="#52433C"/>
<rect x="610" y="488" width="61" height="61" fill="#3C4552"/>
<rect x="671" y="488" width="61" height="61" fill="#3C4552"/>
<rect x="488" y="183" width="61" height="61" fill="#102139"/>
<rect x="427" y="183" width="61" height="61" fill="#52433C"/>
</svg>
