<?xml version="1.0" standalone="no"?>
<!DOCTYPE svg PUBLIC "-//W3C//DTD SVG 1.1//EN" "http://www.w3.org/Graphics/SVG/1.1/DTD/svg11.dtd">
<svg xmlns="http://www.w3.org/2000/svg">
<metadata>INTEGRATION Corp.</metadata>
<defs>
<font id="inticons" horiz-adv-x="1000" >
<font-face font-family="inticons" font-weight="400" font-stretch="normal" units-per-em="1000" ascent="850" descent="-150" />
<missing-glyph horiz-adv-x="1000" />
<glyph glyph-name="alarm-light-outline" unicode="&#xe800;" d="M500 673c-11 0-21-1-31-1v136h62v-136c-10 0-20 1-31 1z m-223 109l79-138c-19-9-37-19-55-30l-78 137 54 31z m500-31l-78-137c-18 11-36 21-55 30l79 138 54-31z m-600-443c0 179 145 323 323 323 178 0 323-144 323-323v-222c31-18 52-52 52-90 0-58-47-104-104-104h-542c-57 0-104 46-104 104 0 38 21 72 52 90v222z m583 0c0 144-116 261-260 261-144 0-260-117-260-261v-208h520v208z m-531-354h542c23 0 42 19 42 42 0 23-19 41-42 41h-542c-23 0-41-18-41-41 0-23 18-42 41-42z" horiz-adv-x="1000" />

<glyph glyph-name="arrow-down.ii-weight-600" unicode="&#xe801;" d="M788 277l-246-246v-4h-4l-38-38-38 38h-4v4l-246 246 59 59 187-187v545h84v-545l187 187 59-59z" horiz-adv-x="1000" />

<glyph glyph-name="arrow-down" unicode="&#xe802;" d="M773 277l-273-273-273 273 44 44 198-198 0 560 62 0 0-560 198 198 44-44z" horiz-adv-x="1000" />

<glyph glyph-name="arrow-left.ii-weight-600" unicode="&#xe803;" d="M438 62l-247 246h-3v4l-39 38 39 38v4h3l247 246 58-59-187-187h545v-84h-545l187-187-58-59z" horiz-adv-x="1000" />

<glyph glyph-name="arrow-left-in-box-outline" unicode="&#xe804;" d="M875 49c0-41-33-74-74-74l-602 0c-41 0-74 33-74 74l0 602c0 41 33 74 74 74l602 0c41 0 74-33 74-74l0-602z m-74-10c6 0 10 4 10 10l0 269-349 0 137-136-45-45-213 213 213 213 45-45-137-136 349 0 0 269c0 6-4 10-10 10l-602 0c-6 0-10-4-10-10l0-602c0-6 4-10 10-10l602 0z" horiz-adv-x="1000" />

<glyph glyph-name="arrow-left" unicode="&#xe805;" d="M438 77l-274 273 274 273 44-44-198-198 560 0v-62l-560 0 198-198-44-44z" horiz-adv-x="1000" />

<glyph glyph-name="arrow-right.ii-weight-600" unicode="&#xe806;" d="M542 638l246-246h4v-4l38-38-38-38v-4h-4l-246-246-59 59 187 187h-545v84h545l-187 187 59 59z" horiz-adv-x="1000" />

<glyph glyph-name="arrow-right-from-bracket" unicode="&#xe807;" d="M135 683c0 41 33 73 73 73h542v-62h-542c-5 0-10-5-10-11v-666c0-6 5-11 10-11h542v-62h-542c-40 0-73 32-73 73v666z m491-103l231-230-231-230-44 44 155 155h-424v62h424l-155 155 44 44z" horiz-adv-x="1000" />

<glyph glyph-name="arrow-right" unicode="&#xe808;" d="M542 623l273-273-273-273-45 44 198 198h-560v62h560l-198 198 45 44z" horiz-adv-x="1000" />

<glyph glyph-name="arrow-top-right-bottom-left" unicode="&#xe809;" d="M865 715h-232l94-94-498-498-94 94v-232h232l-94 94 498 498 94-94v232z" horiz-adv-x="1000" />

<glyph glyph-name="arrow-up.ii-weight-600" unicode="&#xe80a;" d="M212 423l246 246v4h4l38 38 38-38h4v-4l246-246-59-59-187 187v-545h-84v545l-187-187-59 59z" horiz-adv-x="1000" />

<glyph glyph-name="arrow-up" unicode="&#xe80b;" d="M227 423l273 273 273-273-44-44-198 198 0-560-62 0 0 560-198-198-44 44z" horiz-adv-x="1000" />

<glyph glyph-name="attachment" unicode="&#xe80c;" d="M729 487h-521v60h521c120 0 218-98 218-218 0-120-98-217-218-217h-521c-85 0-155 69-155 155 0 85 70 155 155 155h480c51 0 92-42 92-93 0-51-41-92-92-92h-480v60h480c17 0 32 14 32 32 0 18-15 33-32 33h-480c-52 0-95-43-95-95 0-53 43-95 95-95h521c87 0 158 70 158 157 0 87-71 158-158 158z" horiz-adv-x="1000" />

<glyph glyph-name="bag-outline" unicode="&#xe80d;" d="M367 742h226l59-59v-101h148c40 0 72-32 72-72v-480c0-40-32-72-72-72h-640c-40 0-72 32-72 72v480c0 40 32 72 72 72h148v101l59 59z m5-160h216v75l-21 21h-174l-21-21v-75z m-212-64c-4 0-8-4-8-8v-480c0-4 4-8 8-8h640c4 0 8 4 8 8v480c0 4-4 8-8 8h-640z" horiz-adv-x="1000" />

<glyph glyph-name="ban" unicode="&#xe80e;" d="M917 350c0-230-187-417-417-417-230 0-417 187-417 417 0 230 187 417 417 417 230 0 417-187 417-417z m-212-289l-478 515c-51-62-81-140-81-226 0-196 158-354 354-354 76 0 147 24 205 65z m47 41c63 64 102 151 102 248 0 196-158 354-354 354-87 0-167-31-229-84l481-518z" horiz-adv-x="1000" />

<glyph glyph-name="bell-check-outline" unicode="&#xe80f;" d="M385 696c-133-15-238-128-238-265v-180l-90-134c-6-9-7-22-1-32 5-10 16-16 27-16h667c12 0 22 6 28 16 5 10 4 23-2 32l-90 134v180c0 137-104 250-238 265v112h-63v-112z m32-61c114 0 207-92 207-204v-189c0-7 1-13 5-18l62-93h-549l63 93c3 5 5 11 5 18v189c0 112 92 204 207 204z m83-618h-167c0-25 11-48 29-63 14-13 34-21 55-21 21 0 40 8 55 21 17 15 28 38 28 63z m459 685l-43 46-115-106-51 47-42-47 93-84 158 144z" horiz-adv-x="1000" />

<glyph glyph-name="bell-check" unicode="&#xe810;" d="M385 696c-133-15-238-128-238-265v-180l-90-134c-6-9-7-22-1-32 5-10 16-16 27-16h96 476 95c12 0 22 6 28 16 5 10 4 23-2 32l-90 134v180c0 137-104 250-238 265v112h-63v-112z m32-61c-115 0-207-92-207-204v-189c0-7-2-13-5-18l-63-93h37 476 36l-62 93c-4 5-5 11-5 18v189c0 112-93 204-207 204z m83-618h-62-42-63c0-25 11-48 29-63 14-13 34-21 55-21 21 0 40 8 55 21 17 15 28 38 28 63v0z m322 560l137 125-43 46-115-106-51 47-42-47 72-65 21-19 21 19z m-405 90c-132 0-238-106-238-236v-189l-96-142h96 476 95l-95 142v189c0 130-107 236-238 236z" horiz-adv-x="1000" />

<glyph glyph-name="bell-crossed-outline" unicode="&#xe811;" d="M858 81c1 1 2 3 3 4 5 10 5 23-2 32l-90 134v180c0 137-104 250-238 265v112h-62v-112c-60-7-113-33-155-72l44-44c37 34 87 55 142 55 114 0 207-92 207-204v-189c0-5 1-9 3-13l148-148z m-743 654l-33-32 169-169c-13-32-20-67-20-103v-180l-90-134c-7-9-7-22-2-32 6-10 16-16 28-16h549l137-137 32 33-770 770z m178-304c0 18 3 36 7 54l354-354h-429l63 93c3 5 5 11 5 18v189z m124-414c0-25 11-48 28-63 15-13 34-21 55-21 21 0 40 8 55 21 17 15 28 38 28 63h-166z" horiz-adv-x="1000" />

<glyph glyph-name="bell-outline.ii-weight-600" unicode="&#xe812;" d="M220 431c0 139 104 254 238 274v103h84v-103c134-20 238-135 238-274v-177l88-131c9-13 9-29 2-43-7-13-21-22-37-22h-666c-16 0-30 9-37 22-7 14-7 30 2 43l88 131v177z m84 0v-189c0-9-3-17-8-24l-51-76h510l-51 76c-5 7-8 15-8 24v189c0 107-87 194-196 194-109 0-196-87-196-194z m113-414h166c0-25-11-48-28-63-15-13-34-21-55-21-21 0-40 8-55 21-17 15-28 38-28 63z" horiz-adv-x="1000" />

<glyph glyph-name="bell-outline" unicode="&#xe813;" d="M231 431c0 137 104 250 238 265v112h62v-112c134-15 238-128 238-265v-180l90-134c7-9 7-22 2-32-6-10-16-16-28-16h-666c-12 0-22 6-28 16-5 10-5 23 2 32l90 134v180z m62 0v-189c0-7-2-13-5-18l-63-93h550l-63 93c-3 5-5 11-5 18v189c0 112-93 204-207 204-114 0-207-92-207-204z m124-414h166c0-25-11-48-28-63-15-13-34-21-55-21-21 0-40 8-55 21-17 15-28 38-28 63z" horiz-adv-x="1000" />

<glyph glyph-name="bell-plus-outline" unicode="&#xe814;" d="M147 431c0 137 105 250 238 265v112h63v-112c134-15 238-128 238-265v-180l90-134c6-9 7-22 2-32-6-10-16-16-28-16h-95-476-96c-11 0-22 6-27 16-6 10-5 23 1 32l90 134v180z m63 0v-189c0-7-2-13-5-18l-63-93h37 476 36l-62 93c-4 5-5 11-5 18v189c0 112-93 204-207 204-115 0-207-92-207-204z m228-414h62c0-25-11-48-28-63-15-13-34-21-55-21-21 0-41 8-55 21-18 15-29 38-29 63h63 42z m364 614h-94v63h94v93l63 0v-93h93v-63h-93v-94h-63v94z" horiz-adv-x="1000" />

<glyph glyph-name="bell-ringing-outline.ii-weight-600" unicode="&#xe815;" d="M458 680v87h84v-87c118-20 208-123 208-247v-154l76-114c9-13 10-29 2-43-7-14-21-22-36-22h-584c-15 0-29 8-36 22-8 14-7 30 2 43l76 114v154c0 124 90 227 208 247z m42-80c-92 0-167-75-167-167v-166c0-9-2-17-7-23l-40-61h428l-40 61c-5 6-7 14-7 23v166c0 92-75 167-167 167z m83-542c0-25-11-47-28-62-15-13-34-21-55-21-21 0-40 8-55 21-17 15-28 37-28 62h166z m-387 449l-81 19c23 93 78 173 152 227l49-67c-59-43-102-106-120-179z m488 179l49 67c75-54 129-134 152-227l-81-19c-18 73-61 136-120 179z" horiz-adv-x="1000" />

<glyph glyph-name="bell-ringing-outline" unicode="&#xe816;" d="M469 671c-118-15-209-116-209-238v-157l-78-117c-6-10-7-22-1-32 5-10 16-17 27-17h584c11 0 22 7 27 17 6 10 5 22-1 32l-78 117v157c0 122-91 223-209 238v96h-62v-96z m31-61c98 0 177-79 177-177v-166c0-7 2-13 5-18l51-76h-466l51 76c3 5 5 11 5 18v166c0 98 79 177 177 177z m83-552h-166c0-25 11-47 28-62 15-13 34-21 55-21 21 0 40 8 55 21 17 15 28 37 28 62z m-397 451c18 76 63 141 124 186l-37 50c-72-53-126-131-148-221l61-15z m504 186c61-45 106-110 124-186l61 15c-22 90-76 168-148 221l-37-50z" horiz-adv-x="1000" />

<glyph glyph-name="bell" unicode="&#xe817;" d="M231 431v-180l-90-134c-7-9-7-22-2-32 6-10 16-16 28-16h666c12 0 22 6 28 16 5 10 5 23-2 32l-90 134v180c0 137-104 250-238 265v112h-62v-112c-134-15-238-128-238-265z m186-414c0-25 11-48 28-63 15-13 34-21 55-21 21 0 40 8 55 21 17 15 28 38 28 63h-166z" horiz-adv-x="1000" />

<glyph glyph-name="blocks-question-outline" unicode="&#xe818;" d="M271 662v-541h542v541h-542z m-21 63h583c23 0 42-19 42-42v-583c0-23-19-42-42-42h-583c-23 0-42 19-42 42v583c0 23 19 42 42 42z m-94-83v-625c0-6 5-11 11-11h625v-62h-625c-41 0-73 32-73 73v625h62z m376-115c-34 0-63-26-63-60h-63c0 72 61 123 126 123 66 0 124-52 124-123 0-32-14-53-30-69-6-6-13-12-20-18-1-1-2-2-3-3-7-6-15-13-21-20-13-14-19-29-19-49h-63c0 36 13 66 36 91 9 10 18 19 26 25 1 2 3 3 4 4 6 5 11 10 16 14 9 9 12 15 12 25 0 34-28 60-62 60z m-31-323v63h63v-63h-63z" horiz-adv-x="1000" />

<glyph glyph-name="boiling-pot-outline" unicode="&#xe819;" d="M188 735c-16 0-30-11-32-27l-20-167c-1-5 0-10 1-15-35-64-85-180-85-301 0-95 46-163 118-204 70-40 164-56 264-56 100 0 199 16 274 55 76 41 128 108 128 205 0 10 0 19-1 29 43 49 53 118 58 160l0 3c2 12 3 21 5 28 18 2 36 10 50 24 17 19 23 43 23 69 0 32-20 51-39 61-18 9-38 11-51 11-76 0-131-35-170-78-5 6-10 13-14 18l-20 158c-2 16-15 27-31 27h-458z m10-229h454c9-12 20-27 32-45l27-39 26 40c30 48 76 86 144 86 7 0 16-2 23-5 2-1 4-3 4-3 0 0 0-1 0-2 0-17-3-24-6-26-2-2-7-6-21-6-15 0-25-8-32-16-5-7-8-15-10-21-3-12-5-28-7-42l-1-2c-6-49-15-104-50-138l-12-11 2-16c2-11 3-23 3-35 0-70-36-117-96-149-62-34-149-49-244-49-95 0-176 16-233 48-54 31-86 79-86 150 0 114 51 227 83 281z m433 63h-429l13 104h403l13-104z" horiz-adv-x="1000" />

<glyph glyph-name="book-outline.ii-weight-600" unicode="&#xe81a;" d="M69 693c57 21 118 32 181 32 90 0 175-23 250-62 75 39 160 62 250 62 63 0 124-11 181-32l27-10v-686l-56 20c-47 17-98 27-152 27-83 0-161-23-229-63l-21-13-21 13c-68 40-146 63-229 63-54 0-105-10-152-27l-56-20v686l27 10z m389-103c-62 33-133 52-208 52-43 0-85-7-125-18v-512c40 10 82 15 125 15 74 0 144-15 208-43v506z m84-506c64 28 134 43 208 43 43 0 85-5 125-15v512c-40 11-82 18-125 18-75 0-146-19-208-52v-506z" horiz-adv-x="1000" />

<glyph glyph-name="book-outline" unicode="&#xe81b;" d="M73 684c55 20 115 31 177 31 90 0 175-24 250-64 75 40 160 64 250 64 62 0 122-11 177-31l21-8v-664l-42 15c-49 17-101 27-156 27-85 0-165-23-234-64l-16-10-16 10c-69 41-149 64-234 64-55 0-107-10-156-27l-42-15v664l21 8z m396-87c-66 35-140 55-219 55-47 0-93-7-135-20v-533c43 11 88 18 135 18 78 0 152-18 219-49v529z m62-529c67 31 141 49 219 49 47 0 92-7 135-18v533c-42 13-88 20-135 20-79 0-153-20-219-55v-529z" horiz-adv-x="1000" />

<glyph glyph-name="bookmark-outline.ii-weight-600" unicode="&#xe81c;" d="M500 243l208-148v547h-416l0-547 208 148z m0-102l-226-161c-27-19-66 0-66 34l0 669c0 23 19 42 42 42h500c23 0 42-19 42-42v-669c0-34-39-53-66-34l-226 161z" horiz-adv-x="1000" />

<glyph glyph-name="bookmark-outline" unicode="&#xe81d;" d="M500 218l-229-163 0 607 458 0v-607l-229 163z m0-77l226-161c27-19 66 0 66 34v669c0 23-19 42-42 42l-500 0c-23 0-42-19-42-42l0-669c0-34 39-53 66-34l226 161z" horiz-adv-x="1000" />

<glyph glyph-name="bookmark" unicode="&#xe81e;" d="M726-20l-226 161-226-161c-27-19-66 0-66 34l0 669c0 2 0 3 1 5 2 21 19 37 41 37l500 0c23 0 42-19 42-42v-669c0-34-39-53-66-34z" horiz-adv-x="1000" />

<glyph glyph-name="building-outline" unicode="&#xe81f;" d="M53 797h560v-334h107v95h60v-95h167v-560h-227v167h-107v-167h-226v167h-107v-167h-227v894z m227-667h107v107h-107v-107z m-60 107h-107v-107h107v107z m60 60h107v106h-107v-106z m-60 106h-107v-106h107v106z m60 60h107v107h-107v-107z m-60 107h-107v-107h107v107z m60 60h107v107h-107v-107z m-60 107h-107v-107h107v107z m227 0v-107h106v107h-106z m106-167h-106v-107h106v107z m0-167h-106v-106h106v106z m0-166h-106v-107h106v107z m60-107h167v-167h107v440h-274v-273z m-60-60h-106v-107h106v107z m-440 0v-107h107v107h-107z m607 155v83h60v-83h-60z" horiz-adv-x="1000" />

<glyph glyph-name="calendar-check-outline" unicode="&#xe820;" d="M260 715h-93c-41 0-73-33-73-73v-625c0-41 32-73 73-73h666c41 0 73 32 73 73v625c0 40-32 73-73 73h-93v93h-63v-93h-354v93h-63v-93z m-93-63h666c6 0 11-5 11-10v-134h-688v134c0 5 5 10 11 10z m677-206v-429c0-6-5-11-11-11h-666c-6 0-11 5-11 11v429h688z m-134-97l-45 44-207-207-103 103-44-44 147-148 252 252z" horiz-adv-x="1000" />

<glyph glyph-name="calendar-event-outline" unicode="&#xe821;" d="M260 715h-93c-41 0-73-33-73-73v-625c0-41 32-73 73-73h666c41 0 73 32 73 73v625c0 40-32 73-73 73h-93v93h-63v-93h-354v93h-63v-93z m-93-63h666c6 0 11-5 11-10v-134h-688v134c0 5 5 10 11 10z m677-206v-429c0-6-5-11-11-11h-666c-6 0-11 5-11 11v429h688z m-334-148v-229h271v229h-271z m63-63h146v-104h-146v104z" horiz-adv-x="1000" />

<glyph glyph-name="calendar-outline.ii-weight-600" unicode="&#xe822;" d="M250 725v83h83v-83h334v83h83v-83h83c46 0 84-37 84-83v-625c0-46-38-84-84-84h-666c-46 0-84 38-84 84v625c0 46 38 83 84 83h83z m-83-83v-123h666v123h-666z m666-207h-666v-418h666v418z" horiz-adv-x="1000" />

<glyph glyph-name="calendar-outline" unicode="&#xe823;" d="M260 715h-93c-41 0-73-33-73-73v-625c0-41 32-73 73-73h666c41 0 73 32 73 73v625c0 40-32 73-73 73h-93v93h-63v-93h-354v93h-63v-93z m-93-63h666c6 0 11-5 11-10v-134h-688v134c0 5 5 10 11 10z m677-206v-429c0-6-5-11-11-11h-666c-6 0-11 5-11 11v429h688z" horiz-adv-x="1000" />

<glyph glyph-name="camera-outline" unicode="&#xe824;" d="M708 350c0 115-93 208-208 208-115 0-208-93-208-208 0-115 93-208 208-208 115 0 208 93 208 208z m-354 0c0 81 65 146 146 146 81 0 146-65 146-146 0-81-65-146-146-146-81 0-146 65-146 146z m38 365c-19 0-38-8-51-22l-59-59c-2-2-5-3-8-3h-149c-40 0-73-32-73-73v-458c0-40 33-73 73-73h750c40 0 73 33 73 73v458c0 41-33 73-73 73h-149c-3 0-6 1-8 3l-59 59c-13 14-32 22-51 22h-216z m-7-66c2 2 4 3 7 3h216c3 0 5-1 7-3l59-59c14-14 32-21 52-21h149c6 0 10-5 10-11v-458c0-6-4-10-10-10h-750c-6 0-10 4-10 10v458c0 6 4 11 10 11h149c20 0 38 7 52 21l59 59z" horiz-adv-x="1000" />

<glyph glyph-name="camera-vintage-outline" unicode="&#xe825;" d="M833 548h-83v-63h83v63z m-125-198c0 115-93 208-208 208-115 0-208-93-208-208 0-115 93-208 208-208 115 0 208 93 208 208z m-62 0c0-81-65-146-146-146-81 0-146 65-146 146 0 81 65 146 146 146 81 0 146-65 146-146z m-323 365h-146v-42h-52c-40 0-73-33-73-73v-500c0-40 33-73 73-73h750c40 0 73 33 73 73v500c0 40-33 73-73 73h-552v42z m-208-115c0 6 4 10 10 10h750c6 0 10-4 10-10v-500c0-6-4-10-10-10h-750c-6 0-10 4-10 10v500z" horiz-adv-x="1000" />

<glyph glyph-name="caret-down-circle" unicode="&#xe826;" d="M500 782c238 0 432-194 432-432 0-238-194-432-432-432-238 0-432 194-432 432 0 238 194 432 432 432z m0 68c-276 0-500-224-500-500 0-276 224-500 500-500 276 0 500 224 500 500 0 276-224 500-500 500z m-227-432l227-227 227 227-454 0z" horiz-adv-x="1000" />

<glyph glyph-name="caret-down" unicode="&#xe827;" d="M500 204l-208 208h416l-208-208z" horiz-adv-x="1000" />

<glyph glyph-name="caret-left" unicode="&#xe828;" d="M354 350l209 208 0-416-209 208z" horiz-adv-x="1000" />

<glyph glyph-name="caret-right" unicode="&#xe829;" d="M646 350l-208-208v416l208-208z" horiz-adv-x="1000" />

<glyph glyph-name="caret-up-circle" unicode="&#xe82a;" d="M500-82c-238 0-432 194-432 432 0 238 194 432 432 432 238 0 432-194 432-432 0-238-194-432-432-432z m0-68c276 0 500 224 500 500 0 276-224 500-500 500-276 0-500-224-500-500 0-276 224-500 500-500z m227 432l-227 227-227-227h454z" horiz-adv-x="1000" />

<glyph glyph-name="caret-up" unicode="&#xe82b;" d="M500 496l208-209h-416l208 209z" horiz-adv-x="1000" />

<glyph glyph-name="cart-outline" unicode="&#xe82c;" d="M63 665v60h129l21-87h649c23 0 40-23 32-45l-111-319h-498l13-62c0-5 5-8 9-8h518v-60h-518c-33 0-62 24-69 57l-78 401-15 63h-82z m211-331h466l85 244h-599l48-244z m62-321c0 8-8 21-26 21-19 0-26-13-26-21 0-7 7-20 26-20 18 0 26 13 26 20z m431 0c0 8-8 21-26 21-18 0-26-13-26-21 0-7 8-20 26-20 18 0 26 13 26 20z m-371 0c0-44-39-80-86-80-48 0-87 36-87 80 0 45 39 81 87 81 47 0 86-36 86-81z m431 0c0-44-39-80-86-80-48 0-86 36-86 80 0 45 38 81 86 81 47 0 86-36 86-81z" horiz-adv-x="1000" />

<glyph glyph-name="cart-plus" unicode="&#xe82d;" d="M83 704h85l16-66 81-416c7-35 37-60 72-60h536v63h-536c-5 0-9 4-10 8l-13 65h515l115 331c8 23-9 47-33 47h-140v-62h102l-88-254h-483l-49 254h143v62h-157l-21 91h-135v-63z m283-677c0-7-8-21-27-21-19 0-26 14-26 21 0 8 7 21 26 21 19 0 27-13 27-21z m447 0c0-7-8-21-27-21-19 0-27 14-27 21 0 8 8 21 27 21 19 0 27-13 27-21z m-384 0c0-46-40-83-90-83-49 0-89 37-89 83 0 46 40 83 89 83 50 0 90-37 90-83z m446 0c0-46-40-83-89-83-50 0-90 37-90 83 0 46 40 83 90 83 49 0 89-37 89-83z m-323 573v135h63v-135h135v-63h-135v-135h-63v135h-135v63h135z" horiz-adv-x="1000" />

<glyph glyph-name="cart" unicode="&#xe82e;" d="M63 665h82l15-64 78-402c7-33 36-57 69-57h518v60h-518c-4 0-9 3-9 8l-13 62h498l111 320c8 23-9 46-32 46h-649l-21 87h-129v-60z m250-732c46 0 83 38 83 84 0 46-37 83-83 83-47 0-84-37-84-83 0-46 37-84 84-84z m0 63c-18 0-25 13-25 21 0 7 7 20 25 20 17 0 25-13 25-20 0-8-8-21-25-21z m416-63c46 0 84 38 84 84 0 46-38 83-84 83-46 0-83-37-83-83 0-46 37-84 83-84z m0 63c-17 0-25 13-25 21 0 7 8 20 25 20 18 0 25-13 25-20 0-8-7-21-25-21z" horiz-adv-x="1000" />

<glyph glyph-name="chart-arrow" unicode="&#xe82f;" d="M198 300v383h-63v-698h740v63h-677v164l135 135 167-166 302 302v-91h63v198h-198v-63h91l-258-258-167 167-135-136z" horiz-adv-x="1000" />

<glyph glyph-name="check.ii-weight-600" unicode="&#xe830;" d="M863 529l-467-467-259 259 59 58 200-199 408 408 59-59z" horiz-adv-x="1000" />

<glyph glyph-name="check-circle.ii-weight-600" unicode="&#xe831;" d="M500-67c-230 0-417 187-417 417 0 230 187 417 417 417 230 0 417-187 417-417 0-230-187-417-417-417z m-36 240l274 274-59 59-244-244-114 114-59-59 143-144 30-29 29 29z" horiz-adv-x="1000" />

<glyph glyph-name="check-circle-outline.ii-weight-600" unicode="&#xe832;" d="M833 350c0 184-149 333-333 333-184 0-333-149-333-333 0-184 149-333 333-333 184 0 333 149 333 333z m84 0c0-230-187-417-417-417-230 0-417 187-417 417 0 230 187 417 417 417 230 0 417-187 417-417z m-482-206l-173 173 59 59 114-114 244 244 59-59-303-303z" horiz-adv-x="1000" />

<glyph glyph-name="check-circle-outline" unicode="&#xe833;" d="M435 159l-165 165 44 44 121-121 251 251 44-44-295-295z m482 191c0-230-187-417-417-417-230 0-417 187-417 417 0 230 187 417 417 417 230 0 417-187 417-417z m-63 0c0 196-158 354-354 354-196 0-354-158-354-354 0-196 158-354 354-354 196 0 354 158 354 354z" horiz-adv-x="1000" />

<glyph glyph-name="check-circle" unicode="&#xe834;" d="M500-67c230 0 417 187 417 417 0 230-187 417-417 417-230 0-417-187-417-417 0-230 187-417 417-417z m230 521l-295-295-165 165 44 44 121-121 251 251 44-44z" horiz-adv-x="1000" />

<glyph glyph-name="check-notepad-outline" unicode="&#xe835;" d="M750 756c40 0 73-32 73-73l0-708c0-40-33-73-73-73h-500c-40 0-73 33-73 73l0 708c0 41 33 73 73 73l104 0v-62l-104 0c-6 0-10-5-10-11l0-708c0-6 4-10 10-10h500c6 0 10 4 10 10l0 708c0 6-4 11-10 11l-104 0v62l104 0z m-286-52h-68v-42h208v42h-68l-18 31c-4 7-10 11-18 11-8 0-14-4-18-11l-18-31z m203-104h-334v167h95c14 25 41 41 72 41 31 0 58-16 72-41h95v-167z m21-189l-244-229-132 124 43 46 89-84 201 188 43-45z" horiz-adv-x="1000" />

<glyph glyph-name="check-square.ii-weight-600" unicode="&#xe836;" d="M167 725h666c23 0 42-19 42-42v-666c0-23-19-42-42-42h-666c-23 0-42 19-42 42v666c0 23 19 42 42 42z m297-552l274 274-59 59-244-244-114 114-59-59 143-144 30-29 29 29z" horiz-adv-x="1000" />

<glyph glyph-name="check-square-outline.ii-weight-600" unicode="&#xe837;" d="M208 58h584v584h-584v-584z m-83 625c0 23 19 42 42 42h666c23 0 42-19 42-42v-666c0-23-19-42-42-42h-666c-23 0-42 19-42 42v666z m310-539l-173 173 59 59 114-114 244 244 59-59-303-303z" horiz-adv-x="1000" />

<glyph glyph-name="check-square-outline" unicode="&#xe838;" d="M435 159l-165 165 44 44 121-121 251 251 44-44-295-295z m-310 524c0 23 19 42 42 42h666c23 0 42-19 42-42v-666c0-23-19-42-42-42h-666c-23 0-42 19-42 42v666z m63-646h625v625h-625v-625z" horiz-adv-x="1000" />

<glyph glyph-name="check-square" unicode="&#xe839;" d="M167 725c-23 0-42-19-42-42v-666c0-23 19-42 42-42h666c23 0 42 19 42 42v666c0 23-19 42-42 42h-666z m563-271l-295-295-165 165 44 44 121-121 251 251 44-44z" horiz-adv-x="1000" />

<glyph glyph-name="check" unicode="&#xe83a;" d="M840 537l-429-440-246 252 45 44 201-207 384 394 45-43z" horiz-adv-x="1000" />

<glyph glyph-name="chevron-down.ii-weight-600" unicode="&#xe83b;" d="M500 124l-404 405 58 59 346-346 346 346 58-59-404-405z" horiz-adv-x="1000" />

<glyph glyph-name="chevron-down" unicode="&#xe83c;" d="M500 139l397 397-44 44-353-352-353 352-44-44 397-397z" horiz-adv-x="1000" />

<glyph glyph-name="chevron-left.ii-weight-600" unicode="&#xe83d;" d="M274 350l405 404 59-58-346-346 346-346-59-58-405 404z" horiz-adv-x="1000" />

<glyph glyph-name="chevron-left" unicode="&#xe83e;" d="M289 350l397 397 44-44-352-353 352-353-44-44-397 397z" horiz-adv-x="1000" />

<glyph glyph-name="chevron-right.ii-weight-600" unicode="&#xe83f;" d="M726 350l-405-404-59 58 346 346-346 346 59 58 405-404z" horiz-adv-x="1000" />

<glyph glyph-name="chevron-right" unicode="&#xe840;" d="M711 350l-397 397-44-44 352-353-352-353 44-44 397 397z" horiz-adv-x="1000" />

<glyph glyph-name="chevron-up.ii-weight-600" unicode="&#xe841;" d="M500 576l404-405-58-59-346 346-346-346-58 59 404 405z" horiz-adv-x="1000" />

<glyph glyph-name="chevron-up" unicode="&#xe842;" d="M500 561l397-397-44-44-353 352-353-352-44 44 397 397z" horiz-adv-x="1000" />

<glyph glyph-name="circle-dot-outline.ii-weight-600" unicode="&#xe843;" d="M833 350c0 184-149 333-333 333-184 0-333-149-333-333 0-184 149-333 333-333 184 0 333 149 333 333z m84 0c0-230-187-417-417-417-230 0-417 187-417 417 0 230 187 417 417 417 230 0 417-187 417-417z m-417-292c-161 0-292 131-292 292 0 161 131 292 292 292 161 0 292-131 292-292 0-161-131-292-292-292z" horiz-adv-x="1000" />

<glyph glyph-name="circle-dot-outline" unicode="&#xe844;" d="M500 58c-161 0-292 131-292 292 0 161 131 292 292 292 161 0 292-131 292-292 0-161-131-292-292-292z m417 292c0-230-187-417-417-417-230 0-417 187-417 417 0 230 187 417 417 417 230 0 417-187 417-417z m-63 0c0 196-158 354-354 354-196 0-354-158-354-354 0-196 158-354 354-354 196 0 354 158 354 354z" horiz-adv-x="1000" />

<glyph glyph-name="circle-outline.ii-weight-600" unicode="&#xe845;" d="M500 17c184 0 333 149 333 333 0 184-149 333-333 333-184 0-333-149-333-333 0-184 149-333 333-333z m0-84c-230 0-417 187-417 417 0 230 187 417 417 417 230 0 417-187 417-417 0-230-187-417-417-417z" horiz-adv-x="1000" />

<glyph glyph-name="circle-outline" unicode="&#xe846;" d="M500-4c-196 0-354 158-354 354 0 196 158 354 354 354 196 0 354-158 354-354 0-196-158-354-354-354z m0-63c230 0 417 187 417 417 0 230-187 417-417 417-230 0-417-187-417-417 0-230 187-417 417-417z" horiz-adv-x="1000" />

<glyph glyph-name="circle-percent-outline" unicode="&#xe847;" d="M686 580l-416-416 44-44 416 416-44 44z m-332 30c-63 0-114-51-114-114 0-63 51-115 114-115 63 0 115 52 115 115 0 63-52 114-115 114z m-52-114c0 29 23 52 52 52 29 0 52-23 52-52 0-29-23-52-52-52-29 0-52 23-52 52z m344-177c-63 0-115-52-115-115 0-63 52-114 115-114 63 0 114 51 114 114 0 63-51 115-114 115z m-52-115c0 29 23 52 52 52 29 0 52-23 52-52 0-29-23-52-52-52-29 0-52 23-52 52z m-94 594c-247 0-448-201-448-448 0-247 201-448 448-448 247 0 448 201 448 448 0 247-201 448-448 448z m-385-448c0 213 172 385 385 385 213 0 385-172 385-385 0-213-172-385-385-385-213 0-385 172-385 385z" horiz-adv-x="1000" />

<glyph glyph-name="circle-plus.ii-weight-600" unicode="&#xe848;" d="M500-67c230 0 417 187 417 417 0 230-187 417-417 417-230 0-417-187-417-417 0-230 187-417 417-417z m-42 459v125h84v-125h125v-84h-125v-125h-84v125h-125v84h125z" horiz-adv-x="1000" />

<glyph glyph-name="circle-plus-outline.ii-weight-600" unicode="&#xe849;" d="M833 350c0 184-149 333-333 333-184 0-333-149-333-333 0-184 149-333 333-333 184 0 333 149 333 333z m84 0c0-230-187-417-417-417-230 0-417 187-417 417 0 230 187 417 417 417 230 0 417-187 417-417z m-459 167h84v-125h125v-84h-125v-125h-84v125h-125v84h125v125z" horiz-adv-x="1000" />

<glyph glyph-name="circle-plus-outline" unicode="&#xe84a;" d="M854 350c0 196-158 354-354 354-196 0-354-158-354-354 0-196 158-354 354-354 196 0 354 158 354 354z m63 0c0-230-187-417-417-417-230 0-417 187-417 417 0 230 187 417 417 417 230 0 417-187 417-417z m-448 167h62v-136h136v-62h-136v-136h-62v136h-136v62h136v136z" horiz-adv-x="1000" />

<glyph glyph-name="circle-plus" unicode="&#xe84b;" d="M500-67c230 0 417 187 417 417 0 230-187 417-417 417-230 0-417-187-417-417 0-230 187-417 417-417z m-31 584h62v-136h136v-62h-136v-136h-62v136h-136v62h136v136z" horiz-adv-x="1000" />

<glyph glyph-name="clock-alarm-outline.ii-weight-600" unicode="&#xe84c;" d="M292 744c8-4 16-10 23-16-29-13-57-29-83-48-8 2-15 3-24 3-46 0-83-37-83-83 0-8 1-16 3-23-18-26-35-54-48-84-6 7-11 15-16 24-14 24-22 53-22 83 0 92 74 167 166 167 31 0 59-8 84-23z m666-144c0-41-14-78-38-107-13 30-30 58-48 84 2 7 3 15 3 23 0 46-37 83-83 83-8 0-16-1-24-3-26 19-54 35-83 48 29 24 66 39 107 39 92 0 166-75 166-167z m-500-83h84v-191l124-125-59-58-149 148v226z m334-209c0 161-131 292-292 292-161 0-292-131-292-292 0-161 131-291 292-291 161 0 292 130 292 291z m83 0c0-207-168-375-375-375-207 0-375 168-375 375 0 207 168 375 375 375 207 0 375-168 375-375z" horiz-adv-x="1000" />

<glyph glyph-name="clock-alarm-outline" unicode="&#xe84d;" d="M292 744c8-4 16-10 23-16-22-10-42-21-62-34-14 7-29 10-45 10-57 0-104-46-104-104 0-16 4-31 10-44-13-20-24-41-34-63-6 7-11 15-16 24-14 24-22 53-22 83 0 92 74 167 166 167 31 0 59-8 84-23z m666-144c0-41-14-78-38-107-10 22-21 43-34 63 6 13 10 28 10 44 0 58-47 104-104 104-16 0-31-3-45-10-20 13-40 24-62 34 29 24 66 39 107 39 92 0 166-75 166-167z m-489-83h62v-196l127-127-44-44-145 145v222z m344-209c0 173-140 313-313 313-173 0-312-140-312-313 0-172 139-312 312-312 173 0 313 140 313 312z m62 0c0-207-168-375-375-375-207 0-375 168-375 375 0 207 168 375 375 375 207 0 375-168 375-375z" horiz-adv-x="1000" />

<glyph glyph-name="clock-outline.ii-weight-600" unicode="&#xe84e;" d="M458 333v267h84v-233l133-133-59-59-158 158z m42-316c184 0 333 149 333 333 0 184-149 333-333 333-184 0-333-149-333-333 0-184 149-333 333-333z m0-84c-230 0-417 187-417 417 0 230 187 417 417 417 230 0 417-187 417-417 0-230-187-417-417-417z" horiz-adv-x="1000" />

<glyph glyph-name="clock-outline" unicode="&#xe84f;" d="M469 337l155-155 44 44-137 137v237h-62v-263z m31-341c-196 0-354 158-354 354 0 196 158 354 354 354 196 0 354-158 354-354 0-196-158-354-354-354z m0-63c230 0 417 187 417 417 0 230-187 417-417 417-230 0-417-187-417-417 0-230 187-417 417-417z" horiz-adv-x="1000" />

<glyph glyph-name="clock" unicode="&#xe850;" d="M500-67c230 0 417 187 417 417 0 230-187 417-417 417-230 0-417-187-417-417 0-230 187-417 417-417z m31 430l137-137-44-44-155 155v263h62v-237z" horiz-adv-x="1000" />

<glyph glyph-name="comment-outline" unicode="&#xe851;" d="M239-63l52 187c-128 64-204 173-204 293 0 191 195 346 435 346 240 0 435-155 435-346 0-191-195-346-435-346-27 0-53 2-77 6l-8-6c-18-13-54-38-88-62-18-12-36-23-50-33l-60-39h0z m283 772c-210 0-381-131-381-292 0-98 65-190 174-245l40-20-25-89c30 21 59 41 75 52l25 18 22-3c22-3 45-5 69-5 210 0 381 131 381 292 0 160-170 292-380 292z" horiz-adv-x="1000" />

<glyph glyph-name="compression" unicode="&#xe852;" d="M708 615l-208-203-208 203 48 47 160-155 160 155 48-47z m-368-578l-48 48 208 202 208-202-48-48-160 156-160-156z m-257 683c0 26 21 47 47 47h740c26 0 47-21 47-47v-740c0-26-21-47-47-47h-740c-26 0-47 21-47 47v740z m70-717h694v694h-694v-694z" horiz-adv-x="1000" />

<glyph glyph-name="copy" unicode="&#xe853;" d="M807 830c24 0 44 0 61-1 16-2 32-5 46-12 23-12 41-30 53-53 7-14 10-30 12-46 1-17 1-37 1-61v-344c0-24 0-44-1-61-2-16-5-32-12-46-12-23-30-41-53-53-14-7-30-10-46-12-17-1-37-1-61-1h-97v-97c0-24 0-44-1-61-2-16-5-32-12-46-12-23-30-41-53-53-14-7-30-10-46-12-17-1-37-1-61-1h-344c-24 0-44 0-61 1-16 2-32 5-46 12-23 12-41 30-53 53-7 14-10 30-12 46-1 17-1 37-1 61v344c0 24 0 44 1 61 2 16 5 32 12 46 12 23 30 41 53 53 14 7 30 10 46 12 17 1 37 1 61 1h97v97c0 24 0 44 1 61 2 16 5 32 12 46 12 23 30 41 53 53 14 7 30 10 46 12 17 1 37 1 61 1h344z m-670-331c-13-1-20-3-24-6-12-5-21-14-26-26-3-4-5-11-6-24-1-14-1-31-1-57v-342c0-26 0-43 1-57 1-13 3-20 6-24 5-12 14-21 26-26 4-3 11-5 24-6 14-1 31-1 57-1h342c26 0 43 0 57 1 13 1 20 3 24 6 12 5 21 14 26 26 3 4 5 11 6 24 1 14 1 31 1 57v342c0 26 0 43-1 57-1 13-3 20-6 24-5 12-14 21-26 26-4 3-11 5-24 6-14 1-31 1-57 1h-342c-26 0-43 0-57-1z m573-299l96 0c6 0 12 0 18 0 9 0 17 0 24 0 5 1 10 1 15 1 13 1 20 3 24 6 12 5 21 14 26 26 3 4 5 11 6 24 1 14 1 31 1 57v342c0 26 0 43-1 57-1 13-3 20-6 24-5 12-14 21-26 26-2 2-5 3-9 4-4 1-9 1-15 2-11 1-25 1-43 1-4 0-9 0-14 0h-342c-26 0-43 0-57-1-13-1-20-3-24-6-12-5-21-14-26-26-3-4-5-11-6-24-1-14-1-31-1-57v-96l187 0c18 0 34 0 48-1 4 0 8 0 13 0v0c1 0 2-1 3-1 5 0 11-1 16-2 9-2 19-5 27-9 23-12 41-30 53-53 7-14 10-30 12-46 1-17 1-37 1-61v-187z" horiz-adv-x="1000" />

<glyph glyph-name="credit-card-outline" unicode="&#xe854;" d="M94 607c0 36 30 66 68 66h697c38 0 68-30 68-66v-452c0-36-30-65-68-65h-697c-38 0-68 29-68 65v452z m68 9c-6 0-10-4-10-9v-57h717v57c0 5-4 9-10 9h-697z m707-123h-717v-46h717v46z m0-102h-717v-236c0-5 4-9 10-9h697c6 0 10 4 10 9v236z" horiz-adv-x="1000" />

<glyph glyph-name="currency-krw-outline" unicode="&#xe855;" d="M500-4c-196 0-354 158-354 354 0 196 158 354 354 354 196 0 354-158 354-354 0-196-158-354-354-354z m0-63c230 0 417 187 417 417 0 230-187 417-417 417-230 0-417-187-417-417 0-230 187-417 417-417z m-105 219c13 0 25 7 30 19l75 181 75-181c5-12 17-19 30-19 13 0 24 9 29 21l104 291c6 17-3 35-19 40-16 6-34-2-40-18l-77-216-73 175c-5 12-16 20-29 20-13 0-24-8-29-20l-73-175-77 216c-6 16-24 24-40 18-16-5-25-23-19-40l104-291c5-12 16-21 29-21z m-176 198c0-17 14-31 31-31h500c17 0 31 14 31 31 0 17-14 31-31 31h-500c-17 0-31-14-31-31z" horiz-adv-x="1000" />

<glyph glyph-name="deer" unicode="&#xe856;" d="M920 496h-815c-17 0-30-13-30-30 0-99 80-179 179-179h8v-125c0-138 112-250 251-250 138 0 250 112 250 250v125h8c99 0 179 80 179 179 0 17-13 30-30 30z m-658-63v-83h-8c-53 0-98 35-112 83h120z m63-271v271h375v-271c0-103-84-187-187-187-104 0-188 84-188 187z m438 188v83h120c-14-48-59-83-112-83h-8z m-490 458v-208c0-6 5-10 10-10h84v72h62v-208h-62v73h-84c-36 0-67 27-72 63h-74c-40 0-72 32-72 72v84h62v-84c0-5 5-10 10-10h73v156h63z m542-156v156h-63v-208c0-6-5-10-10-10h-84v72h-62v-208h62v73h84c36 0 67 27 72 63h74c40 0 72 32 72 72v84h-62v-84c0-5-5-10-10-10h-73z" horiz-adv-x="1000" />

<glyph glyph-name="dislike-outline" unicode="&#xe857;" d="M213 725h514c26 0 48-8 65-21 18-13 31-34 40-59l61-270c4-22 4-38 0-59-5-22-13-38-27-51-13-17-30-30-47-38-18-9-40-13-57-13h-144v-131c0-25-9-46-26-67-17-17-39-34-61-38-22-4-44-4-65 4-22 8-35 25-44 42l-126 254h-83c-30 0-57 12-74 29-22 25-35 51-35 80v237c0 25 13 55 31 71 21 22 48 30 78 30z m122-380l144-291c4-4 8-9 13-13 4-4 13-4 22 0 8 0 17 9 26 17 4 8 8 17 8 25v195h210c8 0 21 4 30 8 9 4 17 13 26 17 5 8 13 17 13 25 5 9 5 21 0 30l-61 270c0 8-8 17-13 21-9 4-17 8-26 8h-392v-312z m-165 42c0-12 4-21 13-29 8-9 17-13 30-13h57v317h-57c-13 0-22-5-30-13-9-8-13-17-13-30v-232z" horiz-adv-x="1000" />

<glyph glyph-name="dislike" unicode="&#xe858;" d="M136 302c-18 17-32 43-32 74v244c0 26 14 57 32 74 22 22 50 31 77 31h50v-458h-46c-31 0-59 13-81 35z m726-37c-12-17-30-30-47-38-17-9-39-13-56-13h-142v-131c0-25-8-46-26-67-17-17-38-34-60-38-21-4-43-4-64 4-22 8-35 25-43 42l-91 194v507h396c26 0 47-8 65-21 17-13 30-34 38-59l61-270c4-22 4-38 0-59-9-17-18-38-31-51z" horiz-adv-x="1000" />

<glyph glyph-name="document-with-lines-outline" unicode="&#xe859;" d="M814 539c6-6 9-14 9-22l0-500c0-41-33-73-73-73l-500 0c-40 0-73 32-73 73l0 666c0 41 33 73 73 73l333 0c9 0 17-3 22-9l209-208z m-54-522l0 468-208 0 0 209-302 0c-6 0-10-5-10-11l0-666c0-6 4-11 10-11l500 0c6 0 10 5 10 11z m-145 633l0-102 101 0-101 102z m52-498l-334 0 0 63 334 0 0-63z m0 167l-334 0 0 62 334 0 0-62z" horiz-adv-x="1000" />

<glyph glyph-name="document-with-user-outline" unicode="&#xe85a;" d="M831 526l0-509c0-39-32-71-71-71h-552c-39 0-70 32-70 71l0 666c0 39 31 71 70 71l395 0c8 0 15-3 21-8l198-199c6-6 9-13 9-21z m-100 29l-99 100v-100h99z m-157 141l-366 0c-7 0-12-6-12-13l0-666c0-7 5-13 12-13h552c7 0 13 6 13 13l0 480h-199v199z m140-567c0-16-13-29-29-29l-401 0c-16 0-29 13-29 29 0 17 13 30 29 30l401 0c16 0 29-13 29-30z m-82 129c0-16-13-29-29-29h-319c-16 0-29 13-29 29 0 16 13 29 29 29h319c16 0 29-13 29-29z m-243 327c-20 0-35-16-35-35 0-19 15-35 35-35 19 0 35 16 35 35 0 19-16 35-35 35z m-77-35c0 42 34 77 77 77 42 0 76-35 76-77 0-42-34-77-76-77-43 0-77 35-77 77z m4-153c17 24 43 39 73 39 29 0 56-15 72-39h-145z m-53-15c-1-6 0-13 4-18 4-5 10-8 16-8h211c7 0 13 3 17 8 4 5 5 12 3 18-16 55-66 96-125 96-60 0-109-41-126-96z" horiz-adv-x="1000" />

<glyph glyph-name="door-out" unicode="&#xe85b;" d="M674 767c19 0 34-16 34-35v-208c0-20-15-35-34-35-20 0-35 15-35 35v173h-284l120-36c15-4 25-18 25-33v-556h139v174c0 19 16 35 35 35 19 0 34-16 34-35v-209c0-19-15-34-34-34h-174v-35c0-10-5-20-13-27-6-5-14-8-22-8-2 0-4 1-6 1l-348 69c-16 4-28 18-28 34v695c0 1 1 1 1 2 0 1 0 2 0 3 0 3 1 5 2 8 1 1 1 2 1 3 3 4 6 8 10 11l0 1c1 0 2 0 3 1 3 2 6 3 10 4 1 1 3 1 5 1 1 0 2 1 3 1h556z m79-254c14 14 36 14 49 0l105-104c3-3 5-7 7-11 4-8 4-18 0-27-2-4-4-8-7-11l-105-104c-6-7-15-10-24-10-9 0-18 3-25 10-13 14-13 36 0 49l45 45h-194c-19 0-35 16-35 35 0 19 16 34 35 34h194l-45 45c-13 14-13 36 0 49h0z" horiz-adv-x="1000" />

<glyph glyph-name="double-chevron-down" unicode="&#xe85c;" d="M897 661l-397-397-397 397 44 44 353-352 353 352 44-44z m0-291l-397-398-397 398 44 44 353-353 353 353 44-44z" horiz-adv-x="1000" />

<glyph glyph-name="download-document-outline" unicode="&#xe85d;" d="M814 539c6-6 9-14 9-22l0-500c0-41-33-73-73-73l-500 0c-40 0-73 32-73 73l0 666c0 41 33 73 73 73l333 0c9 0 17-3 22-9l209-208z m-54-522l0 468-208 0 0 209-302 0c-6 0-10-5-10-11l0-666c0-6 4-11 10-11l500 0c6 0 10 5 10 11z m-145 633l0-102 101 0-101 102z m2-435l-117-118-117 118 86 0 0 177 62 0 0-177 86 0z" horiz-adv-x="1000" />

<glyph glyph-name="download-outline" unicode="&#xe85e;" d="M464 227v540h72v-540l177 164 50-47-263-245-263 245 50 47 177-164z m-381-39h72v-188h690v188h72v-255h-834v255z" horiz-adv-x="1000" />

<glyph glyph-name="drag-lines" unicode="&#xe85f;" d="M831 381h-656v63h656v-63z m0-125h-656v63h656v-63z" horiz-adv-x="1000" />

<glyph glyph-name="earth" unicode="&#xe860;" d="M696 732c10-5 21-10 31-15 130-71 219-209 219-367 0-132-61-249-156-325-10-8-21-16-32-23-65-43-144-69-229-69-28 0-56 3-83 9-11 2-21 4-31 7-175 50-302 211-302 401 0 63 14 123 39 177 5 10 10 21 16 31 72 125 207 209 361 209 59 0 116-13 167-35z m-183-434h120c87 0 157-70 157-156v-32c58 63 93 147 93 240 0 122-62 230-156 294v-44c0-52-42-94-94-94h-10c-12 0-21-9-21-21v-2c0-45-36-81-81-81-24 0-44-20-44-44v-25c0-19 16-35 36-35z m152 379c-42 18-88 27-136 27-129 0-243-69-305-174l213-319c26-39 40-85 40-132v-79c17-3 34-4 52-4 73 0 142 22 198 60v86c0 51-42 93-94 93h-120c-55 0-98 44-98 98v25c0 59 47 107 106 107 10 0 19 8 19 18v2c0 46 37 84 83 84h10c18 0 32 14 32 31v77z m-471-213c-12-36-19-74-19-114 0-155 100-288 240-335v64c0 35-11 69-30 98l-191 287z" horiz-adv-x="1000" />

<glyph glyph-name="ellipsis-horizontal-outline.ii-weight-600" unicode="&#xe861;" d="M177 402c-29 0-52-23-52-52 0-29 23-52 52-52 29 0 52 23 52 52 0 29-23 52-52 52z m-135-52c0 75 60 135 135 135 75 0 136-60 136-135 0-75-61-135-136-135-75 0-135 60-135 135z m781 52c-29 0-52-23-52-52 0-29 23-52 52-52 29 0 52 23 52 52 0 29-23 52-52 52z m-135-52c0 75 60 135 135 135 75 0 135-60 135-135 0-75-60-135-135-135-75 0-135 60-135 135z m-240 0c0-29 23-52 52-52 29 0 52 23 52 52 0 29-23 52-52 52-29 0-52-23-52-52z m52 135c75 0 135-60 135-135 0-75-60-135-135-135-75 0-135 60-135 135 0 75 60 135 135 135z" horiz-adv-x="1000" />

<glyph glyph-name="ellipsis-horizontal-outline" unicode="&#xe862;" d="M167 290c-33 0-60 27-60 60 0 33 27 60 60 60 33 0 60-27 60-60 0-33-27-60-60-60z m333 0c-33 0-60 27-60 60 0 33 27 60 60 60 33 0 60-27 60-60 0-33-27-60-60-60z m333 0c-33 0-60 27-60 60 0 33 27 60 60 60 33 0 60-27 60-60 0-33-27-60-60-60z m-541 60c0 69-56 125-125 125-69 0-125-56-125-125 0-69 56-125 125-125 69 0 125 56 125 125z m333 0c0 69-56 125-125 125-69 0-125-56-125-125 0-69 56-125 125-125 69 0 125 56 125 125z m208-125c69 0 125 56 125 125 0 69-56 125-125 125-69 0-125-56-125-125 0-69 56-125 125-125z" horiz-adv-x="1000" />

<glyph glyph-name="ellipsis-horizontal" unicode="&#xe863;" d="M708 350c0-46 38-83 84-83 46 0 83 37 83 83 0 46-37 83-83 83-46 0-84-37-84-83z m-291 0c0-46 37-83 83-83 46 0 83 37 83 83 0 46-37 83-83 83-46 0-83-37-83-83z m-209 83c-46 0-83-37-83-83 0-46 37-83 83-83 46 0 84 37 84 83 0 46-38 83-84 83z" horiz-adv-x="1000" />

<glyph glyph-name="ellipsis-vertical-fill" unicode="&#xe864;" d="M500 558c46 0 83 38 83 84 0 46-37 83-83 83-46 0-83-37-83-83 0-46 37-84 83-84z m0-291c46 0 83 37 83 83 0 46-37 83-83 83-46 0-83-37-83-83 0-46 37-83 83-83z m-83-209c0-46 37-83 83-83 46 0 83 37 83 83 0 46-37 84-83 84-46 0-83-38-83-84z" horiz-adv-x="1000" />

<glyph glyph-name="expansion" unicode="&#xe865;" d="M708 481l-48-48-160 155-160-155-48 48 208 202 208-202z m-368-214l160-155 160 155 48-48-208-202-208 202 48 48z m-257 453c0 26 21 47 47 47h740c26 0 47-21 47-47v-740c0-26-21-47-47-47h-740c-26 0-47 21-47 47v740z m70-717h694v694h-694v-694z" horiz-adv-x="1000" />

<glyph glyph-name="export.ii-weight-600" unicode="&#xe866;" d="M542 121v483l137-138 59 59-238 238-238-238 59-59 137 138v-483h84z m-334 83h-83v-250h750v250h-83v-167h-584v167z" horiz-adv-x="1000" />

<glyph glyph-name="export" unicode="&#xe867;" d="M531 121v508l155-155 44 44-230 230-230-230 44-44 155 155v-508h62z m-333 83h-63v-239h730v239h-63v-177h-604v177z" horiz-adv-x="1000" />

<glyph glyph-name="eye" unicode="&#xe868;" d="M605 328c-19 0-39 6-55 16-17 10-30 25-38 43-9 18-12 37-9 57 2 19 10 37 22 52-46 6-92-4-131-27-40-24-70-59-87-102-18-43-20-90-7-134 12-44 39-83 76-111 37-27 82-41 128-41 45 1 90 17 126 46 36 28 61 68 72 113 11 44 7 91-11 133-10-14-23-25-38-33-14-8-31-12-48-12z m-105 253c167 0 302-135 302-302h63c0 202-164 365-365 365-201 0-365-163-365-365h63c0 167 135 302 302 302z" horiz-adv-x="1000" />

<glyph glyph-name="face-happy-outline" unicode="&#xe869;" d="M500 735c-213 0-385-172-385-385 0-213 172-385 385-385 213 0 385 172 385 385 0 213-172 385-385 385z m-448-385c0 247 201 448 448 448 247 0 448-201 448-448 0-247-201-448-448-448-247 0-448 201-448 448z m271 125c0 29 23 52 52 52 29 0 52-23 52-52 0-29-23-52-52-52-29 0-52 23-52 52z m250 0c0 29 23 52 52 52 29 0 52-23 52-52 0-29-23-52-52-52-29 0-52 23-52 52z m-292-208c0 17 14 31 32 31h375c17 0 31-14 31-31 0-47-28-92-66-123-40-33-93-54-153-54-60 0-113 21-153 54-38 31-66 76-66 123z m71-32c7-14 18-29 35-43 29-24 68-40 113-40 45 0 84 16 113 40 17 14 28 29 35 43h-296z" horiz-adv-x="1000" />

<glyph glyph-name="flag-outline.ii-weight-600" unicode="&#xe86a;" d="M208 683h615c41 0 62-49 33-78l-172-172 172-171c29-29 8-79-33-79h-615v-291h-83v854h83v-63z m0-416h525l-167 166 167 167h-525v-333z" horiz-adv-x="1000" />

<glyph glyph-name="flag-outline" unicode="&#xe86b;" d="M198 673v73h-63v-854h63v302h625c32 0 48 38 25 60l-179 179 179 179c23 23 7 61-25 61h-625z m0-417v354h560l-177-177 177-177h-560z" horiz-adv-x="1000" />

<glyph glyph-name="flag" unicode="&#xe86c;" d="M198 746v-73h625c32 0 48-38 25-61l-179-179 179-179c23-22 7-60-25-60h-625v-302h-63v854h63z" horiz-adv-x="1000" />

<glyph glyph-name="frozen" unicode="&#xe86d;" d="M458 701l-54 53-58-58 112-113v-72c-29-7-56-23-77-44l-62 35-41 155-81-22 20-74-93 54-42-72 94-54-74-20 22-80 154 41 61-35c-4-15-6-30-6-45 0-78 53-143 125-161v-72l-112-113 58-58 54 53v-107h84v107l54-53 58 58-112 113v72c29 7 56 23 77 44l62-35 41-155 81 22-20 74 93-54 42 72-94 54 74 20-22 80-154-41-61 35c4 15 6 30 6 45 0 78-53 143-125 161v72l112 113-58 58-54-53v107h-84v-107z m264-44l81-22-35-131 130-35-22-80-211 57 57 211z m-222-224c46 0 83-37 83-83 0-46-37-83-83-83-46 0-83 37-83 83 0 46 37 83 83 83z m-376-122l211-57-57-211-81 22 35 131-130 35 22 80z" horiz-adv-x="1000" />

<glyph glyph-name="gift-outline.ii-weight-600" unicode="&#xe86e;" d="M493 760c-65 65-171 65-236 0-54-55-63-138-26-202h-64c-46 0-84-37-84-83l0-500c0-46 38-83 84-83h666c46 0 84 37 84 83v500c0 46-38 83-84 83h-64c37 64 28 147-26 202-65 65-171 65-236 0-2-3-5-5-7-8-2 3-5 5-7 8z m63-285l165-165 58 59-105 106h159v-500h-291v500h14z m-230 0l-105-106 58-59 165 165h14v-500h-291l0 500h159z m108 226c32-33 32-86 0-118-33-33-85-33-118 0-32 32-32 85 0 118 33 32 85 32 118 0z m250 0c32-33 32-86 0-118-33-33-85-33-118 0-32 32-32 85 0 118 33 32 85 32 118 0z" horiz-adv-x="1000" />

<glyph glyph-name="gift-outline" unicode="&#xe86f;" d="M485 752c-61 61-159 61-220 0-56-56-61-143-15-204l-83 0c-41 0-73-33-73-73l0-500c0-40 32-73 73-73h666c41 0 73 33 73 73v500c0 40-32 73-73 73l-83 0c46 61 41 148-15 204-61 61-159 61-220 0-6-5-11-11-15-17-4 6-9 12-15 17z m75-267l168-167 44 44-123 123 184 0c6 0 11-4 11-10v-500c0-6-5-10-11-10h-302l0 520 29 0z m-209 0l-123-123 44-44 168 167 29 0 0-520h-302c-6 0-11 4-11 10l0 500c0 6 5 10 11 10l184 0z m90 223c37-37 37-96 0-133-36-36-96-36-132 0-37 37-37 96 0 133 36 37 96 37 132 0z m250 0c37-37 37-96 0-133-36-36-96-36-132 0-37 37-37 96 0 133 36 37 96 37 132 0z" horiz-adv-x="1000" />

<glyph glyph-name="grid-sharp-outline" unicode="&#xe870;" d="M396 662v-208h-208v208h208z m0-416v-209h-208v209h208z m417 416v-208h-209v208h209z m0-416v-209h-209v209h209z m-688 479v-333h333v333h-333z m0-417v-333h333v333h-333z m750 417h-333v-333h333v333z m-333-417v-333h333v333h-333z" horiz-adv-x="1000" />

<glyph glyph-name="grid-sharp" unicode="&#xe871;" d="M125 392v333h333v-333h-333z m0-417v333h333v-333h-333z m750 417h-333v333h333v-333z m-333-417v333h333v-333h-333z" horiz-adv-x="1000" />

<glyph glyph-name="hashtag" unicode="&#xe872;" d="M344 725v-219h-219v-62h219v-188h-219v-62h219v-219h62v219h188v-219h62v219h219v62h-219v188h219v62h-219v219h-62v-219h-188v219h-62z m250-281v-188h-188v188h188z" horiz-adv-x="1000" />

<glyph glyph-name="headset" unicode="&#xe873;" d="M198 433c0 167 135 302 302 302 167 0 302-135 302-302h-10v-250h10v-11c0-14-5-27-15-37l-151-155c-10-10-24-15-38-15h-15c-3 19-21 35-41 35h-84c-23 0-41-19-41-42v-42c0-23 18-41 41-41h84c18 0 33 11 39 27h17c31 0 61 13 82 35l152 155c21 21 33 50 33 80v11h52c23 0 41 19 41 42v167c0 23-18 41-41 41h-52c0 202-164 365-365 365-201 0-365-163-365-365h-52c-23 0-41-18-41-41v-167c0-23 18-42 41-42h125v250h-10z m-94-187v125h42v-125h-42z m750 125h42v-125h-42v125z" horiz-adv-x="1000" />

<glyph glyph-name="heart-outline.ii-weight-600" unicode="&#xe874;" d="M292 642c-92 0-167-75-167-167 0-43 3-88 46-139 25-29 112-110 197-187 42-37 81-73 111-100 8-6 15-13 21-18 6 5 13 12 21 18 30 27 69 63 111 100 85 77 172 158 197 187 43 51 46 96 46 139 0 92-75 167-167 167-92 0-166-75-166-167 0-23-19-42-42-42-23 0-42 19-42 42 0 92-74 167-166 167z m208-29c45 68 121 112 208 112 138 0 250-112 250-250 0-51-3-120-66-193-29-34-122-120-204-194-42-38-82-74-111-101-15-13-28-24-36-31l-13-12c0 0 0 0-28 31l28-31-28-25-28 25 28 31c-28-31-28-31-28-31l-13 12c-8 7-21 18-36 31-29 27-69 63-111 101-82 74-175 160-204 194-63 73-66 142-66 193 0 138 112 250 250 250 87 0 163-44 208-112z" horiz-adv-x="1000" />

<glyph glyph-name="heart-outline" unicode="&#xe875;" d="M292 652c97 0 177-79 177-177 0-17 14-31 31-31 17 0 31 14 31 31 0 98 80 177 177 177 98 0 177-79 177-177 0-44-2-92-49-146-25-29-113-111-197-187-42-38-81-74-111-100-11-10-20-18-28-25-8 7-17 15-28 25-30 26-69 62-111 100-84 76-172 158-197 187-47 54-49 102-49 146 0 98 79 177 177 177z m208-59c-41 73-119 122-208 122-133 0-240-108-240-240 0-50 4-116 64-186 28-34 120-119 203-194 42-37 82-73 111-100 15-13 27-24 36-32l13-11c0 0 0 0 21 23l-21-23 21-19 21 19-21 23c21-23 21-23 21-23l13 11c9 8 21 19 36 32 29 27 69 63 111 100 83 75 175 160 203 194 60 70 64 136 64 186 0 132-107 240-240 240-89 0-167-49-208-122z" horiz-adv-x="1000" />

<glyph glyph-name="heart" unicode="&#xe876;" d="M292 715c89 0 167-49 208-122 41 73 119 122 208 122 133 0 240-108 240-240 0-50-4-116-64-186-28-34-120-119-203-194-42-37-82-73-111-100-15-13-27-24-36-32l-13-11-21-19-21 19c0 0 0 0 21 23l-21-23-13 11c-9 8-21 19-36 32-29 27-69 63-111 100-83 75-175 160-203 194-60 70-64 136-64 186 0 132 107 240 240 240z" horiz-adv-x="1000" />

<glyph glyph-name="home-outline" unicode="&#xe877;" d="M514 792c-9 5-19 5-28 0l-375-208c-9-5-15-15-15-26v-625c0-16 13-29 29-29h750c16 0 29 13 29 29v625c0 11-6 21-15 26l-375 208z m140-830v221c0 16-13 29-29 29h-250c-16 0-29-13-29-29v-221h-192v579l346 192 346-192v-579h-192z m-250 0v192h192v-192h-192z" horiz-adv-x="1000" />

<glyph glyph-name="home" unicode="&#xe878;" d="M490 785c6 3 14 3 20 0l375-208c7-4 11-11 11-19v-625c0-11-9-21-21-21h-250v271h-250v-271h-250c-12 0-21 10-21 21v625c0 8 4 15 11 19l375 208z" horiz-adv-x="1000" />

<glyph glyph-name="import" unicode="&#xe879;" d="M469 240l0 508h62l0-508 155 155 44-44-230-230-230 230 44 44 155-155z m-334-36h63v-177h604v177h63v-239h-730v239z" horiz-adv-x="1000" />

<glyph glyph-name="info-circle-outline.ii-weight-600" unicode="&#xe87a;" d="M833 350c0 184-149 333-333 333-184 0-333-149-333-333 0-184 149-333 333-333 184 0 333 149 333 333z m84 0c0-230-187-417-417-417-230 0-417 187-417 417 0 230 187 417 417 417 230 0 417-187 417-417z m-375-208h-84v285h84v-285z m0 340h-84v76h84v-76z" horiz-adv-x="1000" />

<glyph glyph-name="info-circle-outline" unicode="&#xe87b;" d="M854 350c0-196-158-354-354-354-196 0-354 158-354 354 0 196 158 354 354 354 196 0 354-158 354-354z m63 0c0 230-187 417-417 417-230 0-417-187-417-417 0-230 187-417 417-417 230 0 417 187 417 417z m-386-208v285h-62v-285h62z m0 340v76h-62v-76h62z" horiz-adv-x="1000" />

<glyph glyph-name="info-circle" unicode="&#xe87c;" d="M917 350c0-230-187-417-417-417-230 0-417 187-417 417 0 230 187 417 417 417 230 0 417-187 417-417z m-386-208v285h-62v-285h62z m0 340v76h-62v-76h62z" horiz-adv-x="1000" />

<glyph glyph-name="korea" unicode="&#xe87d;" d="M20 209c-13 45-20 92-20 141 0 276 224 500 500 500 276 0 500-224 500-500 0-276-224-500-500-500-224 0-414 148-477 351-2 3-2 6-3 8z m905 141c0 23-2 46-5 68-4 3-6 6-9 9-26 39-83 88-180 88-57 0-100-27-135-68-34-41-57-93-70-134-10-35-29-87-70-131-43-45-107-78-200-78-43 0-80 6-113 16 76-118 207-195 357-195 235 0 425 190 425 425z m-60 218c-75 124-210 207-365 207-235 0-425-190-425-425 0-36 4-70 13-103 1-1 2-3 4-4 21-26 73-58 164-58 71 0 113 25 140 53 29 30 43 68 52 98 15 48 42 112 86 164 45 53 110 96 197 96 53 0 97-11 134-28z" horiz-adv-x="1000" />

<glyph glyph-name="law" unicode="&#xe87e;" d="M859 760l104-181c28-49 11-113-38-142-30-17-64-18-93-6l-91-52 167-288c29-50 12-114-38-143-50-28-114-11-142 39l-167 288-90-52c-4-31-22-61-52-78-49-28-113-11-142 39l-104 180c-29 50-12 113 38 142 30 17 64 18 93 6l361 208c4 32 22 61 51 78 50 29 114 12 143-38z m-172-412l-72-42 31-54 72 42-31 54z m95 127l-104 181-325-188 105-180 324 187z m111 16c20 12 27 37 16 57l-105 181c-11 19-37 26-57 15-19-12-26-37-15-57l104-181c12-19 37-26 57-15z m-562-276c12-20 37-27 57-15 20 11 27 37 15 56l-104 181c-11 20-37 27-57 15-20-11-26-37-15-57l104-180z m419 25l-72-42 104-180c11-20 37-27 57-15 20 11 26 37 15 56l-104 181z m-525-140c-58 0-104-47-104-104 0-58 46-104 104-104h292c57 0 104 46 104 104 0 57-47 104-104 104h-292z m0-146c-23 0-42 19-42 42 0 23 19 41 42 41h292c23 0 41-18 41-41 0-23-18-42-41-42h-292z" horiz-adv-x="1000" />

<glyph glyph-name="like-outline.ii-weight-600" unicode="&#xe87f;" d="M492 644l-138-278-67 45 130 269 75-36z m7 7c-3-1-6-4-7-7l-75 36c10 21 27 38 48 47l34-76z m14-1c-4 1-11 2-14 1l-34 76c22 10 46 11 68 4l-20-81z m18-11c-5 6-11 10-18 11l16 82c26-5 50-19 66-40l-64-53z m7-20c0 8-3 15-7 20l64 53c17-21 26-46 26-73l-83 0z m0-159v159h83v-159h-83z m212-42h-212v84h212v-84z m25-5c-8 3-16 5-25 5l0 84c21 0 42-5 61-14l-36-75z m19-16c-5 7-12 12-19 16l36 75c18-9 35-22 48-39l-65-52z m11-22c-2 8-5 16-11 22l65 52c13-16 23-35 28-55l-82-19z m1-26c1 9 1 17-1 26l82 19c4-21 4-42 0-63l-81 18z m-60-267l60 267 81-18-60-268-81 19z m-10-17c5 4 9 10 10 16l81-17c-5-25-19-48-39-64l-52 65z m-18-6c6 0 13 2 18 6l52-65c-20-16-45-25-71-25l1 84z m-491 0h490v-84h-490v84z m-20 8c5-5 13-8 20-8v-84c-29 0-58 12-79 33l59 59z m-9 21c0-8 3-15 9-21l-59-59c-22 22-33 50-33 80h83z m0 233v-233h-83v233h83z m9 21c-6-5-9-13-9-21h-83c0 30 11 59 33 80l59-59z m21 9c-8 0-16-3-21-9l-59 59c21 21 50 33 80 33v-83z m97 0h-97v83h97v-83z m-53-324v365h83v-365h-83z" horiz-adv-x="1000" />

<glyph glyph-name="like-outline" unicode="&#xe880;" d="M229-12h492c25 0 46 8 62 20 17 13 30 34 38 59l58 266c4 21 4 38 0 59-4 20-12 37-25 50-12 16-29 29-46 37-16 8-37 13-54 13h-137v129c0 25-9 46-25 66-17 17-38 34-59 38-20 4-41 4-62-4-21-9-33-25-42-42l-121-250h-79c-29 0-54-12-71-29-21-25-33-50-33-79v-234c0-24 12-54 29-70 21-21 46-29 75-29z m117 375l137 287c4 4 9 8 13 12 4 5 12 5 21 0 8 0 16-8 25-16 4-9 8-17 8-25v-192h200c8 0 21-4 29-8 8-4 17-13 25-17 4-8 13-16 13-25 4-8 4-21 0-29l-59-267c0-8-8-16-12-20-9-5-17-9-25-9h-375v309z m-158-42c0 12 4 21 12 29 8 8 17 13 29 13h54v-313h-54c-12 0-21 4-29 13-8 8-12 16-12 29v229z" horiz-adv-x="1000" />

<glyph glyph-name="like" unicode="&#xe881;" d="M136 398c-18-17-32-43-32-74v-244c0-26 14-57 32-74 22-22 50-31 77-31h50v458h-46c-31 0-59-13-81-35z m726 37c-12 17-30 30-47 38-17 9-39 13-56 13h-142v131c0 25-8 46-26 67-17 17-38 34-60 38-21 4-43 4-64-4-22-8-35-25-43-42l-91-194v-507h396c26 0 47 8 65 21 17 13 30 34 38 59l61 270c4 22 4 38 0 59-9 17-18 38-31 51z" horiz-adv-x="1000" />

<glyph glyph-name="link" unicode="&#xe882;" d="M302-67c-58 0-113 23-154 65-42 41-65 96-65 154 0 59 23 114 65 155l121 122 46-46-122-122c-29-29-45-67-45-109 0-41 16-80 45-109 28-27 67-43 109-43 42 0 81 16 109 44l122 122 46-46-122-122c-42-41-97-64-155-64v-1z m20 285l310 310 45-46-309-309-46 45z m363 99l122 122c60 60 60 158 0 218-29 29-68 45-109 45-41 0-80-16-109-45l-122-122-45 46 122 122c41 41 96 64 154 64 59 0 114-23 155-64 41-41 64-96 64-155 0-59-23-113-64-155l-122-122-46 46h0z" horiz-adv-x="1000" />

<glyph glyph-name="list-card" unicode="&#xe883;" d="M917 725h-834v-333h834v333z m0-417h-834v-333h834v333z" horiz-adv-x="1000" />

<glyph glyph-name="list-line" unicode="&#xe884;" d="M917 725h-834v-125h834v125z m0-208h-834v-125h834v125z m-834-209v-125h834v125h-834z m834-208h-834v-125h834v125z" horiz-adv-x="1000" />

<glyph glyph-name="location-crosshairs.ii-weight-600" unicode="&#xe885;" d="M458 718c-171-19-307-155-326-326h-90v-84h90c19-171 155-307 326-326v-90h84v90c171 19 307 155 326 326h90v84h-90c-19 171-155 307-326 326v90h-84v-90z m42-81c159 0 287-128 287-287 0-159-128-287-287-287-159 0-287 128-287 287 0 159 128 287 287 287z m0-370c-46 0-83 37-83 83 0 46 37 83 83 83 46 0 83-37 83-83 0-46-37-83-83-83z m0-84c92 0 167 75 167 167 0 92-75 167-167 167-92 0-167-75-167-167 0-92 75-167 167-167z" horiz-adv-x="1000" />

<glyph glyph-name="location-crosshairs" unicode="&#xe886;" d="M469 724c-182-15-328-161-343-343h-84v-62h84c15-182 161-328 343-343v-84h62v84c182 15 328 161 343 343h84v62h-84c-15 182-161 328-343 343v84h-62v-84z m31-62c173 0 313-139 313-312 0-173-140-313-313-313-173 0-312 140-312 313 0 173 139 312 312 312z m0-416c-58 0-104 46-104 104 0 58 46 104 104 104 58 0 104-46 104-104 0-58-46-104-104-104z m0-63c92 0 167 75 167 167 0 92-75 167-167 167-92 0-167-75-167-167 0-92 75-167 167-167z" horiz-adv-x="1000" />

<glyph glyph-name="location-outline.ii-weight-600" unicode="&#xe887;" d="M500 725c-161 0-292-131-292-292 0-79 36-153 96-231 50-66 115-130 185-199 4-3 7-7 11-11 4 4 7 8 11 11 70 69 135 133 185 199 60 78 96 152 96 231 0 161-131 292-292 292z m-375-292c0 207 168 375 375 375 207 0 375-168 375-375 0-105-48-197-113-282-54-70-124-139-193-208-13-13-26-26-40-39-16-16-42-16-58 0-13 13-27 26-40 39-69 69-139 138-193 208-65 85-113 177-113 282z m375 84c-46 0-83-38-83-84 0-46 37-83 83-83 46 0 83 37 83 83 0 46-37 84-83 84z m-167-84c0 92 75 167 167 167 92 0 167-75 167-167 0-92-75-166-167-166-92 0-167 74-167 166z" horiz-adv-x="1000" />

<glyph glyph-name="location-outline" unicode="&#xe888;" d="M500 735c-167 0-302-135-302-302 0-82 37-158 98-237 51-66 116-131 186-200 6-6 12-12 18-19 6 7 12 13 18 19 70 69 135 134 186 200 61 79 98 155 98 237 0 167-135 302-302 302z m-365-302c0 202 164 365 365 365 201 0 365-163 365-365 0-102-47-192-111-275-54-70-123-139-192-208-14-13-27-26-40-39-12-12-32-12-44 0-13 13-26 26-40 39-69 69-138 138-192 208-64 83-111 173-111 275z m365 94c-52 0-94-42-94-94 0-51 42-93 94-93 52 0 94 42 94 93 0 52-42 94-94 94z m-156-94c0 87 70 157 156 157 86 0 156-70 156-157 0-86-70-156-156-156-86 0-156 70-156 156z" horiz-adv-x="1000" />

<glyph glyph-name="lock-outline" unicode="&#xe889;" d="M302 475c0 109 89 198 198 198 109 0 198-89 198-198v-94h6c20 0 36-16 36-35v-246c0-40-33-73-73-73h-334c-40 0-73 33-73 73v246c0 19 16 35 36 35h6v94z m63-94h270v94c0 75-60 135-135 135-75 0-135-60-135-135v-94z m-42-62v-219c0-6 5-10 10-10h334c5 0 10 4 10 10v219h-354z" horiz-adv-x="1000" />

<glyph glyph-name="lock" unicode="&#xe88a;" d="M302 475c0 109 89 198 198 198 109 0 198-89 198-198v-94h6c20 0 36-16 36-35v-246c0-40-33-73-73-73h-334c-40 0-73 33-73 73v246c0 19 16 35 36 35h6v94z m63-94h270v94c0 75-60 135-135 135-75 0-135-60-135-135v-94z" horiz-adv-x="1000" />

<glyph glyph-name="magic-wand-outline" unicode="&#xe88b;" d="M292 752c11 6 25 6 35-2l99-74 112 52c12 5 25 3 34-5 10-9 13-22 9-34l-40-117 84-91c9-9 11-22 6-34-5-11-16-19-29-18l-87 1 258-447-55-31-258 446-42-76c-7-11-19-17-31-16-12 2-23 10-26 22l-37 118-122 25c-12 2-22 12-24 24-3 12 2 25 12 32l101 71-14 123c-2 13 5 25 15 31z m55-95l9-70c1-11-4-22-13-29l-57-40 68-14c11-2 20-10 24-21l21-67 34 61c5 10 16 16 27 16l70-1-47 51c-8 9-10 21-7 32l23 66-64-30c-10-4-22-3-32 4l-56 42z" horiz-adv-x="1000" />

<glyph glyph-name="mail" unicode="&#xe88c;" d="M83 600c0 40 33 73 73 73h750c41 0 73-33 73-73v-500c0-40-32-73-73-73h-750c-40 0-73 33-73 73v500z m73 10c-5 0-10-4-10-10v-500c0-6 5-10 10-10h750c6 0 11 4 11 10v500c0 6-5 10-11 10h-750z m-57-120l32 53 400-240 401 240 32-53-433-260-432 260z" horiz-adv-x="1000" />

<glyph glyph-name="map-search-outline" unicode="&#xe88d;" d="M625 640l-250 83-259-86c-17-6-29-22-29-40v-616c0-29 28-49 55-40l270 90v600l175-58v-98h75v98l175 58v-239h75v286c0 28-27 48-54 39l-233-77z m-288-555l-175-58v546l175 58v-546z m331 303c-113 0-206-93-206-206 0-114 93-206 206-206 43 0 83 14 116 37l148-148 53 53-148 148c23 33 37 73 37 116 0 113-92 206-206 206z m-131-206c0 72 59 130 131 130 72 0 131-58 131-130 0-72-59-131-131-131-72 0-131 59-131 131z" horiz-adv-x="1000" />

<glyph glyph-name="medal-outline" unicode="&#xe88e;" d="M351 756h-281l222-377v-110l-86-86 86-86v-122h122l86-86 86 86h122v122l86 86-86 86v111l222 376h-281l-149-260-149 260z m291-365h-56l-47 48 146 255h135l-178-303z m-181 48l-47-48h-56l-178 303h135l146-255z m-21-110l60 60 60-60h86v-85l60-61-60-60v-85h-86l-60-60-60 60h-86v85l-60 60 60 61v85h86z" horiz-adv-x="1000" />

<glyph glyph-name="medical-outline.ii-weight-600" unicode="&#xe88f;" d="M379 767h242l67-66v-101h145c46 0 84-37 84-83v-500c0-46-38-84-84-84h-666c-46 0-84 38-84 84v500c0 46 38 83 84 83h146v101l66 66z m17-167h208v66l-17 17h-174l-17-17v-66z m-229-83v-500h666v500h-666z m291-209v84h84v-84h83v-83h-83v-83h-84v83h-83v83h83z" horiz-adv-x="1000" />

<glyph glyph-name="medical-outline" unicode="&#xe890;" d="M383 756h234l60-60v-106h156c41 0 73-33 73-73v-500c0-41-32-73-73-73h-666c-41 0-73 32-73 73v500c0 40 32 73 73 73h156v106l60 60z m2-166h230v80l-24 24h-182l-24-24v-80z m-218-63c-6 0-11-5-11-10v-500c0-6 5-11 11-11h666c6 0 11 5 11 11v500c0 5-5 10-11 10h-666z m302-229v94h62v-94h94v-63h-94v-93h-62v93h-94v63h94z" horiz-adv-x="1000" />

<glyph glyph-name="medicash" unicode="&#xe891;" d="M500-67c230 0 417 187 417 417 0 230-187 417-417 417-230 0-417-187-417-417 0-230 187-417 417-417z m117 484c-2 12-5 23-11 33-5 10-13 18-22 25-9 7-19 13-32 16-12 4-26 6-40 6-27 0-50-6-69-17-19-12-33-29-44-51-10-21-15-48-15-79 0-32 5-59 16-81 10-22 25-38 44-49 18-11 41-17 67-17 14 0 28 2 39 5 12 3 23 8 32 15 9 6 17 14 23 23 6 9 10 20 12 32l133-1c-2-22-9-43-21-64-12-21-27-40-48-57-20-17-44-31-73-41-29-10-62-15-100-15-49 0-93 10-132 29-39 19-70 48-92 85-23 37-34 83-34 136 0 54 11 99 34 136 23 37 54 66 93 85 39 19 83 29 131 29 33 0 64-4 92-12 28-8 52-20 73-36 22-16 39-35 52-57 14-23 22-49 25-78h-133z" horiz-adv-x="1000" />

<glyph glyph-name="medistream" unicode="&#xe892;" d="M645 414v155c0 39-44 62-77 41l-171-114v155c0 39-44 62-77 41l-148-99c-14-9-22-24-22-41v-292c0-39 44-63 77-41l170 113v-154c0-40 44-63 77-41l171 113v-154c0-40 44-63 76-41l149 98c14 9 22 25 22 41v292c0 40-44 63-77 41l-170-113z" horiz-adv-x="1000" />

<glyph glyph-name="megaphone-outline" unicode="&#xe893;" d="M363 265l-2-31 0 0 2 31z m-261-193l29-10 0 0-29 10z m63 195l30-10c5 16-3 33-18 39l-12-29z m168 291l1 32 0 0-1 0 0-32z m245-326l8 30-8-30z m0 360l9-29-9 29z m-26-4v-352h63v352h-63z m34-326c-97 27-181 32-221 34l-4-62c40-3 118-7 209-32l16 60z m-292-14l-64-193 59-20 64 193-59 20z m-74-200h-79v-63h79v63z m-89 14l64 195-59 20-64-196 59-19z m118 465l84 0 0 63-84 0 0-63z m84 31c-1-31-1-31-1-31 0 0 0 0 0 0 0 0 0 0 0 0 0 0 0 0 1 0 0 0 0 0 0 0 0 0 1 0 1 0 1 0 3 0 5 0 3 0 9 0 16 0 14 0 34 1 58 3 47 4 111 13 174 33l-18 59c-58-18-117-26-161-30-23-2-41-2-54-2-7-1-12-1-15-1-2 1-3 1-4 1 0 0 0 0-1 0 0 0 0 0 0 0 0 0 0 0 0 0 0 0 0 0 0 0 0 0 0 0 0 0 0 0 0 0-1-32z m-156-262c-81 34-99 132-51 194l-49 38c-71-91-47-239 77-290l23 58z m-36-248c-7 0-12 7-10 14l-59 19c-16-47 19-96 69-96v63z m89 7c-2-4-6-7-10-7v-63c31 0 59 20 69 50l-59 20z m135 241c-33 3-61-18-71-48l59-20c2 5 5 6 8 6l4 62z m-116 294c-28 0-60-2-90-10-30-8-60-23-82-52l49-38c11 15 28 24 49 30 22 5 47 7 74 7l0 63z m303-354c0 18 17 31 34 26l-16-60c22-6 45 10 45 34h-63z m63 352c0 25-24 41-46 34l18-59c-17-6-35 7-35 25h63z m93 28v62c159 0 287-128 287-286 0-159-128-287-287-287v63c124 0 224 100 224 224 0 123-100 224-224 224z m0-146c10 0 18-2 26-5 31-10 52-39 52-73 0-34-21-63-52-74-8-3-16-4-26-4v-63c17 0 33 3 47 8 55 19 94 71 94 133 0 61-39 113-94 132-14 5-30 8-47 8v-62z" horiz-adv-x="1000" />

<glyph glyph-name="menu.ii-weight-600" unicode="&#xe894;" d="M833 517h-666v83h666v-83z m0-209h-666v84h666v-84z m0-208h-666v83h666v-83z" horiz-adv-x="1000" />

<glyph glyph-name="menu" unicode="&#xe895;" d="M833 527h-666v63h666v-63z m0-208h-666v62h666v-62z m0-209h-666v63h666v-63z" horiz-adv-x="1000" />

<glyph glyph-name="message-dots-outline.ii-weight-600" unicode="&#xe896;" d="M792 725c69 0 125-56 125-125v-375c0-69-56-125-125-125h-496l-138-110c-30-24-75-3-75 35v575c0 69 56 125 125 125h584z m41-125c0 23-18 42-41 42h-584c-23 0-41-19-41-42v-497l100 80h525c23 0 41 19 41 42v375z m-500-229c-23 0-41 18-41 42 0 23 18 41 41 41 23 0 42-18 42-41 0-24-19-42-42-42z m167 0c-23 0-42 18-42 42 0 23 19 41 42 41 23 0 42-18 42-41 0-24-19-42-42-42z m208 42c0-24-18-42-41-42-23 0-42 18-42 42 0 23 19 41 42 41 23 0 41-18 41-41z" horiz-adv-x="1000" />

<glyph glyph-name="message-dots-outline" unicode="&#xe897;" d="M333 371c-23 0-41 19-41 42 0 23 18 41 41 41 23 0 42-18 42-41 0-23-19-42-42-42z m167 0c-23 0-42 19-42 42 0 23 19 41 42 41 23 0 42-18 42-41 0-23-19-42-42-42z m208 42c0-23-18-42-41-42-23 0-42 19-42 42 0 23 19 41 42 41 23 0 41-18 41-41z m84 302c63 0 114-52 114-115v-375c0-63-51-115-114-115h-500l-141-112c-23-19-57-2-57 27v575c0 63 51 115 114 115h584z m52-115c0 29-24 52-52 52h-584c-28 0-52-23-52-52v-518l114 91h522c28 0 52 23 52 52v375z" horiz-adv-x="1000" />

<glyph glyph-name="message-dots" unicode="&#xe898;" d="M792 683h-584c-46 0-83-37-83-83v-575c0-3 4-5 7-3l149 120h511c46 0 83 37 83 83v375c0 46-37 83-83 83z m114-83c0 63-51 115-114 115h-584c-63 0-114-52-114-115v-575c0-29 34-46 57-27l141 112h500c63 0 114 52 114 115v375z m-114 52c28 0 52-23 52-52v-375c0-29-24-52-52-52h-522l-114-91v518c0 29 24 52 52 52h584z m-417-239c0-24-19-42-42-42-23 0-41 18-41 42 0 23 18 41 41 41 23 0 42-18 42-41z m167 0c0-24-19-42-42-42-23 0-42 18-42 42 0 23 19 41 42 41 23 0 42-18 42-41z m125-42c23 0 41 18 41 42 0 23-18 41-41 41-23 0-42-18-42-41 0-24 19-42 42-42z" horiz-adv-x="1000" />

<glyph glyph-name="message-line-outline" unicode="&#xe899;" d="M292 517h437v-55h-437v55z m364-201h-364v55h364v-55z m125 409c64 0 115-51 115-115v-375c0-63-51-114-115-114h-499l-141-113c-23-18-58-2-58 28v574c0 64 52 115 115 115h583z m52-115c0 29-23 52-52 52h-583c-29 0-52-23-52-52v-518l114 91h521c29 0 52 24 52 52v375z" horiz-adv-x="1000" />

<glyph glyph-name="message-outline.ii-weight-600" unicode="&#xe89a;" d="M917 642v-459c0-46-38-83-84-83h-537l-138-110c-30-24-75-3-75 35v617c0 46 38 83 84 83h666c46 0 84-37 84-83z m-750 0v-539l100 80h566v459h-666z" horiz-adv-x="1000" />

<glyph glyph-name="message-outline" unicode="&#xe89b;" d="M906 642c0 40-32 73-73 73h-666c-41 0-73-33-73-73v-617c0-29 34-46 57-27l141 112h541c41 0 73 33 73 73v459z m-73 10c6 0 11-5 11-10v-459c0-5-5-10-11-10h-563l-114-91v560c0 5 5 10 11 10h666z" horiz-adv-x="1000" />

<glyph glyph-name="message-question-outline" unicode="&#xe89c;" d="M469 475h-63c0 60 52 100 105 100 54 0 104-41 104-100 0-27-13-45-26-57-5-5-11-10-16-14l-3-2c-5-5-11-10-16-15-4-5-7-9-8-13-2-5-4-12-4-24h-62c0 16 2 31 7 45 5 14 13 25 22 35 8 8 15 14 21 20l3 2c5 4 9 7 12 10 6 7 7 9 7 13 0 20-17 38-41 38-25 0-42-18-42-38z m11-167h62v-41h-62v41z m353 407c41 0 73-33 73-73v-459c0-40-32-73-73-73h-541l-141-112c-23-19-57-2-57 27v617c0 40 32 73 73 73h666z m11-73c0 5-5 10-11 10h-666c-6 0-11-5-11-10v-560l114 91h563c6 0 11 5 11 10v459z" horiz-adv-x="1000" />

<glyph glyph-name="minus.ii-weight-600" unicode="&#xe89d;" d="M167 392h666v-84h-666v84z" horiz-adv-x="1000" />

<glyph glyph-name="minus-circle-outline.ii-weight-600" unicode="&#xe89e;" d="M500 17c184 0 333 149 333 333 0 184-149 333-333 333-184 0-333-149-333-333 0-184 149-333 333-333z m208 291h-416v84h416v-84z m-208-375c-230 0-417 187-417 417 0 230 187 417 417 417 230 0 417-187 417-417 0-230-187-417-417-417z" horiz-adv-x="1000" />

<glyph glyph-name="minus-circle-outline" unicode="&#xe89f;" d="M500-4c-196 0-354 158-354 354 0 196 158 354 354 354 196 0 354-158 354-354 0-196-158-354-354-354z m208 323v62h-416v-62h416z m-208-386c230 0 417 187 417 417 0 230-187 417-417 417-230 0-417-187-417-417 0-230 187-417 417-417z" horiz-adv-x="1000" />

<glyph glyph-name="minus-circle" unicode="&#xe8a0;" d="M500-67c230 0 417 187 417 417 0 230-187 417-417 417-230 0-417-187-417-417 0-230 187-417 417-417z m-208 386v62h416v-62h-416z" horiz-adv-x="1000" />

<glyph glyph-name="minus" unicode="&#xe8a1;" d="M167 381h666v-62h-666v62z" horiz-adv-x="1000" />

<glyph glyph-name="moon-over-sun" unicode="&#xe8a2;" d="M469 600v167h62v-167h-62z m0-667v167h62v-167h-62z m239 417c0-115-93-208-208-208-115 0-208 93-208 208 0 115 93 208 208 208 115 0 208-93 208-208z m-208 146c-81 0-146-65-146-146 0-81 65-146 146-146v292z m-250-115v-62h-167v62h167z m-23 286l118-118-44-44-118 118 44 44z m0-634l-44 44 118 118 44-44-118-118z" horiz-adv-x="1000" />

<glyph glyph-name="moon" unicode="&#xe8a3;" d="M167 359c0-189 153-342 342-342 151 0 279 98 324 234-33-11-69-17-107-17-189 0-342 153-342 342 0 38 6 74 17 107-136-45-234-173-234-324z" horiz-adv-x="1000" />

<glyph glyph-name="navigate-outline.ii-weight-600" unicode="&#xe8a4;" d="M485 335l37-147 147 331-331-147 147-37z m-68-68l-275 68c-19 5-21 32-3 40l595 264c35 16 71-20 55-55l-264-595c-8-18-35-16-40 3l-68 275z" horiz-adv-x="1000" />

<glyph glyph-name="navigate-outline" unicode="&#xe8a5;" d="M468 318l49-193 193 435-435-193 193-49z m-326 17c-19 5-21 32-3 40l595 264c35 16 71-20 55-55l-264-595c-8-18-35-16-40 3l-68 275-275 68z" horiz-adv-x="1000" />

<glyph glyph-name="palette-outline" unicode="&#xe8a6;" d="M643-32c-20 0-40 2-59 7-34 10-65 28-91 52-1 1-1 1-2 2-2 2-4 4-6 6-5 5-10 10-15 14-7 7-14 15-21 21-8 9-17 17-25 25-8 8-17 16-25 25-8 7-16 15-23 22-6 6-12 12-18 18-2 1-4 3-5 5-1 1-8 9-10 5 0 0 0-1 0-1 2-4 6-7 9-11 2-4 5-8 7-13 4-8 8-16 10-25 1-8 2-15 2-22 0-26-10-51-28-69-19-18-43-28-69-28-26 0-51 11-69 28-39 38-69 83-90 133-21 50-32 103-32 158 0 54 11 107 32 157 21 50 51 95 90 133 79 78 184 120 295 120 112 0 216-42 295-120 39-39 69-84 90-133 21-50 32-103 32-157 0-54-11-107-32-157-21-50-51-95-90-133-27-27-61-46-97-55-18-5-37-7-55-7z m-289 262c5 0 10-2 15-4 8-2 16-8 22-13l143-141c29-29 68-44 109-44 41 0 80 15 109 44 33 32 59 70 77 113 18 43 27 88 27 134 0 47-9 92-27 134-18 43-44 81-77 113-67 67-157 103-252 103-95 0-184-36-252-102-33-32-59-70-77-113-18-42-27-87-27-134 0-47 9-91 27-134 18-43 44-81 77-113 7-7 16-11 26-11 10 0 20 4 27 11 6 7 10 16 10 25 0 10-3 19-10 26-7 6-12 13-15 21-3 7-4 16-4 24 0 8 1 16 4 24 4 7 8 14 15 20 8 9 19 15 30 17 8 2 15 2 23 1l0-1z m381 23c-36 0-66 29-66 65 0 37 30 66 66 66 36 0 66-29 66-66 0-36-30-65-66-65z m0 79c-7 0-13-6-13-14 0-7 6-13 13-13 7 0 13 6 13 13 0 8-6 14-13 14z m-294 108c-44 0-79 35-79 78 0 44 35 79 79 79 43 0 78-35 78-79 0-43-35-78-78-78z m0 104c-15 0-26-12-26-26 0-14 11-26 26-26 14 0 25 12 25 26 0 14-11 26-25 26z m201-139c-43 0-78 35-78 78 0 43 35 79 78 79 43 0 78-36 78-79 0-43-35-78-78-78z m0 104c-14 0-26-12-26-26 0-14 12-26 26-26 14 0 26 12 26 26 0 14-12 26-26 26z m0-446c-51 0-93 41-93 93 0 51 42 93 93 93 51 0 93-42 93-93 0-52-42-93-93-93z m0 133c-22 0-40-18-40-40 0-23 18-41 40-41 22 0 40 18 40 41 0 22-18 40-40 40z" horiz-adv-x="1000" />

<glyph glyph-name="paragraph" unicode="&#xe8a7;" d="M833 527h-666v63h666v-63z m0-208h-666v62h666v-62z m-250-209h-416v63h416v-63z" horiz-adv-x="1000" />

<glyph glyph-name="pen-outline.ii-weight-600" unicode="&#xe8a8;" d="M125 131l443 443 59-59-419-418v-39h39l418 419 59-59-359-360h468v-83h-625-83v83 73z m493 493l17 18 30 29 24 25c17 16 43 16 59 0l98-98c16-16 16-42 0-59l-25-24-29-30-18-17-156 156z" horiz-adv-x="1000" />

<glyph glyph-name="pen-outline" unicode="&#xe8a9;" d="M568 574l-443-443v-156h708v62h-489l380 381-44 44-425-425h-67v68l424 425-44 44z m206-106l72 71c16 17 16 43 0 59l-98 98c-16 16-42 16-59 0l-71-72 156-156z m-72 152l17 17 68-68-17-17-68 68z" horiz-adv-x="1000" />

<glyph glyph-name="phone-call-outline" unicode="&#xe8aa;" d="M352 219l188 0c11 0 22-5 30-13l120-122c17-17 16-44 0-60l-119-113-22 8c-115 44-208 134-257 247-24 57-38 119-38 184 0 65 14 127 38 184 49 113 142 203 257 247l22 8 119-113c16-16 17-43 0-60l-120-122c-8-8-19-13-30-13l-188 0c-15-41-23-85-23-131 0-46 8-90 23-131z m36 337l138 0 87 89-59 57c-68-31-126-82-166-146z m0-412c40-64 98-115 166-146l59 57-87 89-138 0z" horiz-adv-x="1000" />

<glyph glyph-name="phone-outline.ii-weight-600" unicode="&#xe8ab;" d="M288 697c-12 6-26 6-38 0-4-2-10-7-34-31l-7-7c-23-23-30-30-35-39-5-10-10-29-10-41 0-10 1-17 8-41 34-120 98-233 193-327 94-94 207-159 327-193 24-6 30-8 41-8 12 0 31 5 41 11 9 5 16 11 39 34l7 7c24 24 29 30 31 34 6 12 6 26 0 38-2 4-7 10-31 34l-8 9c-17 16-20 19-23 21-14 9-32 9-45 0-3-2-7-5-23-21 0-1 0-1-1-1-3-4-8-9-14-13-20-15-48-19-72-12-6 2-12 4-16 6-1 1-1 1-1 1-65 31-125 73-179 127-53 53-95 113-126 178-1 0-1 1-1 1-2 4-5 10-7 17-7 23-2 51 13 71 4 6 9 11 12 15 1 0 1 0 1 0 16 17 20 20 21 23 9 14 9 32 0 45-1 3-5 7-21 23l-8 8c-24 24-30 29-34 31z m-76 75c36 18 78 18 113 0 18-9 34-25 52-43 1-2 3-3 4-4l8-8c1-1 2-2 3-3 12-12 22-22 29-33 27-42 27-95 0-137-7-11-17-21-29-33-1-1-2-2-3-2-2-3-3-4-4-5l0 0c0 0 0 0 0 0 0-1 0-1 0-2 1-1 1-2 2-3 27-56 64-109 110-156 47-46 100-83 156-110 1-1 2-1 3-2 1 0 1 0 1 0 0 0 0 0 1 0l0 0c1 1 2 2 4 4 1 1 2 2 3 3 12 12 22 22 33 30 42 26 95 26 137 0 11-8 21-18 33-30 1-1 2-2 2-3l9-8c1-1 2-2 4-4 18-18 33-33 43-51 17-36 17-78 0-113-10-18-25-34-43-52-2-1-3-3-4-4l-7-7c-1-1-2-1-3-2-19-20-34-35-54-46-23-13-56-21-82-21-23 0-40 4-62 11 0 0-1 0-2 0-133 38-259 109-363 214-105 105-176 230-214 363 0 1 0 2-1 3-6 21-11 38-11 61 0 26 9 59 22 82 11 20 26 35 45 54 1 1 2 2 3 3l7 7c1 1 2 2 4 4 18 18 33 34 51 43z" horiz-adv-x="1000" />

<glyph glyph-name="phone-outline" unicode="&#xe8ac;" d="M292 707c-14 7-32 7-47 0-6-3-13-10-37-34l-6-6c-23-23-31-31-37-42-6-12-12-32-12-46 0-12 2-20 9-44 35-121 100-236 195-331 96-96 210-161 332-196 24-6 32-8 44-8 14 0 34 5 46 12 11 5 18 13 41 36l7 7c24 23 30 30 33 37 8 14 8 32 0 47-3 6-9 13-33 37l-8 8c-16 16-20 20-24 22-17 12-40 12-57 0-4-2-8-6-24-22 0 0-1-1-1-1-4-4-8-8-13-12-18-12-42-16-63-10-6 1-10 4-15 6 0 0 0 0-1 0-63 31-123 72-175 125-53 53-94 112-125 176 0 0 0 0 0 1-3 4-5 9-7 14-6 21-1 46 11 63 4 5 8 9 12 13 0 1 0 1 1 1 15 16 20 20 22 24 11 18 11 40 0 57-2 4-7 8-22 24l-8 8c-24 24-31 31-38 34z m-75 55c33 17 71 17 104 0 16-8 31-22 49-41 1-1 3-2 4-4l8-8c1 0 1-1 2-2 12-12 22-22 29-32 24-38 24-87 0-125-7-10-17-19-29-32-1-1-1-1-2-2-3-3-4-4-5-5 0 0-1-1-1-1l0 0c-1-2-2-7-2-9 0 0 1 0 1-1 0-1 1-3 2-5 28-58 65-111 113-159 47-47 101-85 158-112 3-2 5-2 6-3 0 0 1 0 1 0 2-1 7 0 9 1l0 0c0 1 0 1 1 1 1 1 2 3 5 5 0 1 1 2 2 2 12 13 22 22 32 29 38 24 87 24 125 0 10-7 19-16 32-29 1 0 1-1 2-2l8-8c1-1 3-2 4-4 18-18 33-33 41-49 17-33 17-71 0-104-8-16-23-30-41-49-1-1-3-2-4-4l-6-6c-1-1-2-2-3-3-20-19-33-33-52-44-22-12-53-20-77-20-22 0-37 5-59 11l-2 0c-132 38-256 108-359 211-103 104-174 228-211 359 0 1 0 1 0 2-7 22-11 37-11 59 0 24 8 56 20 77 10 19 24 33 44 53 1 0 2 1 3 2l6 6c1 2 2 3 4 4 18 19 33 33 49 41z" horiz-adv-x="1000" />

<glyph glyph-name="picture-frame-outline" unicode="&#xe8ad;" d="M552 759l128-128h153c41 0 73-32 73-73v-541c0-41-32-73-73-73h-666c-41 0-73 32-73 73v541c0 41 32 73 73 73h153l128 128c29 29 75 29 104 0z m39-128l-84 84c-4 4-10 4-14 0l-84-84h182z m242-62h-666c-6 0-11-5-11-11v-431l286 357 142-185 62 79 198-252v432c0 6-5 11-11 11z m11-459h-688v-93c0-6 5-11 11-11h666c6 0 11 5 11 11v93z m-117 63l-81 104-63-80-142 186-168-210h454z" horiz-adv-x="1000" />

<glyph glyph-name="picture-square-outline.ii-weight-600" unicode="&#xe8ae;" d="M167 683l0-666h666v666l-666 0z m-84 0c0 46 38 84 84 84h666c46 0 84-38 84-84v-666c0-46-38-84-84-84h-666c-46 0-84 38-84 84v666z m341-272l184-188 83 83 216-263-64-53-159 192-77-77-181 184-270-300-62 56 330 366z m232 147c-29 0-52-23-52-52 0-29 23-52 52-52 29 0 52 23 52 52 0 29-23 52-52 52z m-135-52c0 75 60 136 135 136 75 0 136-61 136-136 0-75-61-135-136-135-75 0-135 60-135 135z" horiz-adv-x="1000" />

<glyph glyph-name="picture-square-outline" unicode="&#xe8af;" d="M667 631c63 0 114-51 114-114 0-64-51-115-114-115-64 0-115 51-115 115 0 63 51 114 115 114z m-52-114c0-29 23-52 52-52 28 0 52 23 52 52 0 28-24 52-52 52-29 0-52-24-52-52z m-521 166c0 41 32 73 73 73h666c41 0 73-32 73-73v-666c0-41-32-73-73-73h-666c-41 0-73 32-73 73v666z m73 11c-6 0-11-5-11-11v-598l286 357 142-185 62 79 198-252v599c0 6-5 11-11 11h-666z m-11-677c0-6 5-11 11-11h666c6 0 11 5 11 11v52h-688v-52z m117 114h454l-81 104-63-80-142 186-168-210z" horiz-adv-x="1000" />

<glyph glyph-name="pin-outline.ii-weight-600" unicode="&#xe8b0;" d="M292 642h-42v83h500v-83h-42v-270l95-63c19-12 30-34 30-57 0-38-30-69-68-69h-223v-250h-84v250h-223c-38 0-68 31-68 69 0 23 11 45 30 57l95 63v270z m83 0v-314l-92-61h434l-92 61v314h-250z" horiz-adv-x="1000" />

<glyph glyph-name="pin-outline" unicode="&#xe8b1;" d="M302 652h-52v63h500v-63h-52v-285l99-66c16-11 26-29 26-49 0-32-26-58-58-58h-234v-261h-62v261h-234c-32 0-58 26-58 58 0 20 10 38 26 49l99 66v285z m63 0v-319l-116-77h502l-116 77v319h-270z" horiz-adv-x="1000" />

<glyph glyph-name="play-circle" unicode="&#xe8b2;" d="M500-67c230 0 417 187 417 417 0 230-187 417-417 417-230 0-417-187-417-417 0-230 187-417 417-417z m-85 246c-12-8-29 1-29 16v310c0 15 17 24 29 16l249-155c12-7 12-25 0-32l-249-155z" horiz-adv-x="1000" />

<glyph glyph-name="play" unicode="&#xe8b3;" d="M188 9v682c0 33 35 53 63 36l547-342c26-16 26-54 0-70l-547-342c-28-17-63 3-63 36z" horiz-adv-x="1000" />

<glyph glyph-name="plus.ii-weight-600" unicode="&#xe8b4;" d="M458 392v291h84v-291h291v-84h-291v-291h-84v291h-291v84h291z" horiz-adv-x="1000" />

<glyph glyph-name="plus" unicode="&#xe8b5;" d="M469 381v302h62v-302h302v-62h-302v-302h-62v302h-302v62h302z" horiz-adv-x="1000" />

<glyph glyph-name="preintern" unicode="&#xe8b6;" d="M328 135h-245v-118h343v288h241v265h250v113h-339v-269h-250v-279z" horiz-adv-x="1000" />

<glyph glyph-name="question-circle-outline.ii-weight-600" unicode="&#xe8b7;" d="M833 350c0 184-149 333-333 333-184 0-333-149-333-333 0-184 149-333 333-333 184 0 333 149 333 333z m84 0c0-230-187-417-417-417-230 0-417 187-417 417 0 230 187 417 417 417 230 0 417-187 417-417z m-500 102h-84c0 97 81 166 168 166 89 0 166-70 166-166 0-42-19-71-40-93-9-8-18-16-26-24l-5-4c-10-9-19-17-28-27-18-19-26-40-26-67h-84c0 48 17 89 48 123 12 13 24 24 35 34l5 4c8 8 15 14 21 20 12 12 16 21 16 34 0 48-37 83-82 83-45 0-84-36-84-83z m43-269h83v-56h-83v56z" horiz-adv-x="1000" />

<glyph glyph-name="question-circle-outline" unicode="&#xe8b8;" d="M854 350c0 196-158 354-354 354-196 0-354-158-354-354 0-196 158-354 354-354 196 0 354 158 354 354z m63 0c0-230-187-417-417-417-230 0-417 187-417 417 0 230 187 417 417 417 230 0 417-187 417-417z m-511 102h-62c0 91 75 156 157 156 83 0 155-66 155-156 0-39-17-65-37-85-8-8-17-16-25-24l-5-4c-10-9-20-18-29-28-19-21-29-45-29-74h-62c0 45 15 84 45 116 11 13 23 23 34 33l5 4c8 8 15 14 21 20 14 14 20 25 20 42 0 54-43 93-93 93-50 0-95-39-95-93z m64-269h63v-56h-63v56z" horiz-adv-x="1000" />

<glyph glyph-name="question-circle" unicode="&#xe8b9;" d="M500-67c230 0 417 187 417 417 0 230-187 417-417 417-230 0-417-187-417-417 0-230 187-417 417-417z m-94 519h-63c0 91 76 157 158 157 84 0 156-66 156-157 0-39-17-64-38-85-8-8-17-16-25-24l-5-4c-10-9-20-18-29-28-19-21-29-45-29-75h-62c0 46 15 84 45 117 11 13 23 24 34 33l5 5c9 7 15 13 22 19 13 14 19 25 19 42 0 55-43 94-93 94-51 0-95-40-95-94z m64-273h63v-56h-63v56z" horiz-adv-x="1000" />

<glyph glyph-name="refresh.ii-weight-600" unicode="&#xe8ba;" d="M208 350c0 161 131 292 292 292 99 0 187-50 239-125h-156v-84h292v292h-83v-139c-69 85-174 139-292 139-207 0-375-168-375-375 0-207 168-375 375-375 207 0 375 168 375 375h-83c0-161-131-292-292-292-161 0-292 131-292 292z" horiz-adv-x="1000" />

<glyph glyph-name="refresh" unicode="&#xe8bb;" d="M759 506c-53 88-149 146-259 146-167 0-302-135-302-302 0-167 135-302 302-302 167 0 302 135 302 302h63c0-201-164-365-365-365-201 0-365 164-365 365 0 201 164 365 365 365 126 0 237-64 302-161v171h63v-281h-282v62h176z" horiz-adv-x="1000" />

<glyph glyph-name="remove.ii-weight-600" unicode="&#xe8bc;" d="M500 291l206-206 59 59-206 206 206 206-59 59-206-206-206 206-59-59 206-206-206-206 59-59 206 206z" horiz-adv-x="1000" />

<glyph glyph-name="remove-circle.ii-weight-600" unicode="&#xe8bd;" d="M500-67c-230 0-417 187-417 417 0 230 187 417 417 417 230 0 417-187 417-417 0-230-187-417-417-417z m59 417l137 137-59 59-137-137-137 137-59-59 137-137-137-137 59-59 137 137 137-137 59 59-137 137z" horiz-adv-x="1000" />

<glyph glyph-name="remove-circle-outline.ii-weight-600" unicode="&#xe8be;" d="M833 350c0 184-149 333-333 333-184 0-333-149-333-333 0-184 149-333 333-333 184 0 333 149 333 333z m84 0c0-230-187-417-417-417-230 0-417 187-417 417 0 230 187 417 417 417 230 0 417-187 417-417z m-221 137l-137-137 137-137-59-59-137 137-137-137-59 59 137 137-137 137 59 59 137-137 137 137 59-59z" horiz-adv-x="1000" />

<glyph glyph-name="remove-circle-outline" unicode="&#xe8bf;" d="M854 350c0 196-158 354-354 354-196 0-354-158-354-354 0-196 158-354 354-354 196 0 354 158 354 354z m63 0c0-230-187-417-417-417-230 0-417 187-417 417 0 230 187 417 417 417 230 0 417-187 417-417z m-228 145l-145-145 145-145-44-44-145 145-145-145-44 44 145 145-145 145 44 44 145-145 145 145 44-44z" horiz-adv-x="1000" />

<glyph glyph-name="remove-circle" unicode="&#xe8c0;" d="M500-67c230 0 417 187 417 417 0 230-187 417-417 417-230 0-417-187-417-417 0-230 187-417 417-417z m189 562l-145-145 145-145-44-44-145 145-145-145-44 44 145 145-145 145 44 44 145-145 145 145 44-44z" horiz-adv-x="1000" />

<glyph glyph-name="remove" unicode="&#xe8c1;" d="M544 350l214 214-44 44-214-214-214 214-44-44 214-214-214-214 44-44 214 214 214-214 44 44-214 214z" horiz-adv-x="1000" />

<glyph glyph-name="reply" unicode="&#xe8c2;" d="M45 850c26 0 46-20 46-45v-80c0-96 0-166 4-220 5-54 13-90 28-119 28-55 74-100 129-129 29-15 65-23 119-28 54-4 124-4 220-4h254l-207 206c-17 18-17 47 0 65 18 18 47 18 65 0l284-284c17-18 17-47 0-65l-284-284c-18-17-47-17-65 0-17 18-17 47 0 65l207 206h-256c-94 0-167 0-226 5-59 5-108 15-152 37-73 37-132 96-169 169-22 44-32 93-37 152-5 59-5 132-5 226l0 82c0 25 20 45 45 45z" horiz-adv-x="1000" />

<glyph glyph-name="search.ii-weight-600" unicode="&#xe8c3;" d="M667 433c0 138-112 250-250 250-138 0-250-112-250-250 0-138 112-250 250-250 138 0 250 112 250 250z m-46-263c-56-44-127-70-204-70-184 0-334 149-334 333 0 184 150 334 334 334 184 0 333-150 333-334 0-77-26-148-70-204l266-266-59-59-266 266z" horiz-adv-x="1000" />

<glyph glyph-name="search-chart" unicode="&#xe8c4;" d="M479-25c98 0 188 36 257 95l159-159 44 44-159 159c59 69 95 159 95 257 0 218-177 396-396 396-218 0-396-178-396-396 0-219 178-396 396-396z m0 62c-154 0-283 105-322 246l58 58 139-139 252 252v-76h52v165h-165v-52h76l-215-215-139 139-68-69c-1 8-1 17-1 25 0 184 149 333 333 333 184 0 334-149 334-333 0-184-150-334-334-334z" horiz-adv-x="1000" />

<glyph glyph-name="search" unicode="&#xe8c5;" d="M629 177c-57-48-132-77-212-77-184 0-334 149-334 333 0 184 150 334 334 334 184 0 333-150 333-334 0-80-29-155-77-212l266-266-44-44-266 266z m59 256c0 150-122 271-271 271-150 0-271-121-271-271 0-149 121-271 271-271 149 0 271 122 271 271z" horiz-adv-x="1000" />

<glyph glyph-name="send-to" unicode="&#xe8c6;" d="M167 694c-6 0-11-5-11-11v-666c0-6 5-11 11-11h666c6 0 11 5 11 11v291h62v-291c0-41-32-73-73-73h-666c-41 0-73 32-73 73v666c0 41 32 73 73 73h291v-62h-291z m633 0h-237v62h343v-344h-62v238l-322-322-44 44 322 322z" horiz-adv-x="1000" />

<glyph glyph-name="settings-outline.ii-weight-600" unicode="&#xe8c7;" d="M400 767h200l21-130c24-10 47-23 67-38l123 46 100-174-101-82c2-13 2-26 2-39 0-13 0-26-2-39l101-82-100-174-123 46c-20-15-43-28-67-38l-21-130h-200l-21 130c-24 10-47 23-67 38l-123-46-100 174 101 82c-2 13-3 26-3 39 0 13 1 26 3 39l-101 82 100 174 123-46c20 15 43 28 67 38l21 130z m71-84l-18-108-24-8c-31-10-58-26-82-47l-19-17-102 39-29-51 84-69-5-25c-3-15-5-31-5-47 0-16 2-32 5-47l5-25-84-69 29-51 103 39 18-17c24-21 51-37 82-47l24-8 18-108h58l18 108 24 8c31 10 58 26 82 47l19 17 102-39 29 51-84 69 5 25c3 15 5 31 5 47 0 16-2 32-5 47l-5 25 84 69-29 51-103-39-18 17c-24 21-51 37-82 47l-24 8-18 108h-58z m29-250c-46 0-83-37-83-83 0-46 37-83 83-83 46 0 83 37 83 83 0 46-37 83-83 83z m-167-83c0 92 75 167 167 167 92 0 167-75 167-167 0-92-75-167-167-167-92 0-167 75-167 167z" horiz-adv-x="1000" />

<glyph glyph-name="settings-outline" unicode="&#xe8c8;" d="M409 756h182l21-127c27-10 52-25 74-42l120 45 92-158-99-81c2-14 3-28 3-43 0-15-1-29-3-43l99-81-92-158-120 45c-22-17-47-32-74-42l-21-127h-182l-21 127c-27 10-52 25-74 42l-120-45-92 158 99 81c-2 14-3 28-3 43 0 15 1 29 3 43l-99 81 92 158 120-45c22 17 47 32 74 42l21 127z m53-62l-18-112-19-5c-31-11-60-28-85-49l-14-13-105 40-38-66 87-71-4-19c-4-15-6-32-6-49 0-17 2-34 6-49l4-19-87-71 38-66 105 40 15-13c24-22 53-38 84-49l19-5 18-112h76l18 112 19 5c31 11 60 28 85 49l14 13 105-40 38 66-87 71 4 19c4 15 6 32 6 49 0 17-2 34-6 49l-4 19 87 71-38 66-105-40-15 13c-24 22-53 38-84 49l-19 5-18 112h-76z m38-250c-52 0-94-42-94-94 0-52 42-94 94-94 52 0 94 42 94 94 0 52-42 94-94 94z m-156-94c0 86 70 156 156 156 86 0 156-70 156-156 0-86-70-156-156-156-86 0-156 70-156 156z" horiz-adv-x="1000" />

<glyph glyph-name="share-outline.ii-weight-600" unicode="&#xe8c9;" d="M667 600c0-29 23-52 52-52 29 0 52 23 52 52 0 29-23 52-52 52-29 0-52-23-52-52z m52 135c75 0 135-60 135-135 0-75-60-135-135-135-38 0-73 15-97 40l-250-136c2-9 3-19 3-29 0-4 0-7 0-11l247-134c24 25 59 40 97 40 75 0 135-60 135-135 0-75-60-135-135-135-75 0-136 60-136 135 0 7 1 13 2 20l-242 132c-25-29-62-48-103-48-75 0-136 61-136 136 0 74 61 135 136 135 34 0 66-13 90-34l255 139c-1 7-2 13-2 20 0 75 61 135 136 135z m-52-635c0-29 23-52 52-52 29 0 52 23 52 52 0 29-23 52-52 52-29 0-52-23-52-52z m-427 292c-29 0-52-24-52-52 0-29 23-53 52-53 28 0 52 24 52 53 0 28-24 52-52 52z" horiz-adv-x="1000" />

<glyph glyph-name="share-outline" unicode="&#xe8ca;" d="M656 600c0 35 28 62 63 62 34 0 62-27 62-62 0-35-28-63-62-63-35 0-63 28-63 63z m63 125c-69 0-125-56-125-125 0-9 1-17 2-25l-268-147c-23 23-54 37-88 37-69 0-125-56-125-125 0-69 56-125 125-125 41 0 77 20 100 50l256-140c-1-8-2-16-2-25 0-69 56-125 125-125 69 0 125 56 125 125 0 69-56 125-125 125-38 0-72-17-95-43l-260 142c0 5 1 10 1 16 0 12-2 23-5 34l264 144c23-26 57-43 95-43 69 0 125 56 125 125 0 69-56 125-125 125z m-63-625c0 35 28 62 63 62 34 0 62-27 62-62 0-35-28-63-62-63-35 0-63 28-63 63z m-416 302c34 0 62-28 62-62 0-35-28-63-62-63-35 0-63 28-63 63 0 34 28 62 63 62z" horiz-adv-x="1000" />

<glyph glyph-name="shield-check-outline.ii-weight-600" unicode="&#xe8cb;" d="M500 655c-74-58-159-100-250-122v-132c0-175 97-335 250-417 153 82 250 242 250 417v132c-91 22-176 64-250 122z m-333-89c0 20 14 37 33 41l2 0c99 20 191 65 268 131 17 15 43 15 60 0 77-66 169-111 268-131l2 0c19-4 33-21 33-41v-165c0-221-131-421-333-509-202 88-333 288-333 509v165z m290-399l-153 154 59 58 97-96 199 181 57-62-259-235z" horiz-adv-x="1000" />

<glyph glyph-name="shield-check-outline" unicode="&#xe8cc;" d="M500 682c-78-65-171-111-271-133v-148c0-187 106-357 271-440 165 83 271 253 271 440v148c-100 22-193 68-271 133z m-333-116c0 20 14 37 33 41l2 0c99 20 191 65 268 131 17 15 43 15 60 0 77-66 169-111 268-131l2 0c19-4 33-21 33-41v-165c0-221-131-421-333-509-202 88-333 288-333 509v165z m290-384l-146 146 44 44 104-104 207 188 43-46-252-228z" horiz-adv-x="1000" />

<glyph glyph-name="sliders.ii-weight-600" unicode="&#xe8cd;" d="M271 100h-104v83h104v-83z m417 208h-521v84h521v-84z m-334 209h-187v83h187v-83z m63-459h-84v167h84v-42h416v-83h-416v-42z m83 417h-83v167h83v-42h333v-83h-333v-42z m250-208v166h83v-166h-83z" horiz-adv-x="1000" />

<glyph glyph-name="sliders" unicode="&#xe8ce;" d="M257 93h-111v67h111v-67z m442 224h-553v66h553v-66z m-354 223h-199v67h199v-67z m-11-503v179h66v-56h454v-67h-454v-56h-66z m89 447v178h66v-55h365v-67h-365v-56h-66z m354-223v178h66v-178h-66z" horiz-adv-x="1000" />

<glyph glyph-name="spiral" unicode="&#xe8cf;" d="M513 767c-91-1-182-33-254-97-170-152-177-421-28-590 85-97 205-146 325-147 7 0 15 3 20 8 5 6 9 13 9 20 0 8-3 15-9 21-5 5-12 8-19 8-106 1-210 43-284 128-128 146-123 379 23 510 130 115 337 110 452-24 100-117 95-303-23-405-101-88-262-83-348 23-73 88-68 227 22 300 73 60 186 55 245-21 45-60 40-151-21-196-44-32-111-28-141 19-9 14-13 35-10 52 2 17 10 30 26 38 6 3 18 5 25 3 3-1 4-1 6-2v0c-7-2-12-6-16-11-4-6-6-13-5-19 1-7 4-13 8-18 9-9 24-15 37-12 14 3 21 11 26 18 10 14 15 26 11 46-7 28-30 47-53 53-22 6-45 3-65-7-32-17-51-48-56-80-5-32 2-65 19-92 49-77 153-84 221-34 89 65 96 193 32 276-79 103-228 110-325 31-115-94-121-269-29-381 107-130 303-137 428-29 142 123 149 345 28 485-68 80-162 121-259 125-6 1-12 1-18 1l0 0z" horiz-adv-x="1000" />

<glyph glyph-name="square-outline" unicode="&#xe8d0;" d="M829 704h-658c-14 0-25-11-25-25v-658c0-14 11-25 25-25h658c14 0 25 11 25 25v658c0 14-11 25-25 25z m-658 63h658c48 0 88-40 88-88v-658c0-48-40-88-88-88h-658c-48 0-88 40-88 88v658c0 48 40 88 88 88z" horiz-adv-x="1000" />

<glyph glyph-name="star-outline.ii-weight-600" unicode="&#xe8d1;" d="M500 767c17 0 32-10 38-26l92-212 230-22c17-1 31-12 36-28 5-16 1-33-12-44l-174-153 51-226c4-16-3-33-16-43-14-10-32-11-46-2l-199 118-199-118c-14-9-32-8-46 2-13 10-20 27-16 43l51 226-174 153c-13 11-17 28-12 44 5 16 19 27 36 28l230 22 92 212c6 16 21 26 38 26z m0-147l-63-147c-6-14-19-24-35-25l-158-15 119-105c12-10 17-26 14-40l-36-156 138 81c13 8 29 8 42 0l138-81-36 156c-3 14 2 30 14 40l119 105-158 15c-16 1-29 11-35 25l-63 147z" horiz-adv-x="1000" />

<glyph glyph-name="star-outline" unicode="&#xe8d2;" d="M500 756c12 0 24-7 29-19l94-218 237-22c12-1 23-10 26-21 4-12 1-25-9-34l-178-157 52-232c3-12-2-24-12-32-10-7-24-8-35-1l-204 121-204-121c-11-7-25-6-35 1-10 8-15 20-12 32l52 232-178 157c-10 9-13 22-9 34 3 11 14 20 26 21l237 22 94 218c5 12 17 19 29 19z m0-110l-73-169c-4-10-14-18-26-19l-183-17 139-121c8-7 12-19 9-30l-40-179 158 93c10 6 22 6 32 0l158-93-40 179c-3 11 1 23 9 30l139 121-183 17c-12 1-22 9-26 19l-73 169z" horiz-adv-x="1000" />

<glyph glyph-name="star" unicode="&#xe8d3;" d="M529 737c-5 12-17 19-29 19-12 0-24-7-29-19l-94-218-237-22c-12-1-23-10-26-21-4-12-1-25 9-34l178-157-52-232c-3-12 2-24 12-32 10-7 24-8 35-1l204 121 204-121c11-7 25-6 35 1 10 8 15 20 12 32l-52 232 178 157c10 9 13 22 9 34-3 11-14 20-26 21l-237 22-94 218z" horiz-adv-x="1000" />

<glyph glyph-name="stethoscope" unicode="&#xe8d4;" d="M235 798c17 0 31-14 31-31v-90c0-18-14-32-31-32-17 0-31 14-31 32v13h-37c-6 0-11-4-11-10v-296c0-96 76-172 167-172 91 0 167 76 167 172v296c0 6-5 10-11 10h-37v-13c0-18-14-32-31-32-17 0-31 14-31 32v90c0 17 14 31 31 31 17 0 31-14 31-31v-14h37c40 0 73-33 73-73v-296c0-117-85-215-196-232 14-106 103-187 209-187 115 0 210 96 210 216v130c-63 15-109 72-109 140 0 79 62 144 141 144 78 0 141-65 141-144 0-68-47-125-110-140v-130c0-153-122-279-273-279-142 0-258 110-272 250-113 15-199 113-199 232v296c0 40 32 73 73 73h37v14c0 17 14 31 31 31z m572-265c-43 0-79-36-79-82 0-45 36-81 79-81 42 0 78 36 78 81 0 46-36 82-78 82z" horiz-adv-x="1000" />

<glyph glyph-name="sun" unicode="&#xe8d5;" d="M469 600v167h62v-167h-62z m0-667v167h62v-167h-62z m31 209c-115 0-208 93-208 208 0 115 93 208 208 208 115 0 208-93 208-208 0-115-93-208-208-208z m417 239v-62h-167v62h167z m-667 0v-62h-167v62h167z m449-186l118-118-44-44-118 118 44 44z m-472 472l118-118-44-44-118 118 44 44z m0-634l-44 44 118 118 44-44-118-118z m472 472l-44 44 118 118 44-44-118-118z" horiz-adv-x="1000" />

<glyph glyph-name="table-chart" unicode="&#xe8d6;" d="M167 756c-41 0-73-32-73-73v-666c0-41 32-73 73-73h666c41 0 73 32 73 73v666c0 41-32 73-73 73h-666z m-11-198h188v-135h-188v135z m250 0h188v-135h-188v135z m250 0h188v-135h-188v135z m0-198h188v-145h-188v145z m0-208h188v-135c0-6-5-11-11-11h-177v146z m-62 0v-146h-188v146h188z m-250 0v-146h-177c-6 0-11 5-11 11v135h188z m0 63h-188v145h188v-145z m62 145h188v-145h-188v145z" horiz-adv-x="1000" />

<glyph glyph-name="ticket-outline" unicode="&#xe8d7;" d="M94 600c0 40 32 73 73 73h666c41 0 73-33 73-73v-198h-31c-29 0-52-23-52-52 0-29 23-52 52-52h31v-198c0-40-32-73-73-73h-666c-41 0-73 33-73 73l0 198h31c29 0 52 23 52 52 0 29-23 52-52 52h-31l0 198z m73 10c-6 0-11-4-11-10l0-140c48-13 84-58 84-110 0-52-36-97-84-110l0-140c0-6 5-10 11-10h666c6 0 11 4 11 10v140c-48 13-84 58-84 110 0 52 36 97 84 110v140c0 6-5 10-11 10h-666z m187-34v45h42v-45h-42z m0-136v91h42v-91h-42z m0-135v90h42v-90h-42z m0-136v91h42v-91h-42z m0-90v45h42v-45h-42z" horiz-adv-x="1000" />

<glyph glyph-name="trash-outline" unicode="&#xe8d8;" d="M656 798h-312v-94h-219v-62h750v62h-219v94z m-62-94h-188v31h188v-31z m-227-625h62v375h-62v-375z m208 375v-375h62v375h-62z m-367-437c0-46 38-84 84-84h416c46 0 84 38 84 84v583h-584v-583z m63 520h458v-520c0-12-9-21-21-21h-416c-12 0-21 9-21 21v520z" horiz-adv-x="1000" />

<glyph glyph-name="trophy-outline" unicode="&#xe8d9;" d="M302 610h-31c-63 0-115-51-115-114 0-63 52-115 115-115h31v229z m12-291h-43c-98 0-177 79-177 177 0 91 68 165 156 176v43h500v-43c88-11 156-85 156-176 0-98-79-177-177-177h-43c-36-60-94-95-155-104v-167h177v-63h-416v63h177v167c-61 9-119 44-155 104z m384 62h31c63 0 115 52 115 115 0 63-52 114-115 114h-31v-229z m-63 271h-270v-295c28-54 81-82 135-82 54 0 107 28 135 82v295z" horiz-adv-x="1000" />

<glyph glyph-name="truck-outline" unicode="&#xe8da;" d="M125 610c-6 0-10-4-10-10l0-385h47c21 25 52 41 88 41 36 0 67-16 88-41h297v395l-510 0z m511-458h-272c0-3 1-7 1-10 0-64-52-115-115-115-63 0-115 51-115 115 0 3 1 7 1 10h-84l0 448c0 40 33 73 73 73l573 0v-167h129l121-145v-209h-84c0-3 1-7 1-10 0-64-52-115-115-115-63 0-115 51-115 115 0 3 1 7 1 10z m202 63h47v62h-187v-33c16 8 33 12 52 12 36 0 67-16 88-41z m-140 125h187l-87 104h-100v-104z m-448-146c-19 0-36-11-45-26-5-8-7-17-7-26 0-29 23-52 52-52 29 0 52 23 52 52 0 9-2 18-7 26-9 15-26 26-45 26z m500 0c-19 0-36-11-45-26-5-8-7-17-7-26 0-29 23-52 52-52 29 0 52 23 52 52 0 9-2 18-7 26-9 15-26 26-45 26z" horiz-adv-x="1000" />

<glyph glyph-name="truck-timer-outline" unicode="&#xe8db;" d="M208 683v-125l83-83 42 43-64 65v100h-61z m224-81a188 188 0 0 1-48 69 204 204 0 0 1-74 43 214 214 0 0 1-87 10 211 211 0 0 1-83-26 197 197 0 0 1-64-57 183 183 0 0 1-32-76 178 178 0 0 1 6-82 186 186 0 0 1 42-72v-281h81a97 97 0 0 1 6-43c5-13 13-26 23-37 10-10 23-19 37-25a117 117 0 0 1 89 0c14 6 27 15 37 25 11 11 19 24 23 37 5 14 7 28 6 43h263c-2-15 0-29 5-43 5-13 13-26 23-37 11-10 23-19 37-25a117 117 0 0 1 90 0 111 111 0 0 1 37 25c10 11 18 24 23 37 5 14 7 28 5 43h81v189l-116 132h-125v151h-285z m-48-66c0-35-14-69-41-94a146 146 0 0 0-100-39 146 146 0 0 0-99 39 128 128 0 0 0-42 94c0 35 15 68 42 93a146 146 0 0 0 99 39c38 0 74-14 100-39 27-25 41-58 41-93z m61 0c0 3 0 6-1 9h212v-359h-287a110 110 0 0 1-38 28 117 117 0 0 1-95 0 110 110 0 0 1-38-28h-45v181a213 213 0 0 1 196 8 194 194 0 0 1 70 69 180 180 0 0 1 26 92z m272-293h181v-57h-46a112 112 0 0 1-63 36 117 117 0 0 1-72-9v30z m96 151l84-94h-180v94h96z m-573-250c3 5 8 10 13 14a53 53 0 0 0 37 9c7-1 13-3 19-6 5-3 10-7 14-12 4-5 7-10 9-16a44 44 0 0 0-5-36c-6-11-17-19-30-22-13-4-27-2-39 4a48 48 0 0 0-23 29c-4 12-2 25 5 36z m483 0a48 48 0 0 0 13 14c6 3 11 6 18 8a55 55 0 0 0 19 1 52 52 0 0 0 34-18c4-5 7-11 9-17a44 44 0 0 0-5-35 50 50 0 0 0-31-22 53 53 0 0 0-38 4 48 48 0 0 0-24 29c-3 12-1 25 5 36z" horiz-adv-x="1000" />

<glyph glyph-name="upload" unicode="&#xe8dc;" d="M125-25c0 23 19 42 42 42h666c23 0 42-19 42-42 0-23-19-42-42-42h-666c-23 0-42 19-42 42z m653 474c17 0 26 22 14 34l-279 278c-7 7-20 7-27 0l-279-278c-12-12-3-34 14-34h117c10 0 19-9 19-19v-352c0-11 9-20 20-20h246c11 0 19 9 19 20v352c0 10 9 19 20 19h116z" horiz-adv-x="1000" />

<glyph glyph-name="user-outline.ii-weight-600" unicode="&#xe8dd;" d="M354 546c0-81 65-146 146-146 81 0 146 65 146 146 0 80-65 146-146 146-81 0-146-66-146-146z m146 229c127 0 229-103 229-229 0-127-102-229-229-229-127 0-229 102-229 229 0 126 102 229 229 229z m0-583c-127 0-238-76-293-188h586c-55 112-166 188-293 188z m0 83c186 0 342-127 394-300 4-13 1-27-6-37-8-11-21-17-34-17h-708c-13 0-26 6-34 17-7 10-10 24-6 37 52 173 208 300 394 300z" horiz-adv-x="1000" />

<glyph glyph-name="user-outline" unicode="&#xe8de;" d="M344 546c0 86 70 156 156 156 86 0 156-70 156-156 0-86-70-156-156-156-86 0-156 70-156 156z m156 219c-121 0-219-98-219-219 0-121 98-219 219-219 121 0 219 98 219 219 0 121-98 219-219 219z m0-563c137 0 256-85 309-208h-618c53 123 172 208 309 208z m0 63c-181 0-333-124-384-293-3-10-1-20 5-28 6-8 15-13 25-13h708c10 0 19 5 25 13 6 8 8 18 5 28-51 169-203 293-384 293z" horiz-adv-x="1000" />

<glyph glyph-name="user-pass-outline" unicode="&#xe8df;" d="M500 548c-68 0-124-55-124-123 0-68 56-123 124-123 68 0 124 55 124 123 0 68-56 123-124 123z m-61-123c0 33 27 60 61 60 34 0 61-27 61-60 0-33-27-60-61-60-34 0-61 27-61 60z m-76-313c19 62 74 106 137 106 63 0 118-44 137-106l60 18c-26 86-104 150-197 150-93 0-171-64-197-150l60-18z m460 571c0 41-33 73-73 73l-219 0v94h-62v-94l-219 0c-40 0-73-32-73-73v-666c0-41 33-73 73-73h500c40 0 73 32 73 73l0 666z m-354-21c0-17 14-31 31-31 17 0 31 14 31 31v32l219 0c6 0 10-5 10-11l0-666c0-6-4-11-10-11h-500c-6 0-10 5-10 11l0 666c0 6 4 11 10 11l219 0v-32z" horiz-adv-x="1000" />

<glyph glyph-name="user-screen-outline" unicode="&#xe8e0;" d="M94 598c0 41 33 75 75 75h683c42 0 75-34 75-75v-430c0-41-33-75-75-75h-310v-64h182v-64h-427v64h181v64h-309c-42 0-75 34-75 75v430z m75 11c-6 0-11-5-11-11v-430c0-5 5-10 11-10h683c6 0 11 5 11 10v430c0 6-5 11-11 11h-683z m341-129c-35 0-62-28-62-62 0-35 27-63 62-63 35 0 63 28 63 63 0 34-28 62-63 62z m-127-62c0 70 58 126 127 126 70 0 127-56 127-126 0-71-57-127-127-127-69 0-127 56-127 127z m127-239c-53 0-99-26-124-70l-55 33c37 64 104 102 179 102 76 0 143-38 180-102l-55-33c-26 44-71 70-125 70z" horiz-adv-x="1000" />

<glyph glyph-name="user" unicode="&#xe8e1;" d="M281 546c0 121 98 219 219 219 121 0 219-98 219-219 0-121-98-219-219-219-121 0-219 98-219 219z m-165-574c51 169 203 293 384 293 181 0 333-124 384-293 3-10 1-20-5-28-6-8-15-13-25-13h-708c-10 0-19 5-25 13-6 8-8 18-5 28z" horiz-adv-x="1000" />

<glyph glyph-name="users-outline" unicode="&#xe8e2;" d="M354 652c-78 0-142-65-142-146 0-81 64-146 142-146 78 0 143 65 143 146 0 81-65 146-143 146z m-205-146c0 115 91 209 205 209 114 0 205-94 205-209 0-114-91-208-205-208-114 0-205 94-205 208z m601-62c-47 0-84-38-84-84 0-45 37-83 84-83 47 0 84 38 84 83 0 46-37 84-84 84z m-147-84c0 81 66 146 147 146 81 0 147-65 147-146 0-80-66-145-147-145-81 0-147 65-147 145z m-249-168c-131 0-244-94-282-226l-60 18c45 155 180 270 342 270 106 0 200-49 265-126 38 25 83 39 131 39 113 0 207-78 238-183l-60-18c-24 81-95 138-178 138-34 0-66-10-94-27 17-28 31-60 41-93l-60-18c-11 37-28 71-49 101-55 76-139 125-234 125z" horiz-adv-x="1000" />

<glyph glyph-name="vote-outline" unicode="&#xe8e3;" d="M599 562c12 0 21 10 21 21 0 12-9 21-21 21h-198c-12 0-21-9-21-21 0-11 9-21 21-21h198z m91-191c11-13 10-33-2-44l-223-200c-12-11-30-11-41 0l-112 100c-12 11-13 31-2 44 12 13 31 14 44 2l90-81 202 181c13 12 32 11 44-2z m-434 314c11 18 31 30 53 30h382c22 0 42-12 53-30l116-194c3-5 5-10 5-16v-428c0-34-28-62-62-62h-606c-34 0-62 28-62 62v428c0 6 2 11 5 16l116 194z m53-33l-87-146h556l-87 146h-382z m493-208h-604v-396h604v396z" horiz-adv-x="1000" />

<glyph glyph-name="wallet-outline" unicode="&#xe8e4;" d="M667 445c-53 0-95-43-95-95 0-52 42-95 95-95 52 0 95 43 95 95 0 52-43 95-95 95z m-30-95c0 17 13 30 30 30 16 0 30-13 30-30 0-17-14-30-30-30-17 0-30 13-30 30z m-429 366c-41 0-74-33-74-74v-584c0-41 33-74 74-74h584c41 0 74 33 74 74v100c25 12 42 38 42 67v250c0 29-17 55-42 67v100c0 41-33 74-74 74h-584z m334-565h259v-93c0-5-4-9-9-9h-584c-5 0-9 4-9 9v584c0 5 4 9 9 9h584c5 0 9-4 9-9v-93h-259c-41 0-75-33-75-74v-250c0-41 34-74 75-74z m-9 324c0 5 4 9 9 9h291c5 0 9-4 9-9v-250c0-5-4-9-9-9h-291c-5 0-9 4-9 9v250z" horiz-adv-x="1000" />

<glyph glyph-name="warning-circle-outline.ii-weight-600" unicode="&#xe8e5;" d="M833 350c0 184-149 333-333 333-184 0-333-149-333-333 0-184 149-333 333-333 184 0 333 149 333 333z m84 0c0-230-187-417-417-417-230 0-417 187-417 417 0 230 187 417 417 417 230 0 417-187 417-417z m-375 208v-303h-84v303h84z m0-360v-56h-84v56h84z" horiz-adv-x="1000" />

<glyph glyph-name="warning-circle-outline" unicode="&#xe8e6;" d="M854 350c0 196-158 354-354 354-196 0-354-158-354-354 0-196 158-354 354-354 196 0 354 158 354 354z m63 0c0-230-187-417-417-417-230 0-417 187-417 417 0 230 187 417 417 417 230 0 417-187 417-417z m-386 208v-303h-62v303h62z m0-360v-56h-62v56h62z" horiz-adv-x="1000" />

<glyph glyph-name="warning-circle" unicode="&#xe8e7;" d="M500-67c230 0 417 187 417 417 0 230-187 417-417 417-230 0-417-187-417-417 0-230 187-417 417-417z m-31 625h62v-303h-62v303z m0-360h62v-56h-62v56z" horiz-adv-x="1000" />

<glyph glyph-name="warning-triangle-outline" unicode="&#xe8e8;" d="M531 433l0-208h-62l0 208h62z m0-271l0-62-62 0 0 62 62 0z m-31 605l500-834-1000 0 500 834z m0-122l-390-649 780 0-390 649z" horiz-adv-x="1000" />

<glyph glyph-name="warning-triangle" unicode="&#xe8e9;" d="M1000-67l-1000 0 500 834 500-834z m-469 500h-62l0-208h62l0 208z m0-271l-62 0 0-62 62 0 0 62z" horiz-adv-x="1000" />
</font>
</defs>
</svg>
