<svg width="24" height="24" viewBox="0 0 24 24" fill="none" xmlns="http://www.w3.org/2000/svg">
<path d="M21 19.2203C21 20.2032 20.2032 21 19.2203 21L4.77966 21C3.79678 21 3 20.2032 3 19.2203L3 4.77966C3 3.79678 3.79678 3 4.77966 3L19.2203 3C20.2032 3 21 3.79678 21 4.77966L21 19.2203ZM19.2203 19.4746C19.3607 19.4746 19.4746 19.3608 19.4746 19.2203L19.4746 12.7627L11.0956 12.7627L14.3698 16.037L13.2912 17.1156L8.1756 12L13.2912 6.88441L14.3698 7.96305L11.0956 11.2373L19.4746 11.2373L19.4746 4.77966C19.4746 4.63925 19.3608 4.52542 19.2203 4.52542L4.77966 4.52542C4.63925 4.52542 4.52542 4.63925 4.52542 4.77966L4.52542 19.2203C4.52542 19.3607 4.63925 19.4746 4.77966 19.4746L19.2203 19.4746Z" fill="#666666"/>
</svg>
