<svg width="24" height="24" viewBox="0 0 24 24" fill="none" xmlns="http://www.w3.org/2000/svg">
<path d="M17.5006 8.72316H5.00056V7.27673H17.5006C20.3853 7.27673 22.7238 9.61525 22.7238 12.4999C22.7238 15.3846 20.3853 17.7232 17.5006 17.7232H5.00056C2.94428 17.7232 1.27734 16.0562 1.27734 13.9999C1.27734 11.9437 2.94428 10.2767 5.00056 10.2767H16.5006C17.7284 10.2767 18.7238 11.2721 18.7238 12.4999C18.7238 13.7278 17.7284 14.7232 16.5006 14.7232H5.00056V13.2767H16.5006C16.9296 13.2767 17.2773 12.929 17.2773 12.4999C17.2773 12.0709 16.9296 11.7232 16.5006 11.7232H5.00056C3.74312 11.7232 2.72377 12.7425 2.72377 13.9999C2.72377 15.2574 3.74312 16.2767 5.00056 16.2767H17.5006C19.5864 16.2767 21.2773 14.5858 21.2773 12.4999C21.2773 10.4141 19.5864 8.72316 17.5006 8.72316Z" fill="black"/>
</svg>
