<svg width="24" height="24" viewBox="0 0 24 24" fill="none" xmlns="http://www.w3.org/2000/svg">
<path d="M20.5877 18.4659C20.6155 18.4308 20.6404 18.393 20.6619 18.3526C20.7922 18.108 20.777 17.8115 20.6224 17.5816L18.4643 14.3713V10.0667C18.4643 6.76954 15.9623 4.06149 12.75 3.69277V1H11.25V3.69277C9.82093 3.8568 8.53242 4.48384 7.54226 5.41976L8.60339 6.48096C9.49049 5.65604 10.6844 5.15 12 5.15C14.7476 5.15 16.9643 7.35717 16.9643 10.0667V14.6C16.9643 14.707 16.9872 14.8122 17.0308 14.9088L20.5877 18.4659Z" fill="black"/>
<path d="M2.75165 2.74841L1.96973 3.53034L6.03305 7.59366C5.71273 8.35436 5.53572 9.18968 5.53572 10.0667V14.3713L3.37758 17.5816C3.22297 17.8115 3.20777 18.108 3.33806 18.3526C3.46835 18.5972 3.72288 18.75 4 18.75H17.1894L20.4697 22.0303L21.2517 21.2484L2.75165 2.74841ZM7.03572 10.0667C7.03572 9.61837 7.0964 9.18382 7.21013 8.77074L15.6894 17.25H5.40793L6.90814 15.0184C6.9913 14.8947 7.03572 14.7491 7.03572 14.6V10.0667Z" fill="black"/>
<path d="M10 20C10 20.5974 10.2619 21.1335 10.6771 21.5C11.0297 21.8112 11.4928 22 12 22C12.5072 22 12.9703 21.8112 13.3229 21.5C13.7381 21.1336 14 20.5973 14 20H10Z" fill="black"/>
</svg>
