<svg width="24" height="24" viewBox="0 0 24 24" fill="none" xmlns="http://www.w3.org/2000/svg">
<path d="M9.25 3.69277C6.03774 4.06149 3.53572 6.76954 3.53572 10.0667V14.3713L1.37758 17.5816C1.22297 17.8115 1.20777 18.108 1.33806 18.3526C1.46835 18.5972 1.72288 18.75 2 18.75H4.28572H15.7143H18C18.2771 18.75 18.5317 18.5972 18.6619 18.3526C18.7922 18.108 18.777 17.8115 18.6224 17.5816L16.4643 14.3713V10.0667C16.4643 6.76954 13.9623 4.06149 10.75 3.69277V1H9.25V3.69277ZM10 5.15C7.25237 5.15 5.03572 7.35717 5.03572 10.0667V14.6C5.03572 14.7491 4.9913 14.8947 4.90814 15.0184L3.40793 17.25H4.28572H15.7143H16.5921L15.0919 15.0184C15.0087 14.8947 14.9643 14.7491 14.9643 14.6V10.0667C14.9643 7.35717 12.7476 5.15 10 5.15ZM12 20H10.5H9.5H8C8 20.5973 8.26188 21.1335 8.67709 21.5C9.02966 21.8112 9.49278 22 10 22C10.5072 22 10.9703 21.8112 11.3229 21.5C11.7381 21.1335 12 20.5974 12 20.0001V20ZM19.7248 6.55352L23.0061 3.55352L21.9939 2.44648L19.2188 4.98378L18.0061 3.87505L16.9939 4.98209L18.7127 6.55352L19.2188 7.01622L19.7248 6.55352Z" fill="black"/>
<path d="M10 4.4C6.84409 4.4 4.28571 6.93705 4.28571 10.0667V14.6L2 18H4.28571H15.7143H18L15.7143 14.6V10.0667C15.7143 6.93705 13.1559 4.4 10 4.4Z" fill="black"/>
</svg>
