<svg width="24" height="24" viewBox="0 0 24 24" fill="none" xmlns="http://www.w3.org/2000/svg">
<path d="M11 4.08296V2H13V4.08296C15.8377 4.55904 18 7.027 18 10V13.6972L19.8321 16.4453C20.0366 16.7522 20.0557 17.1467 19.8817 17.4719C19.7077 17.797 19.3688 18 19 18H5C4.63121 18 4.29235 17.797 4.11833 17.4719C3.94431 17.1467 3.96338 16.7522 4.16795 16.4453L6 13.6972V10C6 7.027 8.16229 4.55904 11 4.08296ZM12 6C9.79086 6 8 7.79086 8 10V14C8 14.1974 7.94156 14.3904 7.83205 14.5547L6.86852 16H17.1315L16.168 14.5547C16.0584 14.3904 16 14.1974 16 14V10C16 7.79086 14.2091 6 12 6ZM14 19C14 19.5973 13.7381 20.1336 13.3229 20.5C12.9703 20.8112 12.5072 21 12 21C11.4928 21 11.0297 20.8112 10.6771 20.5C10.2619 20.1335 10 19.5974 10 19H14ZM4.70891 8.23443L2.76465 7.76553C3.30144 5.53974 4.62021 3.62206 6.41129 2.31714L7.589 3.93362C6.1718 4.96614 5.13165 6.48154 4.70891 8.23443ZM16.4113 3.93362L17.589 2.31714C19.3801 3.62206 20.6989 5.53974 21.2356 7.76553L19.2914 8.23443C18.8686 6.48154 17.8285 4.96614 16.4113 3.93362Z" fill="black"/>
</svg>
