<svg width="24" height="24" viewBox="0 0 24 24" fill="none" xmlns="http://www.w3.org/2000/svg">
<path d="M6.5 4.5H19.5V17.5H6.5V4.5ZM6 3C5.44772 3 5 3.44772 5 4V18C5 18.5523 5.44772 19 6 19H20C20.5523 19 21 18.5523 21 18V4C21 3.44772 20.5523 3 20 3H6Z" fill="black"/>
<path d="M3.75 5V20C3.75 20.1381 3.86193 20.25 4 20.25H19V21.75H4C3.0335 21.75 2.25 20.9665 2.25 20V5H3.75Z" fill="black"/>
<path d="M12.7744 7.75C11.9408 7.75 11.25 8.38726 11.25 9.20009H9.75C9.75 7.46153 11.2131 6.25 12.7744 6.25C14.3571 6.25 15.75 7.4818 15.75 9.20009C15.75 9.95799 15.4073 10.461 15.0233 10.848C14.8752 10.9973 14.7066 11.1433 14.5557 11.2739C14.5275 11.2984 14.4998 11.3224 14.473 11.3457C14.2929 11.5026 14.1237 11.6551 13.9622 11.8302C13.6512 12.1674 13.5008 12.5301 13.5008 13.0003H12.0008C12.0008 12.1373 12.304 11.4155 12.8597 10.8131C13.0788 10.5756 13.2986 10.3795 13.4877 10.2147C13.5218 10.185 13.5543 10.1568 13.5853 10.1299C13.7363 9.99899 13.8539 9.897 13.9585 9.79152C14.1787 9.56958 14.25 9.42439 14.25 9.20009C14.25 8.36698 13.5866 7.75 12.7744 7.75ZM12.0244 15.5V14.0001H13.5244V15.5H12.0244Z" fill="black"/>
</svg>
