<svg width="24" height="24" viewBox="0 0 24 24" fill="none" xmlns="http://www.w3.org/2000/svg">
<path d="M1 4.44828H2.97193L3.34183 5.97071L5.21983 15.6326C5.37417 16.4267 6.06974 17 6.87879 17H19.2977V15.5517H6.87879C6.76321 15.5517 6.66385 15.4698 6.64179 15.3564L6.35135 13.8621H18.2881L20.954 6.1817C21.139 5.64848 20.743 5.09196 20.1784 5.09196H4.61902L4.11075 3H1V4.44828Z" fill="black"/>
<path d="M7.00001 22C8.10458 22 9 21.1046 9 20C9 18.8954 8.10458 18 7.00001 18C5.89543 18 5 18.8954 5 20C5 21.1046 5.89543 22 7.00001 22ZM7.00001 20.5C6.57609 20.5 6.4 20.1803 6.4 20C6.4 19.8197 6.57609 19.5 7.00001 19.5C7.42392 19.5 7.60001 19.8197 7.60001 20C7.60001 20.1803 7.42392 20.5 7.00001 20.5Z" fill="black"/>
<path d="M17 22C18.1046 22 19 21.1046 19 20C19 18.8954 18.1046 18 17 18C15.8954 18 15 18.8954 15 20C15 21.1046 15.8954 22 17 22ZM17 20.5C16.576 20.5 16.4 20.1803 16.4 20C16.4 19.8197 16.576 19.5 17 19.5C17.4239 19.5 17.6 19.8197 17.6 20C17.6 20.1803 17.4239 20.5 17 20.5Z" fill="black"/>
</svg>
