<svg width="24" height="24" viewBox="0 0 24 24" fill="none" xmlns="http://www.w3.org/2000/svg">
<path d="M2 3.5H4.04195L4.42499 5.07681L6.36967 15.0838C6.52949 15.9062 7.24975 16.5 8.08753 16.5H20.9474V15H8.08753C7.96785 15 7.86496 14.9152 7.84212 14.7977L7.54136 13.25H19.902L22.6625 5.29533C22.8541 4.74307 22.444 4.16667 21.8594 4.16667H18.5V5.66667H20.9459L18.8348 11.75H7.24986L6.06767 5.66667H9.5V4.16667H5.74752L5.2212 2H2V3.5ZM8.78572 19.75C8.78572 19.9303 8.59705 20.25 8.14286 20.25C7.68866 20.25 7.5 19.9303 7.5 19.75C7.5 19.5697 7.68866 19.25 8.14286 19.25C8.59705 19.25 8.78572 19.5697 8.78572 19.75ZM19.5 19.75C19.5 19.9303 19.3113 20.25 18.8571 20.25C18.4029 20.25 18.2143 19.9303 18.2143 19.75C18.2143 19.5697 18.4029 19.25 18.8571 19.25C19.3113 19.25 19.5 19.5697 19.5 19.75ZM10.2857 19.75C10.2857 20.8546 9.32633 21.75 8.14286 21.75C6.95939 21.75 6 20.8546 6 19.75C6 18.6454 6.95939 17.75 8.14286 17.75C9.32633 17.75 10.2857 18.6454 10.2857 19.75ZM21 19.75C21 20.8546 20.0406 21.75 18.8571 21.75C17.6737 21.75 16.7143 20.8546 16.7143 19.75C16.7143 18.6454 17.6737 17.75 18.8571 17.75C20.0406 17.75 21 18.6454 21 19.75Z" fill="black"/>
<path d="M13.25 6V2.75H14.75V6H18V7.5H14.75V10.75H13.25V7.5H10V6H13.25Z" fill="black"/>
</svg>
