<svg width="24" height="24" viewBox="0 0 24 24" fill="none" xmlns="http://www.w3.org/2000/svg">
<path d="M19.07 4.93C17.26 3.12 14.76 2 12 2C9.24 2 6.74 3.12 4.93 4.93C3.12 6.74 2 9.24 2 12C2 14.76 3.12 17.26 4.93 19.07C6.74 20.88 9.24 22 12 22C14.76 22 17.26 20.88 19.07 19.07C20.88 17.26 22 14.76 22 12C22 9.24 20.88 6.74 19.07 4.93V4.93ZM16.17 9.94C16.17 9.94 16.15 9.97 16.13 9.99L11.76 14.57C11.63 14.71 11.44 14.79 11.24 14.79C11.04 14.79 10.85 14.71 10.72 14.56L8.9 12.63C8.62 12.33 8.62 11.85 8.9 11.56C9.04 11.42 9.22 11.34 9.42 11.34C9.62 11.34 9.8 11.42 9.94 11.56L11.24 12.95L15.08 8.92C15.22 8.77 15.4 8.69 15.6 8.69C15.8 8.69 15.99 8.77 16.12 8.92C16.38 9.2 16.4 9.64 16.16 9.94H16.17Z" fill="black"/>
</svg>
