<svg width="24" height="24" viewBox="0 0 24 24" fill="none" xmlns="http://www.w3.org/2000/svg">
<path d="M12 22C6.4878 22 2 17.5122 2 12C2 6.4878 6.4878 2 12 2C17.5122 2 22 6.4878 22 12C22 17.5122 17.5122 22 12 22ZM12 3.46341C7.29756 3.46341 3.46341 7.29756 3.46341 12C3.46341 16.7024 7.29756 20.5366 12 20.5366C16.7024 20.5366 20.5366 16.7122 20.5366 12C20.5366 7.28781 16.7122 3.46341 12 3.46341Z" fill="black"/>
<path d="M12 6.14636C8.77075 6.14636 6.14636 8.77075 6.14636 12C6.14636 15.2293 8.77075 17.8537 12 17.8537C15.2293 17.8537 17.8537 15.2293 17.8537 12C17.8537 8.77075 15.2293 6.14636 12 6.14636Z" fill="black"/>
</svg>
