<svg width="24" height="24" viewBox="0 0 24 24" fill="none" xmlns="http://www.w3.org/2000/svg">
<path d="M7 2.53513C7.19995 2.65079 7.38895 2.78327 7.56509 2.93062C7.04238 3.16118 6.54101 3.43124 6.06476 3.73703C5.74295 3.58517 5.38302 3.5 5 3.5C3.61929 3.5 2.5 4.61929 2.5 6C2.5 6.38302 2.58517 6.74295 2.73703 7.06476C2.43124 7.54101 2.16118 8.04238 1.93062 8.56509C1.78327 8.38895 1.65079 8.19995 1.53513 8C1.19479 7.41165 1 6.72857 1 6C1 3.79086 2.79086 2 5 2C5.72857 2 6.41165 2.19479 7 2.53513ZM23 6C23 6.97618 22.6503 7.87068 22.0694 8.56509C21.8388 8.04224 21.5686 7.54075 21.2627 7.0644C21.4149 6.74146 21.5 6.38066 21.5 6C21.5 4.61929 20.3807 3.5 19 3.5C18.6193 3.5 18.2585 3.58508 17.9356 3.73726C17.4592 3.43138 16.9578 3.16124 16.4349 2.93062C17.1293 2.34968 18.0238 2 19 2C21.2091 2 23 3.79086 23 6ZM11.25 8H12.75V12.6893L15.8031 15.7424L14.7424 16.8031L11.25 13.3107V8ZM19.5 13C19.5 8.85786 16.1421 5.5 12 5.5C7.85786 5.5 4.5 8.85786 4.5 13C4.5 17.1421 7.85786 20.5 12 20.5C16.1421 20.5 19.5 17.1421 19.5 13ZM21 13C21 17.9706 16.9706 22 12 22C7.02944 22 3 17.9706 3 13C3 8.02944 7.02944 4 12 4C16.9706 4 21 8.02944 21 13Z" fill="black"/>
</svg>
