<svg width="24" height="24" viewBox="0 0 24 24" fill="none" xmlns="http://www.w3.org/2000/svg">
<path d="M17.2302 3.01016C17.4342 3.01016 17.6279 3.09147 17.7706 3.24393C18.0765 3.54884 18.0765 4.02654 17.7706 4.33145L11.9898 10.135L6.2294 4.32129C5.92353 4.01637 5.92353 3.53868 6.2294 3.23377C6.37213 3.09147 6.56585 3 6.75956 3C6.97366 3 7.16737 3.08131 7.29991 3.23377L11.9898 7.97007L16.6899 3.24393C16.8326 3.09147 17.0263 3.01016 17.2302 3.01016ZM6.76975 21C6.56585 21 6.37213 20.9187 6.2294 20.7662C5.92353 20.4613 5.92353 19.9836 6.2294 19.6787L12.0102 13.865L17.7706 19.6787C18.0765 19.9836 18.0765 20.4613 17.7706 20.7662C17.6279 20.9085 17.4342 21 17.2404 21C17.0263 21 16.8326 20.9187 16.7001 20.7662L12.0102 16.0401L7.31011 20.7662C7.16737 20.9187 6.97366 21 6.76975 21Z" fill="black"/>
</svg>
