<svg width="24" height="24" viewBox="0 0 24 24" fill="none" xmlns="http://www.w3.org/2000/svg">
<path d="M2.25 5.83064C2.25 4.95768 2.97884 4.25 3.87791 4.25H20.6221C21.5212 4.25 22.25 4.95768 22.25 5.83065V16.6694C22.25 17.5423 21.5212 18.25 20.6221 18.25H3.87791C2.97884 18.25 2.25 17.5423 2.25 16.6694V5.83064ZM3.87791 5.60484C3.74947 5.60484 3.64535 5.70594 3.64535 5.83064V7.20822H20.8547V5.83065C20.8547 5.70594 20.7505 5.60484 20.6221 5.60484H3.87791ZM20.8547 8.56305H3.64535V9.66935H20.8547V8.56305ZM20.8547 11.0242H3.64535V16.6694C3.64535 16.7941 3.74947 16.8952 3.87791 16.8952H20.6221C20.7505 16.8952 20.8547 16.7941 20.8547 16.6694V11.0242Z" fill="black"/>
</svg>
