<svg width="24" height="24" viewBox="0 0 24 24" fill="none" xmlns="http://www.w3.org/2000/svg">
<path d="M15.75 1.25H8.25V3.5H3V5H21V3.5H15.75V1.25ZM14.25 3.5H9.75V2.75H14.25V3.5Z" fill="black"/>
<path d="M8.7998 18.5V9.5H10.2998V18.5H8.7998Z" fill="black"/>
<path d="M13.7998 9.5V18.5H15.2998V9.5H13.7998Z" fill="black"/>
<path d="M5 20C5 21.1046 5.89543 22 7 22H17C18.1046 22 19 21.1046 19 20V6H5V20ZM6.5 7.5H17.5V20C17.5 20.2761 17.2761 20.5 17 20.5H7C6.72386 20.5 6.5 20.2761 6.5 20V7.5Z" fill="black"/>
</svg>
