<svg width="16" height="14" viewBox="0 0 16 14" fill="none" xmlns="http://www.w3.org/2000/svg">
<path d="M3.16683 2.31498V4.37394L4.5254 5.7325L5.2325 5.0254L4.16683 3.95972V2.31498H3.16683Z" fill="white"/>
<path fill-rule="evenodd" clip-rule="evenodd" d="M6.79029 3.00016C6.31738 1.73461 5.09734 0.833496 3.66683 0.833496C1.82588 0.833496 0.333496 2.32588 0.333496 4.16683C0.333496 5.0122 0.648193 5.78407 1.16683 6.37168V11.3335H2.50767C2.5027 11.3884 2.50016 11.444 2.50016 11.5002C2.50016 12.5127 3.32097 13.3335 4.3335 13.3335C5.34602 13.3335 6.16683 12.5127 6.16683 11.5002C6.16683 11.444 6.16429 11.3884 6.15933 11.3335H10.5077C10.5027 11.3884 10.5002 11.444 10.5002 11.5002C10.5002 12.5127 11.321 13.3335 12.3335 13.3335C13.346 13.3335 14.1668 12.5127 14.1668 11.5002C14.1668 11.444 14.1643 11.3884 14.1593 11.3335H15.5002V7.98581L13.5677 5.66683H11.5002V3.00016L6.79029 3.00016ZM6.00016 4.16683C6.00016 5.45549 4.95549 6.50016 3.66683 6.50016C2.37817 6.50016 1.3335 5.45549 1.3335 4.16683C1.3335 2.87817 2.37817 1.8335 3.66683 1.8335C4.95549 1.8335 6.00016 2.87817 6.00016 4.16683ZM7.00016 4.16683C7.00016 6.00778 5.50778 7.50016 3.66683 7.50016C3.12729 7.50016 2.61769 7.37198 2.16683 7.1444V10.3335H2.91929C3.25508 9.92695 3.76371 9.66683 4.3335 9.66683C4.90329 9.66683 5.41191 9.92695 5.7477 10.3335H10.5002V4.00016L6.99607 4.00016C6.99879 4.05538 7.00016 4.11094 7.00016 4.16683ZM11.5002 9.3335V9.86682C11.7501 9.73903 12.0333 9.66683 12.3335 9.66683C12.9033 9.66683 13.4119 9.92695 13.7477 10.3335H14.5002V9.3335H11.5002ZM13.0993 6.66683L14.4882 8.3335H11.5002V6.66683H13.0993ZM3.61134 11.0839C3.75618 10.8335 4.02567 10.6668 4.3335 10.6668C4.64132 10.6668 4.91081 10.8335 5.05565 11.0839C5.12626 11.2059 5.16683 11.3475 5.16683 11.5002C5.16683 11.9604 4.79373 12.3335 4.3335 12.3335C3.87326 12.3335 3.50016 11.9604 3.50016 11.5002C3.50016 11.3475 3.54073 11.2059 3.61134 11.0839ZM11.6113 11.0839C11.7562 10.8335 12.0257 10.6668 12.3335 10.6668C12.6413 10.6668 12.9108 10.8335 13.0557 11.0839C13.1263 11.2059 13.1668 11.3475 13.1668 11.5002C13.1668 11.9604 12.7937 12.3335 12.3335 12.3335C11.8733 12.3335 11.5002 11.9604 11.5002 11.5002C11.5002 11.3475 11.5407 11.2059 11.6113 11.0839Z" fill="white"/>
</svg>
