<svg width="24" height="24" viewBox="0 0 24 24" fill="none" xmlns="http://www.w3.org/2000/svg">
<path fill-rule="evenodd" clip-rule="evenodd" d="M4.5 3.2C4.2 3.3 3.9 3.5 3.7 3.7C3.5 3.9 3.3 4.2 3.2 4.5C3.1 4.8 3 5.1 3 5.5V11C3 11.3 3.1 11.6 3.2 11.9C3.3 12.2 3.5 12.5 3.7 12.7C3.9 12.9 4.2 13.1 4.5 13.2C4.8 13.3 5.1 13.4 5.4 13.4H6.5V3H5.5C5.1 3 4.8 3.1 4.5 3.2Z" fill="black"/>
<path fill-rule="evenodd" clip-rule="evenodd" d="M19.5996 4.9C19.4996 4.4 19.1996 3.9 18.6996 3.5C18.2996 3.2 17.6996 3 17.1996 3H8.09961V15L10.2996 19.5C10.4996 20 10.8996 20.3 11.2996 20.5C11.5996 20.6 11.8996 20.7 12.0996 20.7C12.2996 20.7 12.4996 20.7 12.5996 20.6C13.1996 20.5 13.6996 20.2 13.9996 19.7C14.3996 19.3 14.5996 18.7 14.5996 18.1V15H17.9996C18.4996 15 18.8996 14.9 19.2996 14.7C19.6996 14.5 20.0996 14.2 20.3996 13.8C20.6996 13.4 20.8996 13 20.9996 12.6C21.0996 12.1 21.0996 11.7 20.9996 11.2L19.5996 4.9Z" fill="black"/>
</svg>
