<svg width="24" height="24" viewBox="0 0 24 24" fill="none" xmlns="http://www.w3.org/2000/svg">
<path d="M3.7 12.8C3.9 13 4.2 13.2 4.5 13.3C4.8 13.4 5.1 13.5 5.4 13.5H7.3L10.2 19.5C10.4 20 10.8 20.3 11.2 20.5C11.5 20.6 11.8 20.7 12 20.7C12.2 20.7 12.4 20.7 12.5 20.6C13.1 20.5 13.6 20.2 13.9 19.7C14.3 19.3 14.5 18.7 14.5 18.1V15H17.9C18.4 15 18.8 14.9 19.2 14.7C19.6 14.5 20 14.2 20.3 13.8C20.6 13.4 20.8 13 20.9 12.6C20.9 12.5 20.9 12.4 20.9 12.3V11.5C20.9 11.4 20.9 11.3 20.9 11.2L19.4 4.80002C19.3 4.30002 19 3.80002 18.5 3.40002C18.1 3.10002 17.5 2.90002 17 2.90002H5.5C5.1 3.00002 4.8 3.10002 4.5 3.20002C4.2 3.30002 3.9 3.50002 3.7 3.70002C3.5 3.90002 3.3 4.20002 3.2 4.50002C3.1 4.80002 3 5.10002 3 5.50002V11C3 11.3 3.1 11.6 3.2 11.9C3.3 12.3 3.5 12.6 3.7 12.8ZM8.3 4.50002H17.3C17.5 4.50002 17.7 4.60002 17.9 4.70002C18 4.80002 18.1 5.00002 18.2 5.20002L19.7 11.6C19.8 11.8 19.7 12.1 19.7 12.3C19.6 12.5 19.5 12.8 19.4 12.9C19.2 13.1 19.1 13.2 18.8 13.3C18.6 13.4 18.3 13.5 18.1 13.5H13.2V18.1C13.2 18.3 13.1 18.6 13 18.7C12.9 18.9 12.6 19 12.3 19.1C12.2 19.1 12 19.1 11.9 19.1C11.8 19 11.7 18.9 11.6 18.8L8.3 12V4.50002ZM4.5 5.50002C4.5 5.40002 4.5 5.30002 4.6 5.10002C4.6 5.00002 4.7 4.90002 4.8 4.80002C4.9 4.70002 5 4.60002 5.1 4.60002C5.2 4.60002 5.3 4.50002 5.5 4.50002H6.8V12H5.5C5.4 12 5.3 12 5.1 11.9C5 11.9 4.9 11.8 4.8 11.7C4.7 11.6 4.6 11.5 4.6 11.4C4.6 11.3 4.5 11.2 4.5 11V5.50002Z" fill="black"/>
</svg>
