<svg width="24" height="24" viewBox="0 0 24 24" fill="none" xmlns="http://www.w3.org/2000/svg">
<path d="M19.5303 7.46967C19.671 7.61032 19.75 7.80109 19.75 8L19.75 20C19.75 20.9665 18.9665 21.75 18 21.75L6 21.75C5.0335 21.75 4.25 20.9665 4.25 20L4.25 4C4.25 3.0335 5.0335 2.25 6 2.25L14 2.25C14.1989 2.25 14.3897 2.32902 14.5303 2.46967L19.5303 7.46967ZM18.25 20L18.25 8.75L13.25 8.75L13.25 3.75L6 3.75C5.86193 3.75 5.75 3.86193 5.75 4L5.75 20C5.75 20.1381 5.86193 20.25 6 20.25L18 20.25C18.1381 20.25 18.25 20.1381 18.25 20ZM14.75 4.81066L14.75 7.25L17.1893 7.25L14.75 4.81066ZM16 16.75L8 16.75L8 15.25L16 15.25L16 16.75ZM16 12.75L8 12.75L8 11.25L16 11.25L16 12.75Z" fill="black"/>
</svg>
