<svg width="24" height="24" viewBox="0 0 24 24" fill="none" xmlns="http://www.w3.org/2000/svg">
<path d="M4 13.4375C4.79391 13.4375 5.4375 12.7939 5.4375 12C5.4375 11.2061 4.79391 10.5625 4 10.5625C3.20609 10.5625 2.5625 11.2061 2.5625 12C2.5625 12.7939 3.20609 13.4375 4 13.4375ZM12 13.4375C12.7939 13.4375 13.4375 12.7939 13.4375 12C13.4375 11.2061 12.7939 10.5625 12 10.5625C11.2061 10.5625 10.5625 11.2061 10.5625 12C10.5625 12.7939 11.2061 13.4375 12 13.4375ZM20 13.4375C19.2061 13.4375 18.5625 12.7939 18.5625 12C18.5625 11.2061 19.2061 10.5625 20 10.5625C20.7939 10.5625 21.4375 11.2061 21.4375 12C21.4375 12.7939 20.7939 13.4375 20 13.4375ZM7 12C7 13.6569 5.65685 15 4 15C2.34315 15 1 13.6569 1 12C1 10.3431 2.34315 9 4 9C5.65685 9 7 10.3431 7 12ZM15 12C15 13.6569 13.6569 15 12 15C10.3431 15 9 13.6569 9 12C9 10.3431 10.3431 9 12 9C13.6569 9 15 10.3431 15 12ZM20 15C21.6569 15 23 13.6569 23 12C23 10.3431 21.6569 9 20 9C18.3431 9 17 10.3431 17 12C17 13.6569 18.3431 15 20 15Z" fill="black"/>
</svg>
