<svg width="24" height="24" viewBox="0 0 24 24" fill="none" xmlns="http://www.w3.org/2000/svg">
<path d="M6.76975 9.06755C6.56585 9.06755 6.37213 8.9926 6.2294 8.85207C5.92353 8.57101 5.92353 8.13067 6.2294 7.84961L12.0102 2.5L17.7706 7.85897C18.0765 8.14004 18.0765 8.58037 17.7706 8.86144C17.6279 8.9926 17.4342 9.07692 17.2404 9.07692C17.0263 9.07692 16.8326 9.00197 16.7001 8.86144L12.0102 4.49556L7.31011 8.86144C7.16737 9.00197 6.97366 9.07692 6.76975 9.07692V9.06755ZM17.2302 14.9231C17.4342 14.9231 17.6279 14.998 17.7706 15.1386C18.0765 15.4196 18.0765 15.86 17.7706 16.141L11.9898 21.5L6.2294 16.141C5.92353 15.86 5.92353 15.4196 6.2294 15.1386C6.37213 15.0074 6.56585 14.9231 6.75956 14.9231C6.97366 14.9231 7.16737 14.998 7.29991 15.1386L11.9898 19.4951L16.6899 15.1292C16.8326 14.9887 17.0263 14.9137 17.2302 14.9137V14.9231Z" fill="black"/>
</svg>
