<svg width="24" height="24" viewBox="0 0 24 24" fill="none" xmlns="http://www.w3.org/2000/svg">
<path d="M11.8284 2.17157C10.2663 0.609477 7.73367 0.609477 6.17157 2.17157C4.86284 3.4803 4.65057 5.47028 5.53476 7.00001H4.00004C2.89548 7.00001 2.00005 7.89543 2.00004 9L2 21C2 22.1046 2.89543 23 4 23H20C21.1046 23 22 22.1046 22 21V9C22 7.89543 21.1046 7 20 7H18.4652C19.3494 5.47028 19.1372 3.4803 17.8284 2.17157C16.2663 0.609477 13.7337 0.609477 12.1716 2.17157C12.1121 2.23103 12.0549 2.29189 12 2.35405C11.9451 2.29189 11.8879 2.23103 11.8284 2.17157ZM13.3432 9L17.2929 12.9497L18.7071 11.5355L16.1716 9H20V21H13V9H13.3432ZM7.82842 9.00001L5.29289 11.5355L6.70711 12.9497L10.6568 9H11V21H4L4.00004 9.00001H7.82842ZM10.4142 3.58579C11.1953 4.36683 11.1953 5.63316 10.4142 6.41421C9.63316 7.19526 8.36683 7.19526 7.58579 6.41421C6.80474 5.63316 6.80474 4.36683 7.58579 3.58579C8.36683 2.80474 9.63316 2.80474 10.4142 3.58579ZM16.4142 3.58579C17.1953 4.36683 17.1953 5.63316 16.4142 6.41421C15.6332 7.19526 14.3668 7.19526 13.5858 6.41421C12.8047 5.63316 12.8047 4.36683 13.5858 3.58579C14.3668 2.80474 15.6332 2.80474 16.4142 3.58579Z" fill="black"/>
</svg>
