<svg width="24" height="24" viewBox="0 0 24 24" fill="none" xmlns="http://www.w3.org/2000/svg">
<path d="M4.75 10C4.75 5.99594 7.99594 2.75 12 2.75C16.0041 2.75 19.25 5.99594 19.25 10H19V16H19.25V16.2756C19.25 16.6023 19.1221 16.916 18.8938 17.1495L15.2521 20.8739C15.017 21.1144 14.6948 21.25 14.3584 21.25H13.987C13.9096 20.7747 13.4972 20.4118 13 20.4118H11C10.4477 20.4118 10 20.8595 10 21.4118V22.4118C10 22.9641 10.4477 23.4118 11 23.4118H13C13.4336 23.4118 13.8027 23.1359 13.9414 22.75H14.3584C15.0984 22.75 15.8073 22.4517 16.3246 21.9226L19.9663 18.1982C20.4687 17.6844 20.75 16.9943 20.75 16.2756V16H22C22.5523 16 23 15.5523 23 15V11C23 10.4477 22.5523 10 22 10H20.75C20.75 5.16751 16.8325 1.25 12 1.25C7.16751 1.25 3.25 5.16751 3.25 10H2C1.44772 10 1 10.4477 1 11V15C1 15.5523 1.44772 16 2 16H5V10H4.75ZM2.5 14.5V11.5H3.5V14.5H2.5ZM20.5 11.5H21.5V14.5H20.5V11.5Z" fill="black"/>
</svg>
