<svg width="24" height="24" viewBox="0 0 24 24" fill="none" xmlns="http://www.w3.org/2000/svg">
<path fill-rule="evenodd" clip-rule="evenodd" d="M3.7 11C3.3 11.4 3 12 3 12.7V18.3C3 18.9 3.3 19.6 3.7 20C4.2 20.5 4.8 20.7 5.4 20.7H6.5V10.2H5.5C4.8 10.2 4.2 10.5 3.7 11Z" fill="black"/>
<path fill-rule="evenodd" clip-rule="evenodd" d="M20.3996 9.80001C20.0996 9.40001 19.6996 9.10001 19.2996 8.90001C18.8996 8.70001 18.3996 8.60001 17.9996 8.60001H14.6996V5.50001C14.6996 4.90001 14.4996 4.40001 14.0996 3.90001C13.6996 3.50001 13.1996 3.10001 12.6996 3.00001C12.1996 2.90001 11.6996 2.90001 11.1996 3.10001C10.6996 3.30001 10.3996 3.70001 10.1996 4.10001L8.09961 8.70001V20.7H17.2996C17.8996 20.7 18.3996 20.5 18.7996 20.2C19.1996 19.9 19.4996 19.4 19.6996 18.8L21.0996 12.4C21.1996 11.9 21.1996 11.5 21.0996 11C20.8996 10.6 20.6996 10.1 20.3996 9.80001Z" fill="black"/>
</svg>
