<svg width="24" height="24" viewBox="0 0 24 24" fill="none" xmlns="http://www.w3.org/2000/svg">
<path d="M11.8016 4.94208L8.5 11.6137L6.89798 10.5479L9.99798 4.07788L11.8016 4.94208Z" fill="black"/>
<path d="M11.9697 4.77677C11.8968 4.80869 11.8378 4.86592 11.8037 4.9379L9.99606 4.08214C10.2367 3.57391 10.6529 3.16984 11.1681 2.94446L11.9697 4.77677Z" fill="black"/>
<path d="M12.3011 4.79003C12.2251 4.7662 12.0427 4.74483 11.9697 4.77675L11.1681 2.94444C11.6832 2.71906 12.2625 2.68758 12.799 2.8558L12.3011 4.79003Z" fill="black"/>
<path d="M12.7391 5.05469C12.6281 4.91849 12.4733 4.82496 12.3011 4.79002L12.6989 2.82996C13.3242 2.95685 13.8863 3.29651 14.2894 3.79114L12.7391 5.05469Z" fill="black"/>
<path d="M12.9099 5.53705C12.9104 5.36134 12.8501 5.19089 12.7391 5.05469L14.2894 3.79114C14.6926 4.28578 14.9117 4.9048 14.9099 5.5429L12.9099 5.53705Z" fill="black"/>
<path d="M12.9102 9.35998V5.53998H14.9102V9.35998H12.9102Z" fill="black"/>
<path d="M18.0002 10.36H12.9102V8.35999H18.0002V10.36Z" fill="black"/>
<path d="M18.5916 10.4926C18.4076 10.4048 18.2063 10.3595 18.0024 10.36L17.9976 8.36C18.5012 8.35877 18.9986 8.47075 19.4531 8.68768L18.5916 10.4926Z" fill="black"/>
<path d="M19.0653 10.8672C18.9375 10.7085 18.7755 10.5804 18.5916 10.4926L19.4531 8.68768C19.9076 8.90461 20.3076 9.22092 20.6234 9.61323L19.0653 10.8672Z" fill="black"/>
<path d="M19.33 11.41C19.2835 11.2115 19.1932 11.026 19.0653 10.8672L20.6234 9.61322C20.9391 10.0055 21.1626 10.4638 21.2773 10.9542L19.33 11.41Z" fill="black"/>
<path d="M19.3337 12.0139C19.3777 11.8149 19.3764 11.6085 19.33 11.41L21.2773 10.9542C21.3921 11.4445 21.3953 11.9544 21.2864 12.4461L19.3337 12.0139Z" fill="black"/>
<path d="M17.9037 18.4429L19.3337 12.0129L21.286 12.4471L19.856 18.8771L17.9037 18.4429Z" fill="black"/>
<path d="M17.6604 18.8385C17.7837 18.7396 17.8694 18.6014 17.9031 18.447L19.8572 18.873C19.7259 19.4751 19.3919 20.0139 18.9109 20.3993L17.6604 18.8385Z" fill="black"/>
<path d="M17.2254 18.99C17.3835 18.9908 17.537 18.9373 17.6604 18.8385L18.9109 20.3993C18.43 20.7846 17.8313 20.9932 17.215 20.99L17.2254 18.99Z" fill="black"/>
<path d="M5.45996 18.99H17.22V20.99H5.45996V18.99Z" fill="black"/>
<path d="M4.95809 18.782C5.09125 18.9152 5.27167 18.99 5.45997 18.99V20.99C4.74123 20.99 4.0521 20.7045 3.54388 20.1962L4.95809 18.782Z" fill="black"/>
<path d="M4.75 18.28C4.75 18.4683 4.82493 18.6489 4.95808 18.782L3.54387 20.1962C3.03565 19.688 2.75 18.9988 2.75 18.28H4.75Z" fill="black"/>
<path d="M4.75 12.69V18.28H2.75V12.69H4.75Z" fill="black"/>
<path d="M4.95795 12.1879C4.8248 12.3211 4.75 12.5017 4.75 12.69H2.75C2.75 11.9713 3.03552 11.282 3.54374 10.7737L4.95795 12.1879Z" fill="black"/>
<path d="M5.46012 11.98C5.27181 11.98 5.09109 12.0548 4.95794 12.1879L3.54373 10.7737C4.05195 10.2655 4.74138 9.97998 5.46012 9.97998V11.98Z" fill="black"/>
<path d="M7.79997 11.98H5.46014V9.97998H7.79997V11.98Z" fill="black"/>
<path d="M6.52979 19.75V10.98H8.52979V19.75H6.52979Z" fill="black"/>
</svg>
