<svg width="24" height="24" viewBox="0 0 24 24" fill="none" xmlns="http://www.w3.org/2000/svg">
<path d="M9.18934 2.25H14.8107L16.25 3.68934V6.25H20C20.9665 6.25 21.75 7.0335 21.75 8V20C21.75 20.9665 20.9665 21.75 20 21.75H4C3.0335 21.75 2.25 20.9665 2.25 20V8C2.25 7.0335 3.0335 6.25 4 6.25H7.75V3.68934L9.18934 2.25ZM9.25 6.25H14.75V4.31066L14.1893 3.75H9.81066L9.25 4.31066V6.25ZM4 7.75C3.86193 7.75 3.75 7.86193 3.75 8V20C3.75 20.1381 3.86193 20.25 4 20.25H20C20.1381 20.25 20.25 20.1381 20.25 20V8C20.25 7.86193 20.1381 7.75 20 7.75H4ZM11.25 13.25V11H12.75V13.25H15V14.75H12.75V17H11.25V14.75H9V13.25H11.25Z" fill="black"/>
</svg>
