<svg width="24" height="24" viewBox="0 0 24 24" fill="none" xmlns="http://www.w3.org/2000/svg">
<path d="M19 3C20.6569 3 22 4.34315 22 6V15C22 16.6569 20.6569 18 19 18H7.10078L3.78716 20.6509C3.06693 21.2271 2 20.7143 2 19.7919V6C2 4.34315 3.34315 3 5 3H19ZM20 6C20 5.44772 19.5523 5 19 5H5C4.44772 5 4 5.44772 4 6V17.9194L6.39922 16H19C19.5523 16 20 15.5523 20 15V6ZM7.99951 11.4998C7.44723 11.4998 6.99951 11.0521 6.99951 10.4998C6.99951 9.94753 7.44723 9.49982 7.99951 9.49982C8.5518 9.49982 8.99951 9.94753 8.99951 10.4998C8.99951 11.0521 8.5518 11.4998 7.99951 11.4998ZM11.9993 11.4998C11.447 11.4998 10.9993 11.0521 10.9993 10.4998C10.9993 9.94753 11.447 9.49982 11.9993 9.49982C12.5516 9.49982 12.9993 9.94753 12.9993 10.4998C12.9993 11.0521 12.5516 11.4998 11.9993 11.4998ZM16.9998 10.4998C16.9998 11.0521 16.552 11.4998 15.9998 11.4998C15.4475 11.4998 14.9998 11.0521 14.9998 10.4998C14.9998 9.94753 15.4475 9.49982 15.9998 9.49982C16.552 9.49982 16.9998 9.94753 16.9998 10.4998Z" fill="black"/>
</svg>
