<svg width="24" height="24" viewBox="0 0 24 24" fill="none" xmlns="http://www.w3.org/2000/svg">
<path d="M13.2374 2.17675L16.3107 5.24997H20C20.9665 5.24997 21.75 6.03347 21.75 6.99997V20C21.75 20.9665 20.9665 21.75 20 21.75H4C3.0335 21.75 2.25 20.9665 2.25 20V6.99997C2.25 6.03347 3.0335 5.24997 4 5.24997H7.68934L10.7626 2.17675C11.446 1.49333 12.554 1.49333 13.2374 2.17675ZM14.1893 5.24997L12.1768 3.23741C12.0791 3.13978 11.9209 3.13978 11.8232 3.23741L9.81066 5.24997H14.1893ZM20 6.74997H4C3.86193 6.74997 3.75 6.8619 3.75 6.99997V17.3619L10.6138 8.7821L14.0085 13.2297L15.4999 11.3316L20.25 17.3771V6.99997C20.25 6.8619 20.1381 6.74997 20 6.74997ZM20.25 17.75H3.75V20C3.75 20.138 3.86193 20.25 4 20.25H20C20.1381 20.25 20.25 20.138 20.25 20V17.75ZM17.4568 16.25L15.4999 13.7594L13.9913 15.6795L10.586 11.218L6.56039 16.25H17.4568Z" fill="black"/>
</svg>
