<svg width="24" height="24" viewBox="0 0 24 24" fill="none" xmlns="http://www.w3.org/2000/svg">
<path d="M11 8.5C11 7.11929 9.88071 6 8.5 6C7.11929 6 6 7.11929 6 8.5C6 9.88071 7.11929 11 8.5 11C9.88071 11 11 9.88071 11 8.5ZM9.5 8.5C9.5 9.05228 9.05228 9.5 8.5 9.5C7.94772 9.5 7.5 9.05228 7.5 8.5C7.5 7.94772 7.94772 7.5 8.5 7.5C9.05228 7.5 9.5 7.94772 9.5 8.5Z" fill="black"/>
<path d="M5 2C3.34315 2 2 3.34315 2 5V19C2 20.6569 3.34315 22 5 22H19C20.6569 22 22 20.6569 22 19V5C22 3.34315 20.6569 2 19 2H5ZM19 3.5C19.8284 3.5 20.5 4.17157 20.5 5V15.427L19.9496 14.9532C18.0008 13.2761 17.0455 12.454 16.5221 11.9465C16.1045 11.5416 15.5941 11.25 15 11.25C14.4076 11.25 13.8984 11.54 13.4814 11.9432L4.52008 20.4216C3.92702 20.2214 3.5 19.6606 3.5 19V5C3.5 4.17157 4.17157 3.5 5 3.5H19ZM19 20.5H6.61976L14.5154 13.0298L14.5221 13.0235C14.7715 12.7817 14.9276 12.75 15 12.75C15.0724 12.75 15.2285 12.7817 15.4779 13.0235C16.0362 13.5647 17.0385 14.4272 18.9905 16.1069L18.9936 16.1096C19.4433 16.4966 19.9434 16.9269 20.5 17.4066V19C20.5 19.8284 19.8284 20.5 19 20.5Z" fill="black"/>
</svg>
