<svg width="24" height="24" viewBox="0 0 24 24" fill="none" xmlns="http://www.w3.org/2000/svg">
<path d="M12.6969 20.2611L13.2487 20.7691L12.6969 20.2611ZM11.3035 20.2611L10.7518 20.7691L11.3035 20.2611ZM18.2502 10C18.2502 10.6149 18.0204 11.4063 17.5863 12.3248C17.1582 13.2305 16.5616 14.1976 15.898 15.1461C14.5713 17.0424 13.021 18.8019 12.1452 19.7532L13.2487 20.7691C14.1434 19.7973 15.7447 17.9817 17.127 16.006C17.818 15.0184 18.4653 13.9752 18.9424 12.9658C19.4134 11.9692 19.7502 10.9406 19.7502 10H18.2502ZM11.8553 19.7532C10.9795 18.8019 9.4292 17.0424 8.10247 15.1461C7.4389 14.1976 6.84232 13.2305 6.41422 12.3248C5.98007 11.4063 5.75024 10.6149 5.75024 10H4.25024C4.25024 10.9406 4.58699 11.9692 5.05808 12.9658C5.5352 13.9752 6.18248 15.0184 6.87341 16.006C8.25571 17.9817 9.85706 19.7973 10.7518 20.7691L11.8553 19.7532ZM5.75024 10C5.75024 6.54822 8.54846 3.75 12.0002 3.75V2.25C7.72003 2.25 4.25024 5.7198 4.25024 10H5.75024ZM12.0002 3.75C15.4519 3.75 18.2502 6.54822 18.2502 10H19.7502C19.7502 5.7198 16.2804 2.25 12.0002 2.25V3.75ZM12.1452 19.7532C12.0632 19.8423 11.9373 19.8423 11.8553 19.7532L10.7518 20.7691C11.428 21.5035 12.5725 21.5035 13.2487 20.7691L12.1452 19.7532ZM14.2502 10C14.2502 11.2426 13.2429 12.25 12.0002 12.25V13.75C14.0713 13.75 15.7503 12.0711 15.7503 10H14.2502ZM12.0002 12.25C10.7576 12.25 9.75023 11.2426 9.75023 10H8.25023C8.25023 12.0711 9.92917 13.75 12.0002 13.75V12.25ZM9.75023 10C9.75023 8.75736 10.7576 7.75 12.0002 7.75V6.25C9.92917 6.25 8.25023 7.92892 8.25023 10H9.75023ZM12.0002 7.75C13.2429 7.75 14.2502 8.75736 14.2502 10H15.7503C15.7503 7.92892 14.0713 6.25 12.0002 6.25V7.75Z" fill="#94969D"/>
</svg>
