<svg width="24" height="24" viewBox="0 0 24 24" fill="none" xmlns="http://www.w3.org/2000/svg">
<path d="M20 12C20 7.58172 16.4183 4 12 4C7.58172 4 4 7.58172 4 12C4 16.4183 7.58172 20 12 20C16.4183 20 20 16.4183 20 12ZM22 12C22 17.5228 17.5228 22 12 22C6.47715 22 2 17.5228 2 12C2 6.47715 6.47715 2 12 2C17.5228 2 22 6.47715 22 12ZM9.99805 9.55307H7.99805C7.99805 7.21876 9.93056 5.56104 12.0316 5.56104C14.161 5.56104 16.0001 7.24609 16.0001 9.55307C16.0001 10.5696 15.5498 11.247 15.0377 11.7732C14.8404 11.976 14.6159 12.1742 14.4146 12.3519L14.3042 12.4496C14.0639 12.663 13.838 12.8707 13.6222 13.1092C13.2051 13.5703 13.0001 14.0706 13.0001 14.7212H11.0001C11.0001 13.5587 11.4002 12.5842 12.1391 11.7674C12.4309 11.4449 12.7237 11.1784 12.976 10.9543L13.1061 10.8391C13.3074 10.6611 13.4645 10.5221 13.6044 10.3784C13.8982 10.0765 14.0001 9.87226 14.0001 9.55307C14.0001 8.39027 13.0964 7.56104 12.0316 7.56104C10.9384 7.56104 9.99805 8.4176 9.99805 9.55307ZM11.0316 16H13.0316V17.3598H11.0316V16Z" fill="black"/>
</svg>
