<svg width="24" height="24" viewBox="0 0 24 24" fill="none" xmlns="http://www.w3.org/2000/svg">
<path d="M12 22C17.5228 22 22 17.5228 22 12C22 6.47715 17.5228 2 12 2C6.47715 2 2 6.47715 2 12C2 17.5228 6.47715 22 12 22ZM9.73952 9.546H8.23952C8.23952 7.35661 10.0521 5.79545 12.0317 5.79545C14.0325 5.79545 15.7586 7.37711 15.7586 9.546C15.7586 10.4773 15.3511 11.0968 14.8652 11.5961C14.6747 11.7919 14.4581 11.9831 14.256 12.1616L14.1428 12.2618C13.9004 12.4771 13.6654 12.6928 13.4394 12.9426C12.9804 13.45 12.7501 14.0117 12.7501 14.7288H11.2501C11.2501 13.6278 11.6267 12.7104 12.327 11.9363C12.61 11.6235 12.8952 11.3636 13.1467 11.1402L13.2746 11.027C13.4768 10.8483 13.6427 10.7015 13.7902 10.55C14.1124 10.2189 14.2586 9.95426 14.2586 9.546C14.2586 8.23524 13.2341 7.29545 12.0317 7.29545C10.808 7.29545 9.73952 8.25574 9.73952 9.546ZM11.2817 16.0925H12.7817V17.4561H11.2817V16.0925Z" fill="black"/>
</svg>
