<svg width="24" height="24" viewBox="0 0 24 24" fill="none" xmlns="http://www.w3.org/2000/svg">
<path d="M20 12C20 7.58172 16.4183 4 12 4C7.58172 4 4 7.58172 4 12C4 16.4183 7.58172 20 12 20C16.4183 20 20 16.4183 20 12ZM22 12C22 17.5228 17.5228 22 12 22C6.47715 22 2 17.5228 2 12C2 6.47715 6.47715 2 12 2C17.5228 2 22 6.47715 22 12ZM16.7072 8.70712L13.4143 12L16.7072 15.2929L15.293 16.7071L12.0001 13.4142L8.70718 16.7071L7.29297 15.2929L10.5859 12L7.29297 8.70712L8.70718 7.29291L12.0001 10.5858L15.293 7.29291L16.7072 8.70712Z" fill="black"/>
</svg>
