<svg width="24" height="24" viewBox="0 0 24 24" fill="none" xmlns="http://www.w3.org/2000/svg">
<path d="M9.59323 2H14.4063L14.9148 5.11542C15.4864 5.35577 16.0216 5.66448 16.51 6.03113L19.4568 4.91591L21.8633 9.08414L19.4414 11.0644C19.48 11.3712 19.4998 11.6835 19.4998 12C19.4998 12.3165 19.48 12.6288 19.4414 12.9357L21.8633 14.9159L19.4561 19.0853L16.5135 17.9663C16.0241 18.3341 15.4878 18.6437 14.9148 18.8846L14.4063 22H9.59323L9.08471 18.8846C8.51313 18.6442 7.97797 18.3355 7.48952 17.9689L4.54276 19.0841L2.13623 14.9159L4.55813 12.9356C4.51958 12.6288 4.49976 12.3165 4.49976 12C4.49976 11.6835 4.51958 11.3712 4.55813 11.0643L2.13623 9.08409L4.54345 4.91467L7.48607 6.03372C7.97545 5.66594 8.51178 5.35633 9.08471 5.11542L9.59323 2ZM11.2932 4L10.867 6.61132L10.2877 6.79986C9.55838 7.03718 8.89549 7.42256 8.33511 7.92096L7.88194 8.324L5.42411 7.38931L4.71829 8.61184L6.74457 10.2686L6.61819 10.8646C6.5407 11.23 6.49976 11.6097 6.49976 12C6.49976 12.3903 6.54069 12.77 6.61819 13.1354L6.74456 13.7314L4.71829 15.3881L5.4248 16.6118L7.88612 15.6803L8.33838 16.0819C8.89807 16.5789 9.5598 16.9633 10.2877 17.2001L10.867 17.3887L11.2932 20H12.7063L13.1325 17.3887L13.7119 17.2001C14.4412 16.9628 15.104 16.5774 15.6644 16.079L16.1176 15.676L18.5754 16.6107L19.2812 15.3882L17.255 13.7314L17.3813 13.1354C17.4588 12.77 17.4998 12.3903 17.4998 12C17.4998 11.6097 17.4588 11.23 17.3814 10.8646L17.255 10.2686L19.2812 8.61188L18.5747 7.38816L16.1134 8.31966L15.6612 7.91806C15.1015 7.42107 14.4397 7.03672 13.7119 6.79986L13.1325 6.61132L12.7063 4H11.2932ZM11.9998 10C10.8952 10 9.99977 10.8954 9.99977 12C9.99977 13.1046 10.8952 14 11.9998 14C13.1043 14 13.9998 13.1046 13.9998 12C13.9998 10.8954 13.1043 10 11.9998 10ZM7.99977 12C7.99977 9.79086 9.79063 8 11.9998 8C14.2089 8 15.9998 9.79086 15.9998 12C15.9998 14.2091 14.2089 16 11.9998 16C9.79063 16 7.99977 14.2091 7.99977 12Z" fill="black"/>
</svg>
 