<svg width="24" height="24" viewBox="0 0 24 24" fill="none" xmlns="http://www.w3.org/2000/svg">
<path d="M16 6C16 6.69036 16.5596 7.25 17.25 7.25C17.9404 7.25 18.5 6.69036 18.5 6C18.5 5.30964 17.9404 4.75 17.25 4.75C16.5596 4.75 16 5.30964 16 6ZM17.25 2.75C19.0449 2.75 20.5 4.20507 20.5 6C20.5 7.79493 19.0449 9.25 17.25 9.25C16.3387 9.25 15.515 8.87494 14.9249 8.27077L8.9232 11.5444C8.97348 11.7716 9 12.0077 9 12.25C9 12.3316 8.99699 12.4125 8.99108 12.4926L14.9249 15.7293C15.515 15.1251 16.3387 14.75 17.25 14.75C19.0449 14.75 20.5 16.2051 20.5 18C20.5 19.7949 19.0449 21.25 17.25 21.25C15.4551 21.25 14 19.7949 14 18C14 17.8376 14.0119 17.678 14.0349 17.522L8.22705 14.3541C7.63092 15.0552 6.7424 15.5 5.75 15.5C3.95507 15.5 2.5 14.0449 2.5 12.25C2.5 10.4551 3.95507 9 5.75 9C6.57826 9 7.33416 9.30983 7.90812 9.81993L14.0349 6.47804C14.0119 6.32202 14 6.1624 14 6C14 4.20507 15.4551 2.75 17.25 2.75ZM16 18C16 18.6904 16.5596 19.25 17.25 19.25C17.9404 19.25 18.5 18.6904 18.5 18C18.5 17.3096 17.9404 16.75 17.25 16.75C16.5596 16.75 16 17.3096 16 18ZM5.75 11C5.05964 11 4.5 11.5596 4.5 12.25C4.5 12.9404 5.05964 13.5 5.75 13.5C6.44036 13.5 7 12.9404 7 12.25C7 11.5596 6.44036 11 5.75 11Z" fill="black"/>
</svg>
