<svg width="24" height="24" viewBox="0 0 24 24" fill="none" xmlns="http://www.w3.org/2000/svg">
<path d="M12 4.67042C10.2331 6.06221 8.18913 7.0689 6 7.61986V10.7679C6 14.979 8.32776 18.8172 12 20.779C15.6722 18.8172 18 14.979 18 10.7679V7.61986C15.8109 7.0689 13.7669 6.06221 12 4.67042ZM4 6.81979C4 6.34311 4.33646 5.9327 4.80388 5.83921L4.83975 5.83204C7.22477 5.35503 9.43873 4.26672 11.2683 2.6813C11.6856 2.31961 12.3144 2.31961 12.7317 2.6813C14.5613 4.26672 16.7752 5.35503 19.1602 5.83204L19.1961 5.83921C19.6635 5.9327 20 6.34311 20 6.81979V10.7679C20 16.0724 16.8598 20.8738 12 23C7.1402 20.8738 4 16.0724 4 10.7679V6.81979ZM10.9672 16.3814L7.29297 12.7071L8.70718 11.2929L11.0329 13.6187L15.8274 9.26007L17.1727 10.74L10.9672 16.3814Z" fill="black"/>
</svg>
