<svg width="24" height="24" viewBox="0 0 24 24" fill="none" xmlns="http://www.w3.org/2000/svg">
<path d="M2 3.75H4.04195L4.42498 5.32681L6.36967 15.3338C6.52949 16.1562 7.24975 16.75 8.08753 16.75H20.9474V15.25H8.08753C7.96785 15.25 7.86496 15.1652 7.84212 15.0477L7.54136 13.5H19.902L22.6625 5.54533C22.8541 4.99307 22.444 4.41667 21.8594 4.41667H5.74752L5.2212 2.25H2V3.75ZM7.24986 12L6.06767 5.91667H20.9459L18.8348 12H7.24986ZM8.78571 20C8.78571 19.8197 8.59705 19.5 8.14286 19.5C7.68866 19.5 7.5 19.8197 7.5 20C7.5 20.1803 7.68866 20.5 8.14286 20.5C8.59705 20.5 8.78571 20.1803 8.78571 20ZM19.5 20C19.5 19.8197 19.3113 19.5 18.8571 19.5C18.4029 19.5 18.2143 19.8197 18.2143 20C18.2143 20.1803 18.4029 20.5 18.8571 20.5C19.3113 20.5 19.5 20.1803 19.5 20ZM10.2857 20C10.2857 21.1046 9.32632 22 8.14286 22C6.95939 22 6 21.1046 6 20C6 18.8954 6.95939 18 8.14286 18C9.32632 18 10.2857 18.8954 10.2857 20ZM21 20C21 21.1046 20.0406 22 18.8571 22C17.6737 22 16.7143 21.1046 16.7143 20C16.7143 18.8954 17.6737 18 18.8571 18C20.0406 18 21 18.8954 21 20Z" fill="black"/>
</svg>
