<svg width="24" height="24" viewBox="0 0 24 24" fill="none" xmlns="http://www.w3.org/2000/svg">
<path d="M2.75113 15.7838H15.8708C16.2113 17.1945 17.4231 18.25 18.8853 18.25C20.6079 18.25 22 16.787 22 15C22 13.213 20.5979 11.75 18.8853 11.75C17.4231 11.75 16.2113 12.8055 15.8708 14.2162H2.75113C2.34051 14.2162 2 14.5715 2 15C2 15.4285 2.34051 15.7838 2.75113 15.7838ZM18.8853 13.3175C19.7767 13.3175 20.4977 14.0699 20.4977 15C20.4977 15.9301 19.7767 16.6825 18.8853 16.6825C17.994 16.6825 17.2729 15.9301 17.2729 15C17.2729 14.0699 17.994 13.3175 18.8853 13.3175Z" fill="black"/>
<path d="M21.2489 8.21624H8.12919C7.78868 6.80547 6.57687 5.75 5.11467 5.75C3.4021 5.75 2 7.21302 2 9C2 10.787 3.4021 12.25 5.11467 12.25C6.57687 12.25 7.78868 11.1945 8.12919 9.78376H21.2489C21.6595 9.78376 22 9.42846 22 9C22 8.57154 21.6595 8.21624 21.2489 8.21624ZM5.11467 10.6825C4.22333 10.6825 3.50225 9.93007 3.50225 9C3.50225 8.06994 4.22333 7.31752 5.11467 7.31752C6.00601 7.31752 6.72709 8.06994 6.72709 9C6.72709 9.93007 6.00601 10.6825 5.11467 10.6825Z" fill="black"/>
</svg>
