<svg width="24" height="24" viewBox="0 0 24 24" fill="none" xmlns="http://www.w3.org/2000/svg">
<path d="M12.6888 2.70335C12.5703 2.42824 12.2995 2.25 12 2.25C11.7004 2.25 11.4296 2.42824 11.3111 2.70335L9.05384 7.945L3.3712 8.47205C3.07293 8.49972 2.81973 8.7022 2.72717 8.98708C2.6346 9.27197 2.72043 9.58461 2.94547 9.78231L7.23303 13.5489L5.97825 19.1163C5.91239 19.4085 6.02673 19.7118 6.26906 19.8879C6.5114 20.064 6.83526 20.079 7.09282 19.926L12 17.0123L16.9071 19.926C17.1647 20.079 17.4885 20.064 17.7309 19.8879C17.9732 19.7118 18.0875 19.4085 18.0217 19.1163L16.7669 13.5489L21.0545 9.78231C21.2795 9.58461 21.3653 9.27197 21.2728 8.98708C21.1802 8.7022 20.927 8.49972 20.6287 8.47205L14.9461 7.945L12.6888 2.70335Z" fill="black"/>
</svg>
