<svg width="24" height="24" viewBox="0 0 24 24" fill="none" xmlns="http://www.w3.org/2000/svg">
<path d="M12 2C12.3994 2 12.7605 2.23765 12.9184 2.60447L15.117 7.70978L20.6518 8.22312C21.0495 8.26 21.3871 8.52999 21.5105 8.90983C21.634 9.28967 21.5195 9.70653 21.2195 9.97012L17.0434 13.6387L18.2656 19.0613C18.3534 19.4509 18.2009 19.8554 17.8778 20.0902C17.5547 20.3249 17.1229 20.3449 16.7795 20.141L12 17.303L7.22047 20.141C6.87706 20.3449 6.44524 20.3249 6.12213 20.0902C5.79901 19.8554 5.64657 19.4509 5.73438 19.0613L6.95652 13.6387L2.78048 9.97012C2.48043 9.70653 2.36599 9.28967 2.48941 8.90983C2.61283 8.52999 2.95043 8.26 3.34812 8.22312L8.88295 7.70978L11.0815 2.60447C11.2395 2.23765 11.6006 2 12 2ZM12 5.52827L10.485 9.0462C10.3402 9.38237 10.0234 9.61259 9.6589 9.6464L5.845 10.0001L8.72259 12.5281C8.99758 12.7696 9.11861 13.1421 9.03813 13.4992L8.19599 17.2357L11.4894 15.2802C11.8041 15.0933 12.1958 15.0933 12.5105 15.2802L15.804 17.2357L14.9618 13.4992C14.8813 13.1421 15.0024 12.7696 15.2774 12.5281L18.155 10.0001L14.3411 9.6464C13.9766 9.61259 13.6597 9.38237 13.515 9.0462L12 5.52827Z" fill="black"/>
</svg>
