<svg width="24" height="24" viewBox="0 0 24 24" fill="none" xmlns="http://www.w3.org/2000/svg">
<path d="M11.25 6V2H12.75V6H11.25Z" fill="black"/>
<path d="M11.25 22V18H12.75V22H11.25Z" fill="black"/>
<path d="M12 17C14.7614 17 17 14.7614 17 12C17 9.23858 14.7614 7 12 7C9.23858 7 7 9.23858 7 12C7 14.7614 9.23858 17 12 17Z" fill="black"/>
<path d="M22 11.25H18V12.75H22V11.25Z" fill="black"/>
<path d="M6 11.25H2V12.75H6V11.25Z" fill="black"/>
<path d="M16.7731 15.7123L19.6016 18.5408L18.5409 19.6014L15.7125 16.773L16.7731 15.7123Z" fill="black"/>
<path d="M5.45943 4.39864L8.28785 7.22706L7.22719 8.28772L4.39877 5.4593L5.45943 4.39864Z" fill="black"/>
<path d="M5.45898 19.6014L8.28741 16.773L7.22675 15.7124L4.39832 18.5408L5.45898 19.6014Z" fill="black"/>
<path d="M16.7727 8.28773L19.6011 5.4593L18.5405 4.39864L15.712 7.22707L16.7727 8.28773Z" fill="black"/>
</svg>
