<svg width="24" height="24" viewBox="0 0 24 24" fill="none" xmlns="http://www.w3.org/2000/svg">
<path d="M11.25 6V2H12.75V6H11.25Z" fill="black"/>
<path d="M11.25 22V18H12.75V22H11.25Z" fill="black"/>
<path d="M12 17C9.23858 17 7 14.7614 7 12C7 9.23858 9.23858 7 12 7C14.7614 7 17 9.23858 17 12C17 14.7614 14.7614 17 12 17Z" fill="black"/>
<path d="M22 11.25V12.75H18V11.25H22Z" fill="black"/>
<path d="M6 11.25V12.75H2V11.25H6Z" fill="black"/>
<path d="M16.7731 15.7123L19.6016 18.5408L18.5409 19.6014L15.7125 16.773L16.7731 15.7123Z" fill="black"/>
<path d="M5.45943 4.39865L8.28785 7.22707L7.22719 8.28773L4.39877 5.45931L5.45943 4.39865Z" fill="black"/>
<path d="M5.45898 19.6014L4.39832 18.5408L7.22675 15.7124L8.28741 16.773L5.45898 19.6014Z" fill="black"/>
<path d="M16.7727 8.28774L15.712 7.22708L18.5405 4.39865L19.6011 5.45931L16.7727 8.28774Z" fill="black"/>
</svg>
