<svg width="24" height="24" viewBox="0 0 24 24" fill="none" xmlns="http://www.w3.org/2000/svg">
<path d="M4 2.25C3.0335 2.25 2.25 3.0335 2.25 4V20C2.25 20.9665 3.0335 21.75 4 21.75H20C20.9665 21.75 21.75 20.9665 21.75 20V4C21.75 3.0335 20.9665 2.25 20 2.25H4ZM3.75 7H8.25V10.25H3.75V7ZM9.75 7H14.25V10.25H9.75V7ZM15.75 7H20.25V10.25H15.75V7ZM15.75 11.75H20.25V15.25H15.75V11.75ZM15.75 16.75H20.25V20C20.25 20.1381 20.1381 20.25 20 20.25H15.75V16.75ZM14.25 16.75V20.25H9.75V16.75H14.25ZM8.25 16.75V20.25H4C3.86193 20.25 3.75 20.1381 3.75 20V16.75H8.25ZM8.25 15.25H3.75V11.75H8.25V15.25ZM9.75 11.75H14.25V15.25H9.75V11.75Z" fill="black"/>
</svg>
