<svg width="24" height="24" viewBox="0 0 24 24" fill="none" xmlns="http://www.w3.org/2000/svg">
<path d="M2.25003 5.99999C2.25004 5.03349 3.03354 4.25 4.00003 4.25H20C20.9665 4.25 21.75 5.0335 21.75 6V10.75H21C20.3096 10.75 19.75 11.3096 19.75 12C19.75 12.6904 20.3096 13.25 21 13.25H21.75V18C21.75 18.9665 20.9665 19.75 20 19.75H4.00003C3.03354 19.75 2.25004 18.9665 2.25003 18L2.24999 13.25H3C3.69036 13.25 4.25 12.6904 4.25 12C4.25 11.3096 3.69036 10.75 3 10.75H2.24999L2.25003 5.99999ZM4.00003 5.75C3.86196 5.75 3.75003 5.86193 3.75003 6L3.75 9.35352C4.90425 9.67998 5.75 10.7412 5.75 12C5.75 13.2588 4.90425 14.32 3.75 14.6465L3.75003 18C3.75003 18.1381 3.86196 18.25 4.00003 18.25H20C20.1381 18.25 20.25 18.1381 20.25 18V14.6465C19.0958 14.32 18.25 13.2588 18.25 12C18.25 10.7412 19.0958 9.67998 20.25 9.35352V6C20.25 5.86193 20.1381 5.75 20 5.75H4.00003Z" fill="black"/>
<path d="M8.5 6.58333V5.5H9.5V6.58333H8.5ZM8.5 9.83333V7.66667H9.5V9.83333H8.5ZM8.5 13.0833V10.9167H9.5V13.0833H8.5ZM8.5 16.3333V14.1667H9.5V16.3333H8.5ZM8.5 18.5V17.4167H9.5V18.5H8.5Z" fill="black"/>
</svg>
