<svg width="24" height="24" viewBox="0 0 24 24" fill="none" xmlns="http://www.w3.org/2000/svg">
<path d="M12.3092 2C10.129 2.0046 7.93853 2.78348 6.22127 4.31539C2.12699 7.96734 1.97551 14.4295 5.5393 18.4843C7.59065 20.8182 10.4593 21.9818 13.3425 21.9999C13.5225 22.0034 13.6965 21.934 13.8256 21.8073C13.9548 21.6805 14.0284 21.507 14.0303 21.3252C14.0322 21.1434 13.962 20.9683 13.8355 20.8389C13.709 20.7095 13.5367 20.6365 13.3566 20.6362C10.8244 20.6204 8.33583 19.6055 6.55147 17.5751C3.47397 14.0737 3.60314 8.46952 7.11381 5.33803C10.2291 2.55925 15.1951 2.68591 17.9473 5.89906C20.3559 8.71097 20.2294 13.184 17.399 15.6293C14.9652 17.7317 11.1218 17.6052 9.04732 15.0823C7.30373 12.9622 7.4273 9.62484 9.57452 7.86631C11.3232 6.43446 14.0481 6.55681 15.4447 8.3847C16.5316 9.80723 16.4156 12.0091 14.9596 13.0795C13.9057 13.8541 12.2949 13.7498 11.5781 12.6321C11.3519 12.2796 11.2518 11.7942 11.318 11.3821C11.3843 10.9701 11.579 10.6499 11.9438 10.4588C12.0934 10.3805 12.3765 10.3461 12.5625 10.3949C12.6241 10.4111 12.6526 10.4265 12.689 10.4447V10.4449C12.5339 10.4862 12.3985 10.5822 12.3069 10.7153C12.2156 10.8485 12.174 11.0102 12.19 11.1716C12.2059 11.3328 12.2781 11.4831 12.3936 11.5953C12.594 11.7984 12.9599 11.955 13.2794 11.8865C13.599 11.8181 13.7792 11.6156 13.8981 11.4461C14.136 11.1075 14.2564 10.8182 14.1513 10.3381C14.0029 9.6615 13.441 9.21571 12.8999 9.07399C12.3587 8.93227 11.8025 8.99775 11.3181 9.25156C10.5488 9.6547 10.1117 10.4022 9.9894 11.162C9.86729 11.9219 10.0263 12.7158 10.4463 13.3709C11.6261 15.2103 14.1225 15.3796 15.754 14.1805C17.8772 12.6199 18.038 9.5498 16.5132 7.55427C14.6233 5.08052 11.0332 4.91753 8.72372 6.80853C5.95619 9.07461 5.8005 13.2663 8.0066 15.949C10.5864 19.0858 15.2911 19.2393 18.2777 16.6592C21.7053 13.6981 21.8522 8.37347 18.9667 5.00456C17.335 3.0996 15.0666 2.11307 12.7449 2.00747C12.5997 2.00081 12.4543 2.00001 12.309 2.00034L12.3092 2Z" fill="black"/>
</svg>
