<svg width="24" height="24" viewBox="0 0 24 24" fill="none" xmlns="http://www.w3.org/2000/svg">
<path d="M2.25 6.05303C2.25 5.05724 3.05359 4.25 4.04487 4.25H20.4551C21.4464 4.25 22.25 5.05724 22.25 6.05303V16.3561C22.25 17.3518 21.4464 18.1591 20.4551 18.1591H13.0192V19.7045H17.3782V21.25H7.12179V19.7045H11.4808V18.1591H4.04487C3.05359 18.1591 2.25 17.3518 2.25 16.3561V6.05303ZM4.04487 5.79545C3.90326 5.79545 3.78846 5.91078 3.78846 6.05303V16.3561C3.78846 16.4983 3.90326 16.6136 4.04487 16.6136H20.4551C20.5967 16.6136 20.7115 16.4983 20.7115 16.3561V6.05303C20.7115 5.91078 20.5967 5.79545 20.4551 5.79545H4.04487Z" fill="black"/>
<path d="M12.25 8.88636C11.4085 8.88636 10.74 9.56241 10.74 10.3794C10.74 11.1964 11.4085 11.8724 12.25 11.8724C13.0915 11.8724 13.76 11.1964 13.76 10.3794C13.76 9.56241 13.0915 8.88636 12.25 8.88636ZM9.20155 10.3794C9.20155 8.69368 10.574 7.34091 12.25 7.34091C13.926 7.34091 15.2984 8.69368 15.2984 10.3794C15.2984 12.0651 13.926 13.4179 12.25 13.4179C10.574 13.4179 9.20155 12.0651 9.20155 10.3794ZM12.25 16.0985C10.974 16.0985 9.87556 16.7339 9.2581 17.7804L7.93465 16.9924C8.83453 15.4672 10.4413 14.553 12.25 14.553C14.0586 14.553 15.6655 15.4672 16.5653 16.9924L15.2419 17.7804C14.6244 16.7339 13.5259 16.0985 12.25 16.0985Z" fill="black"/>
</svg>
