<svg width="24" height="24" viewBox="0 0 24 24" fill="none" xmlns="http://www.w3.org/2000/svg">
<path d="M12 2.75C9.6528 2.75 7.75001 4.65279 7.75001 7C7.75001 9.34721 9.6528 11.25 12 11.25C14.3472 11.25 16.25 9.34721 16.25 7C16.25 4.65279 14.3472 2.75 12 2.75ZM6.25001 7C6.25001 3.82436 8.82437 1.25 12 1.25C15.1756 1.25 17.75 3.82436 17.75 7C17.75 10.1756 15.1756 12.75 12 12.75C8.82437 12.75 6.25001 10.1756 6.25001 7ZM4.0611 21.25H19.9389C18.5814 17.991 15.5202 15.75 12 15.75C8.47985 15.75 5.41861 17.991 4.0611 21.25ZM2.2809 21.787C3.56712 17.4451 7.41077 14.25 12 14.25C16.5892 14.25 20.4329 17.4451 21.7191 21.787C21.7863 22.0139 21.7425 22.2591 21.601 22.4487C21.4594 22.6383 21.2366 22.75 21 22.75H3.00001C2.76338 22.75 2.54064 22.6383 2.39906 22.4487C2.25749 22.2591 2.21369 22.0139 2.2809 21.787Z" fill="black"/>
</svg>
