<svg width="24" height="24" viewBox="0 0 24 24" fill="none" xmlns="http://www.w3.org/2000/svg">
<path d="M8.50002 4.75C6.62698 4.75 5.08336 6.30293 5.08336 8.25C5.08336 10.1971 6.62698 11.75 8.50002 11.75C10.3731 11.75 11.9167 10.1971 11.9167 8.25C11.9167 6.30293 10.3731 4.75 8.50002 4.75ZM3.58336 8.25C3.58336 5.50265 5.77069 3.25 8.50002 3.25C11.2294 3.25 13.4167 5.50265 13.4167 8.25C13.4167 10.9974 11.2294 13.25 8.50002 13.25C5.77069 13.25 3.58336 10.9974 3.58336 8.25ZM18 9.75C16.873 9.75 15.9722 10.6525 15.9722 11.75C15.9722 12.8475 16.873 13.75 18 13.75C19.1271 13.75 20.0278 12.8475 20.0278 11.75C20.0278 10.6525 19.1271 9.75 18 9.75ZM14.4722 11.75C14.4722 9.80991 16.0588 8.25 18 8.25C19.9412 8.25 21.5278 9.80991 21.5278 11.75C21.5278 13.6901 19.9412 15.25 18 15.25C16.0588 15.25 14.4722 13.6901 14.4722 11.75ZM8.50002 15.8C5.35662 15.8 2.64111 18.0385 1.72026 21.2092L0.279785 20.7908C1.36204 17.0644 4.60474 14.3 8.50002 14.3C11.0351 14.3 13.3005 15.4754 14.8667 17.3222C15.7765 16.7387 16.8497 16.4 18 16.4C20.7073 16.4 22.9646 18.2654 23.7185 20.785L22.2815 21.215C21.7 19.2718 19.9853 17.9 18 17.9C17.1782 17.9 16.4067 18.1332 15.7415 18.5439C16.1566 19.2357 16.4878 19.9903 16.7203 20.7908L15.2798 21.2092C15.0226 20.3236 14.6236 19.5081 14.1132 18.7937C12.8017 16.9579 10.7662 15.8 8.50002 15.8Z" fill="black"/>
</svg>
