<svg width="24" height="24" viewBox="0 0 24 24" fill="none" xmlns="http://www.w3.org/2000/svg">
<path d="M12 1.25C8.82437 1.25 6.25001 3.82436 6.25001 7C6.25001 10.1756 8.82437 12.75 12 12.75C15.1756 12.75 17.75 10.1756 17.75 7C17.75 3.82436 15.1756 1.25 12 1.25Z" fill="black"/>
<path d="M12 14.25C7.41077 14.25 3.56712 17.4451 2.2809 21.787C2.21369 22.0139 2.25749 22.2591 2.39906 22.4487C2.54064 22.6383 2.76338 22.75 3.00001 22.75H21C21.2366 22.75 21.4594 22.6383 21.601 22.4487C21.7425 22.2591 21.7863 22.0139 21.7191 21.787C20.4329 17.4451 16.5892 14.25 12 14.25Z" fill="black"/>
</svg>
