<svg width="24" height="24" viewBox="0 0 24 24" fill="none" xmlns="http://www.w3.org/2000/svg">
<path d="M12 7.25C10.3659 7.25 9.02777 8.56299 9.02777 10.1991C9.02777 11.8352 10.3659 13.1482 12 13.1482C13.6341 13.1482 14.9722 11.8352 14.9722 10.1991C14.9722 8.56299 13.6341 7.25 12 7.25ZM10.5278 10.1991C10.5278 9.40616 11.1795 8.75 12 8.75C12.8205 8.75 13.4722 9.40616 13.4722 10.1991C13.4722 10.9921 12.8205 11.6482 12 11.6482C11.1795 11.6482 10.5278 10.9921 10.5278 10.1991Z" fill="black"/>
<path d="M8.71849 17.7151C9.16634 16.219 10.4838 15.1712 12 15.1712C13.5162 15.1712 14.8336 16.219 15.2815 17.7151L16.7185 17.2849C16.098 15.2122 14.2378 13.6712 12 13.6712C9.76221 13.6712 7.90197 15.2122 7.2815 17.2849L8.71849 17.7151Z" fill="black"/>
<path d="M19.75 4C19.75 3.0335 18.9665 2.25 18 2.25L12.75 2.25V0H11.25V2.25L6 2.25C5.0335 2.25 4.25 3.0335 4.25 4V20C4.25 20.9665 5.0335 21.75 6 21.75H18C18.9665 21.75 19.75 20.9665 19.75 20L19.75 4ZM11.25 4.5C11.25 4.91421 11.5858 5.25 12 5.25C12.4142 5.25 12.75 4.91421 12.75 4.5V3.75L18 3.75C18.1381 3.75 18.25 3.86193 18.25 4L18.25 20C18.25 20.1381 18.1381 20.25 18 20.25H6C5.86193 20.25 5.75 20.1381 5.75 20L5.75 4C5.75 3.86193 5.86193 3.75 6 3.75L11.25 3.75V4.5Z" fill="black"/>
</svg>
