<?xml version="1.0" standalone="no"?>
<!DOCTYPE svg PUBLIC "-//W3C//DTD SVG 20010904//EN"
 "http://www.w3.org/TR/2001/REC-SVG-20010904/DTD/svg10.dtd">
<svg version="1.0" xmlns="http://www.w3.org/2000/svg"
 width="495.000000pt" height="128.000000pt" viewBox="0 0 495.000000 128.000000"
 preserveAspectRatio="xMidYMid meet">

<g transform="translate(0.000000,128.000000) scale(0.100000,-0.100000)"
fill="#000000" stroke="none">
<path d="M1345 640 c0 -327 1 -461 2 -297 2 163 2 431 0 595 -1 163 -2 29 -2
-298z"/>
<path d="M532 1042 c-62 -22 -114 -62 -159 -121 -50 -65 -63 -124 -63 -286 0
-158 6 -175 67 -175 52 0 57 18 63 186 5 151 5 152 36 196 41 56 102 88 167
88 99 0 175 -61 198 -157 18 -75 27 -92 54 -105 22 -10 30 -8 53 9 24 19 27
27 26 79 -2 107 -77 220 -180 270 -75 37 -185 43 -262 16z" fill="#1e88e5"/>
<path d="M1790 635 l0 -325 90 0 90 0 0 325 0 325 -90 0 -90 0 0 -325z"/>
<path d="M3030 635 l0 -325 90 0 90 0 0 325 0 325 -90 0 -90 0 0 -325z"/>
<path d="M2660 865 c0 -73 -1 -75 -25 -75 -24 0 -25 -2 -25 -65 0 -63 1 -65
25 -65 l25 0 0 -102 c1 -140 11 -186 48 -220 42 -36 102 -44 183 -24 35 9 67
20 72 25 4 4 1 37 -8 74 l-17 65 -30 -9 c-57 -16 -68 0 -68 101 l0 90 45 0 45
0 0 65 0 65 -45 0 -45 0 0 75 0 75 -90 0 -90 0 0 -75z"/>
<path d="M2315 788 c-16 -6 -42 -20 -57 -30 l-28 -19 0 25 c0 26 -1 26 -80 26
l-80 0 0 -240 0 -240 85 0 85 0 0 136 0 136 34 34 c41 41 58 42 85 8 19 -24
21 -40 21 -170 l0 -144 85 0 85 0 0 188 c0 211 -11 257 -69 286 -34 18 -121
20 -166 4z"/>
<path d="M3432 787 c-53 -17 -128 -90 -146 -144 -43 -125 5 -253 117 -310 43
-22 66 -26 127 -26 93 0 150 23 205 84 l39 44 -88 27 c-77 24 -90 25 -103 13
-36 -37 -97 -24 -124 26 -17 33 -5 110 21 131 27 22 78 23 101 2 15 -14 25
-13 103 11 l86 26 -19 27 c-49 70 -118 102 -216 101 -38 -1 -85 -6 -103 -12z"/>
<path d="M3940 784 c-97 -42 -150 -123 -150 -229 1 -151 100 -245 260 -245
162 0 260 93 260 245 0 107 -44 179 -135 221 -60 29 -179 32 -235 8z m168
-160 c31 -35 31 -103 -1 -140 -52 -61 -137 -18 -137 69 0 94 79 135 138 71z"/>
<path d="M4374 787 c-2 -7 -3 -116 -2 -242 l3 -230 85 0 85 0 3 142 3 142 30
25 c36 31 60 33 82 8 13 -15 17 -46 19 -167 l3 -150 85 0 85 0 0 190 c-1 208
-6 231 -62 275 -24 19 -38 21 -104 18 -62 -2 -83 -8 -117 -31 l-42 -27 0 30 0
30 -75 0 c-52 0 -77 -4 -81 -13z"/>
<path d="M623 725 c-20 -14 -21 -25 -25 -162 -3 -130 -6 -153 -26 -190 -61
-116 -219 -142 -316 -53 -41 38 -59 73 -70 142 -8 46 -29 68 -65 68 -40 0 -61
-28 -61 -83 0 -138 122 -277 270 -306 148 -29 302 51 366 192 26 57 29 73 32
207 4 137 3 147 -18 173 -24 30 -55 35 -87 12z"/>
</g>
</svg>
