<svg width="24" height="24" viewBox="0 0 24 24" fill="none" xmlns="http://www.w3.org/2000/svg">
<path d="M3.53572 10.0667C3.53572 6.76954 6.03774 4.06148 9.25 3.69277V1H10.75V3.69277C13.9623 4.06149 16.4643 6.76954 16.4643 10.0667V14.3713L18.6224 17.5816C18.777 17.8115 18.7922 18.108 18.6619 18.3526C18.5317 18.5972 18.2771 18.75 18 18.75H15.7143H4.28572H2C1.72288 18.75 1.46835 18.5972 1.33806 18.3526C1.20778 18.108 1.22297 17.8115 1.37758 17.5816L3.53572 14.3713V10.0667ZM5.03572 10.0667V14.6C5.03572 14.7491 4.9913 14.8947 4.90814 15.0184L3.40793 17.25H4.28572H15.7143H16.5921L15.0919 15.0184C15.0087 14.8947 14.9643 14.7491 14.9643 14.6V10.0667C14.9643 7.35717 12.7476 5.15 10 5.15C7.25237 5.15 5.03572 7.35717 5.03572 10.0667ZM10.5 20H12C12 20.5973 11.7381 21.1335 11.3229 21.5C10.9703 21.8112 10.5072 22 10 22C9.49278 22 9.02966 21.8112 8.67709 21.5C8.26188 21.1335 8 20.5973 8 20H9.5H10.5ZM19.25 5.25H17V3.75H19.25V1.5L20.75 1.5V3.75H23V5.25H20.75V7.5H19.25V5.25Z" fill="black"/>
</svg>
