<svg width="24" height="24" viewBox="0 0 24 24" fill="none" xmlns="http://www.w3.org/2000/svg">
<path d="M11.25 4.29847C8.42873 4.66598 6.25 7.07855 6.25 10V13.7729L4.37596 16.584C4.22254 16.8141 4.20823 17.11 4.33875 17.3539C4.46926 17.5978 4.7234 17.75 5 17.75H19C19.2766 17.75 19.5307 17.5978 19.6613 17.3539C19.7918 17.11 19.7775 16.8141 19.624 16.584L17.75 13.7729V10C17.75 7.07855 15.5713 4.66598 12.75 4.29847V2H11.25V4.29847ZM12 5.75C14.3472 5.75 16.25 7.65279 16.25 10V14C16.25 14.1481 16.2938 14.2928 16.376 14.416L17.5986 16.25H6.40139L7.62404 14.416C7.70617 14.2928 7.75 14.1481 7.75 14V10C7.75 7.65279 9.65279 5.75 12 5.75ZM14 19H10C10 19.5973 10.2619 20.1335 10.6771 20.5C11.0297 20.8112 11.4928 21 12 21C12.5072 21 12.9703 20.8112 13.3229 20.5C13.7381 20.1335 14 19.5973 14 19ZM4.46552 8.17583C4.90251 6.36383 5.97749 4.79815 7.44143 3.73157L6.55815 2.51921C4.8138 3.79008 3.52986 5.65748 3.00732 7.82416L4.46552 8.17583ZM16.5582 3.73157C18.0221 4.79815 19.0971 6.36383 19.5341 8.17583L20.9923 7.82416C20.4697 5.65748 19.1858 3.79008 17.4414 2.51921L16.5582 3.73157Z" fill="black"/>
</svg>
