<svg width="24" height="24" viewBox="0 0 24 24" fill="none" xmlns="http://www.w3.org/2000/svg">
<path d="M1.65929 3.75992C3.0178 3.26761 4.47933 3 6 3C8.16347 3 10.205 3.54157 12 4.49878C13.795 3.54157 15.8365 3 18 3C19.5207 3 20.9822 3.26761 22.3407 3.75992L23 3.99884V20.4801L21.6593 19.9943C20.5156 19.5798 19.2844 19.354 18 19.354C15.9998 19.354 14.126 19.9017 12.5101 20.8601L12 21.1627L11.4899 20.8601C9.87403 19.9017 8.00025 19.354 6 19.354C4.71558 19.354 3.48443 19.5798 2.34071 19.9943L1 20.4801V3.99884L1.65929 3.75992ZM11 6.23234C9.49988 5.44415 7.80122 5 6 5C4.95894 5 3.95288 5.14833 3 5.42524V17.7102C3.96364 17.4772 4.96821 17.354 6 17.354C7.77119 17.354 9.46063 17.717 11 18.3739V6.23234ZM13 18.3739C14.5394 17.717 16.2288 17.354 18 17.354C19.0318 17.354 20.0364 17.4772 21 17.7102V5.42524C20.0471 5.14833 19.0411 5 18 5C16.1988 5 14.5001 5.44415 13 6.23234V18.3739Z" fill="black"/>
</svg>
