<svg width="24" height="24" viewBox="0 0 24 24" fill="none" xmlns="http://www.w3.org/2000/svg">
<path d="M6.25 3.25H4C3.0335 3.25 2.25 4.0335 2.25 5V20C2.25 20.9665 3.0335 21.75 4 21.75H20C20.9665 21.75 21.75 20.9665 21.75 20V5C21.75 4.0335 20.9665 3.25 20 3.25H17.75V1H16.25V3.25H7.75V1H6.25V3.25ZM4 4.75H20C20.1381 4.75 20.25 4.86193 20.25 5V8.2H3.75V5C3.75 4.86193 3.86193 4.75 4 4.75ZM20.25 9.7V20C20.25 20.1381 20.1381 20.25 20 20.25H4C3.86193 20.25 3.75 20.1381 3.75 20V9.7H20.25ZM12.25 13.25H18.75V18.75H12.25V13.25ZM13.75 14.75V17.25H17.25V14.75H13.75Z" fill="black"/>
</svg>
