<svg width="24" height="24" viewBox="0 0 24 24" fill="none" xmlns="http://www.w3.org/2000/svg">
<path d="M17 12C17 14.7614 14.7614 17 12 17C9.23858 17 7 14.7614 7 12C7 9.23858 9.23858 7 12 7C14.7614 7 17 9.23858 17 12ZM8.5 12C8.5 13.933 10.067 15.5 12 15.5C13.933 15.5 15.5 13.933 15.5 12C15.5 10.067 13.933 8.5 12 8.5C10.067 8.5 8.5 10.067 8.5 12Z" fill="black"/>
<path d="M9.41421 3.25C8.95008 3.25 8.50497 3.43437 8.17678 3.76256L6.76256 5.17678C6.71568 5.22366 6.65209 5.25 6.58579 5.25H3C2.0335 5.25 1.25 6.0335 1.25 7V18C1.25 18.9665 2.0335 19.75 3 19.75H21C21.9665 19.75 22.75 18.9665 22.75 18V7C22.75 6.0335 21.9665 5.25 21 5.25H17.4142C17.3479 5.25 17.2843 5.22366 17.2374 5.17678L15.8232 3.76256C15.495 3.43437 15.0499 3.25 14.5858 3.25H9.41421ZM9.23744 4.82322C9.28432 4.77634 9.34791 4.75 9.41421 4.75H14.5858C14.6521 4.75 14.7157 4.77634 14.7626 4.82322L16.1768 6.23744C16.505 6.56563 16.9501 6.75 17.4142 6.75H21C21.1381 6.75 21.25 6.86193 21.25 7V18C21.25 18.1381 21.1381 18.25 21 18.25H3C2.86193 18.25 2.75 18.1381 2.75 18V7C2.75 6.86193 2.86193 6.75 3 6.75H6.58579C7.04992 6.75 7.49503 6.56563 7.82322 6.23744L9.23744 4.82322Z" fill="black"/>
</svg>
