<svg width="24" height="24" viewBox="0 0 24 24" fill="none" xmlns="http://www.w3.org/2000/svg">
<path d="M1.5 4.44828H3.47193L3.84183 5.97071L5.71983 15.6326C5.87417 16.4267 6.56974 17 7.37879 17H19.7977V15.5517H7.37879C7.26321 15.5517 7.16385 15.4698 7.14179 15.3564L6.85135 13.8621H18.7881L21.454 6.1817C21.639 5.64848 21.243 5.09196 20.6784 5.09196H5.11902L4.61075 3H1.5V4.44828Z" fill="black"/>
<path d="M7.50001 22C8.60458 22 9.5 21.1046 9.5 20C9.5 18.8954 8.60458 18 7.50001 18C6.39543 18 5.5 18.8954 5.5 20C5.5 21.1046 6.39543 22 7.50001 22ZM7.50001 20.5C7.07609 20.5 6.9 20.1803 6.9 20C6.9 19.8197 7.07609 19.5 7.50001 19.5C7.92392 19.5 8.10001 19.8197 8.10001 20C8.10001 20.1803 7.92392 20.5 7.50001 20.5Z" fill="black"/>
<path d="M17.5 22C18.6046 22 19.5 21.1046 19.5 20C19.5 18.8954 18.6046 18 17.5 18C16.3954 18 15.5 18.8954 15.5 20C15.5 21.1046 16.3954 22 17.5 22ZM17.5 20.5C17.076 20.5 16.9 20.1803 16.9 20C16.9 19.8197 17.076 19.5 17.5 19.5C17.9239 19.5 18.1 19.8197 18.1 20C18.1 20.1803 17.9239 20.5 17.5 20.5Z" fill="black"/>
</svg>
