<svg width="24" height="24" viewBox="0 0 24 24" fill="none" xmlns="http://www.w3.org/2000/svg">
<path d="M1.5 4.44304H3.47193L3.84183 5.95997L5.71983 15.5869C5.87417 16.3781 6.56974 16.9494 7.37879 16.9494H19.7977V15.5063H7.37879C7.26321 15.5063 7.16385 15.4247 7.14179 15.3117L6.85135 13.8228H18.7881L21.454 6.17019C21.639 5.6389 21.243 5.08439 20.6784 5.08439H5.11902L4.61075 3H1.5V4.44304ZM6.56984 12.3797L5.42819 6.52743H19.7962L17.7575 12.3797H6.56984ZM8.05303 20.076C8.05303 19.9025 7.87084 19.5949 7.43222 19.5949C6.9936 19.5949 6.81141 19.9025 6.81141 20.076C6.81141 20.2494 6.9936 20.557 7.43222 20.557C7.87084 20.557 8.05303 20.2494 8.05303 20.076ZM18.3999 20.076C18.3999 19.9025 18.2177 19.5949 17.7791 19.5949C17.3404 19.5949 17.1583 19.9025 17.1583 20.076C17.1583 20.2494 17.3404 20.557 17.7791 20.557C18.2177 20.557 18.3999 20.2494 18.3999 20.076ZM9.50159 20.076C9.50159 21.1386 8.5751 22 7.43222 22C6.28933 22 5.36284 21.1386 5.36284 20.076C5.36284 19.0133 6.28933 18.1519 7.43222 18.1519C8.5751 18.1519 9.50159 19.0133 9.50159 20.076ZM19.8485 20.076C19.8485 21.1386 18.922 22 17.7791 22C16.6363 22 15.7097 21.1386 15.7097 20.076C15.7097 19.0133 16.6363 18.1519 17.7791 18.1519C18.922 18.1519 19.8485 19.0133 19.8485 20.076Z" fill="black"/>
</svg>
