<svg width="24" height="24" viewBox="0 0 24 24" fill="none" xmlns="http://www.w3.org/2000/svg">
<path d="M1 4.44304H2.97193L3.34183 5.95997L5.21983 15.5869C5.37417 16.3781 6.06974 16.9494 6.87879 16.9494H19.2977V15.5063H6.87879C6.76321 15.5063 6.66385 15.4247 6.64179 15.3117L6.35135 13.8228H18.2881L20.954 6.17019C21.139 5.6389 20.743 5.08439 20.1784 5.08439H4.61902L4.11075 3H1V4.44304ZM6.06984 12.3797L4.92819 6.52743H19.2962L17.2575 12.3797H6.06984ZM7.55303 20.0759C7.55303 19.9025 7.37084 19.5949 6.93222 19.5949C6.4936 19.5949 6.31141 19.9025 6.31141 20.0759C6.31141 20.2494 6.4936 20.557 6.93222 20.557C7.37084 20.557 7.55303 20.2494 7.55303 20.0759ZM17.8999 20.0759C17.8999 19.9025 17.7177 19.5949 17.2791 19.5949C16.8404 19.5949 16.6583 19.9025 16.6583 20.0759C16.6583 20.2494 16.8404 20.557 17.2791 20.557C17.7177 20.557 17.8999 20.2494 17.8999 20.0759ZM9.00158 20.0759C9.00158 21.1386 8.0751 22 6.93222 22C5.78933 22 4.86284 21.1386 4.86284 20.0759C4.86284 19.0133 5.78933 18.1519 6.93222 18.1519C8.0751 18.1519 9.00158 19.0133 9.00158 20.0759ZM19.3485 20.0759C19.3485 21.1386 18.422 22 17.2791 22C16.1363 22 15.2097 21.1386 15.2097 20.0759C15.2097 19.0133 16.1363 18.1519 17.2791 18.1519C18.422 18.1519 19.3485 19.0133 19.3485 20.0759Z" fill="black"/>
</svg>
