<svg width="24" height="24" viewBox="0 0 24 24" fill="none" xmlns="http://www.w3.org/2000/svg">
<path d="M20 2H4C2.9 2 2 2.9 2 4V20C2 21.1 2.9 22 4 22H20C21.1 22 22 21.1 22 20V4C22 2.9 21.1 2 20 2ZM16.91 9.38L11.62 14.42C11.47 14.56 11.28 14.63 11.08 14.63C10.88 14.63 10.68 14.55 10.54 14.42L8.33 12.29C8.18 12.15 8.11 11.96 8.11 11.76C8.11 11.56 8.19 11.38 8.34 11.24C8.48 11.1 8.67 11.03 8.88 11.03C9.09 11.03 9.28 11.11 9.42 11.25L11.09 12.86L15.84 8.33C15.98 8.19 16.17 8.12 16.38 8.12C16.59 8.12 16.77 8.2 16.92 8.33C17.06 8.47 17.14 8.66 17.14 8.86C17.14 9.06 17.06 9.24 16.91 9.38V9.38Z" fill="black"/>
</svg>
