<svg width="24" height="24" viewBox="0 0 24 24" fill="none" xmlns="http://www.w3.org/2000/svg">
<path d="M5.998 5.992C4.45877 7.53277 3.50925 9.66383 3.50925 12.005C3.50925 14.3462 4.45877 16.4672 5.998 18.018C7.53723 19.5588 9.66617 20.5093 12.005 20.5093C14.3438 20.5093 16.4628 19.5588 18.012 18.018C19.5512 16.4772 20.5008 14.3462 20.5008 12.005C20.5008 9.66383 19.5512 7.54277 18.012 5.992C16.4728 4.45123 14.3438 3.50075 12.005 3.50075C9.66617 3.50075 7.54723 4.45123 5.998 5.992V5.992ZM19.0615 19.0685C17.2524 20.8794 14.7536 22 11.995 22C9.23638 22 6.73763 20.8794 4.92854 19.0685C3.11944 17.2576 2 14.7564 2 11.995C2 9.23362 3.12944 6.74237 4.93853 4.93147C6.74763 3.12056 9.24638 2 12.005 2C14.7636 2 17.2624 3.12056 19.0715 4.93147C20.8806 6.74237 22 9.24362 22 12.005C22 14.7664 20.8806 17.2676 19.0715 19.0785L19.0615 19.0685Z" fill="black"/>
<path d="M11.2754 15.2266C11.0755 15.2266 10.8955 15.1366 10.7556 14.9765L8.9865 12.9255C8.72663 12.6153 8.72663 12.1251 8.9865 11.8249C9.12643 11.6748 9.30634 11.5848 9.50624 11.5848C9.70614 11.5848 9.88605 11.6748 10.026 11.8249L11.2754 13.2756L14.9835 9.02351C15.1234 8.86343 15.3033 8.78339 15.5032 8.78339C15.7031 8.78339 15.8831 8.87343 16.023 9.02351C16.2928 9.33366 16.2829 9.82391 16.023 10.1241L11.7951 14.9665C11.6552 15.1266 11.4753 15.2066 11.2754 15.2066V15.2266Z" fill="black"/>
</svg>
