<svg width="24" height="24" viewBox="0 0 24 24" fill="none" xmlns="http://www.w3.org/2000/svg">
<path d="M7 2.53513C7.19995 2.65079 7.38895 2.78327 7.56509 2.93062C6.85494 3.24385 6.18418 3.63 5.5623 4.07959C5.38493 4.02784 5.19658 4 5 4C3.89543 4 3 4.89543 3 6C3 6.19658 3.02784 6.38493 3.07959 6.5623C2.63 7.18418 2.24385 7.85494 1.93062 8.56509C1.78327 8.38895 1.65079 8.19995 1.53513 8C1.19479 7.41165 1 6.72857 1 6C1 3.79086 2.79086 2 5 2C5.72857 2 6.41165 2.19479 7 2.53513ZM23 6C23 6.97618 22.6503 7.87068 22.0694 8.56509C21.7561 7.85473 21.3698 7.1838 20.92 6.56176C20.9721 6.38355 21 6.19504 21 6C21 4.89543 20.1046 4 19 4C18.805 4 18.6165 4.02792 18.4382 4.07998C17.8162 3.63023 17.1453 3.24394 16.4349 2.93062C17.1293 2.34968 18.0238 2 19 2C21.2091 2 23 3.79086 23 6ZM11 8H13V12.5858L15.9798 15.5656L14.5656 16.9798L11 13.4142V8ZM19 13C19 9.13401 15.866 6 12 6C8.13401 6 5 9.13401 5 13C5 16.866 8.13401 20 12 20C15.866 20 19 16.866 19 13ZM21 13C21 17.9706 16.9706 22 12 22C7.02944 22 3 17.9706 3 13C3 8.02944 7.02944 4 12 4C16.9706 4 21 8.02944 21 13Z" fill="black"/>
</svg>
