<svg width="24" height="23" viewBox="0 0 24 23" fill="none" xmlns="http://www.w3.org/2000/svg">
<path d="M5.49166 21L6.68334 16.7035C3.75 15.2323 2 12.7079 2 9.95777C2 5.56929 6.48334 2 12 2C17.5166 2 22 5.56929 22 9.95777C22 14.3462 17.5166 17.9156 12 17.9156C11.3916 17.9156 10.7916 17.8738 10.225 17.7902L10.05 17.9156C9.64166 18.2081 8.81666 18.7849 8.01666 19.3366C7.60834 19.6124 7.20834 19.8799 6.88334 20.0972L5.5 21H5.49166ZM12 3.25385C7.175 3.25385 3.25 6.26309 3.25 9.95777C3.25 12.2231 4.74166 14.3296 7.24166 15.5834L8.15834 16.0431L7.58334 18.1077C8.28334 17.623 8.95834 17.1465 9.31666 16.8957L9.9 16.4861L10.3916 16.5613C10.9 16.6366 11.4334 16.6701 11.9916 16.6701C16.8166 16.6701 20.7416 13.6608 20.7416 9.96612C20.7416 6.27144 16.825 3.25385 12 3.25385Z" fill="black" stroke="black" stroke-width="0.3"/>
</svg>
