<svg width="24" height="24" viewBox="0 0 24 24" fill="none" xmlns="http://www.w3.org/2000/svg">
<path d="M7.25 5.75H6.5C4.98122 5.75 3.75 6.98122 3.75 8.5C3.75 10.0188 4.98122 11.25 6.5 11.25H7.25V5.75ZM7.54778 12.75H6.5C4.15279 12.75 2.25 10.8472 2.25 8.5C2.25 6.32195 3.88841 4.52657 6 4.2791V3.25H18V4.2791C20.1116 4.52657 21.75 6.32195 21.75 8.5C21.75 10.8472 19.8472 12.75 17.5 12.75H16.4522C15.6075 14.1958 14.2143 15.0247 12.75 15.2349V19.25H17V20.75H7V19.25H11.25V15.2349C9.78571 15.0247 8.39254 14.1958 7.54778 12.75ZM16.75 11.25H17.5C19.0188 11.25 20.25 10.0188 20.25 8.5C20.25 6.98122 19.0188 5.75 17.5 5.75H16.75V11.25ZM15.25 4.75H8.75V11.8248C9.43231 13.1348 10.7087 13.7884 12 13.7884C13.2913 13.7884 14.5677 13.1348 15.25 11.8248V4.75Z" fill="black"/>
</svg>
