<svg width="24" height="25" viewBox="0 0 24 25" fill="none" xmlns="http://www.w3.org/2000/svg">
<circle cx="12" cy="12.5" r="12" fill="#1D77FF"/>
<path d="M7.16659 7.31498V9.37394L8.52515 10.7325L9.23226 10.0254L8.16659 8.95972V7.31498H7.16659Z" fill="white"/>
<path fill-rule="evenodd" clip-rule="evenodd" d="M10.79 8.00016C10.3171 6.73461 9.09709 5.8335 7.66659 5.8335C5.82564 5.8335 4.33325 7.32588 4.33325 9.16683C4.33325 10.0122 4.64795 10.7841 5.16659 11.3717V16.3335H6.50742C6.50246 16.3884 6.49992 16.444 6.49992 16.5002C6.49992 17.5127 7.32073 18.3335 8.33325 18.3335C9.34577 18.3335 10.1666 17.5127 10.1666 16.5002C10.1666 16.444 10.164 16.3884 10.1591 16.3335H14.5074C14.5025 16.3884 14.4999 16.444 14.4999 16.5002C14.4999 17.5127 15.3207 18.3335 16.3333 18.3335C17.3458 18.3335 18.1666 17.5127 18.1666 16.5002C18.1666 16.444 18.1641 16.3884 18.1591 16.3335H19.4999V12.9858L17.5674 10.6668H15.4999V8.00016L10.79 8.00016ZM9.99992 9.16683C9.99992 10.4555 8.95525 11.5002 7.66659 11.5002C6.37792 11.5002 5.33325 10.4555 5.33325 9.16683C5.33325 7.87817 6.37792 6.8335 7.66659 6.8335C8.95525 6.8335 9.99992 7.87817 9.99992 9.16683ZM10.9999 9.16683C10.9999 11.0078 9.50753 12.5002 7.66659 12.5002C7.12705 12.5002 6.61745 12.372 6.16659 12.1444V15.3335H6.91905C7.25484 14.9269 7.76346 14.6668 8.33325 14.6668C8.90304 14.6668 9.41167 14.9269 9.74746 15.3335H14.4999V9.00016L10.9958 9.00016C10.9985 9.05538 10.9999 9.11094 10.9999 9.16683ZM15.4999 14.3335V14.8668C15.7498 14.739 16.0331 14.6668 16.3333 14.6668C16.903 14.6668 17.4117 14.9269 17.7475 15.3335H18.4999V14.3335H15.4999ZM17.0991 11.6668L18.488 13.3335H15.4999V11.6668H17.0991ZM7.6111 16.0839C7.75594 15.8335 8.02543 15.6668 8.33325 15.6668C8.64107 15.6668 8.91056 15.8335 9.05541 16.0839C9.12602 16.2059 9.16659 16.3475 9.16659 16.5002C9.16659 16.9604 8.79349 17.3335 8.33325 17.3335C7.87301 17.3335 7.49992 16.9604 7.49992 16.5002C7.49992 16.3475 7.54049 16.2059 7.6111 16.0839ZM15.6111 16.0839C15.7559 15.8335 16.0254 15.6668 16.3333 15.6668C16.6411 15.6668 16.9106 15.8335 17.0554 16.0839C17.126 16.2059 17.1666 16.3475 17.1666 16.5002C17.1666 16.9604 16.7935 17.3335 16.3333 17.3335C15.873 17.3335 15.4999 16.9604 15.4999 16.5002C15.4999 16.3475 15.5405 16.2059 15.6111 16.0839Z" fill="white"/>
</svg>
