<svg width="24" height="24" viewBox="0 0 24 24" fill="none" xmlns="http://www.w3.org/2000/svg">
<path d="M5.11348 3H17.4491C18.0763 3 18.599 3.20264 19.0172 3.50659C19.4353 3.81055 19.749 4.31715 19.958 4.92506L21.4216 11.4095C21.5261 11.9161 21.5261 12.3213 21.4216 12.8279C21.3171 13.3345 21.108 13.7398 20.7944 14.0438C20.4807 14.449 20.0626 14.753 19.6444 14.9556C19.2263 15.1583 18.7036 15.2596 18.2854 15.2596H14.8356V18.4005C14.8356 19.0084 14.6265 19.515 14.2084 20.0216C13.7902 20.4269 13.2675 20.8321 12.7448 20.9334C12.2221 21.0348 11.6994 21.0348 11.1768 20.8321C10.6541 20.6295 10.3404 20.2242 10.1314 19.8189L7.09972 13.7398H5.11348C4.38171 13.7398 3.75447 13.4359 3.33631 13.0306C2.81362 12.4227 2.5 11.8148 2.5 11.1055V5.43166C2.5 4.82374 2.81362 4.11451 3.23177 3.70923C3.75447 3.20264 4.38171 3 5.11348 3ZM8.04058 12.1187L11.4904 19.1097C11.5949 19.211 11.6994 19.3123 11.804 19.4137C11.9085 19.515 12.1176 19.515 12.3267 19.4137C12.5358 19.4137 12.7448 19.211 12.9539 19.0084C13.0585 18.8057 13.163 18.6031 13.163 18.4005V13.7398H18.1809C18.39 13.7398 18.7036 13.6385 18.9127 13.5372C19.1217 13.4359 19.3308 13.2332 19.5399 13.1319C19.6444 12.9293 19.8535 12.7266 19.8535 12.524C19.958 12.3213 19.958 12.0174 19.8535 11.8148L18.39 5.33034C18.39 5.1277 18.1809 4.92506 18.0763 4.82374C17.8673 4.72242 17.6582 4.6211 17.4491 4.6211H8.04058V12.1187ZM4.06809 11.1055C4.06809 11.4095 4.17263 11.6121 4.38171 11.8148C4.59078 12.0174 4.79986 12.1187 5.11348 12.1187H6.47249V4.51978H5.11348C4.79986 4.51978 4.59078 4.6211 4.38171 4.82374C4.17263 5.02638 4.06809 5.22902 4.06809 5.53297V11.1055Z" fill="black"/>
</svg>
