<svg width="24" height="24" viewBox="0 0 24 24" fill="none" xmlns="http://www.w3.org/2000/svg">
<path d="M4.25 10.75C3.55964 10.75 3 11.3096 3 12C3 12.6904 3.55964 13.25 4.25 13.25C4.94036 13.25 5.5 12.6904 5.5 12C5.5 11.3096 4.94036 10.75 4.25 10.75ZM1 12C1 10.2051 2.45507 8.75 4.25 8.75C6.04493 8.75 7.5 10.2051 7.5 12C7.5 13.7949 6.04493 15.25 4.25 15.25C2.45507 15.25 1 13.7949 1 12ZM19.75 10.75C19.0596 10.75 18.5 11.3096 18.5 12C18.5 12.6904 19.0596 13.25 19.75 13.25C20.4404 13.25 21 12.6904 21 12C21 11.3096 20.4404 10.75 19.75 10.75ZM16.5 12C16.5 10.2051 17.9551 8.75 19.75 8.75C21.5449 8.75 23 10.2051 23 12C23 13.7949 21.5449 15.25 19.75 15.25C17.9551 15.25 16.5 13.7949 16.5 12ZM10.75 12C10.75 12.6904 11.3096 13.25 12 13.25C12.6904 13.25 13.25 12.6904 13.25 12C13.25 11.3096 12.6904 10.75 12 10.75C11.3096 10.75 10.75 11.3096 10.75 12ZM12 8.75C13.7949 8.75 15.25 10.2051 15.25 12C15.25 13.7949 13.7949 15.25 12 15.25C10.2051 15.25 8.75 13.7949 8.75 12C8.75 10.2051 10.2051 8.75 12 8.75Z" fill="black"/>
</svg>
