<svg width="24" height="24" viewBox="0 0 24 24" fill="none" xmlns="http://www.w3.org/2000/svg">
<path d="M17 8.86176L15.8293 10L12 6.27651L8.17062 10L7 8.86176L12 4L17 8.86176Z" fill="black"/>
<path d="M8.17062 14L12 17.7234L15.8293 14L17 15.1382L12 20L7 15.1382L8.17062 14Z" fill="black"/>
<path d="M2 3.11111C2 2.49747 2.49747 2 3.11111 2H20.8889C21.5026 2 22 2.49747 22 3.11111V20.8889C22 21.5026 21.5026 22 20.8889 22H3.11111C2.49747 22 2 21.5026 2 20.8889V3.11111ZM3.66667 20.3333H20.3333V3.66667H3.66667V20.3333Z" fill="black"/>
</svg>
