<svg width="24" height="24" viewBox="0 0 24 24" fill="none" xmlns="http://www.w3.org/2000/svg">
<path d="M7 4.75C9.34721 4.75 11.25 6.65279 11.25 9C11.25 9.41421 11.5858 9.75 12 9.75C12.4142 9.75 12.75 9.41421 12.75 9C12.75 6.65279 14.6528 4.75 17 4.75C19.3472 4.75 21.25 6.65279 21.25 9C21.25 10.058 21.1823 11.2062 20.0739 12.4993C19.472 13.2014 17.3578 15.1645 15.337 16.9991C14.3387 17.9056 13.38 18.7656 12.6707 19.3992C12.4098 19.6322 12.1828 19.8346 12 19.9972C11.8172 19.8346 11.5902 19.6322 11.3293 19.3992C10.62 18.7656 9.66133 17.9056 8.66295 16.9991C6.64224 15.1645 4.52796 13.2014 3.92615 12.4993C2.81775 11.2062 2.75 10.058 2.75 9C2.75 6.65279 4.65279 4.75 7 4.75ZM12 6.15853C11.0107 4.42138 9.14212 3.25 7 3.25C3.82436 3.25 1.25 5.82436 1.25 9C1.25 10.1932 1.33322 11.7791 2.78726 13.4755C3.46668 14.2681 5.67404 16.3115 7.65467 18.1097C8.65696 19.0197 9.61884 19.8826 10.33 20.5179C10.6856 20.8356 10.9787 21.0964 11.1829 21.2779L11.5025 21.5616C11.5025 21.5616 11.5028 21.5619 12 21.0004L11.5025 21.5616L12 22.0021L12.4972 21.5619L12 21.0004C12.4972 21.5619 12.4971 21.562 12.4972 21.5619L12.8171 21.2779C13.0213 21.0964 13.3144 20.8356 13.67 20.5179C14.3812 19.8826 15.343 19.0197 16.3453 18.1097C18.326 16.3115 20.5333 14.2681 21.2127 13.4755C22.6668 11.7791 22.75 10.1932 22.75 9C22.75 5.82436 20.1756 3.25 17 3.25C14.8579 3.25 12.9893 4.42138 12 6.15853Z" fill="black"/>
</svg>
