<svg width="24" height="24" viewBox="0 0 24 24" fill="none" xmlns="http://www.w3.org/2000/svg">
<path d="M7 3.25C9.14212 3.25 11.0107 4.42138 12 6.15853C12.9893 4.42138 14.8579 3.25 17 3.25C20.1756 3.25 22.75 5.82436 22.75 9C22.75 10.1932 22.6668 11.7791 21.2127 13.4755C20.5333 14.2681 18.326 16.3115 16.3453 18.1097C15.343 19.0197 14.3812 19.8826 13.67 20.5179C13.3144 20.8356 13.0213 21.0964 12.8171 21.2779L12.4972 21.5619L12 22.0021L11.5025 21.5616C11.5025 21.5616 11.5028 21.5619 12 21.0004L11.5025 21.5616L11.1829 21.2779C10.9787 21.0964 10.6856 20.8356 10.33 20.5179C9.61884 19.8826 8.65696 19.0197 7.65467 18.1097C5.67404 16.3115 3.46668 14.2681 2.78726 13.4755C1.33322 11.7791 1.25 10.1932 1.25 9C1.25 5.82436 3.82436 3.25 7 3.25Z" fill="black"/>
</svg>
