<svg width="24" height="24" viewBox="0 0 24 24" fill="none" xmlns="http://www.w3.org/2000/svg">
<path d="M12.3407 1.38814C12.1293 1.27069 11.8722 1.27069 11.6608 1.38814L2.66083 6.38814C2.43861 6.5116 2.30078 6.74583 2.30078 7.00005V22C2.30078 22.3866 2.61418 22.7001 3.00078 22.7001H21.0008C21.3874 22.7001 21.7008 22.3866 21.7008 22V7.00005C21.7008 6.74583 21.563 6.5116 21.3407 6.38814L12.3407 1.38814ZM15.7008 21.3V16C15.7008 15.6134 15.3874 15.3 15.0008 15.3H9.00078C8.61418 15.3 8.30078 15.6134 8.30078 16V21.3H3.70078V7.41193L12.0008 2.80082L20.3008 7.41193V21.3H15.7008ZM9.70078 21.3V16.7H14.3008V21.3H9.70078Z" fill="black"/>
</svg>
