<svg width="24" height="24" viewBox="0 0 24 24" fill="none" xmlns="http://www.w3.org/2000/svg">
<path d="M12 3.73438C8.53959 3.73438 5.73438 6.53959 5.73438 10C5.73438 10.6183 5.96532 11.4122 6.39986 12.3315C6.82847 13.2383 7.42558 14.2062 8.08943 15.1551C9.41675 17.0522 10.9676 18.8123 11.8436 19.7638C11.9318 19.8596 12.0682 19.8596 12.1564 19.7638C13.0324 18.8123 14.5833 17.0522 15.9106 15.1551C16.5744 14.2062 17.1715 13.2383 17.6001 12.3315C18.0347 11.4122 18.2656 10.6183 18.2656 10C18.2656 6.53959 15.4604 3.73438 12 3.73438ZM4.26562 10C4.26562 5.72842 7.72842 2.26562 12 2.26562C16.2716 2.26562 19.7344 5.72842 19.7344 10C19.7344 10.9372 19.3987 11.9633 18.928 12.9591C18.4514 13.9675 17.8047 15.0099 17.114 15.997C15.7323 17.9719 14.1315 19.787 13.237 20.7586C12.567 21.4863 11.433 21.4863 10.763 20.7586C9.86852 19.787 8.26769 17.9719 6.88598 15.997C6.19533 15.0099 5.54858 13.9675 5.07197 12.9591C4.60127 11.9633 4.26562 10.9372 4.26562 10ZM12 7.73438C10.7487 7.73438 9.73438 8.74873 9.73438 10C9.73438 11.2513 10.7487 12.2656 12 12.2656C13.2513 12.2656 14.2656 11.2513 14.2656 10C14.2656 8.74873 13.2513 7.73438 12 7.73438ZM8.26563 10C8.26563 7.93756 9.93756 6.26562 12 6.26562C14.0624 6.26562 15.7344 7.93756 15.7344 10C15.7344 12.0624 14.0624 13.7344 12 13.7344C9.93756 13.7344 8.26563 12.0624 8.26563 10Z" fill="black"/>
</svg>
