<svg width="24" height="24" viewBox="0 0 24 24" fill="none" xmlns="http://www.w3.org/2000/svg">
<path d="M5.5 20.7H17.3C17.9 20.7 18.4 20.5 18.8 20.2C19.2 19.9 19.5 19.4 19.7 18.8L21.1 12.4C21.2 11.9 21.2 11.5 21.1 11C21 10.5 20.8 10.1 20.5 9.80001C20.2 9.40001 19.8 9.10001 19.4 8.90001C19 8.70001 18.5 8.60001 18.1 8.60001H14.8V5.50001C14.8 4.90001 14.6 4.40001 14.2 3.90001C13.8 3.50001 13.3 3.10001 12.8 3.00001C12.3 2.90001 11.8 2.90001 11.3 3.10001C10.8 3.30001 10.5 3.70001 10.3 4.10001L7.4 10.1H5.5C4.8 10.1 4.2 10.4 3.8 10.8C3.3 11.4 3 12 3 12.7V18.3C3 18.9 3.3 19.6 3.7 20C4.2 20.5 4.8 20.7 5.5 20.7ZM8.3 11.7L11.6 4.80001C11.7 4.70001 11.8 4.60001 11.9 4.50001C12 4.40001 12.2 4.40001 12.4 4.50001C12.6 4.50001 12.8 4.70001 13 4.90001C13.1 5.10001 13.2 5.30001 13.2 5.50001V10.1H18C18.2 10.1 18.5 10.2 18.7 10.3C18.9 10.4 19.1 10.6 19.3 10.7C19.4 10.9 19.6 11.1 19.6 11.3C19.7 11.5 19.7 11.8 19.6 12L18.2 18.4C18.2 18.6 18 18.8 17.9 18.9C17.7 19 17.5 19.1 17.3 19.1H8.3V11.7ZM4.5 12.7C4.5 12.4 4.6 12.2 4.8 12C5 11.8 5.2 11.7 5.5 11.7H6.8V19.2H5.5C5.2 19.2 5 19.1 4.8 18.9C4.6 18.7 4.5 18.5 4.5 18.2V12.7Z" fill="black"/>
</svg>
