<svg width="24" height="24" viewBox="0 0 24 24" fill="none" xmlns="http://www.w3.org/2000/svg">
<path d="M12 4C8.68629 4 6 6.68629 6 10C6 10.5606 6.21202 11.3125 6.64 12.218C7.05994 13.1064 7.64807 14.0608 8.30708 15.0028C9.60515 16.8582 11.121 18.5844 12 19.5414C12.879 18.5844 14.3948 16.8582 15.6929 15.0028C16.3519 14.0608 16.9401 13.1064 17.36 12.218C17.788 11.3125 18 10.5606 18 10C18 6.68629 15.3137 4 12 4ZM4 10C4 5.58172 7.58172 2 12 2C16.4183 2 20 5.58172 20 10C20 10.9949 19.6454 12.063 19.1682 13.0726C18.6829 14.0994 18.0272 15.1552 17.3317 16.1493C15.9401 18.1383 14.3302 19.9633 13.4324 20.9385C12.6572 21.7805 11.3428 21.7805 10.5676 20.9385C9.66976 19.9633 8.05988 18.1383 6.66833 16.1493C5.97284 15.1552 5.31711 14.0994 4.83182 13.0726C4.35458 12.063 4 10.9949 4 10ZM12 8C10.8954 8 10 8.89543 10 10C10 11.1046 10.8954 12 12 12C13.1046 12 14 11.1046 14 10C14 8.89543 13.1046 8 12 8ZM8 10C8 7.79086 9.79086 6 12 6C14.2091 6 16 7.79086 16 10C16 12.2091 14.2091 14 12 14C9.79086 14 8 12.2091 8 10Z" fill="black"/>
</svg>
