<svg width="24" height="24" viewBox="0 0 24 24" fill="none" xmlns="http://www.w3.org/2000/svg">
<path d="M7.25 9C7.25 6.37665 9.37665 4.25 12 4.25C14.6234 4.25 16.75 6.37665 16.75 9V11.25H16.9C17.3694 11.25 17.75 11.6306 17.75 12.1V18C17.75 18.9665 16.9665 19.75 16 19.75H8C7.0335 19.75 6.25 18.9665 6.25 18V12.1C6.25 11.6306 6.63056 11.25 7.1 11.25H7.25V9ZM8.75 11.25H15.25V9C15.25 7.20507 13.7949 5.75 12 5.75C10.2051 5.75 8.75 7.20507 8.75 9V11.25ZM7.75 12.75V18C7.75 18.1381 7.86193 18.25 8 18.25H16C16.1381 18.25 16.25 18.1381 16.25 18V12.75H7.75Z" fill="black"/>
</svg>
