<svg width="24" height="24" viewBox="0 0 24 24" fill="none" xmlns="http://www.w3.org/2000/svg">
<path d="M7.01577 2.35048C7.27518 2.20071 7.59884 2.21966 7.839 2.39868L10.2224 4.17525L12.923 2.93303C13.1951 2.80786 13.5157 2.85661 13.7383 3.05705C13.9609 3.25748 14.0429 3.57115 13.9468 3.85488L12.9937 6.67058L15.0097 8.85518C15.2128 9.07532 15.2655 9.39522 15.1437 9.66886C15.0218 9.94251 14.7488 10.1174 14.4493 10.1138L12.3491 10.0881L18.5403 20.8115L17.2413 21.5615L11.05 10.8381L10.0222 12.6698C9.8756 12.931 9.58763 13.0799 9.28973 13.0486C8.99183 13.0173 8.74112 12.8118 8.65205 12.5258L7.76812 9.68757L4.85309 9.10515C4.55935 9.04646 4.3287 8.81862 4.26642 8.52562C4.20414 8.23262 4.32218 7.93067 4.56665 7.75758L6.99277 6.03986L6.64589 3.08752C6.61094 2.79002 6.75636 2.50026 7.01577 2.35048ZM8.33887 4.64216L8.53449 6.30712C8.56653 6.57976 8.44704 6.84812 8.223 7.00675L6.8548 7.97544L8.49871 8.3039C8.76791 8.35768 8.98622 8.55424 9.06784 8.81635L9.56634 10.4169L10.3867 8.95496C10.5211 8.71556 10.7755 8.56869 11.0499 8.57204L12.7262 8.59256L11.5893 7.36056C11.4032 7.15882 11.3421 6.87148 11.4301 6.61146L11.9676 5.02356L10.4446 5.7241C10.1952 5.83882 9.90305 5.80812 9.68295 5.64405L8.33887 4.64216Z" fill="black"/>
</svg>
