<svg width="24" height="24" viewBox="0 0 24 24" fill="none" xmlns="http://www.w3.org/2000/svg">
<path d="M4.53125 5.8125C4.41043 5.8125 4.3125 5.91044 4.3125 6.03124V17.7908L6.7073 15.8751H18.5312C18.652 15.8751 18.75 15.7771 18.75 15.6563V6.03124C18.75 5.91047 18.6521 5.8125 18.5312 5.8125H4.53125ZM3 6.03124C3 5.18554 3.68558 4.5 4.53125 4.5H18.5312C19.3769 4.5 20.0625 5.18551 20.0625 6.03124V15.6563C20.0625 16.502 19.3769 17.1876 18.5312 17.1876H7.1677L4.20836 19.555C3.72107 19.9446 3 19.5973 3 18.9741V6.03124ZM6.28125 8.4375H16.7812V9.75H6.28125V8.4375ZM15.0313 13.25H6.28125V11.9375H15.0313V13.25Z" fill="#666666"/>
</svg>
