<svg width="24" height="24" viewBox="0 0 24 24" fill="none" xmlns="http://www.w3.org/2000/svg">
<path d="M12 23C18.0751 23 23 18.0751 23 12C23 5.92487 18.0751 1 12 1C5.92487 1 1 5.92487 1 12C1 18.0751 5.92487 23 12 23ZM12.0003 6.13367C12.3603 6.13367 12.6522 6.42552 12.6522 6.78553V11.3487H17.2149C17.5749 11.3487 17.8668 11.6405 17.8668 12.0005C17.8668 12.3605 17.5749 12.6524 17.2149 12.6524H12.6522V17.2152C12.6522 17.5752 12.3603 17.867 12.0003 17.867C11.6403 17.867 11.3485 17.5752 11.3485 17.2152V12.6524H6.78527C6.42527 12.6524 6.13342 12.3605 6.13342 12.0005C6.13342 11.6405 6.42527 11.3487 6.78527 11.3487H11.3485V6.78553C11.3485 6.42552 11.6403 6.13367 12.0003 6.13367Z" fill="black"/>
</svg>
