<svg width="24" height="24" viewBox="0 0 24 24" fill="none" xmlns="http://www.w3.org/2000/svg">
<path d="M22 12C22 17.5228 17.5228 22 12 22C6.47715 22 2 17.5228 2 12C2 6.47715 6.47715 2 12 2C17.5228 2 22 6.47715 22 12ZM16.916 18.935L5.44791 6.58483C4.23119 8.05534 3.5 9.94228 3.5 12C3.5 16.6944 7.30558 20.5 12 20.5C13.8317 20.5 15.5282 19.9206 16.916 18.935ZM18.0589 17.9615C19.5686 16.4273 20.5 14.3224 20.5 12C20.5 7.30558 16.6944 3.5 12 3.5C9.90387 3.5 7.98495 4.25874 6.50291 5.51656L18.0589 17.9615Z" fill="black"/>
</svg>
