<svg width="24" height="24" viewBox="0 0 24 24" fill="none" xmlns="http://www.w3.org/2000/svg">
<path d="M20.5 12C20.5 7.30558 16.6944 3.5 12 3.5C7.30558 3.5 3.5 7.30558 3.5 12C3.5 16.6944 7.30558 20.5 12 20.5C16.6944 20.5 20.5 16.6944 20.5 12ZM22 12C22 17.5228 17.5228 22 12 22C6.47715 22 2 17.5228 2 12C2 6.47715 6.47715 2 12 2C17.5228 2 22 6.47715 22 12ZM9.74805 9.55307H8.24805C8.24805 7.36861 10.0565 5.81104 12.0316 5.81104C14.0279 5.81104 15.7501 7.38911 15.7501 9.55307C15.7501 10.4825 15.3434 11.1007 14.8586 11.5989C14.6685 11.7942 14.4525 11.9849 14.251 12.1629L14.1381 12.2627C13.8964 12.4774 13.6621 12.6924 13.4368 12.9415C12.9795 13.447 12.7501 14.0066 12.7501 14.7212H11.2501C11.2501 13.6227 11.6258 12.7074 12.3245 11.9352C12.6068 11.6231 12.8912 11.364 13.1421 11.1412L13.2696 11.0282C13.4712 10.85 13.6366 10.7038 13.7836 10.5527C14.1047 10.2228 14.2501 9.95943 14.2501 9.55307C14.2501 8.24724 13.2295 7.31104 12.0316 7.31104C10.8125 7.31104 9.74805 8.26774 9.74805 9.55307ZM11.2816 16H12.7816V17.3598H11.2816V16Z" fill="black"/>
</svg>
