<svg width="24" height="24" viewBox="0 0 24 24" fill="none" xmlns="http://www.w3.org/2000/svg">
<path d="M12 23C18.0751 23 23 18.0751 23 12C23 5.92487 18.0751 1 12 1C5.92487 1 1 5.92487 1 12C1 18.0751 5.92487 23 12 23ZM9.43848 9.3006H7.93848C7.93848 6.93722 9.89511 5.25 12.0349 5.25C14.1959 5.25 16.0595 6.95772 16.0595 9.3006C16.0595 10.2989 15.6243 10.9625 15.098 11.5034C14.8905 11.7166 14.6549 11.9247 14.4326 12.121L14.4326 12.121L14.432 12.1215C14.3899 12.1587 14.3482 12.1955 14.3073 12.2319C14.0402 12.4691 13.7792 12.7086 13.5277 12.9866C13.0107 13.558 12.7501 14.1937 12.7501 15.0017H11.2501C11.2501 13.8097 11.6571 12.8184 12.4153 11.9802C12.7238 11.6393 13.035 11.3557 13.3112 11.1103L13.4512 10.9864C13.6736 10.7898 13.8586 10.6262 14.023 10.4573C14.3856 10.0847 14.5595 9.77584 14.5595 9.3006C14.5595 7.81586 13.3975 6.75 12.0349 6.75C10.651 6.75 9.43848 7.83636 9.43848 9.3006ZM11.2849 16.5017H12.7849V18.0017H11.2849V16.5017Z" fill="black"/>
</svg>
