<svg width="24" height="24" viewBox="0 0 24 24" fill="none" xmlns="http://www.w3.org/2000/svg">
<path d="M9.43848 9.3006C9.43848 7.83636 10.651 6.75 12.0349 6.75C13.3975 6.75 14.5595 7.81586 14.5595 9.3006C14.5595 9.77584 14.3856 10.0847 14.023 10.4573C13.8586 10.6262 13.6736 10.7898 13.4512 10.9864L13.3112 11.1103C13.035 11.3557 12.7238 11.6393 12.4153 11.9802C11.6571 12.8184 11.2501 13.8097 11.2501 15.0017H12.7501C12.7501 14.1937 13.0107 13.558 13.5277 12.9866C13.7792 12.7086 14.0402 12.4691 14.3073 12.2319C14.3482 12.1955 14.3899 12.1587 14.432 12.1215C14.6544 11.9251 14.8905 11.7166 15.098 11.5034C15.6243 10.9625 16.0595 10.2989 16.0595 9.3006C16.0595 6.95772 14.1959 5.25 12.0349 5.25C9.89511 5.25 7.93848 6.93722 7.93848 9.3006H9.43848Z" fill="black"/>
<path d="M11.2849 16.5017V18.0017H12.7849V16.5017H11.2849Z" fill="black"/>
<path d="M23 12C23 18.0751 18.0751 23 12 23C5.92487 23 1 18.0751 1 12C1 5.92487 5.92487 1 12 1C18.0751 1 23 5.92487 23 12ZM21.5 12C21.5 6.75329 17.2467 2.5 12 2.5C6.75329 2.5 2.5 6.75329 2.5 12C2.5 17.2467 6.75329 21.5 12 21.5C17.2467 21.5 21.5 17.2467 21.5 12Z" fill="black"/>
</svg>
