<svg width="20" height="20" viewBox="0 0 20 20" fill="none" xmlns="http://www.w3.org/2000/svg">
<path d="M10 20C15.5229 20 20 15.5229 20 10C20 4.47716 15.5229 0 10 0C4.47716 0 0 4.47716 0 10C0 15.5229 4.47716 20 10 20ZM5.28602 5.48899C5.70909 5.06592 6.39502 5.06592 6.81809 5.48899L10.0003 8.67122L13.1823 5.48927C13.6053 5.06619 14.2913 5.06619 14.7143 5.48927C15.1374 5.91233 15.1374 6.59826 14.7143 7.02132L11.5324 10.2033L14.7141 13.385C15.1372 13.8081 15.1372 14.494 14.7141 14.9171C14.291 15.3401 13.6051 15.3401 13.182 14.9171L10.0003 11.7353L6.81834 14.9173C6.39528 15.3404 5.70934 15.3404 5.28628 14.9173C4.86321 14.4943 4.86321 13.8083 5.28628 13.3853L8.46822 10.2033L5.28602 7.02106C4.86296 6.59799 4.86296 5.91206 5.28602 5.48899Z" fill="black"/>
</svg>
