<svg width="24" height="24" viewBox="0 0 24 24" fill="none" xmlns="http://www.w3.org/2000/svg">
<path d="M11.5 21C13.8534 21 16.0069 20.1443 17.6663 18.727L21.4697 22.5304L22.5304 21.4697L18.727 17.6663C20.1443 16.0069 21 13.8534 21 11.5C21 6.25329 16.7467 2 11.5 2C6.25329 2 2 6.25329 2 11.5C2 16.7467 6.25329 21 11.5 21ZM11.5 19.5C7.80995 19.5 4.70341 17.0017 3.77961 13.6042L5.16663 12.2172L8.49996 15.5505L14.5416 9.50888V11.3333H15.7916V7.375H11.8333V8.625H13.6577L8.49996 13.7828L5.16663 10.4495L3.52174 12.0943C3.50733 11.8981 3.5 11.6999 3.5 11.5C3.5 7.08172 7.08172 3.5 11.5 3.5C15.9183 3.5 19.5 7.08172 19.5 11.5C19.5 15.9183 15.9183 19.5 11.5 19.5Z" fill="black"/>
</svg>
