<svg width="24" height="24" viewBox="0 0 24 24" fill="none" xmlns="http://www.w3.org/2000/svg">
<path d="M12 4.02746C10.12 5.58816 7.89343 6.68609 5.5 7.22512V10.7679C5.5 15.254 8.03018 19.3346 12 21.3425C15.9698 19.3346 18.5 15.254 18.5 10.7679V7.22512C16.1066 6.68609 13.88 5.58816 12 4.02746ZM4 6.81982C4 6.34314 4.33646 5.93272 4.80388 5.83924L4.83975 5.83206C7.22477 5.35506 9.43873 4.26675 11.2683 2.68132C11.6856 2.31964 12.3144 2.31964 12.7317 2.68132C14.5613 4.26675 16.7752 5.35506 19.1602 5.83206L19.1961 5.83924C19.6635 5.93272 20 6.34314 20 6.81982V10.7679C20 16.0724 16.8598 20.8738 12 23C7.1402 20.8738 4 16.0724 4 10.7679V6.81982ZM10.9754 16.036L7.46973 12.5303L8.53039 11.4697L11.0247 13.964L15.9956 9.44506L17.0046 10.5549L10.9754 16.036Z" fill="black"/>
</svg>
