<svg width="24" height="24" viewBox="0 0 24 24" fill="none" xmlns="http://www.w3.org/2000/svg">
<path d="M3.00006 5.75C2.86199 5.75 2.75007 5.86193 2.75006 6L2.75001 15.25H3.8787C4.38239 14.6402 5.14532 14.25 6 14.25C6.85469 14.25 7.61762 14.6402 8.12131 15.25H15.25V5.75L3.00006 5.75ZM15.2613 16.75H8.73875C8.7462 16.8324 8.75 16.9158 8.75 17C8.75 18.5188 7.51879 19.75 6 19.75C4.48122 19.75 3.25 18.5188 3.25 17C3.25 16.9158 3.25381 16.8324 3.26126 16.75H1.25L1.25006 5.99999C1.25007 5.0335 2.03357 4.25 3.00006 4.25L16.75 4.25001V8.25H19.8513L22.75 11.7285V16.75H20.7388C20.7462 16.8324 20.75 16.9158 20.75 17C20.75 18.5188 19.5188 19.75 18 19.75C16.4812 19.75 15.25 18.5188 15.25 17C15.25 16.9158 15.2538 16.8324 15.2613 16.75ZM20.1213 15.25H21.25V13.75H16.75V14.55C17.1249 14.3583 17.5497 14.25 18 14.25C18.8547 14.25 19.6176 14.6402 20.1213 15.25ZM16.75 12.25H21.2321L19.1487 9.75H16.75V12.25ZM6 15.75C5.53827 15.75 5.13404 16 4.91677 16.3755C4.81086 16.5586 4.75 16.7711 4.75 17C4.75 17.6904 5.30965 18.25 6 18.25C6.69036 18.25 7.25 17.6904 7.25 17C7.25 16.7711 7.18915 16.5586 7.08324 16.3755C6.86597 16 6.46174 15.75 6 15.75ZM18 15.75C17.5383 15.75 17.134 16 16.9168 16.3755C16.8109 16.5586 16.75 16.7711 16.75 17C16.75 17.6904 17.3096 18.25 18 18.25C18.6904 18.25 19.25 17.6904 19.25 17C19.25 16.7711 19.1892 16.5586 19.0832 16.3755C18.866 16 18.4617 15.75 18 15.75Z" fill="black"/>
</svg>
