<svg width="24" height="24" viewBox="0 0 24 24" fill="none" xmlns="http://www.w3.org/2000/svg">
<path d="M8.25 7.29999C8.25 5.22892 9.92893 3.54999 12 3.54999C14.0711 3.54999 15.75 5.22892 15.75 7.29999C15.75 9.37106 14.0711 11.05 12 11.05C9.92893 11.05 8.25 9.37106 8.25 7.29999ZM12 2.04999C9.1005 2.04999 6.75 4.40049 6.75 7.29999C6.75 10.1995 9.1005 12.55 12 12.55C14.8995 12.55 17.25 10.1995 17.25 7.29999C17.25 4.40049 14.8995 2.04999 12 2.04999ZM12 15.55C15.2848 15.55 18.1377 17.5874 19.4275 20.55H4.57254C5.86231 17.5874 8.71521 15.55 12 15.55ZM12 14.05C7.65385 14.05 4.00451 17.0258 2.78189 21.0836C2.71345 21.3108 2.75652 21.5569 2.89802 21.7473C3.03952 21.9377 3.26277 22.05 3.50001 22.05H20.5C20.7372 22.05 20.9605 21.9377 21.102 21.7473C21.2435 21.5569 21.2866 21.3108 21.2181 21.0836C19.9955 17.0258 16.3462 14.05 12 14.05Z" fill="black"/>
</svg>
 