<svg width="24" height="24" viewBox="0 0 24 24" fill="none" xmlns="http://www.w3.org/2000/svg">
<path d="M16 9.71875C14.7401 9.71875 13.7188 10.7401 13.7188 12C13.7188 13.2599 14.7401 14.2813 16 14.2813C17.2599 14.2813 18.2813 13.2599 18.2813 12C18.2813 10.7401 17.2599 9.71875 16 9.71875ZM15.2812 12C15.2812 11.603 15.603 11.2812 16 11.2812C16.397 11.2812 16.7188 11.603 16.7188 12C16.7188 12.397 16.397 12.7188 16 12.7188C15.603 12.7188 15.2812 12.397 15.2812 12Z" fill="black"/>
<path d="M5 3.21875C4.01624 3.21875 3.21875 4.01624 3.21875 5V19C3.21875 19.9838 4.01624 20.7812 5 20.7812H19C19.9838 20.7812 20.7812 19.9838 20.7812 19V16.6012C21.3734 16.3118 21.7812 15.7035 21.7812 15V9C21.7812 8.29648 21.3734 7.68823 20.7812 7.39877V5C20.7812 4.01624 19.9838 3.21875 19 3.21875H5ZM13 16.7812H19.2187V19C19.2187 19.1208 19.1208 19.2188 19 19.2188H5C4.87919 19.2188 4.78125 19.1208 4.78125 19V5C4.78125 4.87919 4.87919 4.78125 5 4.78125H19C19.1208 4.78125 19.2187 4.87919 19.2187 5V7.21875H13C12.0162 7.21875 11.2187 8.01624 11.2187 9V15C11.2187 15.9838 12.0162 16.7812 13 16.7812ZM12.7812 9C12.7812 8.87919 12.8792 8.78125 13 8.78125H20C20.1208 8.78125 20.2187 8.87919 20.2187 9V15C20.2187 15.1208 20.1208 15.2188 20 15.2188H13C12.8792 15.2188 12.7812 15.1208 12.7812 15V9Z" fill="black"/>
</svg>
