<svg xmlns="http://www.w3.org/2000/svg" width="24" height="24" viewBox="0 0 24 24">
  <defs/>
  <path d="M11.993,3.717 C14.33,1.671 17.754,1.283 20.471,3.541 C23.444,6.012 23.802,10.227 21.512,13.174 C20.717,14.197 19.237,15.683 17.754,17.097 C16.255,18.527 14.696,19.936 13.704,20.821 L13.682,20.841 C13.519,20.986 13.357,21.131 13.207,21.244 C13.039,21.372 12.832,21.504 12.568,21.583 C12.196,21.694 11.791,21.694 11.418,21.583 C11.155,21.504 10.948,21.372 10.779,21.244 C10.629,21.131 10.467,20.986 10.304,20.841 L10.282,20.821 C9.29,19.936 7.731,18.527 6.232,17.097 C4.749,15.683 3.27,14.197 2.475,13.174 C0.176,10.216 0.598,6.033 3.505,3.55 C6.192,1.254 9.653,1.672 11.993,3.717 Z M11.233,5.786 C9.528,3.792 6.818,3.35 4.804,5.07 C2.701,6.867 2.418,9.842 4.054,11.947 C4.745,12.836 6.119,14.225 7.612,15.649 C9.089,17.058 10.629,18.45 11.614,19.329 C11.807,19.501 11.909,19.591 11.988,19.651 C11.99,19.652 11.991,19.654 11.993,19.655 C11.995,19.654 11.997,19.652 11.999,19.651 C12.077,19.591 12.179,19.501 12.373,19.329 C13.357,18.45 14.897,17.058 16.374,15.649 C17.868,14.225 19.242,12.836 19.933,11.947 C21.577,9.83 21.315,6.843 19.192,5.079 C17.125,3.361 14.451,3.801 12.753,5.786 C12.563,6.008 12.285,6.136 11.993,6.136 C11.701,6.136 11.423,6.008 11.233,5.786 Z M11.071,7.503 C11.474,7.531 11.821,7.8 11.949,8.184 L13.185,11.893 L13.606,11.053 C13.775,10.714 14.121,10.5 14.5,10.5 L15.5,10.5 C16.052,10.5 16.5,10.948 16.5,11.5 C16.5,12.052 16.052,12.5 15.5,12.5 L15.118,12.5 L13.894,14.947 C13.714,15.309 13.333,15.526 12.929,15.498 C12.526,15.469 12.179,15.2 12.051,14.816 L10.815,11.106 L10.394,11.947 C10.225,12.286 9.879,12.5 9.5,12.5 L8.5,12.5 C7.948,12.5 7.5,12.052 7.5,11.5 C7.5,10.948 7.948,10.5 8.5,10.5 L8.882,10.5 L10.106,8.053 C10.286,7.691 10.667,7.474 11.071,7.503 Z"/>
</svg>
