<svg xmlns="http://www.w3.org/2000/svg" width="24" height="24" viewBox="0 0 24 24">
  <defs/>
  <path d="M9,2 C9.43,2 9.813,2.275 9.949,2.684 L15,17.838 L17.051,11.684 C17.187,11.275 17.57,11 18,11 L22,11 C22.552,11 23,11.448 23,12 C23,12.552 22.552,13 22,13 L18.721,13 L15.949,21.316 C15.813,21.725 15.43,22 15,22 C14.57,22 14.187,21.725 14.051,21.316 L9,6.162 L6.949,12.316 C6.813,12.725 6.43,13 6,13 L2,13 C1.448,13 1,12.552 1,12 C1,11.448 1.448,11 2,11 L5.279,11 L8.051,2.684 C8.187,2.275 8.57,2 9,2 Z"/>
</svg>
