<svg xmlns="http://www.w3.org/2000/svg" width="24" height="24" viewBox="0 0 24 24">
  <defs/>
  <path d="M12.75,7.625 C12.75,4.795 15.045,2.5 17.875,2.5 C20.705,2.5 23,4.795 23,7.625 C23,10.414 20.773,12.682 18,12.748 L18,18.875 C18,20.325 16.825,21.5 15.375,21.5 C13.925,21.5 12.75,20.325 12.75,18.875 Z M1,7.625 C1,4.795 3.295,2.5 6.125,2.5 C8.955,2.5 11.25,4.795 11.25,7.625 L11.25,18.875 C11.25,20.325 10.075,21.5 8.625,21.5 C7.175,21.5 6,20.325 6,18.875 L6,12.748 C3.227,12.682 1,10.414 1,7.625 Z M17.875,4.5 C16.149,4.5 14.75,5.899 14.75,7.625 L14.75,18.875 C14.75,19.22 15.03,19.5 15.375,19.5 C15.72,19.5 16,19.22 16,18.875 L16,12.521 C16,12.412 16,12.298 16.004,12.202 C16.009,12.108 16.02,11.94 16.082,11.761 C16.144,11.58 16.248,11.371 16.434,11.184 C16.621,10.998 16.83,10.894 17.011,10.832 C17.203,10.766 17.394,10.758 17.481,10.754 C17.588,10.75 17.72,10.75 17.858,10.75 L17.875,10.75 C19.601,10.75 21,9.351 21,7.625 C21,5.899 19.601,4.5 17.875,4.5 Z M6.125,4.5 C4.399,4.5 3,5.899 3,7.625 C3,9.351 4.399,10.75 6.125,10.75 L6.142,10.75 C6.28,10.75 6.412,10.75 6.519,10.754 C6.606,10.758 6.797,10.766 6.989,10.832 C7.17,10.894 7.379,10.998 7.566,11.184 C7.752,11.371 7.856,11.58 7.918,11.761 C7.98,11.94 7.991,12.108 7.995,12.202 C8,12.298 8,12.412 8,12.521 L8,18.875 C8,19.22 8.28,19.5 8.625,19.5 C8.97,19.5 9.25,19.22 9.25,18.875 L9.25,7.625 C9.25,5.899 7.851,4.5 6.125,4.5 Z"/>
</svg>
