<svg xmlns="http://www.w3.org/2000/svg" width="24" height="24" viewBox="0 0 24 24">
  <defs/>
  <path d="M17.241,2 L17.241,2 C18.046,2 18.711,2 19.252,2.044 C19.814,2.09 20.331,2.189 20.816,2.436 C21.569,2.819 22.181,3.431 22.564,4.184 C22.811,4.669 22.91,5.186 22.956,5.748 C23,6.289 23,6.954 23,7.759 L23,15 C23,17.209 21.209,19 19,19 C18.448,19 18,18.552 18,18 C18,17.448 18.448,17 19,17 C20.105,17 21,16.105 21,15 L21,7.8 C21,6.943 20.999,6.361 20.962,5.911 C20.927,5.473 20.862,5.248 20.782,5.092 C20.59,4.716 20.284,4.41 19.908,4.218 C19.752,4.138 19.527,4.073 19.089,4.038 C18.639,4.001 18.057,4 17.2,4 L6.8,4 C5.943,4 5.361,4.001 4.911,4.038 C4.473,4.073 4.248,4.138 4.092,4.218 C3.716,4.41 3.41,4.716 3.218,5.092 C3.138,5.248 3.073,5.473 3.038,5.911 C3.001,6.361 3,6.943 3,7.8 L3,15 C3,16.105 3.895,17 5,17 C5.552,17 6,17.448 6,18 C6,18.552 5.552,19 5,19 C2.791,19 1,17.209 1,15 L1,7.759 C1,6.954 1,6.289 1.044,5.748 C1.09,5.186 1.189,4.669 1.436,4.184 C1.819,3.431 2.431,2.819 3.184,2.436 C3.669,2.189 4.186,2.09 4.748,2.044 C5.289,2 5.954,2 6.759,2 L17.241,2 Z M11.485,14.372 C11.818,14.251 12.182,14.251 12.515,14.372 C12.778,14.468 12.958,14.629 13.071,14.742 C13.171,14.843 13.276,14.969 13.366,15.077 C13.372,15.084 13.377,15.091 13.383,15.097 L16.698,19.075 C16.852,19.26 17.008,19.448 17.122,19.612 C17.23,19.768 17.426,20.075 17.432,20.477 C17.439,20.938 17.234,21.377 16.875,21.667 C16.562,21.92 16.201,21.965 16.012,21.982 C15.814,22 15.571,22 15.332,22 L8.668,22 C8.429,22 8.186,22 7.988,21.982 C7.799,21.965 7.438,21.92 7.125,21.667 C6.766,21.377 6.561,20.938 6.568,20.477 C6.574,20.075 6.77,19.768 6.878,19.612 C6.992,19.448 7.148,19.26 7.302,19.075 L10.617,15.097 C10.623,15.091 10.628,15.084 10.634,15.077 C10.724,14.969 10.829,14.843 10.929,14.742 C11.042,14.629 11.222,14.468 11.485,14.372 Z M12,16.562 L9.135,20 L14.865,20 Z"/>
</svg>
