<svg xmlns="http://www.w3.org/2000/svg" width="24" height="24" viewBox="0 0 24 24">
  <defs/>
  <path d="M5.636,6.636 C7.324,4.948 9.613,4 12,4 C14.387,4 16.676,4.948 18.364,6.636 C20.052,8.324 21,10.613 21,13 C21,15.051 20.3,17.03 19.032,18.618 L20.707,20.293 C21.098,20.683 21.098,21.317 20.707,21.707 C20.317,22.098 19.683,22.098 19.293,21.707 L17.618,20.032 C16.03,21.3 14.051,22 12,22 C9.949,22 7.97,21.3 6.383,20.032 L4.707,21.707 C4.317,22.098 3.683,22.098 3.293,21.707 C2.902,21.317 2.902,20.683 3.293,20.293 L4.968,18.618 C3.7,17.03 3,15.051 3,13 C3,10.613 3.948,8.324 5.636,6.636 Z M12,6 C10.144,6 8.363,6.738 7.05,8.05 C5.738,9.363 5,11.144 5,13 C5,14.856 5.738,16.637 7.05,17.95 C8.363,19.263 10.144,20 12,20 C13.856,20 15.637,19.263 16.95,17.95 C18.263,16.637 19,14.856 19,13 C19,11.144 18.263,9.363 16.95,8.05 C15.637,6.738 13.856,6 12,6 Z M12,9 C12.552,9 13,9.448 13,10 L13,12 L15,12 C15.552,12 16,12.448 16,13 C16,13.552 15.552,14 15,14 L13,14 L13,16 C13,16.552 12.552,17 12,17 C11.448,17 11,16.552 11,16 L11,14 L9,14 C8.448,14 8,13.552 8,13 C8,12.448 8.448,12 9,12 L11,12 L11,10 C11,9.448 11.448,9 12,9 Z M5.707,2.293 C6.098,2.683 6.098,3.317 5.707,3.707 L2.707,6.707 C2.317,7.098 1.683,7.098 1.293,6.707 C0.902,6.317 0.902,5.683 1.293,5.293 L4.293,2.293 C4.683,1.902 5.317,1.902 5.707,2.293 Z M18.293,2.293 C18.683,1.902 19.317,1.902 19.707,2.293 L22.707,5.293 C23.098,5.683 23.098,6.317 22.707,6.707 C22.317,7.098 21.683,7.098 21.293,6.707 L18.293,3.707 C17.902,3.317 17.902,2.683 18.293,2.293 Z"/>
</svg>
