<svg xmlns="http://www.w3.org/2000/svg" width="24" height="24" viewBox="0 0 24 24">
  <defs/>
  <path d="M2.293,2.293 C2.683,1.902 3.317,1.902 3.707,2.293 L18.806,17.392 C18.832,17.415 18.856,17.44 18.879,17.465 L21.707,20.293 C22.098,20.683 22.098,21.317 21.707,21.707 C21.317,22.098 20.683,22.098 20.293,21.707 L18.153,19.568 C16.488,21.128 14.289,22 12,22 C9.949,22 7.97,21.3 6.383,20.032 L4.707,21.707 C4.317,22.098 3.683,22.098 3.293,21.707 C2.902,21.317 2.902,20.683 3.293,20.293 L4.968,18.618 C3.7,17.03 3,15.051 3,13 C3,10.711 3.872,8.512 5.432,6.847 L4,5.414 L2.707,6.707 C2.317,7.098 1.683,7.098 1.293,6.707 C0.902,6.317 0.902,5.683 1.293,5.293 L2.586,4 L2.293,3.707 C1.902,3.317 1.902,2.683 2.293,2.293 Z M6.847,8.262 C5.662,9.551 5,11.241 5,13 C5,14.856 5.738,16.637 7.05,17.95 C8.363,19.263 10.144,20 12,20 C13.759,20 15.449,19.338 16.738,18.153 Z M10.312,4.16 C10.865,4.054 11.43,4 12,4 C14.387,4 16.676,4.948 18.364,6.636 C20.052,8.324 21,10.613 21,13 C21,13.57 20.946,14.135 20.84,14.688 C20.737,15.23 20.213,15.586 19.671,15.482 C19.128,15.379 18.772,14.855 18.876,14.312 C18.958,13.883 19,13.444 19,13 C19,11.144 18.263,9.363 16.95,8.05 C15.637,6.738 13.856,6 12,6 C11.556,6 11.117,6.042 10.688,6.124 C10.145,6.228 9.621,5.872 9.518,5.329 C9.414,4.787 9.77,4.263 10.312,4.16 Z M18.293,2.293 C18.683,1.902 19.317,1.902 19.707,2.293 L22.707,5.293 C23.098,5.683 23.098,6.317 22.707,6.707 C22.317,7.098 21.683,7.098 21.293,6.707 L18.293,3.707 C17.902,3.317 17.902,2.683 18.293,2.293 Z"/>
</svg>
