<svg width="24" height="24" viewBox="0 0 24 24" fill="none" xmlns="http://www.w3.org/2000/svg">
<path d="M11.1875 1.66875C11.64 1.46755 12.1486 1.44167 12.6152 1.59257L12.8125 1.66875L12.956 1.74101C13.2757 1.9234 13.4943 2.19082 13.6523 2.41386C13.8358 2.67291 14.0326 3.015 14.25 3.39043L22.4746 17.5975C22.6928 17.9744 22.8927 18.3163 23.0263 18.6053C23.1578 18.8894 23.3003 19.2719 23.2548 19.7078C23.196 20.2718 22.9 20.7845 22.4414 21.118C22.0869 21.3756 21.6847 21.4429 21.373 21.4715C21.056 21.5006 20.6601 21.4998 20.2246 21.4998H3.77438C3.33901 21.4998 2.94287 21.5006 2.62594 21.4715C2.31423 21.4429 1.91194 21.3756 1.55758 21.118C1.09905 20.7845 0.803985 20.2717 0.745083 19.7078C0.699634 19.2719 0.842148 18.8894 0.973598 18.6053C1.10725 18.3164 1.30624 17.9742 1.52438 17.5975L9.74997 3.39043C9.96729 3.01504 10.1642 2.67288 10.3476 2.41386C10.5282 2.15891 10.788 1.84637 11.1875 1.66875ZM11.9795 3.57011C11.8616 3.73652 11.7174 3.98303 11.4804 4.39238L3.25583 18.5994C3.01791 19.0104 2.87503 19.2592 2.78903 19.4451C2.78414 19.4557 2.78043 19.4661 2.77633 19.4754C2.78639 19.4765 2.797 19.4792 2.80856 19.4803C3.01246 19.499 3.29967 19.4998 3.77438 19.4998H20.2246C20.6995 19.4998 20.9864 19.499 21.1904 19.4803C21.2019 19.4792 21.2126 19.4765 21.2226 19.4754C21.2185 19.4662 21.2158 19.4556 21.2109 19.4451C21.1249 19.2592 20.9821 19.0104 20.7441 18.5994L12.5185 4.39238C12.2815 3.98304 12.1373 3.73649 12.0195 3.57011C12.0128 3.56062 12.005 3.55288 11.999 3.54472C11.9931 3.55271 11.986 3.56086 11.9795 3.57011ZM12.0097 15.9998L12.1123 16.0057C12.6163 16.057 13.0096 16.4823 13.0097 16.9998C13.0097 17.5175 12.6164 17.9436 12.1123 17.9949L12.0097 17.9998H12C11.4477 17.9998 11 17.5521 11 16.9998C11.0001 16.4476 11.4478 15.9998 12 15.9998H12.0097ZM11 12.9998V8.9998C11.0001 8.44762 11.4478 7.9998 12 7.9998C12.5521 7.99993 12.9998 8.4477 13 8.9998V12.9998C13 13.552 12.5521 13.9997 12 13.9998C11.4477 13.9998 11 13.5521 11 12.9998Z" fill="black" style="fill:black;fill-opacity:1;"/>
</svg>
