<svg width="24" height="24" viewBox="0 0 24 24" fill="none" xmlns="http://www.w3.org/2000/svg">
<path d="M11.1875 1.66875C11.6401 1.46755 12.1486 1.44167 12.6152 1.59257L12.8125 1.66875L12.9561 1.74101C13.2757 1.9234 13.4944 2.19082 13.6523 2.41386C13.8358 2.67291 14.0326 3.015 14.25 3.39043L22.4746 17.5975C22.6928 17.9744 22.8927 18.3163 23.0264 18.6053C23.1578 18.8894 23.3003 19.2719 23.2549 19.7078C23.196 20.2718 22.9 20.7845 22.4414 21.118C22.087 21.3756 21.6847 21.4429 21.373 21.4715C21.056 21.5006 20.6601 21.4998 20.2246 21.4998H3.77441C3.33905 21.4998 2.9429 21.5006 2.62597 21.4715C2.31426 21.4429 1.91197 21.3756 1.55761 21.118C1.09908 20.7845 0.804016 20.2717 0.745113 19.7078C0.699664 19.2719 0.842179 18.8894 0.973629 18.6053C1.10728 18.3164 1.30627 17.9742 1.52441 17.5975L9.75 3.39043C9.96732 3.01504 10.1642 2.67288 10.3477 2.41386C10.5282 2.15891 10.788 1.84637 11.1875 1.66875ZM11.9795 3.57011C11.8616 3.73652 11.7175 3.98303 11.4805 4.39238L3.25586 18.5994C3.01794 19.0104 2.87507 19.2592 2.78906 19.4451C2.78417 19.4557 2.78046 19.4661 2.77636 19.4754C2.78642 19.4765 2.79703 19.4792 2.80859 19.4803C3.01249 19.499 3.2997 19.4998 3.77441 19.4998H20.2246C20.6995 19.4998 20.9865 19.499 21.1904 19.4803C21.202 19.4792 21.2126 19.4765 21.2227 19.4754C21.2186 19.4662 21.2158 19.4556 21.2109 19.4451C21.1249 19.2592 20.9821 19.0104 20.7441 18.5994L12.5186 4.39238C12.2816 3.98304 12.1374 3.73649 12.0195 3.57011C12.0128 3.56062 12.005 3.55288 11.999 3.54472C11.9932 3.55271 11.986 3.56086 11.9795 3.57011ZM12.0098 15.9998L12.1123 16.0057C12.6163 16.057 13.0096 16.4823 13.0098 16.9998C13.0098 17.5175 12.6164 17.9436 12.1123 17.9949L12.0098 17.9998H12C11.4477 17.9998 11 17.5521 11 16.9998C11.0001 16.4476 11.4478 15.9998 12 15.9998H12.0098ZM11 12.9998V8.9998C11.0001 8.44762 11.4478 7.9998 12 7.9998C12.5521 7.99993 12.9999 8.4477 13 8.9998V12.9998C13 13.552 12.5522 13.9997 12 13.9998C11.4477 13.9998 11 13.5521 11 12.9998Z" fill="black"/>
</svg>
