<svg xmlns="http://www.w3.org/2000/svg" width="24" height="24" viewBox="0 0 24 24">
  <defs/>
  <path d="M1,12 C1,5.925 5.925,1 12,1 C18.075,1 23,5.925 23,12 C23,18.075 18.075,23 12,23 C5.925,23 1,18.075 1,12 Z M12,3 C7.029,3 3,7.029 3,12 C3,16.971 7.029,21 12,21 C16.971,21 21,16.971 21,12 C21,7.029 16.971,3 12,3 Z M12,7 C12.552,7 13,7.448 13,8 L13,12 C13,12.552 12.552,13 12,13 C11.448,13 11,12.552 11,12 L11,8 C11,7.448 11.448,7 12,7 Z M11,16 C11,15.448 11.448,15 12,15 L12.01,15 C12.562,15 13.01,15.448 13.01,16 C13.01,16.552 12.562,17 12.01,17 L12,17 C11.448,17 11,16.552 11,16 Z"/>
</svg>
