<svg xmlns="http://www.w3.org/2000/svg" width="24" height="24" viewBox="0 0 24 24">
  <defs/>
  <path d="M9.293,4.293 C9.683,3.902 10.317,3.902 10.707,4.293 L17.707,11.293 C17.895,11.48 18,11.735 18,12 C18,12.265 17.895,12.52 17.707,12.707 L10.707,19.707 C10.317,20.098 9.683,20.098 9.293,19.707 C8.902,19.317 8.902,18.683 9.293,18.293 L14.586,13 L3,13 C2.448,13 2,12.552 2,12 C2,11.448 2.448,11 3,11 L14.586,11 L9.293,5.707 C8.902,5.317 8.902,4.683 9.293,4.293 Z M21,2 C21.552,2 22,2.448 22,3 L22,21 C22,21.552 21.552,22 21,22 C20.448,22 20,21.552 20,21 L20,3 C20,2.448 20.448,2 21,2 Z"/>
</svg>
