<svg xmlns="http://www.w3.org/2000/svg" width="24" height="24" viewBox="0 0 24 24">
  <defs/>
  <path d="M3,14 C3,13.448 3.448,13 4,13 L21,13 C21.552,13 22,13.448 22,14 C22,14.552 21.552,15 21,15 L4,15 C3.448,15 3,14.552 3,14 Z M3,6 C3,5.448 3.448,5 4,5 L21,5 C21.552,5 22,5.448 22,6 C22,6.552 21.552,7 21,7 L4,7 C3.448,7 3,6.552 3,6 Z M7,18 C7,17.448 7.448,17 8,17 L21,17 C21.552,17 22,17.448 22,18 C22,18.552 21.552,19 21,19 L8,19 C7.448,19 7,18.552 7,18 Z M7,10 C7,9.448 7.448,9 8,9 L21,9 C21.552,9 22,9.448 22,10 C22,10.552 21.552,11 21,11 L8,11 C7.448,11 7,10.552 7,10 Z"/>
</svg>
