<svg xmlns="http://www.w3.org/2000/svg" width="24" height="24" viewBox="0 0 24 24">
  <defs/>
  <path d="M11.293,6.293 C11.683,5.902 12.317,5.902 12.707,6.293 L19.707,13.293 C20.098,13.683 20.098,14.317 19.707,14.707 C19.317,15.098 18.683,15.098 18.293,14.707 L13,9.414 L13,21 C13,21.552 12.552,22 12,22 C11.448,22 11,21.552 11,21 L11,9.414 L5.707,14.707 C5.317,15.098 4.683,15.098 4.293,14.707 C3.902,14.317 3.902,13.683 4.293,13.293 Z M2,3 C2,2.448 2.448,2 3,2 L21,2 C21.552,2 22,2.448 22,3 C22,3.552 21.552,4 21,4 L3,4 C2.448,4 2,3.552 2,3 Z"/>
</svg>
