<svg xmlns="http://www.w3.org/2000/svg" width="24" height="24" viewBox="0 0 24 24">
  <defs/>
  <path d="M2,14 C2,13.448 2.448,13 3,13 L21,13 C21.552,13 22,13.448 22,14 C22,14.552 21.552,15 21,15 L3,15 C2.448,15 2,14.552 2,14 Z M2,18 C2,17.448 2.448,17 3,17 L21,17 C21.552,17 22,17.448 22,18 C22,18.552 21.552,19 21,19 L3,19 C2.448,19 2,18.552 2,18 Z M2,10 C2,9.448 2.448,9 3,9 L21,9 C21.552,9 22,9.448 22,10 C22,10.552 21.552,11 21,11 L3,11 C2.448,11 2,10.552 2,10 Z M2,6 C2,5.448 2.448,5 3,5 L21,5 C21.552,5 22,5.448 22,6 C22,6.552 21.552,7 21,7 L3,7 C2.448,7 2,6.552 2,6 Z"/>
</svg>
