<svg xmlns="http://www.w3.org/2000/svg" width="24" height="24" viewBox="0 0 24 24">
  <defs/>
  <path d="M5.968,13 L18.032,13 C18.471,13 18.849,13 19.162,13.021 C19.492,13.044 19.822,13.093 20.148,13.228 C20.883,13.533 21.467,14.117 21.772,14.852 C21.907,15.178 21.956,15.508 21.979,15.838 C22,16.151 22,16.529 22,16.968 L22,17.032 C22,17.471 22,17.849 21.979,18.162 C21.956,18.492 21.907,18.822 21.772,19.148 C21.467,19.883 20.883,20.467 20.148,20.772 C19.822,20.907 19.492,20.956 19.162,20.979 C18.849,21 18.471,21 18.032,21 L5.968,21 C5.529,21 5.151,21 4.838,20.979 C4.508,20.956 4.178,20.907 3.852,20.772 C3.117,20.467 2.533,19.883 2.228,19.148 C2.093,18.822 2.044,18.492 2.021,18.162 C2,17.849 2,17.471 2,17.032 L2,16.968 C2,16.529 2,16.151 2.021,15.838 C2.044,15.508 2.093,15.178 2.228,14.852 C2.533,14.117 3.117,13.533 3.852,13.228 C4.178,13.093 4.508,13.044 4.838,13.021 C5.151,13 5.529,13 5.968,13 Z M14.032,3 L14.032,3 C14.471,3 14.849,3 15.162,3.021 C15.492,3.044 15.822,3.093 16.148,3.228 C16.883,3.533 17.467,4.117 17.772,4.852 C17.907,5.178 17.956,5.508 17.979,5.838 C18,6.151 18,6.529 18,6.968 L18,7.032 C18,7.471 18,7.849 17.979,8.162 C17.956,8.492 17.907,8.822 17.772,9.148 C17.467,9.883 16.883,10.467 16.148,10.772 C15.822,10.907 15.492,10.956 15.162,10.979 C14.849,11 14.471,11 14.032,11 L5.968,11 C5.529,11 5.151,11 4.838,10.979 C4.508,10.956 4.178,10.907 3.852,10.772 C3.117,10.467 2.533,9.883 2.228,9.148 C2.093,8.822 2.044,8.492 2.021,8.162 C2,7.849 2,7.471 2,7.032 L2,6.968 C2,6.529 2,6.151 2.021,5.838 C2.044,5.508 2.093,5.178 2.228,4.852 C2.533,4.117 3.117,3.533 3.852,3.228 C4.178,3.093 4.508,3.044 4.838,3.021 C5.151,3 5.529,3 5.968,3 L14.032,3 Z M4.974,15.017 C4.746,15.032 4.659,15.059 4.617,15.076 C4.372,15.178 4.178,15.372 4.076,15.617 C4.059,15.659 4.032,15.746 4.017,15.974 C4.001,16.211 4,16.52 4,17 C4,17.48 4.001,17.789 4.017,18.026 C4.032,18.254 4.059,18.341 4.076,18.383 C4.178,18.628 4.372,18.822 4.617,18.924 C4.659,18.941 4.746,18.968 4.974,18.983 C5.211,19 5.52,19 6,19 L18,19 C18.48,19 18.789,19 19.026,18.983 C19.254,18.968 19.341,18.941 19.383,18.924 C19.628,18.822 19.822,18.628 19.924,18.383 C19.941,18.341 19.968,18.254 19.983,18.026 C20,17.789 20,17.48 20,17 C20,16.52 20,16.211 19.983,15.974 C19.968,15.746 19.941,15.659 19.924,15.617 C19.822,15.372 19.628,15.178 19.383,15.076 C19.341,15.059 19.254,15.032 19.026,15.017 C18.789,15 18.48,15 18,15 L6,15 C5.52,15 5.211,15 4.974,15.017 Z M4.974,5.017 C4.746,5.032 4.659,5.059 4.617,5.076 C4.372,5.178 4.178,5.372 4.076,5.617 C4.059,5.659 4.032,5.746 4.017,5.974 C4.001,6.211 4,6.52 4,7 C4,7.48 4.001,7.789 4.017,8.026 C4.032,8.254 4.059,8.341 4.076,8.383 C4.178,8.628 4.372,8.822 4.617,8.924 C4.659,8.941 4.746,8.968 4.974,8.983 C5.211,8.999 5.52,9 6,9 L14,9 C14.48,9 14.789,8.999 15.026,8.983 C15.254,8.968 15.341,8.941 15.383,8.924 C15.628,8.822 15.822,8.628 15.924,8.383 C15.941,8.341 15.968,8.254 15.983,8.026 C16,7.789 16,7.48 16,7 C16,6.52 16,6.211 15.983,5.974 C15.968,5.746 15.941,5.659 15.924,5.617 C15.822,5.372 15.628,5.178 15.383,5.076 C15.341,5.059 15.254,5.032 15.026,5.017 C14.789,5.001 14.48,5 14,5 L6,5 C5.52,5 5.211,5.001 4.974,5.017 Z"/>
</svg>
