<svg xmlns="http://www.w3.org/2000/svg" width="24" height="24" viewBox="0 0 24 24">
  <defs/>
  <path d="M2,14 C2,13.448 2.448,13 3,13 L20,13 C20.552,13 21,13.448 21,14 C21,14.552 20.552,15 20,15 L3,15 C2.448,15 2,14.552 2,14 Z M2,6 C2,5.448 2.448,5 3,5 L20,5 C20.552,5 21,5.448 21,6 C21,6.552 20.552,7 20,7 L3,7 C2.448,7 2,6.552 2,6 Z M2,18 C2,17.448 2.448,17 3,17 L16,17 C16.552,17 17,17.448 17,18 C17,18.552 16.552,19 16,19 L3,19 C2.448,19 2,18.552 2,18 Z M2,10 C2,9.448 2.448,9 3,9 L16,9 C16.552,9 17,9.448 17,10 C17,10.552 16.552,11 16,11 L3,11 C2.448,11 2,10.552 2,10 Z"/>
</svg>
