<svg xmlns="http://www.w3.org/2000/svg" width="24" height="24" viewBox="0 0 24 24">
  <defs/>
  <path d="M2,14 C2,13.448 2.448,13 3,13 L21,13 C21.552,13 22,13.448 22,14 C22,14.552 21.552,15 21,15 L3,15 C2.448,15 2,14.552 2,14 Z M2,6 C2,5.448 2.448,5 3,5 L21,5 C21.552,5 22,5.448 22,6 C22,6.552 21.552,7 21,7 L3,7 C2.448,7 2,6.552 2,6 Z M5,18 C5,17.448 5.448,17 6,17 L18,17 C18.552,17 19,17.448 19,18 C19,18.552 18.552,19 18,19 L6,19 C5.448,19 5,18.552 5,18 Z M5,10 C5,9.448 5.448,9 6,9 L18,9 C18.552,9 19,9.448 19,10 C19,10.552 18.552,11 18,11 L6,11 C5.448,11 5,10.552 5,10 Z"/>
</svg>
