<svg xmlns="http://www.w3.org/2000/svg" width="24" height="24" viewBox="0 0 24 24">
  <defs/>
  <path d="M5.968,13 L18.032,13 C18.471,13 18.849,13 19.162,13.021 C19.492,13.044 19.822,13.093 20.148,13.228 C20.883,13.533 21.467,14.117 21.772,14.852 C21.907,15.178 21.956,15.508 21.979,15.838 C22,16.151 22,16.529 22,16.968 L22,17.032 C22,17.471 22,17.849 21.979,18.162 C21.956,18.492 21.907,18.822 21.772,19.148 C21.467,19.883 20.883,20.467 20.148,20.772 C19.822,20.907 19.492,20.956 19.162,20.979 C18.849,21 18.471,21 18.032,21 L5.968,21 C5.529,21 5.151,21 4.838,20.979 C4.508,20.956 4.178,20.907 3.852,20.772 C3.117,20.467 2.533,19.883 2.228,19.148 C2.093,18.822 2.044,18.492 2.021,18.162 C2,17.849 2,17.471 2,17.032 L2,16.968 C2,16.529 2,16.151 2.021,15.838 C2.044,15.508 2.093,15.178 2.228,14.852 C2.533,14.117 3.117,13.533 3.852,13.228 C4.178,13.093 4.508,13.044 4.838,13.021 C5.151,13 5.529,13 5.968,13 Z M16.032,3 L16.032,3 C16.471,3 16.849,3 17.162,3.021 C17.492,3.044 17.822,3.093 18.148,3.228 C18.883,3.533 19.467,4.117 19.772,4.852 C19.907,5.178 19.956,5.508 19.979,5.838 C20,6.151 20,6.529 20,6.968 L20,7.032 C20,7.471 20,7.849 19.979,8.162 C19.956,8.492 19.907,8.822 19.772,9.148 C19.467,9.883 18.883,10.467 18.148,10.772 C17.822,10.907 17.492,10.956 17.162,10.979 C16.849,11 16.471,11 16.032,11 L7.968,11 C7.529,11 7.151,11 6.838,10.979 C6.508,10.956 6.178,10.907 5.852,10.772 C5.117,10.467 4.533,9.883 4.228,9.148 C4.093,8.822 4.044,8.492 4.021,8.162 C4,7.849 4,7.471 4,7.032 L4,6.968 C4,6.529 4,6.151 4.021,5.838 C4.044,5.508 4.093,5.178 4.228,4.852 C4.533,4.117 5.117,3.533 5.852,3.228 C6.178,3.093 6.508,3.044 6.838,3.021 C7.151,3 7.529,3 7.968,3 L16.032,3 Z M4.974,15.017 C4.746,15.032 4.659,15.059 4.617,15.076 C4.372,15.178 4.178,15.372 4.076,15.617 C4.059,15.659 4.032,15.746 4.017,15.974 C4.001,16.211 4,16.52 4,17 C4,17.48 4.001,17.789 4.017,18.026 C4.032,18.254 4.059,18.341 4.076,18.383 C4.178,18.628 4.372,18.822 4.617,18.924 C4.659,18.941 4.746,18.968 4.974,18.983 C5.211,19 5.52,19 6,19 L18,19 C18.48,19 18.789,19 19.026,18.983 C19.254,18.968 19.341,18.941 19.383,18.924 C19.628,18.822 19.822,18.628 19.924,18.383 C19.941,18.341 19.968,18.254 19.983,18.026 C20,17.789 20,17.48 20,17 C20,16.52 20,16.211 19.983,15.974 C19.968,15.746 19.941,15.659 19.924,15.617 C19.822,15.372 19.628,15.178 19.383,15.076 C19.341,15.059 19.254,15.032 19.026,15.017 C18.789,15 18.48,15 18,15 L6,15 C5.52,15 5.211,15 4.974,15.017 Z M6.974,5.017 C6.746,5.032 6.659,5.059 6.617,5.076 C6.372,5.178 6.178,5.372 6.076,5.617 C6.059,5.659 6.032,5.746 6.017,5.974 C6.001,6.211 6,6.52 6,7 C6,7.48 6.001,7.789 6.017,8.026 C6.032,8.254 6.059,8.341 6.076,8.383 C6.178,8.628 6.372,8.822 6.617,8.924 C6.659,8.941 6.746,8.968 6.974,8.983 C7.211,8.999 7.52,9 8,9 L16,9 C16.48,9 16.789,8.999 17.026,8.983 C17.254,8.968 17.341,8.941 17.383,8.924 C17.628,8.822 17.822,8.628 17.924,8.383 C17.941,8.341 17.968,8.254 17.983,8.026 C18,7.789 18,7.48 18,7 C18,6.52 18,6.211 17.983,5.974 C17.968,5.746 17.941,5.659 17.924,5.617 C17.822,5.372 17.628,5.178 17.383,5.076 C17.341,5.059 17.254,5.032 17.026,5.017 C16.789,5.001 16.48,5 16,5 L8,5 C7.52,5 7.211,5.001 6.974,5.017 Z"/>
</svg>
