<svg xmlns="http://www.w3.org/2000/svg" width="24" height="24" viewBox="0 0 24 24">
  <defs/>
  <path d="M7.032,2 L7.032,2 C7.471,2 7.849,2 8.162,2.021 C8.492,2.044 8.822,2.093 9.148,2.228 C9.883,2.533 10.467,3.117 10.772,3.852 C10.907,4.178 10.956,4.508 10.979,4.838 C11,5.151 11,5.529 11,5.968 L11,18.032 C11,18.471 11,18.849 10.979,19.162 C10.956,19.492 10.907,19.822 10.772,20.148 C10.467,20.883 9.883,21.467 9.148,21.772 C8.822,21.907 8.492,21.956 8.162,21.979 C7.849,22 7.471,22 7.032,22 L6.968,22 C6.529,22 6.151,22 5.838,21.979 C5.508,21.956 5.178,21.907 4.852,21.772 C4.117,21.467 3.533,20.883 3.228,20.148 C3.093,19.822 3.044,19.492 3.021,19.162 C3,18.849 3,18.471 3,18.032 L3,5.968 C3,5.529 3,5.151 3.021,4.838 C3.044,4.508 3.093,4.178 3.228,3.852 C3.533,3.117 4.117,2.533 4.852,2.228 C5.178,2.093 5.508,2.044 5.838,2.021 C6.151,2 6.529,2 6.968,2 L7.032,2 Z M17.032,6 L17.032,6 C17.471,6 17.849,6 18.162,6.021 C18.492,6.044 18.822,6.093 19.148,6.228 C19.883,6.533 20.467,7.117 20.772,7.852 C20.907,8.178 20.956,8.508 20.979,8.838 C21,9.151 21,9.529 21,9.968 L21,18.032 C21,18.471 21,18.849 20.979,19.162 C20.956,19.492 20.907,19.822 20.772,20.148 C20.467,20.883 19.883,21.467 19.148,21.772 C18.822,21.907 18.492,21.956 18.162,21.979 C17.849,22 17.471,22 17.032,22 L16.968,22 C16.529,22 16.151,22 15.838,21.979 C15.508,21.956 15.178,21.907 14.852,21.772 C14.117,21.467 13.533,20.883 13.228,20.148 C13.093,19.822 13.044,19.492 13.021,19.162 C13,18.849 13,18.471 13,18.032 L13,9.968 C13,9.529 13,9.151 13.021,8.838 C13.044,8.508 13.093,8.178 13.228,7.852 C13.533,7.117 14.117,6.533 14.852,6.228 C15.178,6.093 15.508,6.044 15.838,6.021 C16.151,6 16.529,6 16.968,6 L17.032,6 Z M5.974,4.017 C5.746,4.032 5.659,4.059 5.617,4.076 C5.372,4.178 5.178,4.372 5.076,4.617 C5.059,4.659 5.032,4.746 5.017,4.974 C5.001,5.211 5,5.52 5,6 L5,18 C5,18.48 5.001,18.789 5.017,19.026 C5.032,19.254 5.059,19.341 5.076,19.383 C5.178,19.628 5.372,19.822 5.617,19.924 C5.659,19.941 5.746,19.968 5.974,19.983 C6.211,20 6.52,20 7,20 C7.48,20 7.789,20 8.026,19.983 C8.254,19.968 8.341,19.941 8.383,19.924 C8.628,19.822 8.822,19.628 8.924,19.383 C8.941,19.341 8.968,19.254 8.983,19.026 C8.999,18.789 9,18.48 9,18 L9,6 C9,5.52 8.999,5.211 8.983,4.974 C8.968,4.746 8.941,4.659 8.924,4.617 C8.822,4.372 8.628,4.178 8.383,4.076 C8.341,4.059 8.254,4.032 8.026,4.017 C7.789,4.001 7.48,4 7,4 C6.52,4 6.211,4.001 5.974,4.017 Z M15.974,8.017 C15.746,8.032 15.659,8.059 15.617,8.076 C15.372,8.178 15.178,8.372 15.076,8.617 C15.059,8.659 15.032,8.746 15.017,8.974 C15,9.211 15,9.52 15,10 L15,18 C15,18.48 15,18.789 15.017,19.026 C15.032,19.254 15.059,19.341 15.076,19.383 C15.178,19.628 15.372,19.822 15.617,19.924 C15.659,19.941 15.746,19.968 15.974,19.983 C16.211,20 16.52,20 17,20 C17.48,20 17.789,20 18.026,19.983 C18.254,19.968 18.341,19.941 18.383,19.924 C18.628,19.822 18.822,19.628 18.924,19.383 C18.941,19.341 18.968,19.254 18.983,19.026 C19,18.789 19,18.48 19,18 L19,10 C19,9.52 19,9.211 18.983,8.974 C18.968,8.746 18.941,8.659 18.924,8.617 C18.822,8.372 18.628,8.178 18.383,8.076 C18.341,8.059 18.254,8.032 18.026,8.017 C17.789,8.001 17.48,8 17,8 C16.52,8 16.211,8.001 15.974,8.017 Z"/>
</svg>
