<svg xmlns="http://www.w3.org/2000/svg" width="24" height="24" viewBox="0 0 24 24">
  <defs/>
  <path d="M14.707,4.293 C15.098,4.683 15.098,5.317 14.707,5.707 L9.414,11 L21,11 C21.552,11 22,11.448 22,12 C22,12.552 21.552,13 21,13 L9.414,13 L14.707,18.293 C15.098,18.683 15.098,19.317 14.707,19.707 C14.317,20.098 13.683,20.098 13.293,19.707 L6.293,12.707 C5.902,12.317 5.902,11.683 6.293,11.293 L13.293,4.293 C13.683,3.902 14.317,3.902 14.707,4.293 Z M3,2 C3.552,2 4,2.448 4,3 L4,21 C4,21.552 3.552,22 3,22 C2.448,22 2,21.552 2,21 L2,3 C2,2.448 2.448,2 3,2 Z"/>
</svg>
