<svg xmlns="http://www.w3.org/2000/svg" width="24" height="24" viewBox="0 0 24 24">
  <defs/>
  <path d="M12,2 C12.552,2 13,2.448 13,3 L13,14.586 L18.293,9.293 C18.683,8.902 19.317,8.902 19.707,9.293 C20.098,9.683 20.098,10.317 19.707,10.707 L12.707,17.707 C12.52,17.895 12.265,18 12,18 C11.735,18 11.48,17.895 11.293,17.707 L4.293,10.707 C3.902,10.317 3.902,9.683 4.293,9.293 C4.683,8.902 5.317,8.902 5.707,9.293 L11,14.586 L11,3 C11,2.448 11.448,2 12,2 Z M2,21 C2,20.448 2.448,20 3,20 L21,20 C21.552,20 22,20.448 22,21 C22,21.552 21.552,22 21,22 L3,22 C2.448,22 2,21.552 2,21 Z"/>
</svg>
