<svg xmlns="http://www.w3.org/2000/svg" width="24" height="24" viewBox="0 0 24 24">
  <defs/>
  <path d="M2,12 C2,11.448 2.448,11 3,11 L21,11 C21.552,11 22,11.448 22,12 C22,12.552 21.552,13 21,13 L3,13 C2.448,13 2,12.552 2,12 Z M12,1 C12.552,1 13,1.448 13,2 L13,6.086 L15.293,3.793 C15.683,3.402 16.317,3.402 16.707,3.793 C17.098,4.183 17.098,4.817 16.707,5.207 L12.707,9.207 C12.317,9.598 11.683,9.598 11.293,9.207 L7.293,5.207 C6.902,4.817 6.902,4.183 7.293,3.793 C7.683,3.402 8.317,3.402 8.707,3.793 L11,6.086 L11,2 C11,1.448 11.448,1 12,1 Z M7.293,18.793 L11.293,14.793 C11.683,14.402 12.317,14.402 12.707,14.793 L16.707,18.793 C17.098,19.183 17.098,19.817 16.707,20.207 C16.317,20.598 15.683,20.598 15.293,20.207 L13,17.914 L13,22 C13,22.552 12.552,23 12,23 C11.448,23 11,22.552 11,22 L11,17.914 L8.707,20.207 C8.317,20.598 7.683,20.598 7.293,20.207 C6.902,19.817 6.902,19.183 7.293,18.793 Z"/>
</svg>
