<svg xmlns="http://www.w3.org/2000/svg" width="24" height="24" viewBox="0 0 24 24">
  <defs/>
  <path d="M8,5 C8,2.791 9.791,1 12,1 C14.209,1 16,2.791 16,5 C16,6.864 14.725,8.43 13,8.874 L13,20.944 C15.019,20.719 16.913,19.814 18.364,18.364 C19.814,16.913 20.719,15.019 20.944,13 L19,13 C18.448,13 18,12.552 18,12 C18,11.448 18.448,11 19,11 L22,11 C22.552,11 23,11.448 23,12 C23,14.917 21.841,17.715 19.778,19.778 C17.715,21.841 14.917,23 12,23 C9.083,23 6.285,21.841 4.222,19.778 C2.159,17.715 1,14.917 1,12 C1,11.735 1.105,11.48 1.293,11.293 C1.48,11.105 1.735,11 2,11 L5,11 C5.552,11 6,11.448 6,12 C6,12.552 5.552,13 5,13 L3.056,13 C3.281,15.019 4.186,16.913 5.636,18.364 C7.086,19.814 8.981,20.719 11,20.944 L11,8.874 C9.275,8.43 8,6.864 8,5 Z M12,3 C10.895,3 10,3.895 10,5 C10,6.105 10.895,7 12,7 C13.105,7 14,6.105 14,5 C14,3.895 13.105,3 12,3 Z"/>
</svg>
