<svg width="24" height="24" viewBox="0 0 24 24" fill="none" xmlns="http://www.w3.org/2000/svg">
<path d="M1 12C1 5.92487 5.92487 1 12 1C13.1307 1 14.2238 1.17111 15.2529 1.48926C15.7803 1.65252 16.0762 2.21271 15.9131 2.74023C15.7499 3.2677 15.1897 3.56245 14.6621 3.39941C13.8221 3.13974 12.9282 3 12 3C7.02944 3 3 7.02944 3 12C3 16.9706 7.02944 21 12 21C16.9706 21 21 16.9706 21 12C21 11.5994 20.9734 11.2053 20.9229 10.8193L20.8643 10.4355L20.8525 10.334C20.8159 9.82855 21.1669 9.36784 21.6768 9.27832C22.1866 9.18903 22.6739 9.50264 22.8115 9.99023L22.835 10.0908L22.9062 10.5596C22.968 11.0314 23 11.5122 23 12C23 18.0751 18.0751 23 12 23C5.92487 23 1 18.0751 1 12ZM8.79785 16.6025H8.79883V16.6016C8.79885 16.6015 8.79975 16.6003 8.79883 16.5996C8.46744 17.0411 7.84211 17.131 7.40039 16.7998C6.95861 16.4685 6.86896 15.8422 7.2002 15.4004L7.67871 15.7588C7.21158 15.4083 7.20026 15.3999 7.2002 15.3994L7.20215 15.3975C7.20297 15.3964 7.20407 15.3949 7.20508 15.3936C7.20709 15.3909 7.20915 15.3874 7.21191 15.3838C7.21747 15.3766 7.22481 15.3673 7.2334 15.3564C7.25062 15.3347 7.27446 15.3063 7.30371 15.2715C7.36236 15.2016 7.44531 15.1062 7.55176 14.9951C7.76382 14.7739 8.07396 14.4828 8.47461 14.1914C9.27255 13.6111 10.4745 13 12 13C13.5255 13 14.7275 13.6111 15.5254 14.1914C15.926 14.4828 16.2362 14.7739 16.4482 14.9951C16.5547 15.1062 16.6376 15.2016 16.6963 15.2715C16.7255 15.3063 16.7494 15.3347 16.7666 15.3564C16.7752 15.3673 16.7825 15.3766 16.7881 15.3838C16.7909 15.3874 16.7929 15.3909 16.7949 15.3936C16.7959 15.3949 16.797 15.3964 16.7979 15.3975L16.7998 15.3994C16.7997 15.3999 16.7884 15.4083 16.3213 15.7588L16.7998 15.4004C17.131 15.8422 17.0414 16.4685 16.5996 16.7998C16.1578 17.131 15.5315 17.0414 15.2002 16.5996V16.6006L15.2012 16.6025L15.1982 16.5986C15.1923 16.5911 15.1816 16.5764 15.165 16.5566C15.1319 16.5172 15.0779 16.4561 15.0049 16.3799C14.8576 16.2262 14.6362 16.017 14.3496 15.8086C13.7725 15.3889 12.9745 15 12 15C11.0255 15 10.2275 15.3889 9.65039 15.8086C9.36384 16.017 9.1424 16.2262 8.99512 16.3799C8.92208 16.4561 8.86805 16.5172 8.83496 16.5566C8.81842 16.5764 8.80771 16.5911 8.80176 16.5986C8.80029 16.6005 8.79865 16.6015 8.79785 16.6025ZM18.0312 2.33008C18.3377 1.87099 18.9586 1.7465 19.418 2.05273C19.8774 2.3591 20.0016 2.98092 19.6953 3.44043L18.0645 5.88574H20.1963C20.565 5.88578 20.9041 6.08804 21.0781 6.41309C21.2521 6.73824 21.2329 7.13357 21.0283 7.44043L18.3613 11.4404L18.3008 11.5225C17.9785 11.9135 17.4054 12.0049 16.9746 11.7178C16.5151 11.4114 16.3909 10.7896 16.6973 10.3301L18.3271 7.88574H16.1963C15.8276 7.88574 15.4885 7.68245 15.3145 7.35742C15.1404 7.03226 15.1597 6.63693 15.3643 6.33008L18.0312 2.33008Z" fill="black"/>
</svg>
