<svg xmlns="http://www.w3.org/2000/svg" width="24" height="24" viewBox="0 0 24 24">
  <defs/>
  <path d="M16.241,2 L16.241,2 C17.046,2 17.711,2 18.252,2.044 C18.814,2.09 19.331,2.189 19.816,2.436 C20.569,2.819 21.181,3.431 21.564,4.184 C21.811,4.669 21.91,5.186 21.956,5.748 C22,6.289 22,6.954 22,7.759 L22,13.534 C22,14.204 22,14.757 21.969,15.21 C21.937,15.679 21.869,16.113 21.695,16.531 C21.289,17.511 20.511,18.289 19.531,18.695 C19.113,18.869 18.679,18.937 18.209,18.969 C17.757,19 17.204,19 16.534,19 L16.5,19 C15.963,19 15.857,19.006 15.77,19.027 C15.619,19.062 15.478,19.133 15.359,19.232 C15.291,19.289 15.222,19.371 14.9,19.8 L13.423,21.769 C13.33,21.894 13.224,22.035 13.123,22.148 C13.011,22.272 12.824,22.455 12.544,22.565 C12.194,22.701 11.806,22.701 11.456,22.565 C11.176,22.455 10.989,22.272 10.877,22.148 C10.776,22.035 10.67,21.894 10.577,21.769 L9.1,19.8 C8.778,19.371 8.709,19.289 8.641,19.232 C8.522,19.133 8.381,19.062 8.23,19.027 C8.143,19.006 8.037,19 7.5,19 L7.466,19 C6.796,19 6.243,19 5.79,18.969 C5.321,18.937 4.887,18.869 4.469,18.695 C3.489,18.289 2.71,17.511 2.304,16.531 C2.131,16.113 2.063,15.679 2.031,15.21 C2,14.757 2,14.204 2,13.534 L2,7.759 C2,6.954 2,6.289 2.044,5.748 C2.09,5.186 2.189,4.669 2.436,4.184 C2.819,3.431 3.431,2.819 4.184,2.436 C4.669,2.189 5.186,2.09 5.748,2.044 C6.289,2 6.954,2 7.759,2 L16.241,2 Z M5.911,4.038 C5.473,4.073 5.248,4.138 5.092,4.218 C4.716,4.41 4.41,4.716 4.218,5.092 C4.138,5.248 4.073,5.473 4.038,5.911 C4.001,6.361 4,6.943 4,7.8 L4,13.5 C4,14.213 4.001,14.697 4.026,15.073 C4.051,15.441 4.097,15.632 4.152,15.765 C4.355,16.255 4.745,16.645 5.235,16.848 C5.368,16.903 5.559,16.949 5.927,16.974 C6.303,17 6.787,17 7.5,17 C7.528,17 7.556,17 7.584,17 L7.586,17 C7.991,17 8.347,16.999 8.689,17.08 C9.143,17.187 9.565,17.398 9.922,17.697 C10.193,17.923 10.407,18.208 10.65,18.533 C10.666,18.555 10.683,18.577 10.7,18.6 L12,20.333 L13.3,18.6 C13.317,18.577 13.334,18.555 13.35,18.533 C13.593,18.208 13.807,17.923 14.078,17.697 C14.435,17.398 14.858,17.187 15.311,17.08 C15.653,16.999 16.009,17 16.414,17 L16.416,17 C16.444,17 16.472,17 16.5,17 C17.213,17 17.697,17 18.073,16.974 C18.441,16.949 18.632,16.903 18.765,16.848 C19.255,16.645 19.645,16.255 19.848,15.765 C19.903,15.632 19.949,15.441 19.974,15.073 C20,14.697 20,14.213 20,13.5 L20,7.8 C20,6.943 19.999,6.361 19.962,5.911 C19.927,5.473 19.862,5.248 19.782,5.092 C19.59,4.716 19.284,4.41 18.908,4.218 C18.752,4.138 18.527,4.073 18.089,4.038 C17.639,4.001 17.057,4 16.2,4 L7.8,4 C6.943,4 6.361,4.001 5.911,4.038 Z M12.332,8.018 C12.041,7.968 11.743,8.023 11.488,8.172 C11.234,8.321 11.041,8.556 10.943,8.834 C10.76,9.355 10.189,9.629 9.668,9.446 C9.147,9.262 8.873,8.691 9.057,8.17 C9.311,7.447 9.814,6.837 10.475,6.448 C11.136,6.059 11.914,5.917 12.67,6.047 C13.426,6.176 14.112,6.57 14.606,7.156 C15.1,7.743 15.37,8.486 15.369,9.253 C15.369,10.532 14.422,11.355 13.8,11.77 C13.458,11.998 13.124,12.164 12.878,12.273 C12.754,12.328 12.65,12.37 12.573,12.399 C12.535,12.414 12.504,12.425 12.481,12.433 L12.453,12.443 L12.443,12.447 L12.44,12.448 L12.438,12.448 C12.438,12.448 12.437,12.449 12.121,11.5 L12.437,12.449 C11.913,12.623 11.347,12.34 11.172,11.816 C10.998,11.293 11.28,10.727 11.804,10.552 L11.811,10.549 C11.821,10.545 11.838,10.539 11.861,10.53 C11.908,10.512 11.979,10.484 12.066,10.446 C12.242,10.367 12.47,10.253 12.69,10.106 C13.192,9.771 13.369,9.47 13.369,9.252 L13.369,9.25 C13.37,8.955 13.266,8.67 13.076,8.444 C12.886,8.219 12.623,8.068 12.332,8.018 Z M11.15,14.5 C11.15,13.948 11.598,13.5 12.15,13.5 L12.16,13.5 C12.712,13.5 13.16,13.948 13.16,14.5 C13.16,15.052 12.712,15.5 12.16,15.5 L12.15,15.5 C11.598,15.5 11.15,15.052 11.15,14.5 Z"/>
</svg>
