<svg xmlns="http://www.w3.org/2000/svg" width="24" height="24" viewBox="0 0 24 24">
  <defs/>
  <path d="M16.567,2.141 C16.859,2.009 17.285,1.839 17.743,1.896 C18.316,1.966 18.791,2.247 19.127,2.717 C19.391,3.086 19.448,3.524 19.473,3.84 C19.5,4.173 19.5,4.598 19.5,5.086 L19.5,14.914 C19.5,15.402 19.5,15.827 19.473,16.16 C19.448,16.476 19.391,16.914 19.127,17.283 C18.791,17.753 18.316,18.034 17.743,18.104 C17.285,18.16 16.859,17.991 16.567,17.859 C16.249,17.715 15.857,17.501 15.4,17.253 L15.366,17.234 C13.797,16.378 11.956,15.591 10.5,15.507 L10.5,18.792 C10.5,18.983 10.5,19.146 10.486,19.294 C10.345,20.718 9.218,21.845 7.794,21.986 C7.646,22 7.482,22 7.292,22 L7.208,22 C7.018,22 6.854,22 6.706,21.986 C5.282,21.845 4.155,20.718 4.014,19.294 C4,19.146 4,18.982 4,18.792 L4,18.792 L4,18.75 L4,15.488 C3.944,15.485 3.89,15.482 3.838,15.479 C3.508,15.456 3.178,15.407 2.852,15.272 C2.117,14.967 1.533,14.383 1.228,13.648 C1.093,13.322 1.044,12.992 1.021,12.662 C1,12.349 1,11.971 1,11.532 L1,10.259 C1,9.454 1,8.789 1.044,8.248 C1.09,7.686 1.189,7.169 1.436,6.684 C1.819,5.931 2.431,5.319 3.184,4.936 C3.669,4.689 4.186,4.59 4.748,4.544 C5.289,4.5 5.953,4.5 6.758,4.5 L10.25,4.5 C11.741,4.5 13.706,3.671 15.366,2.766 L15.4,2.747 C15.857,2.498 16.249,2.285 16.567,2.141 Z M17.389,3.964 C17.149,4.073 16.824,4.249 16.323,4.522 C14.649,5.435 12.292,6.5 10.25,6.5 L6.8,6.5 C5.943,6.5 5.361,6.501 4.911,6.538 C4.473,6.573 4.248,6.638 4.092,6.718 C3.716,6.91 3.41,7.216 3.218,7.592 C3.138,7.748 3.073,7.973 3.038,8.411 C3.001,8.861 3,9.443 3,10.3 L3,11.5 C3,11.98 3.001,12.289 3.017,12.526 C3.032,12.754 3.059,12.841 3.076,12.883 C3.178,13.128 3.372,13.322 3.617,13.424 C3.659,13.441 3.746,13.468 3.974,13.483 C4.211,13.499 4.52,13.5 5,13.5 C5.552,13.5 6,13.948 6,14.5 L6,18.75 C6,19.006 6.001,19.061 6.005,19.098 C6.052,19.573 6.427,19.948 6.902,19.995 C6.939,19.999 6.994,20 7.25,20 C7.506,20 7.561,19.999 7.598,19.995 C8.073,19.948 8.448,19.573 8.495,19.098 C8.499,19.061 8.5,19.006 8.5,18.75 L8.5,14.5 C8.5,13.948 8.948,13.5 9.5,13.5 L10.25,13.5 C12.292,13.5 14.649,14.565 16.323,15.478 C16.824,15.751 17.149,15.927 17.389,16.036 C17.421,16.05 17.449,16.062 17.473,16.072 C17.476,16.051 17.478,16.028 17.48,16.002 C17.499,15.757 17.5,15.413 17.5,14.874 L17.5,5.126 C17.5,4.587 17.499,4.243 17.48,3.998 C17.478,3.972 17.476,3.949 17.473,3.928 C17.449,3.938 17.421,3.95 17.389,3.964 Z M22,7 C22.552,7 23,7.448 23,8 L23,12 C23,12.552 22.552,13 22,13 C21.448,13 21,12.552 21,12 L21,8 C21,7.448 21.448,7 22,7 Z"/>
</svg>
