<svg xmlns="http://www.w3.org/2000/svg" width="24" height="24" viewBox="0 0 24 24">
  <defs/>
  <path d="M17.544,2.157 C17.844,2.056 18.163,2 18.5,2 C20.011,2 21.151,3.122 21.855,4.43 C22.581,5.778 23,7.573 23,9.5 C23,11.427 22.581,13.222 21.855,14.57 C21.151,15.878 20.011,17 18.5,17 C18.163,17 17.844,16.944 17.544,16.843 L11.093,15.67 L11.367,19.234 L11.367,19.235 C11.388,19.505 11.408,19.765 11.406,19.986 C11.405,20.228 11.379,20.516 11.248,20.811 C11.068,21.216 10.759,21.55 10.369,21.761 C10.085,21.913 9.799,21.961 9.559,21.982 C9.34,22 9.08,22 8.81,22 L6.955,22 C6.72,22 6.49,22 6.294,21.984 C6.077,21.967 5.821,21.927 5.561,21.801 C5.199,21.626 4.897,21.345 4.697,20.996 C4.553,20.745 4.494,20.494 4.461,20.278 C4.432,20.082 4.415,19.851 4.399,19.616 L4.023,14.362 C3.733,14.289 3.474,14.203 3.236,14.087 C2.219,13.587 1.462,12.679 1.152,11.589 C0.999,11.05 0.999,10.446 1,9.637 C1,9.592 1,9.546 1,9.5 C1,9.454 1,9.408 1,9.363 C0.999,8.554 0.999,7.95 1.152,7.411 C1.462,6.321 2.219,5.413 3.236,4.913 C3.739,4.667 4.334,4.559 5.13,4.414 C5.174,4.406 5.219,4.398 5.265,4.39 Z M15.032,4.647 L5.622,6.358 C4.632,6.538 4.337,6.601 4.118,6.709 C3.61,6.958 3.231,7.412 3.076,7.957 C3.009,8.192 3,8.493 3,9.5 C3,10.507 3.009,10.808 3.076,11.043 C3.231,11.588 3.61,12.042 4.118,12.291 C4.337,12.399 4.632,12.462 5.622,12.642 L15.032,14.353 C14.375,13.032 14,11.326 14,9.5 C14,7.674 14.375,5.968 15.032,4.647 Z M16.906,5.378 C16.365,6.382 16,7.837 16,9.5 C16,11.163 16.365,12.618 16.906,13.622 C17.309,14.371 17.736,14.754 18.101,14.911 L18.573,14.997 C18.99,14.96 19.563,14.608 20.094,13.622 C20.635,12.618 21,11.163 21,9.5 C21,7.837 20.635,6.382 20.094,5.378 C19.563,4.392 18.99,4.04 18.573,4.003 L18.101,4.089 C17.736,4.246 17.309,4.629 16.906,5.378 Z M9.059,15.3 L6.056,14.754 L6.391,19.443 C6.411,19.72 6.423,19.871 6.439,19.978 C6.439,19.982 6.44,19.986 6.441,19.99 C6.444,19.99 6.448,19.99 6.452,19.991 C6.561,19.999 6.711,20 6.99,20 L8.772,20 C9.089,20 9.265,19.999 9.391,19.989 C9.397,19.988 9.402,19.988 9.406,19.987 C9.406,19.983 9.406,19.977 9.406,19.972 C9.407,19.846 9.395,19.67 9.37,19.354 Z"/>
</svg>
