<svg xmlns="http://www.w3.org/2000/svg" width="24" height="24" viewBox="0 0 24 24">
  <defs/>
  <path d="M19.5,5.611 C21.504,6.066 23,7.858 23,10 C23,12.142 21.504,13.934 19.5,14.389 L19.5,14.914 C19.5,15.402 19.5,15.827 19.473,16.16 C19.448,16.476 19.391,16.914 19.127,17.283 C18.791,17.753 18.316,18.034 17.743,18.104 C17.285,18.16 16.859,17.991 16.567,17.859 C16.249,17.715 15.857,17.501 15.4,17.253 L15.366,17.234 C13.972,16.474 12.363,15.767 11,15.561 L11,19.796 C11,19.983 11,20.144 10.986,20.29 C10.847,21.718 9.717,22.847 8.29,22.986 C8.144,23 7.983,23 7.795,23 L7.717,23 C7.568,23 7.439,23 7.317,22.99 C6.124,22.892 5.104,22.096 4.72,20.962 C4.68,20.845 4.649,20.719 4.612,20.572 C4.61,20.562 4.607,20.552 4.604,20.541 L3.038,14.274 C1.795,13.265 1,11.725 1,10 C1,6.962 3.462,4.5 6.5,4.5 L10.25,4.5 C11.741,4.5 13.706,3.671 15.366,2.766 L15.4,2.747 C15.857,2.498 16.249,2.285 16.567,2.141 C16.859,2.009 17.285,1.839 17.743,1.896 C18.316,1.966 18.791,2.247 19.127,2.717 C19.391,3.086 19.448,3.524 19.473,3.84 C19.5,4.173 19.5,4.598 19.5,5.086 Z M17.389,3.964 C17.149,4.073 16.824,4.249 16.323,4.522 C14.85,5.325 12.85,6.246 11,6.456 L11,13.544 C12.85,13.754 14.85,14.675 16.323,15.478 C16.824,15.751 17.149,15.927 17.389,16.036 C17.421,16.05 17.449,16.062 17.473,16.072 C17.476,16.051 17.478,16.028 17.48,16.002 C17.499,15.757 17.5,15.413 17.5,14.874 L17.5,5.126 C17.5,4.587 17.499,4.243 17.48,3.998 C17.478,3.972 17.476,3.949 17.473,3.928 C17.449,3.938 17.421,3.95 17.389,3.964 Z M9,13.5 L9,6.5 L6.5,6.5 C4.567,6.5 3,8.067 3,10 C3,11.933 4.567,13.5 6.5,13.5 Z M9,15.5 L6.5,15.5 C6.115,15.5 5.74,15.46 5.377,15.385 L6.545,20.056 C6.594,20.251 6.605,20.292 6.614,20.321 C6.742,20.698 7.083,20.964 7.48,20.997 C7.511,20.999 7.553,21 7.754,21 C8.006,21 8.061,20.999 8.097,20.995 C8.573,20.949 8.949,20.573 8.995,20.097 C8.999,20.06 9,20.006 9,19.754 Z M19.5,7.708 L19.5,12.292 C20.383,11.906 21,11.025 21,10 C21,8.975 20.383,8.094 19.5,7.708 Z"/>
</svg>
