<svg xmlns="http://www.w3.org/2000/svg" width="24" height="24" viewBox="0 0 24 24">
  <defs/>
  <path d="M4.416,2 C4.444,2 4.472,2 4.5,2 L19.5,2 C19.528,2 19.556,2 19.584,2 L19.584,2 C19.965,2 20.292,1.999 20.585,2.058 C21.775,2.294 22.706,3.225 22.942,4.415 C23.001,4.707 23,5.035 23,5.415 L23,5.585 C23,5.965 23.001,6.293 22.942,6.585 C22.734,7.633 21.988,8.48 21,8.829 L21,16.241 C21,17.046 21,17.711 20.956,18.252 C20.91,18.814 20.811,19.331 20.564,19.816 C20.181,20.569 19.569,21.181 18.816,21.564 C18.331,21.811 17.814,21.91 17.252,21.956 C16.711,22 16.046,22 15.241,22 L8.759,22 C7.954,22 7.289,22 6.748,21.956 C6.186,21.91 5.669,21.811 5.184,21.564 C4.431,21.181 3.819,20.569 3.436,19.816 C3.189,19.331 3.09,18.814 3.044,18.252 C3,17.711 3,17.046 3,16.241 L3,8.829 C2.012,8.48 1.266,7.633 1.058,6.585 C0.999,6.292 1,5.965 1,5.584 C1,5.556 1,5.528 1,5.5 C1,5.472 1,5.444 1,5.416 C1,5.035 0.999,4.708 1.058,4.415 C1.294,3.225 2.225,2.294 3.415,2.058 C3.708,1.999 4.035,2 4.416,2 Z M5,9 L5,16.2 C5,17.057 5.001,17.639 5.038,18.089 C5.073,18.527 5.138,18.752 5.218,18.908 C5.41,19.284 5.716,19.59 6.092,19.782 C6.248,19.862 6.473,19.927 6.911,19.962 C7.361,19.999 7.943,20 8.8,20 L15.2,20 C16.057,20 16.639,19.999 17.089,19.962 C17.527,19.927 17.752,19.862 17.908,19.782 C18.284,19.59 18.59,19.284 18.782,18.908 C18.862,18.752 18.927,18.527 18.962,18.089 C18.999,17.639 19,17.057 19,16.2 L19,9 Z M19.917,7 C19.936,6.998 19.955,6.997 19.974,6.997 C20.118,6.993 20.171,6.986 20.195,6.981 C20.592,6.902 20.902,6.592 20.981,6.195 C20.995,6.123 21,6.013 21,5.5 C21,4.987 20.995,4.877 20.981,4.805 C20.902,4.408 20.592,4.098 20.195,4.019 C20.123,4.005 20.013,4 19.5,4 L4.5,4 C3.987,4 3.877,4.005 3.805,4.019 C3.408,4.098 3.098,4.408 3.019,4.805 C3.005,4.877 3,4.987 3,5.5 C3,6.013 3.005,6.123 3.019,6.195 C3.098,6.592 3.408,6.902 3.805,6.981 C3.829,6.986 3.882,6.993 4.026,6.997 C4.045,6.997 4.064,6.998 4.083,7 Z M9,13 C9,12.448 9.448,12 10,12 L14,12 C14.552,12 15,12.448 15,13 C15,13.552 14.552,14 14,14 L10,14 C9.448,14 9,13.552 9,13 Z"/>
</svg>
