<svg xmlns="http://www.w3.org/2000/svg" width="24" height="24" viewBox="0 0 24 24">
  <defs/>
  <path d="M8.707,12.293 C9.098,12.683 9.098,13.317 8.707,13.707 L6.414,16 L20,16 C20.552,16 21,16.448 21,17 C21,17.552 20.552,18 20,18 L6.414,18 L8.707,20.293 C9.098,20.683 9.098,21.317 8.707,21.707 C8.317,22.098 7.683,22.098 7.293,21.707 L3.293,17.707 C2.902,17.317 2.902,16.683 3.293,16.293 L7.293,12.293 C7.683,11.902 8.317,11.902 8.707,12.293 Z M13.707,2.293 C14.098,2.683 14.098,3.317 13.707,3.707 L11.414,6 L20,6 C20.552,6 21,6.448 21,7 C21,7.552 20.552,8 20,8 L11.414,8 L13.707,10.293 C14.098,10.683 14.098,11.317 13.707,11.707 C13.317,12.098 12.683,12.098 12.293,11.707 L8.293,7.707 C8.105,7.52 8,7.265 8,7 C8,6.735 8.105,6.48 8.293,6.293 L12.293,2.293 C12.683,1.902 13.317,1.902 13.707,2.293 Z"/>
</svg>
