<svg xmlns="http://www.w3.org/2000/svg" width="24" height="24" viewBox="0 0 24 24">
  <defs/>
  <path d="M9.777,2 L14.223,2 C14.342,2 14.484,2 14.61,2.01 C14.755,2.022 14.963,2.052 15.181,2.164 C15.463,2.307 15.693,2.537 15.837,2.819 C15.948,3.037 15.978,3.245 15.99,3.39 C16,3.516 16,3.658 16,3.777 L16,13 L19,13 C19.404,13 19.769,13.244 19.924,13.617 C20.079,13.991 19.993,14.421 19.707,14.707 L12.707,21.707 C12.317,22.098 11.683,22.098 11.293,21.707 L4.293,14.707 C4.007,14.421 3.921,13.991 4.076,13.617 C4.231,13.244 4.596,13 5,13 L8,13 L8,3.8 L8,3.777 L8,3.776 C8,3.657 8,3.515 8.01,3.39 C8.022,3.245 8.052,3.037 8.164,2.819 C8.307,2.537 8.537,2.307 8.819,2.164 C9.037,2.052 9.245,2.022 9.39,2.01 C9.516,2 9.658,2 9.777,2 Z M10,4 L10,14 C10,14.552 9.552,15 9,15 L7.414,15 L12,19.586 L16.586,15 L15,15 C14.448,15 14,14.552 14,14 L14,4 Z"/>
</svg>
