<svg xmlns="http://www.w3.org/2000/svg" width="24" height="24" viewBox="0 0 24 24">
  <defs/>
  <path d="M18.506,11.647 C18.978,11.359 19.593,11.507 19.881,11.979 L20.904,13.652 C21.368,14.412 21.753,15.041 22.009,15.562 C22.267,16.087 22.476,16.654 22.423,17.261 C22.347,18.119 21.908,18.903 21.215,19.414 C20.725,19.776 20.132,19.894 19.55,19.947 C18.972,20 18.234,20 17.343,20 L14.914,20 L16.207,21.293 C16.598,21.683 16.598,22.317 16.207,22.707 C15.817,23.098 15.183,23.098 14.793,22.707 L11.793,19.707 C11.402,19.317 11.402,18.683 11.793,18.293 L14.793,15.293 C15.183,14.902 15.817,14.902 16.207,15.293 C16.598,15.683 16.598,16.317 16.207,16.707 L14.914,18 L17.294,18 C18.247,18 18.892,17.999 19.367,17.955 C19.85,17.911 19.989,17.833 20.028,17.805 C20.258,17.634 20.405,17.373 20.43,17.087 C20.434,17.039 20.428,16.88 20.214,16.445 C20.003,16.016 19.668,15.465 19.171,14.653 L18.174,13.021 C17.886,12.55 18.035,11.935 18.506,11.647 Z M5.839,9.534 C6.373,9.391 6.921,9.708 7.064,10.241 L7.07,10.264 C7.09,10.318 7.105,10.374 7.115,10.431 L8.162,14.339 C8.305,14.873 7.988,15.421 7.455,15.564 C6.922,15.707 6.373,15.39 6.23,14.857 L5.765,13.12 L4.829,14.653 C4.332,15.465 3.997,16.016 3.786,16.445 C3.572,16.88 3.566,17.039 3.57,17.087 C3.595,17.373 3.741,17.634 3.972,17.805 C4.011,17.833 4.15,17.911 4.633,17.955 C5.109,17.999 5.753,18 6.706,18 L8.5,18 C9.052,18 9.5,18.448 9.5,19 C9.5,19.552 9.052,20 8.5,20 L6.657,20 C5.766,20 5.028,20 4.45,19.947 C3.868,19.894 3.275,19.776 2.785,19.414 C2.092,18.903 1.653,18.119 1.578,17.261 C1.524,16.654 1.733,16.087 1.991,15.562 C2.247,15.041 2.632,14.412 3.096,13.652 L4.055,12.083 L2.259,12.564 C1.725,12.707 1.177,12.39 1.034,11.857 C0.891,11.323 1.208,10.775 1.741,10.632 Z M10.807,2.083 C11.568,1.753 12.432,1.753 13.193,2.083 C13.727,2.314 14.113,2.733 14.444,3.178 C14.77,3.615 15.129,4.202 15.559,4.906 L16.554,6.534 L17.034,4.741 C17.177,4.208 17.725,3.891 18.259,4.034 C18.792,4.177 19.109,4.725 18.966,5.259 L17.868,9.357 C17.725,9.89 17.177,10.207 16.643,10.064 L12.545,8.966 C12.012,8.823 11.695,8.275 11.838,7.741 C11.981,7.208 12.529,6.891 13.063,7.034 L14.8,7.5 L13.877,5.99 C13.416,5.234 13.105,4.727 12.84,4.372 C12.574,4.015 12.445,3.938 12.398,3.918 C12.144,3.808 11.856,3.808 11.602,3.918 C11.555,3.938 11.426,4.015 11.16,4.372 C10.895,4.727 10.584,5.234 10.123,5.99 L9.103,7.658 C8.815,8.13 8.199,8.278 7.728,7.99 C7.257,7.702 7.108,7.087 7.396,6.615 L8.441,4.906 C8.871,4.202 9.23,3.615 9.556,3.178 C9.887,2.733 10.273,2.314 10.807,2.083 Z"/>
</svg>
