<svg xmlns="http://www.w3.org/2000/svg" width="24" height="24" viewBox="0 0 24 24">
  <defs/>
  <path d="M1,12 C1,5.925 5.925,1 12,1 C18.075,1 23,5.925 23,12 C23,18.075 18.075,23 12,23 C5.925,23 1,18.075 1,12 Z M12,3 C7.029,3 3,7.029 3,12 C3,16.971 7.029,21 12,21 C16.971,21 21,16.971 21,12 C21,7.029 16.971,3 12,3 Z M11.293,8.707 C10.902,8.317 10.902,7.683 11.293,7.293 C11.683,6.902 12.317,6.902 12.707,7.293 L16.707,11.293 C17.098,11.683 17.098,12.317 16.707,12.707 L12.707,16.707 C12.317,17.098 11.683,17.098 11.293,16.707 C10.902,16.317 10.902,15.683 11.293,15.293 L13.586,13 L8,13 C7.448,13 7,12.552 7,12 C7,11.448 7.448,11 8,11 L13.586,11 Z"/>
</svg>
