<svg xmlns="http://www.w3.org/2000/svg" width="24" height="24" viewBox="0 0 24 24">
  <defs/>
  <path d="M1,12 C1,5.925 5.925,1 12,1 C18.075,1 23,5.925 23,12 C23,18.075 18.075,23 12,23 C5.925,23 1,18.075 1,12 Z M12,3 C7.029,3 3,7.029 3,12 C3,16.971 7.029,21 12,21 C16.971,21 21,16.971 21,12 C21,7.029 16.971,3 12,3 Z M15.707,8.293 C16.098,8.683 16.098,9.317 15.707,9.707 L11.414,14 L15,14 C15.552,14 16,14.448 16,15 C16,15.552 15.552,16 15,16 L9,16 C8.448,16 8,15.552 8,15 L8,9 C8,8.448 8.448,8 9,8 C9.552,8 10,8.448 10,9 L10,12.586 L14.293,8.293 C14.684,7.902 15.317,7.902 15.707,8.293 Z"/>
</svg>
