<svg xmlns="http://www.w3.org/2000/svg" width="24" height="24" viewBox="0 0 24 24">
  <defs/>
  <path d="M6.293,3.293 C6.683,2.902 7.317,2.902 7.707,3.293 L11.707,7.293 C12.098,7.683 12.098,8.317 11.707,8.707 C11.317,9.098 10.683,9.098 10.293,8.707 L8,6.414 L8,20 C8,20.552 7.552,21 7,21 C6.448,21 6,20.552 6,20 L6,6.414 L3.707,8.707 C3.317,9.098 2.683,9.098 2.293,8.707 C1.902,8.317 1.902,7.683 2.293,7.293 Z M16.293,8.293 C16.683,7.902 17.317,7.902 17.707,8.293 L21.707,12.293 C22.098,12.683 22.098,13.317 21.707,13.707 C21.317,14.098 20.683,14.098 20.293,13.707 L18,11.414 L18,20 C18,20.552 17.552,21 17,21 C16.448,21 16,20.552 16,20 L16,11.414 L13.707,13.707 C13.317,14.098 12.683,14.098 12.293,13.707 C11.902,13.317 11.902,12.683 12.293,12.293 Z"/>
</svg>
