<svg xmlns="http://www.w3.org/2000/svg" width="24" height="24" viewBox="0 0 24 24">
  <defs/>
  <path d="M7,3 C7.552,3 8,3.448 8,4 L8,17.586 L10.293,15.293 C10.683,14.902 11.317,14.902 11.707,15.293 C12.098,15.683 12.098,16.317 11.707,16.707 L7.707,20.707 C7.317,21.098 6.683,21.098 6.293,20.707 L2.293,16.707 C1.902,16.317 1.902,15.683 2.293,15.293 C2.683,14.902 3.317,14.902 3.707,15.293 L6,17.586 L6,4 C6,3.448 6.448,3 7,3 Z M17,3 C17.552,3 18,3.448 18,4 L18,12.586 L20.293,10.293 C20.683,9.902 21.317,9.902 21.707,10.293 C22.098,10.683 22.098,11.317 21.707,11.707 L17.707,15.707 C17.317,16.098 16.683,16.098 16.293,15.707 L12.293,11.707 C11.902,11.317 11.902,10.683 12.293,10.293 C12.683,9.902 13.317,9.902 13.707,10.293 L16,12.586 L16,4 C16,3.448 16.448,3 17,3 Z"/>
</svg>
