<svg xmlns="http://www.w3.org/2000/svg" width="24" height="24" viewBox="0 0 24 24">
  <defs/>
  <path d="M15.293,12.293 C15.683,11.902 16.317,11.902 16.707,12.293 L20.707,16.293 C21.098,16.683 21.098,17.317 20.707,17.707 L16.707,21.707 C16.317,22.098 15.683,22.098 15.293,21.707 C14.902,21.317 14.902,20.683 15.293,20.293 L17.586,18 L4,18 C3.448,18 3,17.552 3,17 C3,16.448 3.448,16 4,16 L17.586,16 L15.293,13.707 C14.902,13.317 14.902,12.683 15.293,12.293 Z M10.293,2.293 C10.683,1.902 11.317,1.902 11.707,2.293 L15.707,6.293 C16.098,6.683 16.098,7.317 15.707,7.707 L11.707,11.707 C11.317,12.098 10.683,12.098 10.293,11.707 C9.902,11.317 9.902,10.683 10.293,10.293 L12.586,8 L4,8 C3.448,8 3,7.552 3,7 C3,6.448 3.448,6 4,6 L12.586,6 L10.293,3.707 C9.902,3.317 9.902,2.683 10.293,2.293 Z"/>
</svg>
