<svg xmlns="http://www.w3.org/2000/svg" width="24" height="24" viewBox="0 0 24 24">
  <defs/>
  <path d="M1,12 C1,5.925 5.925,1 12,1 C18.075,1 23,5.925 23,12 C23,18.075 18.075,23 12,23 C5.925,23 1,18.075 1,12 Z M12,3 C7.029,3 3,7.029 3,12 C3,16.971 7.029,21 12,21 C16.971,21 21,16.971 21,12 C21,7.029 16.971,3 12,3 Z M12.707,7.293 C13.098,7.683 13.098,8.317 12.707,8.707 L10.414,11 L16,11 C16.552,11 17,11.448 17,12 C17,12.552 16.552,13 16,13 L10.414,13 L12.707,15.293 C13.098,15.683 13.098,16.317 12.707,16.707 C12.317,17.098 11.683,17.098 11.293,16.707 L7.293,12.707 C6.902,12.317 6.902,11.683 7.293,11.293 L11.293,7.293 C11.683,6.902 12.317,6.902 12.707,7.293 Z"/>
</svg>
