<svg xmlns="http://www.w3.org/2000/svg" width="24" height="24" viewBox="0 0 24 24">
  <defs/>
  <path d="M1,12 C1,5.925 5.925,1 12,1 C18.075,1 23,5.925 23,12 C23,18.075 18.075,23 12,23 C5.925,23 1,18.075 1,12 Z M12,3 C7.029,3 3,7.029 3,12 C3,16.971 7.029,21 12,21 C16.971,21 21,16.971 21,12 C21,7.029 16.971,3 12,3 Z M8.293,8.293 C8.684,7.902 9.317,7.902 9.707,8.293 L14,12.586 L14,9 C14,8.448 14.448,8 15,8 C15.552,8 16,8.448 16,9 L16,15 C16,15.552 15.552,16 15,16 L9,16 C8.448,16 8,15.552 8,15 C8,14.448 8.448,14 9,14 L12.586,14 L8.293,9.707 C7.903,9.317 7.903,8.683 8.293,8.293 Z"/>
</svg>
