<svg xmlns="http://www.w3.org/2000/svg" width="24" height="24" viewBox="0 0 24 24">
  <defs/>
  <path d="M14.332,3.306 C11.326,2.503 7.991,3.281 5.636,5.636 C2.121,9.151 2.121,14.849 5.636,18.364 C9.151,21.879 14.849,21.879 18.364,18.364 C20.719,16.009 21.497,12.674 20.694,9.669 C20.552,9.135 20.869,8.587 21.403,8.444 C21.936,8.302 22.484,8.619 22.627,9.152 C23.606,12.819 22.658,16.898 19.778,19.778 C15.482,24.074 8.518,24.074 4.222,19.778 C-0.074,15.483 -0.074,8.518 4.222,4.222 C7.102,1.342 11.181,0.394 14.848,1.373 C15.381,1.516 15.698,2.064 15.556,2.597 C15.413,3.131 14.865,3.448 14.332,3.306 Z M19.707,4.293 C20.098,4.683 20.098,5.317 19.707,5.707 L11.414,14 L15,14 C15.552,14 16,14.448 16,15 C16,15.552 15.552,16 15,16 L9,16 C8.448,16 8,15.552 8,15 L8,9 C8,8.448 8.448,8 9,8 C9.553,8 10,8.448 10,9 L10,12.586 L18.293,4.293 C18.684,3.902 19.317,3.902 19.707,4.293 Z"/>
</svg>
