<svg xmlns="http://www.w3.org/2000/svg" width="24" height="24" viewBox="0 0 24 24">
  <defs/>
  <path d="M12,3 C7.029,3 3,7.029 3,12 C3,15.33 4.808,18.239 7.501,19.796 C7.979,20.073 8.142,20.685 7.866,21.163 C7.589,21.641 6.977,21.804 6.499,21.528 C3.214,19.627 1,16.073 1,12 C1,5.925 5.925,1 12,1 C18.075,1 23,5.925 23,12 C23,16.073 20.786,19.627 17.501,21.528 C17.023,21.804 16.411,21.641 16.134,21.163 C15.858,20.685 16.021,20.073 16.499,19.796 C19.192,18.239 21,15.33 21,12 C21,7.029 16.971,3 12,3 Z M7.293,11.293 L11.293,7.293 C11.683,6.902 12.317,6.902 12.707,7.293 L16.707,11.293 C17.098,11.683 17.098,12.316 16.707,12.707 C16.317,13.098 15.683,13.098 15.293,12.707 L13,10.414 L13,22 C13,22.552 12.552,23 12,23 C11.448,23 11,22.552 11,22 L11,10.414 L8.707,12.707 C8.317,13.098 7.683,13.098 7.293,12.707 C6.902,12.316 6.902,11.683 7.293,11.293 Z"/>
</svg>
