<svg xmlns="http://www.w3.org/2000/svg" width="24" height="24" viewBox="0 0 24 24">
  <defs/>
  <path d="M7.866,2.837 C8.142,3.315 7.979,3.927 7.501,4.203 C4.808,5.761 3,8.67 3,12 C3,16.971 7.029,21 12,21 C16.971,21 21,16.971 21,12 C21,8.67 19.192,5.761 16.499,4.203 C16.021,3.927 15.858,3.315 16.134,2.837 C16.411,2.359 17.023,2.196 17.501,2.472 C20.786,4.373 23,7.927 23,12 C23,18.075 18.075,23 12,23 C5.925,23 1,18.075 1,12 C1,7.927 3.214,4.373 6.499,2.472 C6.977,2.196 7.589,2.359 7.866,2.837 Z M12,1 C12.552,1 13,1.448 13,2 L13,13.586 L15.293,11.293 C15.683,10.902 16.317,10.902 16.707,11.293 C17.098,11.683 17.098,12.317 16.707,12.707 L12.707,16.707 C12.317,17.098 11.683,17.098 11.293,16.707 L7.293,12.707 C6.902,12.317 6.902,11.683 7.293,11.293 C7.683,10.902 8.317,10.902 8.707,11.293 L11,13.586 L11,2 C11,1.448 11.448,1 12,1 Z"/>
</svg>
