<svg xmlns="http://www.w3.org/2000/svg" width="24" height="24" viewBox="0 0 24 24">
  <defs/>
  <path d="M13.617,4.076 C13.991,3.921 14.421,4.007 14.707,4.293 L21.707,11.293 C22.098,11.683 22.098,12.317 21.707,12.707 L14.707,19.707 C14.421,19.993 13.991,20.079 13.617,19.924 C13.244,19.769 13,19.404 13,19 L13,16 L3.777,16 C3.658,16 3.516,16 3.39,15.99 C3.245,15.978 3.037,15.948 2.819,15.837 C2.537,15.693 2.307,15.463 2.164,15.181 C2.052,14.963 2.022,14.755 2.01,14.61 C2,14.484 2,14.342 2,14.223 L2,9.777 C2,9.658 2,9.516 2.01,9.39 C2.022,9.245 2.052,9.037 2.164,8.819 C2.307,8.537 2.537,8.307 2.819,8.164 C3.037,8.052 3.245,8.022 3.39,8.01 C3.515,8 3.657,8 3.776,8 L3.777,8 L3.8,8 L13,8 L13,5 C13,4.596 13.244,4.231 13.617,4.076 Z M15,7.414 L15,9 C15,9.552 14.552,10 14,10 L4,10 L4,14 L14,14 C14.552,14 15,14.448 15,15 L15,16.586 L19.586,12 Z"/>
</svg>
