<svg xmlns="http://www.w3.org/2000/svg" width="24" height="24" viewBox="0 0 24 24">
  <defs/>
  <path d="M11.293,2.293 C11.683,1.902 12.317,1.902 12.707,2.293 L19.707,9.293 C19.993,9.579 20.079,10.009 19.924,10.383 C19.769,10.756 19.404,11 19,11 L16,11 L16,20.223 C16,20.342 16,20.485 15.99,20.61 C15.978,20.755 15.948,20.963 15.837,21.181 C15.693,21.463 15.463,21.693 15.181,21.837 C14.963,21.948 14.755,21.978 14.61,21.99 C14.484,22 14.342,22 14.223,22 L9.777,22 C9.658,22 9.516,22 9.39,21.99 C9.245,21.978 9.037,21.948 8.819,21.837 C8.537,21.693 8.307,21.463 8.164,21.181 C8.052,20.963 8.022,20.755 8.01,20.61 C8,20.485 8,20.343 8,20.224 L8,20.223 L8,11 L5,11 C4.596,11 4.231,10.756 4.076,10.383 C3.921,10.009 4.007,9.579 4.293,9.293 Z M7.414,9 L9,9 C9.552,9 10,9.448 10,10 L10,20 L14,20 L14,10 C14,9.448 14.448,9 15,9 L16.586,9 L12,4.414 Z"/>
</svg>
