<svg xmlns="http://www.w3.org/2000/svg" width="24" height="24" viewBox="0 0 24 24">
  <defs/>
  <path d="M18.364,5.636 C14.849,2.121 9.151,2.121 5.636,5.636 C3.281,7.991 2.503,11.326 3.306,14.332 C3.448,14.865 3.131,15.413 2.597,15.556 C2.064,15.698 1.516,15.381 1.373,14.848 C0.394,11.181 1.342,7.102 4.222,4.222 C8.518,-0.074 15.482,-0.074 19.778,4.222 C24.074,8.518 24.074,15.482 19.778,19.778 C16.898,22.658 12.819,23.606 9.152,22.627 C8.619,22.484 8.302,21.936 8.444,21.403 C8.587,20.869 9.135,20.552 9.668,20.694 C12.674,21.497 16.009,20.719 18.364,18.364 C21.879,14.849 21.879,9.151 18.364,5.636 Z M8,9 C8,8.448 8.448,8 9,8 L15,8 C15.552,8 16,8.448 16,9 L16,15 C16,15.552 15.552,16 15,16 C14.448,16 14,15.552 14,15 L14,11.414 L5.707,19.707 C5.317,20.098 4.683,20.098 4.293,19.707 C3.902,19.317 3.902,18.684 4.293,18.293 L12.586,10 L9,10 C8.448,10 8,9.552 8,9 Z"/>
</svg>
