<svg xmlns="http://www.w3.org/2000/svg" width="24" height="24" viewBox="0 0 24 24">
  <defs/>
  <path d="M10.383,4.076 C10.756,4.231 11,4.596 11,5 L11,8 L20.223,8 L20.224,8 C20.343,8 20.485,8 20.61,8.01 C20.755,8.022 20.963,8.052 21.181,8.164 C21.463,8.307 21.693,8.537 21.837,8.819 C21.948,9.037 21.978,9.245 21.99,9.39 C22,9.516 22,9.658 22,9.777 L22,14.223 C22,14.342 22,14.484 21.99,14.61 C21.978,14.755 21.948,14.963 21.837,15.181 C21.693,15.463 21.463,15.693 21.181,15.837 C20.963,15.948 20.755,15.978 20.61,15.99 C20.485,16 20.342,16 20.223,16 L11,16 L11,19 C11,19.404 10.756,19.769 10.383,19.924 C10.009,20.079 9.579,19.993 9.293,19.707 L2.293,12.707 C1.902,12.317 1.902,11.683 2.293,11.293 L9.293,4.293 C9.579,4.007 10.009,3.921 10.383,4.076 Z M4.414,12 L9,16.586 L9,15 C9,14.448 9.448,14 10,14 L20,14 L20,10 L10,10 C9.448,10 9,9.552 9,9 L9,7.414 Z"/>
</svg>
