<svg xmlns="http://www.w3.org/2000/svg" width="24" height="24" viewBox="0 0 24 24">
  <defs/>
  <path d="M18.364,5.636 C16.009,3.281 12.674,2.503 9.668,3.306 C9.135,3.448 8.587,3.131 8.444,2.597 C8.302,2.064 8.619,1.516 9.152,1.373 C12.819,0.394 16.898,1.342 19.778,4.222 C24.074,8.518 24.074,15.483 19.778,19.778 C15.482,24.074 8.518,24.074 4.222,19.778 C1.342,16.898 0.394,12.819 1.373,9.152 C1.516,8.619 2.064,8.302 2.597,8.444 C3.131,8.587 3.448,9.135 3.306,9.669 C2.503,12.674 3.281,16.009 5.636,18.364 C9.151,21.879 14.849,21.879 18.364,18.364 C21.879,14.849 21.879,9.151 18.364,5.636 Z M4.293,4.293 C4.683,3.902 5.317,3.902 5.707,4.293 L14,12.586 L14,9 C14,8.448 14.448,8 15,8 C15.552,8 16,8.448 16,9 L16,15 C16,15.552 15.552,16 15,16 L9,16 C8.448,16 8,15.552 8,15 C8,14.448 8.448,14 9,14 L12.586,14 L4.293,5.707 C3.902,5.317 3.902,4.683 4.293,4.293 Z"/>
</svg>
