<svg xmlns="http://www.w3.org/2000/svg" width="24" height="24" viewBox="0 0 24 24">
  <defs/>
  <path d="M12,3 C7.029,3 3,7.029 3,12 C3,16.971 7.029,21 12,21 C15.33,21 18.239,19.192 19.796,16.499 C20.073,16.021 20.685,15.858 21.163,16.134 C21.641,16.411 21.804,17.023 21.528,17.501 C19.627,20.786 16.073,23 12,23 C5.925,23 1,18.075 1,12 C1,5.925 5.925,1 12,1 C16.073,1 19.627,3.214 21.528,6.499 C21.804,6.977 21.641,7.589 21.163,7.866 C20.685,8.142 20.073,7.979 19.796,7.501 C18.239,4.808 15.33,3 12,3 Z M12.707,7.293 C13.098,7.683 13.098,8.317 12.707,8.707 L10.414,11 L22,11 C22.552,11 23,11.448 23,12 C23,12.552 22.552,13 22,13 L10.414,13 L12.707,15.293 C13.098,15.683 13.098,16.317 12.707,16.707 C12.316,17.098 11.683,17.098 11.293,16.707 L7.293,12.707 C6.902,12.317 6.902,11.683 7.293,11.293 L11.293,7.293 C11.683,6.902 12.316,6.902 12.707,7.293 Z"/>
</svg>
