<svg xmlns="http://www.w3.org/2000/svg" width="24" height="24" viewBox="0 0 24 24">
  <defs/>
  <path d="M1,12 C1,5.925 5.925,1 12,1 C18.075,1 23,5.925 23,12 C23,18.075 18.075,23 12,23 C5.925,23 1,18.075 1,12 Z M12,3 C7.029,3 3,7.029 3,12 C3,16.971 7.029,21 12,21 C16.971,21 21,16.971 21,12 C21,7.029 16.971,3 12,3 Z M8,9 C8,8.448 8.448,8 9,8 L15,8 C15.552,8 16,8.448 16,9 C16,9.552 15.552,10 15,10 L11.414,10 L15.707,14.293 C16.098,14.683 16.098,15.316 15.707,15.707 C15.317,16.098 14.684,16.098 14.293,15.707 L10,11.414 L10,15 C10,15.552 9.552,16 9,16 C8.448,16 8,15.552 8,15 Z"/>
</svg>
