<svg xmlns="http://www.w3.org/2000/svg" width="24" height="24" viewBox="0 0 24 24">
  <defs/>
  <path d="M1,12 C1,5.925 5.925,1 12,1 C18.075,1 23,5.925 23,12 C23,18.075 18.075,23 12,23 C5.925,23 1,18.075 1,12 Z M12,3 C7.029,3 3,7.029 3,12 C3,16.971 7.029,21 12,21 C16.971,21 21,16.971 21,12 C21,7.029 16.971,3 12,3 Z M8,9 C8,8.448 8.448,8 9,8 L15,8 C15.552,8 16,8.448 16,9 L16,15 C16,15.552 15.552,16 15,16 C14.448,16 14,15.552 14,15 L14,11.414 L9.707,15.707 C9.317,16.098 8.684,16.098 8.293,15.707 C7.903,15.316 7.903,14.683 8.293,14.293 L12.586,10 L9,10 C8.448,10 8,9.552 8,9 Z"/>
</svg>
