<svg xmlns="http://www.w3.org/2000/svg" width="24" height="24" viewBox="0 0 24 24">
  <defs/>
  <path d="M18.364,5.636 C14.849,2.121 9.151,2.121 5.636,5.636 C2.121,9.151 2.121,14.849 5.636,18.364 C7.991,20.719 11.326,21.497 14.332,20.694 C14.865,20.552 15.413,20.869 15.556,21.403 C15.698,21.936 15.381,22.484 14.848,22.627 C11.181,23.606 7.102,22.658 4.222,19.778 C-0.074,15.482 -0.074,8.518 4.222,4.222 C8.518,-0.074 15.482,-0.074 19.778,4.222 C22.658,7.102 23.606,11.181 22.627,14.848 C22.484,15.381 21.936,15.698 21.403,15.556 C20.869,15.413 20.552,14.865 20.694,14.332 C21.497,11.326 20.719,7.991 18.364,5.636 Z M8,9 C8,8.448 8.448,8 9,8 L15,8 C15.552,8 16,8.448 16,9 C16,9.552 15.552,10 15,10 L11.414,10 L19.707,18.293 C20.098,18.684 20.098,19.317 19.707,19.707 C19.317,20.098 18.684,20.098 18.293,19.707 L10,11.414 L10,15 C10,15.552 9.553,16 9,16 C8.448,16 8,15.552 8,15 Z"/>
</svg>
