<svg xmlns="http://www.w3.org/2000/svg" width="24" height="24" viewBox="0 0 24 24">
  <defs/>
  <path d="M12,1 C12.552,1 13,1.448 13,2 L13,9.586 L18.364,4.222 C18.754,3.831 19.388,3.831 19.778,4.222 C20.169,4.612 20.169,5.246 19.778,5.636 L14.414,11 L22,11 C22.552,11 23,11.448 23,12 C23,12.552 22.552,13 22,13 L14.414,13 L19.778,18.364 C20.169,18.754 20.169,19.388 19.778,19.778 C19.388,20.169 18.754,20.169 18.364,19.778 L13,14.414 L13,22 C13,22.552 12.552,23 12,23 C11.448,23 11,22.552 11,22 L11,14.414 L5.636,19.778 C5.246,20.169 4.612,20.169 4.222,19.778 C3.831,19.388 3.831,18.754 4.222,18.364 L9.586,13 L2,13 C1.448,13 1,12.552 1,12 C1,11.448 1.448,11 2,11 L9.586,11 L4.222,5.636 C3.831,5.246 3.831,4.612 4.222,4.222 C4.612,3.831 5.246,3.831 5.636,4.222 L11,9.586 L11,2 C11,1.448 11.448,1 12,1 Z"/>
</svg>
