<svg xmlns="http://www.w3.org/2000/svg" width="24" height="24" viewBox="0 0 24 24">
  <defs/>
  <path d="M12,3 C12.552,3 13,3.448 13,4 L13,9.586 L17.293,5.293 C17.683,4.902 18.317,4.902 18.707,5.293 C19.098,5.683 19.098,6.317 18.707,6.707 L14.414,11 L20,11 C20.552,11 21,11.448 21,12 C21,12.552 20.552,13 20,13 L14.414,13 L18.707,17.293 C19.098,17.683 19.098,18.317 18.707,18.707 C18.317,19.098 17.683,19.098 17.293,18.707 L13,14.414 L13,20 C13,20.552 12.552,21 12,21 C11.448,21 11,20.552 11,20 L11,14.414 L6.707,18.707 C6.317,19.098 5.683,19.098 5.293,18.707 C4.902,18.317 4.902,17.683 5.293,17.293 L9.586,13 L4,13 C3.448,13 3,12.552 3,12 C3,11.448 3.448,11 4,11 L9.586,11 L5.293,6.707 C4.902,6.317 4.902,5.683 5.293,5.293 C5.683,4.902 6.317,4.902 6.707,5.293 L11,9.586 L11,4 C11,3.448 11.448,3 12,3 Z"/>
</svg>
