<svg xmlns="http://www.w3.org/2000/svg" width="24" height="24" viewBox="0 0 24 24">
  <defs/>
  <path d="M7.3,2.055 C9.545,0.994 12.082,0.724 14.5,1.288 C16.918,1.853 19.073,3.218 20.617,5.163 C22.16,7.108 23,9.517 23,12 L23,13 C23,14.061 22.579,15.078 21.828,15.828 C21.078,16.579 20.061,17 19,17 C17.939,17 16.922,16.579 16.172,15.828 C16.013,15.67 15.869,15.499 15.74,15.318 C14.824,16.35 13.488,17 12,17 C9.239,17 7,14.761 7,12 C7,9.239 9.239,7 12,7 C13.126,7 14.164,7.372 15,8 C15,7.448 15.448,7 16,7 C16.552,7 17,7.448 17,8 L17,13 C17,13.53 17.211,14.039 17.586,14.414 C17.961,14.789 18.47,15 19,15 C19.53,15 20.039,14.789 20.414,14.414 C20.789,14.039 21,13.53 21,13 L21,12 C21,9.969 20.313,7.997 19.05,6.406 C17.787,4.815 16.024,3.698 14.045,3.236 C12.067,2.774 9.991,2.996 8.155,3.863 C6.318,4.731 4.829,6.195 3.93,8.016 C3.031,9.838 2.774,11.91 3.202,13.896 C3.629,15.881 4.716,17.664 6.286,18.954 C7.855,20.243 9.814,20.964 11.845,20.999 C13.876,21.034 15.859,20.381 17.472,19.146 C17.91,18.81 18.538,18.893 18.874,19.332 C19.21,19.771 19.126,20.398 18.688,20.734 C16.717,22.243 14.293,23.042 11.811,22.999 C9.329,22.956 6.934,22.075 5.016,20.499 C3.098,18.923 1.769,16.744 1.247,14.317 C0.724,11.89 1.038,9.357 2.137,7.131 C3.236,4.905 5.055,3.116 7.3,2.055 Z M15,12 C15,10.343 13.657,9 12,9 C10.343,9 9,10.343 9,12 C9,13.657 10.343,15 12,15 C13.657,15 15,13.657 15,12 Z"/>
</svg>
