<svg xmlns="http://www.w3.org/2000/svg" width="24" height="24" viewBox="0 0 24 24">
  <defs/>
  <path d="M12,4.261 C13.068,3.555 14.121,2.986 15.119,2.575 C16.279,2.098 17.412,1.813 18.434,1.806 C19.462,1.798 20.457,2.073 21.192,2.808 C21.926,3.542 22.202,4.538 22.194,5.565 C22.187,6.588 21.902,7.721 21.424,8.881 C21.013,9.879 20.445,10.932 19.739,12 C20.445,13.068 21.013,14.121 21.424,15.119 C21.902,16.279 22.186,17.413 22.194,18.435 C22.202,19.462 21.926,20.458 21.192,21.192 C20.457,21.927 19.461,22.202 18.434,22.195 C17.412,22.187 16.279,21.902 15.119,21.425 C14.121,21.014 13.068,20.445 12,19.739 C10.932,20.445 9.878,21.014 8.88,21.425 C7.72,21.903 6.587,22.187 5.565,22.195 C4.538,22.202 3.542,21.927 2.807,21.192 C2.073,20.458 1.797,19.462 1.805,18.435 C1.813,17.413 2.097,16.279 2.575,15.119 C2.986,14.121 3.554,13.068 4.26,12 C3.554,10.932 2.986,9.879 2.575,8.881 C2.097,7.721 1.813,6.587 1.805,5.565 C1.797,4.538 2.073,3.542 2.807,2.808 C3.542,2.073 4.538,1.798 5.565,1.805 C6.587,1.813 7.72,2.098 8.88,2.575 C9.878,2.986 10.932,3.555 12,4.261 Z M12,6.708 C11.058,7.415 10.103,8.24 9.171,9.172 C8.239,10.104 7.414,11.058 6.707,12 C7.414,12.942 8.239,13.897 9.171,14.828 C10.103,15.76 11.058,16.586 12,17.293 C12.941,16.586 13.896,15.76 14.828,14.829 C15.76,13.897 16.585,12.942 17.292,12 C16.585,11.058 15.76,10.103 14.828,9.172 C13.896,8.24 12.941,7.415 12,6.708 Z M5.55,3.805 C4.872,3.8 4.463,3.98 4.221,4.222 C3.979,4.464 3.8,4.873 3.805,5.55 C3.81,6.233 4.006,7.104 4.424,8.119 C4.703,8.796 5.072,9.516 5.524,10.259 C6.193,9.415 6.94,8.574 7.757,7.758 C8.573,6.941 9.414,6.193 10.259,5.524 C9.516,5.072 8.796,4.703 8.119,4.425 C7.103,4.007 6.232,3.81 5.55,3.805 Z M10.259,18.476 C9.414,17.807 8.573,17.059 7.757,16.243 C6.94,15.426 6.193,14.586 5.524,13.741 C5.072,14.484 4.703,15.204 4.424,15.881 C4.006,16.896 3.81,17.767 3.805,18.45 C3.8,19.128 3.98,19.537 4.221,19.778 C4.463,20.02 4.872,20.2 5.55,20.195 C6.232,20.19 7.104,19.993 8.119,19.576 C8.796,19.297 9.516,18.928 10.259,18.476 Z M18.475,10.259 C18.927,9.516 19.296,8.796 19.575,8.119 C19.993,7.104 20.189,6.233 20.194,5.55 C20.199,4.873 20.02,4.464 19.778,4.222 C19.536,3.98 19.127,3.8 18.449,3.805 C17.767,3.811 16.896,4.007 15.88,4.425 C15.203,4.704 14.483,5.072 13.74,5.524 C14.585,6.193 15.426,6.941 16.242,7.757 C17.059,8.574 17.806,9.414 18.475,10.259 Z M18.475,13.741 C17.806,14.586 17.059,15.426 16.242,16.243 C15.426,17.059 14.585,17.807 13.74,18.476 C14.483,18.928 15.203,19.296 15.88,19.575 C16.895,19.993 17.767,20.19 18.449,20.195 C19.127,20.2 19.536,20.02 19.778,19.778 C20.02,19.536 20.199,19.127 20.194,18.45 C20.189,17.767 19.993,16.896 19.575,15.881 C19.296,15.204 18.927,14.484 18.475,13.741 Z M10.5,12 C10.5,11.172 11.171,10.5 12,10.5 C12.828,10.5 13.5,11.172 13.5,12 C13.5,12.829 12.828,13.5 12,13.5 C11.171,13.5 10.5,12.829 10.5,12 Z"/>
</svg>
