<svg xmlns="http://www.w3.org/2000/svg" width="24" height="24" viewBox="0 0 24 24">
  <defs/>
  <path d="M12.021,3.443 C12.769,3.071 13.513,2.775 14.239,2.561 C16.562,1.878 18.954,1.984 20.506,3.535 C21.568,4.598 21.953,6.071 21.872,7.613 C21.799,9.004 21.347,10.517 20.598,12.021 C20.971,12.769 21.267,13.513 21.48,14.239 C22.163,16.562 22.058,18.954 20.506,20.506 C18.954,22.058 16.562,22.163 14.239,21.48 C13.513,21.267 12.769,20.971 12.021,20.598 C11.273,20.971 10.529,21.267 9.803,21.48 C7.48,22.163 5.087,22.058 3.536,20.506 C2.474,19.445 2.089,17.973 2.169,16.432 C2.242,15.04 2.694,13.526 3.443,12.021 C3.071,11.273 2.775,10.529 2.561,9.803 C1.878,7.479 1.984,5.087 3.536,3.535 C5.087,1.984 7.48,1.878 9.803,2.561 C10.529,2.775 11.273,3.071 12.021,3.443 Z M9.239,4.48 C7.211,3.884 5.741,4.158 4.95,4.95 C4.158,5.741 3.884,7.211 4.48,9.239 C5.064,11.224 6.432,13.503 8.485,15.556 C9.624,16.695 10.832,17.623 12.021,18.323 C13.21,17.623 14.418,16.695 15.556,15.556 C15.839,15.274 16.109,14.986 16.366,14.696 C16.732,14.282 17.364,14.243 17.778,14.609 C18.191,14.975 18.23,15.607 17.864,16.021 C17.58,16.342 17.282,16.659 16.971,16.971 C16.067,17.874 15.112,18.669 14.139,19.341 C14.363,19.424 14.585,19.497 14.803,19.561 C16.83,20.158 18.3,19.883 19.092,19.092 C19.883,18.3 20.158,16.83 19.561,14.803 C19.351,14.087 19.038,13.333 18.629,12.565 C18.601,12.523 18.577,12.478 18.557,12.432 C17.834,11.112 16.826,9.755 15.556,8.485 C14.418,7.347 13.21,6.419 12.021,5.718 C10.832,6.419 9.624,7.347 8.485,8.485 C8.19,8.781 7.908,9.081 7.64,9.386 C7.276,9.8 6.644,9.841 6.229,9.476 C5.814,9.111 5.774,8.479 6.139,8.065 C6.435,7.728 6.745,7.397 7.071,7.071 C7.975,6.167 8.93,5.373 9.903,4.701 C9.678,4.618 9.457,4.544 9.239,4.48 Z M14.139,4.701 C15.112,5.373 16.067,6.167 16.971,7.071 C17.874,7.975 18.669,8.93 19.341,9.903 C19.66,9.04 19.837,8.229 19.875,7.507 C19.936,6.345 19.637,5.495 19.092,4.95 C18.3,4.158 16.83,3.884 14.803,4.48 C14.585,4.544 14.363,4.618 14.139,4.701 Z M9.903,19.341 C8.93,18.669 7.975,17.874 7.071,16.971 C6.167,16.067 5.373,15.112 4.701,14.139 C4.382,15.003 4.204,15.814 4.167,16.536 C4.106,17.698 4.405,18.547 4.95,19.092 C5.741,19.883 7.211,20.158 9.239,19.561 C9.457,19.497 9.678,19.424 9.903,19.341 Z M10,12 C10,10.895 10.895,10 12,10 C13.104,10 14,10.895 14,12 C14,13.104 13.104,14 12,14 C10.895,14 10,13.104 10,12 Z"/>
</svg>
