<svg xmlns="http://www.w3.org/2000/svg" width="24" height="24" viewBox="0 0 24 24">
  <defs/>
  <path d="M10.167,3 C8.694,3 7.5,4.194 7.5,5.667 L7.5,16.5 C7.5,18.985 9.515,21 12,21 C14.485,21 16.5,18.985 16.5,16.5 L16.5,5.256 C16.5,4.704 16.948,4.256 17.5,4.256 C18.052,4.256 18.5,4.704 18.5,5.256 L18.5,16.5 C18.5,20.09 15.59,23 12,23 C8.41,23 5.5,20.09 5.5,16.5 L5.5,5.667 C5.5,3.089 7.589,1 10.167,1 C12.744,1 14.833,3.089 14.833,5.667 L14.833,16.446 C14.833,18.01 13.565,19.279 12,19.279 C10.435,19.279 9.167,18.01 9.167,16.446 L9.167,6.651 C9.167,6.099 9.614,5.651 10.167,5.651 C10.719,5.651 11.167,6.099 11.167,6.651 L11.167,16.446 C11.167,16.906 11.54,17.279 12,17.279 C12.46,17.279 12.833,16.906 12.833,16.446 L12.833,5.667 C12.833,4.194 11.639,3 10.167,3 Z"/>
</svg>
