<svg xmlns="http://www.w3.org/2000/svg" width="24" height="24" viewBox="0 0 24 24">
  <defs/>
  <path d="M17.971,4.182 C16.994,3.206 15.411,3.206 14.435,4.182 L5.419,13.198 C3.76,14.857 3.76,17.548 5.419,19.208 C7.079,20.868 9.77,20.868 11.43,19.208 L20.445,10.192 C20.836,9.802 21.469,9.802 21.86,10.192 C22.25,10.583 22.25,11.216 21.86,11.607 L12.844,20.622 C10.403,23.063 6.446,23.063 4.005,20.622 C1.564,18.181 1.564,14.224 4.005,11.783 L13.021,2.768 C14.778,1.01 17.627,1.01 19.385,2.768 C21.142,4.525 21.142,7.374 19.385,9.132 L10.723,17.794 C9.649,18.868 7.908,18.868 6.834,17.794 C5.76,16.72 5.76,14.979 6.834,13.905 L14.435,6.303 C14.825,5.913 15.459,5.913 15.849,6.303 C16.24,6.694 16.24,7.327 15.849,7.717 L8.248,15.319 C7.955,15.612 7.955,16.087 8.248,16.379 C8.541,16.672 9.016,16.672 9.308,16.379 L17.971,7.717 C18.947,6.741 18.947,5.158 17.971,4.182 Z"/>
</svg>
