<svg xmlns="http://www.w3.org/2000/svg" width="24" height="24" viewBox="0 0 24 24">
  <defs/>
  <path d="M3.5,9.5 C3.5,4.806 7.306,1 12,1 C16.694,1 20.5,4.806 20.5,9.5 C20.5,11.852 19.544,13.982 18,15.521 L18,22 C18,22.332 17.835,22.642 17.561,22.828 C17.286,23.014 16.937,23.052 16.629,22.928 L12,21.077 L7.371,22.928 C7.063,23.052 6.714,23.014 6.439,22.828 C6.165,22.642 6,22.332 6,22 L6,15.521 C4.456,13.982 3.5,11.852 3.5,9.5 Z M12,3 C8.41,3 5.5,5.91 5.5,9.5 C5.5,13.09 8.41,16 12,16 C15.59,16 18.5,13.09 18.5,9.5 C18.5,5.91 15.59,3 12,3 Z M8,17.002 L8,20.523 L11.332,19.19 C11.338,19.188 11.345,19.185 11.353,19.182 C11.432,19.149 11.594,19.083 11.773,19.056 C11.923,19.033 12.077,19.033 12.227,19.056 C12.406,19.083 12.568,19.149 12.647,19.182 C12.655,19.185 12.662,19.188 12.668,19.19 L16,20.523 L16,17.002 C14.808,17.639 13.446,18 12,18 C10.554,18 9.192,17.639 8,17.002 Z"/>
</svg>
