<svg xmlns="http://www.w3.org/2000/svg" width="24" height="24" viewBox="0 0 24 24">
  <defs/>
  <path d="M16.839,1 L16.839,1 C17.366,1 17.821,1 18.195,1.031 C18.59,1.063 18.984,1.134 19.362,1.327 C19.927,1.615 20.385,2.074 20.673,2.638 C20.866,3.016 20.937,3.41 20.969,3.805 C21,4.18 21,4.634 21,5.161 L21,5.948 C21,6.295 21.001,6.6 20.939,6.902 C20.885,7.166 20.795,7.423 20.672,7.663 C20.532,7.937 20.34,8.176 20.124,8.446 C20.109,8.464 20.094,8.483 20.08,8.501 L16.477,13.005 C18.583,15.361 18.505,18.98 16.243,21.243 C13.9,23.586 10.101,23.586 7.757,21.243 C5.495,18.98 5.417,15.361 7.523,13.005 L3.92,8.501 C3.906,8.483 3.891,8.464 3.876,8.446 C3.66,8.176 3.468,7.937 3.329,7.663 C3.206,7.423 3.116,7.166 3.061,6.902 C3,6.6 3,6.295 3,5.948 L3,5.878 L3,5.161 C3,4.634 3,4.18 3.031,3.805 C3.063,3.41 3.134,3.016 3.327,2.638 C3.615,2.074 4.074,1.615 4.638,1.327 C5.016,1.134 5.41,1.063 5.805,1.031 C6.18,1 6.634,1 7.161,1 L16.839,1 Z M14.828,19.828 C16.391,18.266 16.391,15.734 14.828,14.172 C13.266,12.609 10.734,12.609 9.172,14.172 C7.61,15.734 7.61,18.266 9.172,19.828 C10.734,21.39 13.266,21.39 14.828,19.828 Z M6.273,3.008 L12,10.371 L17.727,3.008 C17.488,3 17.191,3 16.8,3 L7.2,3 C6.809,3 6.512,3 6.273,3.008 Z M9.084,11.754 C9.435,11.559 9.8,11.402 10.175,11.283 L5.002,4.631 C5,4.796 5,4.983 5,5.2 L5,5.878 C5,6.334 5.005,6.423 5.02,6.499 C5.039,6.588 5.069,6.673 5.11,6.753 C5.145,6.823 5.197,6.896 5.482,7.252 Z M18.999,4.631 L13.825,11.283 C14.2,11.402 14.566,11.559 14.916,11.754 L18.518,7.252 C18.803,6.896 18.855,6.823 18.891,6.753 C18.932,6.673 18.962,6.588 18.98,6.499 C18.995,6.423 19,6.334 19,5.878 L19,5.2 C19,4.983 19,4.796 18.999,4.631 Z"/>
</svg>
