<svg xmlns="http://www.w3.org/2000/svg" width="24" height="24" viewBox="0 0 24 24">
  <defs/>
  <path d="M17.102,15.163 L17.991,21.868 C18.042,22.249 17.87,22.625 17.549,22.836 C17.228,23.047 16.815,23.055 16.486,22.858 L12,20.166 L7.515,22.858 C7.185,23.055 6.772,23.047 6.451,22.836 C6.13,22.625 5.958,22.249 6.009,21.868 L6.899,15.163 C5.128,13.696 4,11.48 4,9 C4,4.582 7.582,1 12,1 C16.418,1 20,4.582 20,9 C20,11.479 18.872,13.695 17.102,15.163 Z M12,3 C8.686,3 6,5.686 6,9 C6,11.021 6.999,12.809 8.531,13.896 C8.539,13.902 8.547,13.907 8.555,13.913 C9.53,14.598 10.718,15 12,15 C13.283,15 14.471,14.598 15.446,13.912 C15.454,13.907 15.462,13.901 15.47,13.896 C17.001,12.808 18,11.021 18,9 C18,5.686 15.314,3 12,3 Z M15.237,16.318 C14.248,16.756 13.152,17 12,17 C10.848,17 9.753,16.757 8.763,16.318 L8.264,20.075 L11.074,18.389 C11.082,18.384 11.092,18.378 11.103,18.372 C11.208,18.307 11.427,18.173 11.678,18.118 C11.89,18.072 12.11,18.072 12.322,18.118 C12.573,18.173 12.792,18.307 12.897,18.372 C12.908,18.378 12.918,18.384 12.926,18.389 L13.124,18.508 L15.736,20.075 Z"/>
</svg>
