<svg xmlns="http://www.w3.org/2000/svg" width="24" height="24" viewBox="0 0 24 24">
  <defs/>
  <path d="M9.726,3.04 C9.597,2.987 9.453,2.987 9.324,3.04 C9.196,3.093 9.094,3.195 9.041,3.324 L8.498,4.634 C8.241,5.251 7.75,5.742 7.132,5.997 L5.824,6.539 C5.761,6.565 5.702,6.604 5.654,6.653 C5.605,6.701 5.566,6.759 5.54,6.823 C5.514,6.887 5.5,6.955 5.5,7.024 C5.5,7.093 5.514,7.161 5.54,7.225 L5.541,7.226 L6.081,8.534 C6.337,9.152 6.338,9.847 6.082,10.466 L5.54,11.774 C5.487,11.902 5.487,12.047 5.541,12.175 C5.594,12.304 5.696,12.406 5.824,12.459 L7.133,13.001 C7.751,13.258 8.243,13.75 8.499,14.368 L8.786,15.061 C8.791,15.072 8.795,15.084 8.8,15.095 L9.041,15.677 C9.094,15.805 9.196,15.907 9.324,15.96 C9.453,16.013 9.597,16.013 9.725,15.96 L11.033,15.419 C11.651,15.163 12.346,15.162 12.965,15.418 L14.274,15.96 C14.402,16.013 14.547,16.013 14.675,15.96 C14.804,15.907 14.906,15.805 14.959,15.676 L15.201,15.092 C15.205,15.081 15.21,15.07 15.215,15.059 L15.501,14.367 C15.758,13.749 16.249,13.258 16.868,13.002 L18.176,12.46 C18.239,12.434 18.297,12.395 18.346,12.346 C18.395,12.297 18.433,12.24 18.46,12.176 C18.486,12.112 18.5,12.044 18.5,11.975 C18.5,11.906 18.486,11.838 18.46,11.774 L17.92,10.468 L17.919,10.467 C17.661,9.847 17.662,9.152 17.918,8.534 L18.018,8.292 L18.941,14.308 L18.941,14.308 L17.632,14.85 C17.504,14.903 17.402,15.005 17.348,15.133 L17.159,15.592 L17.991,21.868 C18.042,22.249 17.87,22.625 17.549,22.836 C17.228,23.047 16.815,23.055 16.486,22.858 L12,20.166 L7.515,22.858 C7.185,23.055 6.772,23.047 6.451,22.836 C6.13,22.625 5.958,22.249 6.009,21.868 L6.842,15.594 L6.651,15.132 C6.598,15.004 6.495,14.902 6.367,14.849 L6.367,14.849 L6.367,14.849 L5.059,14.307 C4.441,14.051 3.949,13.559 3.693,12.941 C3.437,12.323 3.437,11.628 3.692,11.009 L4.234,9.702 C4.287,9.573 4.287,9.429 4.234,9.301 L3.692,7.99 C3.565,7.684 3.5,7.356 3.5,7.024 C3.5,6.692 3.565,6.364 3.692,6.058 C3.819,5.751 4.005,5.473 4.24,5.238 C4.474,5.004 4.753,4.818 5.059,4.691 L6.367,4.149 C6.496,4.096 6.598,3.994 6.651,3.866 L7.193,2.558 C7.449,1.94 7.94,1.448 8.559,1.192 C9.178,0.936 9.873,0.936 10.491,1.192 L11.799,1.734 C11.927,1.787 12.071,1.787 12.2,1.733 L12.201,1.732 L13.51,1.193 C14.129,0.937 14.823,0.937 15.441,1.193 C16.06,1.449 16.551,1.941 16.808,2.559 L17.334,3.831 L17.721,6.352 L16.867,5.998 C16.265,5.748 15.783,5.275 15.523,4.68 C15.515,4.665 15.509,4.649 15.502,4.634 L14.96,3.325 C14.907,3.196 14.804,3.094 14.676,3.041 C14.548,2.988 14.403,2.988 14.275,3.041 L12.966,3.581 L12.965,3.581 C12.347,3.837 11.653,3.837 11.035,3.582 Z M15.435,17.81 C14.818,18.064 14.125,18.063 13.508,17.808 L12.201,17.266 C12.073,17.213 11.928,17.213 11.8,17.267 L10.49,17.808 C9.874,18.063 9.182,18.064 8.565,17.81 L8.264,20.075 L11.074,18.389 C11.082,18.384 11.092,18.378 11.103,18.372 C11.208,18.307 11.427,18.173 11.678,18.118 C11.89,18.072 12.11,18.072 12.322,18.118 C12.573,18.173 12.792,18.307 12.897,18.372 C12.908,18.378 12.918,18.384 12.926,18.389 L15.736,20.075 Z M17.334,3.831 C17.34,3.843 17.345,3.855 17.35,3.867 C17.403,3.995 17.505,4.097 17.633,4.151 L17.633,4.151 L18.942,4.693 C19.56,4.949 20.052,5.44 20.308,6.059 C20.564,6.677 20.564,7.372 20.308,7.991 L19.766,9.299 C19.713,9.428 19.713,9.572 19.766,9.699 L19.767,9.702 L20.307,11.008 Z M17.721,6.352 L18.176,6.54 C18.305,6.594 18.407,6.696 18.46,6.824 C18.513,6.953 18.513,7.097 18.46,7.226 L18.018,8.292 L17.721,6.352 Z"/>
</svg>
