<svg xmlns="http://www.w3.org/2000/svg" width="24" height="24" viewBox="0 0 24 24">
  <defs/>
  <path d="M16.325,2 L16.325,2 C17.091,2 17.724,2 18.24,2.04 C18.775,2.082 19.269,2.171 19.736,2.396 C20.552,2.789 21.211,3.448 21.604,4.264 C21.829,4.731 21.918,5.225 21.96,5.76 C22,6.276 22,6.909 22,7.675 L22,7.755 C22,8.787 22,9.619 21.948,10.294 C21.893,10.988 21.779,11.6 21.505,12.169 C21.363,12.464 21.194,12.742 21,13 L21,17.839 C21,18.366 21,18.82 20.969,19.195 C20.937,19.59 20.866,19.984 20.673,20.362 C20.385,20.927 19.927,21.385 19.362,21.673 C18.984,21.866 18.59,21.937 18.195,21.969 C17.82,22 17.366,22 16.839,22 L7.161,22 C6.634,22 6.18,22 5.805,21.969 C5.41,21.937 5.016,21.866 4.638,21.673 C4.074,21.385 3.615,20.927 3.327,20.362 C3.134,19.984 3.063,19.59 3.031,19.195 C3,18.82 3,18.366 3,17.838 L3,13 C2.806,12.742 2.637,12.464 2.495,12.169 C2.221,11.6 2.107,10.988 2.053,10.294 C2,9.619 2,8.787 2,7.755 L2,7.675 C2,6.909 2,6.276 2.04,5.76 C2.082,5.225 2.171,4.731 2.396,4.264 C2.789,3.448 3.448,2.789 4.264,2.396 C4.731,2.171 5.225,2.082 5.76,2.04 C6.276,2 6.909,2 7.675,2 L16.325,2 Z M5.916,4.034 C5.497,4.067 5.282,4.126 5.132,4.198 C4.724,4.395 4.395,4.724 4.198,5.132 C4.126,5.282 4.067,5.497 4.034,5.916 C4.001,6.345 4,6.899 4,7.714 C4,8.796 4.001,9.55 4.047,10.139 C4.091,10.716 4.175,11.049 4.297,11.302 C4.592,11.914 5.086,12.408 5.698,12.703 C5.951,12.825 6.284,12.909 6.862,12.953 C7.45,12.999 8.204,13 9.286,13 L14.714,13 C15.796,13 16.55,12.999 17.139,12.953 C17.716,12.909 18.049,12.825 18.302,12.703 C18.914,12.408 19.408,11.914 19.703,11.302 C19.825,11.049 19.909,10.716 19.954,10.139 C19.999,9.55 20,8.796 20,7.714 C20,6.899 19.999,6.345 19.966,5.916 C19.933,5.497 19.874,5.282 19.802,5.132 C19.605,4.724 19.276,4.395 18.868,4.198 C18.718,4.126 18.503,4.067 18.084,4.034 C17.655,4.001 17.101,4 16.286,4 L7.714,4 C6.899,4 6.345,4.001 5.916,4.034 Z M5,14.581 L5,17.8 C5,18.377 5.001,18.749 5.024,19.032 C5.046,19.304 5.084,19.404 5.109,19.454 C5.205,19.642 5.358,19.795 5.546,19.891 C5.595,19.916 5.696,19.954 5.968,19.976 C6.251,19.999 6.623,20 7.2,20 L16.8,20 C17.377,20 17.749,19.999 18.032,19.976 C18.304,19.954 18.404,19.916 18.454,19.891 C18.642,19.795 18.795,19.642 18.891,19.454 C18.916,19.404 18.954,19.304 18.976,19.032 C18.999,18.749 19,18.377 19,17.8 L19,14.581 C18.479,14.801 17.92,14.899 17.294,14.948 C16.619,15 15.787,15 14.755,15 L9.245,15 C8.213,15 7.381,15 6.706,14.948 C6.08,14.899 5.521,14.801 5,14.581 Z M8,10 C8,9.448 8.448,9 9,9 L15,9 C15.552,9 16,9.448 16,10 C16,10.552 15.552,11 15,11 L9,11 C8.448,11 8,10.552 8,10 Z"/>
</svg>
