<svg xmlns="http://www.w3.org/2000/svg" width="24" height="24" viewBox="0 0 24 24">
  <defs/>
  <path d="M11.331,4.044 C12.962,3.542 14.837,3 17,3 C19.545,3 21.016,3.389 21.836,3.75 C21.838,3.752 21.841,3.753 21.844,3.754 C21.887,3.773 21.986,3.816 22.095,3.888 C22.206,3.961 22.299,4.043 22.381,4.121 C22.507,4.241 22.612,4.394 22.668,4.48 C22.725,4.567 22.822,4.725 22.881,4.888 C23,5.218 23,5.452 23,5.649 L23,16.445 C23,16.87 23,17.239 22.981,17.529 C22.963,17.8 22.922,18.178 22.727,18.512 C22.621,18.694 22.483,18.886 22.28,19.053 C22.077,19.221 21.862,19.321 21.664,19.39 C21.285,19.524 20.871,19.48 20.591,19.443 C20.273,19.401 19.863,19.322 19.375,19.228 L19.344,19.222 C18.677,19.094 17.886,19 17,19 C15.765,19 14.514,19.386 12.974,19.862 L12.669,19.956 C11.038,20.458 9.163,21 7,21 C4.454,21 2.984,20.611 2.164,20.25 C2.162,20.249 2.159,20.247 2.156,20.246 C2.113,20.227 2.014,20.184 1.905,20.112 C1.793,20.039 1.701,19.957 1.619,19.879 C1.493,19.759 1.388,19.606 1.332,19.52 C1.275,19.433 1.178,19.275 1.119,19.112 C1,18.782 1,18.548 1,18.351 L1,7.555 C1,7.13 1,6.761 1.019,6.471 C1.037,6.2 1.078,5.822 1.273,5.488 C1.379,5.306 1.517,5.114 1.72,4.947 C1.923,4.779 2.138,4.679 2.336,4.61 C2.715,4.476 3.129,4.52 3.408,4.557 C3.727,4.599 4.137,4.678 4.625,4.772 L4.657,4.778 C5.323,4.906 6.114,5 7,5 C8.235,5 9.486,4.614 11.026,4.138 C11.127,4.107 11.228,4.076 11.331,4.044 Z M11.544,6.072 C10.087,6.524 8.551,7 7,7 C5.973,7 5.054,6.891 4.279,6.742 C3.751,6.64 3.4,6.573 3.146,6.54 C3.096,6.533 3.055,6.529 3.021,6.526 C3.019,6.548 3.017,6.573 3.015,6.604 C3.001,6.819 3,7.12 3,7.589 L3,18.337 C3,18.374 3,18.398 3,18.417 C3.003,18.42 3.005,18.424 3.007,18.427 C3.01,18.431 3.012,18.435 3.014,18.438 C3.535,18.659 4.713,19 7,19 C8.837,19 10.462,18.542 12.081,18.044 C12.205,18.006 12.33,17.967 12.456,17.928 C13.913,17.476 15.449,17 17,17 C18.027,17 18.946,17.109 19.721,17.258 C20.249,17.36 20.6,17.427 20.854,17.46 C20.903,17.467 20.945,17.471 20.979,17.475 C20.981,17.452 20.983,17.427 20.985,17.396 C21,17.181 21,16.88 21,16.411 L21,5.663 C21,5.626 21,5.602 21,5.583 C20.997,5.58 20.995,5.576 20.993,5.572 C20.99,5.569 20.988,5.565 20.986,5.562 C20.465,5.341 19.287,5 17,5 C15.163,5 13.538,5.458 11.919,5.956 C11.795,5.994 11.67,6.033 11.544,6.072 Z M8.5,12 C8.5,10.067 10.067,8.5 12,8.5 C13.933,8.5 15.5,10.067 15.5,12 C15.5,13.933 13.933,15.5 12,15.5 C10.067,15.5 8.5,13.933 8.5,12 Z M18,8 C18.552,8 19,8.448 19,9 L19,13 C19,13.552 18.552,14 18,14 C17.448,14 17,13.552 17,13 L17,9 C17,8.448 17.448,8 18,8 Z M6,10 C6.552,10 7,10.448 7,11 L7,15 C7,15.552 6.552,16 6,16 C5.448,16 5,15.552 5,15 L5,11 C5,10.448 5.448,10 6,10 Z M12,10.5 C11.172,10.5 10.5,11.172 10.5,12 C10.5,12.828 11.172,13.5 12,13.5 C12.828,13.5 13.5,12.828 13.5,12 C13.5,11.172 12.828,10.5 12,10.5 Z"/>
</svg>
