<svg xmlns="http://www.w3.org/2000/svg" width="24" height="24" viewBox="0 0 24 24">
  <defs/>
  <path d="M11.825,2.032 C11.941,2.022 12.059,2.022 12.175,2.032 C12.308,2.044 12.436,2.072 12.537,2.095 C12.546,2.097 12.555,2.099 12.564,2.101 L19.991,3.751 C20.191,3.796 20.39,3.84 20.559,3.891 C20.747,3.947 20.961,4.029 21.169,4.179 C21.463,4.392 21.695,4.68 21.838,5.013 C21.939,5.249 21.973,5.476 21.987,5.671 C22,5.845 22,6.048 22,6.252 L22,7.436 C22,7.687 22,7.931 21.983,8.138 C21.964,8.367 21.92,8.637 21.782,8.908 C21.59,9.284 21.284,9.59 20.908,9.782 C20.637,9.92 20.367,9.964 20.138,9.983 C20.094,9.987 20.048,9.99 20,9.992 L20,16.008 C20.048,16.01 20.094,16.013 20.138,16.017 C20.367,16.036 20.637,16.08 20.908,16.218 C21.284,16.41 21.59,16.716 21.782,17.092 C21.92,17.364 21.964,17.633 21.983,17.862 C22,18.069 22,18.313 22,18.564 L22,19.436 C22,19.687 22,19.931 21.983,20.138 C21.964,20.367 21.92,20.637 21.782,20.908 C21.59,21.284 21.284,21.59 20.908,21.782 C20.637,21.92 20.367,21.964 20.138,21.983 C19.93,22 19.684,22 19.432,22 L4.568,22 C4.316,22 4.07,22 3.862,21.983 C3.633,21.964 3.363,21.92 3.092,21.782 C2.716,21.59 2.41,21.284 2.218,20.908 C2.08,20.637 2.036,20.367 2.017,20.138 C2,19.93 2,19.684 2,19.432 L2,18.568 C2,18.316 2,18.07 2.017,17.862 C2.036,17.633 2.08,17.364 2.218,17.092 C2.41,16.716 2.716,16.41 3.092,16.218 C3.363,16.08 3.633,16.036 3.862,16.017 C3.906,16.013 3.952,16.01 4,16.008 L4,9.992 C3.952,9.99 3.906,9.987 3.862,9.983 C3.633,9.964 3.363,9.92 3.092,9.782 C2.716,9.59 2.41,9.284 2.218,8.908 C2.08,8.637 2.036,8.367 2.017,8.138 C2,7.93 2,7.684 2,7.432 L2,7.432 L2,7.4 L2,6.283 L2,6.256 L2,6.256 C2,6.051 2,5.847 2.013,5.671 C2.027,5.476 2.061,5.249 2.162,5.013 C2.305,4.68 2.537,4.392 2.831,4.179 C3.039,4.029 3.253,3.947 3.441,3.891 C3.61,3.84 3.809,3.796 4.009,3.751 C4.018,3.749 4.027,3.747 4.036,3.745 L11.436,2.101 C11.445,2.099 11.454,2.097 11.463,2.095 C11.564,2.072 11.692,2.044 11.825,2.032 Z M4.6,8 L19.4,8 C19.697,8 19.859,7.999 19.975,7.99 C19.98,7.989 19.984,7.989 19.989,7.989 C19.989,7.984 19.989,7.98 19.99,7.975 C19.999,7.859 20,7.697 20,7.4 L20,6.284 C20,6.04 19.999,5.911 19.993,5.818 C19.992,5.815 19.992,5.812 19.992,5.809 C19.989,5.808 19.986,5.807 19.983,5.806 C19.894,5.779 19.768,5.751 19.53,5.698 L12.13,4.053 C12.061,4.038 12.027,4.03 12.002,4.026 L12,4.025 L11.998,4.026 C11.973,4.03 11.939,4.038 11.87,4.053 L4.47,5.698 C4.232,5.751 4.106,5.779 4.017,5.806 C4.014,5.807 4.011,5.808 4.008,5.809 C4.008,5.812 4.008,5.815 4.007,5.818 C4.001,5.911 4,6.04 4,6.283 L4,7.4 C4,7.697 4.001,7.859 4.01,7.975 C4.011,7.98 4.011,7.984 4.011,7.989 C4.016,7.989 4.02,7.989 4.025,7.99 C4.141,7.999 4.303,8 4.6,8 Z M4.6,18 C4.303,18 4.141,18.001 4.025,18.01 C4.02,18.011 4.016,18.011 4.011,18.011 C4.011,18.016 4.011,18.02 4.01,18.025 C4.001,18.141 4,18.303 4,18.6 L4,19.4 C4,19.697 4.001,19.859 4.01,19.975 C4.011,19.98 4.011,19.984 4.011,19.989 C4.016,19.989 4.02,19.989 4.025,19.99 C4.141,19.999 4.303,20 4.6,20 L19.4,20 C19.697,20 19.859,19.999 19.975,19.99 C19.98,19.989 19.984,19.989 19.989,19.989 C19.989,19.984 19.989,19.98 19.99,19.975 C19.999,19.859 20,19.697 20,19.4 L20,18.6 C20,18.303 19.999,18.141 19.99,18.025 C19.989,18.02 19.989,18.016 19.989,18.011 C19.984,18.011 19.98,18.011 19.975,18.01 C19.859,18.001 19.697,18 19.4,18 Z M10.5,10 L10.5,16 L13.5,16 L13.5,10 Z M15.5,10 L15.5,16 L18,16 L18,10 Z M6,10 L6,16 L8.5,16 L8.5,10 Z"/>
</svg>
