<svg xmlns="http://www.w3.org/2000/svg" width="24" height="24" viewBox="0 0 24 24">
  <defs/>
  <path d="M1,12 C1,5.925 5.925,1 12,1 C18.075,1 23,5.925 23,12 C23,18.075 18.075,23 12,23 C5.925,23 1,18.075 1,12 Z M12,3 C7.029,3 3,7.029 3,12 C3,16.971 7.029,21 12,21 C16.971,21 21,16.971 21,12 C21,7.029 16.971,3 12,3 Z M12,6 C12.552,6 13,6.448 13,7 L13,17 C13,17.552 12.552,18 12,18 C11.448,18 11,17.552 11,17 L11,7 C11,6.448 11.448,6 12,6 Z M16,10 C16.552,10 17,10.448 17,11 L17,17 C17,17.552 16.552,18 16,18 C15.448,18 15,17.552 15,17 L15,11 C15,10.448 15.448,10 16,10 Z M8,12 C8.552,12 9,12.448 9,13 L9,17 C9,17.552 8.552,18 8,18 C7.448,18 7,17.552 7,17 L7,13 C7,12.448 7.448,12 8,12 Z"/>
</svg>
