<svg xmlns="http://www.w3.org/2000/svg" width="24" height="24" viewBox="0 0 24 24">
  <defs/>
  <path d="M18.089,4.038 C17.639,4.001 17.057,4 16.2,4 L12,4 C11.448,4 11,3.552 11,3 C11,2.448 11.448,2 12,2 L16.241,2 C17.046,2 17.711,2 18.252,2.044 C18.814,2.09 19.331,2.189 19.816,2.436 C20.569,2.819 21.181,3.431 21.564,4.184 C21.811,4.669 21.91,5.186 21.956,5.748 C22,6.289 22,6.954 22,7.759 L22,16.241 C22,17.046 22,17.711 21.956,18.252 C21.91,18.814 21.811,19.331 21.564,19.816 C21.181,20.569 20.569,21.181 19.816,21.564 C19.331,21.811 18.814,21.91 18.252,21.956 C17.711,22 17.046,22 16.241,22 L7.759,22 C6.954,22 6.289,22 5.748,21.956 C5.186,21.91 4.669,21.811 4.184,21.564 C3.431,21.181 2.819,20.569 2.436,19.816 C2.189,19.331 2.09,18.814 2.044,18.252 C2,17.711 2,17.046 2,16.241 L2,12 C2,11.448 2.448,11 3,11 C3.552,11 4,11.448 4,12 L4,16.2 C4,17.057 4.001,17.639 4.038,18.089 C4.073,18.527 4.138,18.752 4.218,18.908 C4.41,19.284 4.716,19.59 5.092,19.782 C5.248,19.862 5.473,19.927 5.911,19.962 C6.361,19.999 6.943,20 7.8,20 L16.2,20 C17.057,20 17.639,19.999 18.089,19.962 C18.527,19.927 18.752,19.862 18.908,19.782 C19.284,19.59 19.59,19.284 19.782,18.908 C19.862,18.752 19.927,18.527 19.962,18.089 C19.999,17.639 20,17.057 20,16.2 L20,7.8 C20,6.943 19.999,6.361 19.962,5.911 C19.927,5.473 19.862,5.248 19.782,5.092 C19.59,4.716 19.284,4.41 18.908,4.218 C18.752,4.138 18.527,4.073 18.089,4.038 Z M5,1 C5.265,1 5.52,1.105 5.707,1.293 L8.707,4.293 C9.098,4.683 9.098,5.317 8.707,5.707 C8.317,6.098 7.683,6.098 7.293,5.707 L6,4.414 L6,8 C6,8.552 5.552,9 5,9 C4.448,9 4,8.552 4,8 L4,4.414 L2.707,5.707 C2.317,6.098 1.683,6.098 1.293,5.707 C0.902,5.317 0.902,4.683 1.293,4.293 L4.293,1.293 C4.48,1.105 4.735,1 5,1 Z M12,6 C12.552,6 13,6.448 13,7 L13,17 C13,17.552 12.552,18 12,18 C11.448,18 11,17.552 11,17 L11,7 C11,6.448 11.448,6 12,6 Z M16,10 C16.552,10 17,10.448 17,11 L17,17 C17,17.552 16.552,18 16,18 C15.448,18 15,17.552 15,17 L15,11 C15,10.448 15.448,10 16,10 Z M8,12 C8.552,12 9,12.448 9,13 L9,17 C9,17.552 8.552,18 8,18 C7.448,18 7,17.552 7,17 L7,13 C7,12.448 7.448,12 8,12 Z"/>
</svg>
