<svg xmlns="http://www.w3.org/2000/svg" width="24" height="24" viewBox="0 0 24 24">
  <defs/>
  <path d="M3,2 C3.552,2 4,2.448 4,3 L4,21 C4,21.552 3.552,22 3,22 C2.448,22 2,21.552 2,21 L2,3 C2,2.448 2.448,2 3,2 Z M9,7 C9.552,7 10,7.448 10,8 L10,21 C10,21.552 9.552,22 9,22 C8.448,22 8,21.552 8,21 L8,8 C8,7.448 8.448,7 9,7 Z M15,12 C15.552,12 16,12.448 16,13 L16,21 C16,21.552 15.552,22 15,22 C14.448,22 14,21.552 14,21 L14,13 C14,12.448 14.448,12 15,12 Z M21,16 C21.552,16 22,16.448 22,17 L22,21 C22,21.552 21.552,22 21,22 C20.448,22 20,21.552 20,21 L20,17 C20,16.448 20.448,16 21,16 Z"/>
</svg>
