<svg xmlns="http://www.w3.org/2000/svg" width="24" height="24" viewBox="0 0 24 24">
  <defs/>
  <path d="M10.232,2.732 C11.208,1.756 12.792,1.756 13.768,2.732 C14.222,3.187 14.465,3.773 14.497,4.368 L18.206,5.759 C18.215,5.75 18.223,5.741 18.232,5.732 C19.208,4.756 20.792,4.756 21.768,5.732 C22.744,6.709 22.744,8.291 21.768,9.268 C20.792,10.244 19.208,10.244 18.232,9.268 C17.778,8.813 17.535,8.227 17.503,7.632 L13.794,6.241 C13.785,6.25 13.777,6.259 13.768,6.268 C12.955,7.081 11.72,7.217 10.766,6.675 L6.433,9.925 C6.625,10.74 6.403,11.632 5.768,12.268 C4.791,13.244 3.209,13.244 2.232,12.268 C1.256,11.292 1.256,9.709 2.232,8.732 C3.046,7.919 4.28,7.783 5.234,8.325 L9.567,5.075 C9.375,4.26 9.597,3.368 10.232,2.732 Z M12,9 C12.552,9 13,9.448 13,10 L13,20 C13,20.552 12.552,21 12,21 C11.448,21 11,20.552 11,20 L11,10 C11,9.448 11.448,9 12,9 Z M20,12 C20.552,12 21,12.448 21,13 L21,20 C21,20.552 20.552,21 20,21 C19.448,21 19,20.552 19,20 L19,13 C19,12.448 19.448,12 20,12 Z M4,15 C4.552,15 5,15.448 5,16 L5,20 C5,20.552 4.552,21 4,21 C3.448,21 3,20.552 3,20 L3,16 C3,15.448 3.448,15 4,15 Z M4.354,10.146 C4.158,9.951 3.842,9.951 3.646,10.146 C3.451,10.342 3.451,10.658 3.646,10.854 C3.842,11.049 4.158,11.049 4.354,10.854 C4.549,10.658 4.549,10.342 4.354,10.146 Z M12.354,4.146 C12.158,3.951 11.842,3.951 11.646,4.146 C11.451,4.342 11.451,4.658 11.646,4.854 C11.842,5.049 12.158,5.049 12.354,4.854 C12.549,4.658 12.549,4.342 12.354,4.146 Z M20.354,7.146 C20.158,6.951 19.842,6.951 19.646,7.146 C19.451,7.342 19.451,7.658 19.646,7.854 C19.842,8.049 20.158,8.049 20.354,7.854 C20.549,7.658 20.549,7.342 20.354,7.146 Z"/>
</svg>
