<svg xmlns="http://www.w3.org/2000/svg" width="24" height="24" viewBox="0 0 24 24">
  <defs/>
  <path d="M16.568,2 L19.432,2 C19.684,2 19.93,2 20.138,2.017 C20.367,2.036 20.637,2.08 20.908,2.218 C21.284,2.41 21.59,2.716 21.782,3.092 C21.92,3.363 21.964,3.633 21.983,3.862 C22,4.07 22,4.316 22,4.568 L22,19.432 C22,19.684 22,19.93 21.983,20.138 C21.964,20.367 21.92,20.637 21.782,20.908 C21.59,21.284 21.284,21.59 20.908,21.782 C20.637,21.92 20.367,21.964 20.138,21.983 C19.931,22 19.687,22 19.436,22 L19.432,22 L4.568,22 L4.564,22 C4.313,22 4.069,22 3.862,21.983 C3.633,21.964 3.363,21.92 3.092,21.782 L3.546,20.891 L4.163,19.997 C4.267,20 4.404,20 4.6,20 L8,20 L8,14.43 L10,11.528 L10,20 L14,20 L14,8.6 C14,8.303 13.999,8.141 13.99,8.025 C13.989,8.02 13.989,8.016 13.989,8.011 C13.984,8.011 13.98,8.011 13.975,8.01 C13.859,8.001 13.696,8 13.4,8 L12.432,8 L13.809,6.002 C13.875,6.003 13.939,6.005 14,6.008 L14,5.726 Z M16.011,4.011 C16.011,4.016 16.011,4.02 16.01,4.025 C16.001,4.141 16,4.303 16,4.6 L16,8 C16,8.032 15.998,8.064 15.995,8.096 C16,8.242 16,8.399 16,8.558 L16,20 L19.4,20 C19.697,20 19.859,19.999 19.975,19.99 C19.98,19.989 19.984,19.989 19.989,19.989 C19.989,19.984 19.989,19.98 19.99,19.975 C19.999,19.859 20,19.697 20,19.4 L20,4.6 C20,4.303 19.999,4.141 19.99,4.025 C19.989,4.02 19.989,4.016 19.989,4.011 C19.984,4.011 19.98,4.011 19.975,4.01 C19.859,4.001 19.697,4 19.4,4 L16.6,4 C16.303,4 16.141,4.001 16.025,4.01 C16.02,4.011 16.016,4.011 16.011,4.011 Z M8,14.43 L4.163,19.997 C4.109,19.995 4.064,19.993 4.025,19.99 C4.02,19.989 4.016,19.989 4.011,19.989 C4.011,19.984 4.011,19.98 4.01,19.975 C4.001,19.859 4,19.697 4,19.4 L4,13.6 C4,13.304 4.001,13.141 4.01,13.025 C4.011,13.02 4.011,13.016 4.011,13.012 C4.016,13.011 4.02,13.011 4.025,13.01 C4.141,13.001 4.303,13 4.6,13 L8,13 L8,14.43 Z M8,11 L8,8.568 C8,8.316 8,8.07 8.017,7.862 C8.036,7.633 8.08,7.363 8.218,7.092 C8.41,6.716 8.716,6.41 9.092,6.218 C9.363,6.08 9.633,6.036 9.862,6.017 C10.07,6 10.316,6 10.568,6 L12.038,6 L10.423,8 C10.234,8.001 10.116,8.003 10.025,8.01 C10.02,8.011 10.016,8.011 10.012,8.011 C10.011,8.016 10.011,8.02 10.01,8.025 C10.002,8.131 10,8.275 10,8.523 Z M12.432,8 L10,11.528 L10,8.6 L10,8.523 L10.423,8 C10.476,8 10.535,8 10.6,8 L12.432,8 Z M14,5.726 L13.809,6.002 C13.688,6 13.561,6 13.432,6 L12.038,6 L14.077,3.475 C14.043,3.611 14.027,3.742 14.017,3.862 C14,4.07 14,4.316 14,4.568 L14,5.726 Z M14.218,3.092 C14.41,2.716 14.716,2.41 15.092,2.218 L14.077,3.475 C14.108,3.351 14.152,3.221 14.218,3.092 Z M15.862,2.017 L15.092,2.218 C15.363,2.08 15.633,2.036 15.862,2.017 Z M15.862,2.017 C16.07,2 16.316,2 16.568,2 L15.862,2.017 Z"/>
</svg>
