<svg xmlns="http://www.w3.org/2000/svg" width="24" height="24" viewBox="0 0 24 24">
  <defs/>
  <path d="M21,2 C21.552,2 22,2.448 22,3 L22,21 C22,21.552 21.552,22 21,22 C20.448,22 20,21.552 20,21 L20,3 C20,2.448 20.448,2 21,2 Z M9,2 C9.552,2 10,2.448 10,3 L10,21 C10,21.552 9.552,22 9,22 C8.448,22 8,21.552 8,21 L8,3 C8,2.448 8.448,2 9,2 Z M15,10 C15.552,10 16,10.448 16,11 L16,21 C16,21.552 15.552,22 15,22 C14.448,22 14,21.552 14,21 L14,11 C14,10.448 14.448,10 15,10 Z M3,10 C3.552,10 4,10.448 4,11 L4,21 C4,21.552 3.552,22 3,22 C2.448,22 2,21.552 2,21 L2,11 C2,10.448 2.448,10 3,10 Z"/>
</svg>
