<svg xmlns="http://www.w3.org/2000/svg" width="24" height="24" viewBox="0 0 24 24">
  <defs/>
  <path d="M21,2 C21.552,2 22,2.448 22,3 L22,21 C22,21.552 21.552,22 21,22 C20.448,22 20,21.552 20,21 L20,3 C20,2.448 20.448,2 21,2 Z M15,7 C15.552,7 16,7.448 16,8 L16,21 C16,21.552 15.552,22 15,22 C14.448,22 14,21.552 14,21 L14,8 C14,7.448 14.448,7 15,7 Z M9,12 C9.552,12 10,12.448 10,13 L10,21 C10,21.552 9.552,22 9,22 C8.448,22 8,21.552 8,21 L8,13 C8,12.448 8.448,12 9,12 Z M3,16 C3.552,16 4,16.448 4,17 L4,21 C4,21.552 3.552,22 3,22 C2.448,22 2,21.552 2,21 L2,17 C2,16.448 2.448,16 3,16 Z"/>
</svg>
