<svg xmlns="http://www.w3.org/2000/svg" width="24" height="24" viewBox="0 0 24 24">
  <defs/>
  <path d="M3,2 C3.552,2 4,2.448 4,3 L4,17.8 C4,18.377 4.001,18.749 4.024,19.032 C4.046,19.304 4.084,19.404 4.109,19.454 C4.205,19.642 4.358,19.795 4.546,19.891 C4.595,19.916 4.696,19.954 4.968,19.976 C5.251,19.999 5.623,20 6.2,20 L21,20 C21.552,20 22,20.448 22,21 C22,21.552 21.552,22 21,22 L6.161,22 C5.634,22 5.18,22 4.805,21.969 C4.41,21.937 4.016,21.866 3.638,21.673 C3.074,21.385 2.615,20.927 2.327,20.362 C2.134,19.984 2.063,19.59 2.031,19.195 C2,18.82 2,18.366 2,17.838 L2,3 C2,2.448 2.448,2 3,2 Z M11.5,4.5 C12.052,4.5 12.5,4.948 12.5,5.5 L12.5,17.5 C12.5,18.052 12.052,18.5 11.5,18.5 C10.948,18.5 10.5,18.052 10.5,17.5 L10.5,5.5 C10.5,4.948 10.948,4.5 11.5,4.5 Z M20.5,4.5 C21.052,4.5 21.5,4.948 21.5,5.5 L21.5,17.5 C21.5,18.052 21.052,18.5 20.5,18.5 C19.948,18.5 19.5,18.052 19.5,17.5 L19.5,5.5 C19.5,4.948 19.948,4.5 20.5,4.5 Z M16,9.5 C16.552,9.5 17,9.948 17,10.5 L17,17.5 C17,18.052 16.552,18.5 16,18.5 C15.448,18.5 15,18.052 15,17.5 L15,10.5 C15,9.948 15.448,9.5 16,9.5 Z M7,9.5 C7.552,9.5 8,9.948 8,10.5 L8,17.5 C8,18.052 7.552,18.5 7,18.5 C6.448,18.5 6,18.052 6,17.5 L6,10.5 C6,9.948 6.448,9.5 7,9.5 Z"/>
</svg>
