<svg xmlns="http://www.w3.org/2000/svg" width="24" height="24" viewBox="0 0 24 24">
  <defs/>
  <path d="M16,10 L19.432,10 C19.684,10 19.93,10 20.138,10.017 C20.367,10.036 20.637,10.08 20.908,10.218 C21.284,10.41 21.59,10.716 21.782,11.092 C21.92,11.363 21.964,11.633 21.983,11.862 C22,12.069 22,12.313 22,12.564 L22,19.436 C22,19.687 22,19.931 21.983,20.138 C21.964,20.367 21.92,20.637 21.782,20.908 C21.59,21.284 21.284,21.59 20.908,21.782 C20.637,21.92 20.367,21.964 20.138,21.983 C19.931,22 19.687,22 19.436,22 L4.564,22 C4.313,22 4.069,22 3.862,21.983 C3.633,21.964 3.363,21.92 3.092,21.782 C2.716,21.59 2.41,21.284 2.218,20.908 C2.08,20.637 2.036,20.367 2.017,20.138 C2,19.93 2,19.684 2,19.432 L2,19.432 L2,8.6 L2,8.568 L2,8.568 C2,8.316 2,8.07 2.017,7.862 C2.036,7.633 2.08,7.363 2.218,7.092 C2.41,6.716 2.716,6.41 3.092,6.218 C3.363,6.08 3.633,6.036 3.862,6.017 C4.07,6 4.316,6 4.568,6 L4.568,6 L4.6,6 L8,6 L8,4.6 L8,4.568 L8,4.568 C8,4.316 8,4.07 8.017,3.862 C8.036,3.633 8.08,3.363 8.218,3.092 C8.41,2.716 8.716,2.41 9.092,2.218 C9.363,2.08 9.633,2.036 9.862,2.017 C10.07,2 10.316,2 10.568,2 L13.432,2 C13.684,2 13.93,2 14.138,2.017 C14.367,2.036 14.637,2.08 14.908,2.218 C15.284,2.41 15.59,2.716 15.782,3.092 C15.92,3.363 15.964,3.633 15.983,3.862 C16,4.069 16,4.313 16,4.564 Z M13.975,4.01 C13.859,4.001 13.696,4 13.4,4 L10.6,4 C10.304,4 10.141,4.001 10.025,4.01 C10.02,4.011 10.016,4.011 10.012,4.011 C10.011,4.016 10.011,4.02 10.01,4.025 C10.001,4.141 10,4.303 10,4.6 L10,20 L14,20 L14,4.6 C14,4.303 13.999,4.141 13.99,4.025 C13.989,4.02 13.989,4.016 13.989,4.011 C13.984,4.011 13.98,4.011 13.975,4.01 Z M8,8 L4.6,8 C4.303,8 4.141,8.001 4.025,8.01 C4.02,8.011 4.016,8.011 4.011,8.011 C4.011,8.016 4.011,8.02 4.01,8.025 C4.001,8.141 4,8.303 4,8.6 L4,19.4 C4,19.697 4.001,19.859 4.01,19.975 C4.011,19.98 4.011,19.984 4.011,19.989 C4.016,19.989 4.02,19.989 4.025,19.99 C4.141,19.999 4.303,20 4.6,20 L8,20 Z M16,12 L16,20 L19.4,20 C19.697,20 19.859,19.999 19.975,19.99 C19.98,19.989 19.984,19.989 19.989,19.989 C19.989,19.984 19.989,19.98 19.99,19.975 C19.999,19.859 20,19.697 20,19.4 L20,12.6 C20,12.304 19.999,12.141 19.99,12.025 C19.989,12.02 19.989,12.016 19.989,12.012 C19.984,12.011 19.98,12.011 19.975,12.01 C19.859,12.001 19.697,12 19.4,12 Z"/>
</svg>
