<svg xmlns="http://www.w3.org/2000/svg" width="24" height="24" viewBox="0 0 24 24">
  <defs/>
  <path d="M4.568,2 L3.862,2.017 L3.092,2.218 C3.363,2.08 3.633,2.036 3.862,2.017 C4.07,2 4.316,2 4.568,2 L7.4,2 L7.432,2 L7.432,2 C7.684,2 7.93,2 8.138,2.017 C8.367,2.036 8.637,2.08 8.908,2.218 C9.284,2.41 9.59,2.716 9.782,3.092 C9.92,3.363 9.964,3.633 9.983,3.862 C10,4.07 10,4.316 10,4.568 L10,6 L13.432,6 L13.432,6 C13.684,6 13.93,6 14.138,6.017 C14.367,6.036 14.637,6.08 14.908,6.218 C15.284,6.41 15.59,6.716 15.782,7.092 C15.92,7.363 15.964,7.633 15.983,7.862 C16,8.07 16,8.316 16,8.568 L16,10 L19.432,10 C19.684,10 19.93,10 20.138,10.017 C20.367,10.036 20.637,10.08 20.908,10.218 C21.284,10.41 21.59,10.716 21.782,11.092 C21.92,11.363 21.964,11.633 21.983,11.862 C22,12.07 22,12.316 22,12.568 L22,19.432 C22,19.684 22,19.93 21.983,20.138 C21.964,20.367 21.92,20.637 21.782,20.908 C21.59,21.284 21.284,21.59 20.908,21.782 C20.637,21.92 20.367,21.964 20.138,21.983 C19.931,22 19.687,22 19.436,22 L4.564,22 C4.313,22 4.069,22 3.862,21.983 C3.633,21.964 3.363,21.92 3.092,21.782 L3.546,20.891 L4,12.5 L4,4.6 C4,4.303 4.001,4.141 4.01,4.025 C4.011,4.02 4.011,4.016 4.011,4.011 C4.016,4.011 4.02,4.011 4.025,4.01 C4.121,4.002 4.25,4.001 4.46,4 Z M8,20 L8,4.6 C8,4.303 7.999,4.141 7.99,4.025 C7.989,4.02 7.989,4.016 7.989,4.011 C7.984,4.011 7.98,4.011 7.975,4.01 C7.859,4.001 7.697,4 7.4,4 L4.6,4 C4.55,4 4.503,4 4.46,4 L4,12.5 L4,19.4 C4,19.697 4.001,19.859 4.01,19.975 C4.011,19.98 4.011,19.984 4.011,19.989 C4.016,19.989 4.02,19.989 4.025,19.99 C4.141,19.999 4.304,20 4.6,20 Z M14,8.6 C14,8.303 13.999,8.141 13.99,8.025 C13.989,8.02 13.989,8.016 13.989,8.011 C13.984,8.011 13.98,8.011 13.975,8.01 C13.859,8.001 13.696,8 13.4,8 L10,8 L10,20 L14,20 Z M16,20 L19.4,20 C19.697,20 19.859,19.999 19.975,19.99 C19.98,19.989 19.984,19.989 19.989,19.989 C19.989,19.984 19.989,19.98 19.99,19.975 C19.999,19.859 20,19.697 20,19.4 L20,12.6 C20,12.304 19.999,12.141 19.99,12.025 C19.989,12.02 19.989,12.016 19.989,12.012 C19.984,12.011 19.98,12.011 19.975,12.01 C19.859,12.001 19.697,12 19.4,12 L16,12 Z"/>
</svg>
