<svg xmlns="http://www.w3.org/2000/svg" width="24" height="24" viewBox="0 0 24 24">
  <defs/>
  <path d="M14.241,5 L14.241,5 C15.046,5 15.711,5 16.252,5.044 C16.814,5.09 17.331,5.189 17.816,5.436 C18.569,5.819 19.181,6.431 19.564,7.184 C19.811,7.669 19.91,8.186 19.956,8.748 C20,9.289 20,9.954 20,10.759 L20,13.241 C20,14.046 20,14.711 19.956,15.252 C19.91,15.814 19.811,16.331 19.564,16.816 C19.181,17.569 18.569,18.181 17.816,18.564 C17.331,18.811 16.814,18.91 16.252,18.956 C15.711,19 15.046,19 14.241,19 L6.759,19 C5.954,19 5.289,19 4.748,18.956 C4.186,18.91 3.669,18.811 3.184,18.564 C2.431,18.181 1.819,17.569 1.436,16.816 C1.189,16.331 1.09,15.814 1.044,15.252 C1,14.711 1,14.046 1,13.241 L1,10.759 C1,9.954 1,9.289 1.044,8.748 C1.09,8.186 1.189,7.669 1.436,7.184 C1.819,6.431 2.431,5.819 3.184,5.436 C3.669,5.189 4.186,5.09 4.748,5.044 C5.289,5 5.954,5 6.759,5 L14.241,5 Z M4.911,7.038 C4.473,7.073 4.248,7.138 4.092,7.218 C3.716,7.41 3.41,7.716 3.218,8.092 C3.138,8.248 3.073,8.473 3.038,8.911 C3.001,9.361 3,9.943 3,10.8 L3,13.2 C3,14.057 3.001,14.639 3.038,15.089 C3.073,15.527 3.138,15.752 3.218,15.908 C3.41,16.284 3.716,16.59 4.092,16.782 C4.248,16.862 4.473,16.927 4.911,16.962 C5.361,16.999 5.943,17 6.8,17 L14.2,17 C15.057,17 15.639,16.999 16.089,16.962 C16.527,16.927 16.752,16.862 16.908,16.782 C17.284,16.59 17.59,16.284 17.782,15.908 C17.862,15.752 17.927,15.527 17.962,15.089 C17.999,14.639 18,14.057 18,13.2 L18,10.8 C18,9.943 17.999,9.361 17.962,8.911 C17.927,8.473 17.862,8.248 17.782,8.092 C17.59,7.716 17.284,7.41 16.908,7.218 C16.752,7.138 16.527,7.073 16.089,7.038 C15.639,7.001 15.057,7 14.2,7 L6.8,7 C5.943,7 5.361,7.001 4.911,7.038 Z M6.5,9 C7.052,9 7.5,9.448 7.5,10 L7.5,14 C7.5,14.552 7.052,15 6.5,15 C5.948,15 5.5,14.552 5.5,14 L5.5,10 C5.5,9.448 5.948,9 6.5,9 Z M22,10 C22.552,10 23,10.448 23,11 L23,13 C23,13.552 22.552,14 22,14 C21.448,14 21,13.552 21,13 L21,11 C21,10.448 21.448,10 22,10 Z"/>
</svg>
