<svg xmlns="http://www.w3.org/2000/svg" width="24" height="24" viewBox="0 0 24 24">
  <defs/>
  <path d="M12.055,5.168 C12.514,5.474 12.639,6.095 12.332,6.555 L9.369,11 L13.5,11 C13.869,11 14.208,11.203 14.382,11.528 C14.556,11.853 14.537,12.248 14.332,12.555 L10.332,18.555 C10.026,19.014 9.405,19.139 8.945,18.832 C8.486,18.526 8.362,17.905 8.668,17.445 L11.632,13 L7.5,13 C7.131,13 6.792,12.797 6.618,12.472 C6.444,12.147 6.463,11.752 6.668,11.445 L10.668,5.445 C10.974,4.986 11.595,4.862 12.055,5.168 Z M6.759,5 L7,5 C7.552,5 8,5.448 8,6 C8,6.552 7.552,7 7,7 L6.8,7 C5.944,7 5.361,7.001 4.911,7.038 C4.473,7.073 4.249,7.138 4.092,7.218 C3.716,7.41 3.41,7.716 3.218,8.092 C3.138,8.249 3.073,8.473 3.038,8.911 C3.001,9.361 3,9.944 3,10.8 L3,14 C3,14.995 3.009,15.295 3.068,15.518 C3.253,16.208 3.792,16.747 4.482,16.932 C4.705,16.992 5.006,17 6,17 C6.552,17 7,17.448 7,18 C7,18.552 6.552,19 6,19 C5.954,19 5.908,19 5.863,19 L5.862,19 C5.067,19.001 4.476,19.001 3.965,18.864 C2.584,18.494 1.506,17.416 1.136,16.035 C0.999,15.524 1,14.933 1,14.138 C1,14.092 1,14.047 1,14 L1,10.759 C1,9.954 1,9.289 1.044,8.748 C1.09,8.186 1.189,7.669 1.436,7.184 C1.82,6.431 2.431,5.82 3.184,5.436 C3.669,5.189 4.186,5.09 4.748,5.044 C5.289,5 5.954,5 6.759,5 Z M16.518,7.068 C16.295,7.009 15.994,7 15,7 C14.448,7 14,6.552 14,6 C14,5.448 14.448,5 15,5 C15.047,5 15.092,5 15.138,5 C15.933,5 16.524,4.999 17.035,5.136 C18.416,5.506 19.494,6.584 19.864,7.965 C20.001,8.476 20.001,9.067 20,9.863 L20,13.241 C20,14.046 20,14.711 19.956,15.252 C19.91,15.814 19.811,16.331 19.564,16.816 C19.181,17.569 18.569,18.181 17.816,18.564 C17.331,18.811 16.814,18.91 16.252,18.956 C15.711,19 15.046,19 14.241,19 L14,19 C13.448,19 13,18.552 13,18 C13,17.448 13.448,17 14,17 L14.2,17 C15.057,17 15.639,16.999 16.089,16.963 C16.528,16.927 16.752,16.862 16.908,16.782 C17.284,16.59 17.59,16.284 17.782,15.908 C17.862,15.752 17.927,15.528 17.962,15.089 C17.999,14.639 18,14.057 18,13.2 L18,10 C18,9.006 17.992,8.705 17.932,8.482 C17.747,7.792 17.208,7.253 16.518,7.068 Z M22,10 C22.552,10 23,10.448 23,11 L23,13 C23,13.552 22.552,14 22,14 C21.448,14 21,13.552 21,13 L21,11 C21,10.448 21.448,10 22,10 Z"/>
</svg>
