<svg xmlns="http://www.w3.org/2000/svg" width="24" height="24" viewBox="0 0 24 24">
  <defs/>
  <path d="M7.5,2 C7.5,1.448 7.948,1 8.5,1 L15.5,1 C16.052,1 16.5,1.448 16.5,2 C16.5,2.552 16.052,3 15.5,3 L15,3 L15,6.545 C18.213,7.757 20.5,10.86 20.5,14.5 C20.5,19.194 16.694,23 12,23 C7.306,23 3.5,19.194 3.5,14.5 C3.5,10.86 5.787,7.757 9,6.545 L9,3 L8.5,3 C7.948,3 7.5,2.552 7.5,2 Z M11,3 L11,6.683 C11,6.774 11,6.883 10.994,6.979 C10.987,7.091 10.969,7.253 10.901,7.43 C10.811,7.665 10.675,7.86 10.486,8.024 C10.336,8.155 10.181,8.229 10.081,8.272 C9.988,8.312 9.879,8.352 9.781,8.388 L9.764,8.394 C7.274,9.307 5.5,11.697 5.5,14.5 C5.5,18.09 8.41,21 12,21 C15.59,21 18.5,18.09 18.5,14.5 C18.5,11.697 16.726,9.307 14.236,8.394 L14.219,8.388 C14.121,8.352 14.012,8.312 13.919,8.272 C13.819,8.229 13.664,8.155 13.514,8.024 C13.325,7.86 13.189,7.665 13.099,7.43 C13.031,7.253 13.013,7.091 13.006,6.979 C13,6.883 13,6.774 13,6.683 L13,3 Z"/>
</svg>
