<svg xmlns="http://www.w3.org/2000/svg" width="24" height="24" viewBox="0 0 24 24">
  <defs/>
  <path d="M7.05,3.05 C8.363,1.737 10.144,1 12,1 C12.394,1 12.784,1.033 13.167,1.098 C13.711,1.19 14.078,1.706 13.986,2.251 C13.894,2.795 13.378,3.162 12.833,3.07 C12.56,3.024 12.281,3 12,3 C10.674,3 9.402,3.527 8.464,4.464 C7.527,5.402 7,6.674 7,8 C7,11.268 6.173,13.568 5.199,15.134 C4.986,15.476 4.808,15.761 4.663,15.999 C4.87,16 5.11,16 5.389,16 L18.611,16 C18.89,16 19.13,16 19.337,15.999 C19.192,15.761 19.014,15.476 18.801,15.134 C17.937,13.745 17.186,11.774 17.03,9.058 C16.998,8.506 17.419,8.033 17.971,8.002 C18.522,7.97 18.995,8.391 19.027,8.942 C19.164,11.335 19.817,12.98 20.5,14.077 L20.511,14.096 C20.869,14.67 21.151,15.124 21.341,15.455 C21.437,15.62 21.524,15.78 21.588,15.921 C21.62,15.992 21.656,16.079 21.684,16.173 C21.708,16.251 21.752,16.419 21.735,16.622 C21.724,16.759 21.696,16.993 21.562,17.234 C21.428,17.476 21.244,17.623 21.134,17.705 C20.884,17.89 20.596,17.933 20.5,17.947 L20.496,17.948 C20.349,17.969 20.181,17.98 20.013,17.987 C19.677,18 19.213,18 18.636,18 L5.364,18 C4.787,18 4.323,18 3.988,17.987 C3.819,17.98 3.651,17.969 3.504,17.948 L3.5,17.947 C3.404,17.933 3.116,17.89 2.866,17.705 C2.756,17.623 2.572,17.476 2.438,17.234 C2.304,16.993 2.276,16.759 2.265,16.622 C2.248,16.419 2.292,16.251 2.316,16.173 C2.344,16.079 2.38,15.992 2.412,15.922 C2.476,15.78 2.563,15.62 2.659,15.455 C2.849,15.124 3.131,14.67 3.489,14.096 L3.501,14.077 C4.268,12.844 5,10.913 5,8 C5,6.143 5.737,4.363 7.05,3.05 Z M14,5 C14,4.448 14.448,4 15,4 L21,4 C21.552,4 22,4.448 22,5 C22,5.552 21.552,6 21,6 L15,6 C14.448,6 14,5.552 14,5 Z M8.604,20.338 C8.97,19.924 9.602,19.885 10.016,20.25 C10.545,20.718 11.238,21 12,21 C12.762,21 13.455,20.718 13.984,20.25 C14.398,19.885 15.03,19.924 15.396,20.338 C15.761,20.752 15.722,21.384 15.307,21.75 C14.427,22.527 13.267,23 12,23 C10.733,23 9.573,22.527 8.692,21.75 C8.278,21.384 8.239,20.752 8.604,20.338 Z"/>
</svg>
