<svg xmlns="http://www.w3.org/2000/svg" width="24" height="24" viewBox="0 0 24 24">
  <defs/>
  <path d="M2.293,2.293 C2.683,1.902 3.317,1.902 3.707,2.293 L6.93,5.515 C6.954,5.538 6.977,5.561 6.999,5.585 L17.706,16.292 L21.707,20.293 C22.098,20.683 22.098,21.317 21.707,21.707 C21.317,22.098 20.683,22.098 20.293,21.707 L16.586,18 L5.364,18 C4.787,18 4.323,18 3.988,17.987 C3.819,17.98 3.651,17.969 3.504,17.948 L3.5,17.947 C3.404,17.933 3.116,17.89 2.866,17.705 C2.756,17.623 2.572,17.476 2.438,17.234 C2.304,16.993 2.276,16.759 2.265,16.622 C2.248,16.419 2.292,16.251 2.316,16.173 C2.344,16.079 2.38,15.992 2.412,15.922 C2.476,15.78 2.563,15.62 2.659,15.455 C2.849,15.124 3.132,14.67 3.489,14.096 L3.501,14.077 C4.268,12.844 5,10.913 5,8 C5,7.514 5.051,7.032 5.149,6.563 L2.293,3.707 C1.902,3.317 1.902,2.683 2.293,2.293 Z M8.072,2.206 C9.223,1.426 10.589,1 12,1 C13.856,1 15.637,1.737 16.95,3.05 C18.263,4.363 19,6.143 19,8 C19,10.014 19.259,11.569 19.608,12.749 C19.764,13.279 19.461,13.835 18.931,13.991 C18.402,14.148 17.846,13.845 17.689,13.316 C17.281,11.934 17,10.187 17,8 C17,6.674 16.473,5.402 15.535,4.464 C14.598,3.527 13.326,3 12,3 C10.993,3 10.016,3.304 9.194,3.861 C8.737,4.171 8.115,4.052 7.805,3.595 C7.495,3.138 7.615,2.516 8.072,2.206 Z M6.996,8.41 C6.93,11.461 6.132,13.634 5.199,15.134 C4.986,15.476 4.808,15.761 4.663,15.999 C4.87,16 5.11,16 5.389,16 L14.586,16 Z M10,22 C9.448,22 9,21.552 9,21 C9,20.448 9.448,20 10,20 L14,20 C14.552,20 15,20.448 15,21 C15,21.552 14.552,22 14,22 Z"/>
</svg>
