<svg xmlns="http://www.w3.org/2000/svg" width="24" height="24" viewBox="0 0 24 24">
  <defs/>
  <path d="M15.28,5.721 C15.866,5.996 16.412,6.347 16.897,6.767 C18.222,7.915 19,9.506 19,11.2 C19,13.308 19.52,14.8 20.132,15.836 L20.143,15.853 C20.536,16.519 20.844,17.039 21.05,17.413 C21.153,17.599 21.244,17.772 21.31,17.92 C21.343,17.994 21.379,18.082 21.407,18.176 C21.428,18.245 21.48,18.427 21.458,18.646 C21.446,18.766 21.419,19.006 21.28,19.25 C21.141,19.494 20.948,19.639 20.851,19.711 C20.691,19.827 20.532,19.877 20.453,19.899 C20.359,19.925 20.268,19.94 20.193,19.951 C20.042,19.971 19.866,19.981 19.683,19.987 C19.318,20 18.808,20 18.164,20 L15.874,20 C15.43,21.725 13.864,23 12,23 C10.136,23 8.57,21.725 8.126,20 L5.835,20 C5.192,20 4.682,20 4.317,19.987 C4.133,19.981 3.958,19.971 3.807,19.951 C3.731,19.94 3.64,19.925 3.547,19.899 C3.467,19.877 3.308,19.827 3.149,19.711 C3.051,19.639 2.859,19.494 2.72,19.25 C2.58,19.006 2.553,18.766 2.541,18.646 C2.52,18.427 2.572,18.245 2.592,18.176 C2.621,18.082 2.657,17.994 2.689,17.92 C2.755,17.772 2.846,17.599 2.949,17.413 C3.155,17.039 3.463,16.519 3.857,15.853 L3.867,15.836 C4.48,14.8 5,13.308 5,11.2 C5,9.506 5.778,7.915 7.102,6.767 C7.588,6.347 8.133,5.996 8.719,5.721 C8.577,5.341 8.5,4.929 8.5,4.5 C8.5,2.567 10.067,1 12,1 C13.933,1 15.5,2.567 15.5,4.5 C15.5,4.929 15.422,5.341 15.28,5.721 Z M13.514,7.198 C13.031,7.069 12.521,7 12,7 C11.478,7 10.969,7.069 10.486,7.198 C10.473,7.202 10.46,7.205 10.447,7.208 C9.678,7.421 8.979,7.788 8.412,8.279 C7.486,9.081 7,10.136 7,11.2 C7,13.656 6.388,15.501 5.589,16.854 C5.314,17.319 5.091,17.696 4.916,17.998 C5.175,18 5.487,18 5.858,18 L18.142,18 C18.513,18 18.824,18 19.083,17.998 C18.909,17.696 18.686,17.319 18.411,16.854 C17.611,15.501 17,13.656 17,11.2 C17,10.136 16.513,9.081 15.587,8.279 C15.021,7.788 14.321,7.421 13.552,7.208 C13.539,7.205 13.527,7.202 13.514,7.198 Z M12,3 C11.171,3 10.5,3.672 10.5,4.5 C10.5,4.721 10.547,4.93 10.633,5.119 C11.081,5.04 11.539,5 12,5 C12.461,5 12.919,5.04 13.367,5.119 C13.452,4.93 13.5,4.721 13.5,4.5 C13.5,3.672 12.828,3 12,3 Z M10.267,20 C10.613,20.598 11.259,21 12,21 C12.74,21 13.386,20.598 13.732,20 Z"/>
</svg>
