<svg xmlns="http://www.w3.org/2000/svg" width="24" height="24" viewBox="0 0 24 24">
  <defs/>
  <path d="M7.05,3.05 C8.363,1.737 10.144,1 12,1 C13.857,1 15.637,1.737 16.95,3.05 C18.263,4.363 19,6.143 19,8 C19,10.913 19.732,12.844 20.5,14.077 L20.511,14.096 C20.869,14.67 21.151,15.124 21.342,15.455 C21.437,15.62 21.524,15.78 21.588,15.922 C21.621,15.992 21.656,16.079 21.684,16.173 C21.708,16.251 21.752,16.419 21.736,16.622 C21.724,16.759 21.697,16.993 21.562,17.234 C21.428,17.476 21.244,17.623 21.134,17.705 C20.884,17.89 20.597,17.933 20.501,17.947 L20.496,17.948 C20.349,17.969 20.181,17.98 20.013,17.987 C19.677,18 19.213,18 18.636,18 L5.364,18 C4.787,18 4.323,18 3.988,17.987 C3.819,17.98 3.652,17.969 3.504,17.948 L3.5,17.947 C3.404,17.933 3.117,17.89 2.866,17.705 C2.756,17.623 2.572,17.476 2.438,17.234 C2.304,16.993 2.276,16.759 2.265,16.622 C2.248,16.419 2.293,16.251 2.316,16.173 C2.344,16.079 2.38,15.992 2.412,15.922 C2.476,15.78 2.563,15.62 2.659,15.455 C2.849,15.124 3.132,14.67 3.489,14.096 L3.501,14.077 C4.268,12.844 5,10.913 5,8 C5,6.143 5.738,4.363 7.05,3.05 Z M12,3 C10.674,3 9.402,3.527 8.465,4.464 C7.527,5.402 7,6.674 7,8 C7,11.268 6.173,13.568 5.199,15.134 C4.986,15.476 4.808,15.761 4.663,15.999 C4.87,16 5.11,16 5.389,16 L18.611,16 C18.89,16 19.131,16 19.337,15.999 C19.192,15.761 19.014,15.476 18.802,15.134 C17.827,13.568 17,11.268 17,8 C17,6.674 16.473,5.402 15.536,4.464 C14.598,3.527 13.326,3 12,3 Z M8.605,20.338 C8.97,19.924 9.602,19.885 10.016,20.25 C10.546,20.718 11.239,21 12,21 C12.762,21 13.455,20.718 13.984,20.25 C14.398,19.885 15.03,19.924 15.396,20.338 C15.761,20.752 15.722,21.384 15.308,21.75 C14.427,22.527 13.268,23 12,23 C10.733,23 9.573,22.527 8.693,21.75 C8.279,21.384 8.239,20.752 8.605,20.338 Z M18.799,1.809 C19.071,1.328 19.681,1.158 20.162,1.429 C21.743,2.321 22.72,4.014 22.702,5.83 C22.697,6.382 22.245,6.825 21.692,6.82 C21.14,6.814 20.697,6.362 20.702,5.81 C20.713,4.723 20.125,3.705 19.179,3.171 C18.698,2.9 18.528,2.29 18.799,1.809 Z M5.197,1.809 C5.469,2.29 5.299,2.9 4.818,3.171 C3.871,3.705 3.283,4.723 3.294,5.81 C3.3,6.362 2.856,6.814 2.304,6.82 C1.752,6.825 1.3,6.382 1.294,5.83 C1.276,4.014 2.254,2.321 3.835,1.429 C4.316,1.158 4.926,1.328 5.197,1.809 Z"/>
</svg>
