<svg xmlns="http://www.w3.org/2000/svg" width="24" height="24" viewBox="0 0 24 24">
  <defs/>
  <path d="M13.446,4.857 C14.083,4.971 14.701,5.168 15.278,5.449 C16.855,6.215 18.018,7.55 18.457,9.186 C19.002,11.222 19.891,12.529 20.75,13.371 L20.765,13.385 C21.318,13.926 21.749,14.349 22.045,14.656 C22.193,14.81 22.326,14.954 22.428,15.08 C22.478,15.142 22.536,15.218 22.587,15.301 C22.626,15.363 22.722,15.525 22.758,15.742 C22.778,15.862 22.814,16.1 22.743,16.372 C22.671,16.644 22.523,16.834 22.447,16.928 C22.324,17.082 22.183,17.171 22.112,17.213 C22.028,17.262 21.944,17.301 21.874,17.33 C21.733,17.389 21.566,17.444 21.391,17.498 C21.042,17.604 20.549,17.736 19.927,17.903 L16.749,18.754 C16.767,20.536 15.584,22.173 13.783,22.655 C11.983,23.137 10.14,22.311 9.265,20.76 L8.018,21.094 C7.397,21.26 6.904,21.392 6.548,21.475 C6.37,21.516 6.197,21.551 6.046,21.571 C5.971,21.581 5.879,21.59 5.782,21.589 C5.699,21.588 5.532,21.581 5.348,21.51 C5.236,21.466 5.012,21.376 4.815,21.176 C4.617,20.976 4.529,20.752 4.486,20.638 C4.409,20.432 4.412,20.244 4.414,20.171 C4.417,20.073 4.429,19.979 4.441,19.899 C4.467,19.739 4.51,19.548 4.561,19.341 C4.663,18.927 4.826,18.345 5.034,17.6 L5.039,17.581 C5.363,16.422 5.479,14.846 4.934,12.81 C4.495,11.173 4.835,9.436 5.817,7.984 C6.177,7.452 6.613,6.972 7.108,6.555 C6.873,6.225 6.691,5.847 6.58,5.432 C6.08,3.565 7.188,1.646 9.055,1.146 C10.922,0.645 12.842,1.754 13.342,3.621 C13.453,4.035 13.485,4.453 13.446,4.857 Z M12.122,6.741 C11.622,6.741 11.112,6.806 10.608,6.941 C10.105,7.076 9.631,7.274 9.198,7.524 C9.186,7.531 9.174,7.538 9.161,7.545 C8.474,7.949 7.893,8.485 7.474,9.105 C6.787,10.12 6.59,11.265 6.865,12.292 C7.501,14.665 7.388,16.605 6.966,18.118 C6.82,18.639 6.703,19.061 6.612,19.398 C6.863,19.333 7.164,19.252 7.523,19.156 L19.388,15.977 C19.746,15.881 20.047,15.8 20.297,15.731 C20.05,15.485 19.737,15.178 19.351,14.8 C18.229,13.7 17.16,12.076 16.525,9.704 C16.249,8.676 15.506,7.783 14.405,7.248 C13.73,6.92 12.96,6.747 12.162,6.741 C12.148,6.741 12.135,6.741 12.122,6.741 Z M16.477,3.597 C16.614,3.062 17.16,2.74 17.694,2.878 C19.453,3.33 20.835,4.712 21.288,6.471 C21.425,7.006 21.103,7.551 20.568,7.688 C20.033,7.826 19.488,7.504 19.351,6.969 C19.08,5.916 18.249,5.085 17.196,4.814 C16.661,4.677 16.339,4.132 16.477,3.597 Z M3.823,6.987 C4.21,7.382 4.203,8.015 3.809,8.401 C3.033,9.162 2.728,10.298 3.02,11.345 C3.168,11.877 2.857,12.428 2.325,12.577 C1.793,12.725 1.242,12.414 1.094,11.882 C0.606,10.132 1.112,8.245 2.409,6.973 C2.803,6.587 3.436,6.593 3.823,6.987 Z M11.41,4.138 C11.196,3.338 10.373,2.863 9.573,3.078 C8.773,3.292 8.298,4.115 8.512,4.915 C8.569,5.128 8.669,5.318 8.801,5.478 C9.213,5.286 9.645,5.129 10.09,5.009 C10.536,4.89 10.988,4.811 11.442,4.771 C11.476,4.566 11.467,4.352 11.41,4.138 Z M14.68,19.309 L11.333,20.205 C11.822,20.694 12.551,20.915 13.266,20.723 C13.981,20.531 14.501,19.976 14.68,19.309 Z"/>
</svg>
