<svg xmlns="http://www.w3.org/2000/svg" width="24" height="24" viewBox="0 0 24 24">
  <defs/>
  <path d="M12.191,4.857 C12.828,4.971 13.446,5.168 14.024,5.449 C15.6,6.215 16.763,7.55 17.202,9.186 C17.747,11.222 18.636,12.529 19.496,13.371 L19.51,13.385 C20.063,13.927 20.494,14.349 20.79,14.656 C20.938,14.81 21.071,14.954 21.173,15.08 C21.223,15.142 21.281,15.218 21.333,15.301 C21.371,15.363 21.468,15.525 21.504,15.742 C21.523,15.862 21.559,16.1 21.488,16.372 C21.417,16.644 21.268,16.834 21.192,16.928 C21.069,17.082 20.928,17.171 20.857,17.213 C20.773,17.262 20.689,17.301 20.619,17.33 C20.478,17.389 20.311,17.444 20.136,17.498 C19.787,17.604 19.294,17.736 18.673,17.903 L15.494,18.754 C15.512,20.536 14.329,22.173 12.528,22.655 C10.728,23.137 8.885,22.311 8.01,20.76 L6.764,21.094 C6.142,21.26 5.649,21.392 5.293,21.475 C5.115,21.516 4.942,21.552 4.791,21.571 C4.716,21.581 4.624,21.59 4.527,21.589 C4.444,21.588 4.278,21.581 4.094,21.51 C3.981,21.466 3.758,21.376 3.56,21.176 C3.362,20.976 3.274,20.752 3.231,20.638 C3.154,20.432 3.157,20.244 3.159,20.171 C3.162,20.073 3.174,19.979 3.187,19.899 C3.212,19.739 3.255,19.548 3.306,19.341 C3.409,18.927 3.571,18.345 3.779,17.6 L3.785,17.581 C4.108,16.422 4.224,14.846 3.679,12.81 C3.24,11.173 3.58,9.436 4.562,7.984 C4.922,7.452 5.359,6.973 5.853,6.555 C5.618,6.225 5.437,5.847 5.325,5.432 C4.825,3.565 5.933,1.646 7.8,1.146 C9.667,0.645 11.587,1.754 12.087,3.621 C12.198,4.035 12.23,4.453 12.191,4.857 Z M10.867,6.741 C10.367,6.741 9.857,6.806 9.353,6.941 C8.85,7.076 8.375,7.274 7.942,7.525 C7.931,7.531 7.919,7.538 7.908,7.544 C7.219,7.948 6.639,8.484 6.219,9.105 C5.532,10.12 5.335,11.265 5.611,12.292 C6.246,14.665 6.133,16.605 5.711,18.118 C5.566,18.639 5.448,19.061 5.358,19.398 C5.609,19.333 5.909,19.252 6.268,19.156 L18.133,15.977 C18.491,15.881 18.792,15.8 19.042,15.731 C18.795,15.485 18.482,15.178 18.096,14.8 C16.974,13.7 15.906,12.076 15.27,9.704 C14.995,8.676 14.252,7.783 13.15,7.248 C12.475,6.92 11.705,6.747 10.907,6.741 C10.894,6.741 10.88,6.741 10.867,6.741 Z M10.155,4.138 C9.941,3.338 9.118,2.863 8.318,3.078 C7.518,3.292 7.043,4.115 7.257,4.915 C7.315,5.128 7.415,5.318 7.546,5.478 C7.958,5.286 8.39,5.129 8.836,5.009 C9.281,4.89 9.734,4.811 10.187,4.771 C10.221,4.566 10.212,4.352 10.155,4.138 Z M10.079,20.206 C10.567,20.694 11.296,20.915 12.011,20.723 C12.726,20.531 13.246,19.976 13.425,19.309 Z"/>
</svg>
