<svg xmlns="http://www.w3.org/2000/svg" width="24" height="24" viewBox="0 0 24 24">
  <defs/>
  <path d="M2.253,3.336 C2.62,2.923 3.252,2.886 3.664,3.253 L7.965,7.076 C8.001,7.102 8.035,7.13 8.068,7.162 C8.083,7.176 8.098,7.191 8.111,7.206 L20.481,18.201 C20.524,18.233 20.565,18.27 20.603,18.309 L21.664,19.253 C22.077,19.619 22.114,20.252 21.747,20.664 C21.381,21.077 20.748,21.114 20.336,20.747 L19.495,20 L15.874,20 C15.43,21.725 13.864,23 12,23 C10.136,23 8.57,21.725 8.126,20 L5.835,20 C5.192,20 4.682,20 4.317,19.987 C4.134,19.981 3.958,19.971 3.807,19.951 C3.732,19.94 3.641,19.925 3.547,19.899 C3.468,19.877 3.308,19.827 3.149,19.711 C3.051,19.639 2.859,19.494 2.72,19.25 C2.58,19.006 2.553,18.766 2.542,18.646 C2.52,18.427 2.572,18.245 2.593,18.176 C2.621,18.082 2.657,17.994 2.69,17.92 C2.756,17.772 2.846,17.599 2.949,17.413 C3.156,17.039 3.463,16.519 3.857,15.853 L3.867,15.836 C4.48,14.8 5,13.308 5,11.2 C5,10.053 5.357,8.952 6,8.004 L2.336,4.747 C1.923,4.38 1.886,3.748 2.253,3.336 Z M15.281,5.721 C15.867,5.996 16.412,6.347 16.898,6.767 C18.222,7.915 19,9.506 19,11.2 C19,11.517 19.009,11.819 19.025,12.109 C19.056,12.661 18.634,13.133 18.082,13.164 C17.531,13.194 17.059,12.772 17.028,12.221 C17.01,11.893 17,11.553 17,11.2 C17,10.136 16.514,9.081 15.588,8.279 C15.019,7.786 14.316,7.418 13.543,7.206 C13.54,7.205 13.537,7.204 13.534,7.203 C13.105,7.087 12.656,7.019 12.197,7.003 C12.132,7.001 12.066,7 12,7 C11.749,7 11.501,7.016 11.256,7.047 C11.231,7.05 11.205,7.054 11.179,7.057 C10.879,7.096 10.495,7.147 10.104,7.041 C9.92,6.991 9.75,6.906 9.627,6.834 C9.503,6.763 9.345,6.657 9.211,6.521 C9.103,6.413 9.003,6.296 8.917,6.152 C8.844,6.031 8.796,5.912 8.769,5.848 C8.767,5.843 8.765,5.838 8.764,5.834 C8.593,5.422 8.5,4.971 8.5,4.5 C8.5,2.567 10.067,1 12,1 C13.933,1 15.5,2.567 15.5,4.5 C15.5,4.929 15.422,5.341 15.281,5.721 Z M7.514,9.35 C7.175,9.928 7,10.562 7,11.2 C7,13.656 6.389,15.501 5.589,16.854 C5.314,17.319 5.091,17.696 4.916,17.998 C5.176,18 5.487,18 5.858,18 L17.245,18 Z M12,3 C11.172,3 10.5,3.672 10.5,4.5 C10.5,4.704 10.54,4.897 10.612,5.071 L10.625,5.101 C10.626,5.102 10.628,5.103 10.63,5.104 C10.659,5.103 10.702,5.099 10.766,5.092 C10.831,5.085 10.906,5.075 11.004,5.063 C11.332,5.021 11.665,5 12,5 C12.096,5 12.192,5.002 12.288,5.005 C12.652,5.018 13.013,5.057 13.367,5.119 C13.453,4.93 13.5,4.721 13.5,4.5 C13.5,3.672 12.828,3 12,3 Z M13.732,20 L10.268,20 C10.613,20.598 11.26,21 12,21 C12.74,21 13.387,20.598 13.732,20 Z"/>
</svg>
