<svg xmlns="http://www.w3.org/2000/svg" width="24" height="24" viewBox="0 0 24 24">
  <defs/>
  <path d="M12.432,1 L12.432,1 C12.684,1 12.93,1 13.138,1.017 C13.367,1.036 13.637,1.08 13.908,1.218 C14.284,1.41 14.59,1.716 14.782,2.092 C14.92,2.363 14.964,2.633 14.983,2.862 C14.986,2.9 14.989,2.94 14.991,2.981 C17.833,3.922 20.078,6.168 21.02,9.009 C21.06,9.011 21.1,9.014 21.138,9.017 C21.367,9.036 21.637,9.08 21.908,9.218 C22.284,9.41 22.59,9.716 22.782,10.092 C22.92,10.363 22.964,10.633 22.983,10.862 C23,11.069 23,11.313 23,11.564 L23,12.436 C23,12.687 23,12.931 22.983,13.138 C22.964,13.367 22.92,13.637 22.782,13.908 C22.59,14.284 22.284,14.59 21.908,14.782 C21.637,14.92 21.367,14.964 21.138,14.983 C21.1,14.986 21.06,14.989 21.02,14.991 C20.078,17.832 17.832,20.078 14.991,21.019 C14.989,21.06 14.986,21.1 14.983,21.138 C14.964,21.367 14.92,21.637 14.782,21.908 C14.59,22.284 14.284,22.59 13.908,22.782 C13.637,22.92 13.367,22.964 13.138,22.983 C12.931,23 12.687,23 12.436,23 L11.564,23 C11.313,23 11.069,23 10.862,22.983 C10.633,22.964 10.363,22.92 10.092,22.782 C9.716,22.59 9.41,22.284 9.218,21.908 C9.08,21.637 9.036,21.367 9.017,21.138 C9.014,21.1 9.011,21.06 9.009,21.019 C6.168,20.078 3.922,17.832 2.981,14.991 C2.94,14.989 2.9,14.986 2.862,14.983 C2.633,14.964 2.363,14.92 2.092,14.782 C1.716,14.59 1.41,14.284 1.218,13.908 C1.08,13.637 1.036,13.367 1.017,13.138 C1,12.93 1,12.684 1,12.432 L1,11.568 C1,11.316 1,11.07 1.017,10.862 C1.036,10.633 1.08,10.363 1.218,10.092 C1.41,9.716 1.716,9.41 2.092,9.218 C2.363,9.08 2.633,9.036 2.862,9.017 C2.9,9.014 2.94,9.011 2.981,9.009 C3.923,6.168 6.168,3.922 9.009,2.981 C9.011,2.94 9.014,2.9 9.017,2.862 C9.036,2.633 9.08,2.363 9.218,2.092 C9.41,1.716 9.716,1.41 10.092,1.218 C10.363,1.08 10.633,1.036 10.862,1.017 C11.07,1 11.316,1 11.568,1 L12.432,1 Z M9.015,5.117 C7.273,5.874 5.874,7.273 5.117,9.015 C5.124,9.016 5.131,9.016 5.138,9.017 C5.367,9.036 5.637,9.08 5.908,9.218 C6.284,9.41 6.59,9.716 6.782,10.092 C6.92,10.363 6.964,10.633 6.983,10.862 C7,11.07 7,11.316 7,11.568 L7,12.432 C7,12.684 7,12.93 6.983,13.138 C6.964,13.367 6.92,13.637 6.782,13.908 C6.59,14.284 6.284,14.59 5.908,14.782 C5.637,14.92 5.367,14.964 5.138,14.983 C5.131,14.984 5.124,14.984 5.117,14.985 C5.874,16.727 7.273,18.126 9.015,18.883 C9.016,18.876 9.016,18.869 9.017,18.862 C9.036,18.633 9.08,18.363 9.218,18.092 C9.41,17.716 9.716,17.41 10.092,17.218 C10.363,17.08 10.633,17.036 10.862,17.017 C11.069,17 11.313,17 11.564,17 L12.436,17 C12.687,17 12.931,17 13.138,17.017 C13.367,17.036 13.637,17.08 13.908,17.218 C14.284,17.41 14.59,17.716 14.782,18.092 C14.92,18.363 14.964,18.633 14.983,18.862 C14.984,18.869 14.984,18.876 14.985,18.883 C16.727,18.126 18.126,16.727 18.883,14.985 C18.876,14.984 18.869,14.984 18.862,14.983 C18.633,14.964 18.363,14.92 18.092,14.782 C17.716,14.59 17.41,14.284 17.218,13.908 C17.08,13.637 17.036,13.367 17.017,13.138 C17,12.931 17,12.687 17,12.436 L17,11.564 C17,11.313 17,11.069 17.017,10.862 C17.036,10.633 17.08,10.363 17.218,10.092 C17.41,9.716 17.716,9.41 18.092,9.218 C18.363,9.08 18.633,9.036 18.862,9.017 C18.869,9.016 18.876,9.016 18.883,9.015 C18.126,7.273 16.727,5.874 14.985,5.117 C14.984,5.124 14.984,5.131 14.983,5.138 C14.964,5.367 14.92,5.637 14.782,5.908 C14.59,6.284 14.284,6.59 13.908,6.782 C13.637,6.92 13.367,6.964 13.138,6.983 C12.93,7 12.684,7 12.432,7 L11.568,7 C11.316,7 11.07,7 10.862,6.983 C10.633,6.964 10.363,6.92 10.092,6.782 C9.716,6.59 9.41,6.284 9.218,5.908 C9.08,5.637 9.036,5.367 9.017,5.138 C9.016,5.131 9.016,5.124 9.015,5.117 Z M11,20.255 L11,20.4 C11,20.697 11.001,20.859 11.01,20.975 C11.011,20.98 11.011,20.984 11.012,20.989 C11.016,20.989 11.02,20.989 11.025,20.99 C11.141,20.999 11.304,21 11.6,21 L12.4,21 C12.696,21 12.859,20.999 12.975,20.99 C12.98,20.989 12.984,20.989 12.989,20.989 C12.989,20.984 12.989,20.98 12.99,20.975 C12.999,20.859 13,20.697 13,20.4 L13,19.6 C13,19.303 12.999,19.141 12.99,19.025 C12.989,19.02 12.989,19.016 12.988,19.011 C12.984,19.011 12.98,19.011 12.975,19.01 C12.859,19.001 12.696,19 12.4,19 L11.6,19 C11.304,19 11.141,19.001 11.025,19.01 C11.02,19.011 11.016,19.011 11.012,19.011 C11.011,19.016 11.011,19.02 11.01,19.025 C11.001,19.141 11,19.303 11,19.6 L11,20.255 Z M3.761,13 L4.4,13 C4.697,13 4.859,12.999 4.975,12.99 C4.98,12.989 4.984,12.989 4.989,12.989 C4.989,12.984 4.989,12.98 4.99,12.975 C4.999,12.859 5,12.696 5,12.4 L5,11.6 C5,11.304 4.999,11.141 4.99,11.025 C4.989,11.02 4.989,11.016 4.989,11.012 C4.984,11.011 4.98,11.011 4.975,11.01 C4.859,11.001 4.697,11 4.4,11 L3.759,11 Q3.738,11 3.716,11 L3.6,11 C3.303,11 3.141,11.001 3.025,11.01 C3.02,11.011 3.016,11.011 3.011,11.012 C3.011,11.016 3.011,11.02 3.01,11.025 C3.001,11.141 3,11.304 3,11.6 L3,12.4 C3,12.696 3.001,12.859 3.01,12.975 C3.011,12.98 3.011,12.984 3.011,12.989 C3.016,12.989 3.02,12.989 3.025,12.99 C3.141,12.999 3.303,13 3.6,13 L3.714,13 C3.73,13 3.745,13 3.761,13 Z M11,3.767 L11,4.4 C11,4.697 11.001,4.859 11.01,4.975 C11.011,4.98 11.011,4.984 11.012,4.989 C11.016,4.989 11.02,4.989 11.025,4.99 C11.141,4.999 11.304,5 11.6,5 L12.4,5 C12.696,5 12.859,4.999 12.975,4.99 C12.98,4.989 12.984,4.989 12.989,4.989 C12.989,4.984 12.989,4.98 12.99,4.975 C12.999,4.859 13,4.697 13,4.4 L13,3.6 C13,3.303 12.999,3.141 12.99,3.025 C12.989,3.02 12.989,3.016 12.989,3.011 C12.984,3.011 12.98,3.011 12.975,3.01 C12.859,3.001 12.696,3 12.4,3 L11.6,3 C11.304,3 11.141,3.001 11.025,3.01 C11.02,3.011 11.016,3.011 11.012,3.011 C11.011,3.016 11.011,3.02 11.01,3.025 C11.001,3.141 11,3.303 11,3.6 L11,3.708 C11.001,3.728 11.001,3.747 11,3.767 Z M20.247,11 L19.6,11 C19.303,11 19.141,11.001 19.025,11.01 C19.02,11.011 19.016,11.011 19.011,11.012 C19.011,11.016 19.011,11.02 19.01,11.025 C19.001,11.141 19,11.304 19,11.6 L19,12.4 C19,12.696 19.001,12.859 19.01,12.975 C19.011,12.98 19.011,12.984 19.011,12.988 C19.016,12.989 19.02,12.989 19.025,12.99 C19.141,12.999 19.303,13 19.6,13 L20.241,13 C20.256,13 20.27,13 20.284,13 L20.4,13 C20.697,13 20.859,12.999 20.975,12.99 C20.98,12.989 20.984,12.989 20.989,12.988 C20.989,12.984 20.989,12.98 20.99,12.975 C20.999,12.859 21,12.696 21,12.4 L21,11.6 C21,11.304 20.999,11.141 20.99,11.025 C20.989,11.02 20.989,11.016 20.989,11.012 C20.984,11.011 20.98,11.011 20.975,11.01 C20.859,11.001 20.697,11 20.4,11 L20.278,11 C20.268,11 20.258,11 20.247,11 Z"/>
</svg>
