<svg xmlns="http://www.w3.org/2000/svg" width="24" height="24" viewBox="0 0 24 24">
  <defs/>
  <path d="M12.432,4 L12.432,4 C12.684,4 12.93,4 13.138,4.017 C13.367,4.036 13.637,4.08 13.908,4.218 C14.284,4.41 14.59,4.716 14.782,5.092 C14.92,5.363 14.964,5.633 14.983,5.862 C14.987,5.906 14.99,5.952 14.992,6 L19.268,6 C19.613,5.402 20.26,5 21,5 C22.105,5 23,5.895 23,7 C23,8.105 22.105,9 21,9 C20.26,9 19.613,8.598 19.268,8 L17.657,8 C19.454,9.454 20.68,11.585 20.946,14.006 C21.013,14.008 21.077,14.012 21.138,14.017 C21.367,14.036 21.637,14.08 21.908,14.218 C22.284,14.41 22.59,14.716 22.782,15.092 C22.92,15.363 22.964,15.633 22.983,15.862 C23,16.069 23,16.313 23,16.564 L23,17.436 C23,17.687 23,17.931 22.983,18.138 C22.964,18.367 22.92,18.637 22.782,18.908 C22.59,19.284 22.284,19.59 21.908,19.782 C21.637,19.92 21.367,19.964 21.138,19.983 C20.931,20 20.687,20 20.436,20 L19.564,20 C19.313,20 19.069,20 18.862,19.983 C18.633,19.964 18.363,19.92 18.092,19.782 C17.716,19.59 17.41,19.284 17.218,18.908 C17.08,18.637 17.036,18.367 17.017,18.138 C17,17.931 17,17.687 17,17.436 L17,16.564 C17,16.313 17,16.069 17.017,15.862 C17.036,15.633 17.08,15.363 17.218,15.092 C17.41,14.716 17.716,14.41 18.092,14.218 C18.363,14.08 18.633,14.036 18.862,14.017 C18.884,14.015 18.907,14.014 18.931,14.012 C18.591,11.608 17.031,9.596 14.896,8.625 C14.867,8.718 14.83,8.813 14.782,8.908 C14.59,9.284 14.284,9.59 13.908,9.782 C13.637,9.92 13.367,9.964 13.138,9.983 C12.931,10 12.687,10 12.436,10 L11.564,10 C11.313,10 11.069,10 10.862,9.983 C10.633,9.964 10.363,9.92 10.092,9.782 C9.716,9.59 9.41,9.284 9.218,8.908 C9.169,8.813 9.133,8.718 9.104,8.625 C6.97,9.596 5.409,11.608 5.069,14.012 C5.093,14.014 5.116,14.015 5.138,14.017 C5.367,14.036 5.637,14.08 5.908,14.218 C6.284,14.41 6.59,14.716 6.782,15.092 C6.92,15.363 6.964,15.633 6.983,15.862 C7,16.07 7,16.316 7,16.568 L7,17.432 C7,17.684 7,17.93 6.983,18.138 C6.964,18.367 6.92,18.637 6.782,18.908 C6.59,19.284 6.284,19.59 5.908,19.782 C5.637,19.92 5.367,19.964 5.138,19.983 C4.931,20 4.687,20 4.436,20 L3.564,20 C3.313,20 3.069,20 2.862,19.983 C2.633,19.964 2.363,19.92 2.092,19.782 C1.716,19.59 1.41,19.284 1.218,18.908 C1.08,18.637 1.036,18.367 1.017,18.138 C1,17.93 1,17.684 1,17.432 L1,16.568 C1,16.316 1,16.07 1.017,15.862 C1.036,15.633 1.08,15.363 1.218,15.092 C1.41,14.716 1.716,14.41 2.092,14.218 C2.363,14.08 2.633,14.036 2.862,14.017 C2.923,14.012 2.987,14.008 3.054,14.006 C3.32,11.585 4.546,9.454 6.343,8 L4.732,8 C4.387,8.598 3.74,9 3,9 C1.895,9 1,8.105 1,7 C1,5.895 1.895,5 3,5 C3.74,5 4.387,5.402 4.732,6 L9.008,6 C9.01,5.952 9.013,5.906 9.017,5.862 C9.036,5.633 9.08,5.363 9.218,5.092 C9.41,4.716 9.716,4.41 10.092,4.218 C10.363,4.08 10.633,4.036 10.862,4.017 C11.07,4 11.316,4 11.568,4 L12.432,4 Z M3.011,16.011 C3.011,16.016 3.011,16.02 3.01,16.025 C3.001,16.141 3,16.303 3,16.6 L3,17.4 C3,17.697 3.001,17.859 3.01,17.975 C3.011,17.98 3.011,17.984 3.011,17.989 C3.016,17.989 3.02,17.989 3.025,17.99 C3.141,17.999 3.303,18 3.6,18 L4.4,18 C4.697,18 4.859,17.999 4.975,17.99 C4.98,17.989 4.984,17.989 4.989,17.989 C4.989,17.984 4.989,17.98 4.99,17.975 C4.999,17.859 5,17.697 5,17.4 L5,16.6 C5,16.303 4.999,16.141 4.99,16.025 C4.989,16.02 4.989,16.016 4.989,16.011 C4.984,16.011 4.98,16.011 4.975,16.01 C4.859,16.001 4.697,16 4.4,16 L3.6,16 C3.303,16 3.141,16.001 3.025,16.01 C3.02,16.011 3.016,16.011 3.011,16.011 Z M19.011,16.011 C19.011,16.016 19.011,16.02 19.01,16.025 C19.001,16.141 19,16.303 19,16.6 L19,17.4 C19,17.697 19.001,17.859 19.01,17.975 C19.011,17.98 19.011,17.984 19.011,17.989 C19.016,17.989 19.02,17.989 19.025,17.99 C19.141,17.999 19.303,18 19.6,18 L20.4,18 C20.697,18 20.859,17.999 20.975,17.99 C20.98,17.989 20.984,17.989 20.989,17.989 C20.989,17.984 20.989,17.98 20.99,17.975 C20.999,17.859 21,17.697 21,17.4 L21,16.6 C21,16.303 20.999,16.141 20.99,16.025 C20.989,16.02 20.989,16.016 20.989,16.011 C20.984,16.011 20.98,16.011 20.975,16.01 C20.859,16.001 20.697,16 20.4,16 L19.6,16 C19.303,16 19.141,16.001 19.025,16.01 C19.02,16.011 19.016,16.011 19.011,16.011 Z M11,7.231 C11,7.245 11,7.26 11,7.275 L11,7.4 C11,7.697 11.001,7.859 11.01,7.975 C11.011,7.98 11.011,7.984 11.012,7.989 C11.016,7.989 11.02,7.989 11.025,7.99 C11.141,7.999 11.304,8 11.6,8 L12.4,8 C12.696,8 12.859,7.999 12.975,7.99 C12.98,7.989 12.984,7.989 12.989,7.989 C12.989,7.984 12.989,7.98 12.99,7.975 C12.999,7.859 13,7.697 13,7.4 L13,7.275 C13,7.26 13,7.245 13,7.231 L13,6.6 C13,6.303 12.999,6.141 12.99,6.025 C12.989,6.02 12.989,6.016 12.989,6.011 C12.984,6.011 12.98,6.011 12.975,6.01 C12.859,6.001 12.696,6 12.4,6 L11.6,6 C11.304,6 11.141,6.001 11.025,6.01 C11.02,6.011 11.016,6.011 11.012,6.011 C11.011,6.016 11.011,6.02 11.01,6.025 C11.001,6.141 11,6.303 11,6.6 Z"/>
</svg>
