<svg xmlns="http://www.w3.org/2000/svg" width="24" height="24" viewBox="0 0 24 24">
  <defs/>
  <path d="M12.432,2 L12.432,2 C12.684,2 12.93,2 13.138,2.017 C13.367,2.036 13.637,2.08 13.908,2.218 C14.284,2.41 14.59,2.716 14.782,3.092 C14.92,3.363 14.964,3.633 14.983,3.862 C15,4.069 15,4.313 15,4.564 L15,5.436 C15,5.687 15,5.931 14.983,6.138 C14.964,6.367 14.92,6.637 14.782,6.908 C14.702,7.064 14.603,7.208 14.487,7.337 L19.438,16 C19.481,16 19.524,16 19.568,16 L20.436,16 C20.687,16 20.931,16 21.138,16.017 C21.367,16.036 21.637,16.08 21.908,16.218 C22.284,16.41 22.59,16.716 22.782,17.092 C22.92,17.363 22.964,17.633 22.983,17.862 C23,18.069 23,18.313 23,18.564 L23,19.436 C23,19.687 23,19.931 22.983,20.138 C22.964,20.367 22.92,20.637 22.782,20.908 C22.59,21.284 22.284,21.59 21.908,21.782 C21.637,21.92 21.367,21.964 21.138,21.983 C20.931,22 20.687,22 20.436,22 L19.564,22 C19.313,22 19.069,22 18.862,21.983 C18.633,21.964 18.363,21.92 18.092,21.782 C17.716,21.59 17.41,21.284 17.218,20.908 C17.08,20.637 17.036,20.367 17.017,20.138 C17.013,20.094 17.01,20.048 17.008,20 L6.992,20 C6.99,20.048 6.987,20.094 6.983,20.138 C6.964,20.367 6.92,20.637 6.782,20.908 C6.59,21.284 6.284,21.59 5.908,21.782 C5.637,21.92 5.367,21.964 5.138,21.983 C4.931,22 4.687,22 4.436,22 L3.564,22 C3.313,22 3.069,22 2.862,21.983 C2.633,21.964 2.363,21.92 2.092,21.782 C1.716,21.59 1.41,21.284 1.218,20.908 C1.08,20.637 1.036,20.367 1.017,20.138 C1,19.93 1,19.684 1,19.432 L1,18.568 C1,18.316 1,18.07 1.017,17.862 C1.036,17.633 1.08,17.363 1.218,17.092 C1.41,16.716 1.716,16.41 2.092,16.218 C2.363,16.08 2.633,16.036 2.862,16.017 C3.069,16 3.313,16 3.564,16 L4.432,16 C4.476,16 4.519,16 4.562,16 L9.513,7.337 C9.397,7.208 9.298,7.064 9.218,6.908 C9.08,6.637 9.036,6.367 9.017,6.138 C9,5.93 9,5.684 9,5.432 L9,4.568 C9,4.316 9,4.07 9.017,3.862 C9.036,3.633 9.08,3.363 9.218,3.092 C9.41,2.716 9.716,2.41 10.092,2.218 C10.363,2.08 10.633,2.036 10.862,2.017 C11.07,2 11.316,2 11.568,2 L12.432,2 Z M11.438,8 L6.487,16.663 C6.603,16.792 6.702,16.936 6.782,17.092 C6.92,17.363 6.964,17.633 6.983,17.862 C6.987,17.906 6.99,17.952 6.992,18 L17.008,18 C17.01,17.952 17.013,17.906 17.017,17.862 C17.036,17.633 17.08,17.363 17.218,17.092 C17.298,16.936 17.397,16.792 17.513,16.663 L12.562,8 C12.523,8 12.484,8 12.444,8 L11.556,8 C11.516,8 11.477,8 11.438,8 Z M5,18.6 C5,18.303 4.999,18.141 4.99,18.025 C4.989,18.02 4.989,18.016 4.989,18.011 C4.984,18.011 4.98,18.011 4.975,18.01 C4.859,18.001 4.697,18 4.4,18 L3.6,18 C3.303,18 3.141,18.001 3.025,18.01 C3.02,18.011 3.016,18.011 3.011,18.011 C3.011,18.016 3.011,18.02 3.01,18.025 C3.001,18.141 3,18.303 3,18.6 L3,19.4 C3,19.697 3.001,19.859 3.01,19.975 C3.011,19.98 3.011,19.984 3.011,19.989 C3.016,19.989 3.02,19.989 3.025,19.99 C3.141,19.999 3.303,20 3.6,20 L4.4,20 C4.697,20 4.859,19.999 4.975,19.99 C4.98,19.989 4.984,19.989 4.989,19.989 C4.989,19.984 4.989,19.98 4.99,19.975 C4.999,19.859 5,19.697 5,19.4 Z M12.989,5.989 C12.989,5.984 12.989,5.98 12.99,5.975 C12.999,5.859 13,5.697 13,5.4 L13,4.6 C13,4.303 12.999,4.141 12.99,4.025 C12.989,4.02 12.989,4.016 12.989,4.011 C12.984,4.011 12.98,4.011 12.975,4.01 C12.859,4.001 12.696,4 12.4,4 L11.6,4 C11.304,4 11.141,4.001 11.025,4.01 C11.02,4.011 11.016,4.011 11.012,4.011 C11.011,4.016 11.011,4.02 11.01,4.025 C11.001,4.141 11,4.303 11,4.6 L11,5.4 C11,5.697 11.001,5.859 11.01,5.975 C11.011,5.98 11.011,5.984 11.012,5.989 C11.016,5.989 11.02,5.989 11.025,5.99 C11.141,5.999 11.304,6 11.6,6 L12.4,6 C12.696,6 12.859,5.999 12.975,5.99 C12.98,5.989 12.984,5.989 12.989,5.989 Z M19.011,18.011 C19.011,18.016 19.011,18.02 19.01,18.025 C19.001,18.141 19,18.303 19,18.6 L19,19.4 C19,19.697 19.001,19.859 19.01,19.975 C19.011,19.98 19.011,19.984 19.011,19.989 C19.016,19.989 19.02,19.989 19.025,19.99 C19.141,19.999 19.303,20 19.6,20 L20.4,20 C20.697,20 20.859,19.999 20.975,19.99 C20.98,19.989 20.984,19.989 20.989,19.989 C20.989,19.984 20.989,19.98 20.99,19.975 C20.999,19.859 21,19.697 21,19.4 L21,18.6 C21,18.303 20.999,18.141 20.99,18.025 C20.989,18.02 20.989,18.016 20.989,18.011 C20.984,18.011 20.98,18.011 20.975,18.01 C20.859,18.001 20.697,18 20.4,18 L19.6,18 C19.303,18 19.141,18.001 19.025,18.01 C19.02,18.011 19.016,18.011 19.011,18.011 Z"/>
</svg>
