<svg xmlns="http://www.w3.org/2000/svg" width="24" height="24" viewBox="0 0 24 24">
  <defs/>
  <path d="M8.576,1.094 C8.927,0.93 9.342,0.983 9.64,1.232 L15.64,6.232 C15.868,6.422 16,6.703 16,7 C16,7.297 15.868,7.578 15.64,7.768 L10.562,12 L15.64,16.232 C15.868,16.422 16,16.703 16,17 C16,17.297 15.868,17.578 15.64,17.768 L9.64,22.768 C9.342,23.017 8.927,23.07 8.576,22.906 C8.224,22.741 8,22.388 8,22 L8,14.135 L3.64,17.768 C3.216,18.122 2.585,18.065 2.232,17.64 C1.878,17.216 1.936,16.585 2.36,16.232 L7.438,12 L2.36,7.768 C1.936,7.415 1.878,6.784 2.232,6.36 C2.585,5.936 3.216,5.878 3.64,6.232 L8,9.865 L8,2 C8,1.612 8.224,1.259 8.576,1.094 Z M10,9.865 L13.438,7 L10,4.135 Z M10,14.135 L10,19.865 L13.438,17 Z M14,12 C14,11.448 14.448,11 15,11 L15.01,11 C15.562,11 16.01,11.448 16.01,12 C16.01,12.552 15.562,13 15.01,13 L15,13 C14.448,13 14,12.552 14,12 Z M17,12 C17,11.448 17.448,11 18,11 L18.01,11 C18.562,11 19.01,11.448 19.01,12 C19.01,12.552 18.562,13 18.01,13 L18,13 C17.448,13 17,12.552 17,12 Z M20,12 C20,11.448 20.448,11 21,11 L21.01,11 C21.562,11 22.01,11.448 22.01,12 C22.01,12.552 21.562,13 21.01,13 L21,13 C20.448,13 20,12.552 20,12 Z"/>
</svg>
