<svg xmlns="http://www.w3.org/2000/svg" width="24" height="24" viewBox="0 0 24 24">
  <defs/>
  <path d="M7.576,1.094 C7.927,0.93 8.342,0.983 8.64,1.232 L14.64,6.232 C14.868,6.422 15,6.703 15,7 C15,7.297 14.868,7.578 14.64,7.768 L9.562,12 L14.64,16.232 C14.868,16.422 15,16.703 15,17 C15,17.297 14.868,17.578 14.64,17.768 L8.64,22.768 C8.342,23.017 7.927,23.07 7.576,22.906 C7.224,22.741 7,22.388 7,22 L7,14.135 L2.64,17.768 C2.216,18.122 1.585,18.065 1.232,17.64 C0.878,17.216 0.936,16.585 1.36,16.232 L6.438,12 L1.36,7.768 C0.936,7.415 0.878,6.784 1.232,6.36 C1.585,5.936 2.216,5.878 2.64,6.232 L7,9.865 L7,2 C7,1.612 7.224,1.259 7.576,1.094 Z M19.561,5.688 C20.009,5.366 20.634,5.468 20.956,5.916 C22.188,7.629 22.914,9.731 22.914,12 C22.914,14.269 22.188,16.372 20.956,18.084 C20.634,18.532 20.009,18.634 19.561,18.312 C19.112,17.989 19.01,17.364 19.333,16.916 C20.328,15.533 20.914,13.836 20.914,12 C20.914,10.164 20.328,8.468 19.333,7.084 C19.01,6.636 19.112,6.011 19.561,5.688 Z M16.428,8.037 C16.881,7.721 17.504,7.832 17.82,8.285 C18.555,9.338 18.986,10.62 18.986,12 C18.986,13.38 18.555,14.662 17.82,15.715 C17.504,16.168 16.881,16.279 16.428,15.963 C15.975,15.647 15.864,15.024 16.18,14.571 C16.688,13.842 16.986,12.958 16.986,12 C16.986,11.043 16.688,10.158 16.18,9.429 C15.864,8.976 15.975,8.353 16.428,8.037 Z M9,9.865 L12.438,7 L9,4.135 Z M9,14.135 L9,19.865 L12.438,17 Z"/>
</svg>
