<svg xmlns="http://www.w3.org/2000/svg" width="24" height="24" viewBox="0 0 24 24">
  <defs/>
  <path d="M2.293,2.293 C2.683,1.902 3.317,1.902 3.707,2.293 L12.702,11.288 C12.705,11.291 12.709,11.295 12.712,11.298 L21.707,20.293 C22.098,20.683 22.098,21.317 21.707,21.707 C21.317,22.098 20.683,22.098 20.293,21.707 L17.393,18.807 L12.64,22.768 C12.342,23.017 11.927,23.07 11.576,22.906 C11.224,22.741 11,22.388 11,22 L11,14.135 L6.64,17.768 C6.216,18.122 5.585,18.065 5.232,17.64 C4.878,17.216 4.936,16.585 5.36,16.232 L10.519,11.933 L2.293,3.707 C1.902,3.317 1.902,2.683 2.293,2.293 Z M11.576,1.094 C11.927,0.93 12.342,0.983 12.64,1.232 L18.64,6.232 C18.868,6.422 19,6.703 19,7 C19,7.297 18.868,7.578 18.64,7.768 L15.722,10.2 C15.298,10.554 14.667,10.496 14.314,10.072 C13.96,9.648 14.017,9.017 14.441,8.664 L16.438,7 L13,4.135 L13,7 C13,7.552 12.552,8 12,8 C11.448,8 11,7.552 11,7 L11,2 C11,1.612 11.224,1.259 11.576,1.094 Z M13,14.414 L13,19.865 L15.973,17.387 Z"/>
</svg>
