<svg xmlns="http://www.w3.org/2000/svg" width="24" height="24" viewBox="0 0 24 24">
  <defs/>
  <path d="M11.576,1.094 C11.927,0.93 12.342,0.983 12.64,1.232 L18.64,6.232 C18.868,6.422 19,6.703 19,7 C19,7.297 18.868,7.578 18.64,7.768 L13.562,12 L18.64,16.232 C18.868,16.422 19,16.703 19,17 C19,17.297 18.868,17.578 18.64,17.768 L12.64,22.768 C12.342,23.017 11.927,23.07 11.576,22.906 C11.224,22.741 11,22.388 11,22 L11,14.135 L6.64,17.768 C6.216,18.122 5.585,18.065 5.232,17.64 C4.878,17.216 4.936,16.585 5.36,16.232 L10.438,12 L5.36,7.768 C4.936,7.415 4.878,6.784 5.232,6.36 C5.585,5.936 6.216,5.878 6.64,6.232 L11,9.865 L11,2 C11,1.612 11.224,1.259 11.576,1.094 Z M13,9.865 L16.438,7 L13,4.135 Z M13,14.135 L13,19.865 L16.438,17 Z"/>
</svg>
