<svg xmlns="http://www.w3.org/2000/svg" width="24" height="24" viewBox="0 0 24 24">
  <defs/>
  <path d="M3,4 C3,3.448 3.448,3 4,3 L15.5,3 C18.261,3 20.5,5.239 20.5,8 C20.5,9.431 19.899,10.721 18.936,11.632 C20.466,12.488 21.5,14.123 21.5,16 C21.5,18.761 19.261,21 16.5,21 L4,21 C3.448,21 3,20.552 3,20 C3,19.448 3.448,19 4,19 L5,19 L5,5 L4,5 C3.448,5 3,4.552 3,4 Z M10.5,13 L10.5,19 L16.5,19 C18.157,19 19.5,17.657 19.5,16 C19.5,14.343 18.157,13 16.5,13 Z M10.5,5 L10.5,11 L15.5,11 C17.157,11 18.5,9.657 18.5,8 C18.5,6.343 17.157,5 15.5,5 Z M7,5 L7,19 L8.5,19 L8.5,5 Z"/>
</svg>
