<svg width="24" height="24" viewBox="0 0 24 24" fill="none" xmlns="http://www.w3.org/2000/svg">
<path d="M13.4307 2.03022C14.805 0.656414 17.0331 0.656121 18.4072 2.03022C19.1057 2.72867 19.4471 3.64806 19.4356 4.56342C20.3512 4.55167 21.2711 4.89403 21.9697 5.59272C23.3438 6.96685 23.3436 9.19502 21.9697 10.5693C20.9925 11.5466 19.3309 12.0576 17.9434 11.6738C17.7517 11.6207 17.5798 11.6032 17.4551 11.6142C17.3358 11.6247 17.3224 11.6539 17.3379 11.6386L11.6387 17.3378C11.654 17.3224 11.6248 17.3358 11.6143 17.455C11.6033 17.5798 11.6208 17.7516 11.6738 17.9433C12.0577 19.3308 11.5467 20.9924 10.5693 21.9697C9.19508 23.3435 6.96692 23.3437 5.59278 21.9697C4.89408 21.271 4.55173 20.3512 4.56349 19.4355C3.64812 19.447 2.72873 19.1056 2.03028 18.4072C0.656182 17.033 0.656475 14.8049 2.03028 13.4306C2.94641 12.5145 4.46369 12.0072 5.79298 12.2636L6.1963 12.3593C6.33135 12.3864 6.45137 12.3939 6.54493 12.3857C6.66415 12.3752 6.67759 12.346 6.66212 12.3613L12.3613 6.66206C12.3461 6.67753 12.3752 6.66409 12.3858 6.54487C12.3968 6.42013 12.3792 6.24831 12.3262 6.05659C11.9423 4.66902 12.4534 3.0075 13.4307 2.03022ZM16.9932 3.44526C16.4 2.85209 15.438 2.85201 14.8447 3.44526C14.3358 3.95428 14.0766 4.88357 14.2529 5.52241C14.3483 5.86691 14.417 6.28831 14.3789 6.72065C14.3403 7.15781 14.1848 7.66669 13.7754 8.07612L8.07618 13.7753C7.66675 14.1848 7.15787 14.3403 6.72071 14.3789C6.28837 14.417 5.86697 14.3483 5.52247 14.2529C4.88363 14.0766 3.95426 14.3358 3.44532 14.8447C2.85207 15.438 2.85216 16.4 3.44532 16.9931C4.03844 17.5857 4.99971 17.5858 5.59278 16.9931C5.98331 16.6026 6.61632 16.6026 7.00684 16.9931C7.39736 17.3836 7.39737 18.0167 7.00684 18.4072C6.41417 19.0002 6.4142 19.9616 7.00684 20.5546C7.60005 21.1478 8.56207 21.1478 9.15528 20.5546C9.6642 20.0457 9.92345 19.1163 9.74708 18.4775L9.68165 18.205C9.62412 17.9211 9.59252 17.6034 9.6211 17.2792C9.65967 16.8421 9.81518 16.3332 10.2246 15.9238L15.9238 10.2246C16.3333 9.81512 16.8421 9.65961 17.2793 9.62104C17.7117 9.58291 18.133 9.65163 18.4775 9.74702C19.1164 9.92375 20.0455 9.66431 20.5547 9.15522C21.1479 8.56201 21.1479 7.59999 20.5547 7.00678C19.9616 6.41414 19.0003 6.41412 18.4072 7.00678C18.0167 7.39731 17.3837 7.3973 16.9932 7.00678C16.6271 6.64069 16.6035 6.06167 16.9238 5.66889L16.9932 5.59272C17.5858 4.99965 17.5858 4.03838 16.9932 3.44526Z" fill="black"/>
</svg>
