<svg xmlns="http://www.w3.org/2000/svg" width="24" height="24" viewBox="0 0 24 24">
  <defs/>
  <path d="M14.241,2 L14.241,2 C15.046,2 15.711,2 16.252,2.044 C16.814,2.09 17.331,2.189 17.816,2.436 C18.569,2.819 19.181,3.431 19.564,4.184 C19.811,4.669 19.91,5.186 19.956,5.748 C20,6.289 20,6.954 20,7.759 L20,21 C20,21.357 19.81,21.686 19.502,21.865 C19.194,22.044 18.813,22.045 18.504,21.868 L12,18.152 L5.496,21.868 C5.187,22.045 4.806,22.044 4.498,21.865 C4.19,21.686 4,21.357 4,21 L4,7.759 C4,6.954 4,6.289 4.044,5.748 C4.09,5.186 4.189,4.669 4.436,4.184 C4.819,3.431 5.431,2.819 6.184,2.436 C6.669,2.189 7.186,2.09 7.748,2.044 C8.289,2 8.954,2 9.759,2 L14.241,2 Z M7.911,4.038 C7.473,4.073 7.248,4.138 7.092,4.218 C6.716,4.41 6.41,4.716 6.218,5.092 C6.138,5.248 6.073,5.473 6.038,5.911 C6.001,6.361 6,6.943 6,7.8 L6,19.277 L11.504,16.132 C11.811,15.956 12.189,15.956 12.496,16.132 L18,19.277 L18,7.8 C18,6.943 17.999,6.361 17.962,5.911 C17.927,5.473 17.862,5.248 17.782,5.092 C17.59,4.716 17.284,4.41 16.908,4.218 C16.752,4.138 16.527,4.073 16.089,4.038 C15.639,4.001 15.057,4 14.2,4 L9.8,4 C8.943,4 8.361,4.001 7.911,4.038 Z M8.793,6.793 C9.183,6.402 9.817,6.402 10.207,6.793 L12,8.586 L13.793,6.793 C14.183,6.402 14.817,6.402 15.207,6.793 C15.598,7.183 15.598,7.817 15.207,8.207 L13.414,10 L15.207,11.793 C15.598,12.183 15.598,12.817 15.207,13.207 C14.817,13.598 14.183,13.598 13.793,13.207 L12,11.414 L10.207,13.207 C9.817,13.598 9.183,13.598 8.793,13.207 C8.402,12.817 8.402,12.183 8.793,11.793 L10.586,10 L8.793,8.207 C8.402,7.817 8.402,7.183 8.793,6.793 Z"/>
</svg>
