<svg xmlns="http://www.w3.org/2000/svg" width="24" height="24" viewBox="0 0 24 24">
  <defs/>
  <path d="M14.241,2 L14.241,2 C15.046,2 15.711,2 16.252,2.044 C16.814,2.09 17.331,2.189 17.816,2.436 C18.569,2.819 19.181,3.431 19.564,4.184 C19.811,4.669 19.91,5.186 19.956,5.748 C20,6.289 20,6.954 20,7.759 L20,21 C20,21.357 19.81,21.686 19.502,21.865 C19.194,22.044 18.813,22.045 18.504,21.868 L12,18.152 L5.496,21.868 C5.187,22.045 4.806,22.044 4.498,21.865 C4.19,21.686 4,21.357 4,21 L4,7.759 C4,6.954 4,6.289 4.044,5.748 C4.09,5.186 4.189,4.669 4.436,4.184 C4.819,3.431 5.431,2.819 6.184,2.436 C6.669,2.189 7.186,2.09 7.748,2.044 C8.289,2 8.954,2 9.759,2 L14.241,2 Z M7.911,4.038 C7.473,4.073 7.248,4.138 7.092,4.218 C6.716,4.41 6.41,4.716 6.218,5.092 C6.138,5.248 6.073,5.473 6.038,5.911 C6.001,6.361 6,6.943 6,7.8 L6,19.277 L11.504,16.132 C11.811,15.956 12.189,15.956 12.496,16.132 L18,19.277 L18,7.8 C18,6.943 17.999,6.361 17.962,5.911 C17.927,5.473 17.862,5.248 17.782,5.092 C17.59,4.716 17.284,4.41 16.908,4.218 C16.752,4.138 16.527,4.073 16.089,4.038 C15.639,4.001 15.057,4 14.2,4 L9.8,4 C8.943,4 8.361,4.001 7.911,4.038 Z M16.207,7.293 C16.598,7.683 16.598,8.317 16.207,8.707 L11.707,13.207 C11.317,13.598 10.683,13.598 10.293,13.207 L8.293,11.207 C7.902,10.817 7.902,10.183 8.293,9.793 C8.683,9.402 9.317,9.402 9.707,9.793 L11,11.086 L14.793,7.293 C15.183,6.902 15.817,6.902 16.207,7.293 Z"/>
</svg>
