<svg xmlns="http://www.w3.org/2000/svg" width="24" height="24" viewBox="0 0 24 24">
  <defs/>
  <path d="M21,5.161 L21,19.008 C21,19.464 20.997,19.861 20.969,20.195 C20.937,20.59 20.866,20.984 20.673,21.362 C20.385,21.927 19.927,22.385 19.362,22.673 C18.984,22.866 18.59,22.937 18.195,22.969 C17.82,23 17.366,23 16.839,23 L8.759,23 C7.954,23 7.289,23 6.748,22.956 C6.186,22.91 5.669,22.811 5.184,22.564 C4.431,22.181 3.819,21.569 3.436,20.816 C3.197,20.348 3.097,19.85 3.049,19.311 C3.017,19.213 3,19.108 3,19 C3,18.89 3.004,18.781 3.013,18.673 C3,18.255 3,17.78 3,17.241 L3,6.759 C3,5.954 3,5.289 3.044,4.748 C3.09,4.186 3.189,3.669 3.436,3.184 C3.819,2.431 4.431,1.819 5.184,1.436 C5.669,1.189 6.186,1.09 6.748,1.044 C7.289,1 7.954,1 8.759,1 L16.839,1 C17.366,1 17.821,1 18.195,1.031 C18.59,1.063 18.984,1.134 19.362,1.327 C19.927,1.615 20.385,2.074 20.673,2.638 C20.866,3.016 20.937,3.41 20.969,3.805 C21,4.18 21,4.634 21,5.161 Z M18.032,3.024 C17.749,3.001 17.377,3 16.8,3 L8.8,3 C7.943,3 7.361,3.001 6.911,3.038 C6.473,3.073 6.248,3.138 6.092,3.218 C5.716,3.41 5.41,3.716 5.218,4.092 C5.138,4.248 5.073,4.473 5.038,4.911 C5.001,5.361 5,5.943 5,6.8 L5,15.535 C5.588,15.195 6.271,15 7,15 L19,15 L19,5.2 C19,4.623 18.999,4.251 18.976,3.968 C18.954,3.696 18.916,3.595 18.891,3.546 C18.795,3.358 18.642,3.205 18.454,3.109 C18.404,3.084 18.304,3.046 18.032,3.024 Z M5.017,18.74 C5.022,18.865 5.029,18.981 5.038,19.089 C5.073,19.527 5.138,19.752 5.218,19.908 C5.41,20.284 5.716,20.59 6.092,20.782 C6.248,20.862 6.473,20.927 6.911,20.962 C7.361,20.999 7.943,21 8.8,21 L16.8,21 C17.377,21 17.749,20.999 18.032,20.976 C18.304,20.954 18.404,20.916 18.454,20.891 C18.642,20.795 18.795,20.642 18.891,20.454 C18.916,20.404 18.954,20.304 18.976,20.032 C18.999,19.749 19,19.377 19,18.8 L19,17 L7,17 C5.984,17 5.144,17.758 5.017,18.74 Z"/>
</svg>
