<svg xmlns="http://www.w3.org/2000/svg" width="24" height="24" viewBox="0 0 24 24">
  <defs/>
  <path d="M5.161,2 L5.643,2 C6.727,2 7.601,2 8.309,2.058 C9.037,2.117 9.678,2.243 10.27,2.545 C10.953,2.893 11.544,3.392 12,4 C12.456,3.392 13.047,2.893 13.73,2.545 C14.322,2.243 14.962,2.117 15.691,2.058 C16.399,2 17.273,2 18.357,2 L18.838,2 C19.366,2 19.82,2 20.195,2.031 C20.59,2.063 20.984,2.134 21.362,2.327 C21.927,2.615 22.385,3.074 22.673,3.638 C22.866,4.016 22.937,4.41 22.969,4.805 C23,5.18 23,5.634 23,6.161 L23,14.839 C23,15.366 23,15.821 22.969,16.195 C22.937,16.59 22.866,16.984 22.673,17.362 C22.385,17.927 21.927,18.385 21.362,18.673 C20.984,18.866 20.59,18.937 20.195,18.969 C19.82,19 19.366,19 18.839,19 L17.425,19 C16.111,19 15.662,19.01 15.269,19.129 C14.892,19.244 14.54,19.432 14.236,19.682 C13.919,19.943 13.661,20.311 12.932,21.405 L12.832,21.555 C12.647,21.833 12.334,22 12,22 C11.666,22 11.353,21.833 11.168,21.555 L11.068,21.405 C10.339,20.311 10.081,19.943 9.764,19.682 C9.459,19.432 9.108,19.244 8.731,19.129 C8.338,19.01 7.889,19 6.575,19 L5.161,19 C4.634,19 4.18,19 3.805,18.969 C3.41,18.937 3.016,18.866 2.638,18.673 C2.074,18.385 1.615,17.927 1.327,17.362 C1.134,16.984 1.063,16.59 1.031,16.195 C1,15.821 1,15.366 1,14.839 L1,6.161 C1,5.634 1,5.18 1.031,4.805 C1.063,4.41 1.134,4.016 1.327,3.638 C1.615,3.074 2.074,2.615 2.638,2.327 C3.016,2.134 3.41,2.063 3.805,2.031 C4.18,2 4.634,2 5.161,2 Z M13,18.11 C13.5,17.706 14.073,17.403 14.688,17.216 C15.401,16.999 16.168,17 17.277,17 L18.8,17 C19.377,17 19.749,16.999 20.032,16.976 C20.304,16.954 20.405,16.916 20.454,16.891 C20.642,16.795 20.795,16.642 20.891,16.454 C20.916,16.404 20.954,16.304 20.976,16.032 C20.999,15.749 21,15.377 21,14.8 L21,6.2 C21,5.623 20.999,5.251 20.976,4.968 C20.954,4.696 20.916,4.595 20.891,4.546 C20.795,4.358 20.642,4.205 20.454,4.109 C20.405,4.084 20.304,4.046 20.032,4.024 C19.749,4.001 19.377,4 18.8,4 L18.4,4 C17.263,4 16.471,4.001 15.854,4.051 C15.249,4.101 14.901,4.193 14.638,4.327 C14.073,4.615 13.615,5.074 13.327,5.638 C13.193,5.901 13.101,6.249 13.051,6.854 C13.001,7.471 13,8.263 13,9.4 Z M11,9.4 C11,8.263 10.999,7.471 10.949,6.854 C10.899,6.249 10.807,5.901 10.673,5.638 C10.385,5.074 9.926,4.615 9.362,4.327 C9.099,4.193 8.751,4.101 8.146,4.051 C7.529,4.001 6.737,4 5.6,4 L5.2,4 C4.623,4 4.251,4.001 3.968,4.024 C3.696,4.046 3.595,4.084 3.546,4.109 C3.358,4.205 3.205,4.358 3.109,4.546 C3.084,4.595 3.046,4.696 3.024,4.968 C3.001,5.251 3,5.623 3,6.2 L3,14.8 C3,15.377 3.001,15.749 3.024,16.032 C3.046,16.304 3.084,16.404 3.109,16.454 C3.205,16.642 3.358,16.795 3.546,16.891 C3.595,16.916 3.696,16.954 3.968,16.976 C4.251,16.999 4.623,17 5.2,17 L6.723,17 C7.832,17 8.599,16.999 9.312,17.216 C9.927,17.403 10.5,17.706 11,18.11 Z"/>
</svg>
