<svg xmlns="http://www.w3.org/2000/svg" width="24" height="24" viewBox="0 0 24 24">
  <defs/>
  <path d="M2.5,8.929 L21.5,8.929 L21.5,16.241 C21.5,17.046 21.5,17.711 21.456,18.252 C21.41,18.814 21.311,19.331 21.064,19.816 C20.681,20.569 20.069,21.181 19.316,21.564 C18.831,21.811 18.314,21.91 17.752,21.956 C17.211,22 16.546,22 15.741,22 L8.259,22 C7.454,22 6.789,22 6.248,21.956 C5.686,21.91 5.169,21.811 4.684,21.564 C3.931,21.181 3.319,20.569 2.936,19.816 C2.689,19.331 2.59,18.814 2.544,18.252 C2.5,17.711 2.5,17.046 2.5,16.241 L2.5,16.241 L2.5,8.929 C2.368,8.898 2.23,8.852 2.092,8.782 C1.716,8.59 1.41,8.284 1.218,7.908 Z M4.5,9 L4.5,16.2 C4.5,17.057 4.501,17.639 4.538,18.089 C4.573,18.527 4.638,18.752 4.718,18.908 C4.91,19.284 5.216,19.59 5.592,19.782 C5.748,19.862 5.973,19.927 6.411,19.962 C6.861,19.999 7.443,20 8.3,20 L15.7,20 C16.557,20 17.139,19.999 17.589,19.962 C18.027,19.927 18.252,19.862 18.408,19.782 C18.784,19.59 19.09,19.284 19.282,18.908 C19.362,18.752 19.427,18.527 19.462,18.089 C19.499,17.639 19.5,17.057 19.5,16.2 L19.5,9 Z M9.6,10.5 L14.436,10.5 C14.687,10.5 14.931,10.5 15.138,10.517 C15.367,10.536 15.637,10.58 15.908,10.718 C16.284,10.91 16.59,11.216 16.782,11.592 C16.92,11.863 16.964,12.133 16.983,12.362 C17,12.569 17,12.813 17,13.064 L17,13.936 C17,14.187 17,14.431 16.983,14.638 C16.964,14.867 16.92,15.137 16.782,15.408 C16.59,15.784 16.284,16.09 15.908,16.282 C15.637,16.42 15.367,16.464 15.138,16.483 C14.931,16.5 14.687,16.5 14.436,16.5 L9.564,16.5 C9.313,16.5 9.069,16.5 8.862,16.483 C8.633,16.464 8.363,16.42 8.092,16.282 C7.716,16.09 7.41,15.784 7.218,15.408 C7.08,15.137 7.036,14.867 7.017,14.638 C7,14.43 7,14.184 7,13.932 L7,13.068 C7,12.816 7,12.57 7.017,12.362 C7.036,12.133 7.08,11.863 7.218,11.592 C7.41,11.216 7.716,10.91 8.092,10.718 C8.363,10.58 8.633,10.536 8.862,10.517 C9.069,10.5 9.313,10.5 9.564,10.5 L9.6,10.5 Z M3.011,4.011 C3.016,4.011 3.02,4.011 3.025,4.01 C3.141,4.001 3.303,4 3.6,4 L20.4,4 C20.697,4 20.859,4.001 20.975,4.01 C20.98,4.011 20.984,4.011 20.989,4.011 C20.989,4.016 20.989,4.02 20.99,4.025 C20.999,4.141 21,4.303 21,4.6 L21,6.4 C21,6.697 20.999,6.859 20.99,6.975 C20.989,6.98 20.989,6.984 20.989,6.989 C20.984,6.989 20.98,6.989 20.975,6.99 C20.859,6.999 20.697,7 20.4,7 L3.6,7 C3.303,7 3.141,6.999 3.025,6.99 C3.02,6.989 3.016,6.989 3.011,6.989 C3.011,6.984 3.011,6.98 3.01,6.975 C3.001,6.859 3,6.697 3,6.4 L3,4.6 C3,4.303 3.001,4.141 3.01,4.025 C3.011,4.02 3.011,4.016 3.011,4.011 Z M9.011,12.512 C9.011,12.516 9.011,12.52 9.01,12.525 C9.001,12.641 9,12.804 9,13.1 L9,13.9 C9,14.196 9.001,14.359 9.01,14.475 C9.011,14.48 9.011,14.484 9.011,14.489 C9.016,14.489 9.02,14.489 9.025,14.49 C9.141,14.499 9.303,14.5 9.6,14.5 L14.4,14.5 C14.696,14.5 14.859,14.499 14.975,14.49 C14.98,14.489 14.984,14.489 14.989,14.489 C14.989,14.484 14.989,14.48 14.99,14.475 C14.999,14.359 15,14.196 15,13.9 L15,13.1 C15,12.804 14.999,12.641 14.99,12.525 C14.989,12.52 14.989,12.516 14.989,12.512 C14.984,12.511 14.98,12.511 14.975,12.51 C14.859,12.501 14.696,12.5 14.4,12.5 L9.6,12.5 C9.303,12.5 9.141,12.501 9.025,12.51 C9.02,12.511 9.016,12.511 9.011,12.512 Z M3.568,2 L20.432,2 L20.432,2 C20.684,2 20.93,2 21.138,2.017 C21.367,2.036 21.637,2.08 21.908,2.218 C22.284,2.41 22.59,2.716 22.782,3.092 Z M2.092,2.218 L1.218,3.092 C1.41,2.716 1.716,2.41 2.092,2.218 Z M1.218,3.092 L1.017,3.862 C1.036,3.633 1.08,3.363 1.218,3.092 Z M2.862,2.017 L2.092,2.218 C2.363,2.08 2.633,2.036 2.862,2.017 Z M1.017,7.138 L1.218,7.908 C1.08,7.637 1.036,7.367 1.017,7.138 Z M1.017,3.862 L1,4.568 C1,4.316 1,4.07 1.017,3.862 Z M1.017,7.138 C1,6.93 1,6.684 1,6.432 L1.017,7.138 Z"/>
</svg>
