<svg xmlns="http://www.w3.org/2000/svg" width="24" height="24" viewBox="0 0 24 24">
  <defs/>
  <path d="M2.143,6.286 C2.143,4.471 3.614,3 5.429,3 C5.981,3 6.429,3.448 6.429,4 C6.429,4.552 5.981,5 5.429,5 C4.718,5 4.143,5.575 4.143,6.286 L4.143,10.857 C4.143,11.122 4.038,11.377 3.85,11.564 L3.414,12 L3.85,12.436 C4.038,12.623 4.143,12.878 4.143,13.143 L4.143,17.714 C4.143,18.425 4.718,19 5.429,19 C5.981,19 6.429,19.448 6.429,20 C6.429,20.552 5.981,21 5.429,21 C3.614,21 2.143,19.529 2.143,17.714 L2.143,13.557 L1.293,12.707 C1.105,12.52 1,12.265 1,12 C1,11.735 1.105,11.48 1.293,11.293 L2.143,10.443 Z M17.571,4 C17.571,3.448 18.018,3 18.571,3 C20.386,3 21.857,4.471 21.857,6.286 L21.857,10.443 L22.707,11.293 C23.097,11.683 23.097,12.317 22.707,12.707 L21.857,13.557 L21.857,17.714 C21.857,19.53 20.385,21 18.571,21 C18.018,21 17.571,20.552 17.571,20 C17.571,19.448 18.018,19 18.571,19 C19.281,19 19.857,18.424 19.857,17.714 L19.857,13.143 C19.857,12.878 19.962,12.623 20.15,12.436 L20.586,12 L20.15,11.564 C19.962,11.377 19.857,11.122 19.857,10.857 L19.857,6.286 C19.857,5.575 19.281,5 18.571,5 C18.018,5 17.571,4.552 17.571,4 Z"/>
</svg>
