<svg xmlns="http://www.w3.org/2000/svg" width="24" height="24" viewBox="0 0 24 24">
  <defs/>
  <path d="M11.862,2 C11.908,2 11.953,2 12,2 C12.047,2 12.092,2 12.138,2 C12.933,2 13.524,1.999 14.035,2.136 C15.416,2.506 16.494,3.584 16.864,4.965 C16.946,5.272 16.979,5.608 16.992,6 L18.839,6 C19.366,6 19.821,6 20.195,6.031 C20.59,6.063 20.984,6.134 21.362,6.327 C21.927,6.615 22.385,7.074 22.673,7.638 C22.866,8.017 22.937,8.41 22.969,8.805 C23,9.18 23,9.634 23,10.161 L23,17.839 C23,18.366 23,18.821 22.969,19.195 C22.937,19.59 22.866,19.984 22.673,20.362 C22.385,20.927 21.927,21.385 21.362,21.673 C20.984,21.866 20.59,21.937 20.195,21.969 C19.82,22 19.366,22 18.839,22 L5.161,22 C4.634,22 4.18,22 3.805,21.969 C3.41,21.937 3.016,21.866 2.638,21.673 C2.074,21.385 1.615,20.927 1.327,20.362 C1.134,19.984 1.063,19.59 1.031,19.195 C1,18.821 1,18.366 1,17.839 L1,10.162 C1,9.634 1,9.18 1.031,8.805 C1.063,8.41 1.134,8.017 1.327,7.638 C1.615,7.074 2.074,6.615 2.638,6.327 C3.016,6.134 3.41,6.063 3.805,6.031 C4.18,6 4.634,6 5.161,6 L7.008,6 C7.021,5.608 7.054,5.272 7.136,4.965 C7.506,3.584 8.584,2.506 9.965,2.136 C10.476,1.999 11.067,2 11.862,2 Z M9,20 L15,20 L15,8 L9,8 Z M17,20 L18.8,20 C19.377,20 19.749,19.999 20.032,19.976 C20.304,19.954 20.404,19.916 20.454,19.891 C20.642,19.795 20.795,19.642 20.891,19.454 C20.916,19.405 20.954,19.304 20.976,19.032 C20.999,18.749 21,18.377 21,17.8 L21,10.2 C21,9.624 20.999,9.251 20.976,8.968 C20.954,8.696 20.916,8.596 20.891,8.546 C20.795,8.358 20.642,8.205 20.454,8.109 C20.404,8.084 20.304,8.046 20.032,8.024 C19.749,8.001 19.377,8 18.8,8 L17,8 Z M7,8 L5.2,8 C4.623,8 4.251,8.001 3.968,8.024 C3.696,8.046 3.595,8.084 3.546,8.109 C3.358,8.205 3.205,8.358 3.109,8.546 C3.084,8.596 3.046,8.696 3.024,8.968 C3.001,9.251 3,9.624 3,10.2 L3,17.8 C3,18.377 3.001,18.749 3.024,19.032 C3.046,19.304 3.084,19.405 3.109,19.454 C3.205,19.642 3.358,19.795 3.546,19.891 C3.595,19.916 3.696,19.954 3.968,19.976 C4.251,19.999 4.623,20 5.2,20 L7,20 Z M14.99,6 C14.981,5.743 14.964,5.601 14.932,5.482 C14.747,4.792 14.208,4.253 13.518,4.068 C13.295,4.009 12.994,4 12,4 C11.006,4 10.705,4.009 10.482,4.068 C9.792,4.253 9.253,4.792 9.068,5.482 C9.036,5.601 9.019,5.743 9.01,6 Z"/>
</svg>
