<svg xmlns="http://www.w3.org/2000/svg" width="24" height="24" viewBox="0 0 24 24">
  <defs/>
  <path d="M7.568,1 L16.432,1 L16.432,1 C16.684,1 16.93,1 17.138,1.017 C17.367,1.036 17.637,1.08 17.908,1.218 C18.284,1.41 18.59,1.716 18.782,2.092 C18.92,2.363 18.964,2.633 18.983,2.862 C19,3.069 19,3.313 19,3.564 L19,10.241 C19,11.046 19,11.711 18.956,12.252 C18.91,12.814 18.811,13.331 18.564,13.816 C18.181,14.569 17.569,15.181 16.816,15.564 C16.403,15.774 15.967,15.877 15.5,15.932 L15.5,19.5 C15.5,21.433 13.933,23 12,23 C10.067,23 8.5,21.433 8.5,19.5 L8.5,15.932 C8.033,15.877 7.597,15.774 7.184,15.564 C6.431,15.181 5.819,14.569 5.436,13.816 C5.189,13.331 5.09,12.814 5.044,12.252 C5,11.711 5,11.046 5,10.241 L5,10.241 L5,3.6 L5,3.568 L5,3.568 C5,3.316 5,3.07 5.017,2.862 C5.036,2.633 5.08,2.363 5.218,2.092 C5.41,1.716 5.716,1.41 6.092,1.218 C6.363,1.08 6.633,1.036 6.862,1.017 C7.07,1 7.316,1 7.568,1 Z M7.011,3.011 C7.011,3.016 7.011,3.02 7.01,3.025 C7.001,3.141 7,3.303 7,3.6 L7,9 L17,9 L17,3.6 C17,3.303 16.999,3.141 16.99,3.025 C16.989,3.02 16.989,3.016 16.989,3.011 C16.984,3.011 16.98,3.011 16.975,3.01 C16.859,3.001 16.697,3 16.4,3 L7.6,3 C7.303,3 7.141,3.001 7.025,3.01 C7.02,3.011 7.016,3.011 7.011,3.011 Z M16.998,11 L7.002,11 C7.005,11.446 7.014,11.795 7.038,12.089 C7.073,12.527 7.138,12.752 7.218,12.908 C7.41,13.284 7.716,13.59 8.092,13.782 C8.248,13.862 8.473,13.927 8.911,13.962 C9.361,13.999 9.943,14 10.8,14 L13.2,14 C14.057,14 14.639,13.999 15.089,13.962 C15.527,13.927 15.752,13.862 15.908,13.782 C16.284,13.59 16.59,13.284 16.782,12.908 C16.862,12.752 16.927,12.527 16.962,12.089 C16.986,11.795 16.995,11.446 16.998,11 Z M10.5,16 L10.5,19.5 C10.5,20.328 11.172,21 12,21 C12.828,21 13.5,20.328 13.5,19.5 L13.5,16 Z"/>
</svg>
