<svg xmlns="http://www.w3.org/2000/svg" width="24" height="24" viewBox="0 0 24 24">
  <defs/>
  <path d="M5.011,3.011 C5.016,3.011 5.02,3.011 5.025,3.01 C5.141,3.001 5.303,3 5.6,3 L18.4,3 C18.697,3 18.859,3.001 18.975,3.01 C18.98,3.011 18.984,3.011 18.989,3.011 C18.989,3.016 18.989,3.02 18.99,3.025 C18.999,3.141 19,3.303 19,3.6 L19,9 L5,9 L5,3.6 C5,3.303 5.001,3.141 5.01,3.025 C5.011,3.02 5.011,3.016 5.011,3.011 Z M13.5,16 L15.5,16 L15.5,19.5 C15.5,21.433 13.933,23 12,23 C10.067,23 8.5,21.433 8.5,19.5 L8.5,16 L10.5,16 L10.5,19.5 C10.5,20.328 11.172,21 12,21 C12.828,21 13.5,20.328 13.5,19.5 Z M4.862,1.017 L4.092,1.218 C4.363,1.08 4.633,1.036 4.862,1.017 Z M4.862,1.017 C5.07,1 5.316,1 5.568,1 L4.862,1.017 Z"/>
</svg>
