<svg xmlns="http://www.w3.org/2000/svg" width="24" height="24" viewBox="0 0 24 24">
  <defs/>
  <path d="M17.264,2.208 C18.527,1.038 20.49,1.076 21.707,2.293 C22.925,3.511 22.962,5.473 21.792,6.736 L13.518,15.673 C13.514,15.677 13.51,15.681 13.506,15.685 L12.655,16.604 C12.627,16.635 12.598,16.666 12.57,16.697 C12.184,17.114 11.852,17.474 11.47,17.699 C11.012,17.97 10.499,18.109 9.984,18.116 C10.092,19.392 9.658,20.706 8.682,21.682 C7.742,22.622 6.449,22.906 5.304,22.997 C4.529,23.059 3.668,23.036 2.917,23.017 L2.915,23.017 C2.583,23.008 2.272,23 2,23 C1.652,23 1.328,22.819 1.147,22.522 C0.965,22.224 0.951,21.854 1.11,21.544 C1.467,20.848 1.434,20.027 1.389,18.916 L1.385,18.815 L1.384,18.789 L1.384,18.789 C1.345,17.8 1.287,16.349 2.318,15.318 C3.294,14.342 4.608,13.908 5.884,14.017 C5.891,13.502 6.03,12.988 6.301,12.53 C6.526,12.148 6.886,11.816 7.304,11.43 C7.334,11.402 7.365,11.373 7.396,11.345 Z M12.75,13.558 L20.325,5.377 C20.765,4.902 20.75,4.165 20.293,3.707 C19.835,3.25 19.098,3.235 18.623,3.675 L10.442,11.25 Z M7.268,16.732 C6.291,15.756 4.709,15.756 3.732,16.732 C3.405,17.059 3.338,17.579 3.384,18.736 C3.387,18.811 3.39,18.89 3.394,18.971 C3.42,19.561 3.453,20.284 3.338,21.026 C3.95,21.042 4.545,21.051 5.145,21.003 C6.147,20.924 6.841,20.695 7.268,20.268 C8.244,19.292 8.244,17.709 7.268,16.732 Z M8.973,12.61 L8.755,12.812 C8.192,13.334 8.078,13.453 8.023,13.547 C7.844,13.849 7.837,14.222 8.004,14.531 C8.056,14.627 8.164,14.75 8.707,15.293 C9.25,15.836 9.373,15.944 9.469,15.996 C9.778,16.163 10.151,16.156 10.453,15.977 C10.547,15.922 10.666,15.809 11.188,15.245 L11.39,15.027 Z"/>
</svg>
