<svg xmlns="http://www.w3.org/2000/svg" width="24" height="24" viewBox="0 0 24 24">
  <defs/>
  <path d="M6.161,2 L9.839,2 C10.366,2 10.821,2 11.195,2.031 C11.59,2.063 11.984,2.134 12.362,2.327 C12.927,2.615 13.385,3.074 13.673,3.638 C13.866,4.016 13.937,4.41 13.969,4.805 C14,5.18 14,5.634 14,6.161 L14,10 L17.838,10 C18.366,10 18.82,10 19.195,10.031 C19.59,10.063 19.984,10.134 20.362,10.327 C20.927,10.615 21.385,11.073 21.673,11.638 C21.866,12.016 21.937,12.41 21.969,12.805 C22,13.179 22,13.634 22,14.161 L22,20 C22.552,20 23,20.448 23,21 C23,21.552 22.552,22 22,22 L2,22 C1.448,22 1,21.552 1,21 C1,20.448 1.448,20 2,20 L2,6.161 C2,5.634 2,5.18 2.031,4.805 C2.063,4.41 2.134,4.016 2.327,3.638 C2.615,3.074 3.074,2.615 3.638,2.327 C4.016,2.134 4.41,2.063 4.805,2.031 C5.18,2 5.634,2 6.161,2 Z M4,20 L12,20 L12,6.2 C12,5.623 11.999,5.251 11.976,4.968 C11.954,4.696 11.916,4.595 11.891,4.546 C11.795,4.358 11.642,4.205 11.454,4.109 C11.405,4.084 11.304,4.046 11.032,4.024 C10.749,4.001 10.377,4 9.8,4 L6.2,4 C5.623,4 5.251,4.001 4.968,4.024 C4.696,4.046 4.595,4.084 4.546,4.109 C4.358,4.205 4.205,4.358 4.109,4.546 C4.084,4.595 4.046,4.696 4.024,4.968 C4.001,5.251 4,5.623 4,6.2 Z M14,12 L14,20 L20,20 L20,14.2 C20,13.623 19.999,13.251 19.976,12.968 C19.954,12.696 19.916,12.595 19.891,12.546 C19.795,12.358 19.642,12.205 19.454,12.109 C19.404,12.084 19.304,12.046 19.032,12.024 C18.749,12.001 18.377,12 17.8,12 Z M5.5,11 C5.5,10.448 5.948,10 6.5,10 L9.5,10 C10.052,10 10.5,10.448 10.5,11 C10.5,11.552 10.052,12 9.5,12 L6.5,12 C5.948,12 5.5,11.552 5.5,11 Z M5.5,15 C5.5,14.448 5.948,14 6.5,14 L9.5,14 C10.052,14 10.5,14.448 10.5,15 C10.5,15.552 10.052,16 9.5,16 L6.5,16 C5.948,16 5.5,15.552 5.5,15 Z M5.5,7 C5.5,6.448 5.948,6 6.5,6 L9.5,6 C10.052,6 10.5,6.448 10.5,7 C10.5,7.552 10.052,8 9.5,8 L6.5,8 C5.948,8 5.5,7.552 5.5,7 Z"/>
</svg>
