<svg xmlns="http://www.w3.org/2000/svg" width="24" height="24" viewBox="0 0 24 24">
  <defs/>
  <path d="M11.668,1.127 C11.886,1.077 12.114,1.077 12.332,1.127 C12.592,1.186 12.816,1.329 12.924,1.398 C12.935,1.405 12.945,1.412 12.954,1.417 L20.53,6.152 C20.908,6.388 21.084,6.847 20.961,7.276 C20.838,7.704 20.446,8 20,8 L4,8 C3.554,8 3.162,7.704 3.039,7.276 C2.916,6.847 3.092,6.388 3.47,6.152 L11.046,1.417 C11.055,1.412 11.065,1.405 11.076,1.398 C11.184,1.329 11.408,1.186 11.668,1.127 Z M2,21 C2,20.448 2.448,20 3,20 L21,20 C21.552,20 22,20.448 22,21 C22,21.552 21.552,22 21,22 L3,22 C2.448,22 2,21.552 2,21 Z M14,9 C14.552,9 15,9.448 15,10 L15,18 C15,18.552 14.552,19 14,19 C13.448,19 13,18.552 13,18 L13,10 C13,9.448 13.448,9 14,9 Z M18,9 C18.552,9 19,9.448 19,10 L19,18 C19,18.552 18.552,19 18,19 C17.448,19 17,18.552 17,18 L17,10 C17,9.448 17.448,9 18,9 Z M10,9 C10.552,9 11,9.448 11,10 L11,18 C11,18.552 10.552,19 10,19 C9.448,19 9,18.552 9,18 L9,10 C9,9.448 9.448,9 10,9 Z M6,9 C6.552,9 7,9.448 7,10 L7,18 C7,18.552 6.552,19 6,19 C5.448,19 5,18.552 5,18 L5,10 C5,9.448 5.448,9 6,9 Z M12,3.179 L7.487,6 L16.513,6 Z"/>
</svg>
