<svg xmlns="http://www.w3.org/2000/svg" width="24" height="24" viewBox="0 0 24 24">
  <defs/>
  <path d="M8.161,2 L15.839,2 C16.366,2 16.82,2 17.195,2.031 C17.59,2.063 17.984,2.134 18.362,2.327 C18.927,2.615 19.385,3.074 19.673,3.638 C19.866,4.016 19.937,4.41 19.969,4.805 C20,5.18 20,5.634 20,6.161 L20,20 L21,20 C21.552,20 22,20.448 22,21 C22,21.552 21.552,22 21,22 L3,22 C2.448,22 2,21.552 2,21 C2,20.448 2.448,20 3,20 L4,20 L4,6.161 C4,5.634 4,5.18 4.031,4.805 C4.063,4.41 4.134,4.016 4.327,3.638 C4.615,3.074 5.074,2.615 5.638,2.327 C6.016,2.134 6.41,2.063 6.805,2.031 C7.18,2 7.634,2 8.161,2 Z M6,20 L8,20 L8,15.568 C8,15.316 8,15.07 8.017,14.862 C8.036,14.633 8.08,14.363 8.218,14.092 C8.41,13.716 8.716,13.41 9.092,13.218 C9.363,13.08 9.633,13.036 9.862,13.017 C10.069,13 10.313,13 10.564,13 L13.436,13 C13.687,13 13.931,13 14.138,13.017 C14.367,13.036 14.637,13.08 14.908,13.218 C15.284,13.41 15.59,13.716 15.782,14.092 C15.92,14.363 15.964,14.633 15.983,14.862 C16,15.069 16,15.313 16,15.564 L16,20 L18,20 L18,6.2 C18,5.623 17.999,5.251 17.976,4.968 C17.954,4.696 17.916,4.595 17.891,4.546 C17.795,4.358 17.642,4.205 17.454,4.109 C17.404,4.084 17.304,4.046 17.032,4.024 C16.749,4.001 16.377,4 15.8,4 L8.2,4 C7.623,4 7.251,4.001 6.968,4.024 C6.696,4.046 6.595,4.084 6.546,4.109 C6.358,4.205 6.205,4.358 6.109,4.546 C6.084,4.595 6.046,4.696 6.024,4.968 C6.001,5.251 6,5.623 6,6.2 Z M14,20 L14,15.6 C14,15.304 13.999,15.141 13.99,15.025 C13.989,15.02 13.989,15.016 13.989,15.012 C13.984,15.011 13.98,15.011 13.975,15.01 C13.859,15.001 13.696,15 13.4,15 L10.6,15 C10.304,15 10.141,15.001 10.025,15.01 C10.02,15.011 10.016,15.011 10.011,15.012 C10.011,15.016 10.011,15.02 10.01,15.025 C10.001,15.141 10,15.304 10,15.6 L10,20 Z M8,8 C8,7.172 8.672,6.5 9.5,6.5 C10.328,6.5 11,7.172 11,8 C11,8.828 10.328,9.5 9.5,9.5 C8.672,9.5 8,8.828 8,8 Z M13,8 C13,7.172 13.672,6.5 14.5,6.5 C15.328,6.5 16,7.172 16,8 C16,8.828 15.328,9.5 14.5,9.5 C13.672,9.5 13,8.828 13,8 Z"/>
</svg>
