<svg xmlns="http://www.w3.org/2000/svg" width="24" height="24" viewBox="0 0 24 24">
  <defs/>
  <path d="M10.661,2 L13.339,2 C13.866,2 14.321,2 14.695,2.031 C15.09,2.063 15.484,2.134 15.862,2.327 C16.427,2.615 16.885,3.074 17.173,3.638 C17.366,4.016 17.437,4.41 17.469,4.805 C17.5,5.18 17.5,5.634 17.5,6.161 L17.5,10 L19.432,10 C19.684,10 19.93,10 20.138,10.017 C20.367,10.036 20.637,10.08 20.908,10.218 C21.284,10.41 21.59,10.716 21.782,11.092 C21.92,11.363 21.964,11.633 21.983,11.862 C22,12.069 22,12.313 22,12.564 L22,20 C22.552,20 23,20.448 23,21 C23,21.552 22.552,22 22,22 L2,22 C1.448,22 1,21.552 1,21 C1,20.448 1.448,20 2,20 L2,12.568 C2,12.316 2,12.07 2.017,11.862 C2.036,11.633 2.08,11.363 2.218,11.092 C2.41,10.716 2.716,10.41 3.092,10.218 C3.363,10.08 3.633,10.036 3.862,10.017 C4.07,10 4.316,10 4.568,10 L6.5,10 L6.5,6.161 C6.5,5.634 6.5,5.18 6.531,4.805 C6.563,4.41 6.634,4.016 6.827,3.638 C7.115,3.074 7.574,2.615 8.138,2.327 C8.516,2.134 8.91,2.063 9.305,2.031 C9.68,2 10.134,2 10.661,2 Z M8.5,20 L15.5,20 L15.5,6.2 C15.5,5.623 15.499,5.251 15.476,4.968 C15.454,4.696 15.416,4.595 15.391,4.546 C15.295,4.358 15.142,4.205 14.954,4.109 C14.905,4.084 14.804,4.046 14.532,4.024 C14.249,4.001 13.877,4 13.3,4 L10.7,4 C10.123,4 9.751,4.001 9.468,4.024 C9.196,4.046 9.095,4.084 9.046,4.109 C8.858,4.205 8.705,4.358 8.609,4.546 C8.584,4.595 8.546,4.696 8.524,4.968 C8.501,5.251 8.5,5.623 8.5,6.2 Z M6.5,12 L4.6,12 C4.303,12 4.141,12.001 4.025,12.01 C4.02,12.011 4.016,12.011 4.011,12.012 C4.011,12.016 4.011,12.02 4.01,12.025 C4.001,12.141 4,12.304 4,12.6 L4,20 L6.5,20 Z M17.5,20 L20,20 L20,12.6 C20,12.304 19.999,12.141 19.99,12.025 C19.989,12.02 19.989,12.016 19.989,12.011 C19.984,12.011 19.98,12.011 19.975,12.01 C19.859,12.001 19.697,12 19.4,12 L17.5,12 Z M10,11 C10,10.448 10.448,10 11,10 L13,10 C13.552,10 14,10.448 14,11 C14,11.552 13.552,12 13,12 L11,12 C10.448,12 10,11.552 10,11 Z M10,15 C10,14.448 10.448,14 11,14 L13,14 C13.552,14 14,14.448 14,15 C14,15.552 13.552,16 13,16 L11,16 C10.448,16 10,15.552 10,15 Z M10,7 C10,6.448 10.448,6 11,6 L13,6 C13.552,6 14,6.448 14,7 C14,7.552 13.552,8 13,8 L11,8 C10.448,8 10,7.552 10,7 Z"/>
</svg>
