<svg xmlns="http://www.w3.org/2000/svg" width="24" height="24" viewBox="0 0 24 24">
  <defs/>
  <path d="M6.161,2 L17.838,2 C18.366,2 18.82,2 19.195,2.031 C19.59,2.063 19.984,2.134 20.362,2.327 C20.927,2.615 21.385,3.074 21.673,3.638 C21.866,4.016 21.937,4.41 21.969,4.805 C22,5.18 22,5.634 22,6.161 L22,17.839 C22,18.366 22,18.82 21.969,19.195 C21.937,19.59 21.866,19.984 21.673,20.362 C21.385,20.927 20.927,21.385 20.362,21.673 C19.984,21.866 19.59,21.937 19.195,21.969 C18.82,22 18.366,22 17.839,22 L6.161,22 C5.634,22 5.18,22 4.805,21.969 C4.41,21.937 4.016,21.866 3.638,21.673 C3.074,21.385 2.615,20.927 2.327,20.362 C2.134,19.984 2.063,19.59 2.031,19.195 C2,18.82 2,18.366 2,17.838 L2,6.161 C2,5.634 2,5.18 2.031,4.805 C2.063,4.41 2.134,4.016 2.327,3.638 C2.615,3.074 3.074,2.615 3.638,2.327 C4.016,2.134 4.41,2.063 4.805,2.031 C5.18,2 5.634,2 6.161,2 Z M4,10.465 L4,17.8 C4,18.377 4.001,18.749 4.024,19.032 C4.046,19.304 4.084,19.404 4.109,19.454 C4.205,19.642 4.358,19.795 4.546,19.891 C4.595,19.916 4.696,19.954 4.968,19.976 C5.251,19.999 5.623,20 6.2,20 L8,20 L8,15.568 C8,15.316 8,15.07 8.017,14.862 C8.036,14.633 8.08,14.363 8.218,14.092 C8.41,13.716 8.716,13.41 9.092,13.218 C9.363,13.08 9.633,13.036 9.862,13.017 C10.069,13 10.313,13 10.564,13 L13.436,13 C13.687,13 13.931,13 14.138,13.017 C14.367,13.036 14.637,13.08 14.908,13.218 C15.284,13.41 15.59,13.716 15.782,14.092 C15.92,14.363 15.964,14.633 15.983,14.862 C16,15.069 16,15.313 16,15.564 L16,20 L17.8,20 C18.377,20 18.749,19.999 19.032,19.976 C19.304,19.954 19.404,19.916 19.454,19.891 C19.642,19.795 19.795,19.642 19.891,19.454 C19.916,19.404 19.954,19.304 19.976,19.032 C19.999,18.749 20,18.377 20,17.8 L20,10.465 C19.412,10.805 18.729,11 18,11 C16.805,11 15.733,10.476 15,9.646 C14.267,10.476 13.195,11 12,11 C10.805,11 9.733,10.476 9,9.646 C8.267,10.476 7.195,11 6,11 C5.271,11 4.588,10.805 4,10.465 Z M10,7 C10,8.105 10.895,9 12,9 C13.105,9 14,8.105 14,7 C14,6.448 14.448,6 15,6 C15.552,6 16,6.448 16,7 C16,8.105 16.895,9 18,9 C19.105,9 20,8.105 20,7 L20,6.2 C20,5.623 19.999,5.251 19.976,4.968 C19.954,4.696 19.916,4.595 19.891,4.546 C19.795,4.358 19.642,4.205 19.454,4.109 C19.404,4.084 19.304,4.046 19.032,4.024 C18.749,4.001 18.377,4 17.8,4 L6.2,4 C5.623,4 5.251,4.001 4.968,4.024 C4.696,4.046 4.595,4.084 4.546,4.109 C4.358,4.205 4.205,4.358 4.109,4.546 C4.084,4.595 4.046,4.696 4.024,4.968 C4.001,5.251 4,5.623 4,6.2 L4,7 C4,8.105 4.895,9 6,9 C7.105,9 8,8.105 8,7 C8,6.448 8.448,6 9,6 C9.552,6 10,6.448 10,7 Z M14,20 L14,15.6 C14,15.304 13.999,15.141 13.99,15.025 C13.989,15.02 13.989,15.016 13.989,15.012 C13.984,15.011 13.98,15.011 13.975,15.01 C13.859,15.001 13.696,15 13.4,15 L10.6,15 C10.304,15 10.141,15.001 10.025,15.01 C10.02,15.011 10.016,15.011 10.011,15.012 C10.011,15.016 10.011,15.02 10.01,15.025 C10.001,15.141 10,15.304 10,15.6 L10,20 Z"/>
</svg>
