<svg xmlns="http://www.w3.org/2000/svg" width="24" height="24" viewBox="0 0 24 24">
  <defs/>
  <path d="M14.161,2 L17.838,2 C18.366,2 18.82,2 19.195,2.031 C19.59,2.063 19.984,2.134 20.362,2.327 C20.927,2.615 21.385,3.074 21.673,3.638 C21.866,4.016 21.937,4.41 21.969,4.805 C22,5.18 22,5.634 22,6.161 L22,20 C22.552,20 23,20.448 23,21 C23,21.552 22.552,22 22,22 L2,22 C1.448,22 1,21.552 1,21 C1,20.448 1.448,20 2,20 L2,14.161 C2,13.634 2,13.179 2.031,12.805 C2.063,12.41 2.134,12.016 2.327,11.638 C2.615,11.073 3.074,10.615 3.638,10.327 C4.016,10.134 4.41,10.063 4.805,10.031 C5.18,10 5.634,10 6.161,10 L10,10 L10,6.161 C10,5.634 10,5.18 10.031,4.805 C10.063,4.41 10.134,4.016 10.327,3.638 C10.615,3.074 11.073,2.615 11.638,2.327 C12.016,2.134 12.41,2.063 12.805,2.031 C13.179,2 13.634,2 14.161,2 Z M12,20 L20,20 L20,6.2 C20,5.623 19.999,5.251 19.976,4.968 C19.954,4.696 19.916,4.595 19.891,4.546 C19.795,4.358 19.642,4.205 19.454,4.109 C19.404,4.084 19.304,4.046 19.032,4.024 C18.749,4.001 18.377,4 17.8,4 L14.2,4 C13.623,4 13.251,4.001 12.968,4.024 C12.696,4.046 12.595,4.084 12.546,4.109 C12.358,4.205 12.205,4.358 12.109,4.546 C12.084,4.595 12.046,4.696 12.024,4.968 C12.001,5.251 12,5.623 12,6.2 Z M10,12 L6.2,12 C5.623,12 5.251,12.001 4.968,12.024 C4.696,12.046 4.595,12.084 4.546,12.109 C4.358,12.205 4.205,12.358 4.109,12.546 C4.084,12.595 4.046,12.696 4.024,12.968 C4.001,13.251 4,13.623 4,14.2 L4,20 L10,20 Z M13.5,15 C13.5,14.448 13.948,14 14.5,14 L17.5,14 C18.052,14 18.5,14.448 18.5,15 C18.5,15.552 18.052,16 17.5,16 L14.5,16 C13.948,16 13.5,15.552 13.5,15 Z M13.5,11 C13.5,10.448 13.948,10 14.5,10 L17.5,10 C18.052,10 18.5,10.448 18.5,11 C18.5,11.552 18.052,12 17.5,12 L14.5,12 C13.948,12 13.5,11.552 13.5,11 Z M13.5,7 C13.5,6.448 13.948,6 14.5,6 L17.5,6 C18.052,6 18.5,6.448 18.5,7 C18.5,7.552 18.052,8 17.5,8 L14.5,8 C13.948,8 13.5,7.552 13.5,7 Z"/>
</svg>
