<svg xmlns="http://www.w3.org/2000/svg" width="24" height="24" viewBox="0 0 24 24">
  <defs/>
  <path d="M7.161,2 L16.838,2 C17.366,2 17.82,2 18.195,2.031 C18.59,2.063 18.984,2.134 19.362,2.327 C19.927,2.615 20.385,3.074 20.673,3.638 C20.866,4.016 20.937,4.41 20.969,4.805 C21,5.18 21,5.634 21,6.161 L21,20 L22,20 C22.552,20 23,20.448 23,21 C23,21.552 22.552,22 22,22 L2,22 C1.448,22 1,21.552 1,21 C1,20.448 1.448,20 2,20 L3,20 L3,6.161 C3,5.634 3,5.18 3.031,4.805 C3.063,4.41 3.134,4.016 3.327,3.638 C3.615,3.074 4.074,2.615 4.638,2.327 C5.016,2.134 5.41,2.063 5.805,2.031 C6.18,2 6.634,2 7.161,2 Z M5,20 L19,20 L19,6.2 C19,5.623 18.999,5.251 18.976,4.968 C18.954,4.696 18.916,4.595 18.891,4.546 C18.795,4.358 18.642,4.205 18.454,4.109 C18.404,4.084 18.304,4.046 18.032,4.024 C17.749,4.001 17.377,4 16.8,4 L7.2,4 C6.623,4 6.251,4.001 5.968,4.024 C5.696,4.046 5.595,4.084 5.546,4.109 C5.358,4.205 5.205,4.358 5.109,4.546 C5.084,4.595 5.046,4.696 5.024,4.968 C5.001,5.251 5,5.623 5,6.2 Z M12.75,11 C12.75,10.448 13.198,10 13.75,10 L16.5,10 C17.052,10 17.5,10.448 17.5,11 C17.5,11.552 17.052,12 16.5,12 L13.75,12 C13.198,12 12.75,11.552 12.75,11 Z M12.75,15 C12.75,14.448 13.198,14 13.75,14 L16.5,14 C17.052,14 17.5,14.448 17.5,15 C17.5,15.552 17.052,16 16.5,16 L13.75,16 C13.198,16 12.75,15.552 12.75,15 Z M6.5,11 C6.5,10.448 6.948,10 7.5,10 L10.25,10 C10.802,10 11.25,10.448 11.25,11 C11.25,11.552 10.802,12 10.25,12 L7.5,12 C6.948,12 6.5,11.552 6.5,11 Z M6.5,15 C6.5,14.448 6.948,14 7.5,14 L10.25,14 C10.802,14 11.25,14.448 11.25,15 C11.25,15.552 10.802,16 10.25,16 L7.5,16 C6.948,16 6.5,15.552 6.5,15 Z M12.75,7 C12.75,6.448 13.198,6 13.75,6 L16.5,6 C17.052,6 17.5,6.448 17.5,7 C17.5,7.552 17.052,8 16.5,8 L13.75,8 C13.198,8 12.75,7.552 12.75,7 Z M6.5,7 C6.5,6.448 6.948,6 7.5,6 L10.25,6 C10.802,6 11.25,6.448 11.25,7 C11.25,7.552 10.802,8 10.25,8 L7.5,8 C6.948,8 6.5,7.552 6.5,7 Z"/>
</svg>
