<svg xmlns="http://www.w3.org/2000/svg" width="24" height="24" viewBox="0 0 24 24">
  <defs/>
  <path d="M9.161,2 L14.839,2 C15.366,2 15.821,2 16.195,2.031 C16.59,2.063 16.984,2.134 17.362,2.327 C17.927,2.615 18.385,3.074 18.673,3.638 C18.866,4.016 18.937,4.41 18.969,4.805 C19,5.18 19,5.634 19,6.161 L19,20 L20,20 C20.552,20 21,20.448 21,21 C21,21.552 20.552,22 20,22 L4,22 C3.448,22 3,21.552 3,21 C3,20.448 3.448,20 4,20 L5,20 L5,6.161 C5,5.634 5,5.18 5.031,4.805 C5.063,4.41 5.134,4.016 5.327,3.638 C5.615,3.074 6.074,2.615 6.638,2.327 C7.016,2.134 7.41,2.063 7.805,2.031 C8.18,2 8.634,2 9.161,2 Z M7,20 L17,20 L17,6.2 C17,5.623 16.999,5.251 16.976,4.968 C16.954,4.696 16.916,4.595 16.891,4.546 C16.795,4.358 16.642,4.205 16.454,4.109 C16.404,4.084 16.304,4.046 16.032,4.024 C15.749,4.001 15.377,4 14.8,4 L9.2,4 C8.623,4 8.251,4.001 7.968,4.024 C7.696,4.046 7.595,4.084 7.546,4.109 C7.358,4.205 7.205,4.358 7.109,4.546 C7.084,4.595 7.046,4.696 7.024,4.968 C7.001,5.251 7,5.623 7,6.2 Z M8.5,11 C8.5,10.448 8.948,10 9.5,10 L14.5,10 C15.052,10 15.5,10.448 15.5,11 C15.5,11.552 15.052,12 14.5,12 L9.5,12 C8.948,12 8.5,11.552 8.5,11 Z M8.5,15 C8.5,14.448 8.948,14 9.5,14 L14.5,14 C15.052,14 15.5,14.448 15.5,15 C15.5,15.552 15.052,16 14.5,16 L9.5,16 C8.948,16 8.5,15.552 8.5,15 Z M8.5,7 C8.5,6.448 8.948,6 9.5,6 L14.5,6 C15.052,6 15.5,6.448 15.5,7 C15.5,7.552 15.052,8 14.5,8 L9.5,8 C8.948,8 8.5,7.552 8.5,7 Z"/>
</svg>
