<svg xmlns="http://www.w3.org/2000/svg" width="24" height="24" viewBox="0 0 24 24">
  <defs/>
  <path d="M16.241,1 L16.241,1 C17.046,1 17.711,1 18.252,1.044 C18.814,1.09 19.331,1.189 19.816,1.436 C20.569,1.819 21.181,2.431 21.564,3.184 C21.811,3.669 21.91,4.186 21.956,4.748 C21.971,4.931 21.981,5.128 21.987,5.339 C21.996,5.392 22,5.445 22,5.5 C22,5.538 21.998,5.575 21.994,5.612 C22,5.958 22,6.339 22,6.759 L22,14.241 C22,15.046 22,15.711 21.956,16.252 C21.91,16.814 21.811,17.331 21.564,17.816 C21.212,18.506 20.668,19.078 20,19.464 L20,21.223 C20,21.342 20,21.485 19.99,21.61 C19.978,21.755 19.948,21.963 19.837,22.181 C19.693,22.463 19.463,22.693 19.181,22.837 C18.963,22.948 18.755,22.978 18.61,22.99 C18.485,23 18.342,23 18.223,23 L16.277,23 C16.158,23 16.015,23 15.89,22.99 C15.745,22.978 15.537,22.948 15.319,22.837 C15.037,22.693 14.807,22.463 14.663,22.181 C14.552,21.963 14.522,21.755 14.51,21.61 C14.5,21.485 14.5,21.342 14.5,21.223 L14.5,20 L9.5,20 L9.5,21.223 L9.5,21.224 C9.5,21.343 9.5,21.485 9.49,21.61 C9.478,21.755 9.448,21.963 9.337,22.181 C9.193,22.463 8.963,22.693 8.681,22.837 C8.463,22.948 8.255,22.978 8.11,22.99 C7.985,23 7.842,23 7.723,23 L5.777,23 C5.658,23 5.515,23 5.39,22.99 C5.245,22.978 5.037,22.948 4.819,22.837 C4.537,22.693 4.307,22.463 4.163,22.181 C4.052,21.963 4.022,21.755 4.01,21.61 C4,21.485 4,21.342 4,21.223 L4,21.223 L4,19.464 C3.332,19.078 2.788,18.506 2.436,17.816 C2.189,17.331 2.09,16.814 2.044,16.252 C2,15.711 2,15.046 2,14.241 L2,6.759 C2,6.339 2,5.958 2.006,5.612 C2.002,5.575 2,5.538 2,5.5 C2,5.445 2.004,5.392 2.013,5.339 C2.019,5.128 2.029,4.931 2.044,4.748 C2.09,4.186 2.189,3.669 2.436,3.184 C2.819,2.431 3.431,1.819 4.184,1.436 C4.669,1.189 5.186,1.09 5.748,1.044 C6.289,1 6.954,1 7.759,1 L16.241,1 Z M20,13 L4,13 L4,14.2 C4,15.057 4.001,15.639 4.038,16.089 C4.073,16.527 4.138,16.752 4.218,16.908 C4.41,17.284 4.716,17.59 5.092,17.782 C5.248,17.862 5.473,17.927 5.911,17.962 C6.361,17.999 6.943,18 7.8,18 L16.2,18 C17.057,18 17.639,17.999 18.089,17.962 C18.527,17.927 18.752,17.862 18.908,17.782 C19.284,17.59 19.59,17.284 19.782,16.908 C19.862,16.752 19.927,16.527 19.962,16.089 C19.999,15.639 20,15.057 20,14.2 Z M4,6.5 C4,6.596 4,6.696 4,6.8 L4,11 L20,11 L20,6.8 C20,6.696 20,6.596 20,6.5 Z M19.91,4.5 C19.876,4.314 19.832,4.19 19.782,4.092 C19.59,3.716 19.284,3.41 18.908,3.218 C18.752,3.138 18.527,3.073 18.089,3.038 C17.639,3.001 17.057,3 16.2,3 L7.8,3 C6.943,3 6.361,3.001 5.911,3.038 C5.473,3.073 5.248,3.138 5.092,3.218 C4.716,3.41 4.41,3.716 4.218,4.092 C4.168,4.19 4.124,4.314 4.089,4.5 Z M15,15.5 C15,14.948 15.448,14.5 16,14.5 L17.5,14.5 C18.052,14.5 18.5,14.948 18.5,15.5 C18.5,16.052 18.052,16.5 17.5,16.5 L16,16.5 C15.448,16.5 15,16.052 15,15.5 Z M5.5,15.5 C5.5,14.948 5.948,14.5 6.5,14.5 L8,14.5 C8.552,14.5 9,14.948 9,15.5 C9,16.052 8.552,16.5 8,16.5 L6.5,16.5 C5.948,16.5 5.5,16.052 5.5,15.5 Z M7.5,20 C6.926,20 6.429,19.997 6,19.973 L6,21 L7.5,21 Z M16.5,20 L16.5,21 L18,21 L18,19.973 C17.571,19.997 17.074,20 16.5,20 Z"/>
</svg>
