<svg width="24" height="24" viewBox="0 0 24 24" fill="none" xmlns="http://www.w3.org/2000/svg">
<path d="M12.8228 2.43166L12 3L11.1772 2.43166C11.3639 2.16136 11.6715 2 12 2C12.3285 2 12.6361 2.16136 12.8228 2.43166ZM13 6.73244C13.5978 6.38663 14 5.74028 14 5C14 4.63481 13.8561 4.2727 13.7593 4.05227C13.6444 3.79078 13.499 3.52211 13.365 3.29111C13.2291 3.05684 13.0946 2.84372 12.9949 2.69017C12.9448 2.61296 12.9027 2.54978 12.8728 2.50528L12.8374 2.45291L12.8273 2.43819L12.8234 2.4325C12.8233 2.43242 12.8228 2.43166 12 3C11.1772 2.43166 11.1773 2.43158 11.1772 2.43166L11.1766 2.4325L11.1727 2.43819L11.1626 2.45291L11.1272 2.50528C11.0973 2.54978 11.0552 2.61296 11.0051 2.69017C10.9054 2.84372 10.7709 3.05684 10.635 3.29111C10.501 3.52211 10.3556 3.79078 10.2407 4.05227C10.1439 4.2727 10 4.63481 10 5C10 5.74028 10.4022 6.38663 11 6.73244V10H8C6.89543 10 6 10.8954 6 12V14.1707C4.83481 14.5825 4 15.6938 4 17V20H3C2.44772 20 2 20.4477 2 21C2 21.5523 2.44772 22 3 22H21C21.5523 22 22 21.5523 22 21C22 20.4477 21.5523 20 21 20H20V17C20 15.6938 19.1652 14.5825 18 14.1707V12C18 10.8954 17.1046 10 16 10H13V6.73244ZM8 12H16V14H8V12ZM18 20H6V17C6 16.4477 6.44772 16 7 16H17C17.5523 16 18 16.4477 18 17V20Z" fill="black"/>
</svg>
