<svg xmlns="http://www.w3.org/2000/svg" width="24" height="24" viewBox="0 0 24 24">
  <defs/>
  <path d="M8,1 C8.552,1 9,1.448 9,2 L9,3 L15,3 L15,2 C15,1.448 15.448,1 16,1 C16.552,1 17,1.448 17,2 L17,3.002 C17.476,3.005 17.891,3.015 18.252,3.044 C18.814,3.09 19.331,3.189 19.816,3.436 C20.569,3.819 21.181,4.431 21.564,5.184 C21.811,5.669 21.91,6.186 21.956,6.748 C22,7.289 22,7.954 22,8.759 L22,11.5 C22,12.052 21.552,12.5 21,12.5 C20.448,12.5 20,12.052 20,11.5 L20,11 L4,11 L4,17.2 C4,18.057 4.001,18.639 4.038,19.089 C4.073,19.527 4.138,19.752 4.218,19.908 C4.41,20.284 4.716,20.59 5.092,20.782 C5.248,20.862 5.473,20.927 5.911,20.962 C6.361,20.999 6.943,21 7.8,21 L12.5,21 C13.052,21 13.5,21.448 13.5,22 C13.5,22.552 13.052,23 12.5,23 L7.759,23 C6.954,23 6.289,23 5.748,22.956 C5.186,22.91 4.669,22.811 4.184,22.564 C3.431,22.181 2.819,21.569 2.436,20.816 C2.189,20.331 2.09,19.814 2.044,19.252 C2,18.711 2,18.046 2,17.241 L2,8.759 C2,7.954 2,7.289 2.044,6.748 C2.09,6.186 2.189,5.669 2.436,5.184 C2.819,4.431 3.431,3.819 4.184,3.436 C4.669,3.189 5.186,3.09 5.748,3.044 C6.109,3.015 6.525,3.005 7,3.002 L7,2 C7,1.448 7.448,1 8,1 Z M7,5.002 C6.554,5.005 6.205,5.014 5.911,5.038 C5.473,5.073 5.248,5.138 5.092,5.218 C4.716,5.41 4.41,5.716 4.218,6.092 C4.138,6.248 4.073,6.473 4.038,6.911 C4.001,7.361 4,7.943 4,8.8 L4,9 L20,9 L20,8.8 C20,7.943 19.999,7.361 19.962,6.911 C19.927,6.473 19.862,6.248 19.782,6.092 C19.59,5.716 19.284,5.41 18.908,5.218 C18.752,5.138 18.527,5.073 18.089,5.038 C17.795,5.014 17.445,5.005 17,5.002 L17,6 C17,6.552 16.552,7 16,7 C15.448,7 15,6.552 15,6 L15,5 L9,5 L9,6 C9,6.552 8.552,7 8,7 C7.448,7 7,6.552 7,6 Z M17.497,14.433 C18.495,13.84 19.797,13.809 20.862,14.653 C22.195,15.708 22.366,17.546 21.327,18.819 C20.922,19.316 20.091,20.075 19.428,20.66 C19.084,20.964 18.762,21.24 18.526,21.441 C18.408,21.541 18.311,21.623 18.244,21.679 L18.166,21.745 L18.138,21.768 L17.498,21 L16.858,21.769 C17.229,22.077 17.767,22.077 18.138,21.768 C18.138,21.768 18.137,21.769 17.498,21 L16.858,21.769 L16.83,21.745 L16.751,21.679 C16.684,21.623 16.587,21.541 16.469,21.441 C16.233,21.24 15.911,20.964 15.567,20.66 C14.904,20.075 14.074,19.316 13.668,18.819 C12.62,17.535 12.83,15.714 14.123,14.661 C15.184,13.798 16.497,13.839 17.497,14.433 Z M17.498,19.689 C17.68,19.532 17.888,19.351 18.105,19.16 C18.798,18.549 19.495,17.901 19.778,17.555 C20.117,17.139 20.071,16.577 19.62,16.221 C19.195,15.884 18.635,15.942 18.242,16.38 C18.052,16.591 17.781,16.712 17.498,16.712 C17.214,16.712 16.943,16.591 16.754,16.38 C16.353,15.934 15.785,15.887 15.385,16.212 C14.925,16.587 14.888,17.151 15.217,17.555 C15.5,17.901 16.197,18.549 16.89,19.16 C17.107,19.351 17.315,19.532 17.498,19.689 Z"/>
</svg>
