<svg xmlns="http://www.w3.org/2000/svg" width="24" height="24" viewBox="0 0 24 24">
  <defs/>
  <path d="M8,1 C8.552,1 9,1.448 9,2 L9,3 L15,3 L15,2 C15,1.448 15.448,1 16,1 C16.552,1 17,1.448 17,2 L17,3.002 C17.476,3.005 17.891,3.015 18.252,3.044 C18.814,3.09 19.331,3.189 19.816,3.436 C20.569,3.819 21.181,4.431 21.564,5.184 C21.811,5.669 21.91,6.186 21.956,6.748 C21.984,7.092 21.994,7.486 21.998,7.934 C21.999,7.956 22,7.978 22,8 C22,8.017 22,8.034 21.999,8.051 C22,8.274 22,8.51 22,8.759 L22,17.241 C22,18.046 22,18.711 21.956,19.252 C21.91,19.814 21.811,20.331 21.564,20.816 C21.181,21.569 20.569,22.181 19.816,22.564 C19.331,22.811 18.814,22.91 18.252,22.956 C17.711,23 17.046,23 16.241,23 L7.759,23 C6.954,23 6.289,23 5.748,22.956 C5.186,22.91 4.669,22.811 4.184,22.564 C3.431,22.181 2.819,21.569 2.436,20.816 C2.189,20.331 2.09,19.814 2.044,19.252 C2,18.711 2,18.046 2,17.241 L2,8.753 C2,8.506 2,8.272 2.001,8.051 C2,8.034 2,8.017 2,8 C2,7.978 2.001,7.956 2.002,7.934 C2.006,7.486 2.016,7.092 2.044,6.748 C2.09,6.186 2.189,5.669 2.436,5.184 C2.819,4.431 3.431,3.819 4.184,3.436 C4.669,3.189 5.186,3.09 5.748,3.044 C6.109,3.015 6.525,3.005 7,3.002 L7,2 C7,1.448 7.448,1 8,1 Z M20,9 L4,9 L4,17.2 C4,18.057 4.001,18.639 4.038,19.089 C4.073,19.527 4.138,19.752 4.218,19.908 C4.41,20.284 4.716,20.59 5.092,20.782 C5.248,20.862 5.473,20.927 5.911,20.962 C6.361,20.999 6.943,21 7.8,21 L16.2,21 C17.057,21 17.639,20.999 18.089,20.962 C18.527,20.927 18.752,20.862 18.908,20.782 C19.284,20.59 19.59,20.284 19.782,19.908 C19.862,19.752 19.927,19.527 19.962,19.089 C19.999,18.639 20,18.057 20,17.2 Z M7,5.002 C6.554,5.005 6.205,5.014 5.911,5.038 C5.473,5.073 5.248,5.138 5.092,5.218 C4.716,5.41 4.41,5.716 4.218,6.092 C4.138,6.248 4.073,6.473 4.038,6.911 C4.035,6.94 4.033,6.97 4.031,7 L19.969,7 C19.967,6.97 19.965,6.94 19.962,6.911 C19.927,6.473 19.862,6.248 19.782,6.092 C19.59,5.716 19.284,5.41 18.908,5.218 C18.752,5.138 18.527,5.073 18.089,5.038 C17.795,5.014 17.445,5.005 17,5.002 C16.999,5.553 16.552,6 16,6 C15.448,6 15,5.552 15,5 L9,5 C9,5.552 8.552,6 8,6 C7.448,6 7.001,5.553 7,5.002 Z M8,15 C8,14.448 8.448,14 9,14 L15,14 C15.552,14 16,14.448 16,15 C16,15.552 15.552,16 15,16 L9,16 C8.448,16 8,15.552 8,15 Z"/>
</svg>
