<svg xmlns="http://www.w3.org/2000/svg" width="24" height="24" viewBox="0 0 24 24">
  <defs/>
  <path d="M8,1 C8.552,1 9,1.448 9,2 L9,3 L15,3 L15,2 C15,1.448 15.448,1 16,1 C16.552,1 17,1.448 17,2 L17,3.002 C17.476,3.005 17.891,3.015 18.252,3.044 C18.814,3.09 19.331,3.189 19.816,3.436 C20.569,3.819 21.181,4.431 21.564,5.184 C21.811,5.669 21.91,6.186 21.956,6.748 C22,7.289 22,7.954 22,8.759 L22,12.5 C22,13.052 21.552,13.5 21,13.5 C20.448,13.5 20,13.052 20,12.5 L20,11 L4,11 L4,17.2 C4,18.057 4.001,18.639 4.038,19.089 C4.073,19.527 4.138,19.752 4.218,19.908 C4.41,20.284 4.716,20.59 5.092,20.782 C5.248,20.862 5.473,20.927 5.911,20.962 C6.361,20.999 6.943,21 7.8,21 L12,21 C12.552,21 13,21.448 13,22 C13,22.552 12.552,23 12,23 L7.759,23 C6.954,23 6.289,23 5.748,22.956 C5.186,22.91 4.669,22.811 4.184,22.564 C3.431,22.181 2.819,21.569 2.436,20.816 C2.189,20.331 2.09,19.814 2.044,19.252 C2,18.711 2,18.046 2,17.241 L2,8.759 C2,7.954 2,7.289 2.044,6.748 C2.09,6.186 2.189,5.669 2.436,5.184 C2.819,4.431 3.431,3.819 4.184,3.436 C4.669,3.189 5.186,3.09 5.748,3.044 C6.109,3.015 6.525,3.005 7,3.002 L7,2 C7,1.448 7.448,1 8,1 Z M7,5.002 C6.554,5.005 6.205,5.014 5.911,5.038 C5.473,5.073 5.248,5.138 5.092,5.218 C4.716,5.41 4.41,5.716 4.218,6.092 C4.138,6.248 4.073,6.473 4.038,6.911 C4.001,7.361 4,7.943 4,8.8 L4,9 L20,9 L20,8.8 C20,7.943 19.999,7.361 19.962,6.911 C19.927,6.473 19.862,6.248 19.782,6.092 C19.59,5.716 19.284,5.41 18.908,5.218 C18.752,5.138 18.527,5.073 18.089,5.038 C17.795,5.014 17.445,5.005 17,5.002 L17,6 C17,6.552 16.552,7 16,7 C15.448,7 15,6.552 15,6 L15,5 L9,5 L9,6 C9,6.552 8.552,7 8,7 C7.448,7 7,6.552 7,6 Z M21.707,15.793 C22.098,16.183 22.098,16.817 21.707,17.207 L17.207,21.707 C16.817,22.098 16.183,22.098 15.793,21.707 L13.793,19.707 C13.402,19.317 13.402,18.683 13.793,18.293 C14.183,17.902 14.817,17.902 15.207,18.293 L16.5,19.586 L20.293,15.793 C20.683,15.402 21.317,15.402 21.707,15.793 Z"/>
</svg>
