<svg xmlns="http://www.w3.org/2000/svg" width="24" height="24" viewBox="0 0 24 24">
  <defs/>
  <path d="M9.558,1 L14.442,1 L14.443,1 C14.553,1 14.648,1 14.74,1.005 C15.897,1.076 16.91,1.806 17.342,2.881 C17.376,2.966 17.406,3.057 17.441,3.162 L17.449,3.184 C17.495,3.323 17.505,3.352 17.514,3.373 C17.658,3.731 17.996,3.975 18.381,3.998 C18.404,4 18.438,4 18.594,4 L18.65,4 L18.651,4 C18.965,4 19.197,4 19.394,4.019 C21.292,4.207 22.792,5.708 22.98,7.606 C23,7.803 23,8.026 23,8.325 L23,16.241 C23,17.046 23,17.711 22.956,18.252 C22.91,18.814 22.811,19.331 22.564,19.816 C22.181,20.569 21.569,21.181 20.816,21.564 C20.331,21.811 19.814,21.91 19.252,21.956 C18.711,22 18.046,22 17.241,22 L6.759,22 C5.954,22 5.289,22 4.748,21.956 C4.186,21.91 3.669,21.811 3.184,21.564 C2.431,21.181 1.819,20.569 1.436,19.816 C1.189,19.331 1.09,18.814 1.044,18.252 C1,17.711 1,17.046 1,16.241 L1,8.325 C1,8.026 1,7.803 1.02,7.606 C1.207,5.708 2.708,4.207 4.606,4.019 C4.803,4 5.035,4 5.349,4 L5.35,4 L5.406,4 C5.562,4 5.596,4 5.619,3.998 C6.005,3.975 6.342,3.731 6.486,3.373 C6.495,3.352 6.505,3.323 6.551,3.184 C6.554,3.176 6.556,3.169 6.559,3.162 C6.594,3.057 6.624,2.966 6.658,2.881 C7.09,1.806 8.103,1.076 9.26,1.005 C9.352,1 9.447,1 9.558,1 Z M9.581,3 C9.434,3 9.404,3 9.381,3.002 C8.995,3.025 8.658,3.269 8.514,3.627 C8.505,3.648 8.495,3.677 8.449,3.816 C8.446,3.824 8.444,3.831 8.441,3.838 C8.406,3.943 8.376,4.034 8.342,4.119 C7.91,5.194 6.897,5.924 5.74,5.995 C5.648,6 5.548,6 5.432,6 L5.406,6 C5.011,6 4.888,6.001 4.803,6.01 C3.854,6.104 3.104,6.854 3.01,7.803 C3.001,7.889 3,8.003 3,8.377 L3,16.2 C3,17.057 3.001,17.639 3.038,18.089 C3.073,18.527 3.138,18.752 3.218,18.908 C3.41,19.284 3.716,19.59 4.092,19.782 C4.248,19.862 4.473,19.927 4.911,19.962 C5.361,19.999 5.943,20 6.8,20 L17.2,20 C18.057,20 18.639,19.999 19.089,19.962 C19.527,19.927 19.752,19.862 19.908,19.782 C20.284,19.59 20.59,19.284 20.782,18.908 C20.862,18.752 20.927,18.527 20.962,18.089 C20.999,17.639 21,17.057 21,16.2 L21,8.377 C21,8.003 20.999,7.889 20.99,7.803 C20.896,6.854 20.146,6.104 19.197,6.01 C19.112,6.001 18.989,6 18.594,6 L18.569,6 C18.452,6 18.352,6 18.26,5.995 C17.103,5.924 16.09,5.194 15.658,4.119 C15.624,4.034 15.594,3.943 15.559,3.838 L15.551,3.816 C15.505,3.677 15.495,3.648 15.486,3.627 C15.342,3.269 15.005,3.025 14.619,3.002 C14.596,3 14.566,3 14.419,3 Z M7,12.5 C7,9.739 9.239,7.5 12,7.5 C14.761,7.5 17,9.739 17,12.5 C17,15.261 14.761,17.5 12,17.5 C9.239,17.5 7,15.261 7,12.5 Z M12,9.5 C10.343,9.5 9,10.843 9,12.5 C9,14.157 10.343,15.5 12,15.5 C13.657,15.5 15,14.157 15,12.5 C15,10.843 13.657,9.5 12,9.5 Z"/>
</svg>
