<svg xmlns="http://www.w3.org/2000/svg" width="24" height="24" viewBox="0 0 24 24">
  <defs/>
  <path d="M8.558,1 L15.442,1 L15.443,1 C15.553,1 15.648,1 15.74,1.005 C16.897,1.076 17.91,1.806 18.342,2.881 C18.376,2.966 18.406,3.057 18.441,3.162 L18.538,3.452 C18.647,3.779 18.953,4 19.298,4 C21.343,4 23,5.657 23,7.702 L23,16.241 C23,17.046 23,17.711 22.956,18.252 C22.91,18.814 22.811,19.331 22.564,19.816 C22.181,20.569 21.569,21.181 20.816,21.564 C20.331,21.811 19.814,21.91 19.252,21.956 C18.711,22 18.046,22 17.241,22 L6.759,22 C5.954,22 5.289,22 4.748,21.956 C4.186,21.91 3.669,21.811 3.184,21.564 C2.431,21.181 1.819,20.569 1.436,19.816 C1.189,19.331 1.09,18.814 1.044,18.252 C1,17.711 1,17.046 1,16.241 L1,7.702 C1,5.657 2.657,4 4.702,4 C5.047,4 5.353,3.779 5.462,3.452 L5.551,3.184 C5.554,3.176 5.556,3.169 5.559,3.162 C5.594,3.057 5.624,2.966 5.658,2.881 C6.09,1.806 7.103,1.076 8.26,1.005 C8.352,1 8.447,1 8.558,1 Z M8.581,3 C8.434,3 8.404,3 8.381,3.002 C7.995,3.025 7.658,3.269 7.514,3.627 C7.505,3.648 7.495,3.677 7.449,3.816 L7.359,4.085 C6.978,5.228 5.907,6 4.702,6 C3.762,6 3,6.762 3,7.702 L3,16.2 C3,17.057 3.001,17.639 3.038,18.089 C3.073,18.527 3.138,18.752 3.218,18.908 C3.41,19.284 3.716,19.59 4.092,19.782 C4.248,19.862 4.473,19.927 4.911,19.962 C5.361,19.999 5.943,20 6.8,20 L17.2,20 C18.057,20 18.639,19.999 19.089,19.962 C19.527,19.927 19.752,19.862 19.908,19.782 C20.284,19.59 20.59,19.284 20.782,18.908 C20.862,18.752 20.927,18.527 20.962,18.089 C20.999,17.639 21,17.057 21,16.2 L21,7.702 C21,6.762 20.238,6 19.298,6 C18.093,6 17.022,5.228 16.641,4.085 L16.551,3.816 C16.505,3.677 16.495,3.648 16.486,3.627 C16.342,3.269 16.004,3.025 15.619,3.002 C15.596,3 15.566,3 15.419,3 Z M6.5,12 C6.5,8.962 8.962,6.5 12,6.5 C15.038,6.5 17.5,8.962 17.5,12 C17.5,15.038 15.038,17.5 12,17.5 C8.962,17.5 6.5,15.038 6.5,12 Z M12,8.5 C10.067,8.5 8.5,10.067 8.5,12 C8.5,13.933 10.067,15.5 12,15.5 C13.933,15.5 15.5,13.933 15.5,12 C15.5,10.067 13.933,8.5 12,8.5 Z"/>
</svg>
