<svg xmlns="http://www.w3.org/2000/svg" width="24" height="24" viewBox="0 0 24 24">
  <defs/>
  <path d="M12.5,2 C13.052,2 13.5,2.448 13.5,3 C13.5,3.552 13.052,4 12.5,4 L8.4,4 C7.263,4 6.471,4.001 5.854,4.051 C5.249,4.101 4.901,4.193 4.638,4.327 C4.074,4.615 3.615,5.074 3.327,5.638 C3.193,5.901 3.101,6.249 3.051,6.854 C3.001,7.471 3,8.263 3,9.4 L3,14.6 C3,15.737 3.001,16.529 3.051,17.146 C3.101,17.751 3.193,18.099 3.327,18.362 C3.615,18.927 4.074,19.385 4.638,19.673 C4.901,19.807 5.249,19.899 5.854,19.949 C6.471,19.999 7.263,20 8.4,20 L15.6,20 C16.737,20 17.529,19.999 18.146,19.949 C18.751,19.899 19.099,19.807 19.362,19.673 C19.927,19.385 20.385,18.927 20.673,18.362 C20.807,18.099 20.899,17.751 20.949,17.146 C20.999,16.529 21,15.737 21,14.6 L21,11.5 C21,10.948 21.448,10.5 22,10.5 C22.552,10.5 23,10.948 23,11.5 L23,14.643 C23,15.727 23,16.601 22.942,17.309 C22.883,18.038 22.757,18.678 22.455,19.27 C21.976,20.211 21.211,20.976 20.27,21.455 C19.678,21.757 19.038,21.883 18.309,21.942 C17.601,22 16.727,22 15.643,22 L8.357,22 C7.273,22 6.399,22 5.691,21.942 C4.963,21.883 4.322,21.757 3.73,21.455 C2.789,20.976 2.024,20.211 1.545,19.27 C1.243,18.678 1.117,18.038 1.058,17.309 C1,16.601 1,15.727 1,14.643 L1,9.357 C1,8.273 1,7.399 1.058,6.691 C1.117,5.963 1.243,5.322 1.545,4.73 C2.024,3.789 2.789,3.024 3.73,2.545 C4.322,2.243 4.963,2.117 5.691,2.058 C6.399,2 7.273,2 8.357,2 L12.5,2 Z M7,12 C7,9.239 9.239,7 12,7 C14.761,7 17,9.239 17,12 C17,14.761 14.761,17 12,17 C9.239,17 7,14.761 7,12 Z M12,9 C10.343,9 9,10.343 9,12 C9,13.657 10.343,15 12,15 C13.657,15 15,13.657 15,12 C15,10.343 13.657,9 12,9 Z M19,1 C19.552,1 20,1.448 20,2 L20,4 L22,4 C22.552,4 23,4.448 23,5 C23,5.552 22.552,6 22,6 L20,6 L20,8 C20,8.552 19.552,9 19,9 C18.448,9 18,8.552 18,8 L18,6 L16,6 C15.448,6 15,5.552 15,5 C15,4.448 15.448,4 16,4 L18,4 L18,2 C18,1.448 18.448,1 19,1 Z"/>
</svg>
