<svg xmlns="http://www.w3.org/2000/svg" width="24" height="24" viewBox="0 0 24 24">
  <defs/>
  <path d="M9.558,1 L14.442,1 L14.443,1 C14.553,1 14.648,1 14.74,1.005 C15.897,1.076 16.91,1.806 17.342,2.881 C17.376,2.966 17.406,3.057 17.441,3.162 L17.449,3.184 C17.495,3.323 17.505,3.352 17.514,3.373 C17.658,3.731 17.996,3.975 18.381,3.998 C18.404,4 18.438,4 18.594,4 L18.65,4 L18.651,4 C18.965,4 19.197,4 19.394,4.019 C21.292,4.207 22.792,5.708 22.98,7.606 C23,7.803 23,8.026 23,8.325 L23,18 C23,19 22.633,19.913 22.028,20.614 L22.707,21.293 C23.098,21.683 23.098,22.317 22.707,22.707 C22.317,23.098 21.683,23.098 21.293,22.707 L19.884,21.299 C19.864,21.28 19.845,21.261 19.826,21.24 L14.432,15.847 C14.429,15.844 14.425,15.84 14.421,15.837 C14.371,15.795 14.327,15.75 14.288,15.702 L8.783,10.197 C8.743,10.163 8.704,10.125 8.669,10.083 L1.293,2.707 C0.902,2.317 0.902,1.683 1.293,1.293 C1.683,0.902 2.317,0.902 2.707,1.293 L5.414,4 L5.419,4 C5.566,4 5.596,4 5.619,3.998 C6.005,3.975 6.342,3.731 6.486,3.373 C6.495,3.352 6.505,3.323 6.551,3.184 C6.554,3.176 6.556,3.169 6.559,3.162 C6.594,3.057 6.624,2.966 6.658,2.881 C7.09,1.806 8.103,1.076 9.26,1.005 C9.352,1 9.447,1 9.558,1 Z M7.029,5.615 L9.553,8.139 C10.277,7.732 11.112,7.5 12,7.5 C14.761,7.5 17,9.739 17,12.5 C17,13.388 16.768,14.223 16.361,14.947 L20.606,19.192 C20.854,18.859 21,18.446 21,18 L21,8.377 C21,8.003 20.999,7.889 20.99,7.803 C20.896,6.854 20.146,6.104 19.197,6.01 C19.112,6.001 18.989,6 18.594,6 L18.569,6 C18.452,6 18.352,6 18.26,5.995 C17.103,5.924 16.09,5.194 15.658,4.119 C15.624,4.034 15.594,3.943 15.559,3.838 L15.551,3.816 C15.505,3.677 15.495,3.648 15.486,3.627 C15.342,3.269 15.005,3.025 14.619,3.002 C14.596,3 14.566,3 14.419,3 L9.581,3 C9.434,3 9.404,3 9.381,3.002 C8.995,3.025 8.658,3.269 8.514,3.627 C8.505,3.648 8.495,3.677 8.449,3.816 C8.446,3.824 8.444,3.831 8.441,3.838 C8.406,3.943 8.376,4.034 8.342,4.119 C8.082,4.765 7.613,5.286 7.029,5.615 Z M2,6.5 C2.552,6.5 3,6.948 3,7.5 L3,16.2 C3,17.057 3.001,17.639 3.038,18.089 C3.073,18.527 3.138,18.752 3.218,18.908 C3.41,19.284 3.716,19.59 4.092,19.782 C4.248,19.862 4.473,19.927 4.911,19.962 C5.361,19.999 5.943,20 6.8,20 L15.5,20 C16.052,20 16.5,20.448 16.5,21 C16.5,21.552 16.052,22 15.5,22 L6.759,22 C5.954,22 5.289,22 4.748,21.956 C4.186,21.91 3.669,21.811 3.184,21.564 C2.431,21.181 1.819,20.569 1.436,19.816 C1.189,19.331 1.09,18.814 1.044,18.252 C1,17.711 1,17.046 1,16.241 L1,7.5 C1,6.948 1.448,6.5 2,6.5 Z M8,11.5 C8.552,11.5 9,11.948 9,12.5 C9,14.157 10.343,15.5 12,15.5 C12.552,15.5 13,15.948 13,16.5 C13,17.052 12.552,17.5 12,17.5 C9.239,17.5 7,15.261 7,12.5 C7,11.948 7.448,11.5 8,11.5 Z M14.851,13.437 C14.948,13.142 15,12.828 15,12.5 C15,10.843 13.657,9.5 12,9.5 C11.672,9.5 11.358,9.552 11.063,9.649 Z"/>
</svg>
