<svg xmlns="http://www.w3.org/2000/svg" width="24" height="24" viewBox="0 0 24 24">
  <defs/>
  <path d="M4.222,4.222 C8.518,-0.074 15.482,-0.074 19.778,4.222 C24.074,8.518 24.074,15.482 19.778,19.778 C15.482,24.074 8.518,24.074 4.222,19.778 C-0.074,15.482 -0.074,8.518 4.222,4.222 Z M11.992,9 C11.227,9.002 10.462,9.295 9.879,9.879 C8.707,11.05 8.707,12.95 9.879,14.121 C11.05,15.293 12.95,15.293 14.121,14.121 C14.248,13.995 14.361,13.86 14.46,13.719 C14.498,13.631 14.55,13.548 14.614,13.474 C15.093,12.625 15.126,11.593 14.714,10.719 C14.661,10.646 14.619,10.566 14.587,10.48 C14.461,10.265 14.306,10.063 14.121,9.879 C13.593,9.35 12.916,9.06 12.225,9.008 C12.148,9.015 12.07,9.012 11.992,9 Z M19.046,17.601 C16.599,18.338 13.93,18.134 11.607,16.985 C11.089,16.944 10.576,16.823 10.089,16.622 C10.826,18.393 12.18,19.892 13.957,20.786 C15.572,20.428 17.108,19.62 18.364,18.364 C18.608,18.12 18.836,17.865 19.046,17.601 Z M10.043,3.214 C8.428,3.572 6.892,4.38 5.636,5.636 C5.392,5.88 5.164,6.135 4.954,6.399 C7.401,5.662 10.07,5.866 12.392,7.015 C12.91,7.056 13.423,7.177 13.911,7.378 C13.174,5.607 11.82,4.108 10.043,3.214 Z M20.374,8.696 C19.789,11.184 18.279,13.393 16.123,14.83 C15.952,15.079 15.756,15.315 15.535,15.535 C15.38,15.691 15.217,15.834 15.047,15.965 C16.95,16.213 18.925,15.789 20.589,14.695 C21.201,12.738 21.129,10.614 20.374,8.696 Z M3.626,15.304 C4.21,12.815 5.721,10.606 7.877,9.169 C8.048,8.921 8.244,8.685 8.464,8.464 C8.62,8.309 8.783,8.166 8.953,8.035 C7.05,7.787 5.075,8.211 3.411,9.305 C2.799,11.262 2.87,13.386 3.626,15.304 Z M10.67,20.902 C8.81,19.151 7.653,16.739 7.487,14.155 C7.259,13.677 7.111,13.171 7.043,12.656 C5.877,14.179 5.256,16.101 5.371,18.087 C5.457,18.181 5.545,18.273 5.636,18.364 C7.054,19.782 8.828,20.628 10.67,20.902 Z M13.329,3.098 C15.19,4.848 16.347,7.26 16.513,9.845 C16.741,10.322 16.889,10.829 16.957,11.344 C18.123,9.82 18.744,7.899 18.629,5.912 C18.543,5.819 18.455,5.727 18.364,5.636 C16.946,4.218 15.172,3.372 13.329,3.098 Z"/>
</svg>
