<svg xmlns="http://www.w3.org/2000/svg" width="24" height="24" viewBox="0 0 24 24">
  <defs/>
  <path d="M8.161,2 L15.839,2 C16.366,2 16.82,2 17.195,2.031 C17.59,2.063 17.984,2.134 18.362,2.327 C18.927,2.615 19.385,3.074 19.673,3.638 C19.866,4.016 19.937,4.41 19.969,4.805 C20,5.18 20,5.634 20,6.161 L20,8 L21,8 C21,7.448 21.448,7 22,7 C22.552,7 23,7.448 23,8 L23,9 C23,9.552 22.552,10 22,10 L21.646,10 C22.021,10.331 22.334,10.732 22.564,11.184 C22.811,11.669 22.91,12.186 22.956,12.748 C23,13.289 23,13.954 23,14.759 L23,18.032 C23,18.471 23,18.849 22.979,19.162 C22.956,19.492 22.907,19.822 22.772,20.148 C22.467,20.883 21.883,21.467 21.148,21.772 C20.822,21.907 20.492,21.956 20.162,21.979 C19.849,22 19.471,22 19.032,22 L18.332,22 C18.028,22 17.766,22 17.531,21.963 C16.247,21.76 15.24,20.753 15.037,19.469 C15.014,19.324 15.005,19.169 15.002,19 L8.998,19 C8.995,19.169 8.986,19.324 8.963,19.469 C8.76,20.753 7.753,21.76 6.469,21.963 C6.234,22 5.972,22 5.668,22 L4.968,22 C4.529,22 4.151,22 3.838,21.979 C3.508,21.956 3.178,21.907 2.852,21.772 C2.117,21.467 1.533,20.883 1.228,20.148 C1.093,19.822 1.044,19.492 1.021,19.162 C1,18.849 1,18.471 1,18.032 L1,14.759 C1,13.954 1,13.289 1.044,12.748 C1.09,12.186 1.189,11.669 1.436,11.184 C1.666,10.732 1.979,10.331 2.354,10 L2,10 C1.448,10 1,9.552 1,9 L1,8 C1,7.448 1.448,7 2,7 C2.552,7 3,7.448 3,8 L4,8 L4,6.161 C4,5.634 4,5.18 4.031,4.805 C4.063,4.41 4.134,4.016 4.327,3.638 C4.615,3.074 5.074,2.615 5.638,2.327 C6.016,2.134 6.41,2.063 6.805,2.031 C7.18,2 7.634,2 8.161,2 Z M4.911,11.038 C4.473,11.073 4.248,11.138 4.092,11.218 C3.716,11.41 3.41,11.716 3.218,12.092 C3.138,12.248 3.073,12.473 3.038,12.911 C3.001,13.361 3,13.943 3,14.8 L3,18 C3,18.48 3.001,18.789 3.017,19.026 C3.032,19.254 3.059,19.341 3.076,19.383 C3.178,19.628 3.372,19.822 3.617,19.924 C3.659,19.941 3.746,19.968 3.974,19.983 C4.211,20 4.52,20 5,20 L5.6,20 C6.01,20 6.098,19.997 6.156,19.988 C6.584,19.92 6.92,19.584 6.988,19.156 C6.997,19.098 7,19.01 7,18.6 L7,18.581 C7,18.517 6.999,18.388 7.018,18.265 C7.12,17.624 7.624,17.12 8.265,17.018 C8.388,16.999 8.517,17 8.581,17 L8.6,17 L15.4,17 C15.405,17 15.412,17 15.418,17 C15.483,17 15.612,16.999 15.735,17.018 C16.376,17.12 16.88,17.624 16.982,18.265 C17.001,18.388 17,18.517 17,18.581 L17,18.6 C17,19.01 17.003,19.098 17.012,19.156 C17.08,19.584 17.416,19.92 17.844,19.988 C17.902,19.997 17.99,20 18.4,20 L19,20 C19.48,20 19.789,20 20.026,19.983 C20.254,19.968 20.341,19.941 20.383,19.924 C20.628,19.822 20.822,19.628 20.924,19.383 C20.941,19.341 20.968,19.254 20.983,19.026 C21,18.789 21,18.48 21,18 L21,14.8 C21,13.943 20.999,13.361 20.962,12.911 C20.927,12.473 20.862,12.248 20.782,12.092 C20.59,11.716 20.284,11.41 19.908,11.218 C19.752,11.138 19.527,11.073 19.089,11.038 C18.639,11.001 18.057,11 17.2,11 L6.8,11 C5.943,11 5.361,11.001 4.911,11.038 Z M6,9.002 L17.515,9 C17.427,9 17.337,9 17.246,9 L18,9 L18,6.2 C18,5.623 17.999,5.251 17.976,4.968 C17.954,4.696 17.916,4.595 17.891,4.546 C17.795,4.358 17.642,4.205 17.454,4.109 C17.404,4.084 17.304,4.046 17.032,4.024 C16.749,4.001 16.377,4 15.8,4 L8.2,4 C7.623,4 7.251,4.001 6.968,4.024 C6.696,4.046 6.595,4.084 6.546,4.109 C6.358,4.205 6.205,4.358 6.109,4.546 C6.084,4.595 6.046,4.696 6.024,4.968 C6.001,5.251 6,5.623 6,6.2 L6,9 L6.754,9 C6.487,9 6.236,9 6,9.002 Z M4.5,13.5 C4.5,12.672 5.172,12 6,12 C6.828,12 7.5,12.672 7.5,13.5 C7.5,14.328 6.828,15 6,15 C5.172,15 4.5,14.328 4.5,13.5 Z M16.5,13.5 C16.5,12.672 17.172,12 18,12 C18.828,12 19.5,12.672 19.5,13.5 C19.5,14.328 18.828,15 18,15 C17.172,15 16.5,14.328 16.5,13.5 Z M18,9 L17.515,9 C17.683,9 17.845,9.001 18,9.002 Z"/>
</svg>
