<svg xmlns="http://www.w3.org/2000/svg" width="24" height="24" viewBox="0 0 24 24">
  <defs/>
  <path d="M8.161,3 C8.209,3 8.258,3 8.306,3 L15.694,3 C15.742,3 15.791,3 15.839,3 C16.522,2.999 17.122,2.998 17.656,3.208 C18.124,3.392 18.538,3.69 18.86,4.075 C19.228,4.516 19.417,5.085 19.632,5.734 C19.647,5.779 19.663,5.825 19.678,5.872 L20.584,8.59 L21.553,8.105 C22.047,7.858 22.647,8.059 22.894,8.553 C23.141,9.047 22.941,9.647 22.447,9.894 L21.85,10.193 C22.135,10.483 22.377,10.817 22.564,11.184 C22.811,11.669 22.91,12.186 22.956,12.748 C23,13.289 23,13.953 23,14.759 L23,17.5 C23,17.528 23,17.556 23,17.584 C23,17.964 23.001,18.292 22.942,18.585 C22.706,19.775 21.775,20.705 20.585,20.942 C20.293,21 19.965,21 19.585,21 L19,21 C17.514,21 16.279,19.919 16.042,18.5 L7.959,18.5 C7.72,19.919 6.486,21 5,21 L4.415,21 C4.035,21 3.707,21 3.415,20.942 C2.225,20.705 1.294,19.775 1.058,18.585 C0.999,18.292 1,17.964 1,17.584 C1,17.556 1,17.528 1,17.5 L1,14.759 L1,14.758 C1,13.953 1,13.289 1.044,12.748 C1.09,12.186 1.189,11.669 1.436,11.184 C1.623,10.817 1.865,10.483 2.15,10.193 L1.553,9.894 C1.059,9.647 0.859,9.047 1.106,8.553 C1.353,8.059 1.953,7.858 2.447,8.105 L3.416,8.59 L4.322,5.872 C4.337,5.825 4.353,5.779 4.368,5.734 C4.583,5.085 4.772,4.516 5.14,4.075 C5.462,3.69 5.876,3.392 6.344,3.208 C6.878,2.998 7.478,2.999 8.161,3 Z M4.911,11.037 C4.473,11.073 4.248,11.138 4.092,11.218 C3.716,11.41 3.41,11.715 3.218,12.092 C3.138,12.248 3.073,12.472 3.038,12.911 C3.001,13.361 3,13.943 3,14.8 L3,17.5 C3,18.012 3.005,18.123 3.019,18.195 C3.098,18.592 3.408,18.902 3.805,18.981 C3.877,18.995 3.987,19 4.5,19 L5,19 C5.552,19 6,18.552 6,18 C6,17.171 6.672,16.5 7.5,16.5 L16.5,16.5 C17.328,16.5 18,17.171 18,18 C18,18.552 18.448,19 19,19 L19.5,19 C20.013,19 20.123,18.995 20.195,18.981 C20.592,18.902 20.902,18.592 20.981,18.195 C20.995,18.123 21,18.012 21,17.5 L21,14.8 C21,13.943 20.999,13.361 20.962,12.911 C20.927,12.472 20.862,12.248 20.782,12.092 C20.59,11.715 20.284,11.41 19.908,11.218 C19.752,11.138 19.527,11.073 19.089,11.037 C18.639,11.001 18.057,11 17.2,11 L6.8,11 C5.943,11 5.361,11.001 4.911,11.037 Z M5.384,9.011 C5.788,9 6.244,9 6.758,9 L17.242,9 C17.756,9 18.212,9 18.616,9.011 L17.781,6.504 C17.491,5.636 17.418,5.468 17.326,5.358 C17.218,5.23 17.08,5.13 16.924,5.069 C16.791,5.017 16.608,5 15.694,5 L8.306,5 C7.392,5 7.209,5.017 7.076,5.069 C6.92,5.13 6.782,5.23 6.674,5.358 C6.582,5.468 6.509,5.636 6.219,6.504 Z M15,13 C15,12.448 15.448,12 16,12 L19,12 C19.552,12 20,12.448 20,13 C20,13.552 19.552,14 19,14 L16,14 C15.448,14 15,13.552 15,13 Z M4,13 C4,12.448 4.448,12 5,12 L8,12 C8.552,12 9,12.448 9,13 C9,13.552 8.552,14 8,14 L5,14 C4.448,14 4,13.552 4,13 Z"/>
</svg>
