<svg xmlns="http://www.w3.org/2000/svg" width="24" height="24" viewBox="0 0 24 24">
  <defs/>
  <path d="M2,4.222 C2,2.544 3.247,1 5,1 L19,1 C20.753,1 22,2.544 22,4.222 L22,19.778 C22,21.456 20.753,23 19,23 L5,23 C3.247,23 2,21.456 2,19.778 Z M5,3 C4.544,3 4,3.445 4,4.222 L4,19.778 C4,20.555 4.544,21 5,21 L19,21 C19.456,21 20,20.555 20,19.778 L20,4.222 C20,3.445 19.456,3 19,3 Z M11.997,4.933 C12.995,4.34 14.297,4.31 15.362,5.153 C16.695,6.208 16.866,8.046 15.828,9.319 C15.422,9.817 14.591,10.575 13.929,11.16 C13.584,11.464 13.262,11.74 13.026,11.941 C12.908,12.041 12.811,12.123 12.744,12.179 L12.666,12.245 L12.638,12.268 C12.267,12.577 11.729,12.577 11.358,12.269 L11.33,12.245 L11.251,12.179 C11.184,12.123 11.087,12.041 10.969,11.941 C10.733,11.74 10.411,11.464 10.067,11.16 C9.404,10.575 8.574,9.817 8.168,9.319 C7.12,8.035 7.33,6.214 8.623,5.161 C9.684,4.298 10.997,4.339 11.997,4.933 Z M6,15 C6,14.448 6.448,14 7,14 L17,14 C17.552,14 18,14.448 18,15 C18,15.552 17.552,16 17,16 L7,16 C6.448,16 6,15.552 6,15 Z M8,18.5 C8,17.948 8.448,17.5 9,17.5 L15,17.5 C15.552,17.5 16,17.948 16,18.5 C16,19.052 15.552,19.5 15,19.5 L9,19.5 C8.448,19.5 8,19.052 8,18.5 Z M11.998,10.189 C12.18,10.032 12.388,9.851 12.605,9.66 C13.298,9.049 13.995,8.401 14.278,8.055 C14.617,7.64 14.571,7.077 14.12,6.721 C13.695,6.384 13.135,6.442 12.742,6.88 C12.552,7.091 12.281,7.212 11.998,7.212 C11.714,7.212 11.443,7.091 11.254,6.88 C10.853,6.434 10.285,6.387 9.885,6.712 C9.425,7.087 9.388,7.651 9.717,8.055 C10,8.401 10.697,9.049 11.39,9.66 C11.607,9.851 11.815,10.032 11.998,10.189 Z M11.998,11.5 C12.637,12.269 12.638,12.268 12.638,12.268 L11.998,11.5 Z"/>
</svg>
