<svg xmlns="http://www.w3.org/2000/svg" width="24" height="24" viewBox="0 0 24 24">
  <defs/>
  <path d="M2,4 C2,2.343 3.343,1 5,1 L19,1 C20.657,1 22,2.343 22,4 L22,18 C22,19.657 20.657,21 19,21 L17.8,21 L15.9,22.9 C15.509,23.29 14.876,23.29 14.486,22.9 L12.011,20.425 L9.536,22.9 C9.145,23.29 8.512,23.29 8.122,22.9 L6.222,21 L5,21 C3.343,21 2,19.657 2,18 Z M8,15.95 C8.027,13.764 9.808,12 12,12 C14.185,12 15.961,13.752 15.999,15.928 L18.728,18.657 C18.827,18.756 18.903,18.873 18.953,19 L19,19 C19.552,19 20,18.552 20,18 L20,4 C20,3.448 19.552,3 19,3 L5,3 C4.448,3 4,3.448 4,4 L4,18 C4,18.552 4.448,19 5,19 L5.069,19 C5.119,18.873 5.195,18.756 5.293,18.657 Z M6,9.5 C6,8.948 6.448,8.5 7,8.5 L17,8.5 C17.552,8.5 18,8.948 18,9.5 C18,10.052 17.552,10.5 17,10.5 L7,10.5 C6.448,10.5 6,10.052 6,9.5 Z M8,6 C8,5.448 8.448,5 9,5 L15,5 C15.552,5 16,5.448 16,6 C16,6.552 15.552,7 15,7 L9,7 C8.448,7 8,6.552 8,6 Z M10.014,16.233 C10.129,17.227 10.972,17.998 11.996,18 L12.012,18 L12.028,18 C13.12,17.985 14,17.095 14,16 C14,14.895 13.105,14 12,14 C10.895,14 10,14.895 10,16 C10,16.077 10.004,16.153 10.013,16.227 C10.013,16.229 10.013,16.231 10.014,16.233 Z M13.923,19.508 L15.193,20.778 L16.607,19.364 L15.381,18.138 C15.019,18.709 14.517,19.182 13.923,19.508 Z M7.414,19.364 L8.829,20.778 L10.091,19.516 C9.495,19.192 8.991,18.721 8.627,18.151 Z"/>
</svg>
