<svg xmlns="http://www.w3.org/2000/svg" width="24" height="24" viewBox="0 0 24 24">
  <defs/>
  <path d="M11,2 C11.552,2 12,2.448 12,3 C12,3.552 11.552,4 11,4 L7.8,4 C6.943,4 6.361,4.001 5.911,4.038 C5.473,4.073 5.248,4.138 5.092,4.218 C4.716,4.41 4.41,4.716 4.218,5.092 C4.138,5.248 4.073,5.473 4.037,5.911 C4.001,6.361 4,6.943 4,7.8 L4,12.459 C4.329,12.486 4.663,12.5 5,12.5 C8.306,12.5 11.299,11.164 13.47,9 L12,9 C11.448,9 11,8.552 11,8 C11,7.448 11.448,7 12,7 L15.608,7 C15.616,7 15.625,7 15.633,7 L16,7 C16.552,7 17,7.448 17,8 L17,12 C17,12.552 16.552,13 16,13 C15.448,13 15,12.552 15,12 L15,10.298 C12.46,12.89 8.918,14.5 5,14.5 C4.664,14.5 4.33,14.488 4,14.465 L4,16.2 C4,17.057 4.001,17.639 4.037,18.089 C4.073,18.527 4.138,18.752 4.218,18.908 C4.41,19.284 4.716,19.59 5.092,19.782 C5.248,19.862 5.473,19.927 5.911,19.962 C6.361,19.999 6.943,20 7.8,20 L16.2,20 C17.056,20 17.639,19.999 18.089,19.962 C18.527,19.927 18.751,19.862 18.908,19.782 C19.284,19.59 19.59,19.284 19.782,18.908 C19.862,18.752 19.927,18.527 19.962,18.089 C19.999,17.639 20,17.057 20,16.2 L20,13 C20,12.448 20.448,12 21,12 C21.552,12 22,12.448 22,13 L22,16.241 C22,17.046 22,17.711 21.956,18.252 C21.91,18.814 21.811,19.331 21.564,19.816 C21.18,20.569 20.569,21.181 19.816,21.564 C19.33,21.811 18.814,21.91 18.252,21.956 C17.711,22 17.046,22 16.241,22 L7.759,22 C6.954,22 6.289,22 5.748,21.956 C5.186,21.91 4.669,21.811 4.184,21.564 C3.431,21.181 2.819,20.569 2.436,19.816 C2.189,19.331 2.09,18.814 2.044,18.252 C2,17.711 2,17.046 2,16.241 L2,13.365 Q2,13.348 2,13.332 L2,7.759 C2,6.954 2,6.289 2.044,5.748 C2.09,5.186 2.189,4.669 2.436,4.184 C2.819,3.431 3.431,2.819 4.184,2.436 C4.669,2.189 5.186,2.09 5.748,2.044 C6.289,2 6.954,2 7.759,2 L11,2 Z M15.5,1 C16.052,1 16.5,1.448 16.5,2 L16.5,3.5 C16.5,4.052 16.052,4.5 15.5,4.5 C14.948,4.5 14.5,4.052 14.5,3.5 L14.5,2 C14.5,1.448 14.948,1 15.5,1 Z M21.207,2.793 C21.597,3.183 21.597,3.817 21.207,4.207 L20.146,5.268 C19.756,5.658 19.123,5.658 18.732,5.268 C18.342,4.877 18.342,4.244 18.732,3.854 L19.793,2.793 C20.183,2.402 20.816,2.402 21.207,2.793 Z M19.51,8.5 C19.51,7.948 19.958,7.5 20.51,7.5 L22.01,7.5 C22.562,7.5 23.01,7.948 23.01,8.5 C23.01,9.052 22.562,9.5 22.01,9.5 L20.51,9.5 C19.958,9.5 19.51,9.052 19.51,8.5 Z"/>
</svg>
