<svg xmlns="http://www.w3.org/2000/svg" width="24" height="24" viewBox="0 0 24 24">
  <defs/>
  <path d="M11.995,1.951 C12.05,2.5 11.648,2.99 11.099,3.044 C6.552,3.496 3,7.334 3,12 C3,12.112 3.002,12.224 3.006,12.335 C3.654,12.444 4.32,12.5 5,12.5 C8.306,12.5 11.299,11.164 13.471,9 L12,9 C11.448,9 11,8.552 11,8 C11,7.448 11.448,7 12,7 L15.608,7 Q15.621,7 15.633,7 L16,7 C16.552,7 17,7.448 17,8 L17,12 C17,12.552 16.552,13 16,13 C15.448,13 15,12.552 15,12 L15,10.298 C12.46,12.89 8.918,14.5 5,14.5 C4.433,14.5 3.874,14.466 3.324,14.401 C4.374,18.206 7.861,21 12,21 C16.666,21 20.504,17.448 20.955,12.901 C21.01,12.352 21.5,11.95 22.049,12.005 C22.599,12.059 23,12.549 22.946,13.099 C22.394,18.659 17.705,23 12,23 C5.925,23 1,18.075 1,12 C1,6.296 5.341,1.606 10.901,1.054 C11.451,1 11.941,1.401 11.995,1.951 Z M15.5,1 C16.052,1 16.5,1.448 16.5,2 L16.5,3.5 C16.5,4.052 16.052,4.5 15.5,4.5 C14.948,4.5 14.5,4.052 14.5,3.5 L14.5,2 C14.5,1.448 14.948,1 15.5,1 Z M21.207,2.793 C21.598,3.183 21.598,3.817 21.207,4.207 L20.146,5.268 C19.756,5.658 19.123,5.658 18.732,5.268 C18.342,4.877 18.342,4.244 18.732,3.854 L19.793,2.793 C20.183,2.402 20.817,2.402 21.207,2.793 Z M19.51,8.5 C19.51,7.948 19.958,7.5 20.51,7.5 L22.01,7.5 C22.562,7.5 23.01,7.948 23.01,8.5 C23.01,9.052 22.562,9.5 22.01,9.5 L20.51,9.5 C19.958,9.5 19.51,9.052 19.51,8.5 Z"/>
</svg>
