<svg xmlns="http://www.w3.org/2000/svg" width="24" height="24" viewBox="0 0 24 24">
  <defs/>
  <path d="M8.866,2.154 C10.672,0.615 13.328,0.615 15.134,2.154 C15.588,2.541 16.152,2.774 16.746,2.822 C19.111,3.011 20.989,4.889 21.178,7.254 C21.226,7.848 21.459,8.412 21.846,8.866 C23.385,10.672 23.385,13.328 21.846,15.134 C21.459,15.588 21.226,16.152 21.178,16.746 C20.989,19.111 19.111,20.989 16.746,21.178 C16.152,21.226 15.588,21.459 15.134,21.846 C13.328,23.385 10.672,23.385 8.866,21.846 C8.412,21.459 7.848,21.226 7.254,21.178 C4.889,20.989 3.011,19.111 2.822,16.746 C2.774,16.152 2.541,15.588 2.154,15.134 C0.615,13.328 0.615,10.672 2.154,8.866 C2.541,8.412 2.774,7.848 2.822,7.254 C3.011,4.889 4.889,3.011 7.254,2.822 C7.848,2.774 8.412,2.541 8.866,2.154 Z M13.837,3.677 C12.778,2.774 11.222,2.774 10.163,3.677 C9.389,4.336 8.427,4.735 7.413,4.816 C6.027,4.926 4.926,6.027 4.816,7.413 C4.735,8.427 4.336,9.389 3.677,10.163 C2.774,11.222 2.774,12.778 3.677,13.837 C4.336,14.611 4.735,15.573 4.816,16.587 C4.926,17.973 6.027,19.074 7.413,19.184 C8.427,19.265 9.389,19.664 10.163,20.323 C11.222,21.226 12.778,21.226 13.837,20.323 C14.611,19.664 15.573,19.265 16.587,19.184 C17.973,19.074 19.074,17.973 19.184,16.587 C19.265,15.573 19.664,14.611 20.323,13.837 C21.226,12.778 21.226,11.222 20.323,10.163 C19.664,9.389 19.265,8.427 19.184,7.413 C19.074,6.027 17.973,4.926 16.587,4.816 C15.573,4.735 14.611,4.336 13.837,3.677 Z M16.207,8.793 C16.598,9.183 16.598,9.817 16.207,10.207 L11.707,14.707 C11.317,15.098 10.683,15.098 10.293,14.707 L8.293,12.707 C7.902,12.317 7.902,11.683 8.293,11.293 C8.683,10.902 9.317,10.902 9.707,11.293 L11,12.586 L14.793,8.793 C15.183,8.402 15.817,8.402 16.207,8.793 Z"/>
</svg>
