<svg xmlns="http://www.w3.org/2000/svg" width="24" height="24" viewBox="0 0 24 24">
  <defs/>
  <path d="M15.663,3.779 C13.89,2.989 11.91,2.794 10.017,3.221 C8.124,3.649 6.419,4.677 5.158,6.153 C3.897,7.628 3.147,9.471 3.02,11.408 C2.892,13.344 3.394,15.27 4.45,16.899 C5.506,18.527 7.061,19.77 8.881,20.442 C10.701,21.115 12.691,21.181 14.552,20.631 C16.413,20.08 18.046,18.943 19.208,17.389 C20.371,15.834 20.999,13.946 21,12.005 L21,11.086 C21,10.533 21.448,10.086 22,10.086 C22.552,10.086 23,10.533 23,11.086 L23,12.006 C22.999,14.378 22.231,16.686 20.81,18.586 C19.39,20.486 17.394,21.876 15.119,22.549 C12.844,23.221 10.413,23.14 8.188,22.318 C5.963,21.496 4.063,19.977 2.772,17.987 C1.481,15.997 0.868,13.643 1.024,11.276 C1.18,8.909 2.097,6.656 3.638,4.853 C5.179,3.05 7.262,1.793 9.576,1.27 C11.89,0.748 14.31,0.987 16.477,1.952 C16.982,2.177 17.208,2.768 16.983,3.273 C16.759,3.777 16.167,4.004 15.663,3.779 Z M22.707,3.293 C23.097,3.683 23.098,4.316 22.708,4.707 L12.708,14.717 C12.52,14.904 12.266,15.01 12,15.01 C11.735,15.01 11.481,14.905 11.293,14.717 L8.293,11.717 C7.902,11.327 7.902,10.693 8.293,10.303 C8.683,9.912 9.317,9.912 9.707,10.303 L12,12.595 L21.292,3.293 C21.683,2.903 22.316,2.902 22.707,3.293 Z"/>
</svg>
