<svg xmlns="http://www.w3.org/2000/svg" width="24" height="24" viewBox="0 0 24 24">
  <defs/>
  <path d="M12.839,1 L12.839,1 C13.366,1 13.821,1 14.195,1.031 C14.59,1.063 14.984,1.134 15.362,1.327 C15.927,1.615 16.385,2.074 16.673,2.638 C16.866,3.016 16.937,3.41 16.969,3.805 C17,4.18 17,4.634 17,5.161 L17,7 L18.838,7 C19.366,7 19.82,7 20.195,7.031 C20.59,7.063 20.984,7.134 21.362,7.327 C21.927,7.615 22.385,8.074 22.673,8.638 C22.866,9.016 22.937,9.41 22.969,9.805 C23,10.179 23,10.634 23,11.161 L23,18.839 C23,19.366 23,19.82 22.969,20.195 C22.937,20.59 22.866,20.984 22.673,21.362 C22.385,21.927 21.927,22.385 21.362,22.673 C20.984,22.866 20.59,22.937 20.195,22.969 C19.82,23 19.366,23 18.839,23 L11.161,23 C10.634,23 10.179,23 9.805,22.969 C9.41,22.937 9.016,22.866 8.638,22.673 C8.074,22.385 7.615,21.927 7.327,21.362 C7.134,20.984 7.063,20.59 7.031,20.195 C7,19.82 7,19.366 7,18.838 L7,17 L5.161,17 C4.634,17 4.18,17 3.805,16.969 C3.41,16.937 3.016,16.866 2.638,16.673 C2.074,16.385 1.615,15.927 1.327,15.362 C1.134,14.984 1.063,14.59 1.031,14.195 C1,13.821 1,13.366 1,12.839 L1,5.161 C1,4.634 1,4.18 1.031,3.805 C1.063,3.41 1.134,3.016 1.327,2.638 C1.615,2.074 2.074,1.615 2.638,1.327 C3.016,1.134 3.41,1.063 3.805,1.031 C4.18,1 4.634,1 5.161,1 L12.839,1 Z M9,18.8 C9,19.377 9.001,19.749 9.024,20.032 C9.046,20.304 9.084,20.404 9.109,20.454 C9.205,20.642 9.358,20.795 9.546,20.891 C9.595,20.916 9.696,20.954 9.968,20.976 C10.251,20.999 10.623,21 11.2,21 L18.8,21 C19.377,21 19.749,20.999 20.032,20.976 C20.304,20.954 20.404,20.916 20.454,20.891 C20.642,20.795 20.795,20.642 20.891,20.454 C20.916,20.405 20.954,20.304 20.976,20.032 C20.999,19.749 21,19.377 21,18.8 L21,11.2 C21,10.623 20.999,10.251 20.976,9.968 C20.954,9.696 20.916,9.595 20.891,9.546 C20.795,9.358 20.642,9.205 20.454,9.109 C20.405,9.084 20.304,9.046 20.032,9.024 C19.749,9.001 19.377,9 18.8,9 L11.2,9 C10.623,9 10.251,9.001 9.968,9.024 C9.696,9.046 9.595,9.084 9.546,9.109 C9.358,9.205 9.205,9.358 9.109,9.546 C9.084,9.595 9.046,9.696 9.024,9.968 C9.001,10.251 9,10.623 9,11.2 Z M15,7 L15,5.2 C15,4.623 14.999,4.251 14.976,3.968 C14.954,3.696 14.916,3.595 14.891,3.546 C14.795,3.358 14.642,3.205 14.454,3.109 C14.405,3.084 14.304,3.046 14.032,3.024 C13.749,3.001 13.377,3 12.8,3 L5.2,3 C4.623,3 4.251,3.001 3.968,3.024 C3.696,3.046 3.595,3.084 3.546,3.109 C3.358,3.205 3.205,3.358 3.109,3.546 C3.084,3.595 3.046,3.696 3.024,3.968 C3.001,4.251 3,4.623 3,5.2 L3,12.8 C3,13.377 3.001,13.749 3.024,14.032 C3.046,14.304 3.084,14.405 3.109,14.454 C3.205,14.642 3.358,14.795 3.546,14.891 C3.595,14.916 3.696,14.954 3.968,14.976 C4.251,14.999 4.623,15 5.2,15 L7,15 L7,11.161 C7,10.634 7,10.179 7.031,9.805 C7.063,9.41 7.134,9.016 7.327,8.638 C7.615,8.074 8.074,7.615 8.638,7.327 C9.016,7.134 9.41,7.063 9.805,7.031 C10.179,7 10.634,7 11.161,7 Z M19.207,11.793 C19.598,12.183 19.598,12.817 19.207,13.207 L14.707,17.707 C14.317,18.098 13.683,18.098 13.293,17.707 L11.293,15.707 C10.902,15.317 10.902,14.683 11.293,14.293 C11.683,13.902 12.317,13.902 12.707,14.293 L14,15.586 L17.793,11.793 C18.183,11.402 18.817,11.402 19.207,11.793 Z"/>
</svg>
