<svg xmlns="http://www.w3.org/2000/svg" width="24" height="24" viewBox="0 0 24 24">
  <defs/>
  <path d="M1,12 C1,5.925 5.925,1 12,1 C18.075,1 23,5.925 23,12 C23,18.075 18.075,23 12,23 C5.925,23 1,18.075 1,12 Z M12,3 C7.029,3 3,7.029 3,12 C3,16.971 7.029,21 12,21 C16.971,21 21,16.971 21,12 C21,7.029 16.971,3 12,3 Z M17.207,8.293 C17.598,8.683 17.598,9.317 17.207,9.707 L11.207,15.707 C10.817,16.098 10.183,16.098 9.793,15.707 L6.793,12.707 C6.402,12.317 6.402,11.683 6.793,11.293 C7.183,10.902 7.817,10.902 8.207,11.293 L10.5,13.586 L15.793,8.293 C16.183,7.902 16.817,7.902 17.207,8.293 Z"/>
</svg>
