<svg width="24" height="24" viewBox="0 0 24 24" fill="none" xmlns="http://www.w3.org/2000/svg">
<g clip-path="url(#clip0_1_2)">
<mask id="mask0_1_2" style="mask-type:luminance" maskUnits="userSpaceOnUse" x="0" y="0" width="24" height="24">
<path d="M24 0H0V24H24V0Z" fill="white"/>
</mask>
<g mask="url(#mask0_1_2)">
<path d="M19.7496 5.46858C19.1987 5.23981 18.7612 4.80162 18.5332 4.25035L18.5335 4.2537L17.733 2.32129C17.5046 1.77012 17.0667 1.33223 16.5155 1.10392C15.9643 0.875598 15.345 0.875551 14.7937 1.10379L12.8611 1.90087C12.3101 2.1295 11.6909 2.12996 11.1395 1.90216L9.20908 1.10255C8.65777 0.874183 8.03832 0.874183 7.48701 1.10255C6.93569 1.33091 6.49768 1.76892 6.26932 2.32024L5.46912 4.25207C5.24019 4.80236 4.80226 5.23934 4.25147 5.46708L2.32102 6.2667C2.04789 6.37973 1.79971 6.54547 1.59066 6.75446C1.38161 6.96344 1.21579 7.21157 1.10267 7.48466C0.989547 7.75776 0.931349 8.05047 0.931397 8.34606C0.931444 8.64166 0.989735 8.93435 1.10294 9.20741L1.90141 11.1406C2.13004 11.6916 2.1305 12.3108 1.90271 12.8622L1.10309 14.7926C0.875194 15.3438 0.875505 15.963 1.10395 16.514C1.3324 17.065 1.77028 17.5027 2.32135 17.731L4.25319 18.5312C4.80411 18.76 5.24164 19.1981 5.46958 19.7494L6.27001 21.6818C6.49853 22.2325 6.9363 22.67 7.48717 22.8982C8.03803 23.1264 8.65694 23.1266 9.20795 22.8988L11.1398 22.0997C11.6908 21.8711 12.31 21.8706 12.8613 22.0984L14.7918 22.898C15.3431 23.1264 15.9625 23.1264 16.5138 22.898C17.0652 22.6697 17.5032 22.2317 17.7315 21.6803L18.5317 19.7485C18.7605 19.1976 19.1987 18.76 19.75 18.5321L21.6804 17.7325C21.9535 17.6195 22.2017 17.4537 22.4108 17.2447C22.6198 17.0357 22.7856 16.7876 22.8988 16.5145C23.0119 16.2414 23.0701 15.9487 23.07 15.6531C23.07 15.3575 23.0117 15.0648 22.8985 14.7918L22.1003 12.8619C21.8707 12.3106 21.8711 11.6905 22.0995 11.139L22.8991 9.20854C23.1275 8.65722 23.1275 8.03778 22.8991 7.48646C22.6708 6.93515 22.2328 6.49713 21.6815 6.26877L19.7496 5.46858ZM16.8493 8.00591C16.914 8.29734 16.8602 8.60254 16.6999 8.85436L11.4499 17.1044C11.3539 17.2555 11.2231 17.3816 11.0685 17.4721C10.914 17.5625 10.74 17.6148 10.5612 17.6245C10.3823 17.6342 10.2037 17.601 10.0403 17.5278C9.87683 17.4545 9.73323 17.3433 9.62143 17.2034L6.62143 13.4534C6.43504 13.2202 6.34891 12.9226 6.38196 12.626C6.41501 12.3293 6.56455 12.058 6.79768 11.8716C7.0308 11.6852 7.32842 11.5991 7.62505 11.6321C7.92169 11.6652 8.19304 11.8147 8.37943 12.0479L10.3954 14.5679L14.8009 7.64536C14.9612 7.39354 15.215 7.21572 15.5065 7.15102C15.7979 7.08632 16.1031 7.14004 16.3549 7.30036C16.6067 7.46069 16.7846 7.71448 16.8493 8.00591Z" fill="black"/>
</g>
</g>
<defs>
<clipPath id="clip0_1_2">
<rect width="24" height="24" fill="white"/>
</clipPath>
</defs>
</svg>
