<svg xmlns="http://www.w3.org/2000/svg" width="24" height="24" viewBox="0 0 24 24">
  <defs/>
  <path d="M13.283,1.436 L14.531,2.394 C14.552,2.411 14.579,2.417 14.604,2.414 L14.61,2.413 L16.172,2.208 L16.172,2.208 C17.116,2.083 18.03,2.609 18.395,3.492 L18.996,4.946 C19.006,4.972 19.026,4.992 19.052,5.002 L19.053,5.003 L20.507,5.604 C21.388,5.969 21.915,6.88 21.79,7.826 L21.584,9.39 C21.581,9.417 21.588,9.445 21.606,9.468 L22.563,10.715 L22.564,10.716 C23.146,11.473 23.145,12.526 22.564,13.283 L21.64,14.487 C21.601,14.537 21.584,14.601 21.592,14.665 L21.79,16.171 C21.914,17.116 21.389,18.029 20.507,18.394 L18.879,19.333 L18.394,20.506 L18.394,20.507 C18.029,21.388 17.118,21.915 16.172,21.79 L14.91,21.624 L13.282,22.564 L13.283,22.563 L14.53,21.606 C14.553,21.588 14.581,21.581 14.608,21.584 L14.61,21.585 L14.91,21.624 L18.879,19.333 L18.996,19.052 C19.006,19.026 19.026,19.006 19.052,18.996 L19.053,18.995 L20.507,18.394 L19.723,16.554 L18.29,17.146 L18.29,13.19 L14.552,4.415 C14.105,4.406 13.671,4.255 13.315,3.982 L13.314,3.981 L14.407,4.074 L13.283,1.436 L10.91,7.33 L9.819,11.404 L11,12.586 L14.793,8.793 C15.183,8.402 15.817,8.402 16.207,8.793 C16.598,9.183 16.598,9.817 16.207,10.207 L11.707,14.707 C11.317,15.098 10.683,15.098 10.293,14.707 L9.221,13.635 L7.567,19.808 L9.071,19.61 C9.661,19.531 10.259,19.691 10.731,20.054 L7.567,19.808 C7.518,19.815 7.472,19.786 7.454,19.743 L6.853,18.29 L6.853,18.29 L6.853,18.29 C6.798,18.157 6.73,18.03 6.65,17.912 L5.605,20.507 L5.004,19.053 C4.994,19.027 4.974,19.007 4.948,18.997 L3.492,18.395 C2.612,18.029 2.085,17.119 2.21,16.173 L2.416,14.609 C2.419,14.582 2.412,14.554 2.395,14.531 L2.395,14.531 L2.395,14.531 L1.437,13.283 L1.436,13.283 C0.854,12.526 0.855,11.473 1.436,10.717 L2.394,9.469 C2.41,9.447 2.419,9.418 2.415,9.388 L2.21,7.828 C2.085,6.881 2.612,5.971 3.492,5.605 L4.944,5.006 C4.972,4.994 4.994,4.972 5.006,4.944 L5.605,3.493 C5.97,2.612 6.881,2.085 7.827,2.21 L9.387,2.415 C9.416,2.419 9.447,2.411 9.471,2.393 L10.716,1.437 C11.473,0.854 12.527,0.855 13.283,1.436 Z M12.065,3.022 C12.026,2.992 11.973,2.993 11.936,3.021 L10.686,3.981 L10.683,3.983 C10.241,4.321 9.683,4.47 9.13,4.399 L7.566,4.193 C7.519,4.187 7.472,4.212 7.453,4.259 L6.851,5.715 C6.637,6.228 6.228,6.637 5.715,6.852 L5.711,6.853 L4.259,7.453 C4.213,7.472 4.187,7.519 4.193,7.566 L4.399,9.13 C4.47,9.683 4.321,10.242 3.982,10.685 L3.022,11.935 C2.992,11.974 2.993,12.027 3.021,12.063 L3.022,12.064 L3.981,13.313 C4.321,13.756 4.472,14.317 4.398,14.872 L4.398,14.873 L4.193,16.434 C4.187,16.481 4.213,16.528 4.259,16.547 L5.71,17.147 L5.711,17.148 C6.095,17.307 6.42,17.574 6.65,17.912 L8.616,13.03 L9.221,13.635 L9.819,11.404 L9.707,11.293 C9.616,11.202 9.511,11.132 9.399,11.083 L10.91,7.33 Z M18.29,6.851 L18.29,13.19 L19.723,16.554 L19.743,16.545 C19.786,16.528 19.814,16.481 19.807,16.432 L19.61,14.928 C19.531,14.337 19.692,13.739 20.055,13.266 L20.055,13.266 L20.055,13.266 L20.978,12.064 C21.008,12.025 21.007,11.972 20.979,11.936 L20.018,10.685 C19.679,10.242 19.528,9.682 19.602,9.127 L19.602,9.125 L19.807,7.565 C19.813,7.518 19.787,7.471 19.741,7.452 Z M10.732,20.055 L17.147,18.29 L16.546,19.741 C16.527,19.788 16.48,19.813 16.433,19.807 L14.873,19.602 L14.872,19.602 C14.316,19.528 13.756,19.679 13.312,20.019 L12.062,20.979 C12.026,21.007 11.973,21.007 11.934,20.978 Z M8.616,13.03 L8.293,12.707 C7.902,12.317 7.902,11.683 8.293,11.293 C8.592,10.994 9.034,10.924 9.399,11.083 L8.616,13.03 Z M16.546,4.255 C16.528,4.212 16.482,4.184 16.433,4.191 L16.18,4.224 L14.407,4.074 L14.552,4.415 C14.658,4.417 14.766,4.41 14.873,4.396 L16.18,4.224 Z M17.147,5.708 L17.147,5.709 C17.361,6.227 17.771,6.637 18.289,6.851 Z"/>
</svg>
