<svg xmlns="http://www.w3.org/2000/svg" width="24" height="24" viewBox="0 0 24 24">
  <defs/>
  <path d="M9.707,6.293 C10.098,6.683 10.098,7.317 9.707,7.707 L5.414,12 L9.707,16.293 C10.098,16.683 10.098,17.317 9.707,17.707 C9.317,18.098 8.683,18.098 8.293,17.707 L3.293,12.707 C2.902,12.317 2.902,11.683 3.293,11.293 L8.293,6.293 C8.683,5.902 9.317,5.902 9.707,6.293 Z M14.293,6.293 C14.683,5.902 15.317,5.902 15.707,6.293 L20.707,11.293 C21.098,11.683 21.098,12.317 20.707,12.707 L15.707,17.707 C15.317,18.098 14.683,18.098 14.293,17.707 C13.902,17.317 13.902,16.683 14.293,16.293 L18.586,12 L14.293,7.707 C13.902,7.317 13.902,6.683 14.293,6.293 Z"/>
</svg>
