<svg xmlns="http://www.w3.org/2000/svg" width="24" height="24" viewBox="0 0 24 24">
  <defs/>
  <path d="M5.293,6.293 C5.683,5.902 6.317,5.902 6.707,6.293 L11.707,11.293 C12.098,11.683 12.098,12.317 11.707,12.707 L6.707,17.707 C6.317,18.098 5.683,18.098 5.293,17.707 C4.902,17.317 4.902,16.683 5.293,16.293 L9.586,12 L5.293,7.707 C4.902,7.317 4.902,6.683 5.293,6.293 Z M12.293,6.293 C12.683,5.902 13.317,5.902 13.707,6.293 L18.707,11.293 C19.098,11.683 19.098,12.317 18.707,12.707 L13.707,17.707 C13.317,18.098 12.683,18.098 12.293,17.707 C11.902,17.317 11.902,16.683 12.293,16.293 L16.586,12 L12.293,7.707 C11.902,7.317 11.902,6.683 12.293,6.293 Z"/>
</svg>
