<svg xmlns="http://www.w3.org/2000/svg" width="24" height="24" viewBox="0 0 24 24">
  <defs/>
  <path d="M11.293,5.293 C11.683,4.902 12.317,4.902 12.707,5.293 L17.707,10.293 C18.098,10.683 18.098,11.317 17.707,11.707 C17.317,12.098 16.683,12.098 16.293,11.707 L12,7.414 L7.707,11.707 C7.317,12.098 6.683,12.098 6.293,11.707 C5.902,11.317 5.902,10.683 6.293,10.293 Z M6.293,17.293 L11.293,12.293 C11.683,11.902 12.317,11.902 12.707,12.293 L17.707,17.293 C18.098,17.683 18.098,18.317 17.707,18.707 C17.317,19.098 16.683,19.098 16.293,18.707 L12,14.414 L7.707,18.707 C7.317,19.098 6.683,19.098 6.293,18.707 C5.902,18.317 5.902,17.683 6.293,17.293 Z"/>
</svg>
