<svg xmlns="http://www.w3.org/2000/svg" width="24" height="24" viewBox="0 0 24 24">
  <defs/>
  <path d="M6.293,5.293 C6.683,4.902 7.317,4.902 7.707,5.293 L12,9.586 L16.293,5.293 C16.683,4.902 17.317,4.902 17.707,5.293 C18.098,5.683 18.098,6.317 17.707,6.707 L12.707,11.707 C12.317,12.098 11.683,12.098 11.293,11.707 L6.293,6.707 C5.902,6.317 5.902,5.683 6.293,5.293 Z M6.293,12.293 C6.683,11.902 7.317,11.902 7.707,12.293 L12,16.586 L16.293,12.293 C16.683,11.902 17.317,11.902 17.707,12.293 C18.098,12.683 18.098,13.317 17.707,13.707 L12.707,18.707 C12.317,19.098 11.683,19.098 11.293,18.707 L6.293,13.707 C5.902,13.317 5.902,12.683 6.293,12.293 Z"/>
</svg>
