<svg xmlns="http://www.w3.org/2000/svg" width="24" height="24" viewBox="0 0 24 24">
  <defs/>
  <path d="M11.293,3.293 C11.683,2.902 12.317,2.902 12.707,3.293 L17.707,8.293 C18.098,8.683 18.098,9.317 17.707,9.707 C17.317,10.098 16.683,10.098 16.293,9.707 L12,5.414 L7.707,9.707 C7.317,10.098 6.683,10.098 6.293,9.707 C5.902,9.317 5.902,8.683 6.293,8.293 Z M6.293,14.293 C6.683,13.902 7.317,13.902 7.707,14.293 L12,18.586 L16.293,14.293 C16.683,13.902 17.317,13.902 17.707,14.293 C18.098,14.683 18.098,15.317 17.707,15.707 L12.707,20.707 C12.317,21.098 11.683,21.098 11.293,20.707 L6.293,15.707 C5.902,15.317 5.902,14.683 6.293,14.293 Z"/>
</svg>
