<svg xmlns="http://www.w3.org/2000/svg" width="24" height="24" viewBox="0 0 24 24">
  <defs/>
  <path d="M11.707,6.293 C12.098,6.683 12.098,7.317 11.707,7.707 L7.414,12 L11.707,16.293 C12.098,16.683 12.098,17.317 11.707,17.707 C11.317,18.098 10.683,18.098 10.293,17.707 L5.293,12.707 C4.902,12.317 4.902,11.683 5.293,11.293 L10.293,6.293 C10.683,5.902 11.317,5.902 11.707,6.293 Z M18.707,6.293 C19.098,6.683 19.098,7.317 18.707,7.707 L14.414,12 L18.707,16.293 C19.098,16.683 19.098,17.317 18.707,17.707 C18.317,18.098 17.683,18.098 17.293,17.707 L12.293,12.707 C11.902,12.317 11.902,11.683 12.293,11.293 L17.293,6.293 C17.683,5.902 18.317,5.902 18.707,6.293 Z"/>
</svg>
