<svg width="24" height="24" viewBox="0 0 24 24" fill="none" xmlns="http://www.w3.org/2000/svg">
<path d="M3.05274 1.10553C3.51585 0.874002 4.07246 1.03582 4.34376 1.46393L4.39454 1.55279L4.54298 1.86236C4.73681 2.28307 4.93472 2.77965 5.12696 3.34381H6.0879C6.74178 3.25884 7.48172 3.51464 7.86817 4.1651L8.29493 4.88189L9.2461 5.12994L9.24708 5.13092C9.94718 5.31358 10.5824 5.94806 10.5225 6.82135L10.4707 7.56451L11.0684 8.12408C11.6768 8.69256 11.7533 9.59847 11.252 10.2608L10.7568 10.9141L10.9326 11.6378L10.9629 11.796C11.0741 12.5786 10.5799 13.2407 9.96192 13.5206H9.96095L9.06544 13.9239L8.76759 14.7032L8.76661 14.7051C8.49619 15.4074 7.81576 15.7866 7.15724 15.8155L7.02638 15.8165L6.14649 15.793C5.85255 17.8865 5.31243 20.0972 4.43165 22.3624C4.23148 22.8771 3.65243 23.1318 3.1377 22.9317C2.62299 22.7315 2.36822 22.1525 2.56837 21.6378C5.84658 13.2071 4.07426 5.63389 2.73341 2.7149L2.60548 2.44732L2.56446 2.35357C2.38472 1.87964 2.58963 1.33709 3.05274 1.10553ZM18.1201 1.10553C18.5833 0.873948 19.1409 1.03559 19.4121 1.46393L19.4619 1.55279L19.6104 1.86236C21.1537 5.21201 23.0021 13.3557 19.5 22.3624L19.458 22.4561C19.2275 22.9075 18.6876 23.1193 18.2051 22.9317C17.6906 22.7314 17.4357 22.1524 17.6358 21.6378L17.8428 21.0792C17.3588 20.9229 16.95 20.5636 16.7461 20.0694V20.0684L16.3613 19.1387L15.4307 18.754L15.4297 18.753C14.6885 18.4454 14.2444 17.6782 14.3496 16.8809L14.4805 15.879L13.8672 15.0801V15.0792C13.3775 14.4416 13.3785 13.5555 13.8672 12.919L14.4805 12.1192L14.3496 11.1182C14.2446 10.3211 14.6886 9.55471 15.4297 9.24713L15.4317 9.24615L16.3613 8.86139L16.7461 7.9317V7.92975C17.0536 7.1885 17.8209 6.74452 18.6182 6.84967L19.0567 6.90729C18.718 5.10503 18.2377 3.66391 17.8018 2.7149L17.6729 2.44732L17.6318 2.35357C17.4522 1.87975 17.6572 1.33714 18.1201 1.10553ZM9.35743 18.2442C9.77496 17.8827 10.4061 17.9282 10.7676 18.3458C11.1291 18.7633 11.0835 19.3944 10.666 19.7559L9.15431 21.0655L9.07423 21.128C8.65954 21.4195 8.08317 21.3553 7.74415 20.9639C7.38264 20.5464 7.42819 19.9143 7.84571 19.5528L9.35743 18.2442ZM18.1748 9.71197L18.1729 9.71588C17.9921 10.1483 17.6482 10.4921 17.2158 10.6729L17.2119 10.6749L16.3545 11.0284L16.4766 11.9512V11.9522C16.5369 12.4171 16.4115 12.8888 16.126 13.2618L16.125 13.2628L15.5586 13.9991L16.125 14.7364V14.7374C16.4106 15.1099 16.5372 15.5808 16.4756 16.0479L16.4766 16.0489L16.3545 16.9708L17.2129 17.3262H17.2119C17.6484 17.5064 17.9948 17.8526 18.1748 18.2891H18.1738L18.4922 19.0587C19.5384 15.3137 19.6534 11.8295 19.3545 8.96393L18.5283 8.85455L18.1748 9.71197ZM6.16017 5.34381H5.7002C6.24195 7.61877 6.58802 10.5259 6.35645 13.7969L6.96583 13.8135L7.24415 13.0879L7.2461 13.0831C7.41726 12.6427 7.76124 12.3205 8.15138 12.1426L8.15528 12.1417L8.91309 11.7989L8.76661 11.1924L8.76563 11.1905C8.65011 10.7095 8.77132 10.2262 9.05079 9.85553L9.05177 9.85357L9.44044 9.33893L8.97071 8.8985H8.96974C8.63075 8.58029 8.42784 8.12193 8.4629 7.62408L8.50392 7.00299L7.69923 6.79498V6.794C7.28157 6.68564 6.88471 6.4256 6.64161 6.01568V6.01471L6.24024 5.3399C6.21364 5.34204 6.18688 5.34381 6.16017 5.34381ZM13.8076 3.85162C13.8896 3.30546 14.3992 2.92885 14.9453 3.0108C15.4914 3.0928 15.8681 3.60237 15.7861 4.1485L15.4893 6.12604C15.4073 6.67221 14.8977 7.04881 14.3516 6.96686C13.8054 6.88489 13.4288 6.37532 13.5108 5.82916L13.8076 3.85162Z" fill="black"/>
</svg>
