<svg xmlns="http://www.w3.org/2000/svg" width="24" height="24" viewBox="0 0 24 24">
  <defs/>
  <path d="M17.241,2 L17.241,2 C18.046,2 18.711,2 19.252,2.044 C19.814,2.09 20.331,2.189 20.816,2.436 C21.569,2.819 22.181,3.431 22.564,4.184 C22.811,4.669 22.91,5.186 22.956,5.748 C23,6.289 23,6.954 23,7.759 L23,16.241 C23,17.046 23,17.711 22.956,18.252 C22.91,18.814 22.811,19.331 22.564,19.816 C22.181,20.569 21.569,21.181 20.816,21.564 C20.331,21.811 19.814,21.91 19.252,21.956 C18.711,22 18.046,22 17.241,22 L14,22 C13.448,22 13,21.552 13,21 C13,20.448 13.448,20 14,20 L17.2,20 C18.056,20 18.639,19.999 19.089,19.962 C19.527,19.927 19.751,19.862 19.908,19.782 C20.284,19.59 20.59,19.284 20.782,18.908 C20.862,18.752 20.927,18.527 20.962,18.089 C20.999,17.639 21,17.057 21,16.2 L21,7.8 C21,6.943 20.999,6.361 20.962,5.911 C20.927,5.473 20.862,5.248 20.782,5.092 C20.59,4.716 20.284,4.41 19.908,4.218 C19.751,4.138 19.527,4.073 19.089,4.038 C18.639,4.001 18.056,4 17.2,4 L6.8,4 C5.943,4 5.361,4.001 4.911,4.038 C4.473,4.073 4.248,4.138 4.092,4.218 C3.716,4.41 3.41,4.716 3.218,5.092 C3.138,5.248 3.073,5.473 3.037,5.911 C3.001,6.361 3,6.943 3,7.8 L3,8 C3,8.552 2.552,9 2,9 C1.448,9 1,8.552 1,8 L1,7.759 C1,6.954 1,6.289 1.044,5.748 C1.09,5.186 1.189,4.669 1.436,4.184 C1.819,3.431 2.431,2.819 3.184,2.436 C3.669,2.189 4.186,2.09 4.748,2.044 C5.289,2 5.954,2 6.759,2 L17.241,2 Z M1.006,11.939 C1.067,11.391 1.562,10.995 2.11,11.056 C4.367,11.307 6.471,12.318 8.076,13.924 C9.682,15.529 10.693,17.633 10.944,19.889 C11.005,20.438 10.609,20.933 10.061,20.994 C9.512,21.055 9.017,20.659 8.956,20.111 C8.755,18.305 7.946,16.622 6.662,15.338 C5.378,14.054 3.695,13.245 1.889,13.044 C1.341,12.983 0.945,12.488 1.006,11.939 Z M1.02,15.9 C1.13,15.359 1.659,15.01 2.2,15.12 C3.353,15.355 4.411,15.924 5.243,16.757 C6.076,17.589 6.645,18.647 6.88,19.8 C6.99,20.341 6.641,20.869 6.1,20.98 C5.559,21.09 5.03,20.741 4.92,20.2 C4.763,19.431 4.384,18.726 3.829,18.171 C3.274,17.616 2.569,17.237 1.8,17.08 C1.259,16.969 0.91,16.441 1.02,15.9 Z M1,20 C1,19.448 1.448,19 2,19 L2.01,19 C2.562,19 3.01,19.448 3.01,20 C3.01,20.552 2.562,21 2.01,21 L2,21 C1.448,21 1,20.552 1,20 Z"/>
</svg>
