<svg xmlns="http://www.w3.org/2000/svg" width="24" height="24" viewBox="0 0 24 24">
  <defs/>
  <path d="M6.5,2.471 C8.118,1.536 9.997,1 12,1 C18.075,1 23,5.925 23,12 C23,18.075 18.075,23 12,23 C5.925,23 1,18.075 1,12 C1,7.928 3.212,4.373 6.5,2.471 Z M8.998,3.513 C11.441,5.529 13,8.582 13,12 C13,15.418 11.441,18.471 8.998,20.487 C9.937,20.819 10.947,21 12,21 C16.971,21 21,16.971 21,12 C21,7.029 16.971,3 12,3 C10.947,3 9.937,3.181 8.998,3.513 Z M7,4.515 C4.588,6.13 3,8.88 3,12 C3,15.12 4.588,17.87 7,19.485 C9.414,17.869 11,15.119 11,12 C11,8.881 9.414,6.131 7,4.515 Z"/>
</svg>
