<svg xmlns="http://www.w3.org/2000/svg" width="24" height="24" viewBox="0 0 24 24">
  <defs/>
  <path d="M9.568,1 L14.432,1 L14.432,1 C14.685,1 14.93,1 15.138,1.017 C15.367,1.036 15.637,1.08 15.908,1.218 C16.284,1.41 16.59,1.716 16.782,2.092 C16.92,2.363 16.965,2.633 16.983,2.862 C16.987,2.909 16.99,2.958 16.992,3.008 C17.387,3.021 17.726,3.053 18.035,3.136 C19.416,3.506 20.494,4.584 20.864,5.965 C21.001,6.476 21.001,7.067 21,7.862 L21,17.241 C21,18.046 21,18.711 20.956,19.252 C20.91,19.814 20.811,20.331 20.564,20.816 C20.181,21.569 19.569,22.181 18.816,22.564 C18.331,22.811 17.814,22.91 17.252,22.956 C16.711,23 16.046,23 15.241,23 L8.759,23 C7.954,23 7.289,23 6.748,22.956 C6.186,22.91 5.669,22.811 5.184,22.564 C4.431,22.181 3.82,21.569 3.436,20.816 C3.189,20.331 3.09,19.814 3.044,19.252 C3,18.711 3,18.046 3,17.241 L3,8 C3,7.953 3,7.908 3,7.862 L3,7.862 C3,7.067 2.999,6.476 3.136,5.965 C3.506,4.584 4.584,3.506 5.965,3.136 C6.274,3.053 6.613,3.021 7.008,3.008 C7.01,2.958 7.013,2.909 7.017,2.862 C7.036,2.633 7.08,2.363 7.218,2.092 C7.41,1.716 7.716,1.41 8.092,1.218 C8.364,1.08 8.633,1.036 8.862,1.017 C9.07,1 9.316,1 9.568,1 Z M7.009,5.01 C6.746,5.019 6.603,5.036 6.482,5.068 C5.792,5.253 5.253,5.792 5.068,6.482 C5.009,6.705 5,7.006 5,8 L5,17.2 C5,18.057 5.001,18.639 5.038,19.089 C5.073,19.527 5.138,19.752 5.218,19.908 C5.41,20.284 5.716,20.59 6.092,20.782 C6.249,20.862 6.473,20.927 6.911,20.962 C7.361,20.999 7.944,21 8.8,21 L15.2,21 C16.057,21 16.639,20.999 17.089,20.962 C17.528,20.927 17.752,20.862 17.908,20.782 C18.284,20.59 18.59,20.284 18.782,19.908 C18.862,19.752 18.927,19.527 18.962,19.089 C18.999,18.639 19,18.057 19,17.2 L19,8 C19,7.006 18.992,6.705 18.932,6.482 C18.747,5.792 18.208,5.253 17.518,5.068 C17.398,5.036 17.254,5.019 16.991,5.01 C16.989,5.054 16.986,5.097 16.983,5.138 C16.965,5.367 16.92,5.637 16.782,5.908 C16.59,6.284 16.284,6.59 15.908,6.782 C15.637,6.92 15.367,6.964 15.138,6.983 C14.93,7 14.684,7 14.432,7 L9.568,7 C9.316,7 9.07,7 8.862,6.983 C8.633,6.964 8.364,6.92 8.092,6.782 C7.716,6.59 7.41,6.284 7.218,5.908 C7.08,5.637 7.036,5.367 7.017,5.138 C7.014,5.097 7.011,5.054 7.009,5.01 Z M16.207,11.793 C16.598,12.183 16.598,12.817 16.207,13.207 L11.707,17.707 C11.317,18.098 10.684,18.098 10.293,17.707 L8.293,15.707 C7.902,15.317 7.902,14.683 8.293,14.293 C8.684,13.902 9.317,13.902 9.707,14.293 L11,15.586 L14.793,11.793 C15.184,11.402 15.817,11.402 16.207,11.793 Z M15,3.6 C15,3.303 14.999,3.141 14.99,3.025 C14.989,3.02 14.989,3.016 14.989,3.011 C14.984,3.011 14.98,3.011 14.976,3.01 C14.859,3.001 14.697,3 14.4,3 L9.6,3 C9.304,3 9.141,3.001 9.025,3.01 C9.02,3.011 9.016,3.011 9.012,3.011 C9.011,3.016 9.011,3.02 9.01,3.025 C9.001,3.141 9,3.303 9,3.6 L9,4.4 C9,4.697 9.001,4.859 9.01,4.975 C9.011,4.98 9.011,4.984 9.012,4.989 C9.016,4.989 9.02,4.989 9.025,4.99 C9.141,4.999 9.304,5 9.6,5 L14.4,5 C14.697,5 14.859,4.999 14.976,4.99 C14.98,4.989 14.984,4.989 14.989,4.989 C14.989,4.984 14.989,4.98 14.99,4.975 C14.999,4.859 15,4.697 15,4.4 Z"/>
</svg>
