<svg xmlns="http://www.w3.org/2000/svg" width="24" height="24" viewBox="0 0 24 24">
  <defs/>
  <path d="M17.645,7.06 C15.336,4.415 11.406,3.683 8.25,5.505 C6.091,6.751 4.786,8.907 4.541,11.213 C4.482,11.762 3.99,12.16 3.44,12.102 C2.891,12.043 2.493,11.551 2.552,11.002 C2.862,8.087 4.514,5.352 7.25,3.773 C11.378,1.389 16.553,2.457 19.432,6.081 L19.54,5.675 C19.683,5.142 20.232,4.825 20.765,4.968 C21.299,5.111 21.615,5.66 21.472,6.193 L20.74,8.925 C20.597,9.458 20.049,9.775 19.515,9.632 L16.783,8.9 C16.25,8.757 15.933,8.209 16.076,7.675 C16.219,7.142 16.768,6.825 17.301,6.968 Z M20.559,11.899 C21.108,11.957 21.506,12.45 21.448,12.999 C21.138,15.913 19.485,18.648 16.75,20.227 C12.621,22.611 7.447,21.544 4.568,17.92 L4.459,18.325 C4.316,18.858 3.768,19.175 3.234,19.032 C2.701,18.889 2.384,18.341 2.527,17.807 L3.259,15.075 C3.402,14.542 3.951,14.225 4.484,14.368 L7.216,15.1 C7.75,15.243 8.066,15.792 7.923,16.325 C7.78,16.858 7.232,17.175 6.698,17.032 L6.354,16.94 C8.664,19.585 12.594,20.317 15.75,18.495 C17.908,17.249 19.213,15.093 19.459,12.787 C19.517,12.238 20.01,11.84 20.559,11.899 Z M12,6.5 C12.552,6.5 13,6.948 13,7.5 L13,11.434 L15.014,12.643 C15.488,12.927 15.641,13.541 15.357,14.015 C15.073,14.488 14.459,14.642 13.985,14.358 L11.485,12.858 C11.184,12.677 11,12.351 11,12 L11,7.5 C11,6.948 11.448,6.5 12,6.5 Z"/>
</svg>
