<svg xmlns="http://www.w3.org/2000/svg" width="24" height="24" viewBox="0 0 24 24">
  <defs/>
  <path d="M12,4 C7.582,4 4,7.582 4,12 C4,16.418 7.582,20 12,20 C14.513,20 16.754,18.843 18.223,17.028 C18.57,16.599 19.2,16.533 19.629,16.88 C20.058,17.227 20.125,17.857 19.777,18.286 C17.946,20.55 15.142,22 12,22 C6.477,22 2,17.523 2,12 C2,6.477 6.477,2 12,2 C17.134,2 21.365,5.869 21.935,10.851 L21.993,10.793 C22.383,10.402 23.016,10.402 23.407,10.793 C23.798,11.183 23.798,11.816 23.407,12.207 L21.408,14.207 C21.22,14.395 20.966,14.5 20.701,14.5 C20.435,14.5 20.181,14.395 19.993,14.207 L17.993,12.207 C17.602,11.817 17.602,11.184 17.993,10.793 C18.383,10.402 19.016,10.402 19.407,10.793 L19.975,11.361 C19.649,7.241 16.203,4 12,4 Z M12,6 C12.552,6 13,6.448 13,7 L13,11.465 L15.555,13.168 C16.014,13.474 16.138,14.095 15.832,14.555 C15.526,15.014 14.905,15.138 14.445,14.832 L11.445,12.832 C11.167,12.647 11,12.334 11,12 L11,7 C11,6.448 11.448,6 12,6 Z"/>
</svg>
