<svg xmlns="http://www.w3.org/2000/svg" width="24" height="24" viewBox="0 0 24 24">
  <defs/>
  <path d="M12,3 C7.029,3 3,7.029 3,12 C3,16.971 7.029,21 12,21 C12.393,21 12.779,20.975 13.158,20.926 C13.706,20.856 14.207,21.243 14.277,21.791 C14.347,22.339 13.96,22.84 13.412,22.91 C12.95,22.969 12.478,23 12,23 C5.925,23 1,18.075 1,12 C1,5.925 5.925,1 12,1 C18.075,1 23,5.925 23,12 C23,12.47 22.97,12.934 22.913,13.39 C22.844,13.938 22.344,14.326 21.795,14.257 C21.248,14.188 20.86,13.688 20.929,13.14 C20.976,12.767 21,12.387 21,12 C21,7.029 16.971,3 12,3 Z M19,15 C19.552,15 20,15.448 20,16 L20,18 L22,18 C22.552,18 23,18.448 23,19 C23,19.552 22.552,20 22,20 L20,20 L20,22 C20,22.552 19.552,23 19,23 C18.448,23 18,22.552 18,22 L18,20 L16,20 C15.448,20 15,19.552 15,19 C15,18.448 15.448,18 16,18 L18,18 L18,16 C18,15.448 18.448,15 19,15 Z M12,5 C12.552,5 13,5.448 13,6 L13,11.382 L16.186,12.975 C16.68,13.222 16.88,13.822 16.633,14.316 C16.386,14.81 15.785,15.011 15.291,14.764 L11.553,12.894 C11.214,12.725 11,12.379 11,12 L11,6 C11,5.448 11.448,5 12,5 Z"/>
</svg>
