<svg xmlns="http://www.w3.org/2000/svg" width="24" height="24" viewBox="0 0 24 24">
  <defs/>
  <path d="M12,3 C7.029,3 3,7.029 3,12 C3,16.971 7.029,21 12,21 C12.151,21 12.302,20.996 12.451,20.989 C12.602,20.982 12.752,20.97 12.901,20.955 C13.451,20.901 13.941,21.302 13.995,21.852 C14.05,22.401 13.648,22.891 13.099,22.946 C12.917,22.964 12.734,22.977 12.549,22.986 C12.367,22.996 12.184,23 12,23 C5.925,23 1,18.075 1,12 C1,5.925 5.925,1 12,1 C18.075,1 23,5.925 23,12 C23,12.37 22.982,12.737 22.946,13.099 C22.891,13.648 22.401,14.05 21.852,13.995 C21.302,13.941 20.901,13.451 20.955,12.901 C20.985,12.605 21,12.304 21,12 C21,7.029 16.971,3 12,3 Z M16.5,18 C15.948,18 15.5,17.552 15.5,17 C15.5,16.448 15.948,16 16.5,16 L21.5,16 C21.904,16 22.269,16.244 22.424,16.617 C22.579,16.991 22.493,17.421 22.207,17.707 L18.914,21 L21.5,21 C22.052,21 22.5,21.448 22.5,22 C22.5,22.552 22.052,23 21.5,23 L16.5,23 C16.096,23 15.731,22.756 15.576,22.383 C15.421,22.009 15.507,21.579 15.793,21.293 L19.086,18 Z M12,5 C12.552,5 13,5.448 13,6 L13,11.382 L16.186,12.975 C16.68,13.222 16.88,13.822 16.633,14.316 C16.386,14.81 15.785,15.011 15.291,14.764 L11.553,12.894 C11.214,12.725 11,12.379 11,12 L11,6 C11,5.448 11.448,5 12,5 Z"/>
</svg>
