<svg xmlns="http://www.w3.org/2000/svg" width="24" height="24" viewBox="0 0 24 24">
  <defs/>
  <path d="M9,2 C9,1.448 9.448,1 10,1 L14,1 C14.552,1 15,1.448 15,2 C15,2.552 14.552,3 14,3 L13,3 L13,4.052 C17.777,4.552 21.5,8.591 21.5,13.5 C21.5,18.747 17.247,23 12,23 C6.753,23 2.5,18.747 2.5,13.5 C2.5,8.591 6.223,4.552 11,4.052 L11,3 L10,3 C9.448,3 9,2.552 9,2 Z M12,6 C7.858,6 4.5,9.358 4.5,13.5 C4.5,17.642 7.858,21 12,21 C16.142,21 19.5,17.642 19.5,13.5 C19.5,9.358 16.142,6 12,6 Z M12,8.5 C12.552,8.5 13,8.948 13,9.5 L13,12.934 L15.014,14.142 C15.488,14.427 15.642,15.041 15.358,15.514 C15.073,15.988 14.459,16.142 13.986,15.858 L11.486,14.358 C11.184,14.177 11,13.851 11,13.5 L11,9.5 C11,8.948 11.448,8.5 12,8.5 Z M5.878,3.385 C6.269,3.775 6.269,4.409 5.878,4.799 L5.128,5.549 L4.378,6.299 C3.988,6.69 3.354,6.69 2.964,6.299 C2.573,5.909 2.573,5.275 2.964,4.885 L3.714,4.135 L4.464,3.385 C4.854,2.994 5.488,2.994 5.878,3.385 Z M18.122,3.385 C18.512,2.994 19.146,2.994 19.536,3.385 L21.036,4.885 C21.427,5.275 21.427,5.909 21.036,6.299 C20.646,6.69 20.012,6.69 19.622,6.299 L18.122,4.799 C17.731,4.409 17.731,3.775 18.122,3.385 Z"/>
</svg>
