<svg xmlns="http://www.w3.org/2000/svg" width="24" height="24" viewBox="0 0 24 24">
  <defs/>
  <path d="M12,3 C7.029,3 3,7.029 3,12 C3,16.892 6.903,20.872 11.764,20.997 C12.316,21.011 12.752,21.47 12.738,22.022 C12.724,22.574 12.265,23.01 11.713,22.996 C5.77,22.844 1,17.979 1,12 C1,5.925 5.925,1 12,1 C18.075,1 23,5.925 23,12 C23,12.203 22.994,12.404 22.984,12.604 C22.954,13.156 22.483,13.578 21.931,13.548 C21.38,13.519 20.957,13.047 20.987,12.496 C20.996,12.332 21,12.166 21,12 C21,7.029 16.971,3 12,3 Z M12,5 C12.552,5 13,5.448 13,6 L13,11.382 L16.186,12.975 C16.68,13.222 16.88,13.822 16.633,14.316 C16.386,14.81 15.785,15.011 15.291,14.764 L11.553,12.894 C11.214,12.725 11,12.379 11,12 L11,6 C11,5.448 11.448,5 12,5 Z M21.707,15.793 C22.098,16.183 22.098,16.817 21.707,17.207 L17.207,21.707 C16.817,22.098 16.183,22.098 15.793,21.707 L13.793,19.707 C13.402,19.317 13.402,18.683 13.793,18.293 C14.183,17.902 14.817,17.902 15.207,18.293 L16.5,19.586 L20.293,15.793 C20.683,15.402 21.317,15.402 21.707,15.793 Z"/>
</svg>
