<svg xmlns="http://www.w3.org/2000/svg" width="24" height="24" viewBox="0 0 24 24">
  <defs/>
  <path d="M12,4 C7.582,4 4,7.582 4,12 C4,16.418 7.582,20 12,20 C15.791,20 18.966,17.363 19.791,13.823 L19.407,14.207 C19.016,14.598 18.383,14.598 17.993,14.207 C17.602,13.816 17.602,13.183 17.993,12.793 L19.993,10.793 C20.181,10.605 20.435,10.5 20.701,10.5 C20.966,10.5 21.22,10.605 21.408,10.793 L23.407,12.793 C23.798,13.184 23.798,13.817 23.407,14.207 C23.016,14.598 22.383,14.598 21.993,14.207 L21.798,14.012 C20.867,18.57 16.834,22 12,22 C6.477,22 2,17.523 2,12 C2,6.477 6.477,2 12,2 C15.67,2 18.877,3.978 20.615,6.92 C20.896,7.396 20.739,8.009 20.263,8.29 C19.788,8.571 19.174,8.413 18.893,7.938 C17.5,5.579 14.934,4 12,4 Z M12,6 C12.552,6 13,6.448 13,7 L13,11.465 L15.555,13.168 C16.014,13.474 16.138,14.095 15.832,14.555 C15.526,15.014 14.905,15.138 14.445,14.832 L11.445,12.832 C11.167,12.647 11,12.334 11,12 L11,7 C11,6.448 11.448,6 12,6 Z"/>
</svg>
