<svg xmlns="http://www.w3.org/2000/svg" width="24" height="24" viewBox="0 0 24 24">
  <defs/>
  <path d="M1,12 C1,5.925 5.925,1 12,1 C18.075,1 23,5.925 23,12 C23,18.075 18.075,23 12,23 C5.925,23 1,18.075 1,12 Z M12,3 C7.029,3 3,7.029 3,12 C3,16.971 7.029,21 12,21 C16.971,21 21,16.971 21,12 C21,7.029 16.971,3 12,3 Z M12,5 C12.552,5 13,5.448 13,6 L13,11.382 L16.447,13.106 C16.941,13.353 17.141,13.953 16.894,14.447 C16.647,14.941 16.047,15.141 15.553,14.894 L11.553,12.894 C11.214,12.725 11,12.379 11,12 L11,6 C11,5.448 11.448,5 12,5 Z"/>
</svg>
