<svg xmlns="http://www.w3.org/2000/svg" width="24" height="24" viewBox="0 0 24 24">
  <defs/>
  <path d="M2.293,2.293 C2.683,1.902 3.317,1.902 3.707,2.293 L7.959,6.545 C7.984,6.568 8.008,6.591 8.03,6.616 L19.454,18.04 C19.499,18.077 19.54,18.119 19.578,18.164 L21.707,20.293 C22.098,20.683 22.098,21.317 21.707,21.707 C21.317,22.098 20.683,22.098 20.293,21.707 L18.496,19.91 C18.172,19.969 17.839,20 17.5,20 L6.5,20 C3.462,20 1,17.538 1,14.5 C1,11.892 2.814,9.71 5.249,9.143 C5.419,8.526 5.671,7.942 5.992,7.406 L2.293,3.707 C1.902,3.317 1.902,2.683 2.293,2.293 Z M7.469,8.883 C7.279,9.289 7.142,9.725 7.067,10.182 C6.993,10.631 6.625,10.973 6.172,11.015 C4.393,11.18 3,12.678 3,14.5 C3,16.433 4.567,18 6.5,18 L16.586,18 Z M10.484,4.165 C10.973,4.057 11.48,4 12,4 C15.224,4 17.937,6.178 18.751,9.143 C21.186,9.71 23,11.892 23,14.5 C23,15.195 22.871,15.863 22.633,16.478 C22.435,16.993 21.856,17.25 21.341,17.051 C20.825,16.853 20.569,16.274 20.767,15.758 C20.917,15.369 21,14.945 21,14.5 C21,12.678 19.607,11.18 17.828,11.015 C17.375,10.973 17.007,10.631 16.934,10.182 C16.544,7.81 14.482,6 12,6 C11.627,6 11.264,6.041 10.915,6.118 C10.376,6.237 9.842,5.896 9.723,5.357 C9.604,4.818 9.944,4.284 10.484,4.165 Z"/>
</svg>
