<svg xmlns="http://www.w3.org/2000/svg" width="24" height="24" viewBox="0 0 24 24">
  <defs/>
  <path d="M6.509,4.02 C7.661,2.206 9.689,1 12,1 C14.714,1 17.038,2.663 18.011,5.023 C20.809,5.281 23,7.635 23,10.5 C23,13.538 20.538,16 17.5,16 L7,16 C3.686,16 1,13.314 1,10 C1,6.851 3.425,4.269 6.509,4.02 Z M12,3 C10.252,3 8.736,3.996 7.99,5.456 C7.816,5.797 7.462,6.008 7.08,6.001 C7.053,6 7.027,6 7,6 C4.791,6 3,7.791 3,10 C3,12.209 4.791,14 7,14 L17.5,14 C19.433,14 21,12.433 21,10.5 C21,8.567 19.433,7 17.5,7 C17.446,7 17.392,7.001 17.339,7.004 C16.875,7.024 16.458,6.723 16.332,6.276 C15.799,4.385 14.06,3 12,3 Z M12,18.5 C12.552,18.5 13,18.948 13,19.5 L13,22 C13,22.552 12.552,23 12,23 C11.448,23 11,22.552 11,22 L11,19.5 C11,18.948 11.448,18.5 12,18.5 Z M16,17.5 C16.552,17.5 17,17.948 17,18.5 L17,21 C17,21.552 16.552,22 16,22 C15.448,22 15,21.552 15,21 L15,18.5 C15,17.948 15.448,17.5 16,17.5 Z M8,17.5 C8.552,17.5 9,17.948 9,18.5 L9,21 C9,21.552 8.552,22 8,22 C7.448,22 7,21.552 7,21 L7,18.5 C7,17.948 7.448,17.5 8,17.5 Z"/>
</svg>
