<svg xmlns="http://www.w3.org/2000/svg" width="24" height="24" viewBox="0 0 24 24">
  <defs/>
  <path d="M5.669,13.011 C6.79,10.641 9.202,9 12,9 C14.382,9 16.486,10.191 17.749,12.005 C20.671,12.136 23,14.546 23,17.5 C23,20.538 20.538,23 17.5,23 L6,23 C3.239,23 1,20.761 1,18 C1,15.35 3.062,13.181 5.669,13.011 Z M12,11 C9.82,11 7.964,12.396 7.28,14.345 C7.129,14.775 6.707,15.048 6.253,15.01 C6.17,15.004 6.086,15 6,15 C4.343,15 3,16.343 3,18 C3,19.657 4.343,21 6,21 L17.5,21 C19.433,21 21,19.433 21,17.5 C21,15.567 19.433,14 17.5,14 C17.422,14 17.344,14.002 17.268,14.007 C16.888,14.032 16.527,13.839 16.336,13.509 C15.472,12.007 13.853,11 12,11 Z M10.5,3 C6.91,3 4,5.91 4,9.5 C4,9.947 4.045,10.382 4.13,10.801 C4.24,11.342 3.89,11.87 3.349,11.98 C2.808,12.09 2.28,11.74 2.17,11.199 C2.058,10.649 2,10.081 2,9.5 C2,4.806 5.806,1 10.5,1 C14.811,1 18.371,4.208 18.925,8.368 C18.998,8.915 18.613,9.418 18.066,9.491 C17.518,9.564 17.016,9.18 16.943,8.632 C16.519,5.453 13.795,3 10.5,3 Z"/>
</svg>
