<svg xmlns="http://www.w3.org/2000/svg" width="24" height="24" viewBox="0 0 24 24">
  <defs/>
  <path d="M11.072,7.066 C11.521,4.196 14.004,2 17,2 C20.314,2 23,4.686 23,8 C23,9.718 22.277,11.267 21.121,12.36 C22.273,13.368 23,14.849 23,16.5 C23,19.538 20.538,22 17.5,22 L7,22 C3.686,22 1,19.314 1,16 C1,12.851 3.425,10.269 6.509,10.02 C7.504,8.453 9.153,7.34 11.072,7.066 Z M12,9 C10.252,9 8.736,9.996 7.99,11.456 C7.816,11.797 7.462,12.008 7.08,12.001 C7.053,12 7.027,12 7,12 C4.791,12 3,13.791 3,16 C3,18.209 4.791,20 7,20 L17.5,20 C19.433,20 21,18.433 21,16.5 C21,14.567 19.433,13 17.5,13 C17.446,13 17.392,13.001 17.339,13.004 C16.875,13.024 16.458,12.723 16.332,12.276 C15.799,10.385 14.06,9 12,9 Z M13.103,7.093 C15.332,7.474 17.172,8.99 18.011,11.023 C18.449,11.064 18.871,11.155 19.273,11.292 C20.318,10.569 21,9.364 21,8 C21,5.791 19.209,4 17,4 C15.103,4 13.514,5.321 13.103,7.093 Z"/>
</svg>
