<svg xmlns="http://www.w3.org/2000/svg" width="24" height="24" viewBox="0 0 24 24">
  <defs/>
  <path d="M1,11.5 C1,6.806 4.806,3 9.5,3 C12.545,3 15.214,4.601 16.714,7.003 C20.205,7.117 23,9.982 23,13.5 C23,17.09 20.09,20 16.5,20 L9.5,20 C4.806,20 1,16.194 1,11.5 Z M9.5,5 C5.91,5 3,7.91 3,11.5 C3,15.09 5.91,18 9.5,18 L16.5,18 C18.985,18 21,15.985 21,13.5 C21,11.015 18.985,9 16.5,9 C16.401,9 16.303,9.003 16.205,9.009 C15.812,9.035 15.44,8.826 15.256,8.477 C14.167,6.408 11.997,5 9.5,5 Z"/>
</svg>
