<svg xmlns="http://www.w3.org/2000/svg" width="24" height="24" viewBox="0 0 24 24">
  <defs/>
  <path d="M4.022,10.407 C4.325,6.266 7.781,3 12,3 C15.918,3 19.177,5.815 19.866,9.534 C21.718,10.418 23,12.308 23,14.5 C23,17.538 20.538,20 17.5,20 L6,20 C3.239,20 1,17.761 1,15 C1,12.94 2.245,11.174 4.022,10.407 Z M12,5 C8.686,5 6,7.686 6,11 C6,11.036 6,11.072 6.001,11.108 C6.009,11.571 5.698,11.979 5.25,12.094 C3.956,12.427 3,13.603 3,15 C3,16.657 4.343,18 6,18 L17.5,18 C19.433,18 21,16.433 21,14.5 C21,12.966 20.012,11.66 18.635,11.188 C18.268,11.062 18.007,10.735 17.965,10.349 C17.641,7.342 15.094,5 12,5 Z"/>
</svg>
