<svg xmlns="http://www.w3.org/2000/svg" width="24" height="24" viewBox="0 0 24 24">
  <defs/>
  <path d="M6.769,13.059 C7.798,11.234 9.754,10 12,10 C14.246,10 16.202,11.234 17.231,13.059 C17.482,13.02 17.739,13 18,13 C20.761,13 23,15.239 23,18 C23,20.761 20.761,23 18,23 L6,23 C3.239,23 1,20.761 1,18 C1,15.239 3.239,13 6,13 C6.261,13 6.518,13.02 6.769,13.059 Z M12,12 C10.293,12 8.833,13.07 8.259,14.58 C8.067,15.087 7.505,15.348 6.993,15.168 C6.684,15.059 6.35,15 6,15 C4.343,15 3,16.343 3,18 C3,19.657 4.343,21 6,21 L18,21 C19.657,21 21,19.657 21,18 C21,16.343 19.657,15 18,15 C17.65,15 17.316,15.059 17.007,15.168 C16.495,15.348 15.933,15.087 15.741,14.58 C15.167,13.07 13.707,12 12,12 Z M10.5,7 C8.843,7 7.5,8.343 7.5,10 C7.5,10.552 7.052,11 6.5,11 C5.948,11 5.5,10.552 5.5,10 C5.5,7.239 7.739,5 10.5,5 C12.384,5 14.023,6.042 14.875,7.577 C15.142,8.06 14.968,8.668 14.485,8.936 C14.002,9.204 13.394,9.03 13.126,8.547 C12.613,7.622 11.628,7 10.5,7 Z M16.4,10 C16.4,9.448 16.848,9 17.4,9 L19,9 C19.552,9 20,9.448 20,10 C20,10.552 19.552,11 19,11 L17.4,11 C16.848,11 16.4,10.552 16.4,10 Z M10.5,0.5 C11.052,0.5 11.5,0.948 11.5,1.5 L11.5,3.1 C11.5,3.652 11.052,4.1 10.5,4.1 C9.948,4.1 9.5,3.652 9.5,3.1 L9.5,1.5 C9.5,0.948 9.948,0.5 10.5,0.5 Z M1,10 C1,9.448 1.448,9 2,9 L3.6,9 C4.152,9 4.6,9.448 4.6,10 C4.6,10.552 4.152,11 3.6,11 L2,11 C1.448,11 1,10.552 1,10 Z M3.613,3.113 C4.003,2.722 4.636,2.722 5.027,3.113 L6.158,4.244 C6.549,4.635 6.549,5.268 6.158,5.658 C5.768,6.049 5.135,6.049 4.744,5.658 L3.613,4.527 C3.222,4.137 3.222,3.503 3.613,3.113 Z M17.388,3.113 C17.779,3.503 17.779,4.137 17.388,4.527 L16.257,5.658 C15.866,6.049 15.233,6.049 14.843,5.658 C14.452,5.268 14.452,4.635 14.843,4.244 L15.974,3.113 C16.365,2.722 16.998,2.722 17.388,3.113 Z"/>
</svg>
