<svg xmlns="http://www.w3.org/2000/svg" width="24" height="24" viewBox="0 0 24 24">
  <defs/>
  <path d="M6.509,4.02 C7.661,2.206 9.689,1 12,1 C14.714,1 17.038,2.663 18.011,5.023 C20.809,5.281 23,7.635 23,10.5 C23,13.538 20.538,16 17.5,16 L7,16 C3.686,16 1,13.314 1,10 C1,6.851 3.425,4.269 6.509,4.02 Z M12,3 C10.252,3 8.736,3.996 7.99,5.456 C7.816,5.797 7.462,6.008 7.08,6.001 C7.053,6 7.027,6 7,6 C4.791,6 3,7.791 3,10 C3,12.209 4.791,14 7,14 L17.5,14 C19.433,14 21,12.433 21,10.5 C21,8.567 19.433,7 17.5,7 C17.446,7 17.392,7.001 17.339,7.004 C16.875,7.024 16.458,6.723 16.332,6.276 C15.799,4.385 14.06,3 12,3 Z M16.371,17.572 C16.884,17.777 17.134,18.359 16.928,18.871 L15.929,21.371 C15.723,21.884 15.141,22.134 14.629,21.928 C14.116,21.723 13.866,21.141 14.071,20.629 L15.071,18.129 C15.277,17.616 15.859,17.366 16.371,17.572 Z M12.371,17.572 C12.884,17.777 13.134,18.359 12.929,18.871 L11.929,21.371 C11.723,21.884 11.141,22.134 10.629,21.928 C10.116,21.723 9.866,21.141 10.071,20.629 L11.071,18.129 C11.277,17.616 11.859,17.366 12.371,17.572 Z M8.371,17.572 C8.884,17.777 9.134,18.359 8.928,18.871 L7.928,21.371 C7.723,21.884 7.141,22.134 6.629,21.928 C6.116,21.723 5.866,21.141 6.072,20.629 L7.072,18.129 C7.277,17.616 7.859,17.366 8.371,17.572 Z"/>
</svg>
