<svg xmlns="http://www.w3.org/2000/svg" width="24" height="24" viewBox="0 0 24 24">
  <defs/>
  <path d="M6.509,4.02 C7.661,2.206 9.689,1 12,1 C14.714,1 17.038,2.663 18.011,5.023 C20.809,5.281 23,7.635 23,10.5 C23,13.538 20.538,16 17.5,16 L7,16 C3.686,16 1,13.314 1,10 C1,6.851 3.425,4.269 6.509,4.02 Z M12,3 C10.252,3 8.736,3.996 7.99,5.456 C7.816,5.797 7.462,6.008 7.08,6.001 C7.053,6 7.027,6 7,6 C4.791,6 3,7.791 3,10 C3,12.209 4.791,14 7,14 L17.5,14 C19.433,14 21,12.433 21,10.5 C21,8.567 19.433,7 17.5,7 C17.446,7 17.392,7.001 17.339,7.004 C16.875,7.024 16.458,6.723 16.332,6.276 C15.799,4.385 14.06,3 12,3 Z M15,18 C15,17.448 15.448,17 16,17 L16.01,17 C16.562,17 17.01,17.448 17.01,18 C17.01,18.552 16.562,19 16.01,19 L16,19 C15.448,19 15,18.552 15,18 Z M11,18.5 C11,17.948 11.448,17.5 12,17.5 L12.01,17.5 C12.562,17.5 13.01,17.948 13.01,18.5 C13.01,19.052 12.562,19.5 12.01,19.5 L12,19.5 C11.448,19.5 11,19.052 11,18.5 Z M15,21 C15,20.448 15.448,20 16,20 L16.01,20 C16.562,20 17.01,20.448 17.01,21 C17.01,21.552 16.562,22 16.01,22 L16,22 C15.448,22 15,21.552 15,21 Z M11,21.5 C11,20.948 11.448,20.5 12,20.5 L12.01,20.5 C12.562,20.5 13.01,20.948 13.01,21.5 C13.01,22.052 12.562,22.5 12.01,22.5 L12,22.5 C11.448,22.5 11,22.052 11,21.5 Z M7,18 C7,17.448 7.448,17 8,17 L8.01,17 C8.562,17 9.01,17.448 9.01,18 C9.01,18.552 8.562,19 8.01,19 L8,19 C7.448,19 7,18.552 7,18 Z M7,21 C7,20.448 7.448,20 8,20 L8.01,20 C8.562,20 9.01,20.448 9.01,21 C9.01,21.552 8.562,22 8.01,22 L8,22 C7.448,22 7,21.552 7,21 Z"/>
</svg>
