<svg xmlns="http://www.w3.org/2000/svg" width="24" height="24" viewBox="0 0 24 24">
  <defs/>
  <path d="M5.249,6.143 C6.063,3.178 8.776,1 12,1 C15.224,1 17.937,3.178 18.751,6.143 C21.186,6.71 23,8.892 23,11.5 C23,13.408 22.028,15.088 20.556,16.073 C20.097,16.38 19.476,16.257 19.169,15.799 C18.862,15.34 18.985,14.718 19.444,14.411 C20.384,13.782 21,12.712 21,11.5 C21,9.678 19.607,8.18 17.828,8.015 C17.375,7.973 17.007,7.631 16.934,7.182 C16.544,4.81 14.482,3 12,3 C9.518,3 7.456,4.81 7.067,7.182 C6.993,7.631 6.625,7.973 6.172,8.015 C4.393,8.18 3,9.678 3,11.5 C3,12.712 3.616,13.782 4.556,14.411 C5.015,14.718 5.138,15.34 4.831,15.799 C4.524,16.257 3.903,16.38 3.444,16.073 C1.972,15.088 1,13.408 1,11.5 C1,8.892 2.814,6.71 5.249,6.143 Z M17.421,12.071 C17.934,12.277 18.184,12.859 17.979,13.371 L15.179,20.371 C14.973,20.884 14.391,21.134 13.879,20.928 C13.366,20.723 13.116,20.141 13.321,19.629 L16.122,12.629 C16.327,12.116 16.909,11.866 17.421,12.071 Z M9.421,12.071 C9.934,12.277 10.184,12.859 9.978,13.371 L7.178,20.371 C6.973,20.884 6.391,21.134 5.879,20.928 C5.366,20.723 5.116,20.141 5.322,19.629 L8.122,12.629 C8.327,12.116 8.909,11.866 9.421,12.071 Z M12.621,14.071 C13.134,14.277 13.384,14.859 13.178,15.371 L10.378,22.371 C10.173,22.884 9.591,23.134 9.079,22.928 C8.566,22.723 8.316,22.141 8.521,21.629 L11.321,14.629 C11.527,14.116 12.109,13.866 12.621,14.071 Z"/>
</svg>
