<svg xmlns="http://www.w3.org/2000/svg" width="24" height="24" viewBox="0 0 24 24">
  <defs/>
  <path d="M5.249,6.143 C6.063,3.178 8.776,1 12,1 C15.224,1 17.937,3.178 18.751,6.143 C21.186,6.71 23,8.892 23,11.5 C23,13.896 21.468,15.932 19.333,16.687 C18.812,16.871 18.241,16.598 18.057,16.077 C17.873,15.557 18.146,14.985 18.667,14.801 C20.028,14.32 21,13.022 21,11.5 C21,9.678 19.607,8.18 17.828,8.015 C17.375,7.973 17.007,7.631 16.934,7.182 C16.544,4.81 14.482,3 12,3 C9.518,3 7.456,4.81 7.067,7.182 C6.993,7.631 6.625,7.973 6.172,8.015 C4.393,8.18 3,9.678 3,11.5 C3,13.022 3.973,14.32 5.333,14.801 C5.854,14.985 6.127,15.557 5.943,16.077 C5.759,16.598 5.187,16.871 4.667,16.687 C2.532,15.932 1,13.896 1,11.5 C1,8.892 2.814,6.71 5.249,6.143 Z M13.555,9.168 C14.014,9.474 14.138,10.095 13.832,10.555 L10.868,15 L15,15 C15.369,15 15.708,15.203 15.882,15.528 C16.056,15.853 16.037,16.248 15.832,16.555 L11.832,22.555 C11.526,23.014 10.905,23.138 10.445,22.832 C9.986,22.526 9.862,21.905 10.168,21.445 L13.132,17 L9,17 C8.631,17 8.292,16.797 8.118,16.472 C7.944,16.147 7.963,15.752 8.168,15.445 L12.168,9.445 C12.474,8.986 13.095,8.862 13.555,9.168 Z"/>
</svg>
