<svg xmlns="http://www.w3.org/2000/svg" width="24" height="24" viewBox="0 0 24 24">
  <defs/>
  <path d="M15.87,1.456 C16.119,1.705 16.219,2.065 16.134,2.406 C16.046,2.755 16,3.121 16,3.5 C16,5.985 18.015,8 20.5,8 C20.879,8 21.245,7.953 21.594,7.866 C21.935,7.781 22.295,7.881 22.544,8.129 C22.792,8.377 22.892,8.737 22.807,9.078 C22.431,10.585 21.529,11.885 20.307,12.769 C21.919,13.728 23,15.488 23,17.5 C23,20.538 20.538,23 17.5,23 L6,23 C3.239,23 1,20.761 1,18 C1,15.731 2.511,13.816 4.581,13.205 C5.556,10.968 7.666,9.339 10.185,9.047 C10.064,8.551 10,8.033 10,7.5 C10,4.454 12.095,1.899 14.921,1.193 C15.262,1.108 15.622,1.208 15.87,1.456 Z M11.506,11.025 C11.34,11.009 11.171,11 11,11 C8.807,11 6.941,12.413 6.268,14.381 C6.149,14.727 5.851,14.981 5.49,15.043 C4.076,15.285 3,16.518 3,18 C3,19.657 4.343,21 6,21 L17.5,21 C19.433,21 21,19.433 21,17.5 C21,15.567 19.433,14 17.5,14 C17.172,14 16.856,14.045 16.558,14.128 C16.107,14.254 15.63,14.05 15.408,13.638 C14.642,12.211 13.206,11.202 11.524,11.027 Q11.515,11.026 11.506,11.025 Z M12.3,9.121 C14.133,9.465 15.713,10.523 16.741,11.994 C18.203,11.917 19.481,11.141 20.246,9.995 C16.858,9.865 14.135,7.142 14.005,3.754 C12.796,4.561 12,5.938 12,7.5 C12,8.073 12.106,8.619 12.3,9.121 Z M5,2 C5.552,2 6,2.448 6,3 L6,4 L7,4 C7.552,4 8,4.448 8,5 C8,5.552 7.552,6 7,6 L6,6 L6,7 C6,7.552 5.552,8 5,8 C4.448,8 4,7.552 4,7 L4,6 L3,6 C2.448,6 2,5.552 2,5 C2,4.448 2.448,4 3,4 L4,4 L4,3 C4,2.448 4.448,2 5,2 Z"/>
</svg>
