<svg xmlns="http://www.w3.org/2000/svg" width="24" height="24" viewBox="0 0 24 24">
  <defs/>
  <path d="M6.509,4.02 C7.661,2.206 9.689,1 12,1 C14.714,1 17.038,2.663 18.011,5.023 C20.809,5.281 23,7.635 23,10.5 C23,13.538 20.538,16 17.5,16 L7,16 C3.686,16 1,13.314 1,10 C1,6.851 3.425,4.269 6.509,4.02 Z M12,3 C10.252,3 8.736,3.996 7.99,5.456 C7.816,5.797 7.462,6.008 7.08,6.001 C7.053,6 7.027,6 7,6 C4.791,6 3,7.791 3,10 C3,12.209 4.791,14 7,14 L17.5,14 C19.433,14 21,12.433 21,10.5 C21,8.567 19.433,7 17.5,7 C17.446,7 17.392,7.001 17.339,7.004 C16.875,7.024 16.458,6.723 16.332,6.276 C15.799,4.385 14.06,3 12,3 Z M9,18 C9,17.448 9.448,17 10,17 L19,17 C19.552,17 20,17.448 20,18 C20,18.552 19.552,19 19,19 L10,19 C9.448,19 9,18.552 9,18 Z M5,21 C5,20.448 5.448,20 6,20 L13,20 C13.552,20 14,20.448 14,21 C14,21.552 13.552,22 13,22 L6,22 C5.448,22 5,21.552 5,21 Z M15,21 C15,20.448 15.448,20 16,20 L18,20 C18.552,20 19,20.448 19,21 C19,21.552 18.552,22 18,22 L16,22 C15.448,22 15,21.552 15,21 Z M4,18 C4,17.448 4.448,17 5,17 L7,17 C7.552,17 8,17.448 8,18 C8,18.552 7.552,19 7,19 L5,19 C4.448,19 4,18.552 4,18 Z"/>
</svg>
