<svg xmlns="http://www.w3.org/2000/svg" width="24" height="24" viewBox="0 0 24 24">
  <defs/>
  <path d="M5.249,6.143 C6.063,3.178 8.776,1 12,1 C15.224,1 17.937,3.178 18.751,6.143 C21.186,6.71 23,8.892 23,11.5 C23,13.408 22.028,15.088 20.556,16.073 C20.097,16.38 19.476,16.257 19.169,15.799 C18.862,15.34 18.985,14.718 19.444,14.411 C20.384,13.782 21,12.712 21,11.5 C21,9.678 19.607,8.18 17.828,8.015 C17.375,7.973 17.007,7.631 16.934,7.182 C16.544,4.81 14.482,3 12,3 C9.518,3 7.456,4.81 7.067,7.182 C6.993,7.631 6.625,7.973 6.172,8.015 C4.393,8.18 3,9.678 3,11.5 C3,12.712 3.616,13.782 4.556,14.411 C5.015,14.718 5.138,15.34 4.831,15.799 C4.524,16.257 3.903,16.38 3.444,16.073 C1.972,15.088 1,13.408 1,11.5 C1,8.892 2.814,6.71 5.249,6.143 Z M12,13 C12.552,13 13,13.448 13,14 L13,22 C13,22.552 12.552,23 12,23 C11.448,23 11,22.552 11,22 L11,14 C11,13.448 11.448,13 12,13 Z M16,11 C16.552,11 17,11.448 17,12 L17,20 C17,20.552 16.552,21 16,21 C15.448,21 15,20.552 15,20 L15,12 C15,11.448 15.448,11 16,11 Z M8,11 C8.552,11 9,11.448 9,12 L9,20 C9,20.552 8.552,21 8,21 C7.448,21 7,20.552 7,20 L7,12 C7,11.448 7.448,11 8,11 Z"/>
</svg>
