<svg xmlns="http://www.w3.org/2000/svg" width="24" height="24" viewBox="0 0 24 24">
  <defs/>
  <path d="M5.249,9.143 C6.063,6.178 8.776,4 12,4 C15.224,4 17.937,6.178 18.751,9.143 C21.186,9.71 23,11.892 23,14.5 C23,17.538 20.538,20 17.5,20 L6.5,20 C3.462,20 1,17.538 1,14.5 C1,11.892 2.814,9.71 5.249,9.143 Z M12,6 C9.518,6 7.456,7.81 7.067,10.182 C6.993,10.631 6.625,10.973 6.172,11.015 C4.393,11.18 3,12.678 3,14.5 C3,16.433 4.567,18 6.5,18 L17.5,18 C19.433,18 21,16.433 21,14.5 C21,12.678 19.607,11.18 17.828,11.015 C17.375,10.973 17.007,10.631 16.934,10.182 C16.544,7.81 14.482,6 12,6 Z"/>
</svg>
