<svg xmlns="http://www.w3.org/2000/svg" width="24" height="24" viewBox="0 0 24 24">
  <defs/>
  <path d="M1,12 C1,5.925 5.925,1 12,1 C18.075,1 23,5.925 23,12 C23,18.075 18.075,23 12,23 C5.925,23 1,18.075 1,12 Z M12,3 C7.029,3 3,7.029 3,12 C3,16.971 7.029,21 12,21 C16.971,21 21,16.971 21,12 C21,7.029 16.971,3 12,3 Z M10.207,8.293 C10.598,8.683 10.598,9.317 10.207,9.707 L7.914,12 L10.207,14.293 C10.598,14.683 10.598,15.317 10.207,15.707 C9.817,16.098 9.183,16.098 8.793,15.707 L5.793,12.707 C5.402,12.317 5.402,11.683 5.793,11.293 L8.793,8.293 C9.183,7.902 9.817,7.902 10.207,8.293 Z M13.793,8.293 C14.183,7.902 14.817,7.902 15.207,8.293 L18.207,11.293 C18.598,11.683 18.598,12.317 18.207,12.707 L15.207,15.707 C14.817,16.098 14.183,16.098 13.793,15.707 C13.402,15.317 13.402,14.683 13.793,14.293 L16.086,12 L13.793,9.707 C13.402,9.317 13.402,8.683 13.793,8.293 Z"/>
</svg>
