<svg xmlns="http://www.w3.org/2000/svg" width="24" height="24" viewBox="0 0 24 24">
  <defs/>
  <path d="M11.543,1.246 C11.844,1.175 12.156,1.175 12.457,1.246 C12.805,1.327 13.109,1.526 13.35,1.685 C13.373,1.7 13.395,1.714 13.417,1.728 L21.817,7.188 C21.835,7.2 21.854,7.212 21.873,7.224 C22.079,7.357 22.338,7.524 22.535,7.76 C22.705,7.964 22.833,8.2 22.912,8.455 C23.002,8.749 23.001,9.057 23,9.302 C23,9.324 23,9.347 23,9.368 L23,14.632 C23,14.653 23,14.675 23,14.698 C23.001,14.943 23.002,15.251 22.912,15.545 C22.833,15.799 22.705,16.035 22.535,16.24 C22.338,16.476 22.079,16.643 21.873,16.775 C21.854,16.788 21.835,16.8 21.817,16.812 L13.417,22.272 C13.395,22.286 13.373,22.3 13.35,22.315 C13.109,22.474 12.805,22.673 12.457,22.754 C12.156,22.825 11.844,22.825 11.543,22.754 C11.195,22.673 10.891,22.474 10.65,22.315 C10.627,22.3 10.605,22.286 10.583,22.272 L2.183,16.812 C2.165,16.8 2.146,16.788 2.127,16.775 C1.921,16.643 1.662,16.476 1.465,16.24 C1.295,16.035 1.167,15.799 1.088,15.545 C0.998,15.251 0.999,14.943 1,14.698 C1,14.675 1,14.653 1,14.632 L1,9.368 C1,9.347 1,9.324 1,9.302 C0.999,9.057 0.998,8.749 1.088,8.455 C1.167,8.2 1.295,7.964 1.465,7.76 C1.662,7.524 1.921,7.357 2.127,7.224 C2.146,7.212 2.165,7.2 2.183,7.188 L10.583,1.728 C10.605,1.714 10.627,1.7 10.65,1.685 C10.891,1.526 11.195,1.327 11.543,1.246 Z M13,20.157 L20.144,15.514 C20.133,15.504 20.121,15.494 20.106,15.482 C19.963,15.37 19.751,15.231 19.391,14.997 L16.615,13.193 L13,15.543 Z M3.856,15.514 L11,20.157 L11,15.543 L7.385,13.193 L4.609,14.997 C4.249,15.231 4.037,15.37 3.894,15.482 C3.879,15.494 3.867,15.504 3.856,15.514 Z M13,3.843 L13,8.457 L16.615,10.807 L19.391,9.003 C19.751,8.769 19.963,8.63 20.106,8.518 C20.121,8.506 20.133,8.496 20.144,8.486 Z M11,8.457 L11,3.843 L3.856,8.486 C3.867,8.496 3.879,8.506 3.894,8.518 C4.037,8.63 4.249,8.769 4.609,9.003 L7.385,10.807 Z M12,13.807 L14.781,12 L12,10.193 L9.22,12 Z M5.55,12 L3.485,10.658 C3.314,10.547 3.15,10.44 3,10.338 L3,13.662 C3.15,13.56 3.314,13.453 3.485,13.342 Z M18.45,12 L20.515,13.342 C20.686,13.453 20.85,13.56 21,13.662 L21,10.338 C20.85,10.44 20.686,10.547 20.515,10.658 Z"/>
</svg>
