<svg xmlns="http://www.w3.org/2000/svg" width="24" height="24" viewBox="0 0 24 24">
  <defs/>
  <path d="M17.241,2 L17.241,2 C18.046,2 18.711,2 19.252,2.044 C19.814,2.09 20.331,2.189 20.816,2.436 C21.569,2.819 22.181,3.431 22.564,4.184 C22.811,4.669 22.91,5.186 22.956,5.748 C23,6.289 23,6.954 23,7.759 L23,16.241 C23,17.046 23,17.711 22.956,18.252 C22.91,18.814 22.811,19.331 22.564,19.816 C22.181,20.569 21.569,21.181 20.816,21.564 C20.331,21.811 19.814,21.91 19.252,21.956 C18.711,22 18.046,22 17.241,22 L6.759,22 C5.954,22 5.289,22 4.748,21.956 C4.186,21.91 3.669,21.811 3.184,21.564 C2.431,21.181 1.819,20.569 1.436,19.816 C1.189,19.331 1.09,18.814 1.044,18.252 C1,17.711 1,17.046 1,16.241 L1,7.759 C1,6.954 1,6.289 1.044,5.748 C1.09,5.186 1.189,4.669 1.436,4.184 C1.819,3.431 2.431,2.819 3.184,2.436 C3.669,2.189 4.186,2.09 4.748,2.044 C5.289,2 5.954,2 6.759,2 L17.241,2 Z M3,10 L3,16.2 C3,17.057 3.001,17.639 3.038,18.089 C3.073,18.527 3.138,18.752 3.218,18.908 C3.41,19.284 3.716,19.59 4.092,19.782 C4.248,19.862 4.473,19.927 4.911,19.962 C5.361,19.999 5.943,20 6.8,20 L17.2,20 C18.057,20 18.639,19.999 19.089,19.962 C19.527,19.927 19.752,19.862 19.908,19.782 C20.284,19.59 20.59,19.284 20.782,18.908 C20.862,18.752 20.927,18.527 20.962,18.089 C20.999,17.639 21,17.057 21,16.2 L21,10 Z M21,8 L21,7.8 C21,6.943 20.999,6.361 20.962,5.911 C20.927,5.473 20.862,5.248 20.782,5.092 C20.59,4.716 20.284,4.41 19.908,4.218 C19.752,4.138 19.527,4.073 19.089,4.038 C18.639,4.001 18.057,4 17.2,4 L6.8,4 C5.943,4 5.361,4.001 4.911,4.038 C4.473,4.073 4.248,4.138 4.092,4.218 C3.716,4.41 3.41,4.716 3.218,5.092 C3.138,5.248 3.073,5.473 3.038,5.911 C3.001,6.361 3,6.943 3,7.8 L3,8 Z M10.707,11.793 C11.098,12.183 11.098,12.817 10.707,13.207 L8.914,15 L10.707,16.793 C11.098,17.183 11.098,17.817 10.707,18.207 C10.317,18.598 9.683,18.598 9.293,18.207 L6.793,15.707 C6.402,15.317 6.402,14.683 6.793,14.293 L9.293,11.793 C9.683,11.402 10.317,11.402 10.707,11.793 Z M13.293,11.793 C13.683,11.402 14.317,11.402 14.707,11.793 L17.207,14.293 C17.598,14.683 17.598,15.317 17.207,15.707 L14.707,18.207 C14.317,18.598 13.683,18.598 13.293,18.207 C12.902,17.817 12.902,17.183 13.293,16.793 L15.086,15 L13.293,13.207 C12.902,12.817 12.902,12.183 13.293,11.793 Z"/>
</svg>
