<svg xmlns="http://www.w3.org/2000/svg" width="24" height="24" viewBox="0 0 24 24">
  <defs/>
  <path d="M8.707,5.293 C9.098,5.683 9.098,6.317 8.707,6.707 L3.414,12 L8.707,17.293 C9.098,17.683 9.098,18.317 8.707,18.707 C8.317,19.098 7.683,19.098 7.293,18.707 L1.293,12.707 C0.902,12.317 0.902,11.683 1.293,11.293 L7.293,5.293 C7.683,4.902 8.317,4.902 8.707,5.293 Z M15.293,5.293 C15.683,4.902 16.317,4.902 16.707,5.293 L22.707,11.293 C23.098,11.683 23.098,12.317 22.707,12.707 L16.707,18.707 C16.317,19.098 15.683,19.098 15.293,18.707 C14.902,18.317 14.902,17.683 15.293,17.293 L20.586,12 L15.293,6.707 C14.902,6.317 14.902,5.683 15.293,5.293 Z"/>
</svg>
