<svg xmlns="http://www.w3.org/2000/svg" width="24" height="24" viewBox="0 0 24 24">
  <defs/>
  <path d="M14.217,2.024 C14.756,2.144 15.096,2.678 14.976,3.217 L10.976,21.217 C10.856,21.756 10.322,22.096 9.783,21.976 C9.244,21.857 8.904,21.322 9.024,20.783 L13.024,2.783 C13.144,2.244 13.678,1.904 14.217,2.024 Z M7.707,6.293 C8.098,6.684 8.098,7.317 7.707,7.707 L3.414,12 L7.707,16.293 C8.098,16.684 8.098,17.317 7.707,17.707 C7.317,18.098 6.683,18.098 6.293,17.707 L1.293,12.707 C0.902,12.317 0.902,11.684 1.293,11.293 L6.293,6.293 C6.683,5.903 7.317,5.903 7.707,6.293 Z M16.293,6.293 C16.683,5.903 17.317,5.903 17.707,6.293 L22.707,11.293 C23.098,11.684 23.098,12.317 22.707,12.707 L17.707,17.707 C17.317,18.098 16.683,18.098 16.293,17.707 C15.902,17.317 15.902,16.684 16.293,16.293 L20.586,12 L16.293,7.707 C15.902,7.317 15.902,6.684 16.293,6.293 Z"/>
</svg>
