<svg xmlns="http://www.w3.org/2000/svg" width="24" height="24" viewBox="0 0 24 24">
  <defs/>
  <path d="M1,12 C1,5.925 5.925,1 12,1 C18.075,1 23,5.925 23,12 C23,18.075 18.075,23 12,23 C5.925,23 1,18.075 1,12 Z M12,3 C7.029,3 3,7.029 3,12 C3,16.971 7.029,21 12,21 C16.971,21 21,16.971 21,12 C21,7.029 16.971,3 12,3 Z M10.707,6.293 C11.098,6.683 11.098,7.317 10.707,7.707 L8.414,10 L10.707,12.293 C11.098,12.683 11.098,13.317 10.707,13.707 C10.317,14.098 9.683,14.098 9.293,13.707 L6.293,10.707 C5.902,10.317 5.902,9.683 6.293,9.293 L9.293,6.293 C9.683,5.902 10.317,5.902 10.707,6.293 Z M13.293,10.293 C13.683,9.902 14.317,9.902 14.707,10.293 L17.707,13.293 C18.098,13.683 18.098,14.317 17.707,14.707 L14.707,17.707 C14.317,18.098 13.683,18.098 13.293,17.707 C12.902,17.317 12.902,16.683 13.293,16.293 L15.586,14 L13.293,11.707 C12.902,11.317 12.902,10.683 13.293,10.293 Z"/>
</svg>
