<svg xmlns="http://www.w3.org/2000/svg" width="24" height="24" viewBox="0 0 24 24">
  <defs/>
  <path d="M7.203,7.203 C8.019,3.65 11.199,1 15,1 C19.418,1 23,4.582 23,9 C23,12.801 20.351,15.981 16.797,16.797 C15.982,20.35 12.8,23 9,23 C4.582,23 1,19.418 1,15 C1,11.2 3.65,8.018 7.203,7.203 Z M8.181,9.055 C5.255,9.455 3,11.964 3,15 C3,18.314 5.686,21 9,21 C12.036,21 14.545,18.746 14.944,15.819 C14.946,15.809 14.947,15.799 14.949,15.789 C14.983,15.531 15,15.267 15,15 C15,11.686 12.314,9 9,9 C8.732,9 8.469,9.018 8.211,9.051 C8.201,9.053 8.191,9.054 8.181,9.055 Z M16.993,14.661 C19.327,13.84 21,11.615 21,9 C21,5.686 18.314,3 15,3 C12.385,3 10.16,4.673 9.339,7.007 C13.488,7.18 16.82,10.512 16.993,14.661 Z M9.472,11.118 C9.797,11.292 10,11.631 10,12 L10,16.5 L10.5,16.5 C11.052,16.5 11.5,16.948 11.5,17.5 C11.5,18.052 11.052,18.5 10.5,18.5 L7.5,18.5 C6.948,18.5 6.5,18.052 6.5,17.5 C6.5,16.948 6.948,16.5 7.5,16.5 L8,16.5 L8,13.866 C7.547,14.128 6.962,13.996 6.668,13.555 C6.362,13.095 6.486,12.474 6.945,12.168 L8.445,11.168 C8.752,10.963 9.147,10.944 9.472,11.118 Z"/>
</svg>
