<svg xmlns="http://www.w3.org/2000/svg" width="24" height="24" viewBox="0 0 24 24">
  <defs/>
  <path d="M7.203,7.203 C8.019,3.65 11.199,1 15,1 C19.418,1 23,4.582 23,9 C23,12.801 20.351,15.981 16.797,16.797 C15.982,20.35 12.8,23 9,23 C4.582,23 1,19.418 1,15 C1,11.2 3.65,8.018 7.203,7.203 Z M8.181,9.055 C5.255,9.455 3,11.964 3,15 C3,18.314 5.686,21 9,21 C12.036,21 14.545,18.746 14.944,15.819 C14.946,15.809 14.947,15.799 14.949,15.789 C14.983,15.531 15,15.267 15,15 C15,11.686 12.314,9 9,9 C8.732,9 8.469,9.018 8.211,9.051 C8.201,9.053 8.191,9.054 8.181,9.055 Z M16.993,14.661 C19.327,13.84 21,11.615 21,9 C21,5.686 18.314,3 15,3 C12.385,3 10.16,4.673 9.339,7.007 C13.488,7.18 16.82,10.512 16.993,14.661 Z"/>
</svg>
