<svg xmlns="http://www.w3.org/2000/svg" width="24" height="24" viewBox="0 0 24 24">
  <defs/>
  <path d="M1,5 C1,4.323 1.381,3.807 1.78,3.463 C2.183,3.117 2.708,2.85 3.269,2.646 C4.4,2.235 5.896,2 7.5,2 C9.104,2 10.6,2.235 11.731,2.646 C12.292,2.85 12.817,3.117 13.22,3.463 C13.619,3.807 14,4.323 14,5 L14,8.202 C14.773,8.071 15.62,8 16.5,8 C18.104,8 19.6,8.235 20.731,8.646 C21.292,8.85 21.817,9.117 22.22,9.463 C22.619,9.807 23,10.323 23,11 L23,19 C23,19.677 22.619,20.193 22.22,20.537 C21.817,20.883 21.292,21.15 20.731,21.354 C19.6,21.765 18.104,22 16.5,22 C14.896,22 13.4,21.765 12.269,21.354 C11.708,21.15 11.183,20.883 10.78,20.537 C10.548,20.337 10.323,20.08 10.174,19.767 C9.358,19.918 8.449,20 7.5,20 C5.896,20 4.4,19.765 3.269,19.354 C2.708,19.15 2.183,18.883 1.78,18.537 C1.381,18.193 1,17.677 1,17 Z M12,17.25 L12,18.937 C12.015,18.955 12.04,18.983 12.084,19.02 C12.238,19.152 12.519,19.317 12.953,19.474 C13.812,19.787 15.066,20 16.5,20 C17.934,20 19.188,19.787 20.047,19.474 C20.481,19.317 20.762,19.152 20.916,19.02 C20.959,18.983 20.985,18.955 21,18.937 L21,17.25 C20.912,17.286 20.822,17.321 20.731,17.354 C19.6,17.765 18.104,18 16.5,18 C14.896,18 13.4,17.765 12.269,17.354 C12.178,17.321 12.089,17.286 12,17.25 Z M12,7.25 C11.911,7.286 11.822,7.321 11.731,7.354 C10.6,7.765 9.104,8 7.5,8 C5.896,8 4.4,7.765 3.269,7.354 C3.178,7.321 3.089,7.286 3,7.25 L3,8.937 C3.015,8.955 3.04,8.983 3.084,9.02 C3.238,9.152 3.519,9.317 3.953,9.474 C4.812,9.787 6.066,10 7.5,10 C8.706,10 9.79,9.849 10.62,9.612 C10.672,9.559 10.726,9.51 10.78,9.463 C10.824,9.426 10.868,9.39 10.915,9.354 C10.923,9.348 10.931,9.341 10.939,9.335 C11.017,9.277 11.098,9.221 11.183,9.167 C11.391,9.034 11.618,8.916 11.856,8.811 C11.904,8.79 11.952,8.77 12,8.75 Z M13.205,10.44 L11.931,10.179 C11.744,9.698 11.215,9.434 10.712,9.585 C10.682,9.594 10.651,9.603 10.62,9.612 C10.542,9.69 10.469,9.774 10.4,9.864 L11.931,10.179 C11.941,10.204 11.95,10.229 11.958,10.255 C12.035,10.513 12.003,10.778 11.889,11 L12,11 C12,10.956 11.991,10.929 11.986,10.918 C11.993,10.929 12.014,10.957 12.061,11 C12.031,11.027 12.012,11.049 12,11.063 L12.061,11 C12.068,11.006 12.076,11.013 12.084,11.02 C12.238,11.152 12.519,11.317 12.953,11.474 C13.812,11.787 15.066,12 16.5,12 C17.934,12 19.188,11.787 20.047,11.474 C20.481,11.317 20.762,11.152 20.916,11.02 C20.924,11.013 20.932,11.006 20.939,11 C20.932,10.994 20.924,10.987 20.916,10.98 C20.762,10.848 20.481,10.683 20.047,10.526 C19.188,10.213 17.934,10 16.5,10 C15.245,10 14.127,10.163 13.291,10.414 C13.29,10.414 13.289,10.415 13.288,10.415 C13.259,10.423 13.232,10.432 13.205,10.44 Z M10,15.798 C9.229,15.929 8.382,16 7.5,16 C5.896,16 4.4,15.765 3.269,15.354 C3.178,15.321 3.089,15.286 3,15.25 L3,16.937 C3.015,16.955 3.04,16.983 3.084,17.02 C3.238,17.152 3.519,17.317 3.953,17.474 C4.812,17.787 6.066,18 7.5,18 C8.425,18 9.278,17.911 10,17.763 Z M3.061,5 C3.068,5.006 3.076,5.013 3.084,5.02 C3.238,5.152 3.519,5.317 3.953,5.474 C4.812,5.787 6.066,6 7.5,6 C8.934,6 10.188,5.787 11.047,5.474 C11.481,5.317 11.762,5.152 11.916,5.02 C11.924,5.013 11.932,5.006 11.939,5 C11.932,4.994 11.924,4.987 11.916,4.98 C11.762,4.848 11.481,4.683 11.047,4.526 C10.188,4.213 8.934,4 7.5,4 C6.066,4 4.812,4.213 3.953,4.526 C3.519,4.683 3.238,4.848 3.084,4.98 C3.076,4.987 3.068,4.994 3.061,5 Z M21,14.937 L12,14.566 L12,14.937 C12.015,14.955 12.04,14.983 12.084,15.02 C12.238,15.152 12.519,15.317 12.953,15.474 C13.812,15.787 15.066,16 16.5,16 C17.934,16 19.188,15.787 20.047,15.474 C20.481,15.317 20.762,15.152 20.916,15.02 C20.959,14.983 20.985,14.955 21,14.937 Z M10,13.763 C9.797,13.805 9.584,13.842 9.362,13.873 L11.958,14.255 C11.984,14.344 11.998,14.432 12,14.52 L12,13.25 C11.541,13.061 11.118,12.827 10.78,12.537 C10.548,12.337 10.323,12.08 10.174,11.767 C10.117,11.777 10.059,11.788 10,11.798 L10,13.763 Z M3,12.937 C3.015,12.955 3.04,12.983 3.084,13.02 C3.238,13.152 3.519,13.317 3.953,13.474 C4.812,13.787 6.066,14 7.5,14 C8.165,14 8.793,13.954 9.362,13.873 Z M3,11.25 L3,9 C3,8.956 2.991,8.929 2.986,8.918 Z M12.084,10.98 C12.076,10.987 12.068,10.994 12.061,11 C12.083,10.98 12.11,10.957 12.144,10.931 C12.177,10.907 12.214,10.881 12.254,10.856 C12.213,10.882 12.177,10.907 12.144,10.931 C12.123,10.948 12.102,10.964 12.084,10.98 Z M11.986,11.082 C11.984,11.086 11.983,11.088 11.983,11.088 L11.984,11.087 L11.984,11.087 L11.984,11.087 L11.984,11.087 C11.984,11.087 11.985,11.085 11.987,11.081 Z"/>
</svg>
