<svg xmlns="http://www.w3.org/2000/svg" width="24" height="24" viewBox="0 0 24 24">
  <defs/>
  <path d="M23,19 C23,19.677 22.619,20.193 22.22,20.537 C21.817,20.883 21.292,21.15 20.731,21.354 C19.6,21.765 18.104,22 16.5,22 C14.896,22 13.4,21.765 12.269,21.354 C11.708,21.15 11.183,20.883 10.78,20.537 C10.381,20.193 10,19.677 10,19 L10,11.5 C10,10.823 10.381,10.307 10.78,9.963 C11.183,9.617 11.708,9.35 12.269,9.146 C13.4,8.735 14.896,8.5 16.5,8.5 C18.104,8.5 19.6,8.735 20.731,9.146 C21.292,9.35 21.817,9.617 22.22,9.963 C22.619,10.307 23,10.823 23,11.5 Z M12.237,7.147 C12.074,7.222 11.904,7.291 11.731,7.354 C10.6,7.765 9.104,8 7.5,8 C5.896,8 4.4,7.765 3.269,7.354 C3.178,7.321 3.089,7.286 3,7.25 L3,8.937 C3.012,8.951 3.031,8.973 3.062,9.001 C3.19,9.118 3.431,9.27 3.817,9.423 C4.581,9.725 5.711,9.949 7.033,9.992 C7.186,9.997 7.342,10 7.5,10 C8.052,10 8.5,10.448 8.5,11 C8.5,11.552 8.052,12 7.5,12 C7.321,12 7.143,11.997 6.967,11.991 C5.486,11.943 4.116,11.692 3.081,11.283 C3.054,11.272 3.027,11.261 3,11.25 L3,12.937 C3.015,12.955 3.04,12.983 3.084,13.02 C3.238,13.152 3.519,13.317 3.953,13.474 C4.812,13.787 6.066,14 7.5,14 C8.052,14 8.5,14.448 8.5,15 C8.5,15.552 8.052,16 7.5,16 C5.896,16 4.4,15.765 3.269,15.354 C3.178,15.321 3.089,15.286 3,15.25 L3,16.937 C3.015,16.955 3.04,16.983 3.084,17.02 C3.238,17.152 3.519,17.317 3.953,17.474 C4.812,17.787 6.066,18 7.5,18 C8.052,18 8.5,18.448 8.5,19 C8.5,19.552 8.052,20 7.5,20 C5.896,20 4.4,19.765 3.269,19.354 C2.708,19.15 2.183,18.883 1.78,18.537 C1.381,18.193 1,17.677 1,17 L1,5 C1,4.323 1.381,3.807 1.78,3.463 C2.183,3.117 2.708,2.85 3.269,2.646 C4.4,2.235 5.896,2 7.5,2 C9.104,2 10.6,2.235 11.731,2.646 C12.292,2.85 12.817,3.117 13.22,3.463 C13.619,3.807 14,4.323 14,5 L14,6.5 C14,7.052 13.552,7.5 13,7.5 C12.694,7.5 12.421,7.363 12.237,7.147 Z M21,17.5 C20.912,17.536 20.822,17.571 20.731,17.604 C19.6,18.015 18.104,18.25 16.5,18.25 C14.896,18.25 13.4,18.015 12.269,17.604 C12.178,17.571 12.089,17.536 12,17.5 L12,18.937 C12.015,18.955 12.04,18.983 12.084,19.02 C12.238,19.152 12.519,19.317 12.953,19.474 C13.812,19.787 15.066,20 16.5,20 C17.934,20 19.188,19.787 20.047,19.474 C20.481,19.317 20.762,19.152 20.916,19.02 C20.959,18.983 20.985,18.955 21,18.937 Z M21,13.75 C20.912,13.786 20.822,13.821 20.731,13.854 C19.6,14.265 18.104,14.5 16.5,14.5 C14.896,14.5 13.4,14.265 12.269,13.854 C12.178,13.821 12.089,13.786 12,13.75 L12,15.187 C12.015,15.205 12.04,15.233 12.084,15.27 C12.238,15.402 12.519,15.567 12.953,15.724 C13.812,16.037 15.066,16.25 16.5,16.25 C17.934,16.25 19.188,16.037 20.047,15.724 C20.481,15.567 20.762,15.402 20.916,15.27 C20.959,15.233 20.985,15.205 21,15.187 Z M3.061,5 C3.068,5.006 3.076,5.013 3.084,5.02 C3.238,5.152 3.519,5.317 3.953,5.474 C4.812,5.787 6.066,6 7.5,6 C8.934,6 10.188,5.787 11.047,5.474 C11.481,5.317 11.762,5.152 11.916,5.02 C11.924,5.013 11.932,5.006 11.939,5 C11.932,4.994 11.924,4.987 11.916,4.98 C11.762,4.848 11.481,4.683 11.047,4.526 C10.188,4.213 8.934,4 7.5,4 C6.066,4 4.812,4.213 3.953,4.526 C3.519,4.683 3.238,4.848 3.084,4.98 C3.076,4.987 3.068,4.994 3.061,5 Z M12.061,11.5 C12.068,11.506 12.076,11.513 12.084,11.52 C12.238,11.652 12.519,11.817 12.953,11.974 C13.812,12.287 15.066,12.5 16.5,12.5 C17.934,12.5 19.188,12.287 20.047,11.974 C20.481,11.817 20.762,11.652 20.916,11.52 C20.924,11.513 20.932,11.506 20.939,11.5 C20.932,11.494 20.924,11.487 20.916,11.48 C20.762,11.348 20.481,11.183 20.047,11.026 C19.188,10.713 17.934,10.5 16.5,10.5 C15.066,10.5 13.812,10.713 12.953,11.026 C12.519,11.183 12.238,11.348 12.084,11.48 C12.076,11.487 12.068,11.494 12.061,11.5 Z"/>
</svg>
