<svg xmlns="http://www.w3.org/2000/svg" width="24" height="24" viewBox="0 0 24 24">
  <defs/>
  <path d="M1,16 C1,12.134 4.134,9 8,9 C11.866,9 15,12.134 15,16 C15,19.866 11.866,23 8,23 C4.134,23 1,19.866 1,16 Z M8,11 C5.239,11 3,13.239 3,16 C3,18.761 5.239,21 8,21 C10.761,21 13,18.761 13,16 C13,13.239 10.761,11 8,11 Z M9.221,6.251 C9.998,3.232 12.737,1 16,1 C19.866,1 23,4.134 23,8 C23,11.263 20.768,14.002 17.749,14.779 C17.215,14.917 16.669,14.595 16.532,14.06 C16.394,13.525 16.716,12.98 17.251,12.842 C19.407,12.287 21,10.328 21,8 C21,5.239 18.761,3 16,3 C13.672,3 11.713,4.593 11.158,6.749 C11.02,7.284 10.475,7.606 9.94,7.468 C9.405,7.331 9.083,6.786 9.221,6.251 Z M5.293,1.293 C5.683,0.902 6.317,0.902 6.707,1.293 L8.707,3.293 C9.098,3.683 9.098,4.317 8.707,4.707 L6.707,6.707 C6.317,7.098 5.683,7.098 5.293,6.707 C4.902,6.317 4.902,5.683 5.293,5.293 L5.553,5.033 C4.108,5.249 3,6.495 3,8 C3,8.552 2.552,9 2,9 C1.448,9 1,8.552 1,8 C1,5.373 3.026,3.219 5.601,3.016 L5.293,2.707 C4.902,2.317 4.902,1.683 5.293,1.293 Z M22,15 C22.552,15 23,15.448 23,16 C23,18.627 20.974,20.781 18.399,20.984 L18.707,21.293 C19.098,21.683 19.098,22.317 18.707,22.707 C18.317,23.098 17.683,23.098 17.293,22.707 L15.293,20.707 C14.902,20.317 14.902,19.683 15.293,19.293 L17.293,17.293 C17.683,16.902 18.317,16.902 18.707,17.293 C19.098,17.683 19.098,18.317 18.707,18.707 L18.447,18.967 C19.892,18.751 21,17.505 21,16 C21,15.448 21.448,15 22,15 Z"/>
</svg>
