<svg xmlns="http://www.w3.org/2000/svg" width="24" height="24" viewBox="0 0 24 24">
  <defs/>
  <path d="M1,15 C1,10.582 4.582,7 9,7 C13.418,7 17,10.582 17,15 C17,19.418 13.418,23 9,23 C4.582,23 1,19.418 1,15 Z M9,9 C5.686,9 3,11.686 3,15 C3,18.314 5.686,21 9,21 C12.314,21 15,18.314 15,15 C15,11.686 12.314,9 9,9 Z M9.401,3.286 C10.843,1.873 12.821,1 15,1 C19.418,1 23,4.582 23,9 C23,11.179 22.127,13.157 20.714,14.599 C20.328,14.993 19.694,15 19.3,14.613 C18.906,14.227 18.899,13.594 19.286,13.199 C20.347,12.116 21,10.635 21,9 C21,5.686 18.314,3 15,3 C13.365,3 11.884,3.653 10.801,4.714 C10.406,5.101 9.773,5.094 9.387,4.7 C9,4.305 9.007,3.672 9.401,3.286 Z"/>
</svg>
