<svg xmlns="http://www.w3.org/2000/svg" width="24" height="24" viewBox="0 0 24 24">
  <defs/>
  <path d="M14,11.803 C14.882,11.292 15.907,11 17,11 C20.314,11 23,13.686 23,17 C23,20.314 20.314,23 17,23 C15.058,23 13.332,22.078 12.236,20.647 C11.799,20.849 11.308,21.009 10.798,21.133 C9.836,21.368 8.702,21.5 7.5,21.5 C5.896,21.5 4.4,21.265 3.269,20.854 C2.708,20.65 2.183,20.383 1.78,20.037 C1.381,19.693 1,19.177 1,18.5 L1,5 C1,4.323 1.381,3.807 1.78,3.463 C2.183,3.117 2.708,2.85 3.269,2.646 C4.4,2.235 5.896,2 7.5,2 C9.104,2 10.6,2.235 11.731,2.646 C12.292,2.85 12.817,3.117 13.22,3.463 C13.619,3.807 14,4.323 14,5 Z M13,17 C13,19.209 14.791,21 17,21 C19.209,21 21,19.209 21,17 C21,14.791 19.209,13 17,13 C14.791,13 13,14.791 13,17 Z M12,7.25 C11.911,7.286 11.822,7.321 11.731,7.354 C10.6,7.765 9.104,8 7.5,8 C5.896,8 4.4,7.765 3.269,7.354 C3.178,7.321 3.089,7.286 3,7.25 L3,9.437 C3.015,9.455 3.04,9.483 3.084,9.52 C3.238,9.652 3.519,9.817 3.953,9.974 C4.812,10.287 6.066,10.5 7.5,10.5 C8.934,10.5 10.188,10.287 11.047,9.974 C11.481,9.817 11.762,9.652 11.916,9.52 C11.96,9.483 11.985,9.455 12,9.437 Z M12,11.75 C11.911,11.786 11.822,11.821 11.731,11.854 C10.6,12.265 9.104,12.5 7.5,12.5 C5.896,12.5 4.4,12.265 3.269,11.854 C3.178,11.821 3.089,11.786 3,11.75 L3,13.937 C3.015,13.955 3.04,13.983 3.084,14.02 C3.238,14.152 3.519,14.317 3.953,14.474 C4.812,14.787 6.066,15 7.5,15 C8.527,15 9.47,14.891 10.243,14.71 C10.914,14.553 11.403,14.355 11.709,14.167 C11.799,14.001 11.896,13.839 12,13.682 Z M11.002,17.155 C11.001,17.103 11,17.052 11,17 C11,16.858 11.005,16.717 11.015,16.578 C10.91,16.606 10.805,16.632 10.699,16.657 C9.759,16.877 8.662,17 7.5,17 C5.896,17 4.4,16.765 3.269,16.354 C3.178,16.321 3.089,16.286 3,16.25 L3,18.437 C3.015,18.455 3.04,18.483 3.084,18.52 C3.238,18.652 3.519,18.817 3.953,18.974 C4.812,19.287 6.066,19.5 7.5,19.5 C8.564,19.5 9.536,19.383 10.324,19.19 C10.715,19.095 11.04,18.986 11.299,18.875 C11.12,18.332 11.017,17.754 11.002,17.155 Z M3.061,5 C3.068,5.006 3.076,5.013 3.084,5.02 C3.238,5.152 3.519,5.317 3.953,5.474 C4.812,5.787 6.066,6 7.5,6 C8.934,6 10.188,5.787 11.047,5.474 C11.481,5.317 11.762,5.152 11.916,5.02 C11.924,5.013 11.932,5.006 11.939,5 C11.932,4.994 11.924,4.987 11.916,4.98 C11.762,4.848 11.481,4.683 11.047,4.526 C10.188,4.213 8.934,4 7.5,4 C6.066,4 4.812,4.213 3.953,4.526 C3.519,4.683 3.238,4.848 3.084,4.98 C3.076,4.987 3.068,4.994 3.061,5 Z"/>
</svg>
