<svg xmlns="http://www.w3.org/2000/svg" width="24" height="24" viewBox="0 0 24 24">
  <defs/>
  <path d="M5,8 C5,4.134 8.134,1 12,1 C15.866,1 19,4.134 19,8 C19,8.547 18.937,9.08 18.818,9.591 C21.28,10.675 23,13.136 23,16 C23,19.866 19.866,23 16,23 C14.514,23 13.134,22.536 12,21.745 C10.866,22.536 9.487,23 8,23 C4.134,23 1,19.866 1,16 C1,13.136 2.72,10.675 5.182,9.591 C5.063,9.08 5,8.547 5,8 Z M12,3 C9.239,3 7,5.239 7,8 C7,10.761 9.239,13 12,13 C14.761,13 17,10.761 17,8 C17,5.239 14.761,3 12,3 Z M5.911,11.456 C4.192,12.247 3,13.985 3,16 C3,18.761 5.239,21 8,21 C9.277,21 10.442,20.521 11.325,19.734 C11.331,19.729 11.337,19.724 11.342,19.719 C12.36,18.803 13,17.476 13,16 C13,15.637 12.962,15.284 12.889,14.944 C12.597,14.981 12.301,15 12,15 C9.391,15 7.115,13.572 5.911,11.456 Z M14.818,14.41 C14.937,14.921 15,15.454 15,16 C15,17.635 14.439,19.14 13.5,20.331 C14.235,20.757 15.089,21 16,21 C18.761,21 21,18.761 21,16 C21,13.985 19.808,12.247 18.089,11.456 C17.348,12.759 16.2,13.801 14.818,14.41 Z"/>
</svg>
