<svg xmlns="http://www.w3.org/2000/svg" width="24" height="24" viewBox="0 0 24 24">
  <defs/>
  <path d="M6.161,2 L6.839,2 C7.366,2 7.82,2 8.195,2.031 C8.59,2.063 8.984,2.134 9.362,2.327 C9.926,2.615 10.385,3.074 10.673,3.638 C10.866,4.016 10.937,4.41 10.969,4.805 C11,5.18 11,5.634 11,6.161 L11,17.838 C11,18.366 11,18.82 10.969,19.195 C10.937,19.59 10.866,19.984 10.673,20.362 C10.385,20.927 9.926,21.385 9.362,21.673 C8.984,21.866 8.59,21.937 8.195,21.969 C7.82,22 7.366,22 6.839,22 L6.161,22 C5.634,22 5.18,22 4.805,21.969 C4.41,21.937 4.016,21.866 3.638,21.673 C3.074,21.385 2.615,20.927 2.327,20.362 C2.134,19.984 2.063,19.59 2.031,19.195 C2,18.82 2,18.366 2,17.838 L2,6.161 C2,5.634 2,5.18 2.031,4.805 C2.063,4.41 2.134,4.016 2.327,3.638 C2.615,3.074 3.074,2.615 3.638,2.327 C4.016,2.134 4.41,2.063 4.805,2.031 C5.18,2 5.634,2 6.161,2 Z M17.162,2 L17.838,2 C18.366,2 18.82,2 19.195,2.031 C19.59,2.063 19.984,2.134 20.362,2.327 C20.927,2.615 21.385,3.074 21.673,3.638 C21.866,4.016 21.937,4.41 21.969,4.805 C22,5.18 22,5.634 22,6.161 L22,17.839 C22,18.366 22,18.82 21.969,19.195 C21.937,19.59 21.866,19.984 21.673,20.362 C21.385,20.927 20.927,21.385 20.362,21.673 C19.984,21.866 19.59,21.937 19.195,21.969 C18.82,22 18.366,22 17.839,22 L17.161,22 C16.634,22 16.18,22 15.805,21.969 C15.41,21.937 15.016,21.866 14.638,21.673 C14.073,21.385 13.615,20.927 13.327,20.362 C13.134,19.984 13.063,19.59 13.031,19.195 C13,18.82 13,18.366 13,17.838 L13,6.161 C13,5.634 13,5.18 13.031,4.805 C13.063,4.41 13.134,4.016 13.327,3.638 C13.615,3.074 14.073,2.615 14.638,2.327 C15.016,2.134 15.41,2.063 15.805,2.031 C16.18,2 16.634,2 17.162,2 Z M15.968,4.024 C15.696,4.046 15.595,4.084 15.546,4.109 C15.358,4.205 15.205,4.358 15.109,4.546 C15.084,4.595 15.046,4.696 15.024,4.968 C15.001,5.251 15,5.623 15,6.2 L15,17.8 C15,18.377 15.001,18.749 15.024,19.032 C15.046,19.304 15.084,19.404 15.109,19.454 C15.205,19.642 15.358,19.795 15.546,19.891 C15.595,19.916 15.696,19.954 15.968,19.976 C16.251,19.999 16.623,20 17.2,20 L17.8,20 C18.377,20 18.749,19.999 19.032,19.976 C19.304,19.954 19.404,19.916 19.454,19.891 C19.642,19.795 19.795,19.642 19.891,19.454 C19.916,19.404 19.954,19.304 19.976,19.032 C19.999,18.749 20,18.377 20,17.8 L20,6.2 C20,5.623 19.999,5.251 19.976,4.968 C19.954,4.696 19.916,4.595 19.891,4.546 C19.795,4.358 19.642,4.205 19.454,4.109 C19.404,4.084 19.304,4.046 19.032,4.024 C18.749,4.001 18.377,4 17.8,4 L17.2,4 C16.623,4 16.251,4.001 15.968,4.024 Z M4.968,4.024 C4.696,4.046 4.595,4.084 4.546,4.109 C4.358,4.205 4.205,4.358 4.109,4.546 C4.084,4.595 4.046,4.696 4.024,4.968 C4.001,5.251 4,5.623 4,6.2 L4,17.8 C4,18.377 4.001,18.749 4.024,19.032 C4.046,19.304 4.084,19.404 4.109,19.454 C4.205,19.642 4.358,19.795 4.546,19.891 C4.595,19.916 4.696,19.954 4.968,19.976 C5.251,19.999 5.623,20 6.2,20 L6.8,20 C7.377,20 7.749,19.999 8.032,19.976 C8.304,19.954 8.405,19.916 8.454,19.891 C8.642,19.795 8.795,19.642 8.891,19.454 C8.916,19.404 8.954,19.304 8.976,19.032 C8.999,18.749 9,18.377 9,17.8 L9,6.2 C9,5.623 8.999,5.251 8.976,4.968 C8.954,4.696 8.916,4.595 8.891,4.546 C8.795,4.358 8.642,4.205 8.454,4.109 C8.405,4.084 8.304,4.046 8.032,4.024 C7.749,4.001 7.377,4 6.8,4 L6.2,4 C5.623,4 5.251,4.001 4.968,4.024 Z"/>
</svg>
