<svg xmlns="http://www.w3.org/2000/svg" width="24" height="24" viewBox="0 0 24 24">
  <defs/>
  <path d="M2,6 C2,3.791 3.791,2 6,2 C8.209,2 10,3.791 10,6 L10,8 L14,8 L14,6 C14,3.791 15.791,2 18,2 C20.209,2 22,3.791 22,6 C22,8.209 20.209,10 18,10 L16,10 L16,14 L18,14 C20.209,14 22,15.791 22,18 C22,20.209 20.209,22 18,22 C15.791,22 14,20.209 14,18 L14,16 L10,16 L10,18 C10,20.209 8.209,22 6,22 C3.791,22 2,20.209 2,18 C2,15.791 3.791,14 6,14 L8,14 L8,10 L6,10 C3.791,10 2,8.209 2,6 Z M10,10 L10,14 L14,14 L14,10 Z M16,16 L16,18 C16,19.105 16.895,20 18,20 C19.105,20 20,19.105 20,18 C20,16.895 19.105,16 18,16 Z M16,8 L18,8 C19.105,8 20,7.105 20,6 C20,4.895 19.105,4 18,4 C16.895,4 16,4.895 16,6 Z M8,16 L6,16 C4.895,16 4,16.895 4,18 C4,19.105 4.895,20 6,20 C7.105,20 8,19.105 8,18 Z M8,8 L8,6 C8,4.895 7.105,4 6,4 C4.895,4 4,4.895 4,6 C4,7.105 4.895,8 6,8 Z"/>
</svg>
