<svg xmlns="http://www.w3.org/2000/svg" width="24" height="24" viewBox="0 0 24 24">
  <defs/>
  <path d="M4.222,4.222 L4.222,7.469 C4.444,7.088 4.694,6.725 4.968,6.382 L5.636,7.05 C6.027,7.441 6.66,7.441 7.05,7.05 C7.441,6.66 7.441,6.027 7.05,5.636 L6.382,4.968 C6.725,4.694 7.088,4.444 7.47,4.222 L11.025,4.221 C11.125,4.667 11.524,5 12,5 C12.476,5 12.875,4.667 12.975,4.221 L16.53,4.221 C16.911,4.444 17.275,4.694 17.618,4.968 L16.95,5.636 C16.559,6.026 16.559,6.659 16.949,7.05 L19.777,4.221 C21.768,6.212 23,8.962 23,12 C23,15.037 21.769,17.787 19.779,19.777 L19.778,19.778 C19.777,19.779 19.777,19.78 19.776,19.781 C17.785,21.77 15.036,23 12,23 C8.963,23 6.213,21.769 4.223,19.779 L7.051,16.95 L7.05,16.95 C6.66,16.559 6.027,16.559 5.636,16.95 L4.968,17.618 C4.694,17.275 4.444,16.912 4.222,16.531 L4.222,19.778 C4.221,19.777 4.22,19.777 4.22,19.776 C2.23,17.785 1,15.036 1,12 C1,8.962 2.231,6.212 4.222,4.222 Z M7.05,18.364 L6.382,19.032 C7.677,20.068 9.264,20.753 11,20.945 L11,20 C11,19.448 11.448,19 12,19 C12.552,19 13,19.448 13,20 L13,20.945 C14.736,20.753 16.323,20.068 17.618,19.032 L16.95,18.364 C16.559,17.973 16.559,17.34 16.95,16.95 C17.34,16.559 17.973,16.559 18.364,16.95 L19.032,17.618 C20.068,16.323 20.753,14.736 20.945,13 L20,13 C19.448,13 19,12.552 19,12 C19,11.448 19.448,11 20,11 L20.945,11 C20.753,9.264 20.068,7.677 19.032,6.382 L18.364,7.05 C17.973,7.441 17.34,7.441 16.95,7.05 L16.949,7.05 L14.229,9.771 L14.229,9.771 L16.514,11.142 C16.816,11.323 17,11.649 17,12 C17,12.351 16.816,12.677 16.514,12.858 L14.229,14.229 L12.858,16.514 C12.677,16.816 12.351,17 12,17 C11.649,17 11.323,16.816 11.142,16.514 L9.771,14.229 L7.051,16.95 C7.441,17.341 7.441,17.974 7.05,18.364 Z M19.777,4.221 L16.53,4.221 C15.471,3.604 14.276,3.196 13,3.055 L13,4 C13,4.076 12.992,4.15 12.975,4.221 L11.025,4.221 C11.009,4.15 11,4.076 11,4 L11,3.055 C9.724,3.196 8.528,3.604 7.47,4.222 L4.222,4.222 C6.212,2.231 8.962,1 12,1 C15.037,1 17.787,2.231 19.777,4.221 Z M12,7 C11.649,7 11.323,7.184 11.142,7.485 L9.771,9.771 L7.485,11.142 C7.184,11.323 7,11.649 7,12 C7,12.351 7.184,12.677 7.485,12.858 L9.771,14.229 L9.771,14.229 L11.207,12.793 C11.265,12.851 11.315,12.915 11.358,12.986 L12,14.056 L12.642,12.986 C12.727,12.845 12.845,12.727 12.986,12.642 L14.056,12 L12.986,11.358 C12.915,11.315 12.85,11.265 12.793,11.207 L14.229,9.771 L12.858,7.485 C12.677,7.184 12.351,7 12,7 Z M5,12 C5,11.524 4.667,11.126 4.222,11.025 L4.222,12.975 C4.15,12.991 4.076,13 4,13 L3.055,13 C3.196,14.276 3.604,15.472 4.222,16.531 L4.222,12.975 C4.667,12.874 5,12.476 5,12 Z M12,9.944 L12.642,11.014 C12.685,11.085 12.735,11.149 12.793,11.207 L11.207,12.793 C11.15,12.735 11.085,12.685 11.014,12.642 L9.944,12 L11.014,11.358 C11.155,11.273 11.273,11.155 11.358,11.014 Z M3.055,11 L4,11 C4.076,11 4.15,11.009 4.222,11.025 L4.222,7.469 C3.604,8.528 3.196,9.724 3.055,11 Z"/>
</svg>
