<svg xmlns="http://www.w3.org/2000/svg" width="24" height="24" viewBox="0 0 24 24">
  <defs/>
  <path d="M12,1 C12.552,1 13,1.448 13,2 L13,3.145 C14.446,3.575 15.5,4.914 15.5,6.5 C15.5,7.428 15.139,8.272 14.549,8.898 L18.57,15.823 C19.182,15.367 19.745,14.848 20.25,14.276 C20.616,13.862 21.248,13.822 21.662,14.188 C22.076,14.553 22.115,15.185 21.75,15.599 C21.103,16.332 20.375,16.991 19.58,17.563 L21.865,21.498 C22.142,21.976 21.98,22.587 21.502,22.865 C21.024,23.142 20.413,22.98 20.135,22.502 L17.871,18.602 C16.107,19.496 14.112,20 12,20 C9.888,20 7.893,19.496 6.129,18.602 L3.865,22.502 C3.587,22.98 2.975,23.142 2.498,22.865 C2.02,22.587 1.858,21.976 2.135,21.498 L4.42,17.563 C3.625,16.991 2.897,16.332 2.25,15.599 C1.885,15.185 1.924,14.553 2.338,14.188 C2.752,13.822 3.384,13.862 3.75,14.276 C4.255,14.848 4.818,15.367 5.43,15.823 L9.451,8.898 C8.861,8.272 8.5,7.428 8.5,6.5 C8.5,4.914 9.554,3.575 11,3.145 L11,2 C11,1.448 11.448,1 12,1 Z M11.18,9.903 L7.136,16.869 C8.602,17.593 10.253,18 12,18 C13.746,18 15.398,17.593 16.864,16.869 L12.82,9.903 C12.557,9.967 12.282,10 12,10 C11.718,10 11.443,9.967 11.18,9.903 Z M11.27,7.811 C11.486,7.931 11.735,8 12,8 C12.265,8 12.514,7.931 12.73,7.811 C12.738,7.806 12.745,7.801 12.753,7.797 C12.76,7.793 12.768,7.788 12.776,7.784 C13.21,7.521 13.5,7.045 13.5,6.5 C13.5,5.672 12.828,5 12,5 C11.172,5 10.5,5.672 10.5,6.5 C10.5,7.045 10.79,7.521 11.224,7.784 C11.232,7.788 11.239,7.793 11.247,7.797 C11.255,7.801 11.262,7.806 11.27,7.811 Z"/>
</svg>
