<svg xmlns="http://www.w3.org/2000/svg" width="24" height="24" viewBox="0 0 24 24">
  <defs/>
  <path d="M1,12 C1,5.925 5.925,1 12,1 C18.075,1 23,5.925 23,12 C23,18.075 18.075,23 12,23 C5.925,23 1,18.075 1,12 Z M12,3 C7.029,3 3,7.029 3,12 C3,16.971 7.029,21 12,21 C16.971,21 21,16.971 21,12 C21,7.029 16.971,3 12,3 Z M15.063,7.117 C15.246,7.074 15.588,7.007 15.953,7.138 C16.377,7.289 16.711,7.623 16.862,8.047 C16.993,8.412 16.926,8.754 16.883,8.937 C16.839,9.125 16.765,9.346 16.694,9.561 C16.69,9.572 16.686,9.583 16.683,9.594 L15.195,14.057 C15.193,14.065 15.19,14.074 15.186,14.084 C15.154,14.184 15.087,14.39 14.963,14.572 C14.858,14.725 14.725,14.858 14.572,14.963 C14.39,15.087 14.184,15.154 14.084,15.186 C14.074,15.19 14.065,15.193 14.057,15.195 L9.561,16.694 C9.346,16.765 9.125,16.839 8.937,16.883 C8.754,16.926 8.412,16.993 8.047,16.862 C7.623,16.711 7.289,16.377 7.138,15.953 C7.007,15.588 7.074,15.246 7.117,15.063 C7.161,14.875 7.234,14.654 7.306,14.439 C7.31,14.428 7.314,14.417 7.317,14.406 L8.805,9.943 C8.807,9.935 8.81,9.926 8.814,9.916 C8.846,9.816 8.913,9.61 9.037,9.428 C9.142,9.275 9.275,9.142 9.428,9.037 C9.61,8.913 9.816,8.846 9.916,8.814 C9.926,8.81 9.935,8.807 9.943,8.805 L14.406,7.317 C14.417,7.314 14.428,7.31 14.439,7.306 C14.654,7.234 14.875,7.161 15.063,7.117 Z M14.659,9.341 L10.671,10.671 L9.341,14.659 L13.329,13.329 Z"/>
</svg>
