<svg xmlns="http://www.w3.org/2000/svg" width="24" height="24" viewBox="0 0 24 24">
  <defs/>
  <path d="M13,3.055 L13,20.945 C13.189,20.924 13.376,20.898 13.561,20.865 C14.105,20.77 14.623,21.134 14.718,21.678 C14.813,22.222 14.449,22.74 13.905,22.836 C13.285,22.944 12.649,23 12,23 C5.925,23 1,18.075 1,12 C1,5.925 5.925,1 12,1 C12.65,1 13.287,1.056 13.907,1.165 C14.451,1.26 14.815,1.778 14.72,2.322 C14.625,2.866 14.106,3.23 13.562,3.135 C13.377,3.103 13.189,3.076 13,3.055 Z M11,3.055 C6.5,3.552 3,7.367 3,12 C3,16.633 6.5,20.448 11,20.945 Z M16.92,3.235 C17.237,2.782 17.86,2.673 18.312,2.99 C19.362,3.727 20.276,4.642 21.012,5.691 C21.329,6.143 21.22,6.767 20.767,7.084 C20.315,7.401 19.692,7.292 19.375,6.84 C18.772,5.98 18.023,5.231 17.163,4.628 C16.712,4.31 16.602,3.687 16.92,3.235 Z M21.678,9.281 C22.222,9.185 22.74,9.549 22.835,10.093 C22.944,10.713 23,11.351 23,12 C23,12.649 22.944,13.287 22.835,13.907 C22.74,14.451 22.222,14.815 21.678,14.719 C21.134,14.624 20.77,14.106 20.865,13.562 C20.954,13.055 21,12.533 21,12 C21,11.467 20.954,10.945 20.865,10.438 C20.77,9.894 21.134,9.376 21.678,9.281 Z M20.764,16.922 C21.216,17.24 21.325,17.863 21.007,18.315 C20.272,19.362 19.359,20.275 18.311,21.01 C17.859,21.328 17.236,21.218 16.918,20.766 C16.601,20.314 16.711,19.69 17.163,19.373 C18.02,18.771 18.769,18.023 19.371,17.166 C19.688,16.714 20.312,16.605 20.764,16.922 Z"/>
</svg>
