<svg xmlns="http://www.w3.org/2000/svg" width="24" height="24" viewBox="0 0 24 24">
  <defs/>
  <path d="M1,12 C1,5.925 5.925,1 12,1 C18.075,1 23,5.925 23,12 C23,18.075 18.075,23 12,23 C5.925,23 1,18.075 1,12 Z M12,3 C7.029,3 3,7.029 3,12 C3,16.971 7.029,21 12,21 C16.971,21 21,16.971 21,12 C21,7.029 16.971,3 12,3 Z M15.227,5.887 C15.574,5.653 16.03,5.66 16.37,5.904 C18.263,7.263 19.5,9.487 19.5,12 C19.5,16.142 16.142,19.5 12,19.5 C9.487,19.5 7.263,18.263 5.904,16.37 C5.66,16.03 5.653,15.574 5.887,15.227 C6.121,14.88 6.547,14.716 6.953,14.815 C7.448,14.936 7.966,15 8.5,15 C12.09,15 15,12.09 15,8.5 C15,7.966 14.936,7.448 14.815,6.953 C14.716,6.547 14.88,6.121 15.227,5.887 Z M16.934,9.566 C16.453,13.408 13.408,16.453 9.566,16.934 C10.3,17.296 11.126,17.5 12,17.5 C15.038,17.5 17.5,15.038 17.5,12 C17.5,11.126 17.296,10.3 16.934,9.566 Z"/>
</svg>
