<svg xmlns="http://www.w3.org/2000/svg" width="24" height="24" viewBox="0 0 24 24">
  <defs/>
  <path d="M1,12 C1,5.925 5.925,1 12,1 C18.075,1 23,5.925 23,12 C23,18.075 18.075,23 12,23 C5.925,23 1,18.075 1,12 Z M12,3 C7.029,3 3,7.029 3,12 C3,16.971 7.029,21 12,21 C16.971,21 21,16.971 21,12 C21,7.029 16.971,3 12,3 Z M11,5.5 C11,4.948 11.448,4.5 12,4.5 C16.142,4.5 19.5,7.858 19.5,12 C19.5,16.142 16.142,19.5 12,19.5 C11.448,19.5 11,19.052 11,18.5 Z M13,6.591 L13,17.409 C15.56,16.939 17.5,14.696 17.5,12 C17.5,9.304 15.56,7.061 13,6.591 Z"/>
</svg>
