<svg xmlns="http://www.w3.org/2000/svg" width="24" height="24" viewBox="0 0 24 24">
  <defs/>
  <path d="M12.161,8 L18.838,8 C19.366,8 19.82,8 20.195,8.031 C20.59,8.063 20.984,8.134 21.362,8.327 C21.927,8.615 22.385,9.074 22.673,9.638 C22.866,10.016 22.937,10.41 22.969,10.805 C23,11.179 23,11.634 23,12.161 L23,18.839 C23,19.366 23,19.82 22.969,20.195 C22.937,20.59 22.866,20.984 22.673,21.362 C22.385,21.927 21.927,22.385 21.362,22.673 C20.984,22.866 20.59,22.937 20.195,22.969 C19.82,23 19.366,23 18.839,23 L12.161,23 C11.634,23 11.179,23 10.805,22.969 C10.41,22.937 10.016,22.866 9.638,22.673 C9.074,22.385 8.615,21.927 8.327,21.362 C8.134,20.984 8.063,20.59 8.031,20.195 C8,19.82 8,19.366 8,18.838 L8,12.161 C8,11.634 8,11.179 8.031,10.805 C8.063,10.41 8.134,10.016 8.327,9.638 C8.615,9.074 9.074,8.615 9.638,8.327 C10.016,8.134 10.41,8.063 10.805,8.031 C11.179,8 11.634,8 12.161,8 Z M10.968,10.024 C10.696,10.046 10.595,10.084 10.546,10.109 C10.358,10.205 10.205,10.358 10.109,10.546 C10.084,10.595 10.046,10.696 10.024,10.968 C10.001,11.251 10,11.623 10,12.2 L10,18.8 C10,19.377 10.001,19.749 10.024,20.032 C10.046,20.304 10.084,20.404 10.109,20.454 C10.205,20.642 10.358,20.795 10.546,20.891 C10.595,20.916 10.696,20.954 10.968,20.976 C11.251,20.999 11.623,21 12.2,21 L18.8,21 C19.377,21 19.749,20.999 20.032,20.976 C20.304,20.954 20.404,20.916 20.454,20.891 C20.642,20.795 20.795,20.642 20.891,20.454 C20.916,20.405 20.954,20.304 20.976,20.032 C20.999,19.749 21,19.377 21,18.8 L21,12.2 C21,11.623 20.999,11.251 20.976,10.968 C20.954,10.696 20.916,10.595 20.891,10.546 C20.795,10.358 20.642,10.205 20.454,10.109 C20.405,10.084 20.304,10.046 20.032,10.024 C19.749,10.001 19.377,10 18.8,10 L12.2,10 C11.623,10 11.251,10.001 10.968,10.024 Z M12.032,1 L12.032,1 C12.471,1 12.849,1 13.162,1.021 C13.492,1.044 13.822,1.093 14.148,1.228 C14.883,1.533 15.467,2.117 15.772,2.852 C15.907,3.178 15.956,3.508 15.979,3.838 C16,4.151 16,4.529 16,4.968 L16,5 C16,5.552 15.552,6 15,6 C14.448,6 14,5.552 14,5 C14,4.52 14,4.211 13.983,3.974 C13.968,3.746 13.941,3.659 13.924,3.617 C13.822,3.372 13.628,3.178 13.383,3.076 C13.341,3.059 13.254,3.032 13.026,3.017 C12.789,3.001 12.48,3 12,3 L5.2,3 C4.623,3 4.251,3.001 3.968,3.024 C3.696,3.046 3.595,3.084 3.546,3.109 C3.358,3.205 3.205,3.358 3.109,3.546 C3.084,3.595 3.046,3.696 3.024,3.968 C3.001,4.251 3,4.623 3,5.2 L3,12 C3,12.48 3.001,12.789 3.017,13.026 C3.032,13.254 3.059,13.341 3.076,13.383 C3.178,13.628 3.372,13.822 3.617,13.924 C3.659,13.941 3.746,13.968 3.974,13.983 C4.211,14 4.52,14 5,14 C5.552,14 6,14.448 6,15 C6,15.552 5.552,16 5,16 L4.968,16 C4.529,16 4.151,16 3.838,15.979 C3.508,15.956 3.178,15.907 2.852,15.772 C2.117,15.467 1.533,14.883 1.228,14.148 C1.093,13.822 1.044,13.492 1.021,13.162 C1,12.849 1,12.471 1,12.032 L1,5.161 C1,4.634 1,4.18 1.031,3.805 C1.063,3.41 1.134,3.016 1.327,2.638 C1.615,2.074 2.074,1.615 2.638,1.327 C3.016,1.134 3.41,1.063 3.805,1.031 C4.18,1 4.634,1 5.161,1 L12.032,1 Z"/>
</svg>
