<svg xmlns="http://www.w3.org/2000/svg" width="24" height="24" viewBox="0 0 24 24">
  <defs/>
  <path d="M5.161,7 L12.839,7 C13.366,7 13.821,7 14.195,7.031 C14.59,7.063 14.984,7.134 15.362,7.327 C15.927,7.615 16.385,8.074 16.673,8.638 C16.866,9.016 16.937,9.41 16.969,9.805 C17,10.179 17,10.634 17,11.161 L17,18.838 C17,19.366 17,19.82 16.969,20.195 C16.937,20.59 16.866,20.984 16.673,21.362 C16.385,21.927 15.927,22.385 15.362,22.673 C14.984,22.866 14.59,22.937 14.195,22.969 C13.821,23 13.366,23 12.839,23 L5.161,23 C4.634,23 4.18,23 3.805,22.969 C3.41,22.937 3.016,22.866 2.638,22.673 C2.074,22.385 1.615,21.927 1.327,21.362 C1.134,20.984 1.063,20.59 1.031,20.195 C1,19.821 1,19.366 1,18.839 L1,11.161 C1,10.634 1,10.179 1.031,9.805 C1.063,9.41 1.134,9.016 1.327,8.638 C1.615,8.074 2.074,7.615 2.638,7.327 C3.016,7.134 3.41,7.063 3.805,7.031 C4.18,7 4.634,7 5.161,7 Z M3.968,9.024 C3.696,9.046 3.595,9.084 3.546,9.109 C3.358,9.205 3.205,9.358 3.109,9.546 C3.084,9.595 3.046,9.696 3.024,9.968 C3.001,10.251 3,10.623 3,11.2 L3,18.8 C3,19.377 3.001,19.749 3.024,20.032 C3.046,20.304 3.084,20.404 3.109,20.454 C3.205,20.642 3.358,20.795 3.546,20.891 C3.595,20.916 3.696,20.954 3.968,20.976 C4.251,20.999 4.623,21 5.2,21 L12.8,21 C13.377,21 13.749,20.999 14.032,20.976 C14.304,20.954 14.405,20.916 14.454,20.891 C14.642,20.795 14.795,20.642 14.891,20.454 C14.916,20.404 14.954,20.304 14.976,20.032 C14.999,19.749 15,19.377 15,18.8 L15,11.2 C15,10.623 14.999,10.251 14.976,9.968 C14.954,9.696 14.916,9.595 14.891,9.546 C14.795,9.358 14.642,9.205 14.454,9.109 C14.405,9.084 14.304,9.046 14.032,9.024 C13.749,9.001 13.377,9 12.8,9 L5.2,9 C4.623,9 4.251,9.001 3.968,9.024 Z M11.5,1.989 C11.507,2.541 11.066,2.995 10.514,3.003 C9.82,3.012 9.639,3.061 9.546,3.109 C9.358,3.205 9.205,3.358 9.109,3.546 C9.061,3.639 9.012,3.82 9.003,4.514 C8.995,5.066 8.541,5.507 7.989,5.5 C7.437,5.492 6.995,5.039 7.003,4.486 C7.012,3.83 7.041,3.2 7.327,2.638 C7.615,2.074 8.074,1.615 8.638,1.327 C9.2,1.041 9.83,1.012 10.486,1.003 C11.039,0.995 11.492,1.437 11.5,1.989 Z M22.011,12.5 C22.563,12.508 23.005,12.961 22.997,13.514 C22.988,14.17 22.959,14.8 22.673,15.362 C22.385,15.927 21.927,16.385 21.362,16.673 C20.8,16.959 20.17,16.988 19.514,16.997 C18.961,17.005 18.508,16.563 18.5,16.011 C18.493,15.458 18.934,15.005 19.486,14.997 C20.18,14.988 20.361,14.939 20.454,14.891 C20.642,14.795 20.795,14.642 20.891,14.454 C20.939,14.361 20.988,14.18 20.997,13.486 C21.005,12.934 21.458,12.493 22.011,12.5 Z M18.5,1.989 C18.508,1.437 18.961,0.995 19.514,1.003 C20.17,1.012 20.8,1.041 21.362,1.327 C21.927,1.615 22.385,2.074 22.673,2.638 C22.959,3.2 22.988,3.83 22.997,4.486 C23.005,5.039 22.563,5.492 22.011,5.5 C21.458,5.507 21.005,5.066 20.997,4.514 C20.988,3.82 20.939,3.639 20.891,3.546 C20.795,3.358 20.642,3.205 20.454,3.109 C20.361,3.061 20.18,3.012 19.486,3.003 C18.934,2.995 18.493,2.541 18.5,1.989 Z M22,7 C22.552,7 23,7.448 23,8 L23,10 C23,10.552 22.552,11 22,11 C21.448,11 21,10.552 21,10 L21,8 C21,7.448 21.448,7 22,7 Z M13,2 C13,1.448 13.448,1 14,1 L16,1 C16.552,1 17,1.448 17,2 C17,2.552 16.552,3 16,3 L14,3 C13.448,3 13,2.552 13,2 Z"/>
</svg>
