<svg xmlns="http://www.w3.org/2000/svg" width="24" height="24" viewBox="0 0 24 24">
  <defs/>
  <path d="M18.838,1 L18.839,1 C19.366,1 19.821,1 20.195,1.031 C20.59,1.063 20.984,1.134 21.362,1.327 C21.927,1.615 22.385,2.074 22.673,2.638 C22.866,3.016 22.937,3.41 22.969,3.805 C23,4.18 23,4.634 23,5.161 L23,12.839 C23,13.366 23,13.821 22.969,14.195 C22.937,14.59 22.866,14.984 22.673,15.362 C22.385,15.927 21.927,16.385 21.362,16.673 C20.984,16.866 20.59,16.937 20.195,16.969 C19.82,17 19.366,17 18.838,17 L17,17 L17,18.838 C17,19.366 17,19.82 16.969,20.195 C16.937,20.59 16.866,20.984 16.673,21.362 C16.385,21.927 15.927,22.385 15.362,22.673 C14.984,22.866 14.59,22.937 14.195,22.969 C13.821,23 13.366,23 12.839,23 L5.161,23 C4.634,23 4.18,23 3.805,22.969 C3.41,22.937 3.016,22.866 2.638,22.673 C2.074,22.385 1.615,21.927 1.327,21.362 C1.134,20.984 1.063,20.59 1.031,20.195 C1,19.821 1,19.366 1,18.839 L1,11.161 C1,10.634 1,10.179 1.031,9.805 C1.063,9.41 1.134,9.016 1.327,8.638 C1.615,8.074 2.074,7.615 2.638,7.327 C3.016,7.134 3.41,7.063 3.805,7.031 C4.18,7 4.634,7 5.161,7 L7,7 L7,5.161 C7,4.634 7,4.18 7.031,3.805 C7.063,3.41 7.134,3.016 7.327,2.638 C7.615,2.074 8.074,1.615 8.638,1.327 C9.016,1.134 9.41,1.063 9.805,1.031 C10.179,1 10.634,1 11.161,1 L18.838,1 Z M5.2,9 C4.623,9 4.251,9.001 3.968,9.024 C3.696,9.046 3.595,9.084 3.546,9.109 C3.358,9.205 3.205,9.358 3.109,9.546 C3.084,9.595 3.046,9.696 3.024,9.968 C3.001,10.251 3,10.623 3,11.2 L3,18.8 C3,19.377 3.001,19.749 3.024,20.032 C3.046,20.304 3.084,20.405 3.109,20.454 C3.205,20.642 3.358,20.795 3.546,20.891 C3.595,20.916 3.696,20.954 3.968,20.976 C4.251,20.999 4.623,21 5.2,21 L12.8,21 C13.377,21 13.749,20.999 14.032,20.976 C14.304,20.954 14.405,20.916 14.454,20.891 C14.642,20.795 14.795,20.642 14.891,20.454 C14.916,20.405 14.954,20.304 14.976,20.032 C14.999,19.749 15,19.377 15,18.8 L15,11.2 C15,10.623 14.999,10.251 14.976,9.968 C14.954,9.696 14.916,9.595 14.891,9.546 C14.795,9.358 14.642,9.205 14.454,9.109 C14.405,9.084 14.304,9.046 14.032,9.024 C13.749,9.001 13.377,9 12.8,9 Z M17,15 L18.8,15 C19.377,15 19.749,14.999 20.032,14.976 C20.304,14.954 20.405,14.916 20.454,14.891 C20.642,14.795 20.795,14.642 20.891,14.454 C20.916,14.405 20.954,14.304 20.976,14.032 C20.999,13.749 21,13.377 21,12.8 L21,5.2 C21,4.623 20.999,4.251 20.976,3.968 C20.954,3.696 20.916,3.595 20.891,3.546 C20.795,3.358 20.642,3.205 20.454,3.109 C20.405,3.084 20.304,3.046 20.032,3.024 C19.749,3.001 19.377,3 18.8,3 L11.2,3 C10.623,3 10.251,3.001 9.968,3.024 C9.696,3.046 9.595,3.084 9.546,3.109 C9.358,3.205 9.205,3.358 9.109,3.546 C9.084,3.595 9.046,3.696 9.024,3.968 C9.001,4.251 9,4.623 9,5.2 L9,7 L12.839,7 C13.366,7 13.821,7 14.195,7.031 C14.59,7.063 14.984,7.134 15.362,7.327 C15.927,7.615 16.385,8.074 16.673,8.638 C16.866,9.016 16.937,9.41 16.969,9.805 C17,10.18 17,10.634 17,11.161 Z"/>
</svg>
