<svg xmlns="http://www.w3.org/2000/svg" width="24" height="24" viewBox="0 0 24 24">
  <defs/>
  <path d="M6.161,5.5 L14.339,5.5 C14.866,5.5 15.321,5.5 15.695,5.531 C16.09,5.563 16.484,5.634 16.862,5.827 C17.427,6.115 17.885,6.574 18.173,7.138 C18.366,7.516 18.437,7.91 18.469,8.305 C18.5,8.68 18.5,9.134 18.5,9.661 L18.5,17.838 C18.5,18.366 18.5,18.82 18.469,19.195 C18.437,19.59 18.366,19.984 18.173,20.362 C17.885,20.927 17.427,21.385 16.862,21.673 C16.484,21.866 16.09,21.937 15.695,21.969 C15.321,22 14.866,22 14.339,22 L6.161,22 C5.634,22 5.18,22 4.805,21.969 C4.41,21.937 4.016,21.866 3.638,21.673 C3.074,21.385 2.615,20.927 2.327,20.362 C2.134,19.984 2.063,19.59 2.031,19.195 C2,18.82 2,18.366 2,17.838 L2,9.661 C2,9.134 2,8.68 2.031,8.305 C2.063,7.91 2.134,7.516 2.327,7.138 C2.615,6.574 3.074,6.115 3.638,5.827 C4.016,5.634 4.41,5.563 4.805,5.531 C5.18,5.5 5.634,5.5 6.161,5.5 Z M4.968,7.524 C4.696,7.546 4.595,7.584 4.546,7.609 C4.358,7.705 4.205,7.858 4.109,8.046 C4.084,8.095 4.046,8.196 4.024,8.468 C4.001,8.751 4,9.123 4,9.7 L4,17.8 C4,18.377 4.001,18.749 4.024,19.032 C4.046,19.304 4.084,19.404 4.109,19.454 C4.205,19.642 4.358,19.795 4.546,19.891 C4.595,19.916 4.696,19.954 4.968,19.976 C5.251,19.999 5.623,20 6.2,20 L14.3,20 C14.877,20 15.249,19.999 15.532,19.976 C15.804,19.954 15.905,19.916 15.954,19.891 C16.142,19.795 16.295,19.642 16.391,19.454 C16.416,19.404 16.454,19.304 16.476,19.032 C16.499,18.749 16.5,18.377 16.5,17.8 L16.5,9.7 C16.5,9.123 16.499,8.751 16.476,8.468 C16.454,8.196 16.416,8.095 16.391,8.046 C16.295,7.858 16.142,7.705 15.954,7.609 C15.905,7.584 15.804,7.546 15.532,7.524 C15.249,7.501 14.877,7.5 14.3,7.5 L6.2,7.5 C5.623,7.5 5.251,7.501 4.968,7.524 Z M17.146,4.051 C16.529,4.001 15.737,4 14.6,4 L7.5,4 C6.948,4 6.5,3.552 6.5,3 C6.5,2.448 6.948,2 7.5,2 L14.643,2 C15.727,2 16.601,2 17.309,2.058 C18.038,2.117 18.678,2.243 19.27,2.545 C20.211,3.024 20.976,3.789 21.455,4.73 C21.757,5.322 21.883,5.963 21.942,6.691 C22,7.399 22,8.273 22,9.357 L22,16.5 C22,17.052 21.552,17.5 21,17.5 C20.448,17.5 20,17.052 20,16.5 L20,9.4 C20,8.263 19.999,7.471 19.949,6.854 C19.899,6.249 19.807,5.901 19.673,5.638 C19.385,5.074 18.927,4.615 18.362,4.327 C18.099,4.193 17.751,4.101 17.146,4.051 Z"/>
</svg>
