<svg xmlns="http://www.w3.org/2000/svg" width="24" height="24" viewBox="0 0 24 24">
  <defs/>
  <path d="M9.707,3.293 C10.098,3.683 10.098,4.317 9.707,4.707 L6.414,8 L10.444,8 C12.087,8 13.381,8 14.422,8.085 C15.485,8.172 16.372,8.352 17.178,8.763 C18.495,9.434 19.566,10.505 20.237,11.822 C20.648,12.628 20.828,13.515 20.915,14.578 C21,15.619 21,16.913 21,18.556 L21,20 C21,20.552 20.552,21 20,21 C19.448,21 19,20.552 19,20 L19,18.6 C19,16.903 18.999,15.691 18.922,14.741 C18.845,13.802 18.698,13.207 18.455,12.73 C17.976,11.789 17.211,11.024 16.27,10.545 C15.793,10.302 15.198,10.155 14.259,10.078 C13.309,10.001 12.097,10 10.4,10 L6.414,10 L9.707,13.293 C10.098,13.683 10.098,14.317 9.707,14.707 C9.317,15.098 8.683,15.098 8.293,14.707 L3.293,9.707 C2.902,9.317 2.902,8.683 3.293,8.293 L8.293,3.293 C8.683,2.902 9.317,2.902 9.707,3.293 Z"/>
</svg>
