<svg xmlns="http://www.w3.org/2000/svg" width="24" height="24" viewBox="0 0 24 24">
  <defs/>
  <path d="M17.556,3 L21,3 C21.552,3 22,3.448 22,4 C22,4.552 21.552,5 21,5 L17.6,5 C15.903,5 14.691,5.001 13.741,5.078 C12.802,5.155 12.207,5.302 11.73,5.545 C10.789,6.024 10.024,6.789 9.545,7.73 C9.302,8.207 9.155,8.802 9.078,9.741 C9.001,10.691 9,11.903 9,13.6 L9,17.586 L12.293,14.293 C12.683,13.902 13.317,13.902 13.707,14.293 C14.098,14.683 14.098,15.317 13.707,15.707 L8.707,20.707 C8.52,20.895 8.265,21 8,21 C7.735,21 7.48,20.895 7.293,20.707 L2.293,15.707 C1.902,15.317 1.902,14.683 2.293,14.293 C2.683,13.902 3.317,13.902 3.707,14.293 L7,17.586 L7,13.556 C7,11.913 7,10.619 7.085,9.578 C7.172,8.515 7.352,7.628 7.763,6.822 C8.434,5.505 9.505,4.434 10.822,3.763 C11.628,3.352 12.515,3.172 13.578,3.085 C14.619,3 15.913,3 17.556,3 Z"/>
</svg>
