<svg xmlns="http://www.w3.org/2000/svg" width="24" height="24" viewBox="0 0 24 24">
  <defs/>
  <path d="M10.259,5.078 C9.309,5.001 8.097,5 6.4,5 L3,5 C2.448,5 2,4.552 2,4 C2,3.448 2.448,3 3,3 L6.444,3 C8.087,3 9.381,3 10.422,3.085 C11.485,3.172 12.372,3.352 13.178,3.763 C14.495,4.434 15.566,5.505 16.237,6.822 C16.648,7.628 16.828,8.515 16.915,9.578 C17,10.619 17,11.913 17,13.556 L17,17.586 L20.293,14.293 C20.683,13.902 21.317,13.902 21.707,14.293 C22.098,14.683 22.098,15.317 21.707,15.707 L16.707,20.707 C16.52,20.895 16.265,21 16,21 C15.735,21 15.48,20.895 15.293,20.707 L10.293,15.707 C9.902,15.317 9.902,14.683 10.293,14.293 C10.683,13.902 11.317,13.902 11.707,14.293 L15,17.586 L15,13.6 C15,11.903 14.999,10.691 14.922,9.741 C14.845,8.802 14.698,8.207 14.455,7.73 C13.976,6.789 13.211,6.024 12.27,5.545 C11.793,5.302 11.198,5.155 10.259,5.078 Z"/>
</svg>
