<svg xmlns="http://www.w3.org/2000/svg" width="24" height="24" viewBox="0 0 24 24">
  <defs/>
  <path d="M14.293,3.293 C14.683,2.902 15.317,2.902 15.707,3.293 L20.707,8.293 C21.098,8.683 21.098,9.317 20.707,9.707 L15.707,14.707 C15.317,15.098 14.683,15.098 14.293,14.707 C13.902,14.317 13.902,13.683 14.293,13.293 L17.586,10 L13.6,10 C11.903,10 10.691,10.001 9.741,10.078 C8.802,10.155 8.207,10.302 7.73,10.545 C6.789,11.024 6.024,11.789 5.545,12.73 C5.302,13.207 5.155,13.802 5.078,14.741 C5.001,15.691 5,16.903 5,18.6 L5,20 C5,20.552 4.552,21 4,21 C3.448,21 3,20.552 3,20 L3,18.556 C3,16.913 3,15.619 3.085,14.578 C3.172,13.515 3.352,12.628 3.763,11.822 C4.434,10.505 5.505,9.434 6.822,8.763 C7.628,8.352 8.515,8.172 9.578,8.085 C10.619,8 11.913,8 13.556,8 L17.586,8 L14.293,4.707 C13.902,4.317 13.902,3.683 14.293,3.293 Z"/>
</svg>
