<svg xmlns="http://www.w3.org/2000/svg" width="24" height="24" viewBox="0 0 24 24">
  <defs/>
  <path d="M4,3 C4.552,3 5,3.448 5,4 L5,5.4 C5,7.097 5.001,8.309 5.078,9.259 C5.155,10.198 5.302,10.793 5.545,11.27 C6.024,12.211 6.789,12.976 7.73,13.455 C8.207,13.698 8.802,13.845 9.741,13.922 C10.691,13.999 11.903,14 13.6,14 L17.586,14 L14.293,10.707 C13.902,10.317 13.902,9.683 14.293,9.293 C14.683,8.902 15.317,8.902 15.707,9.293 L20.707,14.293 C21.098,14.683 21.098,15.317 20.707,15.707 L15.707,20.707 C15.317,21.098 14.683,21.098 14.293,20.707 C13.902,20.317 13.902,19.683 14.293,19.293 L17.586,16 L13.556,16 C11.913,16 10.619,16 9.578,15.915 C8.515,15.828 7.628,15.648 6.822,15.237 C5.505,14.566 4.434,13.495 3.763,12.178 C3.352,11.372 3.172,10.485 3.085,9.422 C3,8.381 3,7.087 3,5.444 L3,4 C3,3.448 3.448,3 4,3 Z"/>
</svg>
