<svg xmlns="http://www.w3.org/2000/svg" width="24" height="24" viewBox="0 0 24 24">
  <defs/>
  <path d="M16,3 C16.265,3 16.52,3.105 16.707,3.293 L21.707,8.293 C22.098,8.683 22.098,9.317 21.707,9.707 C21.317,10.098 20.683,10.098 20.293,9.707 L17,6.414 L17,10.444 C17,12.087 17,13.381 16.915,14.422 C16.828,15.485 16.648,16.372 16.237,17.178 C15.566,18.495 14.495,19.566 13.178,20.237 C12.372,20.648 11.485,20.828 10.422,20.915 C9.381,21 8.087,21 6.444,21 L3,21 C2.448,21 2,20.552 2,20 C2,19.448 2.448,19 3,19 L6.4,19 C8.097,19 9.309,18.999 10.259,18.922 C11.198,18.845 11.793,18.698 12.27,18.455 C13.211,17.976 13.976,17.211 14.455,16.27 C14.698,15.793 14.845,15.198 14.922,14.259 C14.999,13.309 15,12.097 15,10.4 L15,6.414 L11.707,9.707 C11.317,10.098 10.683,10.098 10.293,9.707 C9.902,9.317 9.902,8.683 10.293,8.293 L15.293,3.293 C15.48,3.105 15.735,3 16,3 Z"/>
</svg>
