<svg xmlns="http://www.w3.org/2000/svg" width="24" height="24" viewBox="0 0 24 24">
  <defs/>
  <path d="M20,3 C20.552,3 21,3.448 21,4 L21,5.444 C21,7.087 21,8.381 20.915,9.422 C20.828,10.485 20.648,11.372 20.237,12.178 C19.566,13.495 18.495,14.566 17.178,15.237 C16.372,15.648 15.485,15.828 14.422,15.915 C13.381,16 12.087,16 10.444,16 L6.414,16 L9.707,19.293 C10.098,19.683 10.098,20.317 9.707,20.707 C9.317,21.098 8.683,21.098 8.293,20.707 L3.293,15.707 C2.902,15.317 2.902,14.683 3.293,14.293 L8.293,9.293 C8.683,8.902 9.317,8.902 9.707,9.293 C10.098,9.683 10.098,10.317 9.707,10.707 L6.414,14 L10.4,14 C12.097,14 13.309,13.999 14.259,13.922 C15.198,13.845 15.793,13.698 16.27,13.455 C17.211,12.976 17.976,12.211 18.455,11.27 C18.698,10.793 18.845,10.198 18.922,9.259 C18.999,8.309 19,7.097 19,5.4 L19,4 C19,3.448 19.448,3 20,3 Z"/>
</svg>
