<svg xmlns="http://www.w3.org/2000/svg" width="24" height="24" viewBox="0 0 24 24">
  <defs/>
  <path d="M8,3 C8.265,3 8.52,3.105 8.707,3.293 L13.707,8.293 C14.098,8.683 14.098,9.317 13.707,9.707 C13.317,10.098 12.683,10.098 12.293,9.707 L9,6.414 L9,10.4 C9,12.097 9.001,13.309 9.078,14.259 C9.155,15.198 9.302,15.793 9.545,16.27 C10.024,17.211 10.789,17.976 11.73,18.455 C12.207,18.698 12.802,18.845 13.741,18.922 C14.691,18.999 15.903,19 17.6,19 L21,19 C21.552,19 22,19.448 22,20 C22,20.552 21.552,21 21,21 L17.556,21 C15.913,21 14.619,21 13.578,20.915 C12.515,20.828 11.628,20.648 10.822,20.237 C9.505,19.566 8.434,18.495 7.763,17.178 C7.352,16.372 7.172,15.485 7.085,14.422 C7,13.381 7,12.087 7,10.444 L7,6.414 L3.707,9.707 C3.317,10.098 2.683,10.098 2.293,9.707 C1.902,9.317 1.902,8.683 2.293,8.293 L7.293,3.293 C7.48,3.105 7.735,3 8,3 Z"/>
</svg>
