<svg xmlns="http://www.w3.org/2000/svg" width="24" height="24" viewBox="0 0 24 24">
  <defs/>
  <path d="M9,1 C9.552,1 10,1.448 10,2 L10,3 L14,3 L14,2 C14,1.448 14.448,1 15,1 C15.552,1 16,1.448 16,2 L16,3.002 C16.476,3.005 16.891,3.015 17.252,3.044 C17.814,3.09 18.331,3.189 18.816,3.436 C19.569,3.819 20.181,4.431 20.564,5.184 C20.811,5.669 20.91,6.186 20.956,6.748 C20.985,7.109 20.995,7.525 20.998,8 L22,8 C22.552,8 23,8.448 23,9 C23,9.552 22.552,10 22,10 L21,10 L21,13 L22,13 C22.552,13 23,13.448 23,14 C23,14.552 22.552,15 22,15 L21,15 L21,15.241 C21,16.046 21,16.711 20.956,17.252 C20.91,17.814 20.811,18.331 20.564,18.816 C20.181,19.569 19.569,20.181 18.816,20.564 C18.331,20.811 17.814,20.91 17.252,20.956 C16.891,20.985 16.476,20.995 16,20.998 L16,22 C16,22.552 15.552,23 15,23 C14.448,23 14,22.552 14,22 L14,21 L10,21 L10,22 C10,22.552 9.552,23 9,23 C8.448,23 8,22.552 8,22 L8,20.998 C7.525,20.995 7.109,20.985 6.748,20.956 C6.186,20.91 5.669,20.811 5.184,20.564 C4.431,20.181 3.819,19.569 3.436,18.816 C3.189,18.331 3.09,17.814 3.044,17.252 C3,16.711 3,16.046 3,15.241 L3,15 L2,15 C1.448,15 1,14.552 1,14 C1,13.448 1.448,13 2,13 L3,13 L3,10 L2,10 C1.448,10 1,9.552 1,9 C1,8.448 1.448,8 2,8 L3.002,8 C3.005,7.525 3.015,7.109 3.044,6.748 C3.09,6.186 3.189,5.669 3.436,5.184 C3.819,4.431 4.431,3.819 5.184,3.436 C5.669,3.189 6.186,3.09 6.748,3.044 C7.109,3.015 7.525,3.005 8,3.002 L8,2 C8,1.448 8.448,1 9,1 Z M8.8,5 C7.943,5 7.361,5.001 6.911,5.038 C6.473,5.073 6.248,5.138 6.092,5.218 C5.716,5.41 5.41,5.716 5.218,6.092 C5.138,6.248 5.073,6.473 5.038,6.911 C5.001,7.361 5,7.943 5,8.8 L5,15.2 C5,16.057 5.001,16.639 5.038,17.089 C5.073,17.527 5.138,17.752 5.218,17.908 C5.41,18.284 5.716,18.59 6.092,18.782 C6.248,18.862 6.473,18.927 6.911,18.962 C7.361,18.999 7.943,19 8.8,19 L15.2,19 C16.057,19 16.639,18.999 17.089,18.962 C17.527,18.927 17.752,18.862 17.908,18.782 C18.284,18.59 18.59,18.284 18.782,17.908 C18.862,17.752 18.927,17.527 18.962,17.089 C18.999,16.639 19,16.057 19,15.2 L19,8.8 C19,7.943 18.999,7.361 18.962,6.911 C18.927,6.473 18.862,6.248 18.782,6.092 C18.59,5.716 18.284,5.41 17.908,5.218 C17.752,5.138 17.527,5.073 17.089,5.038 C16.639,5.001 16.057,5 15.2,5 Z M13.432,8 L13.432,8 C13.684,8 13.93,8 14.138,8.017 C14.367,8.036 14.637,8.08 14.908,8.218 C15.284,8.41 15.59,8.716 15.782,9.092 C15.92,9.363 15.964,9.633 15.983,9.862 C16,10.069 16,10.313 16,10.564 L16,13.436 C16,13.687 16,13.931 15.983,14.138 C15.964,14.367 15.92,14.637 15.782,14.908 C15.59,15.284 15.284,15.59 14.908,15.782 C14.637,15.92 14.367,15.964 14.138,15.983 C13.931,16 13.687,16 13.436,16 L10.564,16 C10.313,16 10.069,16 9.862,15.983 C9.633,15.964 9.363,15.92 9.092,15.782 C8.716,15.59 8.41,15.284 8.218,14.908 C8.08,14.637 8.036,14.367 8.017,14.138 C8,13.93 8,13.684 8,13.432 L8,10.568 C8,10.316 8,10.07 8.017,9.862 C8.036,9.633 8.08,9.363 8.218,9.092 C8.41,8.716 8.716,8.41 9.092,8.218 C9.363,8.08 9.633,8.036 9.862,8.017 C10.07,8 10.316,8 10.568,8 L13.432,8 Z M10.011,10.011 C10.011,10.016 10.011,10.02 10.01,10.025 C10.001,10.141 10,10.304 10,10.6 L10,13.4 C10,13.696 10.001,13.859 10.01,13.975 C10.011,13.98 10.011,13.984 10.011,13.989 C10.016,13.989 10.02,13.989 10.025,13.99 C10.141,13.999 10.304,14 10.6,14 L13.4,14 C13.696,14 13.859,13.999 13.975,13.99 C13.98,13.989 13.984,13.989 13.989,13.989 C13.989,13.984 13.989,13.98 13.99,13.975 C13.999,13.859 14,13.696 14,13.4 L14,10.6 C14,10.304 13.999,10.141 13.99,10.025 C13.989,10.02 13.989,10.016 13.989,10.011 C13.984,10.011 13.98,10.011 13.975,10.01 C13.859,10.001 13.696,10 13.4,10 L10.6,10 C10.304,10 10.141,10.001 10.025,10.01 C10.02,10.011 10.016,10.011 10.011,10.011 Z"/>
</svg>
