<svg xmlns="http://www.w3.org/2000/svg" width="24" height="24" viewBox="0 0 24 24">
  <defs/>
  <path d="M9,1 C9.552,1 10,1.448 10,2 L10,4 L14,4 L14,2 C14,1.448 14.448,1 15,1 C15.552,1 16,1.448 16,2 L16,4.027 C16.087,4.032 16.171,4.038 16.252,4.044 C16.814,4.09 17.331,4.189 17.816,4.436 C18.569,4.819 19.181,5.431 19.564,6.184 C19.811,6.669 19.91,7.186 19.956,7.748 C19.962,7.829 19.968,7.913 19.973,8 L22,8 C22.552,8 23,8.448 23,9 C23,9.552 22.552,10 22,10 L20,10 L20,13 L22,13 C22.552,13 23,13.448 23,14 C23,14.552 22.552,15 22,15 L19.998,15 C19.995,15.476 19.985,15.891 19.956,16.252 C19.91,16.814 19.811,17.331 19.564,17.816 C19.181,18.569 18.569,19.181 17.816,19.564 C17.331,19.811 16.814,19.91 16.252,19.956 C16.171,19.962 16.087,19.968 16,19.973 L16,22 C16,22.552 15.552,23 15,23 C14.448,23 14,22.552 14,22 L14,20 L10,20 L10,22 C10,22.552 9.552,23 9,23 C8.448,23 8,22.552 8,22 L8,19.973 C7.913,19.968 7.829,19.962 7.748,19.956 C7.186,19.91 6.669,19.811 6.184,19.564 C5.431,19.181 4.819,18.569 4.436,17.816 C4.189,17.331 4.09,16.814 4.044,16.252 C4.015,15.891 4.005,15.476 4.002,15 L2,15 C1.448,15 1,14.552 1,14 C1,13.448 1.448,13 2,13 L4,13 L4,10 L2,10 C1.448,10 1,9.552 1,9 C1,8.448 1.448,8 2,8 L4.027,8 C4.032,7.913 4.038,7.829 4.044,7.748 C4.09,7.186 4.189,6.669 4.436,6.184 C4.819,5.431 5.431,4.819 6.184,4.436 C6.669,4.189 7.186,4.09 7.748,4.044 C7.829,4.038 7.913,4.032 8,4.027 L8,2 C8,1.448 8.448,1 9,1 Z M6,14.2 C6,15.057 6.001,15.639 6.038,16.089 C6.073,16.527 6.138,16.752 6.218,16.908 C6.41,17.284 6.716,17.59 7.092,17.782 C7.248,17.862 7.473,17.927 7.911,17.962 C8.361,17.999 8.943,18 9.8,18 L14.2,18 C15.057,18 15.639,17.999 16.089,17.962 C16.527,17.927 16.752,17.862 16.908,17.782 C17.284,17.59 17.59,17.284 17.782,16.908 C17.862,16.752 17.927,16.527 17.962,16.089 C17.999,15.639 18,15.057 18,14.2 L18,9.8 C18,8.943 17.999,8.361 17.962,7.911 C17.927,7.473 17.862,7.248 17.782,7.092 C17.59,6.716 17.284,6.41 16.908,6.218 C16.752,6.138 16.527,6.073 16.089,6.038 C15.639,6.001 15.057,6 14.2,6 L9.8,6 C8.943,6 8.361,6.001 7.911,6.038 C7.473,6.073 7.248,6.138 7.092,6.218 C6.716,6.41 6.41,6.716 6.218,7.092 C6.138,7.248 6.073,7.473 6.038,7.911 C6.001,8.361 6,8.943 6,9.8 Z"/>
</svg>
