<svg xmlns="http://www.w3.org/2000/svg" width="24" height="24" viewBox="0 0 24 24">
  <defs/>
  <path d="M10.293,2.293 C10.683,1.902 11.317,1.902 11.707,2.293 L13.707,4.293 C14.098,4.683 14.098,5.317 13.707,5.707 L11.707,7.707 C11.317,8.098 10.683,8.098 10.293,7.707 C9.902,7.317 9.902,6.683 10.293,6.293 L10.586,6 L5.2,6 C4.623,6 4.251,6.001 3.968,6.024 C3.696,6.046 3.595,6.084 3.546,6.109 C3.358,6.205 3.205,6.358 3.109,6.546 C3.084,6.595 3.046,6.696 3.024,6.968 C3.001,7.251 3,7.623 3,8.2 L3,9 L21,9 L21,8.2 C21,7.623 20.999,7.251 20.976,6.968 C20.954,6.696 20.916,6.595 20.891,6.546 C20.795,6.358 20.642,6.205 20.454,6.109 C20.404,6.084 20.304,6.046 20.032,6.024 C19.749,6.001 19.377,6 18.8,6 L17,6 C16.448,6 16,5.552 16,5 C16,4.448 16.448,4 17,4 L18.838,4 C19.366,4 19.82,4 20.195,4.031 C20.59,4.063 20.984,4.134 21.362,4.327 C21.927,4.615 22.385,5.074 22.673,5.638 C22.866,6.016 22.937,6.41 22.969,6.805 C23,7.18 23,7.634 23,8.161 L23,15.839 C23,16.366 23,16.82 22.969,17.195 C22.937,17.59 22.866,17.984 22.673,18.362 C22.385,18.927 21.927,19.385 21.362,19.673 C20.984,19.866 20.59,19.937 20.195,19.969 C19.82,20 19.366,20 18.839,20 L13.414,20 L13.707,20.293 C14.098,20.683 14.098,21.317 13.707,21.707 C13.317,22.098 12.683,22.098 12.293,21.707 L10.293,19.707 C10.105,19.52 10,19.265 10,19 C10,18.735 10.105,18.48 10.293,18.293 L12.293,16.293 C12.683,15.902 13.317,15.902 13.707,16.293 C14.098,16.683 14.098,17.317 13.707,17.707 L13.414,18 L18.8,18 C19.377,18 19.749,17.999 20.032,17.976 C20.304,17.954 20.404,17.916 20.454,17.891 C20.642,17.795 20.795,17.642 20.891,17.454 C20.916,17.404 20.954,17.304 20.976,17.032 C20.999,16.749 21,16.377 21,15.8 L21,11 L3,11 L3,15.8 C3,16.377 3.001,16.749 3.024,17.032 C3.046,17.304 3.084,17.404 3.109,17.454 C3.205,17.642 3.358,17.795 3.546,17.891 C3.595,17.916 3.696,17.954 3.968,17.976 C4.251,17.999 4.623,18 5.2,18 L7,18 C7.552,18 8,18.448 8,19 C8,19.552 7.552,20 7,20 L5.161,20 C4.634,20 4.18,20 3.805,19.969 C3.41,19.937 3.016,19.866 2.638,19.673 C2.074,19.385 1.615,18.927 1.327,18.362 C1.134,17.984 1.063,17.59 1.031,17.195 C1,16.821 1,16.366 1,15.839 L1,8.161 C1,7.634 1,7.18 1.031,6.805 C1.063,6.41 1.134,6.016 1.327,5.638 C1.615,5.074 2.074,4.615 2.638,4.327 C3.016,4.134 3.41,4.063 3.805,4.031 C4.18,4 4.634,4 5.161,4 L10.586,4 L10.293,3.707 C9.902,3.317 9.902,2.683 10.293,2.293 Z"/>
</svg>
