<svg xmlns="http://www.w3.org/2000/svg" width="24" height="24" viewBox="0 0 24 24">
  <defs/>
  <path d="M5.161,4 L18.838,4 C19.366,4 19.82,4 20.195,4.031 C20.59,4.063 20.984,4.134 21.362,4.327 C21.927,4.615 22.385,5.074 22.673,5.638 C22.866,6.016 22.937,6.41 22.969,6.805 C23,7.18 23,7.634 23,8.161 L23,11 C23,11.552 22.552,12 22,12 C21.448,12 21,11.552 21,11 L3,11 L3,15.8 C3,16.377 3.001,16.749 3.024,17.032 C3.046,17.304 3.084,17.404 3.109,17.454 C3.205,17.642 3.358,17.795 3.546,17.891 C3.595,17.916 3.696,17.954 3.968,17.976 C4.251,17.999 4.623,18 5.2,18 L11,18 C11.552,18 12,18.448 12,19 C12,19.552 11.552,20 11,20 L5.161,20 C4.634,20 4.18,20 3.805,19.969 C3.41,19.937 3.016,19.866 2.638,19.673 C2.074,19.385 1.615,18.927 1.327,18.362 C1.134,17.984 1.063,17.59 1.031,17.195 C1,16.821 1,16.366 1,15.839 L1,8.161 C1,7.634 1,7.18 1.031,6.805 C1.063,6.41 1.134,6.016 1.327,5.638 C1.615,5.074 2.074,4.615 2.638,4.327 C3.016,4.134 3.41,4.063 3.805,4.031 C4.18,4 4.634,4 5.161,4 Z M15.75,15.75 C15.75,14.231 16.981,13 18.5,13 C20.019,13 21.25,14.231 21.25,15.75 L21.25,16.528 C21.452,16.552 21.68,16.602 21.908,16.718 C22.284,16.91 22.59,17.216 22.782,17.592 C22.92,17.863 22.964,18.133 22.983,18.362 C23,18.569 23,18.813 23,19.064 L23,19.936 C23,20.187 23,20.431 22.983,20.638 C22.964,20.867 22.92,21.137 22.782,21.408 C22.59,21.784 22.284,22.09 21.908,22.282 C21.637,22.42 21.367,22.464 21.138,22.483 C20.931,22.5 20.687,22.5 20.436,22.5 L16.564,22.5 C16.313,22.5 16.069,22.5 15.862,22.483 C15.633,22.464 15.363,22.42 15.092,22.282 C14.716,22.09 14.41,21.784 14.218,21.408 C14.08,21.137 14.036,20.867 14.017,20.638 C14,20.431 14,20.187 14,19.936 L14,19.064 C14,18.813 14,18.569 14.017,18.362 C14.036,18.133 14.08,17.863 14.218,17.592 C14.41,17.216 14.716,16.91 15.092,16.718 C15.32,16.602 15.547,16.552 15.75,16.528 Z M3,9 L21,9 L21,8.2 C21,7.623 20.999,7.251 20.976,6.968 C20.954,6.696 20.916,6.595 20.891,6.546 C20.795,6.358 20.642,6.205 20.454,6.109 C20.404,6.084 20.304,6.046 20.032,6.024 C19.749,6.001 19.377,6 18.8,6 L5.2,6 C4.623,6 4.251,6.001 3.968,6.024 C3.696,6.046 3.595,6.084 3.546,6.109 C3.358,6.205 3.205,6.358 3.109,6.546 C3.084,6.595 3.046,6.696 3.024,6.968 C3.001,7.251 3,7.623 3,8.2 Z M16.6,18.5 C16.303,18.5 16.141,18.501 16.025,18.51 C16.02,18.511 16.016,18.511 16.011,18.511 C16.011,18.516 16.011,18.52 16.01,18.525 C16.001,18.641 16,18.803 16,19.1 L16,19.9 C16,20.197 16.001,20.359 16.01,20.475 C16.011,20.48 16.011,20.484 16.011,20.489 C16.016,20.489 16.02,20.489 16.025,20.49 C16.141,20.499 16.303,20.5 16.6,20.5 L20.4,20.5 C20.697,20.5 20.859,20.499 20.975,20.49 C20.98,20.489 20.984,20.489 20.989,20.489 C20.989,20.484 20.989,20.48 20.99,20.475 C20.999,20.359 21,20.197 21,19.9 L21,19.1 C21,18.803 20.999,18.641 20.99,18.525 C20.989,18.52 20.989,18.516 20.989,18.511 C20.984,18.511 20.98,18.511 20.975,18.51 C20.859,18.501 20.697,18.5 20.4,18.5 Z M19.25,16.5 L19.25,15.75 C19.25,15.336 18.914,15 18.5,15 C18.086,15 17.75,15.336 17.75,15.75 L17.75,16.5 Z"/>
</svg>
