<svg xmlns="http://www.w3.org/2000/svg" width="24" height="24" viewBox="0 0 24 24">
  <defs/>
  <path d="M5.161,4 L18.838,4 C19.366,4 19.82,4 20.195,4.031 C20.59,4.063 20.984,4.134 21.362,4.327 C21.927,4.615 22.385,5.074 22.673,5.638 C22.866,6.016 22.937,6.41 22.969,6.805 C23,7.18 23,7.634 23,8.161 L23,10 C23,10.552 22.552,11 22,11 L3,11 L3,15.8 C3,16.377 3.001,16.749 3.024,17.032 C3.046,17.304 3.084,17.404 3.109,17.454 C3.205,17.642 3.358,17.795 3.546,17.891 C3.595,17.916 3.696,17.954 3.968,17.976 C4.251,17.999 4.623,18 5.2,18 L11,18 C11.552,18 12,18.448 12,19 C12,19.552 11.552,20 11,20 L5.161,20 C4.634,20 4.18,20 3.805,19.969 C3.41,19.937 3.016,19.866 2.638,19.673 C2.074,19.385 1.615,18.927 1.327,18.362 C1.134,17.984 1.063,17.59 1.031,17.195 C1,16.821 1,16.366 1,15.839 L1,8.161 C1,7.634 1,7.18 1.031,6.805 C1.063,6.41 1.134,6.016 1.327,5.638 C1.615,5.074 2.074,4.615 2.638,4.327 C3.016,4.134 3.41,4.063 3.805,4.031 C4.18,4 4.634,4 5.161,4 Z M3,9 L21,9 L21,8.2 C21,7.623 20.999,7.251 20.976,6.968 C20.954,6.696 20.916,6.595 20.891,6.546 C20.795,6.358 20.642,6.205 20.454,6.109 C20.404,6.084 20.304,6.046 20.032,6.024 C19.749,6.001 19.377,6 18.8,6 L5.2,6 C4.623,6 4.251,6.001 3.968,6.024 C3.696,6.046 3.595,6.084 3.546,6.109 C3.358,6.205 3.205,6.358 3.109,6.546 C3.084,6.595 3.046,6.696 3.024,6.968 C3.001,7.251 3,7.623 3,8.2 Z M18.793,13.293 C19.736,12.35 21.264,12.35 22.207,13.293 C23.15,14.236 23.15,15.764 22.207,16.707 L18.05,20.865 C18.041,20.873 18.032,20.882 18.023,20.891 C17.924,20.99 17.799,21.116 17.651,21.219 C17.522,21.309 17.383,21.383 17.237,21.441 C17.069,21.507 16.896,21.541 16.758,21.568 C16.745,21.571 16.733,21.573 16.721,21.576 L14.696,21.981 C14.368,22.046 14.029,21.944 13.793,21.707 C13.557,21.471 13.454,21.132 13.519,20.804 L13.924,18.779 C13.927,18.767 13.929,18.755 13.932,18.742 C13.959,18.604 13.993,18.431 14.059,18.263 C14.117,18.117 14.191,17.978 14.281,17.849 C14.384,17.701 14.509,17.576 14.609,17.477 C14.618,17.468 14.627,17.459 14.635,17.45 Z M20.793,15.293 C20.955,15.131 20.955,14.869 20.793,14.707 C20.631,14.545 20.369,14.545 20.207,14.707 L16.05,18.865 C15.981,18.933 15.948,18.967 15.924,18.992 L15.922,18.994 L15.922,18.996 C15.914,19.03 15.905,19.076 15.886,19.171 L15.775,19.725 L16.329,19.614 C16.424,19.596 16.47,19.586 16.504,19.578 L16.506,19.577 L16.508,19.576 C16.533,19.552 16.567,19.519 16.635,19.45 Z"/>
</svg>
