<svg xmlns="http://www.w3.org/2000/svg" width="24" height="24" viewBox="0 0 24 24">
  <defs/>
  <path d="M5.161,4 L18.838,4 C19.366,4 19.82,4 20.195,4.031 C20.59,4.063 20.984,4.134 21.362,4.327 C21.927,4.615 22.385,5.074 22.673,5.638 C22.866,6.016 22.937,6.41 22.969,6.805 C23,7.18 23,7.634 23,8.161 L23,11 C23,11.552 22.552,12 22,12 C21.448,12 21,11.552 21,11 L3,11 L3,15.8 C3,16.377 3.001,16.749 3.024,17.032 C3.046,17.304 3.084,17.404 3.109,17.454 C3.205,17.642 3.358,17.795 3.546,17.891 C3.595,17.916 3.696,17.954 3.968,17.976 C4.251,17.999 4.623,18 5.2,18 L11.5,18 C12.052,18 12.5,18.448 12.5,19 C12.5,19.552 12.052,20 11.5,20 L5.161,20 C4.634,20 4.18,20 3.805,19.969 C3.41,19.937 3.016,19.866 2.638,19.673 C2.074,19.385 1.615,18.927 1.327,18.362 C1.134,17.984 1.063,17.59 1.031,17.195 C1,16.821 1,16.366 1,15.839 L1,8.161 C1,7.634 1,7.18 1.031,6.805 C1.063,6.41 1.134,6.016 1.327,5.638 C1.615,5.074 2.074,4.615 2.638,4.327 C3.016,4.134 3.41,4.063 3.805,4.031 C4.18,4 4.634,4 5.161,4 Z M19.15,13.2 L19.15,13.2 L19.15,13.2 L21.337,13.981 C21.734,14.123 22,14.5 22,14.923 L22,17.425 C22,18.964 20.944,20.115 20.14,20.785 C19.714,21.14 19.293,21.416 18.981,21.602 C18.823,21.696 18.691,21.768 18.596,21.819 C18.548,21.844 18.509,21.864 18.481,21.878 L18.447,21.895 L18.437,21.9 L18.433,21.902 L18.431,21.902 C18.431,21.902 18.427,21.895 18,21 L18.43,21.903 C18.158,22.032 17.841,22.032 17.569,21.902 L17.567,21.902 L17.563,21.9 L17.553,21.895 L17.519,21.878 C17.491,21.864 17.452,21.844 17.404,21.819 C17.309,21.768 17.177,21.696 17.019,21.602 C16.707,21.416 16.286,21.14 15.859,20.785 C15.057,20.115 14,18.964 14,17.425 L14,14.923 C14,14.5 14.266,14.123 14.663,13.981 L16.849,13.2 L16.849,13.2 L16.849,13.2 C17.592,12.934 18.406,12.934 19.15,13.2 Z M3,9 L21,9 L21,8.2 C21,7.623 20.999,7.251 20.976,6.968 C20.954,6.696 20.916,6.595 20.891,6.546 C20.795,6.358 20.642,6.205 20.454,6.109 C20.404,6.084 20.304,6.046 20.032,6.024 C19.749,6.001 19.377,6 18.8,6 L5.2,6 C4.623,6 4.251,6.001 3.968,6.024 C3.696,6.046 3.595,6.084 3.546,6.109 C3.358,6.205 3.205,6.358 3.109,6.546 C3.084,6.595 3.046,6.696 3.024,6.968 C3.001,7.251 3,7.623 3,8.2 Z M18,19.858 C18.244,19.71 18.554,19.504 18.86,19.249 C19.556,18.668 20,18.031 20,17.425 L20,15.627 L18.476,15.083 C18.168,14.973 17.831,14.972 17.524,15.083 L16,15.627 L16,17.425 C16,18.031 16.444,18.668 17.14,19.249 C17.446,19.504 17.756,19.71 18,19.858 Z M18,21 L17.569,21.902 C17.57,21.903 17.573,21.896 18,21 Z"/>
</svg>
