<svg xmlns="http://www.w3.org/2000/svg" width="24" height="24" viewBox="0 0 24 24">
  <defs/>
  <path d="M6,1 C6.552,1 7,1.448 7,2 L7,5 L14.839,5 C15.366,5 15.821,5 16.195,5.031 C16.59,5.063 16.984,5.134 17.362,5.327 C17.927,5.615 18.385,6.074 18.673,6.638 C18.866,7.016 18.937,7.41 18.969,7.805 C19,8.18 19,8.634 19,9.161 L19,17 L22,17 C22.552,17 23,17.448 23,18 C23,18.552 22.552,19 22,19 L19,19 L19,22 C19,22.552 18.552,23 18,23 C17.448,23 17,22.552 17,22 L17,19 L9.161,19 C8.634,19 8.18,19 7.805,18.969 C7.41,18.937 7.016,18.866 6.638,18.673 C6.074,18.385 5.615,17.927 5.327,17.362 C5.134,16.984 5.063,16.59 5.031,16.195 C5,15.821 5,15.366 5,14.839 L5,7 L2,7 C1.448,7 1,6.552 1,6 C1,5.448 1.448,5 2,5 L5,5 L5,2 C5,1.448 5.448,1 6,1 Z M7,7 L7,14.8 C7,15.377 7.001,15.749 7.024,16.032 C7.046,16.304 7.084,16.404 7.109,16.454 C7.205,16.642 7.358,16.795 7.546,16.891 C7.595,16.916 7.696,16.954 7.968,16.976 C8.251,16.999 8.623,17 9.2,17 L17,17 L17,9.2 C17,8.623 16.999,8.251 16.976,7.968 C16.954,7.696 16.916,7.595 16.891,7.546 C16.795,7.358 16.642,7.205 16.454,7.109 C16.404,7.084 16.304,7.046 16.032,7.024 C15.749,7.001 15.377,7 14.8,7 Z"/>
</svg>
