<svg xmlns="http://www.w3.org/2000/svg" width="24" height="24" viewBox="0 0 24 24">
  <defs/>
  <path d="M7,12 C7,9.239 9.239,7 12,7 C14.761,7 17,9.239 17,12 C17,14.761 14.761,17 12,17 C9.239,17 7,14.761 7,12 Z M12,9 C10.343,9 9,10.343 9,12 C9,13.657 10.343,15 12,15 C13.657,15 15,13.657 15,12 C15,10.343 13.657,9 12,9 Z M16,1 C16.552,1 17,1.448 17,2 L17,6 C17,6.552 16.552,7 16,7 C15.448,7 15,6.552 15,6 L15,2 C15,1.448 15.448,1 16,1 Z M8,17 C8.552,17 9,17.448 9,18 L9,22 C9,22.552 8.552,23 8,23 C7.448,23 7,22.552 7,22 L7,18 C7,17.448 7.448,17 8,17 Z M1,8 C1,7.448 1.448,7 2,7 L6,7 C6.552,7 7,7.448 7,8 C7,8.552 6.552,9 6,9 L2,9 C1.448,9 1,8.552 1,8 Z M17,16 C17,15.448 17.448,15 18,15 L21.5,15 C22.052,15 22.5,15.448 22.5,16 C22.5,16.552 22.052,17 21.5,17 L18,17 C17.448,17 17,16.552 17,16 Z M1.293,1.293 C1.683,0.902 2.317,0.902 2.707,1.293 L4.707,3.293 C5.098,3.683 5.098,4.317 4.707,4.707 C4.317,5.098 3.683,5.098 3.293,4.707 L1.293,2.707 C0.902,2.317 0.902,1.683 1.293,1.293 Z M4.707,19.293 C5.098,19.683 5.098,20.317 4.707,20.707 L2.707,22.707 C2.317,23.098 1.683,23.098 1.293,22.707 C0.902,22.317 0.902,21.683 1.293,21.293 L3.293,19.293 C3.683,18.902 4.317,18.902 4.707,19.293 Z M21.293,1.293 C21.683,0.902 22.317,0.902 22.707,1.293 C23.098,1.683 23.098,2.317 22.707,2.707 L20.707,4.707 C20.317,5.098 19.683,5.098 19.293,4.707 C18.902,4.317 18.902,3.683 19.293,3.293 Z M19.293,19.293 C19.683,18.902 20.317,18.902 20.707,19.293 L22.707,21.293 C23.098,21.683 23.098,22.317 22.707,22.707 C22.317,23.098 21.683,23.098 21.293,22.707 L19.293,20.707 C18.902,20.317 18.902,19.683 19.293,19.293 Z M16,19.5 C16.552,19.5 17,19.948 17,20.5 L17,22 C17,22.552 16.552,23 16,23 C15.448,23 15,22.552 15,22 L15,20.5 C15,19.948 15.448,19.5 16,19.5 Z M3.5,17 L2,17 C1.448,17 1,16.552 1,16 C1,15.448 1.448,15 2,15 L3.5,15 C4.052,15 4.5,15.448 4.5,16 C4.5,16.552 4.052,17 3.5,17 Z M19.5,8 C19.5,7.448 19.948,7 20.5,7 L22,7 C22.552,7 23,7.448 23,8 C23,8.552 22.552,9 22,9 L20.5,9 C19.948,9 19.5,8.552 19.5,8 Z M8,1 C8.552,1 9,1.448 9,2 L9,3.5 C9,4.052 8.552,4.5 8,4.5 C7.448,4.5 7,4.052 7,3.5 L7,2 C7,1.448 7.448,1 8,1 Z"/>
</svg>
