<svg xmlns="http://www.w3.org/2000/svg" width="24" height="24" viewBox="0 0 24 24">
  <defs/>
  <path d="M5.5,12 C5.5,8.41 8.41,5.5 12,5.5 C15.59,5.5 18.5,8.41 18.5,12 C18.5,15.59 15.59,18.5 12,18.5 C8.41,18.5 5.5,15.59 5.5,12 Z M12,7.5 C9.515,7.5 7.5,9.515 7.5,12 C7.5,14.485 9.515,16.5 12,16.5 C14.485,16.5 16.5,14.485 16.5,12 C16.5,9.515 14.485,7.5 12,7.5 Z M15.485,2.574 C15.727,2.077 16.326,1.871 16.822,2.113 C18.91,3.132 20.622,4.785 21.712,6.836 C22.803,8.887 23.216,11.231 22.893,13.531 C22.816,14.078 22.31,14.459 21.764,14.382 C21.217,14.305 20.836,13.799 20.912,13.252 C21.177,11.37 20.839,9.453 19.947,7.775 C19.054,6.097 17.654,4.744 15.945,3.911 C15.449,3.669 15.243,3.07 15.485,2.574 Z M5.313,19.502 C5.638,19.056 6.263,18.956 6.71,19.281 C8.248,20.398 10.099,21 12,21 C13.901,21 15.752,20.398 17.29,19.281 C17.737,18.956 18.362,19.056 18.687,19.502 C19.011,19.949 18.913,20.574 18.466,20.899 C16.586,22.265 14.323,23 12,23 C9.677,23 7.414,22.265 5.534,20.899 C5.088,20.574 4.989,19.949 5.313,19.502 Z M8.515,2.574 C8.757,3.07 8.551,3.669 8.055,3.911 C6.346,4.744 4.946,6.096 4.054,7.775 C3.161,9.453 2.823,11.37 3.088,13.252 C3.165,13.799 2.784,14.305 2.237,14.382 C1.69,14.459 1.184,14.078 1.107,13.531 C0.784,11.23 1.197,8.887 2.288,6.836 C3.378,4.785 5.09,3.131 7.178,2.113 C7.674,1.871 8.273,2.077 8.515,2.574 Z"/>
</svg>
