<svg xmlns="http://www.w3.org/2000/svg" width="24" height="24" viewBox="0 0 24 24">
  <defs/>
  <path d="M11.536,5.281 C11.838,5.183 12.162,5.183 12.464,5.281 C12.696,5.356 12.865,5.482 12.976,5.576 C13.072,5.657 13.172,5.758 13.257,5.842 C13.262,5.848 13.267,5.853 13.273,5.859 L18.158,10.743 C18.242,10.828 18.343,10.928 18.424,11.024 C18.518,11.135 18.644,11.304 18.719,11.536 C18.817,11.838 18.817,12.162 18.719,12.464 C18.644,12.696 18.518,12.865 18.424,12.976 C18.343,13.072 18.242,13.172 18.158,13.256 L13.273,18.141 C13.267,18.147 13.262,18.152 13.257,18.158 C13.172,18.242 13.072,18.343 12.976,18.424 C12.865,18.518 12.696,18.644 12.464,18.719 C12.162,18.817 11.838,18.817 11.536,18.719 C11.304,18.644 11.135,18.518 11.024,18.424 C10.928,18.343 10.828,18.242 10.744,18.158 C10.738,18.152 10.733,18.147 10.727,18.141 L5.859,13.273 C5.853,13.267 5.848,13.262 5.842,13.256 C5.758,13.172 5.657,13.072 5.576,12.976 C5.482,12.865 5.356,12.696 5.281,12.464 C5.183,12.162 5.183,11.838 5.281,11.536 C5.356,11.304 5.482,11.135 5.576,11.024 C5.657,10.928 5.758,10.828 5.842,10.743 C5.848,10.738 5.853,10.733 5.859,10.727 L10.727,5.859 C10.733,5.853 10.738,5.848 10.744,5.842 C10.828,5.758 10.928,5.657 11.024,5.576 C11.135,5.482 11.304,5.356 11.536,5.281 Z M12,7.414 L7.414,12 L12,16.586 L16.586,12 Z M15.485,2.574 C15.727,2.077 16.326,1.871 16.822,2.113 C18.91,3.132 20.622,4.785 21.712,6.836 C22.803,8.887 23.216,11.231 22.893,13.531 C22.816,14.078 22.31,14.459 21.764,14.382 C21.217,14.305 20.836,13.799 20.912,13.252 C21.177,11.37 20.839,9.453 19.947,7.775 C19.054,6.097 17.654,4.744 15.945,3.911 C15.449,3.669 15.243,3.07 15.485,2.574 Z M5.313,19.502 C5.638,19.056 6.263,18.956 6.71,19.281 C8.248,20.398 10.099,21 12,21 C13.901,21 15.752,20.398 17.29,19.281 C17.737,18.956 18.362,19.056 18.687,19.502 C19.011,19.949 18.913,20.574 18.466,20.899 C16.586,22.265 14.323,23 12,23 C9.677,23 7.414,22.265 5.534,20.899 C5.088,20.574 4.989,19.949 5.313,19.502 Z M8.515,2.574 C8.757,3.07 8.551,3.669 8.055,3.911 C6.346,4.744 4.946,6.096 4.054,7.775 C3.161,9.453 2.823,11.37 3.088,13.252 C3.165,13.799 2.784,14.305 2.237,14.382 C1.69,14.459 1.184,14.078 1.107,13.531 C0.784,11.23 1.197,8.887 2.288,6.836 C3.378,4.785 5.09,3.131 7.178,2.113 C7.674,1.871 8.273,2.077 8.515,2.574 Z"/>
</svg>
