<svg xmlns="http://www.w3.org/2000/svg" width="24" height="24" viewBox="0 0 24 24">
  <defs/>
  <path d="M8.612,2 C8.629,2 8.646,2 8.663,2 L20.223,2 L20.224,2 C20.343,2 20.485,2 20.61,2.01 C20.755,2.022 20.963,2.052 21.181,2.163 C21.463,2.307 21.693,2.537 21.837,2.819 C21.948,3.037 21.978,3.245 21.99,3.39 C22,3.514 22,3.655 22,3.773 L22,3.777 L22,3.8 L22,15.337 C22,15.354 22,15.371 22,15.388 L22,15.389 C22.001,15.579 22.001,15.818 21.945,16.053 C21.896,16.257 21.815,16.452 21.705,16.631 C21.579,16.837 21.409,17.006 21.275,17.14 C21.262,17.152 21.25,17.164 21.238,17.176 L17.176,21.238 C17.164,21.25 17.152,21.262 17.14,21.275 C17.006,21.409 16.837,21.579 16.631,21.705 C16.452,21.815 16.257,21.896 16.053,21.945 C15.818,22.001 15.579,22.001 15.389,22 L15.388,22 C15.371,22 15.354,22 15.337,22 L3.8,22 L3.777,22 L3.773,22 C3.655,22 3.514,22 3.39,21.99 C3.245,21.978 3.037,21.948 2.819,21.837 C2.537,21.693 2.307,21.463 2.163,21.181 C2.052,20.963 2.022,20.755 2.01,20.61 C2,20.485 2,20.343 2,20.224 L2,20.223 L2,8.663 C2,8.646 2,8.629 2,8.612 L2,8.612 C1.999,8.422 1.999,8.183 2.055,7.947 C2.104,7.743 2.185,7.548 2.295,7.369 C2.421,7.163 2.591,6.994 2.725,6.86 C2.738,6.848 2.75,6.836 2.761,6.824 L6.824,2.761 C6.836,2.75 6.848,2.738 6.86,2.725 C6.994,2.591 7.163,2.421 7.369,2.295 C7.548,2.185 7.743,2.104 7.947,2.055 C8.183,1.999 8.422,1.999 8.612,2 Z M15,9 L4,9 L4,20 L15,20 Z M20,5.414 L17,8.414 L17,18.586 L19.824,15.762 C19.917,15.669 19.963,15.622 19.995,15.587 C19.996,15.586 19.997,15.585 19.997,15.585 L19.997,15.581 C20,15.534 20,15.468 20,15.337 Z M8.415,4.003 C8.414,4.003 8.413,4.004 8.413,4.005 C8.377,4.037 8.331,4.083 8.238,4.176 L5.414,7 L15.586,7 L18.586,4 L8.663,4 C8.532,4 8.466,4 8.419,4.002 Z"/>
</svg>
