<svg xmlns="http://www.w3.org/2000/svg" width="24" height="24" viewBox="0 0 24 24">
  <defs/>
  <path d="M8.876,10.264 C9.144,9.782 9.753,9.608 10.236,9.876 L12,10.856 L13.764,9.876 C14.247,9.608 14.856,9.782 15.124,10.264 C15.392,10.747 15.218,11.356 14.736,11.624 L13,12.589 L13,14.5 C13,15.052 12.552,15.5 12,15.5 C11.448,15.5 11,15.052 11,14.5 L11,12.589 L9.264,11.624 C8.782,11.356 8.608,10.747 8.876,10.264 Z M12,18.5 C12.552,18.5 13,18.948 13,19.5 L13,20.301 L13.764,19.876 C14.247,19.608 14.856,19.782 15.124,20.264 C15.392,20.747 15.218,21.356 14.736,21.624 L13.263,22.443 C13.243,22.453 13.224,22.464 13.203,22.476 C13.053,22.56 12.876,22.659 12.68,22.733 C12.502,22.899 12.263,23 12,23 C11.737,23 11.498,22.899 11.32,22.733 C11.124,22.659 10.947,22.56 10.797,22.476 C10.776,22.464 10.757,22.453 10.737,22.443 L9.264,21.624 C8.782,21.356 8.608,20.747 8.876,20.264 C9.144,19.782 9.753,19.608 10.236,19.876 L11,20.301 L11,19.5 C11,18.948 11.448,18.5 12,18.5 Z M6.124,5.264 C6.392,5.747 6.218,6.356 5.736,6.624 L5.059,7 L5.736,7.376 C6.218,7.644 6.392,8.253 6.124,8.736 C5.856,9.219 5.247,9.392 4.764,9.124 L4,8.7 L4,9.5 C4,10.052 3.552,10.5 3,10.5 C2.448,10.5 2,10.052 2,9.5 L2,7.942 C2,7.918 2,7.894 2,7.869 L2,7.869 C1.999,7.686 1.998,7.471 2.032,7.252 C1.97,7.012 1.996,6.748 2.126,6.514 C2.264,6.265 2.494,6.098 2.75,6.032 C2.925,5.896 3.114,5.792 3.274,5.704 C3.296,5.692 3.317,5.68 3.337,5.669 L4.764,4.876 C5.247,4.608 5.856,4.782 6.124,5.264 Z M17.876,5.264 C18.144,4.782 18.753,4.608 19.236,4.876 L20.663,5.669 C20.683,5.68 20.704,5.692 20.726,5.704 C20.886,5.792 21.075,5.896 21.25,6.032 C21.506,6.098 21.736,6.265 21.874,6.514 C22.004,6.748 22.03,7.012 21.968,7.252 C22.002,7.471 22.001,7.685 22,7.868 L22,7.869 C22,7.894 22,7.918 22,7.942 L22,9.5 C22,10.052 21.552,10.5 21,10.5 C20.448,10.5 20,10.052 20,9.5 L20,8.7 L19.236,9.124 C18.753,9.392 18.144,9.219 17.876,8.736 C17.608,8.253 17.782,7.644 18.264,7.376 L18.941,7 L18.264,6.624 C17.782,6.356 17.608,5.747 17.876,5.264 Z M11.597,1.185 C11.863,1.13 12.137,1.13 12.403,1.185 C12.71,1.248 12.985,1.402 13.203,1.524 C13.224,1.536 13.243,1.547 13.263,1.558 L14.736,2.376 C15.218,2.644 15.392,3.253 15.124,3.736 C14.856,4.219 14.247,4.392 13.764,4.124 L12.291,3.306 C12.14,3.222 12.062,3.179 12.005,3.151 C12.003,3.151 12.002,3.15 12,3.149 C11.998,3.15 11.997,3.151 11.995,3.151 C11.938,3.179 11.86,3.222 11.709,3.306 L10.236,4.124 C9.753,4.392 9.144,4.219 8.876,3.736 C8.608,3.253 8.782,2.644 9.264,2.376 L10.737,1.558 C10.757,1.547 10.776,1.536 10.797,1.524 C11.015,1.402 11.29,1.248 11.597,1.185 Z M3,13.5 C3.552,13.5 4,13.948 4,14.5 L4,16.059 C4,16.242 4,16.335 4.004,16.403 L4.005,16.409 C4.006,16.41 4.008,16.411 4.01,16.412 C4.067,16.448 4.149,16.494 4.309,16.583 L5.736,17.376 C6.218,17.644 6.392,18.253 6.124,18.736 C5.856,19.219 5.247,19.392 4.764,19.124 L3.337,18.331 C3.317,18.32 3.296,18.309 3.274,18.297 C3.043,18.169 2.752,18.009 2.529,17.767 C2.336,17.558 2.19,17.309 2.101,17.039 C1.998,16.726 1.999,16.395 2,16.131 C2,16.106 2,16.082 2,16.059 L2,14.5 C2,13.948 2.448,13.5 3,13.5 Z M21,13.5 C21.552,13.5 22,13.948 22,14.5 L22,16.059 C22,16.082 22,16.106 22,16.131 L22,16.132 C22.001,16.396 22.002,16.727 21.899,17.039 C21.81,17.309 21.664,17.558 21.471,17.767 C21.248,18.009 20.957,18.169 20.726,18.297 C20.704,18.309 20.683,18.32 20.663,18.331 L19.236,19.124 C18.753,19.392 18.144,19.219 17.876,18.736 C17.608,18.253 17.782,17.644 18.264,17.376 L19.691,16.583 C19.851,16.494 19.933,16.448 19.99,16.412 C19.992,16.411 19.994,16.41 19.995,16.409 L19.996,16.403 C20,16.335 20,16.242 20,16.059 L20,14.5 C20,13.948 20.448,13.5 21,13.5 Z"/>
</svg>
