<svg xmlns="http://www.w3.org/2000/svg" width="24" height="24" viewBox="0 0 24 24">
  <defs/>
  <path d="M12,1 C12.552,1 13,1.448 13,2 L13,3 L14,3 C16.761,3 19,5.239 19,8 C19,8.552 18.552,9 18,9 C17.448,9 17,8.552 17,8 C17,6.343 15.657,5 14,5 L13,5 L13,11 L14,11 C16.761,11 19,13.239 19,16 C19,18.761 16.761,21 14,21 L13,21 L13,22 C13,22.552 12.552,23 12,23 C11.448,23 11,22.552 11,22 L11,21 L10,21 C7.239,21 5,18.761 5,16 C5,15.448 5.448,15 6,15 C6.552,15 7,15.448 7,16 C7,17.657 8.343,19 10,19 L11,19 L11,13 L10,13 C7.239,13 5,10.761 5,8 C5,5.239 7.239,3 10,3 L11,3 L11,2 C11,1.448 11.448,1 12,1 Z M13,13 L13,19 L14,19 C15.657,19 17,17.657 17,16 C17,14.343 15.657,13 14,13 Z M11,5 L10,5 C8.343,5 7,6.343 7,8 C7,9.657 8.343,11 10,11 L11,11 Z"/>
</svg>
