<svg xmlns="http://www.w3.org/2000/svg" width="24" height="24" viewBox="0 0 24 24">
  <defs/>
  <path d="M4.87,2.724 C5.298,2.376 5.928,2.441 6.276,2.869 L12,9.914 L17.724,2.869 C18.072,2.441 18.702,2.376 19.131,2.724 C19.559,3.072 19.625,3.702 19.276,4.131 L14.101,10.5 L18,10.5 C18.552,10.5 19,10.948 19,11.5 C19,12.052 18.552,12.5 18,12.5 L13,12.5 L13,14.5 L17,14.5 C17.552,14.5 18,14.948 18,15.5 C18,16.052 17.552,16.5 17,16.5 L13,16.5 L13,20.5 C13,21.052 12.552,21.5 12,21.5 C11.448,21.5 11,21.052 11,20.5 L11,16.5 L7,16.5 C6.448,16.5 6,16.052 6,15.5 C6,14.948 6.448,14.5 7,14.5 L11,14.5 L11,12.5 L6,12.5 C5.448,12.5 5,12.052 5,11.5 C5,10.948 5.448,10.5 6,10.5 L9.899,10.5 L4.724,4.131 C4.376,3.702 4.441,3.072 4.87,2.724 Z"/>
</svg>
