<svg xmlns="http://www.w3.org/2000/svg" width="24" height="24" viewBox="0 0 24 24">
  <defs/>
  <path d="M7.5,3.5 C7.5,2.948 7.948,2.5 8.5,2.5 L14.5,2.5 C17.261,2.5 19.5,4.739 19.5,7.5 C19.5,10.261 17.261,12.5 14.5,12.5 L9.5,12.5 L9.5,14.5 L13.5,14.5 C14.052,14.5 14.5,14.948 14.5,15.5 C14.5,16.052 14.052,16.5 13.5,16.5 L9.5,16.5 L9.5,20.5 C9.5,21.052 9.052,21.5 8.5,21.5 C7.948,21.5 7.5,21.052 7.5,20.5 L7.5,16.5 L6.5,16.5 C5.948,16.5 5.5,16.052 5.5,15.5 C5.5,14.948 5.948,14.5 6.5,14.5 L7.5,14.5 L7.5,12.5 L6.5,12.5 C5.948,12.5 5.5,12.052 5.5,11.5 C5.5,10.948 5.948,10.5 6.5,10.5 L7.5,10.5 Z M9.5,4.5 L9.5,10.5 L14.5,10.5 C16.157,10.5 17.5,9.157 17.5,7.5 C17.5,5.843 16.157,4.5 14.5,4.5 Z"/>
</svg>
