<svg xmlns="http://www.w3.org/2000/svg" width="24" height="24" viewBox="0 0 24 24">
  <defs/>
  <path d="M1,12 C1,5.925 5.925,1 12,1 C18.075,1 23,5.925 23,12 C23,18.075 18.075,23 12,23 C5.925,23 1,18.075 1,12 Z M12,3 C7.029,3 3,7.029 3,12 C3,16.971 7.029,21 12,21 C16.971,21 21,16.971 21,12 C21,7.029 16.971,3 12,3 Z M8.5,6.5 C8.5,5.948 8.948,5.5 9.5,5.5 L14,5.5 C15.933,5.5 17.5,7.067 17.5,9 C17.5,10.933 15.933,12.5 14,12.5 L10.5,12.5 L10.5,13.75 L13,13.75 C13.552,13.75 14,14.198 14,14.75 C14,15.302 13.552,15.75 13,15.75 L10.5,15.75 L10.5,17.5 C10.5,18.052 10.052,18.5 9.5,18.5 C8.948,18.5 8.5,18.052 8.5,17.5 L8.5,15.75 L8,15.75 C7.448,15.75 7,15.302 7,14.75 C7,14.198 7.448,13.75 8,13.75 L8.5,13.75 L8.5,12.5 L8,12.5 C7.448,12.5 7,12.052 7,11.5 C7,10.948 7.448,10.5 8,10.5 L8.5,10.5 Z M10.5,7.5 L10.5,10.5 L14,10.5 C14.828,10.5 15.5,9.828 15.5,9 C15.5,8.172 14.828,7.5 14,7.5 Z"/>
</svg>
