<svg xmlns="http://www.w3.org/2000/svg" width="24" height="24" viewBox="0 0 24 24">
  <defs/>
  <path d="M1,12 C1,5.925 5.925,1 12,1 C18.075,1 23,5.925 23,12 C23,18.075 18.075,23 12,23 C5.925,23 1,18.075 1,12 Z M12,3 C7.029,3 3,7.029 3,12 C3,16.971 7.029,21 12,21 C16.971,21 21,16.971 21,12 C21,7.029 16.971,3 12,3 Z M12,4.5 C12.552,4.5 13,4.948 13,5.5 L13,6 L13.167,6 C15.008,6 16.5,7.492 16.5,9.333 C16.5,9.886 16.052,10.333 15.5,10.333 C14.948,10.333 14.5,9.886 14.5,9.333 C14.5,8.597 13.903,8 13.167,8 L11,8 C10.172,8 9.5,8.672 9.5,9.5 C9.5,10.328 10.172,11 11,11 L13,11 C14.933,11 16.5,12.567 16.5,14.5 C16.5,16.433 14.933,18 13,18 L13,18.5 C13,19.052 12.552,19.5 12,19.5 C11.448,19.5 11,19.052 11,18.5 L11,18 L10.833,18 C8.992,18 7.5,16.508 7.5,14.667 C7.5,14.114 7.948,13.667 8.5,13.667 C9.052,13.667 9.5,14.114 9.5,14.667 C9.5,15.403 10.097,16 10.833,16 L13,16 C13.828,16 14.5,15.328 14.5,14.5 C14.5,13.672 13.828,13 13,13 L11,13 C9.067,13 7.5,11.433 7.5,9.5 C7.5,7.567 9.067,6 11,6 L11,5.5 C11,4.948 11.448,4.5 12,4.5 Z"/>
</svg>
