<svg xmlns="http://www.w3.org/2000/svg" width="24" height="24" viewBox="0 0 24 24">
  <defs/>
  <path d="M1,12 C1,5.925 5.925,1 12,1 C18.075,1 23,5.925 23,12 C23,18.075 18.075,23 12,23 C5.925,23 1,18.075 1,12 Z M12,3 C7.029,3 3,7.029 3,12 C3,16.971 7.029,21 12,21 C16.971,21 21,16.971 21,12 C21,7.029 16.971,3 12,3 Z M7.5,6.5 C7.5,5.948 7.948,5.5 8.5,5.5 L15.5,5.5 C16.052,5.5 16.5,5.948 16.5,6.5 C16.5,7.052 16.052,7.5 15.5,7.5 L13.659,7.5 C13.94,7.965 14.13,8.476 14.234,9 L15.5,9 C16.052,9 16.5,9.448 16.5,10 C16.5,10.552 16.052,11 15.5,11 L14.235,11 C14.086,11.74 13.768,12.456 13.263,13.052 C12.73,13.682 12.012,14.149 11.137,14.366 L14.633,17.226 C15.061,17.576 15.124,18.206 14.774,18.633 C14.424,19.061 13.794,19.124 13.367,18.774 L7.867,14.274 C7.54,14.007 7.416,13.562 7.558,13.164 C7.7,12.766 8.077,12.5 8.5,12.5 L10,12.5 C10.822,12.5 11.375,12.188 11.737,11.76 C11.92,11.544 12.065,11.285 12.166,11 L8.5,11 C7.948,11 7.5,10.552 7.5,10 C7.5,9.448 7.948,9 8.5,9 L12.166,9 C12.064,8.715 11.92,8.456 11.737,8.24 C11.375,7.812 10.822,7.5 10,7.5 L8.5,7.5 C7.948,7.5 7.5,7.052 7.5,6.5 Z"/>
</svg>
