<svg xmlns="http://www.w3.org/2000/svg" width="24" height="24" viewBox="0 0 24 24">
  <defs/>
  <path d="M8.884,7.299 C8.896,8.144 9.248,8.748 9.777,9.653 C9.79,9.676 9.804,9.699 9.817,9.722 C10.244,10.455 10.735,11.329 10.922,12.5 L15,12.5 C15.552,12.5 16,12.948 16,13.5 C16,14.052 15.552,14.5 15,14.5 L10.943,14.5 C10.718,16.445 9.875,18.041 9.063,19.173 C8.981,19.286 8.9,19.395 8.82,19.5 L17.5,19.5 C18.052,19.5 18.5,19.948 18.5,20.5 C18.5,21.052 18.052,21.5 17.5,21.5 L6.5,21.5 C6.074,21.5 5.695,21.23 5.555,20.828 C5.416,20.426 5.546,19.98 5.879,19.716 L5.879,19.716 L5.88,19.715 L5.88,19.715 L5.881,19.715 L5.882,19.714 L5.901,19.698 C5.92,19.682 5.951,19.656 5.992,19.621 C6.074,19.549 6.195,19.439 6.343,19.292 C6.64,18.998 7.039,18.563 7.437,18.008 C8.09,17.098 8.714,15.904 8.925,14.5 L6.5,14.5 C5.948,14.5 5.5,14.052 5.5,13.5 C5.5,12.948 5.948,12.5 6.5,12.5 L8.884,12.5 C8.729,11.861 8.434,11.321 8.089,10.729 C8.057,10.675 8.025,10.619 7.991,10.562 C7.505,9.735 6.902,8.709 6.884,7.318 L6.884,7.305 L6.884,7.305 C6.884,5.926 7.306,4.813 8.058,3.998 C8.798,3.196 9.78,2.767 10.764,2.595 C12.67,2.26 14.898,2.837 16.141,4.018 C16.541,4.398 16.558,5.031 16.177,5.431 C15.797,5.832 15.164,5.848 14.763,5.468 C14.054,4.794 12.499,4.321 11.11,4.564 C10.446,4.681 9.902,4.949 9.528,5.354 C9.166,5.746 8.885,6.349 8.884,7.299 Z"/>
</svg>
