<svg xmlns="http://www.w3.org/2000/svg" width="24" height="24" viewBox="0 0 24 24">
  <defs/>
  <path d="M1,12 C1,5.925 5.925,1 12,1 C18.075,1 23,5.925 23,12 C23,18.075 18.075,23 12,23 C5.925,23 1,18.075 1,12 Z M12,3 C7.029,3 3,7.029 3,12 C3,16.971 7.029,21 12,21 C16.971,21 21,16.971 21,12 C21,7.029 16.971,3 12,3 Z M10,5 C10.552,5 11,5.448 11,6 L11,6.5 L12,6.5 L12,6 C12,5.448 12.448,5 13,5 C13.552,5 14,5.448 14,6 L14,6.509 C15.678,6.637 17,8.039 17,9.75 C17,10.501 16.745,11.192 16.318,11.743 C17.04,12.339 17.5,13.241 17.5,14.25 C17.5,16.045 16.045,17.5 14.25,17.5 L14,17.5 L14,18 C14,18.552 13.552,19 13,19 C12.448,19 12,18.552 12,18 L12,17.5 L11,17.5 L11,18 C11,18.552 10.552,19 10,19 C9.448,19 9,18.552 9,18 L9,17.5 L8,17.5 C7.448,17.5 7,17.052 7,16.5 C7,15.948 7.448,15.5 8,15.5 L8.5,15.5 L8.5,8.5 L8,8.5 C7.448,8.5 7,8.052 7,7.5 C7,6.948 7.448,6.5 8,6.5 L9,6.5 L9,6 C9,5.448 9.448,5 10,5 Z M10.5,13 L10.5,15.5 L14.25,15.5 C14.94,15.5 15.5,14.94 15.5,14.25 C15.5,13.56 14.94,13 14.25,13 Z M10.5,8.5 L10.5,11 L13.75,11 C14.44,11 15,10.44 15,9.75 C15,9.06 14.44,8.5 13.75,8.5 Z"/>
</svg>
