<svg xmlns="http://www.w3.org/2000/svg" width="24" height="24" viewBox="0 0 24 24">
  <defs/>
  <path d="M1,12 C1,5.925 5.925,1 12,1 C18.075,1 23,5.925 23,12 C23,18.075 18.075,23 12,23 C5.925,23 1,18.075 1,12 Z M12,3 C7.029,3 3,7.029 3,12 C3,16.971 7.029,21 12,21 C16.971,21 21,16.971 21,12 C21,7.029 16.971,3 12,3 Z M8.031,11.5 C8.011,11.664 8,11.831 8,12 C8,12.169 8.011,12.336 8.031,12.5 L11,12.5 C11.552,12.5 12,12.948 12,13.5 C12,14.052 11.552,14.5 11,14.5 L8.877,14.5 C9.61,15.415 10.737,16 12,16 C13.025,16 13.958,15.616 14.666,14.982 C15.078,14.613 15.71,14.648 16.079,15.06 C16.447,15.472 16.412,16.104 16,16.472 C14.939,17.421 13.536,18 12,18 C9.579,18 7.492,16.566 6.544,14.5 L6,14.5 C5.448,14.5 5,14.052 5,13.5 C5,12.948 5.448,12.5 6,12.5 L6.021,12.5 C6.007,12.335 6,12.168 6,12 C6,11.832 6.007,11.665 6.021,11.5 L6,11.5 C5.448,11.5 5,11.052 5,10.5 C5,9.948 5.448,9.5 6,9.5 L6.544,9.5 C7.492,7.434 9.579,6 12,6 C13.536,6 14.939,6.579 16,7.528 C16.412,7.896 16.447,8.529 16.079,8.94 C15.71,9.352 15.078,9.387 14.666,9.018 C13.958,8.384 13.025,8 12,8 C10.737,8 9.61,8.586 8.877,9.5 L11,9.5 C11.552,9.5 12,9.948 12,10.5 C12,11.052 11.552,11.5 11,11.5 Z"/>
</svg>
