<svg xmlns="http://www.w3.org/2000/svg" width="24" height="24" viewBox="0 0 24 24">
  <defs/>
  <path d="M9.5,1 C10.052,1 10.5,1.448 10.5,2 L10.5,3 L12.5,3 L12.5,2 C12.5,1.448 12.948,1 13.5,1 C14.052,1 14.5,1.448 14.5,2 L14.5,3.025 C17.027,3.276 19,5.407 19,8 C19,9.431 18.399,10.721 17.436,11.632 C18.966,12.488 20,14.123 20,16 C20,18.761 17.761,21 15,21 L14.5,21 L14.5,22 C14.5,22.552 14.052,23 13.5,23 C12.948,23 12.5,22.552 12.5,22 L12.5,21 L10.5,21 L10.5,22 C10.5,22.552 10.052,23 9.5,23 C8.948,23 8.5,22.552 8.5,22 L8.5,21 L5.5,21 C4.948,21 4.5,20.552 4.5,20 C4.5,19.448 4.948,19 5.5,19 L6.5,19 L6.5,5 L5.5,5 C4.948,5 4.5,4.552 4.5,4 C4.5,3.448 4.948,3 5.5,3 L8.5,3 L8.5,2 C8.5,1.448 8.948,1 9.5,1 Z M8.5,13 L8.5,19 L15,19 C16.657,19 18,17.657 18,16 C18,14.343 16.657,13 15,13 Z M8.5,5 L8.5,11 L14,11 C15.657,11 17,9.657 17,8 C17,6.343 15.657,5 14,5 Z"/>
</svg>
