<svg xmlns="http://www.w3.org/2000/svg" width="24" height="24" viewBox="0 0 24 24">
  <defs/>
  <path d="M6.066,11 C6.023,11.327 6,11.661 6,12 C6,12.339 6.023,12.673 6.066,13 L13,13 C13.552,13 14,13.448 14,14 C14,14.552 13.552,15 13,15 L6.624,15 C7.781,17.649 10.425,19.5 13.5,19.5 C15.351,19.5 17.044,18.83 18.353,17.719 C18.774,17.361 19.405,17.413 19.762,17.834 C20.12,18.254 20.068,18.885 19.647,19.243 C17.991,20.65 15.844,21.5 13.5,21.5 C9.302,21.5 5.739,18.777 4.483,15 L3,15 C2.448,15 2,14.552 2,14 C2,13.448 2.448,13 3,13 L4.052,13 C4.018,12.671 4,12.338 4,12 C4,11.662 4.018,11.329 4.052,11 L3,11 C2.448,11 2,10.552 2,10 C2,9.448 2.448,9 3,9 L4.483,9 C5.739,5.223 9.302,2.5 13.5,2.5 C15.844,2.5 17.991,3.35 19.647,4.757 C20.068,5.114 20.12,5.746 19.762,6.166 C19.405,6.587 18.774,6.639 18.353,6.281 C17.044,5.17 15.351,4.5 13.5,4.5 C10.425,4.5 7.781,6.351 6.624,9 L13,9 C13.552,9 14,9.448 14,10 C14,10.552 13.552,11 13,11 Z"/>
</svg>
