<svg xmlns="http://www.w3.org/2000/svg" width="24" height="24" viewBox="0 0 24 24">
  <defs/>
  <path d="M5,3 C5,2.448 5.448,2 6,2 L18,2 C18.552,2 19,2.448 19,3 C19,3.552 18.552,4 18,4 L13.586,4 C14.318,4.864 14.758,5.917 14.924,7 L18,7 C18.552,7 19,7.448 19,8 C19,8.552 18.552,9 18,9 L14.924,9 C14.751,10.126 14.282,11.219 13.498,12.102 C12.465,13.263 10.938,14 9,14 L8.522,14 L15.185,20.272 C15.587,20.65 15.607,21.283 15.228,21.685 C14.85,22.087 14.217,22.107 13.815,21.728 L5.315,13.728 C5.016,13.447 4.919,13.012 5.07,12.631 C5.222,12.25 5.59,12 6,12 L9,12 C10.395,12 11.368,11.487 12.003,10.773 C12.44,10.281 12.74,9.666 12.89,9 L6,9 C5.448,9 5,8.552 5,8 C5,7.448 5.448,7 6,7 L12.89,7 C12.74,6.334 12.44,5.719 12.003,5.227 C11.368,4.513 10.395,4 9,4 L6,4 C5.448,4 5,3.552 5,3 Z"/>
</svg>
