<svg xmlns="http://www.w3.org/2000/svg" width="24" height="24" viewBox="0 0 24 24">
  <defs/>
  <path d="M1,12 C1,5.925 5.925,1 12,1 C18.075,1 23,5.925 23,12 C23,18.075 18.075,23 12,23 C5.925,23 1,18.075 1,12 Z M12,3 C7.029,3 3,7.029 3,12 C3,16.971 7.029,21 12,21 C16.971,21 21,16.971 21,12 C21,7.029 16.971,3 12,3 Z M12,4 C12.294,4 12.574,4.13 12.764,4.354 L18.263,10.854 C18.466,11.093 18.544,11.413 18.476,11.719 C18.407,12.025 18.199,12.281 17.914,12.41 L12.414,14.91 C12.151,15.03 11.849,15.03 11.586,14.91 L6.086,12.41 C5.801,12.281 5.593,12.025 5.524,11.719 C5.456,11.413 5.534,11.093 5.737,10.854 L11.237,4.354 C11.427,4.129 11.706,4 12,4 Z M5.59,15.086 C5.818,14.583 6.411,14.361 6.914,14.59 L12,16.902 L17.086,14.59 C17.589,14.361 18.182,14.583 18.41,15.086 C18.639,15.589 18.417,16.182 17.914,16.41 L12.414,18.91 C12.151,19.03 11.849,19.03 11.586,18.91 L6.086,16.41 C5.583,16.182 5.361,15.589 5.59,15.086 Z M8.117,11.137 L12,12.901 L15.883,11.137 L12,6.548 Z"/>
</svg>
