<svg xmlns="http://www.w3.org/2000/svg" width="24" height="24" viewBox="0 0 24 24">
  <defs/>
  <path d="M1,12 C1,5.925 5.925,1 12,1 C18.075,1 23,5.925 23,12 C23,18.075 18.075,23 12,23 C5.925,23 1,18.075 1,12 Z M12,3 C7.029,3 3,7.029 3,12 C3,16.971 7.029,21 12,21 C16.971,21 21,16.971 21,12 C21,7.029 16.971,3 12,3 Z M10.895,8.956 C10.903,9.447 11.064,9.764 11.335,10.265 C11.34,10.274 11.345,10.284 11.351,10.294 C11.523,10.613 11.735,11.004 11.868,11.5 L14,11.5 C14.552,11.5 15,11.948 15,12.5 C15,13.052 14.552,13.5 14,13.5 L11.927,13.5 C11.755,14.686 11.308,15.726 10.882,16.5 L15,16.5 C15.552,16.5 16,16.948 16,17.5 C16,18.052 15.552,18.5 15,18.5 L9,18.5 C8.606,18.5 8.249,18.269 8.088,17.91 C7.927,17.552 7.99,17.133 8.25,16.838 L8.251,16.837 L8.251,16.837 L8.261,16.825 C8.272,16.813 8.288,16.793 8.311,16.766 C8.356,16.71 8.424,16.624 8.508,16.511 C8.675,16.285 8.899,15.954 9.124,15.546 C9.444,14.965 9.746,14.262 9.898,13.5 L9,13.5 C8.448,13.5 8,13.052 8,12.5 C8,11.948 8.448,11.5 9,11.5 L9.725,11.5 C9.68,11.411 9.63,11.318 9.575,11.216 C9.569,11.205 9.564,11.194 9.558,11.183 C9.283,10.676 8.908,9.983 8.895,8.975 L8.895,8.962 L8.895,8.962 C8.896,7.995 9.193,7.185 9.749,6.583 C10.292,5.994 11.005,5.688 11.698,5.567 C13.023,5.334 14.583,5.726 15.481,6.579 C15.882,6.959 15.898,7.592 15.518,7.993 C15.137,8.393 14.504,8.409 14.104,8.029 C13.739,7.683 12.852,7.395 12.044,7.536 C11.67,7.602 11.396,7.747 11.218,7.939 C11.053,8.118 10.897,8.418 10.895,8.956 Z"/>
</svg>
