<svg xmlns="http://www.w3.org/2000/svg" width="24" height="24" viewBox="0 0 24 24">
  <defs/>
  <path d="M12,1 C12.286,1 12.558,1.122 12.747,1.336 L20.747,10.336 C20.98,10.597 21.059,10.961 20.955,11.295 C20.852,11.629 20.582,11.885 20.243,11.97 L12.243,13.97 C12.083,14.01 11.917,14.01 11.757,13.97 L3.757,11.97 C3.418,11.885 3.148,11.63 3.045,11.295 C2.941,10.961 3.02,10.597 3.253,10.336 L11.253,1.336 C11.442,1.122 11.714,1 12,1 Z M4.634,14.499 C4.854,14.119 5.297,13.927 5.725,14.026 L12,15.474 L18.275,14.026 C18.703,13.927 19.146,14.119 19.365,14.499 C19.586,14.879 19.532,15.359 19.233,15.68 L12.733,22.68 C12.544,22.884 12.278,23 12,23 C11.722,23 11.457,22.884 11.267,22.681 L4.767,15.681 C4.468,15.359 4.414,14.879 4.634,14.499 Z M8.45,16.707 L12,20.53 L15.55,16.707 L12.225,17.474 C12.077,17.508 11.923,17.508 11.775,17.474 Z M12,10.031 L8.123,11 L12,11.969 L15.877,11 Z M17.102,9.245 L13,4.63 L13,8.219 Z M11,4.63 L6.898,9.245 L11,8.219 Z"/>
</svg>
