<svg width="24" height="24" viewBox="0 0 24 24" fill="none" xmlns="http://www.w3.org/2000/svg">
<path d="M12 3C7.02944 3 3 7.02944 3 12C3 16.9706 7.02944 21 12 21C16.9706 21 21 16.9706 21 12C21 7.02944 16.9706 3 12 3ZM1 12C1 5.92487 5.92487 1 12 1C18.0751 1 23 5.92487 23 12C23 18.0751 18.0751 23 12 23C5.92487 23 1 18.0751 1 12ZM6.66363 8.05826C7.18374 7.8725 7.75595 8.14355 7.94171 8.66366L9.49997 13.0268L11.0582 8.66366C11.2004 8.26567 11.5774 8 12 8C12.4226 8 12.7996 8.26567 12.9417 8.66366L14.5 13.0268L16.0582 8.66366C16.244 8.14355 16.8162 7.8725 17.3363 8.05826C17.8564 8.24401 18.1275 8.81623 17.9417 9.33634L17.3475 11H17.9285C18.4808 11 18.9285 11.4477 18.9285 12C18.9285 12.5523 18.4808 13 17.9285 13H16.6333L15.4417 16.3363C15.2996 16.7343 14.9226 17 14.5 17C14.0774 17 13.7004 16.7343 13.5582 16.3363L12 11.9732L10.4417 16.3363C10.2996 16.7343 9.92258 17 9.49997 17C9.07735 17 8.70036 16.7343 8.55822 16.3363L7.36667 13H6.07141C5.51913 13 5.07141 12.5523 5.07141 12C5.07141 11.4477 5.51913 11 6.07141 11H6.65239L6.05822 9.33634C5.87247 8.81623 6.14352 8.24401 6.66363 8.05826Z" fill="black"/>
</svg>
