<svg xmlns="http://www.w3.org/2000/svg" width="24" height="24" viewBox="0 0 24 24">
  <defs/>
  <path d="M16.17,3.001 C16.582,1.835 17.694,1 19,1 C20.657,1 22,2.343 22,4 C22,5.657 20.657,7 19,7 C17.694,7 16.583,6.166 16.171,5.001 C15.642,5.003 15.241,5.011 14.911,5.038 C14.473,5.073 14.248,5.138 14.092,5.218 C13.716,5.41 13.41,5.716 13.218,6.092 C13.138,6.248 13.073,6.473 13.038,6.911 C13.001,7.361 13,7.943 13,8.8 L13,11 L16.171,11 C16.583,9.835 17.694,9 19,9 C20.657,9 22,10.343 22,12 C22,13.657 20.657,15 19,15 C17.694,15 16.583,14.165 16.171,13 L13,13 L13,15.2 C13,16.057 13.001,16.639 13.038,17.089 C13.073,17.527 13.138,17.752 13.218,17.908 C13.41,18.284 13.716,18.59 14.092,18.782 C14.248,18.862 14.473,18.927 14.911,18.962 C15.241,18.989 15.642,18.997 16.171,18.999 C16.583,17.834 17.694,17 19,17 C20.657,17 22,18.343 22,20 C22,21.657 20.657,23 19,23 C17.694,23 16.582,22.165 16.17,20.999 C15.623,20.997 15.151,20.989 14.748,20.956 C14.186,20.91 13.669,20.811 13.184,20.564 C12.431,20.181 11.819,19.569 11.436,18.816 C11.189,18.331 11.09,17.814 11.044,17.252 C11,16.711 11,16.046 11,15.241 L11,13 L7.829,13 C7.417,14.165 6.306,15 5,15 C3.343,15 2,13.657 2,12 C2,10.343 3.343,9 5,9 C6.306,9 7.417,9.835 7.829,11 L11,11 L11,8.759 C11,7.954 11,7.289 11.044,6.748 C11.09,6.186 11.189,5.669 11.436,5.184 C11.819,4.431 12.431,3.819 13.184,3.436 C13.669,3.189 14.186,3.09 14.748,3.044 C15.151,3.011 15.623,3.003 16.17,3.001 Z M19,11 C18.448,11 18,11.448 18,12 C18,12.552 18.448,13 19,13 C19.552,13 20,12.552 20,12 C20,11.448 19.552,11 19,11 Z M19,19 C18.448,19 18,19.448 18,20 C18,20.552 18.448,21 19,21 C19.552,21 20,20.552 20,20 C20,19.448 19.552,19 19,19 Z M5,11 C4.448,11 4,11.448 4,12 C4,12.552 4.448,13 5,13 C5.552,13 6,12.552 6,12 C6,11.448 5.552,11 5,11 Z M19,3 C18.448,3 18,3.448 18,4 C18,4.552 18.448,5 19,5 C19.552,5 20,4.552 20,4 C20,3.448 19.552,3 19,3 Z"/>
</svg>
