<svg xmlns="http://www.w3.org/2000/svg" width="24" height="24" viewBox="0 0 24 24">
  <defs/>
  <path d="M2,4 C2,2.343 3.343,1 5,1 C6.306,1 7.417,1.835 7.829,3 L16.171,3 C16.583,1.835 17.694,1 19,1 C20.657,1 22,2.343 22,4 C22,5.657 20.657,7 19,7 C17.694,7 16.583,6.165 16.171,5 L13,5 L13,11 L16.171,11 C16.583,9.835 17.694,9 19,9 C20.657,9 22,10.343 22,12 C22,13.657 20.657,15 19,15 C17.694,15 16.583,14.165 16.171,13 L13,13 L13,15.2 C13,16.057 13.001,16.639 13.038,17.089 C13.073,17.527 13.138,17.752 13.218,17.908 C13.41,18.284 13.716,18.59 14.092,18.782 C14.248,18.862 14.473,18.927 14.911,18.962 C15.241,18.989 15.642,18.997 16.171,18.999 C16.583,17.834 17.694,17 19,17 C20.657,17 22,18.343 22,20 C22,21.657 20.657,23 19,23 C17.694,23 16.582,22.165 16.17,20.999 C15.623,20.997 15.151,20.989 14.748,20.956 C14.186,20.91 13.669,20.811 13.184,20.564 C12.431,20.181 11.819,19.569 11.436,18.816 C11.189,18.331 11.09,17.814 11.044,17.252 C11,16.711 11,16.046 11,15.241 L11,5 L7.829,5 C7.417,6.165 6.306,7 5,7 C3.343,7 2,5.657 2,4 Z M19,11 C18.448,11 18,11.448 18,12 C18,12.552 18.448,13 19,13 C19.552,13 20,12.552 20,12 C20,11.448 19.552,11 19,11 Z M19,19 C18.448,19 18,19.448 18,20 C18,20.552 18.448,21 19,21 C19.552,21 20,20.552 20,20 C20,19.448 19.552,19 19,19 Z M19,3 C18.448,3 18,3.448 18,4 C18,4.552 18.448,5 19,5 C19.552,5 20,4.552 20,4 C20,3.448 19.552,3 19,3 Z M5,3 C4.448,3 4,3.448 4,4 C4,4.552 4.448,5 5,5 C5.552,5 6,4.552 6,4 C6,3.448 5.552,3 5,3 Z"/>
</svg>
