<svg xmlns="http://www.w3.org/2000/svg" width="24" height="24" viewBox="0 0 24 24">
  <defs/>
  <path d="M18.777,9 L21.223,9 C21.342,9 21.485,9 21.61,9.01 C21.755,9.022 21.963,9.052 22.181,9.163 C22.463,9.307 22.693,9.537 22.837,9.819 C22.948,10.037 22.978,10.245 22.99,10.39 C23,10.516 23,10.658 23,10.777 L23,21.223 C23,21.342 23,21.485 22.99,21.61 C22.978,21.755 22.948,21.963 22.837,22.181 C22.693,22.463 22.463,22.693 22.181,22.837 C21.963,22.948 21.755,22.978 21.61,22.99 C21.485,23 21.342,23 21.223,23 L10.777,23 C10.658,23 10.516,23 10.39,22.99 C10.245,22.978 10.037,22.948 9.819,22.837 C9.537,22.693 9.307,22.463 9.163,22.181 C9.052,21.963 9.022,21.755 9.01,21.61 C9,21.485 9,21.342 9,21.223 L9,18.777 C9,18.658 9,18.515 9.01,18.39 C9.022,18.245 9.052,18.037 9.163,17.819 C9.307,17.537 9.537,17.307 9.819,17.163 C10.037,17.052 10.245,17.022 10.39,17.01 C10.514,17 10.655,17 10.773,17 L13,17 L13,14.773 C13,14.655 13,14.514 13.01,14.39 C13.022,14.245 13.052,14.037 13.163,13.819 C13.307,13.537 13.537,13.307 13.819,13.163 C14.037,13.052 14.245,13.022 14.39,13.01 C14.514,13 14.655,13 14.773,13 L17,13 L17,10.773 C17,10.655 17,10.514 17.01,10.39 C17.022,10.245 17.052,10.037 17.163,9.819 C17.307,9.537 17.537,9.307 17.819,9.163 C18.037,9.052 18.245,9.022 18.39,9.01 C18.515,9 18.658,9 18.777,9 Z M19,11 L19,13.223 C19,13.342 19,13.484 18.99,13.61 C18.978,13.755 18.948,13.963 18.837,14.181 C18.693,14.463 18.463,14.693 18.181,14.837 C17.963,14.948 17.755,14.978 17.61,14.99 C17.485,15 17.342,15 17.223,15 L15,15 L15,17.223 C15,17.342 15,17.485 14.99,17.61 C14.978,17.755 14.948,17.963 14.837,18.181 C14.693,18.463 14.463,18.693 14.181,18.837 C13.963,18.948 13.755,18.978 13.61,18.99 C13.484,19 13.342,19 13.223,19 L11,19 L11,21 L21,21 L21,11 Z M2.777,1 L5.223,1 C5.342,1 5.485,1 5.61,1.01 C5.755,1.022 5.963,1.052 6.181,1.163 C6.463,1.307 6.693,1.537 6.837,1.819 C6.948,2.037 6.978,2.245 6.99,2.39 C7,2.515 7,2.657 7,2.776 L7,2.777 L7,2.8 L7,5.2 L7,5.223 L7,5.224 C7,5.343 7,5.485 6.99,5.61 C6.978,5.755 6.948,5.963 6.837,6.181 C6.693,6.463 6.463,6.693 6.181,6.837 C5.963,6.948 5.755,6.978 5.61,6.99 C5.485,7 5.343,7 5.224,7 L5.223,7 L5.2,7 L2.8,7 L2.777,7 L2.776,7 C2.657,7 2.515,7 2.39,6.99 C2.245,6.978 2.037,6.948 1.819,6.837 C1.537,6.693 1.307,6.463 1.163,6.181 C1.052,5.963 1.022,5.755 1.01,5.61 C1,5.485 1,5.342 1,5.223 L1,2.777 C1,2.658 1,2.516 1.01,2.39 C1.022,2.245 1.052,2.037 1.163,1.819 C1.307,1.537 1.537,1.307 1.819,1.163 C2.037,1.052 2.245,1.022 2.39,1.01 C2.516,1 2.658,1 2.777,1 Z M3.8,11 L6.227,11 C6.345,11 6.486,11 6.61,11.01 C6.755,11.022 6.963,11.052 7.181,11.163 C7.463,11.307 7.693,11.537 7.837,11.819 C7.948,12.037 7.978,12.245 7.99,12.39 C8,12.515 8,12.657 8,12.776 L8,12.777 L8,12.8 L8,15.2 L8,15.223 L8,15.224 C8,15.343 8,15.485 7.99,15.61 C7.978,15.755 7.948,15.963 7.837,16.181 C7.693,16.463 7.463,16.693 7.181,16.837 C6.963,16.948 6.755,16.978 6.61,16.99 C6.485,17 6.342,17 6.223,17 L3.777,17 C3.658,17 3.516,17 3.39,16.99 C3.245,16.978 3.037,16.948 2.819,16.837 C2.537,16.693 2.307,16.463 2.164,16.181 C2.052,15.963 2.022,15.755 2.01,15.61 C2,15.484 2,15.342 2,15.223 L2,12.777 C2,12.658 2,12.516 2.01,12.39 C2.022,12.245 2.052,12.037 2.164,11.819 C2.307,11.537 2.537,11.307 2.819,11.163 C3.037,11.052 3.245,11.022 3.39,11.01 C3.514,11 3.655,11 3.773,11 L3.8,11 Z M10.777,5 L13.223,5 C13.342,5 13.484,5 13.61,5.01 C13.755,5.022 13.963,5.052 14.181,5.163 C14.463,5.307 14.693,5.537 14.837,5.819 C14.948,6.037 14.978,6.245 14.99,6.39 C15,6.516 15,6.658 15,6.777 L15,9.223 C15,9.342 15,9.485 14.99,9.61 C14.978,9.755 14.948,9.963 14.837,10.181 C14.693,10.463 14.463,10.693 14.181,10.837 C13.963,10.948 13.755,10.978 13.61,10.99 C13.484,11 13.342,11 13.223,11 L10.777,11 C10.658,11 10.516,11 10.39,10.99 C10.245,10.978 10.037,10.948 9.819,10.837 C9.537,10.693 9.307,10.463 9.163,10.181 C9.052,9.963 9.022,9.755 9.01,9.61 C9,9.485 9,9.342 9,9.223 L9,6.777 C9,6.658 9,6.516 9.01,6.39 C9.022,6.245 9.052,6.037 9.163,5.819 C9.307,5.537 9.537,5.307 9.819,5.163 C10.037,5.052 10.245,5.022 10.39,5.01 C10.516,5 10.658,5 10.777,5 Z M3,3 L3,5 L5,5 L5,3 Z M4,13 L4,15 L6,15 L6,13 Z M11,7 L11,9 L13,9 L13,7 Z"/>
</svg>
