<svg xmlns="http://www.w3.org/2000/svg" width="24" height="24" viewBox="0 0 24 24">
  <defs/>
  <path d="M22,5 L22,11 C22,11.849 21.487,12.502 20.918,12.953 C20.339,13.411 19.563,13.78 18.692,14.071 C17.168,14.58 15.185,14.906 13,14.983 L13,17.171 C13.852,17.472 14.528,18.148 14.829,19 L21,19 C21.552,19 22,19.448 22,20 C22,20.552 21.552,21 21,21 L14.829,21 C14.417,22.165 13.306,23 12,23 C10.694,23 9.583,22.165 9.171,21 L3,21 C2.448,21 2,20.552 2,20 C2,19.448 2.448,19 3,19 L9.171,19 C9.472,18.148 10.148,17.472 11,17.171 L11,14.983 C8.815,14.906 6.832,14.58 5.308,14.071 C4.437,13.78 3.661,13.411 3.082,12.953 C2.513,12.502 2,11.849 2,11 L2,5 C2,4.148 2.519,3.496 3.088,3.047 C3.669,2.589 4.447,2.221 5.32,1.93 C7.075,1.345 9.437,1 12,1 C14.563,1 16.925,1.345 18.68,1.93 C19.553,2.221 20.331,2.589 20.912,3.047 C21.481,3.496 22,4.148 22,5 Z M20,7.527 C19.599,7.732 19.153,7.912 18.68,8.07 C16.925,8.655 14.563,9 12,9 C9.437,9 7.075,8.655 5.32,8.07 C4.847,7.912 4.401,7.732 4,7.527 L4,11 C4,11.002 4,11.007 4.003,11.018 C4.007,11.03 4.015,11.052 4.036,11.085 C4.078,11.154 4.163,11.258 4.324,11.385 C4.652,11.645 5.188,11.922 5.942,12.174 C7.439,12.674 9.577,13 12,13 C14.423,13 16.561,12.674 18.058,12.174 C18.812,11.922 19.348,11.645 19.676,11.385 C19.837,11.258 19.922,11.154 19.964,11.085 C19.985,11.052 19.993,11.03 19.997,11.018 C20,11.007 20,11.002 20,11 Z M4,5 L4,5 C4,5.002 4,5.006 4.003,5.015 C4.006,5.026 4.015,5.048 4.035,5.081 C4.078,5.151 4.164,5.255 4.326,5.382 C4.656,5.643 5.196,5.921 5.952,6.173 C7.454,6.673 9.592,7 12,7 C14.408,7 16.546,6.673 18.048,6.173 C18.804,5.921 19.344,5.643 19.674,5.382 C19.836,5.255 19.923,5.151 19.965,5.081 C19.985,5.048 19.993,5.026 19.997,5.015 C20,5.006 20,5.001 20,5 L20,5 C20,4.999 20,4.995 19.997,4.985 C19.993,4.974 19.985,4.952 19.965,4.919 C19.923,4.849 19.836,4.745 19.674,4.618 C19.344,4.357 18.804,4.079 18.048,3.827 C16.546,3.327 14.408,3 12,3 C9.592,3 7.454,3.327 5.952,3.827 C5.196,4.079 4.656,4.357 4.326,4.618 C4.164,4.745 4.078,4.849 4.035,4.919 C4.015,4.952 4.006,4.974 4.003,4.985 C4,4.995 4,4.999 4,5 L4,5 Z M12,19 C11.448,19 11,19.448 11,20 C11,20.552 11.448,21 12,21 C12.552,21 13,20.552 13,20 C13,19.448 12.552,19 12,19 Z"/>
</svg>
