<svg xmlns="http://www.w3.org/2000/svg" width="24" height="24" viewBox="0 0 24 24">
  <defs/>
  <path d="M22,5 L22,19 C22,19.849 21.487,20.502 20.918,20.953 C20.339,21.412 19.563,21.78 18.692,22.071 C16.939,22.656 14.577,23 12,23 C9.423,23 7.061,22.656 5.308,22.071 C4.437,21.78 3.661,21.412 3.082,20.953 C2.513,20.502 2,19.849 2,19 L2,5 C2,4.148 2.519,3.496 3.088,3.047 C3.669,2.589 4.447,2.221 5.32,1.93 C7.075,1.345 9.437,1 12,1 C14.563,1 16.925,1.345 18.68,1.93 C19.553,2.221 20.331,2.589 20.912,3.047 C21.481,3.496 22,4.148 22,5 Z M4,5 C4,5.001 4,5.006 4.003,5.015 C4.006,5.026 4.015,5.048 4.035,5.081 C4.078,5.151 4.164,5.255 4.326,5.382 C4.656,5.643 5.196,5.921 5.952,6.173 C7.454,6.673 9.592,7 12,7 C14.408,7 16.546,6.673 18.048,6.173 C18.804,5.921 19.344,5.643 19.674,5.382 C19.836,5.255 19.923,5.151 19.965,5.081 C19.985,5.048 19.993,5.026 19.997,5.015 C20,5.006 20,5.001 20,5 L20,5 C20,4.999 20,4.995 19.997,4.985 C19.993,4.974 19.985,4.952 19.965,4.919 C19.923,4.849 19.836,4.745 19.674,4.618 C19.344,4.357 18.804,4.079 18.048,3.827 C16.546,3.327 14.408,3 12,3 C9.592,3 7.454,3.327 5.952,3.827 C5.196,4.079 4.656,4.357 4.326,4.618 C4.164,4.745 4.078,4.849 4.035,4.919 C4.015,4.952 4.006,4.974 4.003,4.985 C4,4.995 4,4.999 4,5 Z M20,7.527 C19.599,7.732 19.153,7.912 18.68,8.07 C16.925,8.655 14.563,9 12,9 C9.437,9 7.075,8.655 5.32,8.07 C4.847,7.912 4.401,7.732 4,7.527 L4,9.72 C4,9.722 4,9.727 4.003,9.738 C4.007,9.75 4.015,9.772 4.036,9.805 C4.078,9.875 4.163,9.978 4.324,10.106 C4.652,10.365 5.188,10.642 5.942,10.894 C7.439,11.394 9.577,11.72 12,11.72 C14.423,11.72 16.561,11.394 18.058,10.894 C18.812,10.642 19.348,10.365 19.676,10.106 C19.837,9.978 19.922,9.875 19.964,9.805 C19.985,9.772 19.993,9.75 19.997,9.738 C20,9.727 20,9.722 20,9.72 Z M20,12.252 C19.602,12.456 19.161,12.635 18.692,12.791 C16.939,13.376 14.577,13.72 12,13.72 C9.423,13.72 7.061,13.376 5.308,12.791 C4.839,12.635 4.398,12.456 4,12.252 L4,14.44 C4,14.442 4,14.447 4.003,14.458 C4.007,14.47 4.015,14.492 4.036,14.525 C4.078,14.594 4.163,14.698 4.324,14.825 C4.652,15.085 5.188,15.362 5.942,15.614 C7.439,16.114 9.577,16.44 12,16.44 C14.423,16.44 16.561,16.114 18.058,15.614 C18.812,15.362 19.348,15.085 19.676,14.825 C19.837,14.698 19.922,14.594 19.964,14.525 C19.985,14.492 19.993,14.47 19.997,14.458 C20,14.447 20,14.442 20,14.44 Z M20,16.972 C19.602,17.175 19.161,17.354 18.692,17.511 C16.939,18.096 14.577,18.44 12,18.44 C9.423,18.44 7.061,18.096 5.308,17.511 C4.839,17.354 4.398,17.175 4,16.972 L4,19 C4,19.002 4,19.007 4.003,19.018 C4.007,19.03 4.015,19.052 4.036,19.085 C4.078,19.154 4.163,19.258 4.324,19.385 C4.652,19.645 5.188,19.922 5.942,20.174 C7.439,20.674 9.577,21 12,21 C14.423,21 16.561,20.674 18.058,20.174 C18.812,19.922 19.348,19.645 19.676,19.385 C19.837,19.258 19.922,19.154 19.964,19.085 C19.985,19.052 19.993,19.03 19.997,19.018 C20,19.007 20,19.002 20,19 Z"/>
</svg>
