<svg xmlns="http://www.w3.org/2000/svg" width="24" height="24" viewBox="0 0 24 24">
  <defs/>
  <path d="M2.777,1 L6.223,1 C6.342,1 6.485,1 6.61,1.01 C6.755,1.022 6.963,1.052 7.181,1.163 C7.463,1.307 7.693,1.537 7.837,1.819 C7.948,2.037 7.978,2.245 7.99,2.39 C8,2.515 8,2.657 8,2.776 L8,2.777 L8,2.8 L8,6.2 L8,6.223 L8,6.224 C8,6.343 8,6.485 7.99,6.61 C7.978,6.755 7.948,6.963 7.837,7.181 C7.693,7.463 7.463,7.693 7.181,7.837 C6.963,7.948 6.755,7.978 6.61,7.99 C6.485,8 6.343,8 6.224,8 L6.223,8 L6.2,8 L2.8,8 L2.777,8 L2.776,8 C2.657,8 2.515,8 2.39,7.99 C2.245,7.978 2.037,7.948 1.819,7.837 C1.537,7.693 1.307,7.463 1.163,7.181 C1.052,6.963 1.022,6.755 1.01,6.61 C1,6.485 1,6.342 1,6.223 L1,2.777 C1,2.658 1,2.516 1.01,2.39 C1.022,2.245 1.052,2.037 1.163,1.819 C1.307,1.537 1.537,1.307 1.819,1.163 C2.037,1.052 2.245,1.022 2.39,1.01 C2.516,1 2.658,1 2.777,1 Z M21.223,16 L21.227,16 C21.345,16 21.486,16 21.61,16.01 C21.755,16.022 21.963,16.052 22.181,16.163 C22.463,16.307 22.693,16.537 22.837,16.819 C22.948,17.037 22.978,17.245 22.99,17.39 C23,17.515 23,17.658 23,17.777 L23,21.223 C23,21.342 23,21.485 22.99,21.61 C22.978,21.755 22.948,21.963 22.837,22.181 C22.693,22.463 22.463,22.693 22.181,22.837 C21.963,22.948 21.755,22.978 21.61,22.99 C21.485,23 21.342,23 21.223,23 L17.777,23 C17.658,23 17.515,23 17.39,22.99 C17.245,22.978 17.037,22.948 16.819,22.837 C16.537,22.693 16.307,22.463 16.163,22.181 C16.052,21.963 16.022,21.755 16.01,21.61 C16,21.486 16,21.345 16,21.227 L16,17.773 C16,17.655 16,17.514 16.01,17.39 C16.022,17.245 16.052,17.037 16.163,16.819 C16.307,16.537 16.537,16.307 16.819,16.163 C17.037,16.052 17.245,16.022 17.39,16.01 C17.514,16 17.655,16 17.773,16 L21.223,16 Z M10.277,8.5 L13.723,8.5 C13.842,8.5 13.984,8.5 14.11,8.51 C14.255,8.522 14.463,8.552 14.681,8.663 C14.963,8.807 15.193,9.037 15.337,9.319 C15.448,9.537 15.478,9.745 15.49,9.89 C15.5,10.016 15.5,10.158 15.5,10.277 L15.5,13.723 C15.5,13.842 15.5,13.984 15.49,14.11 C15.478,14.255 15.448,14.463 15.337,14.681 C15.193,14.963 14.963,15.193 14.681,15.337 C14.463,15.448 14.255,15.478 14.11,15.49 C13.984,15.5 13.842,15.5 13.723,15.5 L10.277,15.5 C10.158,15.5 10.016,15.5 9.89,15.49 C9.745,15.478 9.537,15.448 9.319,15.337 C9.037,15.193 8.807,14.963 8.663,14.681 C8.552,14.463 8.522,14.255 8.51,14.11 C8.5,13.984 8.5,13.842 8.5,13.723 L8.5,10.277 C8.5,10.158 8.5,10.016 8.51,9.89 C8.522,9.745 8.552,9.537 8.663,9.319 C8.807,9.037 9.037,8.807 9.319,8.663 C9.537,8.552 9.745,8.522 9.89,8.51 C10.016,8.5 10.158,8.5 10.277,8.5 Z M19.532,5.524 C19.249,5.501 18.877,5.5 18.3,5.5 L11,5.5 C10.448,5.5 10,5.052 10,4.5 C10,3.948 10.448,3.5 11,3.5 L18.339,3.5 C18.866,3.5 19.32,3.5 19.695,3.531 C20.09,3.563 20.484,3.634 20.862,3.827 C21.427,4.115 21.885,4.574 22.173,5.138 C22.366,5.516 22.437,5.91 22.469,6.305 C22.5,6.68 22.5,7.134 22.5,7.661 L22.5,9.032 C22.5,9.471 22.5,9.849 22.479,10.162 C22.456,10.492 22.407,10.822 22.272,11.148 C21.967,11.883 21.383,12.467 20.648,12.772 C20.322,12.907 19.992,12.956 19.662,12.979 C19.349,13 18.971,13 18.532,13 L18.5,13 C17.948,13 17.5,12.552 17.5,12 C17.5,11.448 17.948,11 18.5,11 C18.98,11 19.289,11 19.526,10.983 C19.754,10.968 19.841,10.941 19.883,10.924 C20.128,10.822 20.322,10.628 20.424,10.383 C20.441,10.341 20.468,10.254 20.483,10.026 C20.5,9.789 20.5,9.48 20.5,9 L20.5,7.7 C20.5,7.123 20.499,6.751 20.476,6.468 C20.454,6.196 20.416,6.095 20.391,6.046 C20.295,5.858 20.142,5.705 19.954,5.609 C19.905,5.584 19.804,5.546 19.532,5.524 Z M5.468,11 L5.5,11 C6.052,11 6.5,11.448 6.5,12 C6.5,12.552 6.052,13 5.5,13 C5.02,13 4.711,13.001 4.474,13.017 C4.246,13.032 4.159,13.059 4.117,13.076 C3.872,13.178 3.678,13.372 3.576,13.617 C3.559,13.659 3.532,13.746 3.517,13.974 C3.501,14.211 3.5,14.52 3.5,15 L3.5,16.3 C3.5,16.877 3.501,17.249 3.524,17.532 C3.546,17.804 3.584,17.905 3.609,17.954 C3.705,18.142 3.858,18.295 4.046,18.391 C4.095,18.416 4.196,18.454 4.468,18.476 C4.751,18.499 5.123,18.5 5.7,18.5 L13,18.5 C13.552,18.5 14,18.948 14,19.5 C14,20.052 13.552,20.5 13,20.5 L5.661,20.5 C5.134,20.5 4.68,20.5 4.305,20.469 C3.91,20.437 3.516,20.366 3.138,20.173 C2.574,19.885 2.115,19.427 1.827,18.862 C1.634,18.484 1.563,18.09 1.531,17.695 C1.5,17.32 1.5,16.866 1.5,16.339 L1.5,14.968 C1.5,14.529 1.5,14.151 1.521,13.838 C1.544,13.508 1.593,13.178 1.728,12.852 C2.033,12.117 2.617,11.533 3.352,11.228 C3.678,11.093 4.008,11.044 4.338,11.021 C4.651,11 5.029,11 5.468,11 Z M3,3 L3,6 L6,6 L6,3 Z M10.5,10.5 L10.5,13.5 L13.5,13.5 L13.5,10.5 Z M18,18 L18,21 L21,21 L21,18 Z"/>
</svg>
