<svg xmlns="http://www.w3.org/2000/svg" width="24" height="24" viewBox="0 0 24 24">
  <defs/>
  <path d="M18.032,1 L18.032,1 C18.471,1 18.849,1 19.162,1.021 C19.492,1.044 19.822,1.093 20.148,1.228 C20.883,1.533 21.467,2.117 21.772,2.852 C21.907,3.178 21.956,3.508 21.979,3.838 C22,4.151 22,4.529 22,4.968 L22,5.032 C22,5.471 22,5.849 21.979,6.162 C21.956,6.492 21.907,6.822 21.772,7.148 C21.467,7.883 20.883,8.467 20.148,8.772 C19.822,8.907 19.492,8.956 19.162,8.979 C18.849,9 18.471,9 18.033,9 L13,9 L13,12 L15.241,12 C16.046,12 16.711,12 17.252,12.044 C17.814,12.09 18.331,12.189 18.816,12.436 C19.569,12.819 20.181,13.431 20.564,14.184 C20.811,14.669 20.91,15.186 20.956,15.748 C20.989,16.152 20.997,16.623 20.999,17.17 C22.165,17.582 23,18.694 23,20 C23,21.657 21.657,23 20,23 C18.343,23 17,21.657 17,20 C17,18.694 17.834,17.583 18.999,17.171 C18.997,16.642 18.989,16.241 18.962,15.911 C18.927,15.473 18.862,15.248 18.782,15.092 C18.59,14.716 18.284,14.41 17.908,14.218 C17.752,14.138 17.527,14.073 17.089,14.038 C16.639,14.001 16.057,14 15.2,14 L13,14 L13,17.171 C14.165,17.583 15,18.694 15,20 C15,21.657 13.657,23 12,23 C10.343,23 9,21.657 9,20 C9,18.694 9.835,17.583 11,17.171 L11,14 L8.8,14 C7.943,14 7.361,14.001 6.911,14.038 C6.473,14.073 6.248,14.138 6.092,14.218 C5.716,14.41 5.41,14.716 5.218,15.092 C5.138,15.248 5.073,15.473 5.038,15.911 C5.011,16.241 5.003,16.642 5.001,17.171 C6.166,17.583 7,18.694 7,20 C7,21.657 5.657,23 4,23 C2.343,23 1,21.657 1,20 C1,18.694 1.835,17.582 3.001,17.17 C3.003,16.623 3.011,16.152 3.044,15.748 C3.09,15.186 3.189,14.669 3.436,14.184 C3.819,13.431 4.431,12.819 5.184,12.436 C5.669,12.189 6.186,12.09 6.748,12.044 C7.289,12 7.954,12 8.759,12 L11,12 L11,9 L5.967,9 C5.529,9 5.151,9 4.838,8.979 C4.508,8.956 4.178,8.907 3.852,8.772 C3.117,8.467 2.533,7.883 2.228,7.148 C2.093,6.822 2.044,6.492 2.021,6.162 C2,5.849 2,5.471 2,5.032 L2,4.968 C2,4.529 2,4.151 2.021,3.838 C2.044,3.508 2.093,3.178 2.228,2.852 C2.533,2.117 3.117,1.533 3.852,1.228 C4.178,1.093 4.508,1.044 4.838,1.021 C5.151,1 5.529,1 5.968,1 L18.032,1 Z M18,7 C18.48,7 18.789,6.999 19.026,6.983 C19.254,6.968 19.341,6.941 19.383,6.924 C19.628,6.822 19.822,6.628 19.924,6.383 C19.941,6.341 19.968,6.254 19.983,6.026 C20,5.789 20,5.48 20,5 C20,4.52 20,4.211 19.983,3.974 C19.968,3.746 19.941,3.659 19.924,3.617 C19.822,3.372 19.628,3.178 19.383,3.076 C19.341,3.059 19.254,3.032 19.026,3.017 C18.789,3.001 18.48,3 18,3 L6,3 C5.52,3 5.211,3.001 4.974,3.017 C4.746,3.032 4.659,3.059 4.617,3.076 C4.372,3.178 4.178,3.372 4.076,3.617 C4.059,3.659 4.032,3.746 4.017,3.974 C4.001,4.211 4,4.52 4,5 C4,5.48 4.001,5.789 4.017,6.026 C4.032,6.254 4.059,6.341 4.076,6.383 C4.178,6.628 4.372,6.822 4.617,6.924 C4.659,6.941 4.746,6.968 4.974,6.983 C5.211,6.999 5.52,7 6,7 Z M12,19 C11.448,19 11,19.448 11,20 C11,20.552 11.448,21 12,21 C12.552,21 13,20.552 13,20 C13,19.448 12.552,19 12,19 Z M20,19 C19.448,19 19,19.448 19,20 C19,20.552 19.448,21 20,21 C20.552,21 21,20.552 21,20 C21,19.448 20.552,19 20,19 Z M4,19 C3.448,19 3,19.448 3,20 C3,20.552 3.448,21 4,21 C4.552,21 5,20.552 5,20 C5,19.448 4.552,19 4,19 Z"/>
</svg>
