<svg xmlns="http://www.w3.org/2000/svg" width="24" height="24" viewBox="0 0 24 24">
  <defs/>
  <path d="M9.499,3 C9.533,3 9.566,3 9.6,3 L17.241,3 L17.241,3 C18.046,3 18.711,3 19.252,3.044 C19.814,3.09 20.331,3.189 20.816,3.436 C21.569,3.82 22.181,4.432 22.564,5.184 C22.811,5.67 22.91,6.186 22.956,6.748 C23,7.29 23,7.954 23,8.759 L23,15.241 C23,16.046 23,16.711 22.956,17.252 C22.91,17.814 22.811,18.331 22.564,18.816 C22.181,19.569 21.569,20.181 20.816,20.564 C20.331,20.812 19.814,20.91 19.252,20.956 C18.711,21 18.046,21 17.241,21 L9.6,21 C9.566,21 9.533,21 9.499,21 C9.013,21.001 8.584,21.001 8.176,20.885 C7.818,20.783 7.483,20.615 7.187,20.39 C6.849,20.134 6.592,19.79 6.3,19.401 C6.28,19.374 6.26,19.347 6.24,19.32 L1.92,13.56 C1.902,13.536 1.884,13.512 1.865,13.487 C1.667,13.225 1.418,12.896 1.316,12.509 C1.228,12.175 1.228,11.825 1.316,11.491 C1.418,11.104 1.667,10.775 1.865,10.513 C1.884,10.488 1.902,10.464 1.92,10.44 L6.24,4.68 C6.26,4.653 6.28,4.626 6.3,4.6 C6.592,4.21 6.849,3.867 7.187,3.61 C7.483,3.385 7.818,3.218 8.176,3.115 C8.584,2.999 9.013,3 9.499,3 Z M9.6,5 C8.955,5 8.828,5.009 8.725,5.039 C8.606,5.073 8.494,5.129 8.396,5.204 C8.31,5.268 8.227,5.364 7.84,5.88 L3.52,11.64 C3.383,11.823 3.311,11.92 3.264,11.993 C3.262,11.996 3.261,11.998 3.259,12 C3.261,12.002 3.262,12.005 3.264,12.007 C3.311,12.08 3.383,12.177 3.52,12.36 L7.84,18.12 C8.227,18.636 8.31,18.732 8.396,18.797 C8.494,18.872 8.606,18.928 8.725,18.962 C8.828,18.991 8.955,19 9.6,19 L17.2,19 C18.057,19 18.639,18.999 19.089,18.963 C19.527,18.927 19.752,18.862 19.908,18.782 C20.284,18.59 20.59,18.284 20.782,17.908 C20.862,17.752 20.927,17.528 20.962,17.089 C20.999,16.639 21,16.057 21,15.2 L21,8.8 C21,7.944 20.999,7.361 20.962,6.911 C20.927,6.473 20.862,6.249 20.782,6.092 C20.59,5.716 20.284,5.41 19.908,5.218 C19.752,5.138 19.527,5.074 19.089,5.038 C18.639,5.001 18.057,5 17.2,5 Z M10.293,8.293 C10.683,7.903 11.317,7.903 11.707,8.293 L14,10.586 L16.293,8.293 C16.683,7.903 17.317,7.903 17.707,8.293 C18.098,8.684 18.098,9.317 17.707,9.707 L15.414,12 L17.707,14.293 C18.098,14.684 18.098,15.317 17.707,15.707 C17.317,16.098 16.683,16.098 16.293,15.707 L14,13.414 L11.707,15.707 C11.317,16.098 10.683,16.098 10.293,15.707 C9.902,15.317 9.902,14.684 10.293,14.293 L12.586,12 L10.293,9.707 C9.902,9.317 9.902,8.684 10.293,8.293 Z"/>
</svg>
