<svg xmlns="http://www.w3.org/2000/svg" width="24" height="24" viewBox="0 0 24 24">
  <defs/>
  <path d="M7.348,1 C7.358,1 7.367,1 7.375,1 L9.977,1 C9.992,1 10.008,1 10.023,1 L13.977,1 C13.993,1 14.008,1 14.024,1 L16.626,1 C16.633,1 16.642,1 16.653,1 C16.751,0.999 16.955,0.997 17.156,1.051 C17.326,1.097 17.486,1.172 17.629,1.273 C17.799,1.393 17.929,1.551 17.991,1.627 C17.998,1.635 18.003,1.642 18.008,1.648 L22.336,6.841 C22.403,6.921 22.485,7.019 22.551,7.112 C22.628,7.221 22.728,7.381 22.785,7.593 C22.861,7.871 22.854,8.165 22.767,8.44 C22.7,8.65 22.594,8.805 22.512,8.911 C22.442,9.001 22.356,9.095 22.286,9.172 L13.316,19.04 C13.228,19.136 13.125,19.249 13.027,19.341 C12.915,19.445 12.739,19.588 12.491,19.674 C12.173,19.784 11.828,19.784 11.51,19.674 C11.262,19.588 11.086,19.445 10.974,19.341 C10.875,19.249 10.773,19.136 10.685,19.04 C10.679,19.034 10.674,19.027 10.668,19.021 L1.729,9.188 C1.724,9.183 1.72,9.178 1.715,9.172 C1.644,9.095 1.559,9.001 1.489,8.911 C1.406,8.805 1.3,8.65 1.234,8.44 C1.146,8.165 1.14,7.871 1.215,7.593 C1.273,7.381 1.372,7.221 1.45,7.112 C1.516,7.019 1.598,6.921 1.665,6.841 C1.669,6.835 1.674,6.83 1.678,6.825 L5.992,1.648 C5.997,1.642 6.003,1.635 6.009,1.627 C6.072,1.551 6.201,1.393 6.371,1.273 C6.515,1.172 6.675,1.097 6.845,1.051 C7.046,0.997 7.249,0.999 7.348,1 Z M4,22 C4,21.448 4.448,21 5,21 L19,21 C19.553,21 20,21.448 20,22 C20,22.552 19.553,23 19,23 L5,23 C4.448,23 4,22.552 4,22 Z M14.549,9 L9.451,9 L12,15.691 Z M13.28,3 L10.721,3 L9.388,7 L14.613,7 Z M14.489,14.775 L19.74,9 L16.69,9 Z M4.261,9 L9.511,14.775 L7.311,9 Z M7.28,7 L8.613,3 L7.469,3 L4.135,7 Z M16.721,7 L19.865,7 L16.532,3 L15.388,3 Z"/>
</svg>
