<svg xmlns="http://www.w3.org/2000/svg" width="24" height="24" viewBox="0 0 24 24">
  <defs/>
  <path d="M7.347,2 C7.357,2 7.366,2 7.374,2 L9.976,2 C9.992,2 10.007,2 10.023,2 L13.976,2 C13.992,2 14.007,2 14.023,2 L16.625,2 C16.633,2 16.642,2 16.652,2 C16.75,1.999 16.954,1.997 17.155,2.051 C17.325,2.097 17.485,2.172 17.629,2.273 C17.799,2.393 17.928,2.55 17.99,2.627 C17.997,2.635 18.003,2.642 18.008,2.648 L22.354,7.863 C22.418,7.94 22.497,8.035 22.561,8.124 C22.637,8.231 22.733,8.385 22.791,8.588 C22.868,8.857 22.868,9.142 22.791,9.411 C22.733,9.615 22.637,9.769 22.561,9.875 C22.497,9.965 22.418,10.06 22.354,10.137 L13.366,20.923 C13.275,21.031 13.171,21.157 13.071,21.257 C12.958,21.371 12.777,21.532 12.514,21.628 C12.182,21.749 11.817,21.749 11.485,21.628 C11.222,21.532 11.041,21.371 10.928,21.257 C10.828,21.157 10.724,21.031 10.634,20.923 L1.658,10.152 C1.654,10.147 1.65,10.142 1.645,10.137 C1.581,10.06 1.502,9.965 1.438,9.875 C1.362,9.769 1.266,9.615 1.208,9.411 C1.131,9.142 1.131,8.857 1.208,8.588 C1.266,8.385 1.362,8.231 1.438,8.124 C1.502,8.035 1.581,7.94 1.645,7.863 C1.65,7.858 1.654,7.853 1.658,7.848 L5.991,2.648 C5.996,2.642 6.002,2.635 6.009,2.627 C6.071,2.55 6.2,2.393 6.37,2.273 C6.514,2.172 6.674,2.097 6.844,2.051 C7.045,1.997 7.249,1.999 7.347,2 Z M14.593,10 L9.406,10 L12,17.456 Z M13.279,4 L10.72,4 L9.387,8 L14.612,8 Z M4.135,10 L9.548,16.496 L7.289,10 Z M14.451,16.496 L19.865,10 L16.711,10 Z M7.279,8 L8.612,4 L7.468,4 L4.135,8 Z M16.72,8 L19.865,8 L16.531,4 L15.387,4 Z"/>
</svg>
