<svg xmlns="http://www.w3.org/2000/svg" width="24" height="24" viewBox="0 0 24 24">
  <defs/>
  <path d="M1,12 C1,5.925 5.925,1 12,1 C18.075,1 23,5.925 23,12 C23,18.075 18.075,23 12,23 C5.925,23 1,18.075 1,12 Z M12,3 C7.029,3 3,7.029 3,12 C3,16.971 7.029,21 12,21 C16.971,21 21,16.971 21,12 C21,7.029 16.971,3 12,3 Z M8,12 C8,9.791 9.791,8 12,8 C14.209,8 16,9.791 16,12 C16,14.209 14.209,16 12,16 C9.791,16 8,14.209 8,12 Z M14.097,5.245 C14.334,4.746 14.93,4.533 15.429,4.77 C18.13,6.053 20,8.807 20,12 C20,12.552 19.552,13 19,13 C18.448,13 18,12.552 18,12 C18,9.608 16.6,7.541 14.571,6.577 C14.072,6.34 13.86,5.743 14.097,5.245 Z M5,11 C5.552,11 6,11.448 6,12 C6,14.181 7.163,16.092 8.909,17.143 C9.382,17.428 9.534,18.043 9.249,18.516 C8.964,18.989 8.349,19.142 7.876,18.857 C5.556,17.458 4,14.911 4,12 C4,11.448 4.448,11 5,11 Z M12,10 C10.895,10 10,10.895 10,12 C10,13.105 10.895,14 12,14 C13.105,14 14,13.105 14,12 C14,10.895 13.105,10 12,10 Z"/>
</svg>
