<svg xmlns="http://www.w3.org/2000/svg" width="24" height="24" viewBox="0 0 24 24">
  <defs/>
  <path d="M12.032,4 L12.032,4 C12.471,4 12.849,4 13.162,4.021 C13.492,4.044 13.822,4.093 14.148,4.228 C14.883,4.533 15.467,5.117 15.772,5.852 C15.907,6.178 15.956,6.508 15.979,6.838 C16,7.151 16,7.529 16,7.968 L16,16.032 C16,16.471 16,16.849 15.979,17.162 C15.956,17.492 15.907,17.822 15.772,18.148 C15.467,18.883 14.883,19.467 14.148,19.772 C13.822,19.907 13.492,19.956 13.162,19.979 C12.849,20 12.471,20 12.032,20 L11.968,20 C11.529,20 11.151,20 10.838,19.979 C10.508,19.956 10.178,19.907 9.852,19.772 C9.117,19.467 8.533,18.883 8.228,18.148 C8.093,17.822 8.044,17.492 8.021,17.162 C8,16.849 8,16.471 8,16.032 L8,7.968 C8,7.529 8,7.151 8.021,6.838 C8.044,6.508 8.093,6.178 8.228,5.852 C8.533,5.117 9.117,4.533 9.852,4.228 C10.178,4.093 10.508,4.044 10.838,4.021 C11.151,4 11.529,4 11.968,4 L12.032,4 Z M10.974,6.017 C10.746,6.032 10.659,6.059 10.617,6.076 C10.372,6.178 10.178,6.372 10.076,6.617 C10.059,6.659 10.032,6.746 10.017,6.974 C10,7.211 10,7.52 10,8 L10,16 C10,16.48 10,16.789 10.017,17.026 C10.032,17.254 10.059,17.341 10.076,17.383 C10.178,17.628 10.372,17.822 10.617,17.924 C10.659,17.941 10.746,17.968 10.974,17.983 C11.211,18 11.52,18 12,18 C12.48,18 12.789,18 13.026,17.983 C13.254,17.968 13.341,17.941 13.383,17.924 C13.628,17.822 13.822,17.628 13.924,17.383 C13.941,17.341 13.968,17.254 13.983,17.026 C14,16.789 14,16.48 14,16 L14,8 C14,7.52 14,7.211 13.983,6.974 C13.968,6.746 13.941,6.659 13.924,6.617 C13.822,6.372 13.628,6.178 13.383,6.076 C13.341,6.059 13.254,6.032 13.026,6.017 C12.789,6.001 12.48,6 12,6 C11.52,6 11.211,6.001 10.974,6.017 Z M21,2 C21.552,2 22,2.448 22,3 L22,21 C22,21.552 21.552,22 21,22 C20.448,22 20,21.552 20,21 L20,3 C20,2.448 20.448,2 21,2 Z M3,2 C3.552,2 4,2.448 4,3 L4,21 C4,21.552 3.552,22 3,22 C2.448,22 2,21.552 2,21 L2,3 C2,2.448 2.448,2 3,2 Z"/>
</svg>
