<svg xmlns="http://www.w3.org/2000/svg" width="24" height="24" viewBox="0 0 24 24">
  <defs/>
  <path d="M16.032,8 L16.032,8 C16.471,8 16.849,8 17.162,8.021 C17.492,8.044 17.822,8.093 18.148,8.228 C18.883,8.533 19.467,9.117 19.772,9.852 C19.907,10.178 19.956,10.508 19.979,10.838 C20,11.151 20,11.529 20,11.968 L20,12.032 C20,12.471 20,12.849 19.979,13.162 C19.956,13.492 19.907,13.822 19.772,14.148 C19.467,14.883 18.883,15.467 18.148,15.772 C17.822,15.907 17.492,15.956 17.162,15.979 C16.849,16 16.471,16 16.032,16 L7.968,16 C7.529,16 7.151,16 6.838,15.979 C6.508,15.956 6.178,15.907 5.852,15.772 C5.117,15.467 4.533,14.883 4.228,14.148 C4.093,13.822 4.044,13.492 4.021,13.162 C4,12.849 4,12.471 4,12.032 L4,11.968 C4,11.529 4,11.151 4.021,10.838 C4.044,10.508 4.093,10.178 4.228,9.852 C4.533,9.117 5.117,8.533 5.852,8.228 C6.178,8.093 6.508,8.044 6.838,8.021 C7.151,8 7.529,8 7.968,8 L16.032,8 Z M6.974,10.017 C6.746,10.032 6.659,10.059 6.617,10.076 C6.372,10.178 6.178,10.372 6.076,10.617 C6.059,10.659 6.032,10.746 6.017,10.974 C6.001,11.211 6,11.52 6,12 C6,12.48 6.001,12.789 6.017,13.026 C6.032,13.254 6.059,13.341 6.076,13.383 C6.178,13.628 6.372,13.822 6.617,13.924 C6.659,13.941 6.746,13.968 6.974,13.983 C7.211,14 7.52,14 8,14 L16,14 C16.48,14 16.789,14 17.026,13.983 C17.254,13.968 17.341,13.941 17.383,13.924 C17.628,13.822 17.822,13.628 17.924,13.383 C17.941,13.341 17.968,13.254 17.983,13.026 C18,12.789 18,12.48 18,12 C18,11.52 18,11.211 17.983,10.974 C17.968,10.746 17.941,10.659 17.924,10.617 C17.822,10.372 17.628,10.178 17.383,10.076 C17.341,10.059 17.254,10.032 17.026,10.017 C16.789,10 16.48,10 16,10 L8,10 C7.52,10 7.211,10 6.974,10.017 Z M2,21 C2,20.448 2.448,20 3,20 L21,20 C21.552,20 22,20.448 22,21 C22,21.552 21.552,22 21,22 L3,22 C2.448,22 2,21.552 2,21 Z M2,3 C2,2.448 2.448,2 3,2 L21,2 C21.552,2 22,2.448 22,3 C22,3.552 21.552,4 21,4 L3,4 C2.448,4 2,3.552 2,3 Z"/>
</svg>
