<svg xmlns="http://www.w3.org/2000/svg" width="24" height="24" viewBox="0 0 24 24">
  <defs/>
  <path d="M1,12 C1,5.925 5.925,1 12,1 C18.075,1 23,5.925 23,12 C23,18.075 18.075,23 12,23 C5.925,23 1,18.075 1,12 Z M12,3 C7.029,3 3,7.029 3,12 C3,16.971 7.029,21 12,21 C16.971,21 21,16.971 21,12 C21,7.029 16.971,3 12,3 Z M6,12 C6,11.448 6.448,11 7,11 L17,11 C17.552,11 18,11.448 18,12 C18,12.552 17.552,13 17,13 L7,13 C6.448,13 6,12.552 6,12 Z M10.5,8 C10.5,7.172 11.172,6.5 12,6.5 C12.828,6.5 13.5,7.172 13.5,8 C13.5,8.828 12.828,9.5 12,9.5 C11.172,9.5 10.5,8.828 10.5,8 Z M10.5,16 C10.5,15.172 11.172,14.5 12,14.5 C12.828,14.5 13.5,15.172 13.5,16 C13.5,16.828 12.828,17.5 12,17.5 C11.172,17.5 10.5,16.828 10.5,16 Z"/>
</svg>
