<svg xmlns="http://www.w3.org/2000/svg" width="24" height="24" viewBox="0 0 24 24">
  <defs/>
  <path d="M3,2 C3.552,2 4,2.448 4,3 L4,3.8 C4,4.377 4.001,4.749 4.024,5.032 C4.046,5.304 4.084,5.405 4.109,5.454 C4.205,5.642 4.358,5.795 4.546,5.891 C4.595,5.916 4.696,5.954 4.968,5.976 C5.251,5.999 5.623,6 6.2,6 L17.8,6 C18.377,6 18.749,5.999 19.032,5.976 C19.304,5.954 19.404,5.916 19.454,5.891 C19.642,5.795 19.795,5.642 19.891,5.454 C19.916,5.405 19.954,5.304 19.976,5.032 C19.999,4.749 20,4.377 20,3.8 L20,3 C20,2.448 20.448,2 21,2 C21.552,2 22,2.448 22,3 L22,3.839 C22,4.366 22,4.82 21.969,5.195 C21.937,5.59 21.866,5.984 21.673,6.362 C21.385,6.926 20.927,7.385 20.362,7.673 C19.984,7.866 19.59,7.937 19.195,7.969 C18.82,8 18.366,8 17.838,8 L6.161,8 C5.634,8 5.18,8 4.805,7.969 C4.41,7.937 4.016,7.866 3.638,7.673 C3.074,7.385 2.615,6.926 2.327,6.362 C2.134,5.984 2.063,5.59 2.031,5.195 C2,4.82 2,4.366 2,3.839 L2,3 C2,2.448 2.448,2 3,2 Z M6.161,16 L17.838,16 C18.366,16 18.82,16 19.195,16.031 C19.59,16.063 19.984,16.134 20.362,16.327 C20.927,16.615 21.385,17.073 21.673,17.638 C21.866,18.016 21.937,18.41 21.969,18.805 C22,19.18 22,19.634 22,20.161 L22,21 C22,21.552 21.552,22 21,22 C20.448,22 20,21.552 20,21 L20,20.2 C20,19.623 19.999,19.251 19.976,18.968 C19.954,18.696 19.916,18.596 19.891,18.546 C19.795,18.358 19.642,18.205 19.454,18.109 C19.404,18.084 19.304,18.046 19.032,18.024 C18.749,18.001 18.377,18 17.8,18 L6.2,18 C5.623,18 5.251,18.001 4.968,18.024 C4.696,18.046 4.595,18.084 4.546,18.109 C4.358,18.205 4.205,18.358 4.109,18.546 C4.084,18.596 4.046,18.696 4.024,18.968 C4.001,19.251 4,19.623 4,20.2 L4,21 C4,21.552 3.552,22 3,22 C2.448,22 2,21.552 2,21 L2,20.162 C2,19.634 2,19.18 2.031,18.805 C2.063,18.41 2.134,18.016 2.327,17.638 C2.615,17.073 3.074,16.615 3.638,16.327 C4.016,16.134 4.41,16.063 4.805,16.031 C5.18,16 5.634,16 6.161,16 Z M11,12 C11,11.448 11.448,11 12,11 L12.01,11 C12.562,11 13.01,11.448 13.01,12 C13.01,12.552 12.562,13 12.01,13 L12,13 C11.448,13 11,12.552 11,12 Z M15.5,12 C15.5,11.448 15.948,11 16.5,11 L16.51,11 C17.062,11 17.51,11.448 17.51,12 C17.51,12.552 17.062,13 16.51,13 L16.5,13 C15.948,13 15.5,12.552 15.5,12 Z M21.01,13 L21,13 C20.448,13 20,12.552 20,12 C20,11.448 20.448,11 21,11 L21.01,11 C21.562,11 22.01,11.448 22.01,12 C22.01,12.552 21.562,13 21.01,13 Z M6.5,12 C6.5,11.448 6.948,11 7.5,11 L7.51,11 C8.062,11 8.51,11.448 8.51,12 C8.51,12.552 8.062,13 7.51,13 L7.5,13 C6.948,13 6.5,12.552 6.5,12 Z M2,12 C2,11.448 2.448,11 3,11 L3.01,11 C3.562,11 4.01,11.448 4.01,12 C4.01,12.552 3.562,13 3.01,13 L3,13 C2.448,13 2,12.552 2,12 Z"/>
</svg>
