<svg xmlns="http://www.w3.org/2000/svg" width="24" height="24" viewBox="0 0 24 24">
  <defs/>
  <path d="M3,12 C3,11.448 3.448,11 4,11 L20,11 C20.552,11 21,11.448 21,12 C21,12.552 20.552,13 20,13 L4,13 C3.448,13 3,12.552 3,12 Z M9,18 C9,16.343 10.343,15 12,15 C13.657,15 15,16.343 15,18 C15,19.657 13.657,21 12,21 C10.343,21 9,19.657 9,18 Z M9,6 C9,4.343 10.343,3 12,3 C13.657,3 15,4.343 15,6 C15,7.657 13.657,9 12,9 C10.343,9 9,7.657 9,6 Z M12,17 C11.448,17 11,17.448 11,18 C11,18.552 11.448,19 12,19 C12.552,19 13,18.552 13,18 C13,17.448 12.552,17 12,17 Z M12,5 C11.448,5 11,5.448 11,6 C11,6.552 11.448,7 12,7 C12.552,7 13,6.552 13,6 C13,5.448 12.552,5 12,5 Z"/>
</svg>
