<svg xmlns="http://www.w3.org/2000/svg" width="24" height="24" viewBox="0 0 24 24">
  <defs/>
  <path d="M9,12 C9,11.448 9.448,11 10,11 L21,11 C21.552,11 22,11.448 22,12 C22,12.552 21.552,13 21,13 L10,13 C9.448,13 9,12.552 9,12 Z M9,19 C9,18.448 9.448,18 10,18 L21,18 C21.552,18 22,18.448 22,19 C22,19.552 21.552,20 21,20 L10,20 C9.448,20 9,19.552 9,19 Z M9,5 C9,4.448 9.448,4 10,4 L21,4 C21.552,4 22,4.448 22,5 C22,5.552 21.552,6 21,6 L10,6 C9.448,6 9,5.552 9,5 Z M2,5 C2,3.619 3.119,2.5 4.5,2.5 C5.881,2.5 7,3.619 7,5 C7,6.381 5.881,7.5 4.5,7.5 C3.119,7.5 2,6.381 2,5 Z M2,12 C2,10.619 3.119,9.5 4.5,9.5 C5.881,9.5 7,10.619 7,12 C7,13.381 5.881,14.5 4.5,14.5 C3.119,14.5 2,13.381 2,12 Z M2,19 C2,17.619 3.119,16.5 4.5,16.5 C5.881,16.5 7,17.619 7,19 C7,20.381 5.881,21.5 4.5,21.5 C3.119,21.5 2,20.381 2,19 Z M4.5,4.5 C4.224,4.5 4,4.724 4,5 C4,5.276 4.224,5.5 4.5,5.5 C4.776,5.5 5,5.276 5,5 C5,4.724 4.776,4.5 4.5,4.5 Z M4.5,11.5 C4.224,11.5 4,11.724 4,12 C4,12.276 4.224,12.5 4.5,12.5 C4.776,12.5 5,12.276 5,12 C5,11.724 4.776,11.5 4.5,11.5 Z M4.5,18.5 C4.224,18.5 4,18.724 4,19 C4,19.276 4.224,19.5 4.5,19.5 C4.776,19.5 5,19.276 5,19 C5,18.724 4.776,18.5 4.5,18.5 Z"/>
</svg>
