<svg xmlns="http://www.w3.org/2000/svg" width="24" height="24" viewBox="0 0 24 24">
  <defs/>
  <path d="M17,19 C17,17.895 17.895,17 19,17 C20.105,17 21,17.895 21,19 C21,20.105 20.105,21 19,21 C17.895,21 17,20.105 17,19 Z M17,12 C17,10.895 17.895,10 19,10 C20.105,10 21,10.895 21,12 C21,13.105 20.105,14 19,14 C17.895,14 17,13.105 17,12 Z M10,19 C10,17.895 10.895,17 12,17 C13.105,17 14,17.895 14,19 C14,20.105 13.105,21 12,21 C10.895,21 10,20.105 10,19 Z M10,12 C10,10.895 10.895,10 12,10 C13.105,10 14,10.895 14,12 C14,13.105 13.105,14 12,14 C10.895,14 10,13.105 10,12 Z M17,5 C17,3.895 17.895,3 19,3 C20.105,3 21,3.895 21,5 C21,6.105 20.105,7 19,7 C17.895,7 17,6.105 17,5 Z M3,19 C3,17.895 3.895,17 5,17 C6.105,17 7,17.895 7,19 C7,20.105 6.105,21 5,21 C3.895,21 3,20.105 3,19 Z M10,5 C10,3.895 10.895,3 12,3 C13.105,3 14,3.895 14,5 C14,6.105 13.105,7 12,7 C10.895,7 10,6.105 10,5 Z M3,12 C3,10.895 3.895,10 5,10 C6.105,10 7,10.895 7,12 C7,13.105 6.105,14 5,14 C3.895,14 3,13.105 3,12 Z M3,5 C3,3.895 3.895,3 5,3 C6.105,3 7,3.895 7,5 C7,6.105 6.105,7 5,7 C3.895,7 3,6.105 3,5 Z"/>
</svg>
