<svg width="24" height="24" viewBox="0 0 24 24" fill="none" xmlns="http://www.w3.org/2000/svg">
<path d="M6.5 5C6.5 3.89543 7.39543 3 8.5 3C9.60457 3 10.5 3.89543 10.5 5C10.5 6.10457 9.60457 7 8.5 7C7.39543 7 6.5 6.10457 6.5 5ZM13.5 5C13.5 3.89543 14.3954 3 15.5 3C16.6046 3 17.5 3.89543 17.5 5C17.5 6.10457 16.6046 7 15.5 7C14.3954 7 13.5 6.10457 13.5 5ZM6.5 12C6.5 10.8954 7.39543 10 8.5 10C9.60457 10 10.5 10.8954 10.5 12C10.5 13.1046 9.60457 14 8.5 14C7.39543 14 6.5 13.1046 6.5 12ZM13.5 12C13.5 10.8954 14.3954 10 15.5 10C16.6046 10 17.5 10.8954 17.5 12C17.5 13.1046 16.6046 14 15.5 14C14.3954 14 13.5 13.1046 13.5 12ZM6.5 19C6.5 17.8954 7.39543 17 8.5 17C9.60457 17 10.5 17.8954 10.5 19C10.5 20.1046 9.60457 21 8.5 21C7.39543 21 6.5 20.1046 6.5 19ZM13.5 19C13.5 17.8954 14.3954 17 15.5 17C16.6046 17 17.5 17.8954 17.5 19C17.5 20.1046 16.6046 21 15.5 21C14.3954 21 13.5 20.1046 13.5 19Z" fill="black"/>
</svg>
