<svg xmlns="http://www.w3.org/2000/svg" width="24" height="24" viewBox="0 0 24 24">
  <defs/>
  <path d="M3,14 C3.552,14 4,14.448 4,15 L4,16.2 C4,17.057 4.001,17.639 4.038,18.089 C4.073,18.527 4.138,18.752 4.218,18.908 C4.41,19.284 4.716,19.59 5.092,19.782 C5.248,19.862 5.473,19.927 5.911,19.962 C6.361,19.999 6.943,20 7.8,20 L16.2,20 C17.057,20 17.639,19.999 18.089,19.962 C18.527,19.927 18.752,19.862 18.908,19.782 C19.284,19.59 19.59,19.284 19.782,18.908 C19.862,18.752 19.927,18.527 19.962,18.089 C19.999,17.639 20,17.057 20,16.2 L20,15 C20,14.448 20.448,14 21,14 C21.552,14 22,14.448 22,15 L22,16.241 C22,17.046 22,17.711 21.956,18.252 C21.91,18.814 21.811,19.331 21.564,19.816 C21.181,20.569 20.569,21.181 19.816,21.564 C19.331,21.811 18.814,21.91 18.252,21.956 C17.711,22 17.046,22 16.241,22 L7.759,22 C6.954,22 6.289,22 5.748,21.956 C5.186,21.91 4.669,21.811 4.184,21.564 C3.431,21.181 2.819,20.569 2.436,19.816 C2.189,19.331 2.09,18.814 2.044,18.252 C2,17.711 2,17.046 2,16.241 L2,15 C2,14.448 2.448,14 3,14 Z M12,2 C12.552,2 13,2.448 13,3 L13,12.586 L16.293,9.293 C16.683,8.902 17.317,8.902 17.707,9.293 C18.098,9.683 18.098,10.317 17.707,10.707 L12.707,15.707 C12.317,16.098 11.683,16.098 11.293,15.707 L6.293,10.707 C5.902,10.317 5.902,9.683 6.293,9.293 C6.683,8.902 7.317,8.902 7.707,9.293 L11,12.586 L11,3 C11,2.448 11.448,2 12,2 Z"/>
</svg>
