<svg xmlns="http://www.w3.org/2000/svg" width="24" height="24" viewBox="0 0 24 24">
  <defs/>
  <path d="M5.249,7.143 C6.063,4.178 8.776,2 12,2 C15.224,2 17.937,4.178 18.751,7.143 C21.186,7.71 23,9.892 23,12.5 C23,14.408 22.028,16.088 20.556,17.073 C20.097,17.38 19.476,17.257 19.169,16.799 C18.862,16.34 18.985,15.718 19.444,15.411 C20.384,14.782 21,13.712 21,12.5 C21,10.678 19.607,9.18 17.828,9.015 C17.375,8.973 17.007,8.631 16.934,8.182 C16.544,5.81 14.482,4 12,4 C9.518,4 7.456,5.81 7.067,8.182 C6.993,8.631 6.625,8.973 6.172,9.015 C4.393,9.18 3,10.678 3,12.5 C3,13.712 3.616,14.782 4.556,15.411 C5.015,15.718 5.138,16.34 4.831,16.799 C4.524,17.257 3.903,17.38 3.444,17.073 C1.972,16.088 1,14.408 1,12.5 C1,9.892 2.814,7.71 5.249,7.143 Z M12,11 C12.552,11 13,11.448 13,12 L13,18.586 L15.293,16.293 C15.683,15.902 16.317,15.902 16.707,16.293 C17.098,16.683 17.098,17.317 16.707,17.707 L12.707,21.707 C12.317,22.098 11.683,22.098 11.293,21.707 L7.293,17.707 C6.902,17.317 6.902,16.683 7.293,16.293 C7.683,15.902 8.317,15.902 8.707,16.293 L11,18.586 L11,12 C11,11.448 11.448,11 12,11 Z"/>
</svg>
