<svg xmlns="http://www.w3.org/2000/svg" width="24" height="24" viewBox="0 0 24 24">
  <defs/>
  <path d="M8.559,3.691 C8.392,3.734 8.227,3.815 7.844,4.015 C4.963,5.518 3,8.53 3,12 C3,16.971 7.029,21 12,21 C16.971,21 21,16.971 21,12 C21,8.67 19.192,5.761 16.499,4.203 C16.021,3.927 15.858,3.315 16.134,2.837 C16.411,2.359 17.023,2.196 17.501,2.472 C20.786,4.373 23,7.927 23,12 C23,18.075 18.075,23 12,23 C5.925,23 1,18.075 1,12 C1,7.756 3.404,4.075 6.919,2.242 C6.934,2.234 6.948,2.226 6.963,2.218 C7.286,2.05 7.645,1.862 8.055,1.755 C8.514,1.635 8.979,1.628 9.537,1.704 C10.05,1.773 10.608,2.034 11.043,2.298 C11.478,2.562 11.967,2.936 12.266,3.358 C13.002,4.399 13.001,5.394 13,6.655 L13,6.655 C13,6.703 13,6.751 13,6.8 L13,13.586 L15.293,11.293 C15.683,10.902 16.317,10.902 16.707,11.293 C17.098,11.683 17.098,12.317 16.707,12.707 L12.707,16.707 C12.317,17.098 11.683,17.098 11.293,16.707 L7.293,12.707 C6.902,12.317 6.902,11.683 7.293,11.293 C7.683,10.902 8.317,10.902 8.707,11.293 L11,13.586 L11,6.8 C11,5.349 10.97,4.99 10.633,4.513 C10.566,4.418 10.346,4.214 10.006,4.008 C9.666,3.802 9.384,3.701 9.269,3.686 C8.882,3.633 8.694,3.655 8.559,3.691 Z"/>
</svg>
