<svg xmlns="http://www.w3.org/2000/svg" width="24" height="24" viewBox="0 0 24 24">
  <defs/>
  <path d="M12,2 C12.552,2 13,2.448 13,3 L13,14.586 L17.293,10.293 C17.683,9.902 18.317,9.902 18.707,10.293 C19.098,10.683 19.098,11.317 18.707,11.707 L12.707,17.707 C12.317,18.098 11.683,18.098 11.293,17.707 L5.293,11.707 C4.902,11.317 4.902,10.683 5.293,10.293 C5.683,9.902 6.317,9.902 6.707,10.293 L11,14.586 L11,3 C11,2.448 11.448,2 12,2 Z M2,21 C2,20.448 2.448,20 3,20 L21,20 C21.552,20 22,20.448 22,21 C22,21.552 21.552,22 21,22 L3,22 C2.448,22 2,21.552 2,21 Z"/>
</svg>
