<svg xmlns="http://www.w3.org/2000/svg" width="24" height="24" viewBox="0 0 24 24">
  <defs/>
  <path d="M16.293,2.293 C17.788,0.798 20.212,0.798 21.707,2.293 C23.202,3.788 23.202,6.212 21.707,7.707 L17.414,12 L18.207,12.793 C18.598,13.183 18.598,13.816 18.207,14.207 C17.816,14.597 17.183,14.597 16.793,14.207 L16,13.414 L9.707,19.707 C8.286,21.128 6.352,21.938 4.854,22.394 C4.092,22.626 3.414,22.774 2.925,22.866 C2.68,22.911 2.482,22.943 2.342,22.963 C2.272,22.973 2.216,22.981 2.177,22.986 L2.131,22.991 L2.117,22.993 L2.113,22.993 L2.112,22.994 C2.111,22.994 2.11,22.994 2,22 L2.11,22.994 C1.808,23.027 1.508,22.922 1.293,22.707 C1.078,22.492 0.973,22.191 1.006,21.889 L1.006,21.887 L1.007,21.882 L1.008,21.869 L1.014,21.822 C1.019,21.783 1.027,21.728 1.037,21.658 C1.057,21.518 1.088,21.319 1.134,21.074 C1.225,20.586 1.374,19.908 1.606,19.146 C2.062,17.648 2.872,15.714 4.293,14.293 L10.586,8 L9.793,7.207 C9.402,6.816 9.402,6.183 9.793,5.793 C10.183,5.402 10.816,5.402 11.207,5.793 L12,6.586 Z M12,9.414 L5.707,15.707 C4.628,16.786 3.938,18.352 3.519,19.729 C3.407,20.098 3.316,20.446 3.244,20.756 C3.554,20.684 3.902,20.593 4.271,20.481 C5.648,20.062 7.214,19.372 8.293,18.293 L14.586,12 Z M16,10.586 L20.293,6.293 C21.007,5.579 21.007,4.421 20.293,3.707 C19.579,2.993 18.421,2.993 17.707,3.707 L13.414,8 Z M2,22 L1.006,21.889 C1.006,21.889 1.009,21.89 2,22 Z"/>
</svg>
