<svg xmlns="http://www.w3.org/2000/svg" width="24" height="24" viewBox="0 0 24 24">
  <defs/>
  <path d="M12,1.5 C12.477,1.5 12.887,1.836 12.981,2.304 C13.433,4.564 14.801,6.76 16.625,8.219 C18.804,9.963 20,12.129 20,14.5 C20,16.622 19.157,18.657 17.657,20.157 C16.157,21.657 14.122,22.5 12,22.5 C9.878,22.5 7.843,21.657 6.343,20.157 C4.843,18.657 4,16.622 4,14.5 C4,12.129 5.196,9.963 7.375,8.219 C9.199,6.76 10.567,4.564 11.019,2.304 C11.113,1.836 11.523,1.5 12,1.5 Z M12,5.553 C11.194,7.19 10.022,8.663 8.625,9.781 C6.804,11.237 6,12.871 6,14.5 C6,16.091 6.632,17.617 7.757,18.743 C8.883,19.868 10.409,20.5 12,20.5 C13.591,20.5 15.117,19.868 16.243,18.743 C17.368,17.617 18,16.091 18,14.5 C18,12.871 17.196,11.237 15.375,9.781 C13.978,8.663 12.806,7.19 12,5.553 Z"/>
</svg>
