<svg xmlns="http://www.w3.org/2000/svg" width="24" height="24" viewBox="0 0 24 24">
  <defs/>
  <path d="M7,3.78 C7.477,3.78 7.887,4.116 7.981,4.584 C8.223,5.796 8.953,6.975 9.922,7.765 C11.241,8.841 12,10.206 12,11.73 C12,14.489 9.765,16.78 7,16.78 C4.235,16.78 2,14.489 2,11.73 C2,10.224 2.742,8.834 4.085,7.759 C5.052,6.985 5.776,5.802 6.019,4.584 C6.113,4.116 6.523,3.78 7,3.78 Z M14.004,1.5 C14.479,1.502 14.887,1.838 14.981,2.304 C15.433,4.564 16.801,6.76 18.625,8.219 C20.803,9.962 21.999,12.127 22,14.496 L21,14.5 L22,14.5 C22.006,16.079 21.543,17.624 20.67,18.94 C19.797,20.257 18.552,21.285 17.093,21.893 C15.635,22.502 14.028,22.664 12.478,22.358 C10.927,22.053 9.502,21.294 8.384,20.178 C7.993,19.788 7.992,19.155 8.382,18.764 C8.772,18.373 9.405,18.372 9.796,18.762 C10.635,19.599 11.703,20.167 12.864,20.396 C14.026,20.625 15.23,20.504 16.323,20.048 C17.416,19.591 18.349,18.821 19.003,17.834 C19.658,16.847 20.005,15.688 20,14.504 L20,14.5 C20,12.871 19.196,11.237 17.375,9.781 C15.977,8.663 14.804,7.188 13.999,5.55 C13.82,5.913 13.623,6.267 13.408,6.611 C13.115,7.079 12.498,7.221 12.03,6.928 C11.561,6.635 11.419,6.018 11.712,5.549 C12.337,4.551 12.781,3.449 13.021,2.296 C13.118,1.831 13.529,1.498 14.004,1.5 Z M7.003,7.425 C6.555,8.149 5.987,8.799 5.335,9.321 C4.378,10.086 4,10.936 4,11.73 C4,13.411 5.365,14.78 7,14.78 C8.635,14.78 10,13.411 10,11.73 C10,10.934 9.619,10.099 8.658,9.315 C8.016,8.792 7.452,8.146 7.003,7.425 Z M14.979,2.704 L14,2.5 L13.019,2.696 C13.215,3.676 13.55,4.639 13.999,5.55 C14.443,4.648 14.773,3.692 14.979,2.704 Z"/>
</svg>
