<svg xmlns="http://www.w3.org/2000/svg" width="24" height="24" viewBox="0 0 24 24">
  <defs/>
  <path d="M11.302,1.284 C11.691,0.905 12.309,0.905 12.698,1.284 L12.703,1.289 L12.717,1.303 L12.771,1.356 C12.818,1.402 12.887,1.47 12.975,1.557 C13.15,1.731 13.401,1.983 13.706,2.294 C14.315,2.915 15.141,3.775 16.005,4.729 C16.868,5.682 17.778,6.738 18.553,7.749 C19.313,8.742 19.995,9.76 20.345,10.625 C20.768,11.668 21,12.808 21,14 C21,18.971 16.971,23 12,23 C7.029,23 3,18.971 3,14 C3,12.808 3.232,11.668 3.655,10.625 C4.005,9.76 4.687,8.742 5.447,7.749 C6.222,6.738 7.132,5.682 7.995,4.729 C8.859,3.775 9.685,2.915 10.294,2.294 C10.599,1.983 10.85,1.731 11.025,1.557 C11.113,1.47 11.182,1.402 11.229,1.356 L11.283,1.303 Z M12,3.412 C11.914,3.499 11.821,3.593 11.722,3.694 C11.125,4.302 10.319,5.143 9.477,6.072 C8.634,7.003 7.763,8.014 7.035,8.965 C6.293,9.934 5.752,10.774 5.508,11.375 C5.181,12.184 5,13.07 5,14 C5,17.866 8.134,21 12,21 C15.866,21 19,17.866 19,14 C19,13.07 18.819,12.184 18.492,11.375 C18.248,10.774 17.707,9.934 16.965,8.965 C16.237,8.014 15.366,7.003 14.523,6.072 C13.681,5.143 12.875,4.302 12.278,3.694 C12.179,3.593 12.086,3.499 12,3.412 Z"/>
</svg>
