<svg xmlns="http://www.w3.org/2000/svg" width="24" height="24" viewBox="0 0 24 24">
  <defs/>
  <path d="M16.85,1.473 L16.855,1.482 L16.869,1.504 L16.921,1.589 C16.966,1.663 17.032,1.771 17.115,1.91 C17.282,2.188 17.519,2.588 17.804,3.081 C18.372,4.067 19.132,5.429 19.892,6.93 C20.651,8.429 21.419,10.081 22,11.644 C22.571,13.182 23,14.735 23,16 C23,19.866 19.866,23 16,23 C12.134,23 9,19.866 9,16 C9,14.735 9.429,13.182 10,11.644 C10.581,10.081 11.349,8.429 12.108,6.93 C12.868,5.429 13.628,4.067 14.196,3.081 C14.481,2.588 14.718,2.188 14.885,1.91 C14.968,1.771 15.034,1.663 15.079,1.589 L15.131,1.504 L15.145,1.482 L15.15,1.473 C15.332,1.179 15.654,1 16,1 C16.346,1 16.668,1.179 16.85,1.473 Z M16,3.957 C15.977,3.998 15.953,4.039 15.929,4.08 C15.372,5.045 14.632,6.375 13.892,7.834 C13.151,9.297 12.419,10.875 11.875,12.341 C11.321,13.833 11,15.108 11,16 C11,18.761 13.239,21 16,21 C18.761,21 21,18.761 21,16 C21,15.108 20.679,13.833 20.125,12.341 C19.581,10.875 18.849,9.297 18.108,7.834 C17.368,6.375 16.628,5.045 16.071,4.08 C16.047,4.039 16.023,3.998 16,3.957 Z M5.85,1.473 L5.853,1.478 L5.86,1.49 L5.887,1.534 C5.91,1.572 5.944,1.627 5.986,1.698 C6.071,1.839 6.191,2.041 6.335,2.291 C6.622,2.789 7.007,3.478 7.392,4.239 C7.776,4.997 8.169,5.842 8.469,6.648 C8.758,7.429 9,8.275 9,9 C9,11.209 7.209,13 5,13 C2.791,13 1,11.209 1,9 C1,8.275 1.242,7.429 1.531,6.648 C1.831,5.842 2.224,4.997 2.608,4.239 C2.993,3.478 3.378,2.789 3.665,2.291 C3.809,2.041 3.929,1.839 4.014,1.698 C4.056,1.627 4.09,1.572 4.113,1.534 L4.14,1.49 L4.147,1.478 L4.15,1.473 C4.332,1.179 4.654,1 5,1 C5.346,1 5.668,1.179 5.85,1.473 Z M5,3.995 C4.808,4.343 4.6,4.733 4.392,5.143 C4.026,5.866 3.669,6.636 3.406,7.344 C3.133,8.079 3,8.647 3,9 C3,10.105 3.895,11 5,11 C6.105,11 7,10.105 7,9 C7,8.647 6.867,8.079 6.594,7.344 C6.331,6.636 5.974,5.866 5.608,5.143 C5.4,4.733 5.192,4.343 5,3.995 Z M5,2 C4.151,1.474 4.15,1.473 4.15,1.473 Z"/>
</svg>
