<svg xmlns="http://www.w3.org/2000/svg" width="24" height="24" viewBox="0 0 24 24">
  <defs/>
  <path d="M17.793,1.793 C19.012,0.574 20.988,0.574 22.207,1.793 C23.426,3.012 23.426,4.988 22.207,6.207 L12.644,15.77 C12.625,15.79 12.605,15.809 12.585,15.829 C12.298,16.117 12.045,16.371 11.739,16.558 C11.471,16.722 11.178,16.844 10.872,16.917 C10.524,17.001 10.165,17 9.758,17 L8,17 C7.448,17 7,16.552 7,16 L7,14.325 C7,14.297 7,14.27 7,14.242 C7,13.835 6.999,13.476 7.083,13.128 C7.156,12.822 7.278,12.529 7.442,12.261 C7.629,11.955 7.883,11.702 8.171,11.415 C8.191,11.395 8.21,11.375 8.23,11.356 Z M11,3 C11.552,3 12,3.448 12,4 C12,4.552 11.552,5 11,5 L6.8,5 C5.943,5 5.361,5.001 4.911,5.038 C4.473,5.073 4.248,5.138 4.092,5.218 C3.716,5.41 3.41,5.716 3.218,6.092 C3.138,6.248 3.073,6.473 3.038,6.911 C3.001,7.361 3,7.943 3,8.8 L3,17.2 C3,18.057 3.001,18.639 3.038,19.089 C3.073,19.527 3.138,19.752 3.218,19.908 C3.41,20.284 3.716,20.59 4.092,20.782 C4.248,20.862 4.473,20.927 4.911,20.962 C5.361,20.999 5.943,21 6.8,21 L15.2,21 C16.057,21 16.639,20.999 17.089,20.962 C17.527,20.927 17.752,20.862 17.908,20.782 C18.284,20.59 18.59,20.284 18.782,19.908 C18.862,19.752 18.927,19.527 18.962,19.089 C18.999,18.639 19,18.057 19,17.2 L19,13 C19,12.448 19.448,12 20,12 C20.552,12 21,12.448 21,13 L21,17.241 C21,18.046 21,18.711 20.956,19.252 C20.91,19.814 20.811,20.331 20.564,20.816 C20.181,21.569 19.569,22.181 18.816,22.564 C18.331,22.811 17.814,22.91 17.252,22.956 C16.711,23 16.046,23 15.241,23 L6.759,23 C5.954,23 5.289,23 4.748,22.956 C4.186,22.91 3.669,22.811 3.184,22.564 C2.431,22.181 1.819,21.569 1.436,20.816 C1.189,20.331 1.09,19.814 1.044,19.252 C1,18.711 1,18.046 1,17.241 L1,8.759 C1,7.954 1,7.289 1.044,6.748 C1.09,6.186 1.189,5.669 1.436,5.184 C1.819,4.431 2.431,3.819 3.184,3.436 C3.669,3.189 4.186,3.09 4.748,3.044 C5.289,3 5.954,3 6.759,3 L11,3 Z M20.793,3.207 C20.355,2.769 19.645,2.769 19.207,3.207 L9.644,12.77 C9.265,13.149 9.195,13.229 9.147,13.306 C9.092,13.395 9.052,13.493 9.028,13.595 C9.006,13.683 9,13.789 9,14.325 L9,15 L9.675,15 C10.211,15 10.317,14.994 10.405,14.972 C10.507,14.948 10.605,14.908 10.694,14.853 C10.771,14.805 10.851,14.735 11.23,14.356 L20.793,4.793 C21.231,4.355 21.231,3.645 20.793,3.207 Z"/>
</svg>
