<svg xmlns="http://www.w3.org/2000/svg" width="24" height="24" viewBox="0 0 24 24">
  <defs/>
  <path d="M15.793,2.793 C17.012,1.574 18.988,1.574 20.207,2.793 C21.426,4.012 21.426,5.988 20.207,7.207 L7.644,19.77 C7.625,19.79 7.605,19.809 7.586,19.829 C7.298,20.117 7.045,20.371 6.739,20.558 C6.471,20.722 6.178,20.844 5.872,20.917 C5.524,21.001 5.165,21 4.758,21 L3,21 C2.448,21 2,20.552 2,20 L2,18.326 C2,18.298 2,18.27 2,18.242 C2,17.835 1.999,17.476 2.083,17.128 C2.156,16.822 2.278,16.529 2.442,16.261 C2.629,15.955 2.883,15.702 3.171,15.415 C3.191,15.395 3.21,15.375 3.23,15.356 Z M18.793,4.207 C18.355,3.769 17.645,3.769 17.207,4.207 L4.644,16.77 C4.265,17.149 4.195,17.229 4.147,17.306 C4.093,17.395 4.052,17.493 4.028,17.595 C4.006,17.683 4,17.789 4,18.326 L4,19 L4.675,19 C5.211,19 5.317,18.994 5.405,18.972 C5.507,18.948 5.605,18.907 5.694,18.853 C5.772,18.805 5.851,18.735 6.23,18.356 L18.793,5.793 C19.231,5.355 19.231,4.645 18.793,4.207 Z M11,20 C11,19.448 11.448,19 12,19 L21,19 C21.552,19 22,19.448 22,20 C22,20.552 21.552,21 21,21 L12,21 C11.448,21 11,20.552 11,20 Z"/>
</svg>
