<svg xmlns="http://www.w3.org/2000/svg" width="24" height="24" viewBox="0 0 24 24">
  <defs/>
  <path d="M16.293,2.293 C17.788,0.798 20.212,0.798 21.707,2.293 C23.202,3.788 23.202,6.212 21.707,7.707 L18.71,10.705 C18.709,10.705 18.708,10.706 18.707,10.707 C18.706,10.708 18.705,10.709 18.705,10.71 L8.501,20.913 C8.484,20.93 8.467,20.947 8.451,20.963 C8.206,21.209 7.99,21.425 7.733,21.594 C7.508,21.743 7.263,21.861 7.006,21.944 C6.713,22.039 6.409,22.072 6.065,22.11 C6.042,22.113 6.018,22.115 5.995,22.118 L2.61,22.494 C2.308,22.527 2.008,22.422 1.793,22.207 C1.578,21.992 1.473,21.691 1.506,21.39 L1.882,18.005 C1.885,17.982 1.887,17.958 1.89,17.935 C1.928,17.591 1.961,17.287 2.056,16.994 C2.139,16.737 2.257,16.492 2.406,16.267 C2.575,16.01 2.791,15.794 3.037,15.549 C3.053,15.533 3.07,15.516 3.087,15.499 Z M14,7.414 L4.501,16.913 C4.178,17.236 4.118,17.302 4.075,17.368 C4.026,17.443 3.987,17.524 3.959,17.61 C3.935,17.684 3.92,17.773 3.87,18.226 L3.632,20.368 L5.774,20.13 C6.227,20.08 6.316,20.065 6.39,20.041 C6.476,20.013 6.557,19.974 6.632,19.924 C6.698,19.882 6.764,19.822 7.087,19.499 L16.586,10 Z M18,8.586 L20.293,6.293 C21.007,5.579 21.007,4.421 20.293,3.707 C19.579,2.993 18.421,2.993 17.707,3.707 L15.414,6 Z"/>
</svg>
