<svg xmlns="http://www.w3.org/2000/svg" width="24" height="24" viewBox="0 0 24 24">
  <defs/>
  <path d="M19.707,4.293 C20.098,4.683 20.098,5.317 19.707,5.707 L17.414,8 L19,8 C19.552,8 20,8.448 20,9 C20,9.552 19.552,10 19,10 L15.414,10 L11.414,14 L19,14 C19.552,14 20,14.448 20,15 C20,15.552 19.552,16 19,16 L9.414,16 L5.707,19.707 C5.317,20.098 4.683,20.098 4.293,19.707 C3.902,19.317 3.902,18.683 4.293,18.293 L6.586,16 L5,16 C4.448,16 4,15.552 4,15 C4,14.448 4.448,14 5,14 L8.586,14 L12.586,10 L5,10 C4.448,10 4,9.552 4,9 C4,8.448 4.448,8 5,8 L14.586,8 L18.293,4.293 C18.683,3.902 19.317,3.902 19.707,4.293 Z"/>
</svg>
