<svg xmlns="http://www.w3.org/2000/svg" width="24" height="24" viewBox="0 0 24 24">
  <defs/>
  <path d="M20.342,12.072 L12.414,20 L21,20 C21.552,20 22,20.448 22,21 C22,21.552 21.552,22 21,22 L8.918,22 C8.879,22 8.839,22 8.798,22 L8.757,22 C8.73,22 8.702,22 8.674,22 L7.325,22 C7.297,22 7.269,22 7.242,22 C6.835,22 6.476,22.001 6.128,21.917 C5.822,21.844 5.529,21.722 5.26,21.558 C4.955,21.371 4.702,21.117 4.414,20.829 C4.395,20.809 4.375,20.79 4.355,20.77 L3.657,20.072 C3.088,19.503 2.618,19.033 2.267,18.619 C1.902,18.189 1.606,17.754 1.438,17.236 C1.177,16.433 1.177,15.567 1.438,14.764 C1.606,14.246 1.902,13.811 2.267,13.381 C2.618,12.967 3.088,12.497 3.657,11.928 L10.292,5.293 L10.293,5.293 L11.928,3.658 C12.497,3.089 12.967,2.619 13.38,2.267 C13.81,1.902 14.245,1.607 14.764,1.438 C15.567,1.177 16.432,1.177 17.236,1.438 C17.754,1.607 18.189,1.902 18.619,2.267 C19.033,2.619 19.502,3.089 20.072,3.658 L20.342,3.928 C20.911,4.497 21.381,4.967 21.732,5.381 C22.097,5.811 22.393,6.246 22.561,6.764 C22.822,7.567 22.822,8.433 22.561,9.236 C22.393,9.754 22.097,10.189 21.732,10.619 C21.381,11.033 20.911,11.503 20.342,12.072 Z M16.585,13 L11,7.414 L5.101,13.313 C4.495,13.919 4.084,14.331 3.792,14.675 C3.507,15.011 3.394,15.215 3.34,15.382 C3.21,15.784 3.21,16.216 3.34,16.618 C3.394,16.785 3.507,16.99 3.792,17.325 C4.084,17.669 4.495,18.081 5.101,18.687 L5.769,19.356 C6.149,19.735 6.228,19.805 6.305,19.853 C6.395,19.907 6.492,19.948 6.595,19.972 C6.683,19.994 6.788,20 7.325,20 L8.674,20 C9.211,20 9.316,19.994 9.405,19.972 C9.507,19.948 9.604,19.907 9.694,19.853 C9.771,19.805 9.85,19.735 10.23,19.356 Z M16.618,3.341 C16.216,3.21 15.783,3.21 15.382,3.341 C15.215,3.395 15.01,3.507 14.675,3.792 C14.33,4.084 13.918,4.496 13.312,5.101 L12.414,6 L18,11.586 L18.898,10.687 C19.504,10.081 19.915,9.669 20.208,9.325 C20.492,8.989 20.605,8.785 20.659,8.618 C20.789,8.216 20.789,7.784 20.659,7.382 C20.605,7.215 20.492,7.011 20.208,6.675 C19.915,6.331 19.504,5.919 18.898,5.313 L18.687,5.101 C18.081,4.496 17.669,4.084 17.324,3.792 C16.989,3.507 16.785,3.395 16.618,3.341 Z"/>
</svg>
