<svg xmlns="http://www.w3.org/2000/svg" width="24" height="24" viewBox="0 0 24 24">
  <defs/>
  <path d="M15,4 C14.448,4 14,3.552 14,3 C14,2.448 14.448,2 15,2 L21,2 C21.552,2 22,2.448 22,3 L22,9 C22,9.552 21.552,10 21,10 C20.448,10 20,9.552 20,9 L20,5.414 L15.707,9.707 C15.317,10.098 14.683,10.098 14.293,9.707 C13.902,9.317 13.902,8.683 14.293,8.293 L18.586,4 Z M3,14 C3.552,14 4,14.448 4,15 L4,18.586 L8.293,14.293 C8.683,13.902 9.317,13.902 9.707,14.293 C10.098,14.683 10.098,15.317 9.707,15.707 L5.414,20 L9,20 C9.552,20 10,20.448 10,21 C10,21.552 9.552,22 9,22 L3,22 C2.735,22 2.48,21.895 2.293,21.707 C2.105,21.52 2,21.265 2,21 L2,15 C2,14.448 2.448,14 3,14 Z M7.161,3 L10,3 C10.552,3 11,3.448 11,4 C11,4.552 10.552,5 10,5 L7.2,5 C6.623,5 6.251,5.001 5.968,5.024 C5.696,5.046 5.595,5.084 5.546,5.109 C5.358,5.205 5.205,5.358 5.109,5.546 C5.084,5.595 5.046,5.696 5.024,5.968 C5.001,6.251 5,6.623 5,7.2 L5,10 C5,10.552 4.552,11 4,11 C3.448,11 3,10.552 3,10 L3,7.161 C3,6.634 3,6.18 3.031,5.805 C3.063,5.41 3.134,5.016 3.327,4.638 C3.615,4.074 4.074,3.615 4.638,3.327 C5.016,3.134 5.41,3.063 5.805,3.031 C6.18,3 6.634,3 7.161,3 Z M20,13 C20.552,13 21,13.448 21,14 L21,16.839 C21,17.366 21,17.82 20.969,18.195 C20.937,18.59 20.866,18.984 20.673,19.362 C20.385,19.927 19.927,20.385 19.362,20.673 C18.984,20.866 18.59,20.937 18.195,20.969 C17.82,21 17.366,21 16.839,21 L14,21 C13.448,21 13,20.552 13,20 C13,19.448 13.448,19 14,19 L16.8,19 C17.377,19 17.749,18.999 18.032,18.976 C18.304,18.954 18.404,18.916 18.454,18.891 C18.642,18.795 18.795,18.642 18.891,18.454 C18.916,18.404 18.954,18.304 18.976,18.032 C18.999,17.749 19,17.377 19,16.8 L19,14 C19,13.448 19.448,13 20,13 Z"/>
</svg>
