<svg xmlns="http://www.w3.org/2000/svg" width="24" height="24" viewBox="0 0 24 24">
  <defs/>
  <path d="M4,5.414 L4,8 C4,8.552 3.552,9 3,9 C2.448,9 2,8.552 2,8 L2,3 C2,2.448 2.448,2 3,2 L8,2 C8.552,2 9,2.448 9,3 C9,3.552 8.552,4 8,4 L5.414,4 L8.707,7.293 C9.098,7.683 9.098,8.317 8.707,8.707 C8.317,9.098 7.683,9.098 7.293,8.707 Z M16,4 C15.448,4 15,3.552 15,3 C15,2.448 15.448,2 16,2 L21,2 C21.552,2 22,2.448 22,3 L22,8 C22,8.552 21.552,9 21,9 C20.448,9 20,8.552 20,8 L20,5.414 L16.707,8.707 C16.317,9.098 15.683,9.098 15.293,8.707 C14.902,8.317 14.902,7.683 15.293,7.293 L18.586,4 Z M18.586,20 L15.293,16.707 C14.902,16.317 14.902,15.683 15.293,15.293 C15.683,14.902 16.317,14.902 16.707,15.293 L20,18.586 L20,16 C20,15.448 20.448,15 21,15 C21.552,15 22,15.448 22,16 L22,21 C22,21.552 21.552,22 21,22 L16,22 C15.448,22 15,21.552 15,21 C15,20.448 15.448,20 16,20 Z M3,15 C3.552,15 4,15.448 4,16 L4,18.586 L7.293,15.293 C7.683,14.902 8.317,14.902 8.707,15.293 C9.098,15.683 9.098,16.317 8.707,16.707 L5.414,20 L8,20 C8.552,20 9,20.448 9,21 C9,21.552 8.552,22 8,22 L3,22 C2.735,22 2.48,21.895 2.293,21.707 C2.105,21.52 2,21.265 2,21 L2,16 C2,15.448 2.448,15 3,15 Z"/>
</svg>
