<svg xmlns="http://www.w3.org/2000/svg" width="24" height="24" viewBox="0 0 24 24">
  <defs/>
  <path d="M4,5.414 L4,9 C4,9.552 3.552,10 3,10 C2.448,10 2,9.552 2,9 L2,3 C2,2.448 2.448,2 3,2 L9,2 C9.552,2 10,2.448 10,3 C10,3.552 9.552,4 9,4 L5.414,4 L9.707,8.293 C10.098,8.683 10.098,9.317 9.707,9.707 C9.317,10.098 8.683,10.098 8.293,9.707 Z M15,4 C14.448,4 14,3.552 14,3 C14,2.448 14.448,2 15,2 L21,2 C21.552,2 22,2.448 22,3 L22,9 C22,9.552 21.552,10 21,10 C20.448,10 20,9.552 20,9 L20,5.414 L15.707,9.707 C15.317,10.098 14.683,10.098 14.293,9.707 C13.902,9.317 13.902,8.683 14.293,8.293 L18.586,4 Z M18.586,20 L14.293,15.707 C13.902,15.317 13.902,14.683 14.293,14.293 C14.683,13.902 15.317,13.902 15.707,14.293 L20,18.586 L20,15 C20,14.448 20.448,14 21,14 C21.552,14 22,14.448 22,15 L22,21 C22,21.552 21.552,22 21,22 L15,22 C14.448,22 14,21.552 14,21 C14,20.448 14.448,20 15,20 Z M3,14 C3.552,14 4,14.448 4,15 L4,18.586 L8.293,14.293 C8.683,13.902 9.317,13.902 9.707,14.293 C10.098,14.683 10.098,15.317 9.707,15.707 L5.414,20 L9,20 C9.552,20 10,20.448 10,21 C10,21.552 9.552,22 9,22 L3,22 C2.735,22 2.48,21.895 2.293,21.707 C2.105,21.52 2,21.265 2,21 L2,15 C2,14.448 2.448,14 3,14 Z"/>
</svg>
