<svg xmlns="http://www.w3.org/2000/svg" width="24" height="24" viewBox="0 0 24 24">
  <defs/>
  <path d="M15,4 C14.448,4 14,3.552 14,3 C14,2.448 14.448,2 15,2 L21,2 C21.552,2 22,2.448 22,3 L22,9 C22,9.552 21.552,10 21,10 C20.448,10 20,9.552 20,9 L20,5.414 L15.707,9.707 C15.317,10.098 14.683,10.098 14.293,9.707 C13.902,9.317 13.902,8.683 14.293,8.293 L18.586,4 Z M3,14 C3.552,14 4,14.448 4,15 L4,18.586 L8.293,14.293 C8.683,13.902 9.317,13.902 9.707,14.293 C10.098,14.683 10.098,15.317 9.707,15.707 L5.414,20 L9,20 C9.552,20 10,20.448 10,21 C10,21.552 9.552,22 9,22 L3,22 C2.735,22 2.48,21.895 2.293,21.707 C2.105,21.52 2,21.265 2,21 L2,15 C2,14.448 2.448,14 3,14 Z M10,2 C10.552,2 11,2.448 11,3 C11,3.552 10.552,4 10,4 L7.8,4 C6.943,4 6.361,4.001 5.911,4.038 C5.473,4.073 5.248,4.138 5.092,4.218 C4.716,4.41 4.41,4.716 4.218,5.092 C4.138,5.248 4.073,5.473 4.038,5.911 C4.001,6.361 4,6.943 4,7.8 L4,10 C4,10.552 3.552,11 3,11 C2.448,11 2,10.552 2,10 L2,7.759 C2,6.954 2,6.289 2.044,5.748 C2.09,5.186 2.189,4.669 2.436,4.184 C2.819,3.431 3.431,2.819 4.184,2.436 C4.669,2.189 5.186,2.09 5.748,2.044 C6.289,2 6.954,2 7.759,2 L10,2 Z M21,13 C21.552,13 22,13.448 22,14 L22,16.241 C22,17.046 22,17.711 21.956,18.252 C21.91,18.814 21.811,19.331 21.564,19.816 C21.181,20.569 20.569,21.181 19.816,21.564 C19.331,21.811 18.814,21.91 18.252,21.956 C17.711,22 17.046,22 16.241,22 L14,22 C13.448,22 13,21.552 13,21 C13,20.448 13.448,20 14,20 L16.2,20 C17.057,20 17.639,19.999 18.089,19.962 C18.527,19.927 18.752,19.862 18.908,19.782 C19.284,19.59 19.59,19.284 19.782,18.908 C19.862,18.752 19.927,18.527 19.962,18.089 C19.999,17.639 20,17.057 20,16.2 L20,14 C20,13.448 20.448,13 21,13 Z"/>
</svg>
