<svg xmlns="http://www.w3.org/2000/svg" width="24" height="24" viewBox="0 0 24 24">
  <defs/>
  <path d="M2.293,2.293 C2.684,1.902 3.317,1.902 3.708,2.293 L7.346,5.932 C7.405,5.978 7.458,6.031 7.506,6.092 L17.897,16.483 C17.965,16.535 18.027,16.596 18.081,16.667 L21.708,20.293 C22.098,20.683 22.098,21.317 21.708,21.707 C21.317,22.098 20.684,22.098 20.293,21.707 L17.14,18.553 C15.695,19.399 13.972,20 12,20 C9.139,20 6.806,18.735 5.077,17.293 C3.351,15.852 2.167,14.186 1.575,13.247 C1.567,13.235 1.559,13.222 1.551,13.209 C1.433,13.024 1.28,12.784 1.203,12.447 C1.141,12.175 1.141,11.825 1.203,11.553 C1.28,11.216 1.433,10.975 1.551,10.79 C1.56,10.776 1.568,10.764 1.576,10.751 C2.178,9.798 3.401,8.075 5.196,6.61 L2.293,3.707 C1.903,3.317 1.903,2.683 2.293,2.293 Z M6.618,8.032 C4.979,9.326 3.834,10.921 3.267,11.819 C3.231,11.875 3.206,11.915 3.185,11.949 C3.171,11.972 3.162,11.988 3.156,11.999 L3.156,12.001 C3.162,12.012 3.171,12.028 3.185,12.05 C3.206,12.084 3.23,12.123 3.266,12.179 C3.798,13.023 4.852,14.5 6.359,15.757 C7.863,17.012 9.757,18 12,18 C13.353,18 14.578,17.641 15.667,17.081 L14.032,15.446 C13.437,15.798 12.742,16 12,16 C9.791,16 8,14.209 8,12 C8,11.259 8.203,10.564 8.554,9.968 Z M12,6 C11.619,6 11.248,6.028 10.889,6.082 C10.343,6.162 9.834,5.785 9.754,5.239 C9.673,4.692 10.05,4.184 10.597,4.103 C11.05,4.036 11.519,4 12,4 C14.862,4 17.195,5.265 18.924,6.707 C20.65,8.148 21.833,9.814 22.426,10.753 C22.434,10.765 22.442,10.778 22.45,10.791 C22.568,10.976 22.721,11.216 22.798,11.553 C22.86,11.825 22.86,12.175 22.798,12.447 C22.721,12.784 22.567,13.025 22.449,13.211 C22.441,13.224 22.433,13.237 22.425,13.25 C22.106,13.754 21.623,14.458 20.983,15.222 C20.629,15.646 19.998,15.702 19.574,15.347 C19.151,14.993 19.095,14.362 19.45,13.939 C20.021,13.256 20.452,12.627 20.734,12.181 C20.769,12.125 20.794,12.085 20.815,12.051 C20.829,12.028 20.838,12.012 20.845,12.001 L20.845,11.999 C20.839,11.988 20.83,11.972 20.816,11.95 C20.795,11.916 20.771,11.877 20.735,11.821 C20.202,10.977 19.148,9.5 17.642,8.243 C16.138,6.988 14.244,6 12,6 Z M10.068,11.482 C10.024,11.647 10,11.821 10,12 C10,13.105 10.896,14 12,14 C12.18,14 12.353,13.976 12.519,13.932 Z"/>
</svg>
