<svg xmlns="http://www.w3.org/2000/svg" width="24" height="24" viewBox="0 0 24 24">
  <defs/>
  <path d="M5.077,6.707 C6.806,5.265 9.139,4 12,4 C14.862,4 17.195,5.265 18.924,6.707 C20.65,8.148 21.833,9.814 22.426,10.753 C22.434,10.765 22.442,10.778 22.45,10.791 C22.568,10.976 22.721,11.216 22.798,11.553 C22.86,11.825 22.86,12.175 22.798,12.447 C22.721,12.784 22.568,13.024 22.45,13.209 C22.442,13.222 22.434,13.235 22.426,13.247 C21.833,14.186 20.65,15.852 18.924,17.293 C17.195,18.735 14.862,20 12,20 C9.139,20 6.806,18.735 5.077,17.293 C3.351,15.852 2.167,14.186 1.575,13.247 C1.567,13.235 1.559,13.222 1.551,13.209 C1.433,13.024 1.28,12.784 1.203,12.447 C1.141,12.175 1.141,11.825 1.203,11.553 C1.28,11.216 1.433,10.976 1.551,10.791 C1.559,10.778 1.567,10.765 1.575,10.753 C2.167,9.814 3.351,8.148 5.077,6.707 Z M6.359,8.243 C4.852,9.5 3.798,10.977 3.266,11.821 C3.23,11.877 3.206,11.916 3.185,11.95 C3.171,11.972 3.162,11.988 3.156,11.999 L3.156,12.001 C3.162,12.012 3.171,12.028 3.185,12.05 C3.206,12.084 3.23,12.123 3.266,12.179 C3.798,13.023 4.852,14.5 6.359,15.757 C7.863,17.012 9.757,18 12,18 C14.244,18 16.138,17.012 17.642,15.757 C19.148,14.5 20.202,13.023 20.735,12.179 C20.771,12.123 20.795,12.084 20.816,12.05 C20.83,12.028 20.838,12.012 20.845,12.001 L20.845,11.999 C20.838,11.988 20.83,11.972 20.816,11.95 C20.795,11.916 20.771,11.877 20.735,11.821 C20.202,10.977 19.148,9.5 17.642,8.243 C16.138,6.988 14.244,6 12,6 C9.757,6 7.863,6.988 6.359,8.243 Z M8,12 C8,9.791 9.791,8 12,8 C14.21,8 16,9.791 16,12 C16,14.209 14.21,16 12,16 C9.791,16 8,14.209 8,12 Z M12,10 C10.896,10 10,10.895 10,12 C10,13.105 10.896,14 12,14 C13.105,14 14,13.105 14,12 C14,10.895 13.105,10 12,10 Z"/>
</svg>
