<svg xmlns="http://www.w3.org/2000/svg" width="24" height="24" viewBox="0 0 24 24">
  <defs/>
  <path d="M1,12 C1,5.925 5.925,1 12,1 C18.075,1 23,5.925 23,12 C23,18.075 18.075,23 12,23 C5.925,23 1,18.075 1,12 Z M12,3 C7.029,3 3,7.029 3,12 C3,16.971 7.029,21 12,21 C16.971,21 21,16.971 21,12 C21,7.029 16.971,3 12,3 Z M7,9 C7,8.448 7.448,8 8,8 L10,8 C10.552,8 11,8.448 11,9 C11,9.552 10.552,10 10,10 L8,10 C7.448,10 7,9.552 7,9 Z M13.5,9 C13.5,8.172 14.172,7.5 15,7.5 C15.828,7.5 16.5,8.172 16.5,9 C16.5,9.828 15.828,10.5 15,10.5 C14.172,10.5 13.5,9.828 13.5,9 Z"/>
</svg>
