<svg xmlns="http://www.w3.org/2000/svg" width="24" height="24" viewBox="0 0 24 24">
  <defs/>
  <path d="M1,12 C1,5.925 5.925,1 12,1 C18.075,1 23,5.925 23,12 C23,18.075 18.075,23 12,23 C5.925,23 1,18.075 1,12 Z M12,3 C7.029,3 3,7.029 3,12 C3,16.971 7.029,21 12,21 C16.971,21 21,16.971 21,12 C21,7.029 16.971,3 12,3 Z M17.632,8.465 C18.06,8.813 18.124,9.443 17.775,9.871 C17.215,10.559 16.403,11 15.5,11 C14.587,11 13.799,10.551 13.236,9.886 C12.88,9.464 12.933,8.833 13.354,8.476 C13.776,8.12 14.407,8.173 14.764,8.594 C15.021,8.899 15.283,9 15.5,9 C15.727,9 15.995,8.891 16.225,8.608 C16.573,8.18 17.203,8.116 17.632,8.465 Z M10.632,8.465 C11.06,8.813 11.124,9.443 10.775,9.871 C10.215,10.559 9.403,11 8.5,11 C7.587,11 6.799,10.551 6.236,9.886 C5.88,9.464 5.933,8.833 6.354,8.476 C6.776,8.12 7.407,8.173 7.764,8.594 C8.021,8.899 8.283,9 8.5,9 C8.727,9 8.995,8.891 9.225,8.608 C9.573,8.18 10.203,8.116 10.632,8.465 Z"/>
</svg>
