<svg width="24" height="24" viewBox="0 0 24 24" fill="none" xmlns="http://www.w3.org/2000/svg">
<path d="M12 3C7.02944 3 3 7.02944 3 12C3 16.9706 7.02944 21 12 21C16.9706 21 21 16.9706 21 12C21 7.02944 16.9706 3 12 3ZM1 12C1 5.92487 5.92487 1 12 1C18.0751 1 23 5.92487 23 12C23 18.0751 18.0751 23 12 23C5.92487 23 1 18.0751 1 12ZM7.5 9C7.5 8.17157 8.17157 7.5 9 7.5C9.82843 7.5 10.5 8.17157 10.5 9C10.5 9.82843 9.82843 10.5 9 10.5C8.17157 10.5 7.5 9.82843 7.5 9ZM13.5 9C13.5 8.17157 14.1716 7.5 15 7.5C15.8284 7.5 16.5 8.17157 16.5 9C16.5 9.82843 15.8284 10.5 15 10.5C14.1716 10.5 13.5 9.82843 13.5 9Z" fill="black"/>
<path d="M8.79686 13.3958C8.46468 12.9576 7.84044 12.8697 7.4 13.2C6.95817 13.5314 6.86863 14.1582 7.2 14.6L7.20101 14.6013L7.20217 14.6029L7.20491 14.6065L7.21211 14.6159L7.23341 14.6432C7.25065 14.6649 7.27401 14.6938 7.30336 14.7288C7.36201 14.7987 7.445 14.8933 7.55145 15.0044C7.76353 15.2257 8.07343 15.5172 8.47433 15.8087C9.27227 16.3891 10.4745 17 12 17C13.5255 17 14.7277 16.3891 15.5257 15.8087C15.9266 15.5172 16.2365 15.2257 16.4486 15.0044C16.555 14.8933 16.638 14.7987 16.6966 14.7288C16.726 14.6938 16.7494 14.6649 16.7666 14.6432L16.7879 14.6159L16.7951 14.6065L16.7978 14.6029L16.799 14.6013L16.8 14.6C17.1314 14.1582 17.0418 13.5314 16.6 13.2C16.1596 12.8697 15.5353 12.9576 15.2031 13.3958L15.1985 13.4018C15.1925 13.4093 15.1812 13.4234 15.1647 13.4431C15.1315 13.4826 15.0778 13.5442 15.0046 13.6206C14.8573 13.7743 14.6359 13.9828 14.3493 14.1913C13.7723 14.6109 12.9745 15 12 15C11.0255 15 10.2277 14.6109 9.65067 14.1913C9.36407 13.9828 9.14273 13.7743 8.99543 13.6206C8.92219 13.5442 8.86846 13.4826 8.83531 13.4431C8.81877 13.4234 8.80746 13.4093 8.8015 13.4018L8.79686 13.3958Z" fill="black"/>
</svg>
