<svg xmlns="http://www.w3.org/2000/svg" width="24" height="24" viewBox="0 0 24 24">
  <defs/>
  <path d="M8,2 C8.552,2 9,2.448 9,3 C9,3.552 8.552,4 8,4 L7.8,4 C6.943,4 6.361,4.001 5.911,4.038 C5.473,4.073 5.248,4.138 5.092,4.218 C4.716,4.41 4.41,4.716 4.218,5.092 C4.138,5.248 4.073,5.473 4.038,5.911 C4.001,6.361 4,6.943 4,7.8 L4,8 C4,8.552 3.552,9 3,9 C2.448,9 2,8.552 2,8 L2,7.759 C2,6.954 2,6.289 2.044,5.748 C2.09,5.186 2.189,4.669 2.436,4.184 C2.819,3.431 3.431,2.819 4.184,2.436 C4.669,2.189 5.186,2.09 5.748,2.044 C6.289,2 6.954,2 7.759,2 L8,2 Z M3,15 C3.552,15 4,15.448 4,16 L4,16.2 C4,17.057 4.001,17.639 4.038,18.089 C4.073,18.527 4.138,18.752 4.218,18.908 C4.41,19.284 4.716,19.59 5.092,19.782 C5.248,19.862 5.473,19.927 5.911,19.962 C6.361,19.999 6.943,20 7.8,20 L8,20 C8.552,20 9,20.448 9,21 C9,21.552 8.552,22 8,22 L7.759,22 C6.954,22 6.289,22 5.748,21.956 C5.186,21.91 4.669,21.811 4.184,21.564 C3.431,21.181 2.819,20.569 2.436,19.816 C2.189,19.331 2.09,18.814 2.044,18.252 C2,17.711 2,17.046 2,16.241 L2,16 C2,15.448 2.448,15 3,15 Z M18.089,4.038 C17.639,4.001 17.057,4 16.2,4 L16,4 C15.448,4 15,3.552 15,3 C15,2.448 15.448,2 16,2 L16.241,2 C17.046,2 17.711,2 18.252,2.044 C18.814,2.09 19.331,2.189 19.816,2.436 C20.569,2.819 21.181,3.431 21.564,4.184 C21.811,4.669 21.91,5.186 21.956,5.748 C22,6.289 22,6.954 22,7.759 L22,8 C22,8.552 21.552,9 21,9 C20.448,9 20,8.552 20,8 L20,7.8 C20,6.943 19.999,6.361 19.962,5.911 C19.927,5.473 19.862,5.248 19.782,5.092 C19.59,4.716 19.284,4.41 18.908,4.218 C18.752,4.138 18.527,4.073 18.089,4.038 Z M21,15 C21.552,15 22,15.448 22,16 L22,16.241 C22,17.046 22,17.711 21.956,18.252 C21.91,18.814 21.811,19.331 21.564,19.816 C21.181,20.569 20.569,21.181 19.816,21.564 C19.331,21.811 18.814,21.91 18.252,21.956 C17.711,22 17.046,22 16.241,22 L16,22 C15.448,22 15,21.552 15,21 C15,20.448 15.448,20 16,20 L16.2,20 C17.057,20 17.639,19.999 18.089,19.962 C18.527,19.927 18.752,19.862 18.908,19.782 C19.284,19.59 19.59,19.284 19.782,18.908 C19.862,18.752 19.927,18.527 19.962,18.089 C19.999,17.639 20,17.057 20,16.2 L20,16 C20,15.448 20.448,15 21,15 Z M7.993,14.493 C8.384,14.102 9.017,14.102 9.407,14.493 C10.817,15.902 13.084,15.902 14.493,14.493 C14.884,14.102 15.517,14.102 15.907,14.493 C16.298,14.883 16.298,15.517 15.907,15.907 C13.717,18.098 10.184,18.098 7.993,15.907 C7.603,15.517 7.603,14.883 7.993,14.493 Z M12.5,7 C13.052,7 13.5,7.448 13.5,8 L13.5,11.1 C13.5,12.452 12.352,13.6 11,13.6 C10.448,13.6 10,13.152 10,12.6 C10,12.048 10.448,11.6 11,11.6 C11.248,11.6 11.5,11.348 11.5,11.1 L11.5,8 C11.5,7.448 11.948,7 12.5,7 Z M16.5,7 C17.052,7 17.5,7.448 17.5,8 L17.5,9.5 C17.5,10.052 17.052,10.5 16.5,10.5 C15.948,10.5 15.5,10.052 15.5,9.5 L15.5,8 C15.5,7.448 15.948,7 16.5,7 Z M7.5,7 C8.052,7 8.5,7.448 8.5,8 L8.5,9.5 C8.5,10.052 8.052,10.5 7.5,10.5 C6.948,10.5 6.5,10.052 6.5,9.5 L6.5,8 C6.5,7.448 6.948,7 7.5,7 Z"/>
</svg>
