<svg xmlns="http://www.w3.org/2000/svg" width="24" height="24" viewBox="0 0 24 24">
  <defs/>
  <path d="M1,12 C1,5.925 5.925,1 12,1 C18.075,1 23,5.925 23,12 C23,18.075 18.075,23 12,23 C5.925,23 1,18.075 1,12 Z M12,3 C7.029,3 3,7.029 3,12 C3,16.971 7.029,21 12,21 C16.971,21 21,16.971 21,12 C21,7.029 16.971,3 12,3 Z M8.474,14.191 C9.272,13.611 10.474,13 12,13 C13.526,13 14.728,13.611 15.526,14.191 C15.927,14.483 16.236,14.774 16.449,14.996 C16.555,15.107 16.638,15.201 16.697,15.271 C16.726,15.306 16.749,15.335 16.767,15.357 L16.788,15.384 L16.795,15.394 L16.798,15.397 L16.799,15.399 C16.799,15.399 16.8,15.4 16.001,15.999 L16.8,15.4 C17.131,15.842 17.042,16.469 16.6,16.8 C16.16,17.13 15.535,17.042 15.203,16.604 L15.198,16.598 C15.193,16.591 15.181,16.577 15.165,16.557 C15.132,16.517 15.078,16.456 15.005,16.379 C14.857,16.226 14.636,16.017 14.349,15.809 C13.772,15.389 12.974,15 12,15 C11.026,15 10.228,15.389 9.651,15.809 C9.364,16.017 9.143,16.226 8.995,16.379 C8.922,16.456 8.868,16.517 8.835,16.557 C8.819,16.577 8.807,16.591 8.802,16.598 L8.799,16.601 L8.798,16.602 L8.797,16.604 C8.465,17.042 7.84,17.13 7.4,16.8 C6.958,16.469 6.869,15.842 7.2,15.4 L7.202,15.397 L7.205,15.394 L7.212,15.384 L7.233,15.357 C7.251,15.335 7.274,15.306 7.303,15.271 C7.362,15.201 7.445,15.107 7.551,14.996 C7.764,14.774 8.073,14.483 8.474,14.191 Z M17.632,8.465 C18.06,8.813 18.124,9.443 17.775,9.871 C17.215,10.559 16.403,11 15.5,11 C14.587,11 13.799,10.551 13.236,9.886 C12.88,9.464 12.933,8.833 13.354,8.476 C13.776,8.12 14.407,8.173 14.764,8.594 C15.021,8.899 15.283,9 15.5,9 C15.727,9 15.995,8.891 16.225,8.608 C16.573,8.18 17.203,8.116 17.632,8.465 Z M10.632,8.465 C11.06,8.813 11.124,9.443 10.775,9.871 C10.215,10.559 9.403,11 8.5,11 C7.587,11 6.799,10.551 6.236,9.886 C5.88,9.464 5.933,8.833 6.354,8.476 C6.776,8.12 7.407,8.173 7.764,8.594 C8.021,8.899 8.283,9 8.5,9 C8.727,9 8.995,8.891 9.225,8.608 C9.573,8.18 10.203,8.116 10.632,8.465 Z M8,16 L7.2,15.4 C7.2,15.4 7.206,15.405 8,16 Z"/>
</svg>
