<svg xmlns="http://www.w3.org/2000/svg" width="24" height="24" viewBox="0 0 24 24">
  <defs/>
  <path d="M1,12 C1,5.925 5.925,1 12,1 C18.075,1 23,5.925 23,12 C23,18.075 18.075,23 12,23 C5.925,23 1,18.075 1,12 Z M12,3 C7.029,3 3,7.029 3,12 C3,16.971 7.029,21 12,21 C16.971,21 21,16.971 21,12 C21,7.029 16.971,3 12,3 Z M6.5,14 C6.5,13.448 6.948,13 7.5,13 L16.5,13 C17.052,13 17.5,13.448 17.5,14 C17.5,15.224 16.784,16.358 15.822,17.148 C14.84,17.954 13.493,18.5 12,18.5 C10.507,18.5 9.16,17.954 8.178,17.148 C7.216,16.358 6.5,15.224 6.5,14 Z M7.5,9 C7.5,8.172 8.172,7.5 9,7.5 C9.828,7.5 10.5,8.172 10.5,9 C10.5,9.828 9.828,10.5 9,10.5 C8.172,10.5 7.5,9.828 7.5,9 Z M13.5,9 C13.5,8.172 14.172,7.5 15,7.5 C15.828,7.5 16.5,8.172 16.5,9 C16.5,9.828 15.828,10.5 15,10.5 C14.172,10.5 13.5,9.828 13.5,9 Z M8.875,15 C9.02,15.202 9.209,15.407 9.447,15.602 C10.089,16.129 10.993,16.5 12,16.5 C13.007,16.5 13.911,16.129 14.553,15.602 C14.791,15.407 14.98,15.202 15.125,15 Z"/>
</svg>
