<svg xmlns="http://www.w3.org/2000/svg" width="24" height="24" viewBox="0 0 24 24">
  <defs/>
  <path d="M9.925,4.228 C10.548,4.205 11.146,4.474 11.543,4.955 C11.862,5.342 11.936,5.819 11.967,6.167 C12,6.53 12,6.991 12,7.518 L12,16.482 C12,17.008 12,17.47 11.967,17.833 C11.936,18.181 11.862,18.658 11.543,19.045 C11.146,19.526 10.548,19.795 9.925,19.772 C9.423,19.753 9.018,19.491 8.737,19.283 C8.444,19.067 8.099,18.76 7.706,18.41 L2.655,13.92 C2.445,13.733 2.242,13.554 2.085,13.388 C1.915,13.209 1.728,12.976 1.618,12.663 C1.467,12.234 1.467,11.766 1.618,11.337 C1.728,11.024 1.915,10.791 2.085,10.612 C2.242,10.446 2.445,10.267 2.655,10.08 C2.664,10.072 2.672,10.064 2.681,10.057 L7.706,5.59 C8.099,5.24 8.444,4.933 8.737,4.717 C9.018,4.509 9.423,4.247 9.925,4.228 Z M20.925,4.228 C21.548,4.205 22.146,4.474 22.543,4.955 C22.862,5.342 22.936,5.819 22.967,6.167 C23,6.53 23,6.991 23,7.518 L23,16.482 C23,17.008 23,17.47 22.967,17.833 C22.936,18.181 22.862,18.658 22.543,19.045 C22.146,19.526 21.548,19.795 20.925,19.772 C20.424,19.753 20.018,19.491 19.737,19.283 C19.444,19.067 19.099,18.76 18.706,18.41 L13.655,13.92 C13.444,13.733 13.242,13.554 13.085,13.388 C12.915,13.209 12.728,12.976 12.618,12.663 C12.467,12.234 12.467,11.766 12.618,11.337 C12.728,11.024 12.915,10.791 13.085,10.612 C13.242,10.446 13.445,10.267 13.655,10.08 L18.706,5.59 C19.099,5.24 19.444,4.933 19.737,4.717 C20.018,4.509 20.424,4.247 20.925,4.228 Z M20.926,6.325 C20.715,6.481 20.438,6.726 20.001,7.114 L15.009,11.552 C14.764,11.77 14.627,11.892 14.536,11.988 C14.532,11.992 14.529,11.996 14.525,12 C14.529,12.004 14.532,12.008 14.536,12.012 C14.627,12.108 14.764,12.23 15.009,12.448 L20.001,16.885 C20.438,17.274 20.715,17.519 20.926,17.675 C20.942,17.687 20.956,17.697 20.97,17.707 C20.972,17.69 20.973,17.673 20.975,17.653 C20.999,17.392 21,17.022 21,16.437 L21,7.563 C21,6.978 20.999,6.608 20.975,6.347 C20.973,6.327 20.972,6.31 20.97,6.293 C20.956,6.303 20.942,6.313 20.926,6.325 Z M9.926,6.325 C9.715,6.481 9.438,6.726 9.001,7.114 L4.009,11.552 C3.764,11.77 3.627,11.892 3.536,11.988 C3.532,11.992 3.529,11.996 3.525,12 C3.529,12.004 3.532,12.008 3.536,12.012 C3.627,12.108 3.764,12.23 4.009,12.448 L9.001,16.885 C9.438,17.274 9.715,17.519 9.926,17.675 C9.942,17.687 9.956,17.697 9.97,17.707 C9.972,17.69 9.973,17.673 9.975,17.653 C9.999,17.392 10,17.022 10,16.437 L10,7.563 C10,6.978 9.999,6.608 9.975,6.347 C9.973,6.327 9.972,6.31 9.97,6.293 C9.956,6.303 9.942,6.313 9.926,6.325 Z"/>
</svg>
