<svg xmlns="http://www.w3.org/2000/svg" width="24" height="24" viewBox="0 0 24 24">
  <defs/>
  <path d="M1.457,4.955 C1.853,4.474 2.452,4.205 3.075,4.228 C3.576,4.247 3.982,4.509 4.263,4.717 C4.555,4.933 4.9,5.24 5.294,5.59 C5.305,5.6 5.316,5.61 5.327,5.62 L10.345,10.08 C10.555,10.267 10.757,10.446 10.914,10.612 C11.085,10.791 11.272,11.024 11.382,11.337 C11.532,11.766 11.532,12.234 11.382,12.663 C11.272,12.976 11.085,13.209 10.914,13.388 C10.757,13.554 10.555,13.733 10.345,13.92 L5.294,18.41 C4.9,18.76 4.555,19.067 4.263,19.283 C3.982,19.491 3.576,19.753 3.075,19.772 C2.452,19.795 1.853,19.526 1.457,19.045 C1.137,18.658 1.064,18.181 1.033,17.833 C1,17.47 1,17.009 1,16.482 L1,7.518 C1,6.991 1,6.53 1.033,6.167 C1.064,5.819 1.137,5.342 1.457,4.955 Z M12.457,4.955 C12.853,4.474 13.452,4.205 14.075,4.228 C14.576,4.247 14.982,4.509 15.263,4.717 C15.555,4.933 15.9,5.24 16.294,5.59 L21.345,10.08 C21.555,10.267 21.757,10.446 21.914,10.612 C22.085,10.791 22.272,11.024 22.382,11.337 C22.532,11.766 22.532,12.234 22.382,12.663 C22.272,12.976 22.085,13.209 21.914,13.388 C21.757,13.554 21.555,13.733 21.345,13.92 L16.294,18.41 C15.9,18.76 15.555,19.067 15.263,19.283 C14.982,19.491 14.576,19.753 14.075,19.772 C13.452,19.795 12.853,19.526 12.457,19.045 C12.137,18.658 12.064,18.181 12.033,17.833 C12,17.47 12,17.008 12,16.482 L12,7.518 C12,6.991 12,6.53 12.033,6.167 C12.064,5.819 12.137,5.342 12.457,4.955 Z M3.03,6.293 C3.028,6.31 3.026,6.327 3.025,6.347 C3.001,6.608 3,6.978 3,7.563 L3,16.437 C3,17.022 3.001,17.392 3.025,17.653 C3.026,17.673 3.028,17.69 3.03,17.707 C3.043,17.697 3.058,17.687 3.073,17.675 C3.284,17.519 3.561,17.274 3.999,16.885 L8.99,12.448 C9.236,12.23 9.373,12.108 9.463,12.012 C9.467,12.008 9.471,12.004 9.474,12 C9.471,11.996 9.467,11.992 9.463,11.988 C9.373,11.892 9.236,11.77 8.99,11.552 L3.999,7.114 C3.561,6.726 3.284,6.481 3.073,6.325 C3.058,6.313 3.043,6.303 3.03,6.293 Z M14.03,6.293 C14.028,6.31 14.026,6.327 14.024,6.347 C14.001,6.608 14,6.978 14,7.563 L14,16.437 C14,17.022 14.001,17.392 14.024,17.653 C14.026,17.673 14.028,17.69 14.03,17.707 C14.043,17.697 14.058,17.687 14.073,17.675 C14.284,17.519 14.561,17.274 14.999,16.885 L19.99,12.448 C20.236,12.23 20.372,12.108 20.463,12.012 C20.467,12.008 20.471,12.004 20.474,12 C20.471,11.996 20.467,11.992 20.463,11.988 C20.372,11.892 20.236,11.77 19.99,11.552 L14.999,7.114 C14.561,6.726 14.284,6.481 14.073,6.325 C14.058,6.313 14.043,6.303 14.03,6.293 Z"/>
</svg>
