<svg xmlns="http://www.w3.org/2000/svg" width="24" height="24" viewBox="0 0 24 24">
  <defs/>
  <path d="M18.707,15.707 L15.176,19.239 C15.164,19.25 15.152,19.262 15.14,19.275 C15.006,19.409 14.837,19.579 14.631,19.705 C14.452,19.815 14.257,19.896 14.053,19.945 C13.817,20.001 13.578,20.001 13.388,20 C13.371,20 13.354,20 13.337,20 L6.568,20 C6.316,20 6.07,20 5.862,19.983 C5.746,19.974 5.62,19.958 5.488,19.926 L2.707,22.707 C2.317,23.098 1.683,23.098 1.293,22.707 C0.902,22.317 0.902,21.684 1.293,21.293 L4.074,18.512 C4.042,18.38 4.026,18.254 4.017,18.138 C4,17.93 4,17.684 4,17.432 L4,17.432 L4,10.663 C4,10.646 4,10.629 4,10.612 C3.999,10.422 3.999,10.183 4.055,9.947 C4.104,9.743 4.185,9.548 4.295,9.369 C4.421,9.163 4.591,8.994 4.725,8.86 C4.738,8.848 4.75,8.836 4.762,8.824 L9.815,3.77 C10.033,3.553 10.168,3.418 10.292,3.305 C12.962,0.879 17.038,0.879 19.708,3.305 C19.832,3.418 19.967,3.553 20.184,3.77 L20.23,3.816 C20.447,4.033 20.582,4.168 20.695,4.292 C23.121,6.962 23.121,11.039 20.695,13.708 C20.582,13.832 20.447,13.967 20.23,14.185 Z M18.363,4.785 C16.456,3.052 13.544,3.052 11.637,4.785 C11.553,4.862 11.454,4.96 11.207,5.207 L6.176,10.238 C6.083,10.331 6.037,10.378 6.005,10.413 C6.004,10.414 6.003,10.415 6.003,10.415 L6.002,10.419 C6,10.466 6,10.532 6,10.663 L6,16.586 L15.293,7.293 C15.683,6.902 16.317,6.902 16.707,7.293 C17.098,7.683 17.098,8.317 16.707,8.707 L11.414,14 L17.586,14 L18.793,12.793 C19.04,12.546 19.139,12.447 19.215,12.363 C20.948,10.456 20.948,7.544 19.215,5.637 C19.139,5.553 19.04,5.454 18.793,5.207 C18.546,4.96 18.447,4.862 18.363,4.785 Z M15.586,16 L9.414,16 L7.414,18 L13.337,18 C13.468,18 13.534,18 13.581,17.998 L13.585,17.997 L13.587,17.995 C13.623,17.963 13.669,17.917 13.762,17.824 Z"/>
</svg>
