<svg xmlns="http://www.w3.org/2000/svg" width="24" height="24" viewBox="0 0 24 24">
  <defs/>
  <path d="M4,5 C4,2.515 6.015,0.5 8.5,0.5 L15.5,0.5 C17.985,0.5 20,2.515 20,5 C20,6.414 19.348,7.675 18.329,8.5 C19.348,9.325 20,10.586 20,12 C20,14.485 17.985,16.5 15.5,16.5 C14.575,16.5 13.715,16.221 13,15.742 L13,19 C13,21.485 10.985,23.5 8.5,23.5 C6.015,23.5 4,21.485 4,19 C4,17.586 4.652,16.325 5.671,15.5 C4.652,14.675 4,13.414 4,12 C4,10.586 4.652,9.325 5.671,8.5 C4.652,7.675 4,6.414 4,5 Z M11,7.5 L11,2.5 L8.5,2.5 C7.119,2.5 6,3.619 6,5 C6,6.381 7.119,7.5 8.5,7.5 Z M8.5,9.5 C7.119,9.5 6,10.619 6,12 C6,13.381 7.119,14.5 8.5,14.5 L11,14.5 L11,9.5 Z M15.5,7.5 C16.881,7.5 18,6.381 18,5 C18,3.619 16.881,2.5 15.5,2.5 L13,2.5 L13,7.5 Z M11,16.5 L8.5,16.5 C7.119,16.5 6,17.619 6,19 C6,20.381 7.119,21.5 8.5,21.5 C9.881,21.5 11,20.381 11,19 Z M15.5,9.5 C14.119,9.5 13,10.619 13,12 C13,13.381 14.119,14.5 15.5,14.5 C16.881,14.5 18,13.381 18,12 C18,10.619 16.881,9.5 15.5,9.5 Z"/>
</svg>
