<svg xmlns="http://www.w3.org/2000/svg" width="24" height="24" viewBox="0 0 24 24">
  <defs/>
  <path d="M15.241,1 L15.241,1 C16.046,1 16.711,1 17.252,1.044 C17.814,1.09 18.331,1.189 18.816,1.436 C19.569,1.819 20.181,2.431 20.564,3.184 C20.811,3.669 20.91,4.186 20.956,4.748 C21,5.289 21,5.954 21,6.759 L21,10 C21,10.552 20.552,11 20,11 C19.448,11 19,10.552 19,10 L19,6.8 C19,5.943 18.999,5.361 18.962,4.911 C18.927,4.473 18.862,4.248 18.782,4.092 C18.59,3.716 18.284,3.41 17.908,3.218 C17.752,3.138 17.527,3.073 17.089,3.038 C16.639,3.001 16.057,3 15.2,3 L8.8,3 C7.943,3 7.361,3.001 6.911,3.038 C6.473,3.073 6.248,3.138 6.092,3.218 C5.716,3.41 5.41,3.716 5.218,4.092 C5.138,4.248 5.073,4.473 5.038,4.911 C5.001,5.361 5,5.943 5,6.8 L5,17.2 C5,18.057 5.001,18.639 5.038,19.089 C5.073,19.527 5.138,19.752 5.218,19.908 C5.41,20.284 5.716,20.59 6.092,20.782 C6.248,20.862 6.473,20.927 6.911,20.962 C7.361,20.999 7.943,21 8.8,21 L12.5,21 C13.052,21 13.5,21.448 13.5,22 C13.5,22.552 13.052,23 12.5,23 L8.759,23 C7.954,23 7.289,23 6.748,22.956 C6.186,22.91 5.669,22.811 5.184,22.564 C4.431,22.181 3.819,21.569 3.436,20.816 C3.189,20.331 3.09,19.814 3.044,19.252 C3,18.711 3,18.046 3,17.241 L3,6.759 C3,5.954 3,5.289 3.044,4.748 C3.09,4.186 3.189,3.669 3.436,3.184 C3.819,2.431 4.431,1.819 5.184,1.436 C5.669,1.189 6.186,1.09 6.748,1.044 C7.289,1 7.954,1 8.759,1 L15.241,1 Z M19.15,13.2 L21.337,13.981 C21.734,14.123 22,14.5 22,14.923 L22,17.425 C22,18.964 20.944,20.115 20.14,20.785 C19.714,21.14 19.293,21.416 18.981,21.602 C18.823,21.696 18.691,21.768 18.596,21.819 C18.548,21.844 18.509,21.864 18.481,21.878 L18.447,21.895 L18.437,21.9 L18.433,21.902 L18.431,21.902 C18.431,21.902 18.427,21.895 18,21 L18.43,21.903 C18.158,22.032 17.841,22.032 17.569,21.902 L17.567,21.902 L17.563,21.9 L17.553,21.895 L17.519,21.878 C17.491,21.864 17.452,21.844 17.404,21.819 C17.309,21.768 17.177,21.696 17.019,21.602 C16.707,21.416 16.286,21.14 15.859,20.785 C15.057,20.115 14,18.964 14,17.425 L14,14.923 C14,14.5 14.266,14.123 14.663,13.981 L16.849,13.2 L16.849,13.2 L16.849,13.2 C17.593,12.934 18.406,12.934 19.15,13.2 Z M18,19.858 C18.244,19.71 18.554,19.504 18.86,19.249 C19.556,18.668 20,18.031 20,17.425 L20,15.627 L18.476,15.083 C18.168,14.973 17.831,14.972 17.524,15.083 L16,15.627 L16,17.425 C16,18.031 16.444,18.668 17.14,19.249 C17.446,19.504 17.756,19.71 18,19.858 Z M18,21 L17.569,21.902 C17.57,21.903 17.573,21.896 18,21 Z"/>
</svg>
