<svg xmlns="http://www.w3.org/2000/svg" width="24" height="24" viewBox="0 0 24 24">
  <defs/>
  <path d="M14,1 C14.265,1 14.52,1.105 14.707,1.293 L20.707,7.293 C20.895,7.48 21,7.735 21,8 L21,17.241 C21,18.046 21,18.711 20.956,19.252 C20.91,19.814 20.811,20.331 20.564,20.816 C20.181,21.569 19.569,22.181 18.816,22.564 C18.331,22.811 17.814,22.91 17.252,22.956 C16.711,23 16.046,23 15.241,23 L8.759,23 C7.954,23 7.289,23 6.748,22.956 C6.186,22.91 5.669,22.811 5.184,22.564 C4.431,22.181 3.819,21.569 3.436,20.816 C3.189,20.331 3.09,19.814 3.044,19.252 C3,18.711 3,18.046 3,17.241 L3,6.759 C3,5.954 3,5.289 3.044,4.748 C3.09,4.186 3.189,3.669 3.436,3.184 C3.819,2.431 4.431,1.819 5.184,1.436 C5.669,1.189 6.186,1.09 6.748,1.044 C7.289,1 7.954,1 8.759,1 L14,1 Z M6.911,3.038 C6.473,3.073 6.248,3.138 6.092,3.218 C5.716,3.41 5.41,3.716 5.218,4.092 C5.138,4.248 5.073,4.473 5.038,4.911 C5.001,5.361 5,5.943 5,6.8 L5,17.2 C5,18.057 5.001,18.639 5.038,19.089 C5.073,19.527 5.138,19.752 5.218,19.908 C5.41,20.284 5.716,20.59 6.092,20.782 C6.248,20.862 6.473,20.927 6.911,20.962 C7.361,20.999 7.943,21 8.8,21 L15.2,21 C16.057,21 16.639,20.999 17.089,20.962 C17.527,20.927 17.752,20.862 17.908,20.782 C18.284,20.59 18.59,20.284 18.782,19.908 C18.862,19.752 18.927,19.527 18.962,19.089 C18.999,18.639 19,18.057 19,17.2 L19,9 L14,9 C13.448,9 13,8.552 13,8 L13,3 L8.8,3 C7.943,3 7.361,3.001 6.911,3.038 Z M9.25,12.25 C9.25,10.731 10.481,9.5 12,9.5 C13.519,9.5 14.75,10.731 14.75,12.25 L14.75,13.028 C14.953,13.052 15.18,13.102 15.408,13.218 C15.784,13.41 16.09,13.716 16.282,14.092 C16.42,14.363 16.464,14.633 16.483,14.862 C16.5,15.069 16.5,15.313 16.5,15.564 L16.5,16.436 C16.5,16.687 16.5,16.931 16.483,17.138 C16.464,17.367 16.42,17.637 16.282,17.908 C16.09,18.284 15.784,18.59 15.408,18.782 C15.137,18.92 14.867,18.964 14.638,18.983 C14.431,19 14.187,19 13.936,19 L10.064,19 C9.813,19 9.569,19 9.362,18.983 C9.133,18.964 8.863,18.92 8.592,18.782 C8.216,18.59 7.91,18.284 7.718,17.908 C7.58,17.637 7.536,17.367 7.517,17.138 C7.5,16.93 7.5,16.684 7.5,16.432 L7.5,15.568 C7.5,15.316 7.5,15.07 7.517,14.862 C7.536,14.633 7.58,14.363 7.718,14.092 C7.91,13.716 8.216,13.41 8.592,13.218 C8.82,13.102 9.048,13.052 9.25,13.028 Z M10.1,15 C9.803,15 9.641,15.001 9.525,15.01 C9.52,15.011 9.516,15.011 9.511,15.011 C9.511,15.016 9.511,15.02 9.51,15.025 C9.501,15.141 9.5,15.304 9.5,15.6 L9.5,16.4 C9.5,16.697 9.501,16.859 9.51,16.975 C9.511,16.98 9.511,16.984 9.511,16.989 C9.516,16.989 9.52,16.989 9.525,16.99 C9.641,16.999 9.803,17 10.1,17 L13.9,17 C14.196,17 14.359,16.999 14.475,16.99 C14.48,16.989 14.484,16.989 14.489,16.989 C14.489,16.984 14.489,16.98 14.49,16.975 C14.499,16.859 14.5,16.697 14.5,16.4 L14.5,15.6 C14.5,15.304 14.499,15.141 14.49,15.025 C14.489,15.02 14.489,15.016 14.489,15.011 C14.484,15.011 14.48,15.011 14.475,15.01 C14.359,15.001 14.196,15 13.9,15 Z M15,4.414 L15,7 L17.586,7 Z M12.75,13 L12.75,12.25 C12.75,11.836 12.414,11.5 12,11.5 C11.586,11.5 11.25,11.836 11.25,12.25 L11.25,13 Z"/>
</svg>
