<svg xmlns="http://www.w3.org/2000/svg" width="24" height="24" viewBox="0 0 24 24">
  <defs/>
  <path d="M14,1 C14.265,1 14.52,1.105 14.707,1.293 L20.707,7.293 C20.895,7.48 21,7.735 21,8 L21,17.241 C21,18.046 21,18.711 20.956,19.252 C20.91,19.814 20.811,20.331 20.564,20.816 C20.181,21.569 19.569,22.181 18.816,22.564 C18.331,22.811 17.814,22.91 17.252,22.956 C16.711,23 16.046,23 15.241,23 L8.759,23 C7.954,23 7.289,23 6.748,22.956 C6.186,22.91 5.669,22.811 5.184,22.564 C4.431,22.181 3.819,21.569 3.436,20.816 C3.189,20.331 3.09,19.814 3.044,19.252 C3,18.711 3,18.046 3,17.241 L3,6.759 C3,5.954 3,5.289 3.044,4.748 C3.09,4.186 3.189,3.669 3.436,3.184 C3.819,2.431 4.431,1.819 5.184,1.436 C5.669,1.189 6.186,1.09 6.748,1.044 C7.289,1 7.954,1 8.759,1 L14,1 Z M6.911,3.038 C6.473,3.073 6.248,3.138 6.092,3.218 C5.716,3.41 5.41,3.716 5.218,4.092 C5.138,4.248 5.073,4.473 5.038,4.911 C5.001,5.361 5,5.943 5,6.8 L5,17.2 C5,18.057 5.001,18.639 5.038,19.089 C5.073,19.527 5.138,19.752 5.218,19.908 C5.41,20.284 5.716,20.59 6.092,20.782 C6.248,20.862 6.473,20.927 6.911,20.962 C7.361,20.999 7.943,21 8.8,21 L15.2,21 C16.057,21 16.639,20.999 17.089,20.962 C17.527,20.927 17.752,20.862 17.908,20.782 C18.284,20.59 18.59,20.284 18.782,19.908 C18.862,19.752 18.927,19.527 18.962,19.089 C18.999,18.639 19,18.057 19,17.2 L19,9 L15.568,9 C15.316,9 15.07,9 14.862,8.983 C14.633,8.964 14.363,8.92 14.092,8.782 C13.716,8.59 13.41,8.284 13.218,7.908 C13.08,7.637 13.036,7.367 13.017,7.138 C13,6.931 13,6.687 13,6.436 L13,3 L8.8,3 C7.943,3 7.361,3.001 6.911,3.038 Z M12.182,11.518 C11.891,11.468 11.593,11.523 11.338,11.672 C11.084,11.821 10.891,12.056 10.793,12.334 C10.61,12.855 10.039,13.129 9.518,12.946 C8.997,12.762 8.723,12.191 8.907,11.67 C9.161,10.947 9.664,10.337 10.325,9.948 C10.986,9.559 11.764,9.417 12.52,9.547 C13.276,9.676 13.962,10.069 14.456,10.656 C14.95,11.243 15.22,11.986 15.219,12.753 C15.219,14.032 14.272,14.855 13.65,15.27 C13.308,15.498 12.974,15.664 12.728,15.773 C12.604,15.828 12.5,15.87 12.424,15.899 C12.385,15.914 12.354,15.925 12.331,15.933 L12.303,15.943 L12.293,15.947 L12.29,15.948 L12.288,15.948 C12.288,15.948 12.287,15.949 11.986,15.044 L12.287,15.949 C11.763,16.123 11.197,15.84 11.022,15.316 C10.848,14.793 11.13,14.228 11.652,14.052 L11.661,14.049 C11.671,14.045 11.688,14.039 11.712,14.03 C11.758,14.012 11.829,13.984 11.916,13.946 C12.092,13.867 12.32,13.753 12.54,13.606 C13.042,13.271 13.219,12.97 13.219,12.752 L13.219,12.75 C13.22,12.455 13.116,12.17 12.926,11.944 C12.736,11.719 12.472,11.568 12.182,11.518 Z M15,4.414 L15,6.4 C15,6.697 15.001,6.859 15.01,6.975 C15.011,6.98 15.011,6.984 15.011,6.989 C15.016,6.989 15.02,6.989 15.025,6.99 C15.141,6.999 15.304,7 15.6,7 L17.586,7 Z M11,18 C11,17.448 11.448,17 12,17 L12.01,17 C12.562,17 13.01,17.448 13.01,18 C13.01,18.552 12.562,19 12.01,19 L12,19 C11.448,19 11,18.552 11,18 Z"/>
</svg>
