<svg xmlns="http://www.w3.org/2000/svg" width="24" height="24" viewBox="0 0 24 24">
  <defs/>
  <path d="M15.241,1 L15.241,1 C16.046,1 16.711,1 17.252,1.044 C17.814,1.09 18.331,1.189 18.816,1.436 C19.569,1.819 20.181,2.431 20.564,3.184 C20.811,3.669 20.91,4.186 20.956,4.748 C21,5.289 21,5.954 21,6.759 L21,10 C21,10.552 20.552,11 20,11 C19.448,11 19,10.552 19,10 L19,6.8 C19,5.943 18.999,5.361 18.962,4.911 C18.927,4.473 18.862,4.248 18.782,4.092 C18.59,3.716 18.284,3.41 17.908,3.218 C17.752,3.138 17.527,3.073 17.089,3.038 C16.639,3.001 16.057,3 15.2,3 L8.8,3 C7.943,3 7.361,3.001 6.911,3.038 C6.473,3.073 6.248,3.138 6.092,3.218 C5.716,3.41 5.41,3.716 5.218,4.092 C5.138,4.248 5.073,4.473 5.038,4.911 C5.001,5.361 5,5.943 5,6.8 L5,17.2 C5,18.057 5.001,18.639 5.038,19.089 C5.073,19.527 5.138,19.752 5.218,19.908 C5.41,20.284 5.716,20.59 6.092,20.782 C6.248,20.862 6.473,20.927 6.911,20.962 C7.361,20.999 7.943,21 8.8,21 L12,21 C12.552,21 13,21.448 13,22 C13,22.552 12.552,23 12,23 L8.759,23 C7.954,23 7.289,23 6.748,22.956 C6.186,22.91 5.669,22.811 5.184,22.564 C4.431,22.181 3.819,21.569 3.436,20.816 C3.189,20.331 3.09,19.814 3.044,19.252 C3,18.711 3,18.046 3,17.241 L3,6.759 C3,5.954 3,5.289 3.044,4.748 C3.09,4.186 3.189,3.669 3.436,3.184 C3.819,2.431 4.431,1.819 5.184,1.436 C5.669,1.189 6.186,1.09 6.748,1.044 C7.289,1 7.954,1 8.759,1 L15.241,1 Z M16.997,13.527 C18.101,12.823 19.568,12.767 20.761,13.732 C22.215,14.906 22.395,16.935 21.27,18.342 C20.816,18.911 19.877,19.787 19.117,20.471 C18.724,20.825 18.357,21.147 18.088,21.381 C17.953,21.498 17.843,21.593 17.766,21.658 L17.677,21.735 L17.645,21.761 C17.272,22.079 16.723,22.079 16.35,21.762 L16.318,21.735 L16.229,21.658 C16.152,21.593 16.041,21.498 15.907,21.381 C15.638,21.147 15.27,20.825 14.877,20.471 C14.118,19.787 13.179,18.911 12.725,18.342 C11.59,16.923 11.81,14.914 13.223,13.74 C14.41,12.754 15.89,12.822 16.997,13.527 Z M7,7 C7,6.448 7.448,6 8,6 L16,6 C16.552,6 17,6.448 17,7 C17,7.552 16.552,8 16,8 L8,8 C7.448,8 7,7.552 7,7 Z M16.997,19.678 C17.225,19.479 17.496,19.24 17.779,18.985 C18.568,18.274 19.375,17.51 19.708,17.094 C20.156,16.532 20.089,15.76 19.504,15.287 C18.958,14.846 18.243,14.929 17.748,15.491 C17.558,15.707 17.285,15.831 16.997,15.831 C16.71,15.831 16.436,15.707 16.247,15.491 C15.744,14.92 15.02,14.848 14.501,15.279 C13.909,15.77 13.847,16.544 14.287,17.094 C14.619,17.51 15.427,18.274 16.216,18.985 C16.499,19.24 16.769,19.479 16.997,19.678 Z M7,11 C7,10.448 7.448,10 8,10 L12.5,10 C13.052,10 13.5,10.448 13.5,11 C13.5,11.552 13.052,12 12.5,12 L8,12 C7.448,12 7,11.552 7,11 Z M7,15 C7,14.448 7.448,14 8,14 L9,14 C9.552,14 10,14.448 10,15 C10,15.552 9.552,16 9,16 L8,16 C7.448,16 7,15.552 7,15 Z M16.997,21 C17.645,21.762 17.645,21.762 17.645,21.761 L16.997,21 Z"/>
</svg>
