<svg xmlns="http://www.w3.org/2000/svg" width="24" height="24" viewBox="0 0 24 24">
  <defs/>
  <path d="M14.394,1.35 C14.407,1.356 14.42,1.362 14.433,1.368 C14.575,1.434 14.714,1.508 14.847,1.589 C15.253,1.838 15.592,2.178 16.041,2.627 L16.113,2.699 L19.301,5.887 C19.326,5.911 19.35,5.935 19.373,5.959 C19.823,6.408 20.162,6.747 20.411,7.153 C20.492,7.286 20.566,7.424 20.631,7.565 C20.638,7.579 20.645,7.594 20.651,7.608 C20.752,7.834 20.832,8.068 20.889,8.309 C21.001,8.771 21,9.251 21,9.885 L21,17.241 C21,18.046 21,18.711 20.956,19.252 C20.91,19.814 20.811,20.331 20.564,20.816 C20.181,21.569 19.569,22.181 18.816,22.564 C18.331,22.811 17.814,22.91 17.252,22.956 C16.711,23 16.046,23 15.241,23 L8.759,23 C7.954,23 7.289,23 6.748,22.956 C6.186,22.91 5.669,22.811 5.184,22.564 C4.431,22.181 3.819,21.569 3.436,20.816 C3.189,20.331 3.09,19.814 3.044,19.252 C3,18.711 3,18.046 3,17.241 L3,6.759 C3,5.954 3,5.289 3.044,4.748 C3.09,4.186 3.189,3.669 3.436,3.184 C3.819,2.431 4.431,1.82 5.184,1.436 C5.669,1.189 6.186,1.09 6.748,1.044 C7.289,1 7.954,1 8.759,1 L12.012,1 C12.046,1 12.08,1 12.114,1 L12.114,1 C12.749,1 13.228,1 13.691,1.111 C13.933,1.169 14.168,1.249 14.394,1.35 Z M13,3.02 C12.814,3.003 12.539,3 12.012,3 L8.8,3 C7.943,3 7.361,3.001 6.911,3.038 C6.473,3.073 6.248,3.138 6.092,3.218 C5.716,3.41 5.41,3.716 5.218,4.092 C5.138,4.248 5.073,4.473 5.038,4.911 C5.001,5.361 5,5.943 5,6.8 L5,17.2 C5,18.057 5.001,18.639 5.038,19.089 C5.073,19.527 5.138,19.752 5.218,19.908 C5.41,20.284 5.716,20.59 6.092,20.782 C6.248,20.862 6.473,20.927 6.911,20.962 C7.361,20.999 7.943,21 8.8,21 L15.2,21 C16.057,21 16.639,20.999 17.089,20.962 C17.527,20.927 17.752,20.862 17.908,20.782 C18.284,20.59 18.59,20.284 18.782,19.908 C18.862,19.752 18.927,19.527 18.962,19.089 C18.999,18.639 19,18.057 19,17.2 L19,9.988 C19,9.461 18.997,9.186 18.98,9 L15.568,9 L15.568,9 C15.316,9 15.07,9 14.862,8.983 C14.633,8.965 14.363,8.92 14.092,8.782 C13.716,8.59 13.41,8.284 13.218,7.908 C13.08,7.637 13.036,7.367 13.017,7.138 C13,6.931 13,6.687 13,6.436 Z M10.707,11.793 C11.098,12.184 11.098,12.817 10.707,13.207 L8.914,15 L10.707,16.793 C11.098,17.184 11.098,17.817 10.707,18.207 C10.317,18.598 9.683,18.598 9.293,18.207 L6.793,15.707 C6.402,15.317 6.402,14.684 6.793,14.293 L9.293,11.793 C9.683,11.402 10.317,11.402 10.707,11.793 Z M13.293,13.207 C12.902,12.817 12.902,12.184 13.293,11.793 C13.683,11.402 14.317,11.402 14.707,11.793 L17.207,14.293 C17.598,14.684 17.598,15.317 17.207,15.707 L14.707,18.207 C14.317,18.598 13.683,18.598 13.293,18.207 C12.902,17.817 12.902,17.184 13.293,16.793 L15.086,15 Z M15,4.414 L15,6.4 C15,6.697 15.001,6.859 15.01,6.976 C15.011,6.98 15.011,6.985 15.011,6.989 C15.016,6.989 15.02,6.989 15.025,6.99 C15.141,6.999 15.304,7 15.6,7 L17.586,7 Z"/>
</svg>
