<svg xmlns="http://www.w3.org/2000/svg" width="24" height="24" viewBox="0 0 24 24">
  <defs/>
  <path d="M15.241,1 L15.241,1 C16.046,1 16.711,1 17.252,1.044 C17.814,1.09 18.331,1.189 18.816,1.436 C19.569,1.819 20.181,2.431 20.564,3.184 C20.811,3.669 20.91,4.186 20.956,4.748 C21,5.289 21,5.954 21,6.759 L21,9.5 C21,10.052 20.552,10.5 20,10.5 C19.448,10.5 19,10.052 19,9.5 L19,6.8 C19,5.943 18.999,5.361 18.962,4.911 C18.927,4.473 18.862,4.248 18.782,4.092 C18.59,3.716 18.284,3.41 17.908,3.218 C17.752,3.138 17.527,3.073 17.089,3.038 C16.639,3.001 16.057,3 15.2,3 L8.8,3 C7.943,3 7.361,3.001 6.911,3.038 C6.473,3.073 6.248,3.138 6.092,3.218 C5.716,3.41 5.41,3.716 5.218,4.092 C5.138,4.248 5.073,4.473 5.038,4.911 C5.001,5.361 5,5.943 5,6.8 L5,17.2 C5,18.057 5.001,18.639 5.038,19.089 C5.073,19.527 5.138,19.752 5.218,19.908 C5.41,20.284 5.716,20.59 6.092,20.782 C6.248,20.862 6.473,20.927 6.911,20.962 C7.361,20.999 7.943,21 8.8,21 L14,21 C14.552,21 15,21.448 15,22 C15,22.552 14.552,23 14,23 L8.759,23 C7.954,23 7.289,23 6.748,22.956 C6.186,22.91 5.669,22.811 5.184,22.564 C4.431,22.181 3.819,21.569 3.436,20.816 C3.189,20.331 3.09,19.814 3.044,19.252 C3,18.711 3,18.046 3,17.241 L3,6.759 C3,5.954 3,5.289 3.044,4.748 C3.09,4.186 3.189,3.669 3.436,3.184 C3.819,2.431 4.431,1.819 5.184,1.436 C5.669,1.189 6.186,1.09 6.748,1.044 C7.289,1 7.954,1 8.759,1 L15.241,1 Z M7,7 C7,6.448 7.448,6 8,6 L16,6 C16.552,6 17,6.448 17,7 C17,7.552 16.552,8 16,8 L8,8 C7.448,8 7,7.552 7,7 Z M18.832,14.518 C18.541,14.468 18.243,14.523 17.988,14.672 C17.734,14.821 17.541,15.056 17.443,15.334 C17.26,15.855 16.689,16.129 16.168,15.946 C15.647,15.762 15.373,15.191 15.557,14.67 C15.811,13.947 16.314,13.337 16.975,12.948 C17.636,12.559 18.414,12.417 19.17,12.547 C19.926,12.676 20.612,13.069 21.106,13.656 C21.6,14.243 21.87,14.985 21.869,15.752 L19.328,14.719 C19.419,14.782 19.503,14.858 19.576,14.944 C19.766,15.17 19.87,15.455 19.869,15.75 L19.869,15.752 C19.869,15.97 19.692,16.271 19.19,16.606 C18.97,16.753 18.742,16.867 18.566,16.946 C18.479,16.984 18.408,17.013 18.361,17.03 C18.338,17.039 18.321,17.045 18.311,17.049 L18.304,17.052 Z M7,11 C7,10.448 7.448,10 8,10 L14,10 C14.552,10 15,10.448 15,11 C15,11.552 14.552,12 14,12 L8,12 C7.448,12 7,11.552 7,11 Z M7,15 C7,14.448 7.448,14 8,14 L10,14 C10.552,14 11,14.448 11,15 C11,15.552 10.552,16 10,16 L8,16 C7.448,16 7,15.552 7,15 Z M18.65,22 C18.098,22 17.65,21.552 17.65,21 C17.65,20.448 18.098,20 18.65,20 L18.66,20 C19.212,20 19.66,20.448 19.66,21 C19.66,21.552 19.212,22 18.66,22 Z M18.832,14.518 L19.328,14.719 C19.18,14.618 19.011,14.549 18.832,14.518 Z"/>
</svg>
