<svg xmlns="http://www.w3.org/2000/svg" width="24" height="24" viewBox="0 0 24 24">
  <defs/>
  <path d="M15.241,1 L15.241,1 C16.046,1 16.711,1 17.252,1.044 C17.814,1.09 18.331,1.189 18.816,1.436 C19.569,1.819 20.181,2.431 20.564,3.184 C20.811,3.669 20.91,4.186 20.956,4.748 C21,5.289 21,5.954 21,6.759 L21,7 C21,7.552 20.552,8 20,8 C19.448,8 19,7.552 19,7 L19,6.8 C19,5.943 18.999,5.361 18.962,4.911 C18.927,4.473 18.862,4.248 18.782,4.092 C18.59,3.716 18.284,3.41 17.908,3.218 C17.752,3.138 17.527,3.073 17.089,3.038 C16.639,3.001 16.057,3 15.2,3 L8.8,3 C7.943,3 7.361,3.001 6.911,3.038 C6.473,3.073 6.248,3.138 6.092,3.218 C5.716,3.41 5.41,3.716 5.218,4.092 C5.138,4.248 5.073,4.473 5.038,4.911 C5.001,5.361 5,5.943 5,6.8 L5,17.2 C5,18.057 5.001,18.639 5.038,19.089 C5.073,19.527 5.138,19.752 5.218,19.908 C5.41,20.284 5.716,20.59 6.092,20.782 C6.248,20.862 6.473,20.927 6.911,20.962 C7.361,20.999 7.943,21 8.8,21 L12.5,21 C13.052,21 13.5,21.448 13.5,22 C13.5,22.552 13.052,23 12.5,23 L8.759,23 C7.954,23 7.289,23 6.748,22.956 C6.186,22.91 5.669,22.811 5.184,22.564 C4.431,22.181 3.819,21.569 3.436,20.816 C3.189,20.331 3.09,19.814 3.044,19.252 C3,18.711 3,18.046 3,17.241 L3,6.759 C3,5.954 3,5.289 3.044,4.748 C3.09,4.186 3.189,3.669 3.436,3.184 C3.819,2.431 4.431,1.819 5.184,1.436 C5.669,1.189 6.186,1.09 6.748,1.044 C7.289,1 7.954,1 8.759,1 L15.241,1 Z M19.5,12 C19.224,12 19,12.224 19,12.5 L19,18 C19,18.552 18.552,19 18,19 C17.448,19 17,18.552 17,18 L17,12.5 C17,11.119 18.119,10 19.5,10 C20.881,10 22,11.119 22,12.5 L22,18 C22,20.209 20.209,22 18,22 C15.791,22 14,20.209 14,18 L14,14 C14,13.448 14.448,13 15,13 C15.552,13 16,13.448 16,14 L16,18 C16,19.105 16.895,20 18,20 C19.105,20 20,19.105 20,18 L20,12.5 C20,12.224 19.776,12 19.5,12 Z M7,7 C7,6.448 7.448,6 8,6 L16,6 C16.552,6 17,6.448 17,7 C17,7.552 16.552,8 16,8 L8,8 C7.448,8 7,7.552 7,7 Z M7,11 C7,10.448 7.448,10 8,10 L12.5,10 C13.052,10 13.5,10.448 13.5,11 C13.5,11.552 13.052,12 12.5,12 L8,12 C7.448,12 7,11.552 7,11 Z M7,15 C7,14.448 7.448,14 8,14 L11.5,14 C12.052,14 12.5,14.448 12.5,15 C12.5,15.552 12.052,16 11.5,16 L8,16 C7.448,16 7,15.552 7,15 Z"/>
</svg>
