<svg xmlns="http://www.w3.org/2000/svg" width="24" height="24" viewBox="0 0 24 24">
  <defs/>
  <path d="M14,1 C14.265,1 14.52,1.105 14.707,1.293 L20.707,7.293 C20.895,7.48 21,7.735 21,8 L21,17.241 C21,18.046 21,18.711 20.956,19.252 C20.91,19.814 20.811,20.331 20.564,20.816 C20.181,21.569 19.569,22.181 18.816,22.564 C18.331,22.811 17.814,22.91 17.252,22.956 C16.711,23 16.046,23 15.241,23 L8.759,23 C7.954,23 7.289,23 6.748,22.956 C6.186,22.91 5.669,22.811 5.184,22.564 C4.431,22.181 3.819,21.569 3.436,20.816 C3.189,20.331 3.09,19.814 3.044,19.252 C3,18.711 3,18.046 3,17.241 L3,6.759 C3,5.954 3,5.289 3.044,4.748 C3.09,4.186 3.189,3.669 3.436,3.184 C3.819,2.431 4.431,1.819 5.184,1.436 C5.669,1.189 6.186,1.09 6.748,1.044 C7.289,1 7.954,1 8.759,1 L14,1 Z M6.911,3.038 C6.473,3.073 6.248,3.138 6.092,3.218 C5.716,3.41 5.41,3.716 5.218,4.092 C5.138,4.248 5.073,4.473 5.038,4.911 C5.001,5.361 5,5.943 5,6.8 L5,17.2 C5,18.057 5.001,18.639 5.038,19.089 C5.073,19.527 5.138,19.752 5.218,19.908 C5.41,20.284 5.716,20.59 6.092,20.782 C6.248,20.862 6.473,20.927 6.911,20.962 C7.361,20.999 7.943,21 8.8,21 L15.2,21 C16.057,21 16.639,20.999 17.089,20.962 C17.527,20.927 17.752,20.862 17.908,20.782 C18.284,20.59 18.59,20.284 18.782,19.908 C18.862,19.752 18.927,19.527 18.962,19.089 C18.999,18.639 19,18.057 19,17.2 L19,9 L15.568,9 C15.316,9 15.07,9 14.862,8.983 C14.633,8.964 14.363,8.92 14.092,8.782 C13.716,8.59 13.41,8.284 13.218,7.908 C13.08,7.637 13.036,7.367 13.017,7.138 C13,6.931 13,6.687 13,6.436 L13,3 L8.8,3 C7.943,3 7.361,3.001 6.911,3.038 Z M12,11 C12.552,11 13,11.448 13,12 L13,14 L15,14 C15.552,14 16,14.448 16,15 C16,15.552 15.552,16 15,16 L13,16 L13,18 C13,18.552 12.552,19 12,19 C11.448,19 11,18.552 11,18 L11,16 L9,16 C8.448,16 8,15.552 8,15 C8,14.448 8.448,14 9,14 L11,14 L11,12 C11,11.448 11.448,11 12,11 Z M15,4.414 L15,6.4 C15,6.697 15.001,6.859 15.01,6.975 C15.011,6.98 15.011,6.984 15.011,6.989 C15.016,6.989 15.02,6.989 15.025,6.99 C15.141,6.999 15.304,7 15.6,7 L17.586,7 Z"/>
</svg>
