<svg xmlns="http://www.w3.org/2000/svg" width="24" height="24" viewBox="0 0 24 24">
  <defs/>
  <path d="M14,1 C14.265,1 14.52,1.105 14.707,1.293 L20.707,7.293 C20.895,7.48 21,7.735 21,8 L21,17.241 C21,18.046 21,18.711 20.956,19.252 C20.91,19.814 20.811,20.331 20.564,20.816 C20.181,21.569 19.569,22.181 18.816,22.564 C18.331,22.811 17.814,22.91 17.252,22.956 C16.711,23 16.046,23 15.241,23 L8.759,23 C7.954,23 7.289,23 6.748,22.956 C6.186,22.91 5.669,22.811 5.184,22.564 C4.431,22.181 3.819,21.569 3.436,20.816 C3.189,20.331 3.09,19.814 3.044,19.252 C3,18.711 3,18.046 3,17.241 L3,6.759 C3,5.954 3,5.289 3.044,4.748 C3.09,4.186 3.189,3.669 3.436,3.184 C3.819,2.431 4.431,1.819 5.184,1.436 C5.669,1.189 6.186,1.09 6.748,1.044 C7.289,1 7.954,1 8.759,1 L14,1 Z M6.911,3.038 C6.473,3.073 6.248,3.138 6.092,3.218 C5.716,3.41 5.41,3.716 5.218,4.092 C5.138,4.248 5.073,4.473 5.038,4.911 C5.001,5.361 5,5.943 5,6.8 L5,17.2 C5,18.057 5.001,18.639 5.038,19.089 C5.073,19.527 5.138,19.752 5.218,19.908 C5.41,20.284 5.716,20.59 6.092,20.782 C6.248,20.862 6.473,20.927 6.911,20.962 C7.361,20.999 7.943,21 8.8,21 L15.2,21 C16.057,21 16.639,20.999 17.089,20.962 C17.527,20.927 17.752,20.862 17.908,20.782 C18.284,20.59 18.59,20.284 18.782,19.908 C18.862,19.752 18.927,19.527 18.962,19.089 C18.999,18.639 19,18.057 19,17.2 L19,9 L14,9 C13.448,9 13,8.552 13,8 L13,3 L8.8,3 C7.943,3 7.361,3.001 6.911,3.038 Z M13.15,10.2 L15.337,10.981 C15.734,11.123 16,11.5 16,11.923 L16,14.425 C16,15.964 14.944,17.115 14.141,17.785 C13.714,18.14 13.293,18.416 12.981,18.602 C12.823,18.696 12.691,18.768 12.596,18.819 C12.548,18.844 12.509,18.864 12.481,18.878 L12.447,18.895 L12.437,18.9 L12.433,18.902 L12.431,18.902 C12.431,18.902 12.427,18.895 12,18 L12.43,18.903 C12.158,19.032 11.841,19.032 11.569,18.902 L11.567,18.902 L11.563,18.9 L11.553,18.895 L11.519,18.878 C11.491,18.864 11.452,18.844 11.404,18.819 C11.309,18.768 11.177,18.696 11.019,18.602 C10.707,18.416 10.286,18.14 9.859,17.785 C9.056,17.115 8,15.964 8,14.425 L8,11.923 C8,11.5 8.266,11.123 8.663,10.981 L10.849,10.2 L10.849,10.2 L10.849,10.2 C11.593,9.934 12.406,9.934 13.15,10.2 Z M12,16.858 C12.244,16.71 12.554,16.504 12.859,16.249 C13.557,15.668 14,15.031 14,14.425 L14,12.627 L12.476,12.083 C12.168,11.973 11.831,11.972 11.524,12.083 L10,12.627 L10,14.425 C10,15.031 10.443,15.668 11.141,16.249 C11.446,16.504 11.756,16.71 12,16.858 Z M15,4.414 L15,7 L17.586,7 Z M12,18 L11.569,18.902 C11.57,18.903 11.573,18.896 12,18 Z"/>
</svg>
