<svg xmlns="http://www.w3.org/2000/svg" width="24" height="24" viewBox="0 0 24 24">
  <defs/>
  <path d="M17.089,3.038 C16.639,3.001 16.057,3 15.2,3 L12.5,3 C11.948,3 11.5,2.552 11.5,2 C11.5,1.448 11.948,1 12.5,1 L15.241,1 C16.046,1 16.711,1 17.252,1.044 C17.814,1.09 18.331,1.189 18.816,1.436 C19.569,1.819 20.181,2.431 20.564,3.184 C20.811,3.669 20.91,4.186 20.956,4.748 C21,5.289 21,5.954 21,6.759 L21,17.241 C21,18.046 21,18.711 20.956,19.252 C20.91,19.814 20.811,20.331 20.564,20.816 C20.181,21.569 19.569,22.181 18.816,22.564 C18.331,22.811 17.814,22.91 17.252,22.956 C16.711,23 16.046,23 15.241,23 L8.759,23 C7.954,23 7.289,23 6.748,22.956 C6.186,22.91 5.669,22.811 5.184,22.564 C4.431,22.181 3.819,21.569 3.436,20.816 C3.189,20.331 3.09,19.814 3.044,19.252 C3,18.711 3,18.046 3,17.241 L3,16.5 C3,15.948 3.448,15.5 4,15.5 C4.552,15.5 5,15.948 5,16.5 L5,17.2 C5,18.057 5.001,18.639 5.038,19.089 C5.073,19.527 5.138,19.752 5.218,19.908 C5.41,20.284 5.716,20.59 6.092,20.782 C6.248,20.862 6.473,20.927 6.911,20.962 C7.361,20.999 7.943,21 8.8,21 L15.2,21 C16.057,21 16.639,20.999 17.089,20.962 C17.527,20.927 17.752,20.862 17.908,20.782 C18.284,20.59 18.59,20.284 18.782,19.908 C18.862,19.752 18.927,19.527 18.962,19.089 C18.999,18.639 19,18.057 19,17.2 L19,6.8 C19,5.943 18.999,5.361 18.962,4.911 C18.927,4.473 18.862,4.248 18.782,4.092 C18.59,3.716 18.284,3.41 17.908,3.218 C17.752,3.138 17.527,3.073 17.089,3.038 Z M7.5,4 C7.224,4 7,4.224 7,4.5 L7,10 C7,10.552 6.552,11 6,11 C5.448,11 5,10.552 5,10 L5,4.5 C5,3.119 6.119,2 7.5,2 C8.881,2 10,3.119 10,4.5 L10,10 C10,12.209 8.209,14 6,14 C3.791,14 2,12.209 2,10 L2,6 C2,5.448 2.448,5 3,5 C3.552,5 4,5.448 4,6 L4,10 C4,11.105 4.895,12 6,12 C7.105,12 8,11.105 8,10 L8,4.5 C8,4.224 7.776,4 7.5,4 Z M7,17 C7,16.448 7.448,16 8,16 L16,16 C16.552,16 17,16.448 17,17 C17,17.552 16.552,18 16,18 L8,18 C7.448,18 7,17.552 7,17 Z M10.5,13 C10.5,12.448 10.948,12 11.5,12 L16,12 C16.552,12 17,12.448 17,13 C17,13.552 16.552,14 16,14 L11.5,14 C10.948,14 10.5,13.552 10.5,13 Z M11.5,9 C11.5,8.448 11.948,8 12.5,8 L16,8 C16.552,8 17,8.448 17,9 C17,9.552 16.552,10 16,10 L12.5,10 C11.948,10 11.5,9.552 11.5,9 Z"/>
</svg>
