<svg xmlns="http://www.w3.org/2000/svg" width="24" height="24" viewBox="0 0 24 24">
  <defs/>
  <path d="M14.224,3.055 C14.021,3.006 13.793,3 13.012,3 L8.5,3 C8.004,3 7.853,3.002 7.739,3.017 C6.841,3.135 6.135,3.842 6.017,4.739 C6.002,4.853 6,5.004 6,5.5 C6,6.052 5.552,6.5 5,6.5 C4.448,6.5 4,6.052 4,5.5 L4,5.431 C4,5.034 4,4.739 4.034,4.478 C4.271,2.683 5.683,1.271 7.478,1.034 C7.739,1 8.034,1 8.431,1 L8.431,1 L8.5,1 L13.012,1 C13.046,1 13.08,1 13.114,1 L13.114,1 C13.749,1 14.228,1 14.691,1.111 C15.099,1.209 15.49,1.37 15.847,1.589 C16.253,1.838 16.592,2.178 17.041,2.627 C17.065,2.651 17.089,2.675 17.113,2.699 L20.301,5.887 C20.326,5.911 20.35,5.935 20.373,5.959 C20.823,6.408 21.162,6.747 21.411,7.153 C21.63,7.511 21.792,7.901 21.889,8.309 C22.001,8.771 22,9.251 22,9.885 L22,17.241 C22,18.046 22,18.711 21.956,19.252 C21.91,19.814 21.811,20.331 21.564,20.816 C21.181,21.569 20.569,22.181 19.816,22.564 C19.331,22.811 18.814,22.91 18.252,22.956 C17.711,23 17.046,23 16.241,23 L8.43,23 C8.033,23 7.739,23 7.478,22.966 C5.683,22.729 4.271,21.317 4.034,19.522 C4,19.261 4,18.966 4,18.569 L4,18.5 C4,17.948 4.448,17.5 5,17.5 C5.552,17.5 6,17.948 6,18.5 C6,18.996 6.002,19.147 6.017,19.261 C6.135,20.159 6.841,20.865 7.739,20.983 C7.853,20.998 8.004,21 8.5,21 L16.2,21 C17.057,21 17.639,20.999 18.089,20.962 C18.527,20.927 18.752,20.862 18.908,20.782 C19.284,20.59 19.59,20.284 19.782,19.908 C19.862,19.752 19.927,19.527 19.962,19.089 C19.999,18.639 20,18.057 20,17.2 L20,9.988 C20,9.207 19.994,8.979 19.945,8.776 C19.896,8.572 19.815,8.377 19.705,8.198 C19.596,8.019 19.44,7.854 18.887,7.301 L15.699,4.113 C15.146,3.561 14.981,3.404 14.802,3.295 C14.623,3.185 14.428,3.104 14.224,3.055 Z M5.707,8.793 C6.098,9.183 6.098,9.817 5.707,10.207 L3.914,12 L5.707,13.793 C6.098,14.184 6.098,14.817 5.707,15.207 C5.317,15.598 4.683,15.598 4.293,15.207 L1.793,12.707 C1.402,12.317 1.402,11.684 1.793,11.293 L4.293,8.793 C4.683,8.402 5.317,8.402 5.707,8.793 Z M8.293,8.793 C8.683,8.402 9.317,8.402 9.707,8.793 L12.207,11.293 C12.598,11.684 12.598,12.317 12.207,12.707 L9.707,15.207 C9.317,15.598 8.683,15.598 8.293,15.207 C7.902,14.817 7.902,14.184 8.293,13.793 L10.086,12 L8.293,10.207 C7.902,9.817 7.902,9.183 8.293,8.793 Z"/>
</svg>
