<svg xmlns="http://www.w3.org/2000/svg" width="24" height="24" viewBox="0 0 24 24">
  <defs/>
  <path d="M15.241,1 L15.241,1 C16.046,1 16.711,1 17.252,1.044 C17.814,1.09 18.331,1.189 18.816,1.436 C19.569,1.819 20.181,2.431 20.564,3.184 C20.811,3.669 20.91,4.186 20.956,4.748 C21,5.289 21,5.954 21,6.759 L21,10 C21,10.552 20.552,11 20,11 C19.448,11 19,10.552 19,10 L19,6.8 C19,5.943 18.999,5.361 18.962,4.911 C18.927,4.473 18.862,4.248 18.782,4.092 C18.59,3.716 18.284,3.41 17.908,3.218 C17.752,3.138 17.527,3.073 17.089,3.038 C16.639,3.001 16.057,3 15.2,3 L8.8,3 C7.943,3 7.361,3.001 6.911,3.038 C6.473,3.073 6.248,3.138 6.092,3.218 C5.716,3.41 5.41,3.716 5.218,4.092 C5.138,4.248 5.073,4.473 5.038,4.911 C5.001,5.361 5,5.943 5,6.8 L5,17.2 C5,18.057 5.001,18.639 5.038,19.089 C5.073,19.527 5.138,19.752 5.218,19.908 C5.41,20.284 5.716,20.59 6.092,20.782 C6.248,20.862 6.473,20.927 6.911,20.962 C7.361,20.999 7.943,21 8.8,21 L10.5,21 C11.052,21 11.5,21.448 11.5,22 C11.5,22.552 11.052,23 10.5,23 L8.759,23 C7.954,23 7.289,23 6.748,22.956 C6.186,22.91 5.669,22.811 5.184,22.564 C4.431,22.181 3.819,21.569 3.436,20.816 C3.189,20.331 3.09,19.814 3.044,19.252 C3,18.711 3,18.046 3,17.241 L3,6.759 C3,5.954 3,5.289 3.044,4.748 C3.09,4.186 3.189,3.669 3.436,3.184 C3.819,2.431 4.431,1.819 5.184,1.436 C5.669,1.189 6.186,1.09 6.748,1.044 C7.289,1 7.954,1 8.759,1 L15.241,1 Z M14.75,15.25 C14.75,13.731 15.981,12.5 17.5,12.5 C19.019,12.5 20.25,13.731 20.25,15.25 L20.25,16.028 C20.452,16.052 20.68,16.102 20.908,16.218 C21.284,16.41 21.59,16.716 21.782,17.092 C21.92,17.363 21.964,17.633 21.983,17.862 C22,18.069 22,18.313 22,18.564 L22,19.436 C22,19.687 22,19.931 21.983,20.138 C21.964,20.367 21.92,20.637 21.782,20.908 C21.59,21.284 21.284,21.59 20.908,21.782 C20.637,21.92 20.367,21.964 20.138,21.983 C19.931,22 19.687,22 19.436,22 L15.564,22 C15.313,22 15.069,22 14.862,21.983 C14.633,21.964 14.363,21.92 14.092,21.782 C13.716,21.59 13.41,21.284 13.218,20.908 C13.08,20.637 13.036,20.367 13.017,20.138 C13,19.931 13,19.687 13,19.436 L13,18.564 C13,18.313 13,18.069 13.017,17.862 C13.036,17.633 13.08,17.363 13.218,17.092 C13.41,16.716 13.716,16.41 14.092,16.218 C14.32,16.102 14.547,16.052 14.75,16.028 Z M15.6,18 C15.304,18 15.141,18.001 15.025,18.01 C15.02,18.011 15.016,18.011 15.012,18.011 C15.011,18.016 15.011,18.02 15.01,18.025 C15.001,18.141 15,18.303 15,18.6 L15,19.4 C15,19.697 15.001,19.859 15.01,19.975 C15.011,19.98 15.011,19.984 15.011,19.989 C15.016,19.989 15.02,19.989 15.025,19.99 C15.141,19.999 15.304,20 15.6,20 L19.4,20 C19.697,20 19.859,19.999 19.975,19.99 C19.98,19.989 19.984,19.989 19.989,19.989 C19.989,19.984 19.989,19.98 19.99,19.975 C19.999,19.859 20,19.697 20,19.4 L20,18.6 C20,18.303 19.999,18.141 19.99,18.025 C19.989,18.02 19.989,18.016 19.989,18.011 C19.984,18.011 19.98,18.011 19.975,18.01 C19.859,18.001 19.697,18 19.4,18 Z M18.25,16 L18.25,15.25 C18.25,14.836 17.914,14.5 17.5,14.5 C17.086,14.5 16.75,14.836 16.75,15.25 L16.75,16 Z"/>
</svg>
