<svg xmlns="http://www.w3.org/2000/svg" width="24" height="24" viewBox="0 0 24 24">
  <defs/>
  <path d="M17.241,1 L17.241,1 C18.046,1 18.711,1 19.252,1.044 C19.814,1.09 20.331,1.189 20.816,1.436 C21.569,1.819 22.181,2.431 22.564,3.184 C22.811,3.669 22.91,4.186 22.956,4.748 C23,5.289 23,5.954 23,6.759 L23,17.241 C23,18.046 23,18.711 22.956,19.252 C22.91,19.814 22.811,20.331 22.564,20.816 C22.181,21.569 21.569,22.181 20.816,22.564 C20.331,22.811 19.814,22.91 19.252,22.956 C18.711,23 18.046,23 17.241,23 L6.759,23 C5.954,23 5.289,23 4.748,22.956 C4.186,22.91 3.669,22.811 3.184,22.564 C2.431,22.181 1.819,21.569 1.436,20.816 C1.189,20.331 1.09,19.814 1.044,19.252 C1,18.711 1,18.046 1,17.241 L1,6.759 C1,5.954 1,5.289 1.044,4.748 C1.09,4.186 1.189,3.669 1.436,3.184 C1.819,2.431 2.431,1.819 3.184,1.436 C3.669,1.189 4.186,1.09 4.748,1.044 C5.289,1 5.954,1 6.759,1 L17.241,1 Z M8,11 L16,11 L16,3 L8,3 Z M16,21 L16,13 L8,13 L8,21 Z M3,8 L3,11 L6,11 L6,8 Z M21,8 L18,8 L18,11 L21,11 Z M3,16 L6,16 L6,13 L3,13 Z M21,13 L18,13 L18,16 L21,16 Z M6,6 L6,3.002 C5.554,3.005 5.205,3.014 4.911,3.038 C4.473,3.073 4.248,3.138 4.092,3.218 C3.716,3.41 3.41,3.716 3.218,4.092 C3.138,4.248 3.073,4.473 3.038,4.911 C3.014,5.205 3.005,5.554 3.002,6 Z M6,20.998 L6,18 L3.002,18 C3.005,18.445 3.014,18.795 3.038,19.089 C3.073,19.527 3.138,19.752 3.218,19.908 C3.41,20.284 3.716,20.59 4.092,20.782 C4.248,20.862 4.473,20.927 4.911,20.962 C5.205,20.986 5.554,20.995 6,20.998 Z M18,3.002 L18,6 L20.998,6 C20.995,5.554 20.986,5.205 20.962,4.911 C20.927,4.473 20.862,4.248 20.782,4.092 C20.59,3.716 20.284,3.41 19.908,3.218 C19.752,3.138 19.527,3.073 19.089,3.038 C18.795,3.014 18.445,3.005 18,3.002 Z M20.998,18 L18,18 L18,20.998 C18.445,20.995 18.795,20.986 19.089,20.962 C19.527,20.927 19.752,20.862 19.908,20.782 C20.284,20.59 20.59,20.284 20.782,19.908 C20.862,19.752 20.927,19.527 20.962,19.089 C20.986,18.795 20.995,18.445 20.998,18 Z"/>
</svg>
