<svg xmlns="http://www.w3.org/2000/svg" width="24" height="24" viewBox="0 0 24 24">
  <defs/>
  <path d="M12.992,3 L17.241,3 L17.241,3 C18.046,3 18.711,3 19.252,3.044 C19.814,3.09 20.331,3.189 20.816,3.436 C21.569,3.819 22.181,4.431 22.564,5.184 C22.811,5.669 22.91,6.186 22.956,6.748 C22.984,7.092 22.994,7.486 22.998,7.934 C22.999,7.956 23,7.978 23,8 C23,8.017 23,8.034 22.999,8.051 C23,8.274 23,8.51 23,8.759 L23,17.241 C23,17.49 23,17.726 22.999,17.949 C23,17.966 23,17.983 23,18 Q23,18.033 22.998,18.066 C22.994,18.514 22.984,18.908 22.956,19.252 C22.91,19.814 22.811,20.331 22.564,20.816 C22.181,21.569 21.569,22.181 20.816,22.564 C20.331,22.811 19.814,22.91 19.252,22.956 C18.711,23 18.046,23 17.241,23 L13.564,23 C13.313,23 13.069,23 12.862,22.983 C12.633,22.964 12.363,22.92 12.092,22.782 C11.716,22.59 11.41,22.284 11.218,21.908 C11.08,21.637 11.036,21.367 11.017,21.138 C11.013,21.094 11.01,21.048 11.008,21 L6.759,21 C5.954,21 5.289,21 4.748,20.956 C4.186,20.91 3.669,20.811 3.184,20.564 C2.431,20.181 1.819,19.569 1.436,18.816 C1.189,18.331 1.09,17.814 1.044,17.252 C1.016,16.908 1.006,16.514 1.002,16.066 C1.001,16.044 1,16.022 1,16 C1,15.983 1,15.966 1.001,15.949 C1,15.726 1,15.49 1,15.241 L1,6.759 C1,6.51 1,6.274 1.001,6.051 C1,6.034 1,6.017 1,6 C1,5.978 1.001,5.956 1.002,5.934 C1.006,5.486 1.016,5.092 1.044,4.748 C1.09,4.186 1.189,3.669 1.436,3.184 C1.819,2.431 2.431,1.819 3.184,1.436 C3.669,1.189 4.186,1.09 4.748,1.044 C5.289,1 5.954,1 6.758,1 L10.432,1 C10.684,1 10.93,1 11.138,1.017 C11.367,1.036 11.637,1.08 11.908,1.218 C12.284,1.41 12.59,1.716 12.782,2.092 C12.92,2.363 12.964,2.633 12.983,2.862 C12.987,2.906 12.99,2.952 12.992,3 Z M13,9 L13,17 L21,17 L21,9 Z M11,7 L3,7 L3,15 L11,15 Z M16,5 L13,5 L13,7 L16,7 Z M11,19 L11,17 L8,17 L8,19 Z M10.975,3.01 C10.859,3.001 10.696,3 10.4,3 L8,3 L8,5 L11,5 L11,3.6 C11,3.303 10.999,3.141 10.99,3.025 C10.989,3.02 10.989,3.016 10.989,3.011 C10.984,3.011 10.98,3.011 10.975,3.01 Z M16,21 L16,19 L13,19 L13,20.4 C13,20.697 13.001,20.859 13.01,20.975 C13.011,20.98 13.011,20.984 13.011,20.989 C13.016,20.989 13.02,20.989 13.025,20.99 C13.141,20.999 13.304,21 13.6,21 Z M3.031,5 L6,5 L6,3.002 C5.554,3.005 5.205,3.014 4.911,3.038 C4.473,3.073 4.248,3.138 4.092,3.218 C3.716,3.41 3.41,3.716 3.218,4.092 C3.138,4.248 3.073,4.473 3.038,4.911 C3.035,4.94 3.033,4.97 3.031,5 Z M6,17 L3.031,17 C3.033,17.03 3.035,17.06 3.038,17.089 C3.073,17.527 3.138,17.752 3.218,17.908 C3.41,18.284 3.716,18.59 4.092,18.782 C4.248,18.862 4.473,18.927 4.911,18.962 C5.205,18.986 5.554,18.995 6,18.998 Z M18,7 L20.969,7 C20.967,6.97 20.965,6.94 20.962,6.911 C20.927,6.473 20.862,6.248 20.782,6.092 C20.59,5.716 20.284,5.41 19.908,5.218 C19.752,5.138 19.527,5.073 19.089,5.038 C18.795,5.014 18.445,5.005 18,5.002 Z M20.969,19 L18,19 L18,20.998 C18.445,20.995 18.795,20.986 19.089,20.962 C19.527,20.927 19.752,20.862 19.908,20.782 C20.284,20.59 20.59,20.284 20.782,19.908 C20.862,19.752 20.927,19.527 20.962,19.089 C20.965,19.06 20.967,19.03 20.969,19 Z"/>
</svg>
