<svg xmlns="http://www.w3.org/2000/svg" width="24" height="24" viewBox="0 0 24 24">
  <defs/>
  <path d="M4.578,2 L19.467,2 C19.995,2 20.458,2 20.822,2.033 C21.17,2.064 21.649,2.138 22.037,2.458 C22.518,2.855 22.786,3.455 22.762,4.079 C22.742,4.582 22.477,4.988 22.268,5.268 C22.05,5.561 21.741,5.906 21.389,6.3 L15.653,12.711 C15.572,12.802 15.532,12.847 15.504,12.88 C15.503,12.881 15.503,12.882 15.502,12.883 L15.502,12.886 C15.5,12.93 15.5,12.99 15.5,13.111 L15.5,18.458 C15.5,18.469 15.5,18.482 15.5,18.496 C15.502,18.634 15.505,18.919 15.405,19.186 C15.321,19.41 15.186,19.611 15.009,19.772 C14.798,19.963 14.532,20.066 14.404,20.116 C14.39,20.121 14.378,20.126 14.368,20.13 L10.94,21.501 C10.781,21.564 10.606,21.635 10.451,21.681 C10.284,21.731 10.01,21.796 9.695,21.73 C9.308,21.65 8.968,21.42 8.75,21.09 C8.571,20.821 8.53,20.543 8.514,20.37 C8.5,20.209 8.5,20.02 8.5,19.849 L8.5,19.848 L8.5,13.111 C8.5,12.99 8.5,12.93 8.498,12.886 L8.498,12.883 C8.497,12.882 8.496,12.881 8.495,12.88 C8.468,12.847 8.428,12.802 8.347,12.711 L2.641,6.334 C2.631,6.322 2.621,6.311 2.611,6.3 C2.258,5.906 1.949,5.561 1.731,5.268 C1.522,4.988 1.258,4.582 1.238,4.079 C1.213,3.455 1.481,2.855 1.963,2.458 C2.351,2.138 2.829,2.064 3.178,2.033 C3.541,2 4.004,2 4.533,2 L4.578,2 Z M3.303,4.03 C3.313,4.043 3.324,4.058 3.335,4.074 C3.493,4.285 3.74,4.563 4.131,5 L9.837,11.378 C9.848,11.389 9.858,11.401 9.869,11.413 C9.986,11.543 10.134,11.708 10.244,11.904 C10.34,12.074 10.41,12.257 10.452,12.448 C10.501,12.667 10.5,12.888 10.5,13.064 C10.5,13.08 10.5,13.096 10.5,13.111 L10.5,19.523 L13.5,18.323 L13.5,13.064 C13.499,12.888 13.499,12.667 13.547,12.448 C13.59,12.257 13.66,12.074 13.755,11.904 C13.865,11.708 14.013,11.543 14.131,11.413 C14.141,11.401 14.152,11.389 14.162,11.378 L19.868,5 C20.26,4.563 20.507,4.285 20.664,4.074 C20.676,4.058 20.687,4.043 20.696,4.03 C20.68,4.028 20.662,4.026 20.642,4.025 C20.38,4.001 20.008,4 19.421,4 L4.578,4 C3.991,4 3.62,4.001 3.357,4.025 C3.338,4.026 3.32,4.028 3.303,4.03 Z"/>
</svg>
