<svg xmlns="http://www.w3.org/2000/svg" width="24" height="24" viewBox="0 0 24 24">
  <defs/>
  <path d="M3.568,2 L20.432,2 L20.432,2 C20.684,2 20.93,2 21.138,2.017 C21.367,2.036 21.636,2.08 21.908,2.218 C22.284,2.41 22.59,2.716 22.782,3.092 C22.92,3.363 22.964,3.633 22.983,3.862 C23,4.07 23,4.316 23,4.568 L23,5.269 C23,5.288 23,5.306 23,5.326 L23,5.326 C23.001,5.534 23.001,5.796 22.934,6.052 C22.876,6.273 22.78,6.483 22.651,6.672 C22.502,6.89 22.303,7.062 22.145,7.197 C22.131,7.21 22.117,7.222 22.103,7.234 L15.707,12.777 C15.598,12.871 15.544,12.919 15.506,12.955 C15.505,12.956 15.504,12.957 15.503,12.958 L15.503,12.962 C15.5,13.014 15.5,13.087 15.5,13.231 L15.5,18.458 C15.5,18.469 15.5,18.482 15.5,18.496 L15.5,18.497 C15.502,18.635 15.505,18.92 15.405,19.186 C15.322,19.41 15.186,19.611 15.009,19.772 C14.798,19.963 14.532,20.066 14.404,20.116 C14.391,20.121 14.379,20.126 14.368,20.13 L10.969,21.49 C10.959,21.493 10.95,21.497 10.941,21.501 C10.782,21.564 10.606,21.635 10.451,21.681 C10.284,21.731 10.011,21.796 9.695,21.73 C9.308,21.65 8.968,21.42 8.75,21.09 C8.572,20.821 8.53,20.543 8.514,20.37 C8.5,20.209 8.5,20.02 8.5,19.849 L8.5,19.848 L8.5,13.231 C8.5,13.087 8.5,13.014 8.497,12.962 L8.497,12.958 C8.496,12.957 8.495,12.956 8.494,12.955 C8.456,12.919 8.402,12.871 8.293,12.777 L1.897,7.234 C1.883,7.222 1.869,7.21 1.855,7.197 C1.697,7.061 1.498,6.89 1.349,6.672 C1.22,6.483 1.124,6.273 1.066,6.052 C0.999,5.796 0.999,5.534 1,5.326 C1,5.306 1,5.288 1,5.269 L1,4.6 L1,4.568 C1,4.316 1,4.07 1.017,3.862 C1.036,3.633 1.08,3.363 1.218,3.092 C1.41,2.716 1.716,2.41 2.092,2.218 C2.363,2.08 2.633,2.036 2.862,2.017 C3.07,2 3.316,2 3.568,2 Z M3.011,4.011 C3.011,4.016 3.011,4.02 3.01,4.025 C3.001,4.141 3,4.303 3,4.6 L3,5.269 C3,5.413 3,5.485 3.003,5.538 L3.003,5.542 C3.004,5.543 3.005,5.544 3.006,5.545 C3.044,5.581 3.098,5.629 3.207,5.723 L9.603,11.266 C9.617,11.278 9.631,11.29 9.645,11.302 C9.803,11.439 10.002,11.61 10.151,11.828 C10.28,12.017 10.376,12.227 10.434,12.448 C10.501,12.704 10.501,12.966 10.5,13.174 L10.5,13.174 C10.5,13.194 10.5,13.212 10.5,13.231 L10.5,19.523 L13.5,18.323 L13.5,13.231 C13.5,13.212 13.5,13.194 13.5,13.174 L13.5,13.174 C13.499,12.966 13.499,12.704 13.566,12.448 C13.624,12.227 13.72,12.017 13.849,11.828 C13.998,11.61 14.197,11.439 14.355,11.302 C14.369,11.29 14.383,11.278 14.397,11.266 L20.793,5.723 C20.902,5.629 20.956,5.581 20.994,5.545 C20.995,5.544 20.996,5.543 20.997,5.542 L20.997,5.538 C21,5.485 21,5.413 21,5.269 L21,4.6 C21,4.303 20.999,4.141 20.99,4.025 C20.989,4.02 20.989,4.016 20.989,4.011 C20.984,4.011 20.98,4.011 20.975,4.01 C20.859,4.001 20.697,4 20.4,4 L3.6,4 C3.303,4 3.141,4.001 3.025,4.01 C3.02,4.011 3.016,4.011 3.011,4.011 Z"/>
</svg>
