<svg xmlns="http://www.w3.org/2000/svg" width="24" height="24" viewBox="0 0 24 24">
  <defs/>
  <path d="M11.999,9.109 C9.179,9.109 6.893,11.396 6.893,14.219 C6.893,16.612 7.643,18.826 8.919,20.647 C9.236,21.1 9.126,21.723 8.674,22.04 C8.222,22.357 7.598,22.247 7.281,21.795 C5.778,19.649 4.893,17.037 4.893,14.219 C4.893,10.292 8.074,7.109 11.999,7.109 C15.924,7.109 19.105,10.292 19.105,14.219 C19.105,14.771 18.657,15.219 18.105,15.219 C17.553,15.219 17.105,14.771 17.105,14.219 C17.105,11.396 14.818,9.109 11.999,9.109 Z"/>
  <path d="M11.999,9.109 C9.179,9.109 6.893,11.396 6.893,14.219 C6.893,16.612 7.643,18.826 8.919,20.647 C9.236,21.1 9.126,21.723 8.674,22.04 C8.222,22.357 7.598,22.247 7.281,21.795 C5.778,19.649 4.893,17.037 4.893,14.219 C4.893,10.292 8.074,7.109 11.999,7.109 C15.924,7.109 19.105,10.292 19.105,14.219 C19.105,14.771 18.657,15.219 18.105,15.219 C17.553,15.219 17.105,14.771 17.105,14.219 C17.105,11.396 14.818,9.109 11.999,9.109 Z"/>
  <path d="M12.001,13.219 C12.553,13.219 13.001,13.667 13.001,14.219 C13.001,17.041 15.287,19.328 18.107,19.328 C18.153,19.328 18.185,19.326 18.239,19.322 C18.274,19.32 18.318,19.317 18.38,19.313 C18.932,19.283 19.404,19.705 19.434,20.256 C19.465,20.808 19.043,21.28 18.491,21.31 C18.479,21.311 18.462,21.312 18.44,21.313 C18.36,21.319 18.224,21.328 18.107,21.328 C14.182,21.328 11.001,18.145 11.001,14.219 C11.001,13.667 11.448,13.219 12.001,13.219 Z"/>
  <path d="M12.001,13.219 C12.553,13.219 13.001,13.667 13.001,14.219 C13.001,17.041 15.288,19.328 18.107,19.328 C18.153,19.328 18.185,19.326 18.24,19.322 C18.274,19.32 18.318,19.317 18.381,19.313 C18.932,19.283 19.404,19.705 19.435,20.256 C19.465,20.808 19.043,21.28 18.492,21.31 C18.479,21.311 18.462,21.312 18.441,21.313 C18.36,21.319 18.224,21.328 18.107,21.328 C14.182,21.328 11.001,18.145 11.001,14.219 C11.001,13.667 11.449,13.219 12.001,13.219 Z"/>
  <path d="M1.842,14.219 C1.842,8.605 6.391,4.055 12.002,4.055 C17.613,4.055 22.162,8.605 22.162,14.219 C22.162,16.458 20.347,18.273 18.108,18.273 C15.869,18.273 14.054,16.458 14.054,14.219 C14.054,13.084 13.134,12.164 12.001,12.164 C10.867,12.164 9.947,13.084 9.947,14.219 C9.947,17.143 11.484,19.708 13.799,21.151 C14.267,21.444 14.41,22.06 14.118,22.529 C13.826,22.998 13.209,23.141 12.74,22.848 C9.865,21.056 7.947,17.862 7.947,14.219 C7.947,11.979 9.762,10.164 12.001,10.164 C14.239,10.164 16.054,11.979 16.054,14.219 C16.054,15.354 16.974,16.273 18.108,16.273 C19.242,16.273 20.162,15.354 20.162,14.219 C20.162,9.709 16.508,6.055 12.002,6.055 C7.496,6.055 3.842,9.709 3.842,14.219 C3.842,15.272 3.96,16.299 4.177,17.29 C4.295,17.83 3.954,18.363 3.414,18.481 C2.875,18.6 2.342,18.258 2.223,17.719 C1.976,16.592 1.842,15.422 1.842,14.219 Z"/>
  <path d="M1.842,14.219 C1.842,8.605 6.391,4.055 12.002,4.055 C17.613,4.055 22.162,8.605 22.162,14.219 C22.162,16.458 20.347,18.273 18.108,18.273 C15.869,18.273 14.054,16.458 14.054,14.219 C14.054,13.084 13.134,12.164 12.001,12.164 C10.867,12.164 9.947,13.084 9.947,14.219 C9.947,17.143 11.484,19.708 13.799,21.151 C14.267,21.444 14.41,22.06 14.118,22.529 C13.826,22.998 13.209,23.141 12.74,22.848 C9.865,21.056 7.947,17.862 7.947,14.219 C7.947,11.979 9.762,10.164 12.001,10.164 C14.239,10.164 16.054,11.979 16.054,14.219 C16.054,15.354 16.974,16.273 18.108,16.273 C19.242,16.273 20.162,15.354 20.162,14.219 C20.162,9.709 16.508,6.055 12.002,6.055 C7.496,6.055 3.842,9.709 3.842,14.219 C3.842,15.272 3.96,16.299 4.177,17.29 C4.295,17.83 3.954,18.363 3.414,18.481 C2.875,18.6 2.342,18.258 2.223,17.719 C1.976,16.592 1.842,15.422 1.842,14.219 Z"/>
  <path d="M2.724,5.202 C4.987,2.632 8.3,1 12,1 C15.7,1 19.013,2.632 21.276,5.202 C21.641,5.617 21.601,6.249 21.187,6.614 C20.772,6.979 20.14,6.938 19.775,6.524 C17.874,4.364 15.098,3 12,3 C8.902,3 6.127,4.364 4.225,6.524 C3.86,6.938 3.228,6.979 2.814,6.614 C2.399,6.249 2.359,5.617 2.724,5.202 Z"/>
  <path d="M2.724,5.202 C4.987,2.632 8.3,1 12,1 C15.7,1 19.013,2.632 21.276,5.202 C21.641,5.617 21.601,6.249 21.187,6.614 C20.772,6.979 20.14,6.938 19.775,6.524 C17.874,4.364 15.098,3 12,3 C8.902,3 6.127,4.364 4.225,6.524 C3.86,6.938 3.228,6.979 2.814,6.614 C2.399,6.249 2.359,5.617 2.724,5.202 Z"/>
</svg>
