<svg xmlns="http://www.w3.org/2000/svg" width="24" height="24" viewBox="0 0 24 24">
  <defs/>
  <path d="M7.499,3.205 C8.824,2.438 10.362,2 12,2 C16.971,2 21,6.029 21,11 C21,13.567 20.642,16.051 19.971,18.406 C19.82,18.937 19.267,19.245 18.736,19.094 C18.205,18.943 17.897,18.389 18.048,17.858 C18.668,15.68 19,13.38 19,11 C19,7.134 15.866,4 12,4 C10.723,4 9.529,4.341 8.501,4.936 C8.023,5.212 7.411,5.049 7.134,4.571 C6.858,4.093 7.021,3.481 7.499,3.205 Z M7,11 C7,8.239 9.238,6 12,6 C14.761,6 17,8.239 17,11 C17,12.062 16.928,13.109 16.787,14.135 C16.713,14.682 16.208,15.066 15.661,14.991 C15.114,14.916 14.731,14.412 14.806,13.865 C14.934,12.928 15,11.972 15,11 C15,9.343 13.657,8 12,8 C10.343,8 9,9.343 9,11 C9,13.936 8.16,16.666 6.708,18.974 C6.694,18.996 6.68,19.018 6.667,19.041 C6.385,19.516 5.771,19.672 5.296,19.39 C4.821,19.108 4.665,18.495 4.947,18.02 C4.969,17.983 4.992,17.946 5.015,17.909 C6.272,15.91 7,13.548 7,11 Z M12,10 C12.552,10 13,10.448 13,11 C13,14.711 11.935,18.177 10.094,21.104 C9.799,21.571 9.182,21.712 8.715,21.418 C8.247,21.124 8.107,20.506 8.401,20.039 C10.047,17.421 11,14.323 11,11 C11,10.448 11.448,10 12,10 Z M5.571,6.134 C6.049,6.411 6.212,7.023 5.936,7.501 C5.341,8.529 5,9.723 5,11 C5,12.719 4.605,14.349 3.899,15.801 C3.658,16.298 3.06,16.505 2.563,16.264 C2.066,16.022 1.859,15.424 2.101,14.927 C2.676,13.742 3,12.41 3,11 C3,9.362 3.438,7.824 4.205,6.499 C4.481,6.021 5.093,5.858 5.571,6.134 Z M15.443,16.038 C15.974,16.188 16.283,16.741 16.133,17.272 C15.737,18.67 15.213,20.015 14.573,21.292 C14.326,21.785 13.725,21.985 13.231,21.738 C12.738,21.49 12.538,20.889 12.785,20.396 C13.369,19.23 13.847,18.003 14.208,16.728 C14.359,16.196 14.912,15.887 15.443,16.038 Z"/>
</svg>
