<svg xmlns="http://www.w3.org/2000/svg" width="24" height="24" viewBox="0 0 24 24">
  <defs/>
  <path d="M6.877,2.599 C8.332,1.591 10.098,1 12,1 C16.971,1 21,5.029 21,10 L21,11.237 C21,11.789 20.552,12.237 20,12.237 C19.448,12.237 19,11.789 19,11.237 L19,10 C19,6.134 15.866,3 12,3 C10.519,3 9.147,3.459 8.017,4.243 C7.563,4.558 6.94,4.445 6.625,3.991 C6.311,3.537 6.423,2.914 6.877,2.599 Z M4.735,6.498 C5.259,6.675 5.54,7.242 5.364,7.765 C5.128,8.466 5,9.217 5,10 L5,14 C5,17.179 7.12,19.865 10.026,20.718 C10.555,20.873 10.859,21.429 10.703,21.959 C10.548,22.489 9.992,22.792 9.462,22.637 C5.728,21.542 3,18.091 3,14 L3,10 C3,8.997 3.164,8.031 3.469,7.127 C3.645,6.604 4.212,6.322 4.735,6.498 Z M16.5,10.04 C17.052,10.04 17.5,10.488 17.5,11.04 L17.5,14 C17.5,17.038 15.038,19.5 12,19.5 C10.964,19.5 9.993,19.213 9.164,18.713 C8.691,18.428 8.539,17.813 8.824,17.34 C9.109,16.868 9.723,16.715 10.196,17 C10.722,17.317 11.338,17.5 12,17.5 C13.933,17.5 15.5,15.933 15.5,14 L15.5,11.04 C15.5,10.488 15.948,10.04 16.5,10.04 Z M6.5,10 C6.5,6.962 8.962,4.5 12,4.5 C13.038,4.5 14.012,4.789 14.842,5.291 C15.315,5.576 15.466,6.191 15.181,6.664 C14.895,7.136 14.28,7.288 13.808,7.002 C13.281,6.684 12.663,6.5 12,6.5 C10.067,6.5 8.5,8.067 8.5,10 L8.5,12.95 C8.5,13.502 8.052,13.95 7.5,13.95 C6.948,13.95 6.5,13.502 6.5,12.95 Z M19.948,15.361 C20.477,15.521 20.776,16.08 20.616,16.608 C19.795,19.324 17.728,21.495 15.079,22.459 C14.56,22.648 13.986,22.381 13.797,21.862 C13.608,21.343 13.876,20.769 14.395,20.58 C16.454,19.83 18.064,18.139 18.702,16.029 C18.861,15.501 19.42,15.202 19.948,15.361 Z M12,9 C12.552,9 13,9.448 13,10 L13,14 C13,14.552 12.552,15 12,15 C11.448,15 11,14.552 11,14 L11,10 C11,9.448 11.448,9 12,9 Z"/>
</svg>
