<svg xmlns="http://www.w3.org/2000/svg" width="24" height="24" viewBox="0 0 24 24">
  <defs/>
  <path d="M12,3 C10.329,3 8.766,3.455 7.427,4.246 C6.952,4.528 6.338,4.37 6.057,3.895 C5.776,3.419 5.934,2.806 6.409,2.525 C8.048,1.556 9.961,1 12,1 C18.075,1 23,5.925 23,12 C23,12.036 23,12.073 23,12.109 C22.994,12.661 22.542,13.105 21.99,13.099 C21.438,13.094 20.994,12.642 21,12.09 C21,12.06 21,12.03 21,12 C21,7.029 16.971,3 12,3 Z M3.889,6.065 C4.365,6.345 4.523,6.958 4.242,7.434 C3.453,8.772 3,10.332 3,12 C3,16.192 5.867,19.717 9.749,20.716 C10.284,20.854 10.606,21.399 10.468,21.934 C10.331,22.469 9.786,22.791 9.251,22.653 C4.507,21.432 1,17.127 1,12 C1,9.964 1.554,8.055 2.52,6.418 C2.801,5.942 3.414,5.784 3.889,6.065 Z M12,7 C9.239,7 7,9.239 7,12 C7,12.617 7.111,13.207 7.314,13.75 C7.508,14.267 7.245,14.843 6.728,15.037 C6.21,15.23 5.634,14.967 5.441,14.45 C5.156,13.686 5,12.86 5,12 C5,8.134 8.134,5 12,5 C12.855,5 13.677,5.154 14.438,5.436 C14.955,5.629 15.219,6.204 15.027,6.722 C14.834,7.24 14.259,7.504 13.741,7.311 C13.2,7.11 12.614,7 12,7 Z M17.276,8.97 C17.794,8.778 18.37,9.041 18.562,9.559 C18.846,10.32 19,11.143 19,12 C19,15.866 15.866,19 12,19 C11.15,19 10.334,18.848 9.578,18.569 C9.06,18.378 8.794,17.803 8.986,17.285 C9.177,16.767 9.752,16.502 10.27,16.693 C10.808,16.891 11.39,17 12,17 C14.761,17 17,14.761 17,12 C17,11.385 16.889,10.798 16.688,10.256 C16.495,9.739 16.759,9.163 17.276,8.97 Z M21.2,16.05 C21.681,16.323 21.85,16.933 21.578,17.413 C20.126,19.977 17.675,21.9 14.749,22.653 C14.214,22.791 13.669,22.469 13.532,21.934 C13.394,21.399 13.716,20.854 14.251,20.716 C16.64,20.102 18.648,18.528 19.837,16.428 C20.11,15.947 20.72,15.778 21.2,16.05 Z M12,9 C12.552,9 13,9.448 13,10 L13,14 C13,14.552 12.552,15 12,15 C11.448,15 11,14.552 11,14 L11,10 C11,9.448 11.448,9 12,9 Z"/>
</svg>
