<svg xmlns="http://www.w3.org/2000/svg" width="24" height="24" viewBox="0 0 24 24">
  <defs/>
  <path d="M4.512,1.5 L12.543,1.5 L12.543,1.5 C12.795,1.5 13.041,1.5 13.249,1.517 C13.478,1.536 13.748,1.58 14.019,1.718 C14.396,1.91 14.701,2.216 14.893,2.592 C15.031,2.863 15.075,3.133 15.094,3.362 C15.111,3.57 15.111,3.816 15.111,4.068 L15.111,5.722 L20.173,5.722 C20.368,5.722 20.576,5.722 20.751,5.738 C20.932,5.755 21.24,5.798 21.526,6.004 C21.868,6.25 22.091,6.629 22.14,7.048 C22.181,7.398 22.07,7.689 21.997,7.855 C21.926,8.015 21.824,8.198 21.73,8.368 L20.298,10.944 L21.714,13.493 L21.73,13.521 C21.824,13.691 21.926,13.873 21.997,14.034 C22.07,14.2 22.181,14.49 22.14,14.841 C22.091,15.259 21.868,15.638 21.526,15.884 C21.24,16.09 20.932,16.134 20.751,16.151 C20.576,16.167 20.368,16.167 20.173,16.167 L12.508,16.167 C12.257,16.167 12.013,16.167 11.806,16.15 C11.578,16.131 11.308,16.087 11.036,15.949 C10.66,15.757 10.354,15.451 10.163,15.075 C10.024,14.803 9.98,14.533 9.961,14.305 C9.944,14.097 9.944,13.851 9.944,13.599 L9.944,12.496 L5.892,11.944 L8.22,21.258 C8.354,21.794 8.028,22.336 7.493,22.47 C6.957,22.604 6.414,22.279 6.28,21.743 L2.058,4.854 C2.057,4.851 2.056,4.848 2.056,4.846 L2.027,4.731 C2.024,4.719 2.021,4.707 2.018,4.695 C1.941,4.387 1.868,4.096 1.829,3.848 C1.787,3.584 1.763,3.256 1.87,2.909 C2.015,2.442 2.326,2.043 2.744,1.789 C3.055,1.601 3.379,1.546 3.645,1.522 C3.895,1.5 4.195,1.5 4.512,1.5 Z M2.056,4.846 L5.892,11.944 L9.944,11.944 L9.944,12.496 L11.944,12.768 L11.944,11.944 L12.543,11.944 C12.795,11.944 13.041,11.944 13.249,11.927 C13.478,11.909 13.748,11.865 14.019,11.726 C14.396,11.535 14.701,11.229 14.893,10.852 C15.031,10.581 15.075,10.311 15.094,10.083 C15.106,9.937 15.11,9.772 15.111,9.6 L13.111,8.072 L13.111,9.344 C13.111,9.641 13.11,9.803 13.101,9.92 C13.101,9.924 13.1,9.929 13.1,9.933 C13.095,9.933 13.091,9.934 13.087,9.934 C12.97,9.944 12.808,9.944 12.511,9.944 L10.955,9.944 L10.944,9.944 L10.934,9.944 L5.392,9.944 L3.967,4.246 C3.878,3.889 3.828,3.685 3.804,3.536 C3.803,3.529 3.802,3.522 3.801,3.516 C3.808,3.515 3.815,3.515 3.822,3.514 C3.972,3.501 4.182,3.5 4.549,3.5 L7.129,3.5 L4.512,1.5 Z M7.129,3.5 L13.111,8.072 L13.111,4.1 C13.111,3.803 13.11,3.641 13.101,3.525 C13.101,3.52 13.1,3.516 13.1,3.511 C13.095,3.511 13.091,3.511 13.087,3.51 C12.97,3.501 12.808,3.5 12.511,3.5 L7.129,3.5 Z M15.111,9.6 L18.852,12.459 L18.496,11.819 C18.492,11.811 18.486,11.801 18.48,11.791 C18.424,11.691 18.306,11.483 18.257,11.247 C18.216,11.047 18.216,10.842 18.257,10.642 C18.306,10.406 18.424,10.198 18.48,10.098 C18.486,10.087 18.492,10.078 18.496,10.07 L19.801,7.722 L15.111,7.722 L15.111,9.376 C15.111,9.452 15.111,9.526 15.111,9.6 Z M19.801,14.167 L19.602,13.81 L11.944,12.768 L11.944,13.567 C11.944,13.863 11.945,14.025 11.955,14.142 C11.955,14.147 11.955,14.151 11.956,14.155 C11.96,14.156 11.965,14.156 11.969,14.156 C12.086,14.166 12.248,14.167 12.545,14.167 L19.801,14.167 Z M18.852,12.459 L19.602,13.81 L20.84,13.978 L18.852,12.459 Z"/>
</svg>
