<svg xmlns="http://www.w3.org/2000/svg" width="24" height="24" viewBox="0 0 24 24">
  <defs/>
  <path d="M19,4.603 L19,14.462 C18.931,14.496 18.849,14.533 18.754,14.571 C18.26,14.769 17.387,15 16,15 C14.719,15 13.639,14.579 12.371,14.071 L12.316,14.049 C11.097,13.561 9.693,13 8,13 C6.708,13 5.728,13.173 5,13.397 L5,3.538 C5.069,3.504 5.151,3.467 5.246,3.428 C5.741,3.231 6.613,3 8,3 C9.281,3 10.361,3.421 11.629,3.928 C11.647,3.936 11.666,3.943 11.684,3.951 C12.903,4.439 14.307,5 16,5 C17.292,5 18.272,4.827 19,4.603 Z M4.504,1.572 L4,3 C3.293,2.293 3.293,2.292 3.294,2.292 L3.295,2.291 L3.297,2.289 L3.302,2.284 L3.313,2.274 C3.32,2.266 3.329,2.258 3.339,2.249 C3.359,2.231 3.384,2.209 3.413,2.185 C3.472,2.137 3.55,2.078 3.648,2.012 C3.846,1.88 4.127,1.722 4.504,1.572 C5.259,1.269 6.387,1 8,1 C9.693,1 11.097,1.561 12.316,2.049 C12.334,2.057 12.353,2.064 12.371,2.072 C12.628,2.174 12.876,2.273 13.121,2.366 L17.954,2.811 C18.289,2.738 18.553,2.652 18.754,2.572 C19.002,2.472 19.159,2.38 19.242,2.324 C19.284,2.297 19.307,2.278 19.315,2.271 L19.316,2.271 L19.318,2.269 C19.317,2.27 19.316,2.27 19.315,2.271 L19.307,2.279 L19.301,2.285 L19.297,2.289 L19.295,2.291 L19.294,2.292 C19.293,2.292 19.293,2.293 20,3 L17.954,2.811 C17.465,2.919 16.823,3 16,3 C14.978,3 14.084,2.732 13.121,2.366 Z"/>
</svg>
