<svg xmlns="http://www.w3.org/2000/svg" width="24" height="24" viewBox="0 0 24 24">
  <defs/>
  <path d="M19.234,4 L5,4 L5,12 L6.236,12 L3,13.001 L3,3 C3,2.735 3.105,2.48 3.293,2.293 C3.48,2.105 3.735,2 4,2 L19.62,2 C19.822,2 20.036,2 20.215,2.016 C20.397,2.033 20.714,2.077 21.005,2.291 C21.35,2.545 21.571,2.934 21.61,3.361 C21.644,3.72 21.519,4.014 21.44,4.179 C21.362,4.341 21.251,4.525 21.147,4.698 C21.142,4.707 21.136,4.717 21.131,4.726 L19.166,8 L19.074,7.847 L19.051,7.808 L19.037,7.783 L19.031,7.773 C19.033,7.776 19.038,7.786 19.044,7.802 C19.049,7.813 19.053,7.827 19.058,7.842 C19.063,7.858 19.067,7.875 19.072,7.893 C19.073,7.9 19.074,7.907 19.076,7.914 C19.082,7.951 19.084,7.989 19.082,8.026 L17.213,8.604 C17.175,8.519 17.14,8.423 17.118,8.322 Z M3,13.001 L21.61,12.639 C21.571,13.066 21.35,13.455 21.005,13.709 C20.714,13.923 20.397,13.967 20.215,13.984 C20.036,14 19.822,14 19.62,14 L5,14 L5,21 C5,21.552 4.552,22 4,22 C3.448,22 3,21.552 3,21 Z M17.213,8.604 C17.27,8.731 17.333,8.834 17.372,8.897 C17.378,8.908 17.384,8.918 17.389,8.926 L19.234,12 L6.236,12 L17.213,8.604 Z M19.234,4 L17.118,7.678 C17.173,7.427 17.307,7.208 17.372,7.103 C17.378,7.092 17.384,7.082 17.389,7.074 Z M17.118,7.678 L17.118,8.322 C17.072,8.11 17.072,7.89 17.118,7.678 Z M19.166,8 L19.074,8.153 L19.051,8.192 L19.037,8.217 L19.031,8.227 C19.033,8.224 19.038,8.214 19.044,8.198 C19.049,8.187 19.053,8.174 19.058,8.158 C19.063,8.142 19.067,8.125 19.072,8.107 C19.073,8.1 19.074,8.093 19.076,8.086 C19.079,8.066 19.081,8.046 19.082,8.026 L19.166,8 Z"/>
</svg>
