<svg xmlns="http://www.w3.org/2000/svg" width="24" height="24" viewBox="0 0 24 24">
  <defs/>
  <path d="M4,1 C4.552,1 5,1.448 5,2 L5,2.397 C5.728,2.173 6.708,2 8,2 C9.693,2 11.097,2.561 12.316,3.049 C12.334,3.057 12.353,3.064 12.371,3.072 C13.639,3.579 14.719,4 16,4 C17.387,4 18.26,3.769 18.754,3.572 C19.002,3.472 19.159,3.38 19.242,3.324 C19.284,3.297 19.307,3.278 19.315,3.271 C19.601,3.003 20.019,2.925 20.383,3.076 C20.756,3.231 21,3.596 21,4 L21,15 C21,15.265 20.895,15.52 20.707,15.707 L20,15 C20.707,15.707 20.707,15.708 20.706,15.708 L20.705,15.709 L20.703,15.711 L20.698,15.716 L20.687,15.726 C20.68,15.734 20.671,15.742 20.661,15.751 C20.641,15.769 20.616,15.791 20.587,15.815 C20.528,15.863 20.45,15.922 20.352,15.988 C20.154,16.12 19.873,16.278 19.496,16.428 C18.74,16.731 17.613,17 16,17 C14.307,17 12.903,16.438 11.684,15.951 L11.629,15.929 C10.361,15.421 9.281,15 8,15 C6.613,15 5.741,15.231 5.246,15.429 C5.151,15.467 5.069,15.504 5,15.538 L5,22 C5,22.552 4.552,23 4,23 C3.448,23 3,22.552 3,22 L3,2 C3,1.448 3.448,1 4,1 Z M5,4.538 L5,13.397 C5.728,13.173 6.708,13 8,13 C9.693,13 11.097,13.561 12.316,14.049 L12.371,14.071 C13.639,14.579 14.719,15 16,15 C17.387,15 18.26,14.769 18.754,14.571 C18.849,14.533 18.931,14.496 19,14.462 L19,5.603 C18.272,5.827 17.292,6 16,6 C14.307,6 12.903,5.439 11.684,4.951 C11.666,4.943 11.647,4.936 11.629,4.928 C10.361,4.421 9.281,4 8,4 C6.613,4 5.741,4.231 5.246,4.428 C5.151,4.467 5.069,4.504 5,4.538 Z"/>
</svg>
