<svg xmlns="http://www.w3.org/2000/svg" width="24" height="24" viewBox="0 0 24 24">
  <defs/>
  <path d="M4.568,1.5 L4.6,1.5 L11.932,1.5 L11.932,1.5 C12.184,1.5 12.43,1.5 12.638,1.517 C12.867,1.536 13.137,1.58 13.408,1.718 C13.784,1.91 14.09,2.216 14.282,2.592 C14.42,2.863 14.464,3.133 14.483,3.362 C14.5,3.569 14.5,3.813 14.5,4.064 L14.5,5.358 L14.866,5.5 L19.737,5.5 L19.737,5.5 C19.924,5.5 20.125,5.5 20.295,5.515 C20.473,5.532 20.771,5.575 21.051,5.771 C21.389,6.007 21.615,6.373 21.675,6.781 C21.725,7.119 21.631,7.404 21.565,7.571 C21.503,7.73 21.413,7.91 21.33,8.077 L21.316,8.105 L20.105,10.525 L21.414,13.469 C21.418,13.478 21.422,13.488 21.426,13.497 C21.499,13.66 21.578,13.837 21.631,13.994 C21.688,14.161 21.766,14.44 21.707,14.766 C21.635,15.163 21.407,15.514 21.073,15.741 C20.799,15.927 20.513,15.969 20.337,15.985 C20.172,16 19.978,16 19.8,16 L12.064,16 C11.813,16 11.569,16 11.362,15.983 C11.133,15.964 10.863,15.92 10.592,15.782 C10.216,15.59 9.91,15.284 9.718,14.908 C9.58,14.637 9.536,14.367 9.517,14.138 C9.5,13.93 9.5,13.684 9.5,13.432 L9.5,13.432 L9.5,12 L4,12 L4,21 C4,21.552 3.552,22 3,22 C2.448,22 2,21.552 2,21 L2,4.1 L2,4.068 L2,4.004 L2,3.5 C2,3.423 2.009,3.349 2.025,3.277 C2.048,3.068 2.096,2.831 2.218,2.592 C2.41,2.216 2.716,1.91 3.092,1.718 C3.363,1.58 3.633,1.536 3.862,1.517 C4.07,1.5 4.316,1.5 4.568,1.5 Z M11.5,12 L11.5,13.4 C11.5,13.696 11.501,13.859 11.51,13.975 C11.511,13.98 11.511,13.984 11.512,13.989 C11.516,13.989 11.52,13.989 11.525,13.99 C11.641,13.999 11.804,14 12.1,14 L19.461,14 L18.24,11.251 C18.236,11.244 18.233,11.236 18.228,11.226 C18.187,11.136 18.102,10.949 18.07,10.742 C18.043,10.567 18.047,10.389 18.082,10.216 C18.124,10.011 18.217,9.828 18.262,9.739 C18.267,9.73 18.271,9.722 18.274,9.715 L19.026,8.213 L14.491,10.016 C14.489,10.058 14.486,10.099 14.483,10.138 C14.464,10.367 14.42,10.637 14.282,10.908 C14.15,11.167 13.963,11.394 13.737,11.572 C13.635,11.652 13.525,11.722 13.408,11.782 C13.137,11.92 12.867,11.964 12.638,11.983 C12.431,12 12.187,12 11.936,12 Z M9.5,12 L14.491,10.016 C14.5,9.838 14.5,9.639 14.5,9.436 L14.5,7.5 L19.382,7.5 L19.026,8.213 L20.421,7.658 L14.866,5.5 L14.5,5.5 L14.5,5.358 L12.5,4.581 L12.5,9.4 C12.5,9.697 12.499,9.859 12.49,9.975 C12.489,9.98 12.489,9.984 12.489,9.989 C12.484,9.989 12.48,9.989 12.475,9.99 C12.359,9.999 12.196,10 11.9,10 L8.561,10 L9.5,12 Z M8.561,10 L5.508,3.5 L4.6,3.5 C4.303,3.5 4.141,3.501 4.025,3.51 C4.02,3.511 4.016,3.511 4.011,3.511 C4.011,3.516 4.011,3.52 4.01,3.525 C4.001,3.641 4,3.802 4,4.097 L4,10 L8.561,10 Z M5.508,3.5 L9.717,3.5 L4.568,1.5 L5.508,3.5 Z M12.5,4.1 C12.5,3.803 12.499,3.641 12.49,3.525 C12.489,3.52 12.489,3.516 12.489,3.511 C12.484,3.511 12.48,3.511 12.475,3.51 C12.359,3.501 12.196,3.5 11.9,3.5 L9.717,3.5 L12.5,4.581 Z"/>
</svg>
