<svg xmlns="http://www.w3.org/2000/svg" width="24" height="24" viewBox="0 0 24 24">
  <defs/>
  <path d="M5.568,2 L11.432,2 L11.432,2 C11.684,2 11.93,2 12.138,2.017 C12.367,2.036 12.637,2.08 12.908,2.218 C13.284,2.41 13.59,2.716 13.782,3.092 C13.92,3.363 13.964,3.633 13.983,3.862 C13.987,3.906 13.99,3.952 13.992,4 L19.432,4 L19.432,4 C19.684,4 19.93,4 20.138,4.017 C20.367,4.036 20.637,4.08 20.908,4.218 C21.284,4.41 21.59,4.716 21.782,5.092 C21.92,5.363 21.964,5.633 21.983,5.862 C22,6.069 22,6.313 22,6.564 L22,13.436 C22,13.687 22,13.931 21.983,14.138 C21.964,14.367 21.92,14.637 21.782,14.908 C21.59,15.284 21.284,15.59 20.908,15.782 C20.637,15.92 20.367,15.964 20.138,15.983 C19.931,16 19.687,16 19.436,16 L14.564,16 C14.313,16 14.069,16 13.862,15.983 C13.633,15.964 13.363,15.92 13.092,15.782 C12.716,15.59 12.41,15.284 12.218,14.908 C12.08,14.637 12.036,14.367 12.017,14.138 C12.013,14.091 12.01,14.042 12.008,13.991 C11.833,14 11.638,14 11.439,14 L5,14 L5,21 C5,21.552 4.552,22 4,22 C3.448,22 3,21.552 3,21 L3,4.6 L3,4.568 L3,4.504 L3,4 C3,3.923 3.009,3.849 3.025,3.777 C3.048,3.568 3.096,3.331 3.218,3.092 C3.41,2.716 3.716,2.41 4.092,2.218 C4.363,2.08 4.633,2.036 4.862,2.017 C5.07,2 5.316,2 5.568,2 Z M5,12 L11.4,12 C11.696,12 11.859,11.999 11.975,11.99 C11.98,11.989 11.984,11.989 11.989,11.989 C11.989,11.984 11.989,11.98 11.99,11.975 C11.999,11.859 12,11.696 12,11.4 L12,4.6 C12,4.303 11.999,4.141 11.99,4.025 C11.989,4.02 11.989,4.016 11.989,4.011 C11.984,4.011 11.98,4.011 11.975,4.01 C11.859,4.001 11.696,4 11.4,4 L5.6,4 C5.303,4 5.141,4.001 5.025,4.01 C5.02,4.011 5.016,4.011 5.011,4.011 C5.011,4.016 5.011,4.02 5.01,4.025 C5.001,4.141 5,4.302 5,4.597 Z M14,13.4 C14,13.696 14.001,13.859 14.01,13.975 C14.011,13.98 14.011,13.984 14.012,13.989 C14.016,13.989 14.02,13.989 14.025,13.99 C14.141,13.999 14.304,14 14.6,14 L19.4,14 C19.697,14 19.859,13.999 19.975,13.99 C19.98,13.989 19.984,13.989 19.989,13.989 C19.989,13.984 19.989,13.98 19.99,13.975 C19.999,13.859 20,13.696 20,13.4 L20,6.6 C20,6.303 19.999,6.141 19.99,6.025 C19.989,6.02 19.989,6.016 19.989,6.011 C19.984,6.011 19.98,6.011 19.975,6.01 C19.859,6.001 19.697,6 19.4,6 L14,6 L14,13.4 Z"/>
</svg>
