<svg xmlns="http://www.w3.org/2000/svg" width="24" height="24" viewBox="0 0 24 24">
  <defs/>
  <path d="M2.293,2.293 C2.683,1.902 3.317,1.902 3.707,2.293 L8.7,7.286 C8.705,7.291 8.711,7.296 8.716,7.302 L16.7,15.286 C16.705,15.291 16.711,15.296 16.716,15.302 L21.707,20.293 C22.098,20.684 22.098,21.317 21.707,21.707 C21.317,22.098 20.683,22.098 20.293,21.707 L16.067,17.482 L11.768,22.64 C11.484,22.981 11.009,23.094 10.602,22.917 C10.195,22.741 9.953,22.316 10.008,21.876 L10.867,15 L4.668,15 C4.429,15 4.186,15 3.988,14.982 C3.799,14.965 3.438,14.92 3.125,14.667 C2.766,14.377 2.561,13.938 2.568,13.477 C2.574,13.075 2.77,12.768 2.878,12.613 C2.992,12.448 3.148,12.26 3.302,12.075 C3.31,12.066 3.318,12.057 3.325,12.048 L6.647,8.061 L2.293,3.707 C1.902,3.317 1.902,2.683 2.293,2.293 Z M18.865,11 L15.65,11 C15.098,11 14.65,10.552 14.65,10 C14.65,9.448 15.098,9 15.65,9 L19.328,9 L19.328,9 C19.569,9 19.813,9 20.012,9.018 C20.201,9.035 20.562,9.08 20.875,9.333 C21.234,9.623 21.439,10.062 21.432,10.523 C21.426,10.925 21.23,11.232 21.122,11.387 C21.008,11.552 20.852,11.74 20.698,11.925 L19.319,13.58 C18.965,14.004 18.334,14.061 17.91,13.708 C17.486,13.354 17.428,12.724 17.782,12.3 Z M13.398,1.083 C13.805,1.26 14.047,1.684 13.992,2.124 L13.392,6.922 C13.324,7.47 12.824,7.859 12.276,7.79 C11.728,7.722 11.34,7.222 11.408,6.674 L11.585,5.261 L11.341,5.553 C10.987,5.977 10.357,6.034 9.933,5.681 C9.508,5.327 9.451,4.697 9.805,4.273 L12.232,1.36 C12.516,1.019 12.991,0.906 13.398,1.083 Z M8.067,9.481 L5.135,13 L11.586,13 Z M12.961,14.375 L12.415,18.74 L14.647,16.061 Z"/>
</svg>
