<svg xmlns="http://www.w3.org/2000/svg" width="24" height="24" viewBox="0 0 24 24">
  <defs/>
  <path d="M16.293,4.293 C16.683,3.902 17.317,3.902 17.707,4.293 L21.707,8.293 C22.098,8.683 22.098,9.317 21.707,9.707 L17.707,13.707 C17.317,14.098 16.683,14.098 16.293,13.707 C15.902,13.317 15.902,12.683 16.293,12.293 L18.586,10 L7.5,10 C5.567,10 4,11.567 4,13.5 C4,15.433 5.567,17 7.5,17 L12,17 C12.552,17 13,17.448 13,18 C13,18.552 12.552,19 12,19 L7.5,19 C4.462,19 2,16.538 2,13.5 C2,10.462 4.462,8 7.5,8 L18.586,8 L16.293,5.707 C15.902,5.317 15.902,4.683 16.293,4.293 Z"/>
</svg>
