<svg xmlns="http://www.w3.org/2000/svg" width="24" height="24" viewBox="0 0 24 24">
  <defs/>
  <path d="M7.707,4.293 C8.098,4.683 8.098,5.317 7.707,5.707 L5.414,8 L16.5,8 C19.538,8 22,10.462 22,13.5 C22,16.538 19.538,19 16.5,19 L12,19 C11.448,19 11,18.552 11,18 C11,17.448 11.448,17 12,17 L16.5,17 C18.433,17 20,15.433 20,13.5 C20,11.567 18.433,10 16.5,10 L5.414,10 L7.707,12.293 C8.098,12.683 8.098,13.317 7.707,13.707 C7.317,14.098 6.683,14.098 6.293,13.707 L2.293,9.707 C1.902,9.317 1.902,8.683 2.293,8.293 L6.293,4.293 C6.683,3.902 7.317,3.902 7.707,4.293 Z"/>
</svg>
