<svg xmlns="http://www.w3.org/2000/svg" width="24" height="24" viewBox="0 0 24 24">
  <defs/>
  <path d="M13.618,6 L17.241,6 C18.046,6 18.711,6 19.252,6.044 C19.814,6.09 20.331,6.189 20.816,6.436 C21.569,6.82 22.181,7.432 22.564,8.184 C22.811,8.67 22.91,9.186 22.956,9.748 C23,10.29 23,10.954 23,11.759 L23,16.242 C23,17.046 23,17.711 22.956,18.252 C22.91,18.814 22.811,19.331 22.564,19.816 C22.181,20.569 21.569,21.181 20.816,21.564 C20.331,21.812 19.814,21.91 19.252,21.956 C18.711,22 18.046,22 17.241,22 L6.759,22 C5.954,22 5.289,22 4.748,21.956 C4.186,21.91 3.669,21.812 3.184,21.564 C2.431,21.181 1.819,20.569 1.436,19.816 C1.189,19.331 1.09,18.814 1.044,18.252 C1,17.711 1,17.047 1,16.242 L1,6.162 C1,5.634 1,5.18 1.031,4.805 C1.063,4.41 1.134,4.017 1.327,3.638 C1.615,3.074 2.074,2.615 2.638,2.327 C3.016,2.134 3.41,2.063 3.805,2.031 C4.179,2 4.634,2 5.161,2 L5.161,2 L9.022,2 C9.064,2 9.106,2 9.147,2 C9.74,1.999 10.262,1.999 10.742,2.164 C11.163,2.309 11.545,2.546 11.863,2.857 C12.226,3.212 12.459,3.679 12.723,4.211 C12.742,4.247 12.76,4.285 12.779,4.322 Z M12.98,8 L3,8 L3,16.2 C3,17.057 3.001,17.639 3.038,18.089 C3.073,18.528 3.138,18.752 3.218,18.908 C3.41,19.285 3.716,19.59 4.092,19.782 C4.248,19.862 4.473,19.927 4.911,19.963 C5.361,19.999 5.943,20 6.8,20 L17.2,20 C18.057,20 18.639,19.999 19.089,19.963 C19.527,19.927 19.752,19.862 19.908,19.782 C20.284,19.59 20.59,19.285 20.782,18.908 C20.862,18.752 20.927,18.528 20.962,18.089 C20.999,17.639 21,17.057 21,16.2 L21,11.8 C21,10.944 20.999,10.361 20.962,9.911 C20.927,9.473 20.862,9.249 20.782,9.092 C20.59,8.716 20.284,8.41 19.908,8.218 C19.752,8.139 19.527,8.074 19.089,8.038 C18.639,8.001 18.057,8 17.2,8 L13.022,8 C13.008,8.001 12.994,8.001 12.98,8 Z M9.25,11.75 C9.25,10.231 10.481,9 12,9 C13.519,9 14.75,10.231 14.75,11.75 L14.75,12.528 C14.953,12.552 15.18,12.602 15.408,12.718 C15.784,12.91 16.09,13.216 16.282,13.592 C16.42,13.864 16.464,14.133 16.483,14.362 C16.5,14.569 16.5,14.813 16.5,15.064 L16.5,15.936 C16.5,16.187 16.5,16.431 16.483,16.638 C16.464,16.867 16.42,17.137 16.282,17.408 C16.09,17.785 15.784,18.09 15.408,18.282 C15.137,18.42 14.867,18.465 14.638,18.483 C14.431,18.5 14.187,18.5 13.936,18.5 L10.064,18.5 C9.813,18.5 9.569,18.5 9.362,18.483 C9.133,18.465 8.863,18.42 8.592,18.282 C8.216,18.09 7.91,17.785 7.718,17.408 C7.58,17.137 7.536,16.867 7.517,16.638 C7.5,16.43 7.5,16.185 7.5,15.932 L7.5,15.068 C7.5,14.816 7.5,14.57 7.517,14.362 C7.536,14.133 7.58,13.864 7.718,13.592 C7.91,13.216 8.216,12.91 8.592,12.718 C8.82,12.602 9.048,12.552 9.25,12.528 Z M10.09,4.055 C9.969,4.013 9.813,4 9.022,4 L5.2,4 C4.623,4 4.251,4.001 3.968,4.024 C3.696,4.046 3.595,4.084 3.546,4.109 C3.358,4.205 3.205,4.358 3.109,4.546 C3.084,4.596 3.046,4.696 3.024,4.968 C3.004,5.217 3.001,5.535 3,6 L11.382,6 L10.99,5.216 C10.637,4.509 10.555,4.375 10.464,4.286 C10.358,4.182 10.23,4.103 10.09,4.055 Z M10.1,14.5 C9.803,14.5 9.641,14.501 9.525,14.51 C9.52,14.511 9.516,14.511 9.511,14.512 C9.511,14.516 9.511,14.52 9.51,14.525 C9.501,14.641 9.5,14.804 9.5,15.1 L9.5,15.9 C9.5,16.197 9.501,16.359 9.51,16.476 C9.511,16.48 9.511,16.485 9.511,16.489 C9.516,16.489 9.52,16.49 9.525,16.49 C9.641,16.499 9.803,16.5 10.1,16.5 L13.9,16.5 C14.196,16.5 14.359,16.499 14.475,16.49 C14.48,16.49 14.484,16.489 14.489,16.489 C14.489,16.485 14.489,16.48 14.49,16.476 C14.499,16.359 14.5,16.197 14.5,15.9 L14.5,15.1 C14.5,14.804 14.499,14.641 14.49,14.525 C14.489,14.52 14.489,14.516 14.489,14.512 C14.484,14.511 14.48,14.511 14.475,14.51 C14.359,14.501 14.196,14.5 13.9,14.5 Z M11.25,12.5 L12.75,12.5 L12.75,11.75 C12.75,11.336 12.414,11 12,11 C11.586,11 11.25,11.336 11.25,11.75 Z"/>
</svg>
