<svg xmlns="http://www.w3.org/2000/svg" width="24" height="24" viewBox="0 0 24 24">
  <defs/>
  <path d="M13.618,6 L17.241,6 C18.046,6 18.711,6 19.252,6.044 C19.814,6.09 20.331,6.189 20.816,6.436 C21.569,6.82 22.181,7.432 22.564,8.184 C22.811,8.67 22.91,9.186 22.956,9.748 C23,10.29 23,10.954 23,11.759 L23,16.242 C23,17.046 23,17.711 22.956,18.252 C22.91,18.814 22.811,19.331 22.564,19.816 C22.181,20.569 21.569,21.181 20.816,21.564 C20.331,21.812 19.814,21.91 19.252,21.956 C18.711,22 18.046,22 17.241,22 L6.759,22 C5.954,22 5.289,22 4.748,21.956 C4.186,21.91 3.669,21.812 3.184,21.564 C2.431,21.181 1.819,20.569 1.436,19.816 C1.189,19.331 1.09,18.814 1.044,18.252 C1,17.711 1,17.047 1,16.242 L1,6.162 C1,5.634 1,5.18 1.031,4.805 C1.063,4.41 1.134,4.017 1.327,3.638 C1.615,3.074 2.074,2.615 2.638,2.327 C3.016,2.134 3.41,2.063 3.805,2.031 C4.179,2 4.634,2 5.161,2 L5.161,2 L9.022,2 C9.064,2 9.106,2 9.147,2 C9.74,1.999 10.262,1.999 10.742,2.164 C11.163,2.309 11.545,2.546 11.863,2.857 C12.226,3.212 12.459,3.679 12.723,4.211 C12.742,4.247 12.76,4.285 12.779,4.322 Z M12.98,8 L3,8 L3,16.2 C3,17.057 3.001,17.639 3.038,18.089 C3.073,18.528 3.138,18.752 3.218,18.908 C3.41,19.285 3.716,19.59 4.092,19.782 C4.248,19.862 4.473,19.927 4.911,19.963 C5.361,19.999 5.943,20 6.8,20 L17.2,20 C18.057,20 18.639,19.999 19.089,19.963 C19.527,19.927 19.752,19.862 19.908,19.782 C20.284,19.59 20.59,19.285 20.782,18.908 C20.862,18.752 20.927,18.528 20.962,18.089 C20.999,17.639 21,17.057 21,16.2 L21,11.8 C21,10.944 20.999,10.361 20.962,9.911 C20.927,9.473 20.862,9.249 20.782,9.092 C20.59,8.716 20.284,8.41 19.908,8.218 C19.752,8.139 19.527,8.074 19.089,8.038 C18.639,8.001 18.057,8 17.2,8 L13.022,8 C13.008,8.001 12.994,8.001 12.98,8 Z M12,10 C12.552,10 13,10.448 13,11 L13,14.586 L14.293,13.293 C14.683,12.903 15.317,12.903 15.707,13.293 C16.098,13.684 16.098,14.317 15.707,14.707 L12.707,17.707 C12.317,18.098 11.683,18.098 11.293,17.707 L8.293,14.707 C7.902,14.317 7.902,13.684 8.293,13.293 C8.683,12.903 9.317,12.903 9.707,13.293 L11,14.586 L11,11 C11,10.448 11.448,10 12,10 Z M10.09,4.055 C9.969,4.013 9.813,4 9.022,4 L5.2,4 C4.623,4 4.251,4.001 3.968,4.024 C3.696,4.046 3.595,4.084 3.546,4.109 C3.358,4.205 3.205,4.358 3.109,4.546 C3.084,4.596 3.046,4.696 3.024,4.968 C3.004,5.217 3.001,5.535 3,6 L11.382,6 L10.99,5.216 C10.637,4.509 10.555,4.375 10.464,4.286 C10.358,4.182 10.23,4.103 10.09,4.055 Z"/>
</svg>
