<svg xmlns="http://www.w3.org/2000/svg" width="24" height="24" viewBox="0 0 24 24">
  <defs/>
  <path d="M4.076,1.117 C4.231,0.744 4.596,0.5 5,0.5 L19,0.5 C19.552,0.5 20,0.948 20,1.5 L20,8.5 C20,9.052 19.552,9.5 19,9.5 L14.414,9.5 L19.707,14.793 C19.993,15.079 20.079,15.509 19.924,15.883 C19.769,16.256 19.404,16.5 19,16.5 L13,16.5 L13,22.5 C13,22.904 12.756,23.269 12.383,23.424 C12.009,23.579 11.579,23.493 11.293,23.207 L4.293,16.207 C4.105,16.02 4,15.765 4,15.5 L4,8.5 C4,7.948 4.448,7.5 5,7.5 L9.586,7.5 L4.293,2.207 C4.007,1.921 3.921,1.491 4.076,1.117 Z M12.414,7.5 L18,7.5 L18,2.5 L7.414,2.5 Z M11.586,9.5 L6,9.5 L6,14.5 L16.586,14.5 Z M11,16.5 L7.414,16.5 L11,20.086 Z"/>
</svg>
