<svg xmlns="http://www.w3.org/2000/svg" width="24" height="24" viewBox="0 0 24 24">
  <defs/>
  <path d="M10.407,4 L13.593,4 C14.87,4 15.887,4 16.712,4.065 C17.558,4.132 18.281,4.272 18.953,4.597 C20.042,5.122 20.946,5.964 21.548,7.013 C21.919,7.66 22.111,8.372 22.238,9.211 C22.362,10.029 22.434,11.043 22.525,12.317 L22.774,15.803 C22.936,18.071 21.14,20 18.867,20 C17.704,20 16.601,19.484 15.857,18.59 L15.482,18.14 C15.116,17.702 15.007,17.575 14.892,17.477 C14.618,17.245 14.288,17.09 13.934,17.029 C13.786,17.003 13.618,17 13.047,17 L10.953,17 C10.382,17 10.214,17.003 10.065,17.029 C9.712,17.09 9.381,17.245 9.108,17.477 C8.993,17.575 8.884,17.702 8.518,18.14 L8.143,18.59 C7.399,19.484 6.296,20 5.133,20 C2.86,20 1.064,18.071 1.226,15.803 L1.475,12.317 C1.566,11.043 1.638,10.029 1.762,9.211 C1.889,8.372 2.081,7.66 2.452,7.013 C3.054,5.964 3.958,5.122 5.047,4.597 C5.719,4.272 6.442,4.132 7.288,4.065 C8.113,4 9.13,4 10.407,4 Z M7.446,6.059 C6.722,6.116 6.274,6.225 5.916,6.398 C5.191,6.748 4.588,7.31 4.187,8.008 C3.989,8.353 3.848,8.792 3.74,9.51 C3.629,10.241 3.561,11.176 3.467,12.501 L3.221,15.946 C3.141,17.056 4.021,18 5.133,18 C5.703,18 6.242,17.747 6.607,17.31 L6.982,16.86 C6.998,16.84 7.014,16.821 7.03,16.802 C7.326,16.446 7.55,16.178 7.812,15.955 C8.358,15.49 9.019,15.18 9.726,15.058 C10.065,15 10.414,15 10.878,15 L13.122,15 C13.586,15 13.935,15 14.274,15.058 C14.981,15.18 15.642,15.49 16.188,15.955 C16.45,16.178 16.674,16.446 16.97,16.802 C16.986,16.821 17.002,16.84 17.018,16.86 L17.393,17.31 C17.758,17.747 18.297,18 18.867,18 C19.979,18 20.858,17.056 20.779,15.946 L20.533,12.501 C20.439,11.176 20.371,10.241 20.26,9.51 C20.152,8.792 20.011,8.353 19.813,8.008 C19.412,7.31 18.809,6.748 18.084,6.398 C17.726,6.225 17.278,6.116 16.554,6.059 C15.817,6.001 14.879,6 13.551,6 L10.449,6 C9.121,6 8.182,6.001 7.446,6.059 Z M8,8 C8.552,8 9,8.448 9,9 L9,10 L10,10 C10.552,10 11,10.448 11,11 C11,11.552 10.552,12 10,12 L9,12 L9,13 C9,13.552 8.552,14 8,14 C7.448,14 7,13.552 7,13 L7,12 L6,12 C5.448,12 5,11.552 5,11 C5,10.448 5.448,10 6,10 L7,10 L7,9 C7,8.448 7.448,8 8,8 Z M14,12 C14,11.448 14.448,11 15,11 L15.01,11 C15.562,11 16.01,11.448 16.01,12 C16.01,12.552 15.562,13 15.01,13 L15,13 C14.448,13 14,12.552 14,12 Z M17,10 C17,9.448 17.448,9 18,9 L18.01,9 C18.562,9 19.01,9.448 19.01,10 C19.01,10.552 18.562,11 18.01,11 L18,11 C17.448,11 17,10.552 17,10 Z"/>
</svg>
