<svg xmlns="http://www.w3.org/2000/svg" width="24" height="24" viewBox="0 0 24 24">
  <defs/>
  <path d="M5.67,5 C5.558,4.681 5.5,4.343 5.5,4 C5.5,3.21 5.808,2.449 6.362,1.885 C6.916,1.321 7.672,1 8.464,1 C10.259,1 11.373,2.218 12,3.272 C12.627,2.218 13.741,1 15.536,1 C16.328,1 17.084,1.321 17.638,1.885 C18.192,2.449 18.5,3.21 18.5,4 C18.5,4.343 18.442,4.681 18.33,5 L20.432,5 C20.684,5 20.93,5 21.138,5.017 C21.367,5.036 21.637,5.08 21.908,5.218 C22.284,5.41 22.59,5.716 22.782,6.092 C22.92,6.363 22.964,6.633 22.983,6.862 C23,7.069 23,7.313 23,7.564 L23,9.436 C23,9.687 23,9.931 22.983,10.138 C22.964,10.367 22.92,10.637 22.782,10.908 C22.59,11.284 22.284,11.59 21.908,11.782 C21.637,11.92 21.367,11.964 21.138,11.983 C21.094,11.987 21.048,11.99 21,11.992 L21,18.839 C21,19.366 21,19.82 20.969,20.195 C20.937,20.59 20.866,20.984 20.673,21.362 C20.385,21.927 19.927,22.385 19.362,22.673 C18.984,22.866 18.59,22.937 18.195,22.969 C17.82,23 17.366,23 16.839,23 L7.161,23 C6.634,23 6.18,23 5.805,22.969 C5.41,22.937 5.016,22.866 4.638,22.673 C4.074,22.385 3.615,21.927 3.327,21.362 C3.134,20.984 3.063,20.59 3.031,20.195 C3,19.821 3,19.366 3,18.839 L3,18.838 L3,11.992 C2.952,11.99 2.906,11.987 2.862,11.983 C2.633,11.964 2.363,11.92 2.092,11.782 C1.716,11.59 1.41,11.284 1.218,10.908 C1.08,10.637 1.036,10.367 1.017,10.138 C1,9.93 1,9.684 1,9.432 L1,9.432 L1,7.6 L1,7.568 L1,7.568 C1,7.316 1,7.07 1.017,6.862 C1.036,6.633 1.08,6.363 1.218,6.092 C1.41,5.716 1.716,5.41 2.092,5.218 C2.363,5.08 2.633,5.036 2.862,5.017 C3.07,5 3.316,5 3.568,5 Z M13,12 L13,21 L16.8,21 C17.377,21 17.749,20.999 18.032,20.976 C18.304,20.954 18.405,20.916 18.454,20.891 C18.642,20.795 18.795,20.642 18.891,20.454 C18.916,20.404 18.954,20.304 18.976,20.032 C18.999,19.749 19,19.377 19,18.8 L19,12 Z M5,12 L5,18.8 C5,19.377 5.001,19.749 5.024,20.032 C5.046,20.304 5.084,20.404 5.109,20.454 C5.205,20.642 5.358,20.795 5.546,20.891 C5.595,20.916 5.696,20.954 5.968,20.976 C6.251,20.999 6.623,21 7.2,21 L11,21 L11,12 Z M20.4,10 C20.697,10 20.859,9.999 20.975,9.99 C20.98,9.989 20.984,9.989 20.989,9.989 C20.989,9.984 20.989,9.98 20.99,9.975 C20.999,9.859 21,9.697 21,9.4 L21,7.6 C21,7.303 20.999,7.141 20.99,7.025 C20.989,7.02 20.989,7.016 20.989,7.011 C20.984,7.011 20.98,7.011 20.975,7.01 C20.859,7.001 20.697,7 20.4,7 L13,7 L13,10 Z M11,7 L3.6,7 C3.303,7 3.141,7.001 3.025,7.01 C3.02,7.011 3.016,7.011 3.011,7.011 C3.011,7.016 3.011,7.02 3.01,7.025 C3.001,7.141 3,7.303 3,7.6 L3,9.4 C3,9.697 3.001,9.859 3.01,9.975 C3.011,9.98 3.011,9.984 3.011,9.989 C3.016,9.989 3.02,9.989 3.025,9.99 C3.141,9.999 3.303,10 3.6,10 L11,10 Z M8.464,3 C8.214,3 7.971,3.101 7.789,3.286 C7.606,3.473 7.5,3.729 7.5,4 C7.5,4.271 7.606,4.527 7.789,4.714 C7.971,4.899 8.214,5 8.464,5 L10.634,5 C10.562,4.829 10.479,4.651 10.384,4.475 C9.898,3.576 9.274,3 8.464,3 Z M15.536,5 C15.786,5 16.029,4.899 16.211,4.714 C16.394,4.527 16.5,4.271 16.5,4 C16.5,3.729 16.394,3.473 16.211,3.286 C16.029,3.101 15.786,3 15.536,3 C14.726,3 14.102,3.576 13.616,4.475 C13.521,4.651 13.438,4.829 13.366,5 Z"/>
</svg>
