<svg xmlns="http://www.w3.org/2000/svg" width="24" height="24" viewBox="0 0 24 24">
  <defs/>
  <path d="M4.34,6.005 C4.118,5.54 4,5.026 4,4.5 C4,3.572 4.369,2.681 5.025,2.025 C5.682,1.369 6.572,1 7.5,1 C9.806,1 11.193,2.662 11.939,4.018 C11.96,4.056 11.98,4.094 12,4.131 C12.02,4.094 12.04,4.056 12.061,4.018 C12.807,2.662 14.194,1 16.5,1 C17.428,1 18.319,1.369 18.975,2.025 C19.631,2.681 20,3.572 20,4.5 C20,5.026 19.882,5.54 19.66,6.005 C19.853,6.01 20.032,6.017 20.195,6.031 C20.59,6.063 20.984,6.134 21.362,6.327 C21.927,6.615 22.385,7.074 22.673,7.638 C22.866,8.016 22.937,8.41 22.969,8.805 C23,9.18 23,9.634 23,10.161 L23,18.839 C23,19.366 23,19.82 22.969,20.195 C22.937,20.59 22.866,20.984 22.673,21.362 C22.385,21.927 21.927,22.385 21.362,22.673 C20.984,22.866 20.59,22.937 20.195,22.969 C19.82,23 19.366,23 18.839,23 L5.161,23 C4.634,23 4.18,23 3.805,22.969 C3.41,22.937 3.016,22.866 2.638,22.673 C2.074,22.385 1.615,21.927 1.327,21.362 C1.134,20.984 1.063,20.59 1.031,20.195 C1,19.821 1,19.366 1,18.839 L1,10.161 C1,9.634 1,9.18 1.031,8.805 C1.063,8.41 1.134,8.016 1.327,7.638 C1.615,7.074 2.074,6.615 2.638,6.327 C3.016,6.134 3.41,6.063 3.805,6.031 C3.968,6.017 4.147,6.01 4.34,6.005 Z M13,15 L13,21 L18.8,21 C19.377,21 19.749,20.999 20.032,20.976 C20.304,20.954 20.404,20.916 20.454,20.891 C20.642,20.795 20.795,20.642 20.891,20.454 C20.916,20.404 20.954,20.304 20.976,20.032 C20.999,19.749 21,19.377 21,18.8 L21,15 Z M3,15 L3,18.8 C3,19.377 3.001,19.749 3.024,20.032 C3.046,20.304 3.084,20.404 3.109,20.454 C3.205,20.642 3.358,20.795 3.546,20.891 C3.595,20.916 3.696,20.954 3.968,20.976 C4.251,20.999 4.623,21 5.2,21 L11,21 L11,15 Z M21,13 L21,10.2 C21,9.623 20.999,9.251 20.976,8.968 C20.954,8.696 20.916,8.595 20.891,8.546 C20.795,8.358 20.642,8.205 20.454,8.109 C20.404,8.084 20.304,8.046 20.032,8.024 C19.749,8.001 19.377,8 18.8,8 L13,8 L13,13 Z M11,8 L5.2,8 C4.623,8 4.251,8.001 3.968,8.024 C3.696,8.046 3.595,8.084 3.546,8.109 C3.358,8.205 3.205,8.358 3.109,8.546 C3.084,8.595 3.046,8.696 3.024,8.968 C3.001,9.251 3,9.623 3,10.2 L3,13 L11,13 Z M13.346,6 L16.5,6 C16.898,6 17.279,5.842 17.561,5.561 C17.842,5.279 18,4.898 18,4.5 C18,4.102 17.842,3.721 17.561,3.439 C17.279,3.158 16.898,3 16.5,3 C15.306,3 14.443,3.838 13.814,4.982 C13.623,5.329 13.468,5.681 13.346,6 Z M7.5,3 C7.102,3 6.721,3.158 6.439,3.439 C6.158,3.721 6,4.102 6,4.5 C6,4.898 6.158,5.279 6.439,5.561 C6.721,5.842 7.102,6 7.5,6 L10.654,6 C10.532,5.681 10.377,5.329 10.186,4.982 C9.557,3.838 8.694,3 7.5,3 Z"/>
</svg>
