<svg xmlns="http://www.w3.org/2000/svg" width="24" height="24" viewBox="0 0 24 24">
  <defs/>
  <path d="M12,6 C12,5.448 12.448,5 13,5 L16,5 C16.796,5 17.559,5.316 18.121,5.879 C18.684,6.441 19,7.204 19,8 L19,14.126 C20.725,14.57 22,16.136 22,18 C22,20.209 20.209,22 18,22 C15.791,22 14,20.209 14,18 C14,16.136 15.275,14.57 17,14.126 L17,8 C17,7.735 16.895,7.48 16.707,7.293 C16.52,7.105 16.265,7 16,7 L13,7 C12.448,7 12,6.552 12,6 Z M2,6 C2,3.791 3.791,2 6,2 C8.209,2 10,3.791 10,6 C10,7.864 8.725,9.43 7,9.874 L7,21 C7,21.552 6.552,22 6,22 C5.448,22 5,21.552 5,21 L5,9.874 C3.275,9.43 2,7.864 2,6 Z M18,16 C16.895,16 16,16.895 16,18 C16,19.105 16.895,20 18,20 C19.105,20 20,19.105 20,18 C20,16.895 19.105,16 18,16 Z M6,4 C4.895,4 4,4.895 4,6 C4,7.105 4.895,8 6,8 C7.105,8 8,7.105 8,6 C8,4.895 7.105,4 6,4 Z"/>
</svg>
