<svg xmlns="http://www.w3.org/2000/svg" width="24" height="24" viewBox="0 0 24 24">
  <defs/>
  <path d="M6,2 C6.552,2 7,2.448 7,3 L7,14.126 C8.39,14.484 9.488,15.57 9.862,16.954 C11.667,16.758 13.361,15.953 14.657,14.657 C15.953,13.361 16.758,11.667 16.954,9.862 C15.252,9.402 14,7.847 14,6 C14,3.791 15.791,2 18,2 C20.209,2 22,3.791 22,6 C22,7.878 20.706,9.454 18.961,9.884 C18.754,12.212 17.737,14.405 16.071,16.071 C14.405,17.737 12.212,18.754 9.884,18.961 C9.454,20.706 7.878,22 6,22 C3.791,22 2,20.209 2,18 C2,16.136 3.275,14.57 5,14.126 L5,3 C5,2.448 5.448,2 6,2 Z M18,4 C16.895,4 16,4.895 16,6 C16,7.105 16.895,8 18,8 C19.105,8 20,7.105 20,6 C20,4.895 19.105,4 18,4 Z M6,16 C4.895,16 4,16.895 4,18 C4,19.105 4.895,20 6,20 C7.105,20 8,19.105 8,18 C8,16.895 7.105,16 6,16 Z"/>
</svg>
