<svg xmlns="http://www.w3.org/2000/svg" width="24" height="24" viewBox="0 0 24 24">
  <defs/>
  <path d="M2,6 C2,3.791 3.791,2 6,2 C8.209,2 10,3.791 10,6 C10,7.847 8.748,9.402 7.047,9.862 C7.242,11.667 8.047,13.361 9.343,14.657 C10.639,15.953 12.333,16.758 14.138,16.954 C14.598,15.252 16.153,14 18,14 C20.209,14 22,15.791 22,18 C22,20.209 20.209,22 18,22 C16.122,22 14.547,20.706 14.116,18.961 C11.788,18.754 9.595,17.737 7.929,16.071 C7.592,15.734 7.282,15.376 7,15 L7,21 C7,21.552 6.552,22 6,22 C5.448,22 5,21.552 5,21 L5,9.874 C3.275,9.43 2,7.864 2,6 Z M18,16 C16.895,16 16,16.895 16,18 C16,19.105 16.895,20 18,20 C19.105,20 20,19.105 20,18 C20,16.895 19.105,16 18,16 Z M6,4 C4.895,4 4,4.895 4,6 C4,7.105 4.895,8 6,8 C7.105,8 8,7.105 8,6 C8,4.895 7.105,4 6,4 Z"/>
</svg>
