<svg xmlns="http://www.w3.org/2000/svg" width="24" height="24" viewBox="0 0 24 24">
  <defs/>
  <path d="M3,2 C3.552,2 4,2.448 4,3 L4,7 L14.126,7 C14.57,5.275 16.136,4 18,4 C20.209,4 22,5.791 22,8 C22,10.209 20.209,12 18,12 C16.136,12 14.57,10.725 14.126,9 L4,9 L4,13.2 C4,14.057 4.001,14.639 4.038,15.089 C4.073,15.527 4.138,15.752 4.218,15.908 C4.41,16.284 4.716,16.59 5.092,16.782 C5.248,16.862 5.473,16.927 5.911,16.962 C6.361,16.999 6.943,17 7.8,17 L14.126,17 C14.57,15.275 16.136,14 18,14 C20.209,14 22,15.791 22,18 C22,20.209 20.209,22 18,22 C16.136,22 14.57,20.725 14.126,19 L7.759,19 C6.954,19 6.289,19 5.748,18.956 C5.186,18.91 4.669,18.811 4.184,18.564 C3.431,18.181 2.819,17.569 2.436,16.816 C2.189,16.331 2.09,15.814 2.044,15.252 C2,14.711 2,14.046 2,13.241 L2,3 C2,2.448 2.448,2 3,2 Z M18,16 C16.895,16 16,16.895 16,18 C16,19.105 16.895,20 18,20 C19.105,20 20,19.105 20,18 C20,16.895 19.105,16 18,16 Z M18,6 C16.895,6 16,6.895 16,8 C16,9.105 16.895,10 18,10 C19.105,10 20,9.105 20,8 C20,6.895 19.105,6 18,6 Z"/>
</svg>
