<svg xmlns="http://www.w3.org/2000/svg" width="24" height="24" viewBox="0 0 24 24">
  <defs/>
  <path d="M10.659,10.182 C11.535,9.939 12.465,9.939 13.341,10.182 C13.585,9.557 13.959,8.97 14.465,8.464 C16.417,6.512 19.583,6.512 21.535,8.464 C23.488,10.417 23.488,13.583 21.535,15.535 C19.583,17.488 16.417,17.488 14.465,15.535 C13.532,14.603 13.045,13.394 13.003,12.172 C12.356,11.943 11.644,11.943 10.997,12.172 C10.955,13.393 10.468,14.603 9.536,15.535 C7.583,17.488 4.417,17.488 2.464,15.535 C0.512,13.583 0.512,10.417 2.464,8.464 C4.417,6.512 7.583,6.512 9.536,8.464 C10.041,8.97 10.415,9.556 10.659,10.182 Z M3.879,9.879 C2.707,11.05 2.707,12.95 3.879,14.121 C5.05,15.293 6.95,15.293 8.121,14.121 C9.293,12.95 9.293,11.05 8.121,9.879 C6.95,8.707 5.05,8.707 3.879,9.879 Z M20.121,9.879 C18.95,8.707 17.05,8.707 15.879,9.879 C14.707,11.05 14.707,12.95 15.879,14.121 C17.05,15.293 18.95,15.293 20.121,14.121 C21.293,12.95 21.293,11.05 20.121,9.879 Z M8.121,9.879 L8.121,14.121 L3.879,9.879 Z"/>
</svg>
