<svg xmlns="http://www.w3.org/2000/svg" width="24" height="24" viewBox="0 0 24 24">
  <defs/>
  <path d="M5.961,4 L6,4 C6.552,4 7,4.448 7,5 C7,5.552 6.552,6 6,6 C5.715,6 5.628,6.001 5.561,6.006 C4.653,6.076 3.907,6.751 3.746,7.648 C3.734,7.715 3.725,7.801 3.697,8.085 L3.434,10.707 C5.355,9.557 7.881,9.81 9.536,11.465 C10.041,11.97 10.416,12.557 10.659,13.182 C11.536,12.939 12.465,12.939 13.341,13.182 C13.585,12.557 13.959,11.97 14.465,11.465 C16.119,9.81 18.645,9.557 20.566,10.707 L20.303,8.085 C20.275,7.801 20.266,7.715 20.254,7.648 C20.094,6.751 19.348,6.076 18.439,6.006 C18.372,6.001 18.285,6 18,6 C17.448,6 17,5.552 17,5 C17,4.448 17.448,4 18,4 L18.039,4 L18.04,4 C18.269,4 18.439,4 18.594,4.012 C20.41,4.152 21.902,5.503 22.223,7.296 C22.25,7.449 22.267,7.619 22.29,7.847 L22.911,14.056 C22.969,14.364 22.999,14.676 23,14.988 C23,14.997 23,15.006 23,15.015 C22.996,16.29 22.508,17.563 21.536,18.535 C19.583,20.488 16.417,20.488 14.465,18.535 C13.532,17.603 13.045,16.393 13.003,15.172 C12.356,14.943 11.644,14.943 10.997,15.172 C10.955,16.393 10.468,17.603 9.536,18.535 C7.583,20.488 4.417,20.488 2.465,18.535 C1.492,17.563 1.004,16.29 1,15.015 C1,15.006 1,14.997 1,14.988 C1.001,14.676 1.031,14.364 1.089,14.056 L1.707,7.886 C1.708,7.872 1.709,7.859 1.71,7.847 C1.733,7.619 1.75,7.449 1.777,7.296 C2.098,5.503 3.59,4.152 5.406,4.012 C5.561,4 5.731,4 5.96,4 Z M3,15.046 C3.012,15.799 3.305,16.547 3.879,17.121 C5.05,18.293 6.95,18.293 8.121,17.121 C9.293,15.95 9.293,14.05 8.121,12.879 C6.95,11.707 5.05,11.707 3.879,12.879 C3.457,13.3 3.188,13.816 3.069,14.358 Z M20.931,14.357 C20.812,13.816 20.543,13.3 20.121,12.879 C18.95,11.707 17.05,11.707 15.879,12.879 C14.707,14.05 14.707,15.95 15.879,17.121 C17.05,18.293 18.95,18.293 20.121,17.121 C20.695,16.547 20.988,15.799 21,15.046 Z"/>
</svg>
