<svg xmlns="http://www.w3.org/2000/svg" width="24" height="24" viewBox="0 0 24 24">
  <defs/>
  <path d="M1,12 C1,5.925 5.925,1 12,1 C18.075,1 23,5.925 23,12 C23,18.075 18.075,23 12,23 C5.925,23 1,18.075 1,12 Z M14.814,10 L9.186,10 C9.078,10.658 9.015,11.326 9,12 C9.015,12.674 9.078,13.342 9.186,14 L14.814,14 C14.922,13.342 14.985,12.674 15,12 C14.985,11.326 14.922,10.658 14.814,10 Z M3.223,10 C3.077,10.643 3,11.313 3,12 C3,12.687 3.077,13.357 3.223,14 L7.162,14 C7.069,13.347 7.014,12.686 7,12.021 C7,12.007 7,11.993 7,11.979 C7.014,11.314 7.069,10.653 7.162,10 Z M16.838,14 L20.777,14 C20.923,13.357 21,12.687 21,12 C21,11.313 20.923,10.643 20.777,10 L16.838,10 C16.931,10.653 16.986,11.314 17,11.979 C17,11.993 17,12.007 17,12.021 C16.986,12.686 16.931,13.347 16.838,14 Z M14.274,20.71 C16.815,20.049 18.919,18.305 20.065,16 L16.421,16 C15.962,17.671 15.238,19.262 14.274,20.71 Z M9.726,20.71 C8.762,19.262 8.038,17.671 7.579,16 L3.936,16 C5.081,18.305 7.185,20.049 9.726,20.71 Z M20.065,8 C18.919,5.695 16.815,3.951 14.274,3.29 C15.238,4.738 15.962,6.329 16.421,8 Z M3.936,8 L7.579,8 C8.038,6.329 8.762,4.738 9.726,3.29 C7.185,3.951 5.081,5.695 3.936,8 Z M12,3.551 C10.96,4.89 10.172,6.398 9.664,8 L14.336,8 C13.828,6.398 13.04,4.89 12,3.551 Z M14.336,16 L9.664,16 C10.172,17.602 10.96,19.11 12,20.449 C13.04,19.11 13.828,17.602 14.336,16 Z"/>
</svg>
