<svg xmlns="http://www.w3.org/2000/svg" width="24" height="24" viewBox="0 0 24 24">
  <defs/>
  <path d="M1,12 C1,5.925 5.925,1 12,1 C18.075,1 23,5.925 23,12 C23,18.075 18.075,23 12,23 C5.925,23 1,18.075 1,12 Z M9.235,9.235 C9.093,10.153 9.02,11.09 9,12 C9.02,12.91 9.093,13.847 9.235,14.765 C10.153,14.907 11.09,14.98 12,15 C12.91,14.98 13.847,14.907 14.765,14.765 C14.907,13.847 14.98,12.91 15,12 C14.98,11.09 14.907,10.153 14.765,9.235 C13.847,9.093 12.91,9.02 12,9 C11.09,9.02 10.153,9.093 9.235,9.235 Z M20.561,14.786 C19.76,15.317 18.877,15.728 17.966,16.042 C17.478,16.21 16.978,16.352 16.471,16.471 C16.352,16.978 16.21,17.478 16.042,17.966 C15.728,18.877 15.317,19.76 14.786,20.561 C17.516,19.673 19.673,17.516 20.561,14.786 Z M14.786,3.439 C15.317,4.24 15.728,5.123 16.042,6.034 C16.21,6.522 16.352,7.022 16.471,7.529 C16.978,7.648 17.478,7.79 17.966,7.958 C18.877,8.272 19.76,8.683 20.561,9.214 C19.673,6.484 17.516,4.327 14.786,3.439 Z M7.529,16.471 C7.022,16.352 6.522,16.21 6.034,16.042 C5.123,15.728 4.24,15.317 3.439,14.786 C4.327,17.516 6.484,19.673 9.214,20.561 C8.683,19.76 8.272,18.877 7.958,17.966 C7.79,17.478 7.648,16.978 7.529,16.471 Z M3.439,9.214 C4.24,8.683 5.123,8.272 6.034,7.958 C6.522,7.79 7.022,7.648 7.529,7.529 C7.648,7.022 7.79,6.522 7.958,6.034 C8.272,5.123 8.683,4.24 9.214,3.439 C6.484,4.327 4.327,6.484 3.439,9.214 Z M3.256,12 C4.096,12.966 5.282,13.667 6.685,14.151 C6.84,14.204 6.996,14.254 7.154,14.302 C7.063,13.528 7.016,12.76 7,12.021 C7,12.007 7,11.993 7,11.979 C7.016,11.24 7.063,10.472 7.154,9.698 C6.996,9.746 6.84,9.796 6.685,9.849 C5.282,10.333 4.096,11.034 3.256,12 Z M14.302,7.154 C14.254,6.996 14.204,6.84 14.151,6.685 C13.667,5.282 12.966,4.096 12,3.256 C11.034,4.096 10.333,5.282 9.849,6.685 C9.796,6.84 9.746,6.996 9.698,7.154 C10.472,7.063 11.24,7.016 11.979,7 C11.993,7 12.007,7 12.021,7 C12.76,7.016 13.528,7.063 14.302,7.154 Z M16.846,9.698 C16.937,10.472 16.984,11.24 17,11.979 C17,11.993 17,12.007 17,12.021 C16.984,12.76 16.937,13.528 16.846,14.302 C17.004,14.254 17.16,14.204 17.315,14.151 C18.718,13.667 19.904,12.966 20.744,12 C19.904,11.034 18.718,10.333 17.315,9.849 C17.16,9.796 17.004,9.746 16.846,9.698 Z M12,20.744 C12.966,19.904 13.667,18.718 14.151,17.315 C14.204,17.16 14.254,17.004 14.302,16.846 C13.528,16.937 12.76,16.984 12.021,17 C12.007,17 11.993,17 11.979,17 C11.24,16.984 10.472,16.937 9.698,16.846 C9.746,17.004 9.796,17.16 9.849,17.315 C10.333,18.718 11.034,19.904 12,20.744 Z"/>
</svg>
