<svg xmlns="http://www.w3.org/2000/svg" width="24" height="24" viewBox="0 0 24 24">
  <defs/>
  <path d="M3.966,16.061 C5.45,18.991 8.491,21 12,21 C12.151,21 12.302,20.996 12.451,20.989 C13.002,20.962 13.472,21.387 13.499,21.938 C13.526,22.49 13.101,22.959 12.549,22.986 C12.367,22.996 12.184,23 12,23 C5.925,23 1,18.075 1,12 C1,5.925 5.925,1 12,1 C14.993,1 17.708,2.196 19.691,4.136 C19.697,4.142 19.704,4.148 19.71,4.154 C21.741,6.15 23,8.928 23,12 C23,12.184 22.995,12.368 22.986,12.549 C22.96,13.091 22.506,13.512 21.964,13.5 L21.959,13.5 L21.951,13.499 L21.923,13.498 C21.9,13.498 21.867,13.496 21.825,13.494 C21.742,13.491 21.623,13.484 21.476,13.473 C21.183,13.451 20.773,13.412 20.3,13.341 C19.371,13.202 18.129,12.933 17.053,12.394 C16.626,12.181 16.14,11.748 15.745,11.23 C15.337,10.696 14.948,9.974 14.823,9.129 C14.695,8.258 14.854,7.304 15.476,6.382 C15.882,5.778 16.469,5.213 17.256,4.693 C15.777,3.628 13.962,3 12,3 C11.166,3 10.359,3.113 9.592,3.326 L12.027,6.792 C12.365,7.272 12.391,7.904 12.095,8.411 L10.269,11.536 L10.283,14.69 C10.288,15.631 9.433,16.344 8.507,16.171 L4.935,15.502 Z M12.884,12.884 C13.162,12.606 13.578,12.516 13.946,12.656 L22.294,15.823 C22.68,15.969 22.936,16.337 22.94,16.749 C22.943,17.161 22.694,17.533 22.311,17.686 L19.007,19.007 L17.686,22.311 C17.533,22.694 17.161,22.943 16.749,22.94 C16.337,22.936 15.969,22.68 15.823,22.294 L12.656,13.946 C12.516,13.578 12.606,13.162 12.884,12.884 Z M7.69,4.097 C4.895,5.624 3,8.591 3,12 C3,12.744 3.09,13.467 3.261,14.159 L4.095,13.677 C4.405,13.498 4.769,13.436 5.121,13.502 L8.281,14.094 L8.269,11.409 C8.268,11.141 8.338,10.877 8.474,10.646 L9.006,9.734 Z M18.793,6.095 C17.922,6.593 17.417,7.08 17.134,7.499 C16.803,7.991 16.743,8.439 16.802,8.836 C16.864,9.258 17.07,9.67 17.334,10.016 C17.61,10.377 17.875,10.569 17.947,10.606 C18.748,11.006 19.75,11.236 20.596,11.363 C20.731,11.383 20.86,11.4 20.981,11.415 C20.851,9.385 20.048,7.538 18.793,6.095 Z M15.314,15.314 L16.782,19.184 L17.309,17.867 C17.411,17.612 17.612,17.411 17.867,17.309 L19.184,16.782 Z M7.69,4.097 L9.018,9.714 L10.206,7.679 L7.69,4.097 Z M9.337,11.15 L9.361,11.164 L9.018,9.714 L9.006,9.734 Z"/>
</svg>
