<svg xmlns="http://www.w3.org/2000/svg" width="24" height="24" viewBox="0 0 24 24">
  <defs/>
  <path d="M17.51,2.076 C17.901,1.685 18.534,1.685 18.925,2.076 C23.025,6.176 23.025,12.824 18.925,16.925 C17.257,18.593 15.168,19.582 13,19.893 L13,21 L17,21 C17.552,21 18,21.448 18,22 C18,22.552 17.552,23 17,23 L7,23 C6.448,23 6,22.552 6,22 C6,21.448 6.448,21 7,21 L11,21 L11,19.988 C8.794,19.884 6.615,19.087 4.816,17.599 L3.368,19.046 C2.978,19.437 2.345,19.437 1.954,19.046 C1.564,18.656 1.564,18.022 1.954,17.632 L4.075,15.511 L4.076,15.51 L5.894,13.692 C5.018,12.524 4.5,11.073 4.5,9.5 C4.5,5.634 7.634,2.5 11.5,2.5 C15.366,2.5 18.5,5.634 18.5,9.5 C18.5,13.366 15.366,16.5 11.5,16.5 C9.928,16.5 8.476,15.982 7.308,15.107 L6.238,16.177 C9.574,18.813 14.43,18.591 17.51,15.511 C20.83,12.191 20.83,6.809 17.51,3.49 C17.12,3.099 17.12,2.466 17.51,2.076 Z M11.5,4.5 C8.739,4.5 6.5,6.739 6.5,9.5 C6.5,12.262 8.739,14.5 11.5,14.5 C14.261,14.5 16.5,12.262 16.5,9.5 C16.5,6.739 14.261,4.5 11.5,4.5 Z"/>
</svg>
