<svg xmlns="http://www.w3.org/2000/svg" width="24" height="24" viewBox="0 0 24 24">
  <defs/>
  <path d="M1.069,10.762 C1.07,10.752 1.071,10.742 1.072,10.732 C1.701,5.254 6.354,1 12,1 C13.04,1 14.047,1.144 15.002,1.415 C15.614,1.148 16.29,1 17,1 C19.761,1 22,3.239 22,6 C22,6.391 21.951,6.765 21.864,7.126 C22.591,8.596 23,10.251 23,12 C23,18.075 18.075,23 12,23 C11.44,23 10.89,22.958 10.352,22.877 C5.059,22.082 1,17.515 1,12 C1,11.582 1.023,11.168 1.069,10.762 Z M3.284,9.748 L7.503,9.372 C8.087,9.32 8.648,9.614 8.939,10.123 L10.733,13.267 L13.471,14.832 C14.288,15.299 14.478,16.395 13.866,17.11 L11.5,19.87 L11.5,20.986 C11.666,20.995 11.832,21 12,21 C16.971,21 21,16.971 21,12 C21,11.144 20.881,10.318 20.659,9.535 C20.62,9.587 20.581,9.638 20.542,9.689 C19.868,10.564 19.004,11.42 18.171,12.246 C18.015,12.401 17.86,12.554 17.707,12.707 C17.317,13.098 16.683,13.098 16.293,12.707 C16.14,12.554 15.985,12.401 15.829,12.246 C14.996,11.42 14.132,10.564 13.458,9.689 C12.647,8.636 12,7.422 12,6 C12,4.897 12.357,3.878 12.962,3.051 C12.646,3.017 12.325,3 12,3 C7.807,3 4.284,5.867 3.284,9.748 Z M17,3 C15.343,3 14,4.343 14,6 C14,6.788 14.353,7.573 15.042,8.468 C15.578,9.163 16.25,9.845 17,10.59 C17.75,9.845 18.422,9.163 18.958,8.468 C19.647,7.573 20,6.788 20,6 C20,4.343 18.657,3 17,3 Z M3.003,11.781 L9.911,18.651 L11.953,16.268 L9.622,14.936 C9.39,14.803 9.197,14.61 9.064,14.377 L9.932,13.881 L9.064,14.377 L7.361,11.393 Z M9.91,18.652 L3.003,11.781 C3.001,11.854 3,11.927 3,12 C3,16.103 5.746,19.565 9.5,20.648 L9.5,19.685 C9.5,19.327 9.628,18.981 9.861,18.709 L9.91,18.652 Z M15.75,5.75 C15.75,5.06 16.31,4.5 17,4.5 C17.69,4.5 18.25,5.06 18.25,5.75 C18.25,6.44 17.69,7 17,7 C16.31,7 15.75,6.44 15.75,5.75 Z M10.62,19.36 L10.642,19.378 L9.911,18.651 L9.91,18.652 Z"/>
</svg>
