<svg xmlns="http://www.w3.org/2000/svg" width="24" height="24" viewBox="0 0 24 24">
  <defs/>
  <path d="M1,12 C1,5.925 5.925,1 12,1 C18.075,1 23,5.925 23,12 C23,18.075 18.075,23 12,23 C5.925,23 1,18.075 1,12 Z M14.942,13 L9.058,13 C9.309,15.713 10.33,18.298 12,20.449 C13.67,18.298 14.691,15.713 14.942,13 Z M12,3.551 C10.33,5.702 9.309,8.287 9.058,11 L14.942,11 C14.691,8.287 13.67,5.702 12,3.551 Z M14.274,20.71 C17.831,19.784 20.532,16.737 20.945,13 L16.95,13 C16.726,15.763 15.801,18.416 14.274,20.71 Z M20.945,11 C20.532,7.263 17.831,4.216 14.274,3.29 C15.801,5.584 16.726,8.237 16.95,11 Z M7.05,13 L3.055,13 C3.468,16.737 6.169,19.784 9.726,20.71 C8.199,18.416 7.274,15.763 7.05,13 Z M3.055,11 L7.05,11 C7.274,8.237 8.199,5.584 9.726,3.29 C6.169,4.216 3.468,7.263 3.055,11 Z"/>
</svg>
