<svg xmlns="http://www.w3.org/2000/svg" width="24" height="24" viewBox="0 0 24 24">
  <defs/>
  <path d="M17.924,1.661 C18.315,1.271 18.948,1.271 19.339,1.661 C24.22,6.543 24.22,14.457 19.339,19.339 C14.664,24.014 7.208,24.212 2.296,19.932 C2.291,19.927 2.285,19.922 2.279,19.917 C2.196,19.845 2.09,19.752 2.002,19.66 C1.893,19.545 1.764,19.383 1.678,19.157 C1.563,18.853 1.551,18.504 1.645,18.192 C1.717,17.953 1.842,17.779 1.941,17.661 C2.024,17.561 2.127,17.459 2.21,17.376 C2.216,17.37 2.221,17.364 2.227,17.359 L3.824,15.762 C2.682,14.314 2,12.487 2,10.5 C2,5.805 5.806,2 10.5,2 C12.56,2 14.449,2.733 15.92,3.952 L17.836,1.762 C17.863,1.727 17.892,1.693 17.924,1.661 Z M17.924,1.661 L17.836,1.762 C17.537,2.154 17.566,2.717 17.924,3.075 L17.924,6.358 C17.409,5.437 16.728,4.621 15.92,3.952 L14.602,5.458 C13.484,4.546 12.056,4 10.5,4 C6.91,4 4,6.91 4,10.5 C4,10.828 4.024,11.151 4.071,11.466 L7.818,13.212 L6.047,15.235 C7.211,16.33 8.777,17 10.5,17 C11.743,17 12.905,16.651 13.893,16.045 L15.965,17.011 C14.487,18.252 12.581,19 10.5,19 C8.513,19 6.685,18.318 5.238,17.176 L3.816,18.598 C7.94,22.011 14.063,21.787 17.924,17.924 C22.025,13.824 22.025,7.176 17.924,3.075 Z M14.602,5.458 C16.065,6.65 17,8.466 17,10.5 C17,12.846 15.757,14.902 13.893,16.045 L7.818,13.212 L14.602,5.458 Z M2,10.5 L3.824,15.762 L2.602,18.481 L3.081,18.626 L6.047,15.235 C5.009,14.258 4.291,12.943 4.071,11.466 Z M19,10.5 C19,12.003 18.609,13.416 17.924,14.641 L17.924,17.924 L15.965,17.011 C16.753,16.349 17.419,15.546 17.924,14.641 L17.924,6.358 C18.609,7.584 19,8.996 19,10.5 Z"/>
</svg>
