<svg xmlns="http://www.w3.org/2000/svg" width="24" height="24" viewBox="0 0 24 24">
  <defs/>
  <path d="M3.095,5.541 C3.126,5.489 3.163,5.44 3.204,5.394 C5.211,2.726 8.404,1 12,1 C16.488,1 20.348,3.688 22.059,7.542 C22.079,7.58 22.096,7.619 22.111,7.66 C22.683,8.992 23,10.459 23,12 C23,18.075 18.075,23 12,23 C11.607,23 11.219,22.979 10.837,22.939 C10.792,22.937 10.746,22.932 10.701,22.924 C5.238,22.281 1,17.635 1,12 C1,9.587 1.777,7.355 3.095,5.541 Z M20.488,9 L16,9 C16.628,9.836 17,10.874 17,12 C17,12.983 16.716,13.901 16.226,14.674 L12.587,20.981 C17.284,20.678 21,16.773 21,12 C21,10.948 20.819,9.938 20.488,9 Z M3.927,8.018 C3.333,9.218 3,10.57 3,12 C3,16.409 6.17,20.077 10.354,20.85 L12.595,16.965 C12.4,16.988 12.201,17 12,17 C10.074,17 8.403,15.911 7.567,14.316 Z M5.158,6.152 L7.402,10.033 C8.166,8.249 9.937,7 12,7 L19.485,7 C17.87,4.588 15.12,3 12,3 C9.262,3 6.809,4.223 5.158,6.152 Z M14.637,13.433 C14.868,13.007 15,12.519 15,12 C15,10.343 13.657,9 12,9 C10.343,9 9,10.343 9,12 C9,12.491 9.118,12.954 9.326,13.362 L9.406,13.5 C9.419,13.522 9.431,13.545 9.442,13.568 C9.97,14.427 10.918,15 12,15 C13.056,15 13.984,14.454 14.519,13.63 L14.594,13.5 C14.607,13.477 14.622,13.454 14.637,13.433 Z"/>
</svg>
