<svg xmlns="http://www.w3.org/2000/svg" width="24" height="24" viewBox="0 0 24 24">
  <defs/>
  <path d="M3,10.118 L1.553,9.394 C1.214,9.225 1,8.879 1,8.5 C1,8.121 1.214,7.775 1.553,7.606 L11.195,2.785 C11.202,2.781 11.211,2.776 11.221,2.772 C11.314,2.724 11.507,2.625 11.723,2.585 C11.906,2.551 12.094,2.551 12.277,2.585 C12.493,2.625 12.686,2.724 12.779,2.772 C12.789,2.776 12.798,2.781 12.805,2.785 L22.447,7.606 C22.786,7.775 23,8.121 23,8.5 C23,8.879 22.786,9.225 22.447,9.394 L21,10.118 L21,16.307 C21,16.332 21,16.358 21,16.385 L21,16.385 C21.001,16.671 21.003,17.03 20.884,17.363 C20.781,17.651 20.614,17.911 20.395,18.125 C20.142,18.372 19.815,18.52 19.555,18.638 C19.53,18.649 19.507,18.66 19.483,18.67 L13.083,21.604 C13.067,21.611 13.05,21.619 13.032,21.627 C12.842,21.715 12.603,21.825 12.342,21.871 C12.116,21.91 11.884,21.91 11.658,21.871 C11.397,21.825 11.158,21.715 10.968,21.627 C10.95,21.619 10.933,21.611 10.917,21.604 L4.517,18.67 C4.494,18.66 4.47,18.649 4.445,18.638 C4.185,18.52 3.858,18.372 3.605,18.125 C3.386,17.911 3.219,17.651 3.116,17.363 C2.997,17.03 2.999,16.671 3,16.385 C3,16.358 3,16.332 3,16.307 Z M5,11.118 L5,16.307 C5,16.505 5,16.608 5.005,16.682 L5.006,16.688 C5.007,16.689 5.009,16.69 5.011,16.691 C5.077,16.726 5.17,16.77 5.35,16.852 L11.75,19.785 C11.881,19.846 11.947,19.876 11.996,19.895 C11.998,19.896 11.999,19.896 12,19.897 C12.001,19.896 12.002,19.896 12.004,19.895 C12.053,19.876 12.119,19.846 12.25,19.785 L18.65,16.852 C18.83,16.77 18.923,16.726 18.989,16.691 C18.991,16.69 18.993,16.689 18.994,16.688 C18.994,16.686 18.995,16.684 18.995,16.682 C19,16.608 19,16.505 19,16.307 L19,11.118 L18,11.618 L18,14.5 C18,15.052 17.552,15.5 17,15.5 C16.448,15.5 16,15.052 16,14.5 L16,12.618 L12.805,14.216 C12.798,14.219 12.789,14.224 12.779,14.229 C12.686,14.276 12.493,14.375 12.277,14.415 C12.094,14.45 11.906,14.45 11.723,14.415 C11.507,14.375 11.314,14.276 11.221,14.229 C11.211,14.224 11.202,14.219 11.195,14.216 Z M12,4.618 L4.236,8.5 L4.428,8.596 C4.44,8.602 4.453,8.608 4.465,8.615 L12,12.382 L14.764,11 L11.553,9.394 C11.059,9.148 10.859,8.547 11.106,8.053 C11.353,7.559 11.953,7.359 12.447,7.606 L17,9.882 L19.535,8.615 C19.547,8.608 19.56,8.602 19.572,8.596 L19.764,8.5 Z"/>
</svg>
