<svg xmlns="http://www.w3.org/2000/svg" width="24" height="24" viewBox="0 0 24 24">
  <defs/>
  <path d="M4,10.618 L1.553,9.394 C1.214,9.225 1,8.879 1,8.5 C1,8.121 1.214,7.775 1.553,7.606 L11.195,2.785 C11.202,2.781 11.211,2.776 11.221,2.772 C11.314,2.724 11.507,2.625 11.723,2.585 C11.906,2.551 12.094,2.551 12.277,2.585 C12.493,2.625 12.686,2.724 12.779,2.772 C12.789,2.776 12.798,2.781 12.805,2.785 L22.447,7.606 C22.786,7.775 23,8.121 23,8.5 C23,8.879 22.786,9.225 22.447,9.394 L20,10.618 L20,16.011 C20,16.036 20,16.061 20,16.087 L20,16.088 C20.001,16.364 20.002,16.71 19.891,17.034 C19.794,17.314 19.636,17.57 19.429,17.781 C19.189,18.027 18.878,18.181 18.631,18.303 C18.607,18.315 18.585,18.326 18.563,18.337 L13.163,21.037 C13.145,21.046 13.127,21.055 13.108,21.064 C12.905,21.166 12.65,21.295 12.369,21.348 C12.125,21.393 11.875,21.393 11.631,21.348 C11.35,21.295 11.095,21.166 10.892,21.064 C10.873,21.055 10.855,21.046 10.837,21.037 L5.437,18.337 C5.415,18.326 5.393,18.315 5.369,18.303 C5.122,18.181 4.811,18.027 4.571,17.781 C4.364,17.57 4.206,17.314 4.109,17.034 C3.997,16.71 3.999,16.363 4,16.087 C4,16.061 4,16.036 4,16.011 Z M12,4.618 L4.236,8.5 L5.428,9.096 C5.44,9.102 5.453,9.108 5.465,9.115 L12,12.382 L18.535,9.115 C18.547,9.108 18.56,9.102 18.572,9.096 L19.764,8.5 Z M6,11.618 L6,16.011 C6,16.203 6,16.301 6.005,16.373 L6.005,16.379 C6.007,16.38 6.009,16.381 6.011,16.382 C6.072,16.418 6.16,16.462 6.332,16.548 L11.732,19.248 C11.872,19.318 11.943,19.353 11.996,19.376 C11.997,19.377 11.999,19.377 12,19.378 C12.001,19.377 12.003,19.377 12.004,19.376 C12.057,19.353 12.128,19.318 12.268,19.248 L17.668,16.548 C17.84,16.462 17.928,16.418 17.989,16.382 C17.991,16.381 17.993,16.38 17.995,16.379 L17.995,16.373 C18,16.301 18,16.203 18,16.011 L18,11.618 L12.805,14.216 C12.798,14.219 12.789,14.224 12.779,14.229 C12.686,14.276 12.493,14.375 12.277,14.415 C12.094,14.45 11.906,14.45 11.723,14.415 C11.507,14.375 11.314,14.276 11.221,14.229 C11.211,14.224 11.202,14.219 11.195,14.216 Z"/>
</svg>
