<svg xmlns="http://www.w3.org/2000/svg" width="24" height="24" viewBox="0 0 24 24">
  <defs/>
  <path d="M21,2 C21.552,2 22,2.448 22,3 L22,21 C22,21.552 21.552,22 21,22 C20.448,22 20,21.552 20,21 L20,3 C20,2.448 20.448,2 21,2 Z M11,12 C11,11.448 11.448,11 12,11 L12.01,11 C12.562,11 13.01,11.448 13.01,12 C13.01,12.552 12.562,13 12.01,13 L12,13 C11.448,13 11,12.552 11,12 Z M15.5,12 C15.5,11.448 15.948,11 16.5,11 L16.51,11 C17.062,11 17.51,11.448 17.51,12 C17.51,12.552 17.062,13 16.51,13 L16.5,13 C15.948,13 15.5,12.552 15.5,12 Z M11,16.5 C11,15.948 11.448,15.5 12,15.5 L12.01,15.5 C12.562,15.5 13.01,15.948 13.01,16.5 C13.01,17.052 12.562,17.5 12.01,17.5 L12,17.5 C11.448,17.5 11,17.052 11,16.5 Z M11,21 C11,20.448 11.448,20 12,20 L12.01,20 C12.562,20 13.01,20.448 13.01,21 C13.01,21.552 12.562,22 12.01,22 L12,22 C11.448,22 11,21.552 11,21 Z M15.5,21 C15.5,20.448 15.948,20 16.5,20 L16.51,20 C17.062,20 17.51,20.448 17.51,21 C17.51,21.552 17.062,22 16.51,22 L16.5,22 C15.948,22 15.5,21.552 15.5,21 Z M2,12 C2,11.448 2.448,11 3,11 L3.01,11 C3.562,11 4.01,11.448 4.01,12 C4.01,12.552 3.562,13 3.01,13 L3,13 C2.448,13 2,12.552 2,12 Z M2,16.5 C2,15.948 2.448,15.5 3,15.5 L3.01,15.5 C3.562,15.5 4.01,15.948 4.01,16.5 C4.01,17.052 3.562,17.5 3.01,17.5 L3,17.5 C2.448,17.5 2,17.052 2,16.5 Z M2,21 C2,20.448 2.448,20 3,20 L3.01,20 C3.562,20 4.01,20.448 4.01,21 C4.01,21.552 3.562,22 3.01,22 L3,22 C2.448,22 2,21.552 2,21 Z M6.5,12 C6.5,11.448 6.948,11 7.5,11 L7.51,11 C8.062,11 8.51,11.448 8.51,12 C8.51,12.552 8.062,13 7.51,13 L7.5,13 C6.948,13 6.5,12.552 6.5,12 Z M11,7.5 C11,6.948 11.448,6.5 12,6.5 L12.01,6.5 C12.562,6.5 13.01,6.948 13.01,7.5 C13.01,8.052 12.562,8.5 12.01,8.5 L12,8.5 C11.448,8.5 11,8.052 11,7.5 Z M11,3 C11,2.448 11.448,2 12,2 L12.01,2 C12.562,2 13.01,2.448 13.01,3 C13.01,3.552 12.562,4 12.01,4 L12,4 C11.448,4 11,3.552 11,3 Z M15.5,3 C15.5,2.448 15.948,2 16.5,2 L16.51,2 C17.062,2 17.51,2.448 17.51,3 C17.51,3.552 17.062,4 16.51,4 L16.5,4 C15.948,4 15.5,3.552 15.5,3 Z M6.5,21 C6.5,20.448 6.948,20 7.5,20 L7.51,20 C8.062,20 8.51,20.448 8.51,21 C8.51,21.552 8.062,22 7.51,22 L7.5,22 C6.948,22 6.5,21.552 6.5,21 Z M2,3 C2,2.448 2.448,2 3,2 L3.01,2 C3.562,2 4.01,2.448 4.01,3 C4.01,3.552 3.562,4 3.01,4 L3,4 C2.448,4 2,3.552 2,3 Z M2,7.5 C2,6.948 2.448,6.5 3,6.5 L3.01,6.5 C3.562,6.5 4.01,6.948 4.01,7.5 C4.01,8.052 3.562,8.5 3.01,8.5 L3,8.5 C2.448,8.5 2,8.052 2,7.5 Z M6.5,3 C6.5,2.448 6.948,2 7.5,2 L7.51,2 C8.062,2 8.51,2.448 8.51,3 C8.51,3.552 8.062,4 7.51,4 L7.5,4 C6.948,4 6.5,3.552 6.5,3 Z"/>
</svg>
