<svg xmlns="http://www.w3.org/2000/svg" width="24" height="24" viewBox="0 0 24 24">
  <defs/>
  <path d="M19.432,13 L19.436,13 C19.687,13 19.931,13 20.138,13.017 C20.367,13.036 20.637,13.08 20.908,13.218 C21.284,13.41 21.59,13.716 21.782,14.092 C21.92,14.363 21.964,14.633 21.983,14.862 C22,15.069 22,15.313 22,15.564 L22,19.436 C22,19.687 22,19.931 21.983,20.138 C21.964,20.367 21.92,20.637 21.782,20.908 C21.59,21.284 21.284,21.59 20.908,21.782 C20.637,21.92 20.367,21.964 20.138,21.983 C19.931,22 19.687,22 19.436,22 L15.564,22 C15.313,22 15.069,22 14.862,21.983 C14.633,21.964 14.363,21.92 14.092,21.782 C13.716,21.59 13.41,21.284 13.218,20.908 C13.08,20.637 13.036,20.367 13.017,20.138 C13,19.931 13,19.687 13,19.436 L13,15.564 C13,15.313 13,15.069 13.017,14.862 C13.036,14.633 13.08,14.363 13.218,14.092 C13.41,13.716 13.716,13.41 14.092,13.218 C14.363,13.08 14.633,13.036 14.862,13.017 C15.069,13 15.313,13 15.564,13 L19.432,13 Z M19.432,2 L19.432,2 C19.684,2 19.93,2 20.138,2.017 C20.367,2.036 20.637,2.08 20.908,2.218 C21.284,2.41 21.59,2.716 21.782,3.092 C21.92,3.363 21.964,3.633 21.983,3.862 C22,4.069 22,4.313 22,4.564 L22,8.436 C22,8.687 22,8.931 21.983,9.138 C21.964,9.367 21.92,9.637 21.782,9.908 C21.59,10.284 21.284,10.59 20.908,10.782 C20.637,10.92 20.367,10.964 20.138,10.983 C19.931,11 19.687,11 19.436,11 L15.564,11 C15.313,11 15.069,11 14.862,10.983 C14.633,10.964 14.363,10.92 14.092,10.782 C13.716,10.59 13.41,10.284 13.218,9.908 C13.08,9.637 13.036,9.367 13.017,9.138 C13,8.931 13,8.687 13,8.436 L13,4.564 C13,4.313 13,4.069 13.017,3.862 C13.036,3.633 13.08,3.363 13.218,3.092 C13.41,2.716 13.716,2.41 14.092,2.218 C14.363,2.08 14.633,2.036 14.862,2.017 C15.07,2 15.316,2 15.568,2 L19.432,2 Z M8.432,13 L8.436,13 C8.687,13 8.931,13 9.138,13.017 C9.367,13.036 9.637,13.08 9.908,13.218 C10.284,13.41 10.59,13.716 10.782,14.092 C10.92,14.363 10.964,14.633 10.983,14.862 C11,15.069 11,15.313 11,15.564 L11,19.436 C11,19.687 11,19.931 10.983,20.138 C10.964,20.367 10.92,20.637 10.782,20.908 C10.59,21.284 10.284,21.59 9.908,21.782 C9.637,21.92 9.367,21.964 9.138,21.983 C8.931,22 8.687,22 8.436,22 L4.564,22 C4.313,22 4.069,22 3.862,21.983 C3.633,21.964 3.363,21.92 3.092,21.782 C2.716,21.59 2.41,21.284 2.218,20.908 C2.08,20.637 2.036,20.367 2.017,20.138 C2,19.93 2,19.684 2,19.432 L2,15.568 C2,15.316 2,15.07 2.017,14.862 C2.036,14.633 2.08,14.363 2.218,14.092 C2.41,13.716 2.716,13.41 3.092,13.218 C3.363,13.08 3.633,13.036 3.862,13.017 C4.069,13 4.313,13 4.564,13 L8.432,13 Z M4.568,2 L8.4,2 L8.432,2 L8.432,2 C8.684,2 8.93,2 9.138,2.017 C9.367,2.036 9.637,2.08 9.908,2.218 C10.284,2.41 10.59,2.716 10.782,3.092 C10.92,3.363 10.964,3.633 10.983,3.862 C11,4.069 11,4.313 11,4.564 L11,8.436 C11,8.687 11,8.931 10.983,9.138 C10.964,9.367 10.92,9.637 10.782,9.908 C10.59,10.284 10.284,10.59 9.908,10.782 C9.637,10.92 9.367,10.964 9.138,10.983 C8.931,11 8.687,11 8.436,11 L4.564,11 C4.313,11 4.069,11 3.862,10.983 C3.633,10.964 3.363,10.92 3.092,10.782 C2.716,10.59 2.41,10.284 2.218,9.908 C2.08,9.637 2.036,9.367 2.017,9.138 C2,8.93 2,8.684 2,8.432 L2,8.432 L2,8.4 L2,4.6 L2,4.568 L2,4.568 C2,4.316 2,4.07 2.017,3.862 C2.036,3.633 2.08,3.363 2.218,3.092 C2.41,2.716 2.716,2.41 3.092,2.218 C3.363,2.08 3.633,2.036 3.862,2.017 C4.07,2 4.316,2 4.568,2 Z M4.011,4.011 C4.011,4.016 4.011,4.02 4.01,4.025 C4.001,4.141 4,4.303 4,4.6 L4,8.4 C4,8.697 4.001,8.859 4.01,8.975 C4.011,8.98 4.011,8.984 4.011,8.989 C4.016,8.989 4.02,8.989 4.025,8.99 C4.141,8.999 4.303,9 4.6,9 L8.4,9 C8.697,9 8.859,8.999 8.975,8.99 C8.98,8.989 8.984,8.989 8.989,8.989 C8.989,8.984 8.989,8.98 8.99,8.975 C8.999,8.859 9,8.697 9,8.4 L9,4.6 C9,4.303 8.999,4.141 8.99,4.025 C8.989,4.02 8.989,4.016 8.989,4.011 C8.984,4.011 8.98,4.011 8.975,4.01 C8.859,4.001 8.697,4 8.4,4 L4.6,4 C4.303,4 4.141,4.001 4.025,4.01 C4.02,4.011 4.016,4.011 4.011,4.011 Z M15.012,4.011 C15.011,4.016 15.011,4.02 15.01,4.025 C15.001,4.141 15,4.303 15,4.6 L15,8.4 C15,8.697 15.001,8.859 15.01,8.975 C15.011,8.98 15.011,8.984 15.012,8.989 C15.016,8.989 15.02,8.989 15.025,8.99 C15.141,8.999 15.304,9 15.6,9 L19.4,9 C19.697,9 19.859,8.999 19.975,8.99 C19.98,8.989 19.984,8.989 19.989,8.989 C19.989,8.984 19.989,8.98 19.99,8.975 C19.999,8.859 20,8.697 20,8.4 L20,4.6 C20,4.303 19.999,4.141 19.99,4.025 C19.989,4.02 19.989,4.016 19.989,4.011 C19.984,4.011 19.98,4.011 19.975,4.01 C19.859,4.001 19.697,4 19.4,4 L15.6,4 C15.304,4 15.141,4.001 15.025,4.01 C15.02,4.011 15.016,4.011 15.012,4.011 Z M4.011,15.012 C4.011,15.016 4.011,15.02 4.01,15.025 C4.001,15.141 4,15.304 4,15.6 L4,19.4 C4,19.697 4.001,19.859 4.01,19.975 C4.011,19.98 4.011,19.984 4.011,19.989 C4.016,19.989 4.02,19.989 4.025,19.99 C4.141,19.999 4.303,20 4.6,20 L8.4,20 C8.697,20 8.859,19.999 8.975,19.99 C8.98,19.989 8.984,19.989 8.989,19.989 C8.989,19.984 8.989,19.98 8.99,19.975 C8.999,19.859 9,19.697 9,19.4 L9,15.6 C9,15.304 8.999,15.141 8.99,15.025 C8.989,15.02 8.989,15.016 8.989,15.012 C8.984,15.011 8.98,15.011 8.975,15.01 C8.859,15.001 8.697,15 8.4,15 L4.6,15 C4.303,15 4.141,15.001 4.025,15.01 C4.02,15.011 4.016,15.011 4.011,15.012 Z M15.012,15.012 C15.011,15.016 15.011,15.02 15.01,15.025 C15.001,15.141 15,15.304 15,15.6 L15,19.4 C15,19.697 15.001,19.859 15.01,19.975 C15.011,19.98 15.011,19.984 15.012,19.989 C15.016,19.989 15.02,19.989 15.025,19.99 C15.141,19.999 15.304,20 15.6,20 L19.4,20 C19.697,20 19.859,19.999 19.975,19.99 C19.98,19.989 19.984,19.989 19.989,19.989 C19.989,19.984 19.989,19.98 19.99,19.975 C19.999,19.859 20,19.697 20,19.4 L20,15.6 C20,15.304 19.999,15.141 19.99,15.025 C19.989,15.02 19.989,15.016 19.989,15.012 C19.984,15.011 19.98,15.011 19.975,15.01 C19.859,15.001 19.697,15 19.4,15 L15.6,15 C15.304,15 15.141,15.001 15.025,15.01 C15.02,15.011 15.016,15.011 15.012,15.012 Z"/>
</svg>
