<svg xmlns="http://www.w3.org/2000/svg" width="24" height="24" viewBox="0 0 24 24">
  <defs/>
  <path d="M12,2 C12.552,2 13,2.448 13,3 L13,21 C13,21.552 12.552,22 12,22 C11.448,22 11,21.552 11,21 L11,3 C11,2.448 11.448,2 12,2 Z M15.5,12 C15.5,11.448 15.948,11 16.5,11 L16.51,11 C17.062,11 17.51,11.448 17.51,12 C17.51,12.552 17.062,13 16.51,13 L16.5,13 C15.948,13 15.5,12.552 15.5,12 Z M20,12 C20,11.448 20.448,11 21,11 L21.01,11 C21.562,11 22.01,11.448 22.01,12 C22.01,12.552 21.562,13 21.01,13 L21,13 C20.448,13 20,12.552 20,12 Z M20,16.5 C20,15.948 20.448,15.5 21,15.5 L21.01,15.5 C21.562,15.5 22.01,15.948 22.01,16.5 C22.01,17.052 21.562,17.5 21.01,17.5 L21,17.5 C20.448,17.5 20,17.052 20,16.5 Z M15.5,21 C15.5,20.448 15.948,20 16.5,20 L16.51,20 C17.062,20 17.51,20.448 17.51,21 C17.51,21.552 17.062,22 16.51,22 L16.5,22 C15.948,22 15.5,21.552 15.5,21 Z M20,21 C20,20.448 20.448,20 21,20 L21.01,20 C21.562,20 22.01,20.448 22.01,21 C22.01,21.552 21.562,22 21.01,22 L21,22 C20.448,22 20,21.552 20,21 Z M2,12 C2,11.448 2.448,11 3,11 L3.01,11 C3.562,11 4.01,11.448 4.01,12 C4.01,12.552 3.562,13 3.01,13 L3,13 C2.448,13 2,12.552 2,12 Z M2,16.5 C2,15.948 2.448,15.5 3,15.5 L3.01,15.5 C3.562,15.5 4.01,15.948 4.01,16.5 C4.01,17.052 3.562,17.5 3.01,17.5 L3,17.5 C2.448,17.5 2,17.052 2,16.5 Z M2,21 C2,20.448 2.448,20 3,20 L3.01,20 C3.562,20 4.01,20.448 4.01,21 C4.01,21.552 3.562,22 3.01,22 L3,22 C2.448,22 2,21.552 2,21 Z M6.5,12 C6.5,11.448 6.948,11 7.5,11 L7.51,11 C8.062,11 8.51,11.448 8.51,12 C8.51,12.552 8.062,13 7.51,13 L7.5,13 C6.948,13 6.5,12.552 6.5,12 Z M15.5,3 C15.5,2.448 15.948,2 16.5,2 L16.51,2 C17.062,2 17.51,2.448 17.51,3 C17.51,3.552 17.062,4 16.51,4 L16.5,4 C15.948,4 15.5,3.552 15.5,3 Z M20,7.5 C20,6.948 20.448,6.5 21,6.5 L21.01,6.5 C21.562,6.5 22.01,6.948 22.01,7.5 C22.01,8.052 21.562,8.5 21.01,8.5 L21,8.5 C20.448,8.5 20,8.052 20,7.5 Z M20,3 C20,2.448 20.448,2 21,2 L21.01,2 C21.562,2 22.01,2.448 22.01,3 C22.01,3.552 21.562,4 21.01,4 L21,4 C20.448,4 20,3.552 20,3 Z M6.5,21 C6.5,20.448 6.948,20 7.5,20 L7.51,20 C8.062,20 8.51,20.448 8.51,21 C8.51,21.552 8.062,22 7.51,22 L7.5,22 C6.948,22 6.5,21.552 6.5,21 Z M2,3 C2,2.448 2.448,2 3,2 L3.01,2 C3.562,2 4.01,2.448 4.01,3 C4.01,3.552 3.562,4 3.01,4 L3,4 C2.448,4 2,3.552 2,3 Z M2,7.5 C2,6.948 2.448,6.5 3,6.5 L3.01,6.5 C3.562,6.5 4.01,6.948 4.01,7.5 C4.01,8.052 3.562,8.5 3.01,8.5 L3,8.5 C2.448,8.5 2,8.052 2,7.5 Z M6.5,3 C6.5,2.448 6.948,2 7.5,2 L7.51,2 C8.062,2 8.51,2.448 8.51,3 C8.51,3.552 8.062,4 7.51,4 L7.5,4 C6.948,4 6.5,3.552 6.5,3 Z"/>
</svg>
