<svg xmlns="http://www.w3.org/2000/svg" width="24" height="24" viewBox="0 0 24 24">
  <defs/>
  <path d="M14.336,2.327 C14.664,2.188 15.024,2.111 15.4,2.111 C16.872,2.111 18.1,3.286 18.1,4.778 L18.1,5.535 C18.324,5.476 18.559,5.444 18.8,5.444 C20.272,5.444 21.5,6.62 21.5,8.111 L21.5,13.667 C21.5,18.84 17.228,23 12,23 C6.772,23 2.5,18.84 2.5,13.667 L2.5,11.444 C2.5,9.953 3.728,8.778 5.2,8.778 C5.441,8.778 5.676,8.809 5.9,8.869 L5.9,4.778 C5.9,3.286 7.128,2.111 8.6,2.111 C8.976,2.111 9.336,2.188 9.664,2.327 C10.135,1.529 11.012,1 12,1 C12.988,1 13.865,1.529 14.336,2.327 Z M12,3 C11.595,3 11.3,3.317 11.3,3.667 L11.3,10.889 C11.3,11.441 10.852,11.889 10.3,11.889 C9.748,11.889 9.3,11.441 9.3,10.889 L9.3,4.778 C9.3,4.428 9.005,4.111 8.6,4.111 C8.195,4.111 7.9,4.428 7.9,4.778 L7.9,14.222 C7.9,14.774 7.452,15.222 6.9,15.222 C6.348,15.222 5.9,14.774 5.9,14.222 L5.9,11.444 C5.9,11.095 5.605,10.778 5.2,10.778 C4.795,10.778 4.5,11.095 4.5,11.444 L4.5,13.667 C4.5,17.698 7.839,21 12,21 C16.161,21 19.5,17.698 19.5,13.667 L19.5,8.111 C19.5,7.761 19.205,7.444 18.8,7.444 C18.395,7.444 18.1,7.761 18.1,8.111 L18.1,10.889 C18.1,11.441 17.652,11.889 17.1,11.889 C16.548,11.889 16.1,11.441 16.1,10.889 L16.1,4.778 C16.1,4.428 15.805,4.111 15.4,4.111 C14.995,4.111 14.7,4.428 14.7,4.778 L14.7,10.889 C14.7,11.441 14.252,11.889 13.7,11.889 C13.148,11.889 12.7,11.441 12.7,10.889 L12.7,3.667 C12.7,3.317 12.405,3 12,3 Z"/>
</svg>
