<svg xmlns="http://www.w3.org/2000/svg" width="24" height="24" viewBox="0 0 24 24">
  <defs/>
  <path d="M9.664,2.014 C10.209,2.104 10.577,2.62 10.486,3.164 L9.847,7 L15.819,7 L16.514,2.836 C16.604,2.291 17.12,1.923 17.664,2.014 C18.209,2.104 18.577,2.62 18.486,3.164 L17.847,7 L20.5,7 C21.052,7 21.5,7.448 21.5,8 C21.5,8.552 21.052,9 20.5,9 L17.514,9 L16.514,15 L19.5,15 C20.052,15 20.5,15.448 20.5,16 C20.5,16.552 20.052,17 19.5,17 L16.18,17 L15.486,21.164 C15.396,21.709 14.88,22.077 14.336,21.986 C13.791,21.896 13.423,21.38 13.514,20.836 L14.153,17 L8.18,17 L7.486,21.164 C7.396,21.709 6.88,22.077 6.336,21.986 C5.791,21.896 5.423,21.38 5.514,20.836 L6.153,17 L2.5,17 C1.948,17 1.5,16.552 1.5,16 C1.5,15.448 1.948,15 2.5,15 L6.486,15 L7.486,9 L3.5,9 C2.948,9 2.5,8.552 2.5,8 C2.5,7.448 2.948,7 3.5,7 L7.82,7 L8.514,2.836 C8.604,2.291 9.12,1.923 9.664,2.014 Z M9.514,9 L8.514,15 L14.486,15 L15.486,9 Z"/>
</svg>
