<svg xmlns="http://www.w3.org/2000/svg" width="24" height="24" viewBox="0 0 24 24">
  <defs/>
  <path d="M8,2 C8.552,2 9,2.448 9,3 L9,7 L15,7 L15,3 C15,2.448 15.448,2 16,2 C16.552,2 17,2.448 17,3 L17,7 L20,7 C20.552,7 21,7.448 21,8 C21,8.552 20.552,9 20,9 L17,9 L17,15 L20,15 C20.552,15 21,15.448 21,16 C21,16.552 20.552,17 20,17 L17,17 L17,21 C17,21.552 16.552,22 16,22 C15.448,22 15,21.552 15,21 L15,17 L9,17 L9,21 C9,21.552 8.552,22 8,22 C7.448,22 7,21.552 7,21 L7,17 L4,17 C3.448,17 3,16.552 3,16 C3,15.448 3.448,15 4,15 L7,15 L7,9 L4,9 C3.448,9 3,8.552 3,8 C3,7.448 3.448,7 4,7 L7,7 L7,3 C7,2.448 7.448,2 8,2 Z M9,9 L9,15 L15,15 L15,9 Z"/>
</svg>
