<svg xmlns="http://www.w3.org/2000/svg" width="24" height="24" viewBox="0 0 24 24">
  <defs/>
  <path d="M1,13 C1,6.925 5.925,2 12,2 C18.075,2 23,6.925 23,13 L23,17 C23,17.552 22.552,18 22,18 C21.448,18 21,17.552 21,17 L21,13 C21,8.029 16.971,4 12,4 C7.029,4 3,8.029 3,13 L3,17 C3,17.552 2.552,18 2,18 C1.448,18 1,17.552 1,17 Z M13,15.5 C13,13.567 14.567,12 16.5,12 C18.433,12 20,13.567 20,15.5 L20,18.5 C20,20.433 18.433,22 16.5,22 C14.567,22 13,20.433 13,18.5 Z M4,15.5 C4,13.567 5.567,12 7.5,12 C9.433,12 11,13.567 11,15.5 L11,18.5 C11,20.433 9.433,22 7.5,22 C5.567,22 4,20.433 4,18.5 Z M7.5,14 C6.672,14 6,14.672 6,15.5 L6,18.5 C6,19.328 6.672,20 7.5,20 C8.328,20 9,19.328 9,18.5 L9,15.5 C9,14.672 8.328,14 7.5,14 Z M16.5,14 C15.672,14 15,14.672 15,15.5 L15,18.5 C15,19.328 15.672,20 16.5,20 C17.328,20 18,19.328 18,18.5 L18,15.5 C18,14.672 17.328,14 16.5,14 Z"/>
</svg>
