<svg width="24" height="24" viewBox="0 0 24 24" fill="none" xmlns="http://www.w3.org/2000/svg">
<path d="M11.5 21.2222C10.9477 21.2222 10.5 21.6699 10.5 22.2222C10.5 22.7745 10.9477 23.2222 11.5 23.2222V22.2222V21.2222ZM18.2778 18H17.2778V19.7222H18.2778H19.2778V18H18.2778ZM15.7778 22.2222V21.2222H11.5V22.2222V23.2222H15.7778V22.2222ZM18.2778 19.7222H17.2778C17.2778 20.5506 16.6062 21.2222 15.7778 21.2222V22.2222V23.2222C17.7108 23.2222 19.2778 21.6552 19.2778 19.7222H18.2778Z" fill="black"/>
<path d="M7 14.5C7 13.6716 6.32842 13 5.5 13C4.67158 13 4 13.6716 4 14.5V16.5C4 17.3284 4.67158 18 5.5 18C6.32842 18 7 17.3284 7 16.5V14.5ZM20 10C20 5.58172 16.4183 2 12 2C7.58172 2 4 5.58172 4 10V11.3359C4.45454 11.1201 4.96334 11 5.5 11C7.433 11 9 12.567 9 14.5V16.5C9 18.433 7.433 20 5.5 20C3.567 20 2 18.433 2 16.5V10C2 4.47716 6.47716 0 12 0C17.5229 0 22 4.47716 22 10V16.5C22 18.433 20.433 20 18.5 20C16.567 20 15 18.433 15 16.5V14.5C15 12.567 16.567 11 18.5 11C19.0367 11 19.5455 11.1201 20 11.3359V10ZM17 16.5C17 17.3284 17.6716 18 18.5 18C19.3284 18 20 17.3284 20 16.5V14.5C20 13.6716 19.3284 13 18.5 13C17.6716 13 17 13.6716 17 14.5V16.5Z" fill="black"/>
</svg>
