<svg width="24" height="24" viewBox="0 0 24 24" fill="none" xmlns="http://www.w3.org/2000/svg">
<path d="M19.2778 19C19.2778 18.4477 18.8301 18 18.2778 18C17.7255 18 17.2778 18.4477 17.2778 19H18.2778H19.2778ZM11.5 21.2222C10.9477 21.2222 10.5 21.6699 10.5 22.2222C10.5 22.7745 10.9477 23.2222 11.5 23.2222V22.2222V21.2222ZM20 16C20 16.5523 20.4477 17 21 17C21.5523 17 22 16.5523 22 16H21H20ZM2 16C2 16.5523 2.44772 17 3 17C3.55228 17 4 16.5523 4 16H3H2ZM18.2778 19H17.2778V19.7222H18.2778H19.2778V19H18.2778ZM15.7778 22.2222V21.2222H11.5V22.2222V23.2222H15.7778V22.2222ZM18.2778 19.7222H17.2778C17.2778 20.5506 16.6062 21.2222 15.7778 21.2222V22.2222V23.2222C17.7108 23.2222 19.2778 21.6552 19.2778 19.7222H18.2778ZM21 10H20V16H21H22V10H21ZM3 16H4V10H3H2V16H3ZM12 1V2C16.4183 2 20 5.58172 20 10H21H22C22 4.47715 17.5228 0 12 0V1ZM12 1V0C6.47715 0 2 4.47715 2 10H3H4C4 5.58172 7.58172 2 12 2V1ZM8 14.5H7V16.5H8H9V14.5H8ZM3 16.5H4V14.5H3H2V16.5H3ZM5.5 19V18C4.67157 18 4 17.3284 4 16.5H3H2C2 18.433 3.567 20 5.5 20V19ZM8 16.5H7C7 17.3284 6.32843 18 5.5 18V19V20C7.433 20 9 18.433 9 16.5H8ZM5.5 12V13C6.32843 13 7 13.6716 7 14.5H8H9C9 12.567 7.433 11 5.5 11V12ZM5.5 12V11C3.567 11 2 12.567 2 14.5H3H4C4 13.6716 4.67157 13 5.5 13V12ZM21 14.5H20V16.5H21H22V14.5H21ZM16 16.5H17V14.5H16H15V16.5H16ZM18.5 19V18C17.6716 18 17 17.3284 17 16.5H16H15C15 18.433 16.567 20 18.5 20V19ZM21 16.5H20C20 17.3284 19.3284 18 18.5 18V19V20C20.433 20 22 18.433 22 16.5H21ZM18.5 12V13C19.3284 13 20 13.6716 20 14.5H21H22C22 12.567 20.433 11 18.5 11V12ZM18.5 12V11C16.567 11 15 12.567 15 14.5H16H17C17 13.6716 17.6716 13 18.5 13V12Z" fill="black"/>
</svg>
