<svg xmlns="http://www.w3.org/2000/svg" width="24" height="24" viewBox="0 0 24 24">
  <defs/>
  <path d="M2,12 C2,6.477 6.477,2 12,2 C17.523,2 22,6.477 22,12 L22,18.5 C22,20.433 20.433,22 18.5,22 C16.567,22 15,20.433 15,18.5 L15,16.5 C15,14.567 16.567,13 18.5,13 C19.037,13 19.545,13.121 20,13.337 L20,12 C20,7.582 16.418,4 12,4 C7.582,4 4,7.582 4,12 L4,13.337 C4.455,13.121 4.963,13 5.5,13 C7.433,13 9,14.567 9,16.5 L9,18.5 C9,20.433 7.433,22 5.5,22 C3.567,22 2,20.433 2,18.5 Z M4,18.5 C4,19.328 4.672,20 5.5,20 C6.328,20 7,19.328 7,18.5 L7,16.5 C7,15.672 6.328,15 5.5,15 C4.672,15 4,15.672 4,16.5 Z M20,16.5 C20,15.672 19.328,15 18.5,15 C17.672,15 17,15.672 17,16.5 L17,18.5 C17,19.328 17.672,20 18.5,20 C19.328,20 20,19.328 20,18.5 Z"/>
</svg>
