<svg xmlns="http://www.w3.org/2000/svg" width="24" height="24" viewBox="0 0 24 24">
  <defs/>
  <path d="M3,4 C3,3.448 3.448,3 4,3 L11.5,3 C12.052,3 12.5,3.448 12.5,4 C12.5,4.552 12.052,5 11.5,5 L10.5,5 L10.5,11 L17,11 L17,5 L16,5 C15.448,5 15,4.552 15,4 C15,3.448 15.448,3 16,3 L20,3 C20.552,3 21,3.448 21,4 C21,4.552 20.552,5 20,5 L19,5 L19,19 L20,19 C20.552,19 21,19.448 21,20 C21,20.552 20.552,21 20,21 L16,21 C15.448,21 15,20.552 15,20 C15,19.448 15.448,19 16,19 L17,19 L17,13 L10.5,13 L10.5,19 L11.5,19 C12.052,19 12.5,19.448 12.5,20 C12.5,20.552 12.052,21 11.5,21 L4,21 C3.448,21 3,20.552 3,20 C3,19.448 3.448,19 4,19 L5,19 L5,5 L4,5 C3.448,5 3,4.552 3,4 Z M7,5 L7,19 L8.5,19 L8.5,5 Z"/>
</svg>
