<svg xmlns="http://www.w3.org/2000/svg" width="24" height="24" viewBox="0 0 24 24">
  <defs/>
  <path d="M8.472,1 C8.489,1 8.506,1 8.523,1 L15.477,1 C15.494,1 15.511,1 15.528,1 C15.718,0.999 15.957,0.999 16.193,1.055 C16.397,1.104 16.592,1.185 16.771,1.295 C16.977,1.421 17.146,1.591 17.28,1.725 C17.292,1.738 17.304,1.75 17.316,1.761 L22.239,6.684 C22.25,6.696 22.262,6.708 22.275,6.72 C22.409,6.854 22.579,7.023 22.705,7.229 C22.815,7.408 22.896,7.603 22.945,7.807 C23.001,8.043 23.001,8.282 23,8.472 C23,8.489 23,8.506 23,8.523 L23,15.477 C23,15.494 23,15.511 23,15.528 C23.001,15.718 23.001,15.957 22.945,16.193 C22.896,16.397 22.815,16.592 22.705,16.771 C22.579,16.977 22.409,17.146 22.275,17.28 C22.262,17.292 22.25,17.304 22.239,17.316 L17.316,22.238 C17.304,22.25 17.292,22.262 17.28,22.275 C17.146,22.409 16.977,22.579 16.771,22.705 C16.592,22.815 16.397,22.896 16.193,22.945 C15.958,23.001 15.719,23.001 15.529,23 L15.528,23 C15.511,23 15.494,23 15.477,23 L8.523,23 C8.506,23 8.489,23 8.472,23 L8.471,23 C8.281,23.001 8.042,23.001 7.807,22.945 C7.603,22.896 7.408,22.815 7.229,22.705 C7.023,22.579 6.854,22.409 6.72,22.275 C6.708,22.262 6.696,22.25 6.684,22.238 L1.762,17.316 C1.75,17.304 1.738,17.292 1.725,17.28 C1.591,17.146 1.421,16.977 1.295,16.771 C1.185,16.592 1.104,16.397 1.055,16.193 C0.999,15.957 0.999,15.718 1,15.528 C1,15.511 1,15.494 1,15.477 L1,8.523 C1,8.506 1,8.489 1,8.472 C0.999,8.282 0.999,8.043 1.055,7.807 C1.104,7.603 1.185,7.408 1.295,7.229 C1.421,7.023 1.591,6.854 1.725,6.72 C1.738,6.708 1.75,6.696 1.762,6.684 L6.684,1.761 C6.696,1.75 6.708,1.738 6.72,1.725 C6.854,1.591 7.023,1.421 7.229,1.295 C7.408,1.185 7.603,1.104 7.807,1.055 C8.043,0.999 8.282,0.999 8.472,1 Z M8.275,3.003 C8.274,3.003 8.274,3.004 8.273,3.005 C8.238,3.037 8.191,3.083 8.098,3.176 L3.176,8.098 C3.083,8.191 3.037,8.237 3.005,8.273 C3.004,8.273 3.003,8.274 3.003,8.275 L3.002,8.279 C3,8.326 3,8.392 3,8.523 L3,15.477 C3,15.608 3,15.674 3.002,15.721 L3.003,15.725 C3.003,15.726 3.004,15.726 3.005,15.727 C3.037,15.762 3.083,15.809 3.176,15.901 L8.098,20.824 C8.191,20.917 8.238,20.963 8.273,20.995 C8.274,20.996 8.274,20.997 8.275,20.997 L8.279,20.997 C8.326,21 8.392,21 8.523,21 L15.477,21 C15.608,21 15.674,21 15.721,20.997 L15.725,20.997 L15.727,20.995 C15.762,20.963 15.809,20.917 15.901,20.824 L20.824,15.901 C20.917,15.809 20.963,15.762 20.995,15.727 C20.996,15.726 20.997,15.726 20.997,15.725 L20.998,15.721 C21,15.674 21,15.608 21,15.477 L21,8.523 C21,8.392 21,8.326 20.998,8.279 L20.997,8.275 C20.997,8.274 20.996,8.273 20.995,8.273 C20.963,8.237 20.917,8.191 20.824,8.098 L15.901,3.176 C15.809,3.083 15.762,3.037 15.727,3.005 C15.726,3.004 15.726,3.003 15.725,3.003 L15.721,3.002 C15.674,3 15.608,3 15.477,3 L8.523,3 C8.392,3 8.326,3 8.279,3.002 Z M11.996,7.723 C13.31,6.791 15.105,6.681 16.555,7.886 C18.254,9.298 18.457,11.713 17.151,13.394 C16.455,14.289 14.765,15.857 13.71,16.812 L13.688,16.832 C13.528,16.977 13.367,17.122 13.217,17.237 C13.048,17.367 12.841,17.499 12.577,17.579 C12.203,17.692 11.79,17.692 11.417,17.579 C11.152,17.499 10.945,17.367 10.776,17.237 C10.627,17.122 10.465,16.977 10.305,16.832 L10.283,16.812 C9.228,15.857 7.538,14.289 6.843,13.394 C5.528,11.702 5.773,9.308 7.428,7.895 C8.867,6.665 10.679,6.791 11.996,7.723 Z M11.237,9.718 C10.531,8.893 9.488,8.765 8.727,9.415 C7.876,10.142 7.769,11.327 8.422,12.167 C8.986,12.893 10.523,14.331 11.625,15.329 C11.816,15.502 11.916,15.591 11.993,15.65 C11.994,15.651 11.995,15.652 11.997,15.653 C11.998,15.652 11.999,15.651 12.001,15.65 C12.077,15.591 12.177,15.502 12.368,15.329 C13.47,14.331 15.007,12.893 15.571,12.167 C16.233,11.316 16.125,10.129 15.277,9.424 C14.484,8.765 13.454,8.902 12.757,9.718 C12.566,9.94 12.289,10.068 11.997,10.068 C11.704,10.068 11.427,9.94 11.237,9.718 Z"/>
</svg>
