<svg xmlns="http://www.w3.org/2000/svg" width="24" height="24" viewBox="0 0 24 24">
  <defs/>
  <path d="M11.993,3.717 C14.33,1.671 17.754,1.283 20.471,3.541 C23.444,6.012 23.802,10.228 21.512,13.174 C20.639,14.297 18.936,15.984 17.3,17.528 C15.644,19.091 13.992,20.568 13.177,21.289 L13.162,21.303 C13.085,21.371 12.99,21.456 12.898,21.524 C12.789,21.607 12.632,21.709 12.422,21.772 C12.143,21.855 11.843,21.855 11.564,21.772 C11.354,21.709 11.197,21.607 11.088,21.524 C10.997,21.456 10.901,21.371 10.825,21.303 L10.809,21.289 C9.994,20.568 8.342,19.091 6.687,17.528 C5.05,15.984 3.347,14.297 2.475,13.174 C0.176,10.216 0.598,6.033 3.505,3.55 C6.192,1.254 9.653,1.672 11.993,3.717 Z M11.233,5.786 C9.528,3.793 6.818,3.35 4.804,5.07 C2.701,6.867 2.418,9.842 4.054,11.947 C4.817,12.929 6.407,14.514 8.06,16.074 C9.603,17.53 11.146,18.915 11.993,19.666 C12.84,18.915 14.384,17.53 15.927,16.074 C17.58,14.514 19.169,12.929 19.933,11.947 C21.577,9.83 21.315,6.843 19.192,5.079 C17.125,3.361 14.451,3.801 12.753,5.786 C12.563,6.008 12.285,6.136 11.993,6.136 C11.701,6.136 11.423,6.008 11.233,5.786 Z"/>
</svg>
