<svg xmlns="http://www.w3.org/2000/svg" width="24" height="24" viewBox="0 0 24 24">
  <defs/>
  <path d="M4.432,12 L4.436,12 C4.687,12 4.931,12 5.138,12.017 C5.367,12.036 5.637,12.08 5.908,12.218 C6.284,12.41 6.59,12.716 6.782,13.092 C6.861,13.247 6.909,13.401 6.94,13.548 L8.533,12.882 L8.542,12.878 C8.557,12.871 8.579,12.861 8.606,12.849 C8.661,12.825 8.738,12.792 8.834,12.752 C9.024,12.672 9.289,12.565 9.588,12.458 C10.141,12.26 10.968,12 11.643,12 C12.122,12 12.599,12.057 13.064,12.17 L15.45,12.75 C16.543,13.015 17.349,13.957 17.405,15.084 L18.888,14.002 C19.907,13.259 21.329,13.355 22.235,14.236 C23.254,15.228 23.256,16.847 22.235,17.838 L20.078,19.937 C19.355,20.64 18.438,21.116 17.444,21.31 L14.394,21.903 C13.649,22.048 12.879,22.031 12.14,21.851 L9.383,21.18 L9.38,21.18 C9.129,21.118 8.871,21.087 8.61,21.087 L6.987,21.087 C6.986,21.104 6.984,21.121 6.983,21.138 C6.964,21.367 6.92,21.636 6.782,21.908 C6.59,22.284 6.284,22.59 5.908,22.782 C5.637,22.92 5.367,22.964 5.138,22.983 C4.931,23 4.687,23 4.436,23 L3.564,23 C3.313,23 3.069,23 2.862,22.983 C2.633,22.964 2.363,22.92 2.092,22.782 C1.716,22.59 1.41,22.284 1.218,21.908 C1.08,21.636 1.036,21.367 1.017,21.138 C1,20.93 1,20.684 1,20.432 L1,14.568 C1,14.316 1,14.07 1.017,13.862 C1.036,13.633 1.08,13.363 1.218,13.092 C1.41,12.716 1.716,12.41 2.092,12.218 C2.363,12.08 2.633,12.036 2.862,12.017 C3.069,12 3.313,12 3.564,12 L4.432,12 Z M17.535,2.306 C18.918,1.823 20.518,2.164 21.511,3.569 C22.691,5.238 22.294,7.445 20.725,8.633 C19.93,9.236 18.184,10.163 17.049,10.748 L17.022,10.761 C16.831,10.86 16.637,10.959 16.463,11.032 C16.266,11.113 16.032,11.188 15.755,11.197 C15.365,11.21 14.965,11.102 14.633,10.896 C14.398,10.75 14.232,10.569 14.102,10.399 C13.988,10.249 13.87,10.067 13.753,9.885 C13.748,9.877 13.743,9.869 13.737,9.86 C13.046,8.787 11.998,7.11 11.611,6.191 C10.841,4.364 11.635,2.284 13.45,1.418 C15.011,0.673 16.578,1.195 17.535,2.306 Z M7,19.087 L8.61,19.087 C9.03,19.087 9.448,19.137 9.856,19.237 L9.857,19.237 L11.48,19.632 L12.613,19.907 C13.071,20.019 13.549,20.03 14.012,19.94 L17.062,19.347 C17.679,19.226 18.244,18.931 18.683,18.504 L20.841,16.405 C21.052,16.2 21.053,15.877 20.841,15.67 C20.637,15.472 20.302,15.446 20.066,15.618 L17.553,17.452 C17.019,17.842 16.373,18.05 15.714,18.05 L13.285,18.05 C12.733,18.05 12.285,17.602 12.285,17.05 C12.285,16.498 12.733,16.05 13.285,16.05 L14.831,16.05 C15.176,16.05 15.408,15.785 15.408,15.516 L15.408,15.209 C15.408,14.984 15.248,14.759 14.978,14.694 L12.593,14.114 C12.282,14.038 11.963,14 11.643,14 C11.354,14 10.825,14.139 10.263,14.341 C10.005,14.433 9.773,14.526 9.606,14.596 C9.523,14.631 9.456,14.66 9.412,14.68 L9.361,14.702 L9.35,14.707 L9.348,14.708 C9.338,14.713 9.328,14.717 9.318,14.721 L7,15.691 Z M16.289,4.023 C15.887,3.183 15.066,2.863 14.311,3.223 C13.45,3.634 13.103,4.583 13.454,5.414 C13.759,6.139 14.695,7.653 15.419,8.778 C15.558,8.994 15.631,9.106 15.69,9.182 C15.691,9.184 15.692,9.185 15.693,9.186 C15.694,9.186 15.695,9.185 15.697,9.184 C15.786,9.147 15.904,9.087 16.133,8.969 C17.323,8.357 18.891,7.514 19.517,7.039 C20.248,6.485 20.42,5.489 19.878,4.724 C19.379,4.017 18.516,3.896 17.757,4.417 C17.516,4.582 17.215,4.634 16.933,4.558 C16.65,4.483 16.415,4.287 16.289,4.023 Z M5,15.048 C5,15.033 5,15.018 5,15.002 L5,14.6 C5,14.304 4.999,14.141 4.99,14.025 C4.989,14.02 4.989,14.016 4.989,14.011 C4.984,14.011 4.98,14.011 4.975,14.01 C4.859,14.001 4.697,14 4.4,14 L3.6,14 C3.303,14 3.141,14.001 3.025,14.01 C3.02,14.011 3.016,14.011 3.011,14.011 C3.011,14.016 3.011,14.02 3.01,14.025 C3.001,14.141 3,14.304 3,14.6 L3,20.4 C3,20.697 3.001,20.859 3.01,20.975 C3.011,20.98 3.011,20.984 3.011,20.989 C3.016,20.989 3.02,20.989 3.025,20.99 C3.141,20.999 3.303,21 3.6,21 L4.4,21 C4.697,21 4.859,20.999 4.975,20.99 C4.98,20.989 4.984,20.989 4.989,20.989 C4.989,20.984 4.989,20.98 4.99,20.975 C4.999,20.859 5,20.697 5,20.4 Z"/>
</svg>
