<svg xmlns="http://www.w3.org/2000/svg" width="24" height="24" viewBox="0 0 24 24">
  <defs/>
  <path d="M16.241,2 L16.241,2 C17.046,2 17.711,2 18.252,2.044 C18.814,2.09 19.331,2.189 19.816,2.436 C20.569,2.819 21.181,3.431 21.564,4.184 C21.811,4.669 21.91,5.186 21.956,5.748 C22,6.289 22,6.954 22,7.759 L22,16.241 C22,17.046 22,17.711 21.956,18.252 C21.91,18.814 21.811,19.331 21.564,19.816 C21.181,20.569 20.569,21.181 19.816,21.564 C19.331,21.811 18.814,21.91 18.252,21.956 C17.711,22 17.046,22 16.241,22 L7.759,22 C6.954,22 6.289,22 5.748,21.956 C5.186,21.91 4.669,21.811 4.184,21.564 C3.431,21.181 2.819,20.569 2.436,19.816 C2.189,19.331 2.09,18.814 2.044,18.252 C2,17.711 2,17.046 2,16.241 L2,7.759 C2,6.954 2,6.289 2.044,5.748 C2.09,5.186 2.189,4.669 2.436,4.184 C2.819,3.431 3.431,2.819 4.184,2.436 C4.669,2.189 5.186,2.09 5.748,2.044 C6.289,2 6.954,2 7.759,2 L16.241,2 Z M5.911,4.038 C5.473,4.073 5.248,4.138 5.092,4.218 C4.716,4.41 4.41,4.716 4.218,5.092 C4.138,5.248 4.073,5.473 4.038,5.911 C4.001,6.361 4,6.943 4,7.8 L4,16.2 C4,17.057 4.001,17.639 4.038,18.089 C4.073,18.527 4.138,18.752 4.218,18.908 C4.41,19.284 4.716,19.59 5.092,19.782 C5.248,19.862 5.473,19.927 5.911,19.962 C6.361,19.999 6.943,20 7.8,20 L16.2,20 C17.057,20 17.639,19.999 18.089,19.962 C18.527,19.927 18.752,19.862 18.908,19.782 C19.284,19.59 19.59,19.284 19.782,18.908 C19.862,18.752 19.927,18.527 19.962,18.089 C19.999,17.639 20,17.057 20,16.2 L20,7.8 C20,6.943 19.999,6.361 19.962,5.911 C19.927,5.473 19.862,5.248 19.782,5.092 C19.59,4.716 19.284,4.41 18.908,4.218 C18.752,4.138 18.527,4.073 18.089,4.038 C17.639,4.001 17.057,4 16.2,4 L7.8,4 C6.943,4 6.361,4.001 5.911,4.038 Z M11.996,7.723 C13.31,6.791 15.105,6.681 16.555,7.886 C18.254,9.299 18.457,11.713 17.151,13.394 C16.455,14.289 14.765,15.857 13.71,16.812 L13.688,16.832 C13.528,16.977 13.367,17.123 13.217,17.237 C13.048,17.367 12.841,17.499 12.577,17.579 C12.203,17.692 11.79,17.692 11.417,17.579 C11.152,17.499 10.945,17.367 10.776,17.237 C10.627,17.123 10.465,16.977 10.305,16.832 L10.283,16.812 C9.228,15.857 7.538,14.289 6.843,13.394 C5.527,11.702 5.773,9.308 7.428,7.895 C8.867,6.665 10.679,6.791 11.996,7.723 Z M11.237,9.718 C10.531,8.893 9.488,8.765 8.727,9.415 C7.876,10.142 7.769,11.327 8.422,12.167 C8.986,12.893 10.523,14.331 11.625,15.329 C11.816,15.502 11.916,15.591 11.993,15.65 C11.994,15.651 11.995,15.652 11.997,15.653 C11.998,15.652 11.999,15.651 12.001,15.65 C12.077,15.591 12.177,15.502 12.368,15.329 C13.47,14.331 15.007,12.893 15.571,12.167 C16.233,11.316 16.125,10.129 15.277,9.424 C14.484,8.765 13.454,8.902 12.757,9.718 C12.566,9.94 12.289,10.068 11.997,10.068 C11.704,10.068 11.427,9.94 11.237,9.718 Z"/>
</svg>
