<svg xmlns="http://www.w3.org/2000/svg" width="24" height="24" viewBox="0 0 24 24">
  <defs/>
  <path d="M1,12 C1,5.925 5.925,1 12,1 C18.075,1 23,5.925 23,12 C23,18.075 18.075,23 12,23 C5.925,23 1,18.075 1,12 Z M12,3 C7.029,3 3,7.029 3,12 C3,16.971 7.029,21 12,21 C16.971,21 21,16.971 21,12 C21,7.029 16.971,3 12,3 Z M11.996,7.723 C13.31,6.791 15.105,6.681 16.555,7.886 C18.254,9.299 18.457,11.713 17.151,13.394 C16.455,14.289 14.765,15.857 13.71,16.812 L13.688,16.832 C13.528,16.977 13.367,17.123 13.217,17.237 C13.048,17.367 12.841,17.499 12.577,17.579 C12.203,17.692 11.79,17.692 11.417,17.579 C11.152,17.499 10.945,17.367 10.776,17.237 C10.627,17.123 10.465,16.977 10.305,16.832 L10.283,16.812 C9.228,15.857 7.538,14.289 6.843,13.394 C5.527,11.702 5.773,9.308 7.428,7.895 C8.867,6.665 10.679,6.791 11.996,7.723 Z M11.237,9.718 C10.531,8.893 9.488,8.765 8.727,9.415 C7.876,10.142 7.769,11.327 8.422,12.167 C8.986,12.893 10.523,14.331 11.625,15.329 C11.816,15.502 11.916,15.591 11.993,15.65 C11.994,15.651 11.995,15.652 11.997,15.653 C11.998,15.652 11.999,15.651 12.001,15.65 C12.077,15.591 12.177,15.502 12.368,15.329 C13.47,14.331 15.007,12.893 15.571,12.167 C16.233,11.316 16.125,10.129 15.277,9.424 C14.484,8.765 13.454,8.902 12.757,9.718 C12.566,9.94 12.289,10.068 11.997,10.068 C11.704,10.068 11.427,9.94 11.237,9.718 Z"/>
</svg>
