<svg xmlns="http://www.w3.org/2000/svg" width="24" height="24" viewBox="0 0 24 24">
  <defs/>
  <path d="M1,9.48 C1,5.971 3.658,2 7.889,2 C9.716,2 11.066,2.711 12,3.511 C12.934,2.711 14.284,2 16.111,2 C20.342,2 23,5.971 23,9.48 C23,11.325 22.285,13.03 21.293,14.509 C20.3,15.99 18.992,17.3 17.711,18.38 C16.426,19.463 15.14,20.337 14.164,20.941 C13.675,21.243 13.26,21.481 12.956,21.645 C12.805,21.726 12.676,21.792 12.577,21.84 C12.529,21.864 12.479,21.887 12.432,21.907 C12.41,21.916 12.376,21.93 12.337,21.943 C12.318,21.95 12.285,21.96 12.246,21.97 L12.245,21.97 C12.219,21.976 12.124,22 12,22 C11.876,22 11.781,21.976 11.755,21.97 L11.754,21.97 C11.715,21.96 11.682,21.95 11.663,21.943 C11.624,21.93 11.59,21.916 11.568,21.907 C11.521,21.887 11.471,21.864 11.423,21.84 C11.324,21.792 11.195,21.726 11.044,21.645 C10.74,21.481 10.325,21.243 9.836,20.941 C8.86,20.337 7.574,19.463 6.289,18.38 C5.008,17.3 3.7,15.99 2.707,14.509 C1.715,13.03 1,11.325 1,9.48 Z M7.889,4 C5.076,4 3,6.734 3,9.48 C3,10.801 3.513,12.121 4.368,13.395 C5.222,14.668 6.381,15.842 7.578,16.851 C8.771,17.856 9.973,18.674 10.889,19.24 C11.346,19.523 11.727,19.74 11.994,19.885 C11.996,19.886 11.998,19.887 12,19.888 C12.002,19.887 12.004,19.886 12.006,19.885 C12.273,19.74 12.654,19.523 13.111,19.24 C14.027,18.674 15.229,17.856 16.422,16.851 C17.619,15.842 18.778,14.668 19.632,13.395 C20.487,12.121 21,10.801 21,9.48 C21,6.734 18.924,4 16.111,4 C14.47,4 13.403,4.818 12.761,5.572 C12.571,5.795 12.293,5.924 12,5.924 C11.707,5.924 11.429,5.795 11.239,5.572 C10.597,4.818 9.53,4 7.889,4 Z"/>
</svg>
