<svg xmlns="http://www.w3.org/2000/svg" width="24" height="24" viewBox="0 0 24 24">
  <defs/>
  <path d="M11.597,1.185 C11.863,1.13 12.137,1.13 12.403,1.185 C12.71,1.248 12.985,1.402 13.203,1.524 C13.224,1.536 13.243,1.547 13.263,1.557 L20.663,5.669 C20.683,5.68 20.704,5.692 20.726,5.703 C20.957,5.831 21.248,5.991 21.471,6.233 C21.664,6.442 21.81,6.691 21.899,6.961 C22.002,7.273 22.001,7.605 22,7.869 L22,7.869 C22,7.894 22,7.918 22,7.941 L22,16.059 C22,16.082 22,16.106 22,16.131 L22,16.131 C22.001,16.395 22.002,16.727 21.899,17.039 C21.81,17.309 21.664,17.558 21.471,17.767 C21.248,18.009 20.957,18.169 20.726,18.296 C20.704,18.308 20.683,18.32 20.663,18.331 L13.263,22.442 C13.243,22.453 13.224,22.464 13.203,22.476 C12.985,22.598 12.71,22.752 12.403,22.815 C12.137,22.87 11.863,22.87 11.597,22.815 C11.29,22.752 11.015,22.598 10.797,22.476 C10.776,22.464 10.757,22.453 10.737,22.442 L3.337,18.331 C3.317,18.32 3.296,18.308 3.274,18.296 C3.043,18.169 2.752,18.009 2.529,17.767 C2.336,17.558 2.19,17.309 2.101,17.039 C1.998,16.726 1.999,16.395 2,16.131 C2,16.106 2,16.082 2,16.059 L2,7.941 C2,7.918 2,7.894 2,7.869 L2,7.869 C1.999,7.605 1.998,7.274 2.101,6.961 C2.19,6.691 2.336,6.442 2.529,6.233 C2.752,5.991 3.043,5.831 3.274,5.703 C3.296,5.692 3.317,5.68 3.337,5.669 L10.737,1.557 C10.757,1.547 10.776,1.536 10.797,1.524 C11.015,1.402 11.29,1.248 11.597,1.185 Z M12,3.149 C11.998,3.15 11.997,3.15 11.995,3.151 C11.938,3.179 11.86,3.222 11.709,3.306 L4.309,7.417 C4.149,7.506 4.067,7.552 4.01,7.588 C4.008,7.589 4.006,7.59 4.005,7.591 L4.004,7.597 C4,7.665 4,7.758 4,7.941 L4,16.059 C4,16.242 4,16.335 4.004,16.403 L4.005,16.409 C4.006,16.41 4.008,16.411 4.01,16.412 C4.067,16.448 4.149,16.494 4.309,16.583 L11.709,20.694 C11.86,20.778 11.938,20.821 11.995,20.849 C11.997,20.85 11.998,20.85 12,20.851 C12.002,20.85 12.003,20.85 12.005,20.849 C12.062,20.821 12.14,20.778 12.291,20.694 L19.691,16.583 C19.851,16.494 19.933,16.448 19.99,16.412 C19.992,16.411 19.994,16.41 19.995,16.409 L19.996,16.403 C20,16.335 20,16.242 20,16.059 L20,7.941 C20,7.758 20,7.665 19.996,7.597 C19.995,7.595 19.995,7.593 19.995,7.591 C19.994,7.59 19.992,7.589 19.99,7.588 C19.933,7.552 19.851,7.506 19.691,7.417 L12.291,3.306 C12.14,3.222 12.062,3.179 12.005,3.151 C12.003,3.15 12.002,3.15 12,3.149 Z M11.996,7.723 C13.31,6.791 15.105,6.681 16.555,7.886 C18.254,9.298 18.457,11.713 17.151,13.394 C16.455,14.289 14.765,15.857 13.71,16.812 L13.688,16.832 C13.528,16.977 13.367,17.123 13.217,17.237 C13.048,17.367 12.841,17.499 12.577,17.579 C12.203,17.692 11.79,17.692 11.417,17.579 C11.152,17.499 10.945,17.367 10.776,17.237 C10.627,17.123 10.465,16.977 10.305,16.832 L10.283,16.812 C9.228,15.857 7.538,14.289 6.843,13.394 C5.528,11.702 5.773,9.308 7.428,7.895 C8.867,6.665 10.679,6.791 11.996,7.723 Z M11.237,9.718 C10.531,8.893 9.488,8.765 8.727,9.415 C7.876,10.142 7.769,11.327 8.422,12.167 C8.986,12.893 10.523,14.331 11.625,15.329 C11.816,15.502 11.916,15.591 11.993,15.65 C11.994,15.651 11.995,15.652 11.997,15.653 C11.998,15.652 11.999,15.651 12.001,15.65 C12.077,15.591 12.177,15.502 12.368,15.329 C13.47,14.331 15.007,12.893 15.571,12.167 C16.233,11.316 16.125,10.129 15.277,9.424 C14.484,8.765 13.454,8.902 12.757,9.718 C12.566,9.94 12.289,10.068 11.997,10.068 C11.704,10.068 11.427,9.94 11.237,9.718 Z"/>
</svg>
