<svg xmlns="http://www.w3.org/2000/svg" width="24" height="24" viewBox="0 0 24 24">
  <defs/>
  <path d="M8.298,3.178 C9.681,1.273 12.136,0.36 14.595,1.493 C17.355,2.764 18.483,5.893 17.345,8.594 C17.185,8.972 16.96,9.422 16.699,9.905 C16.809,10.111 16.907,10.325 16.992,10.545 C19.317,10.176 21.698,11.266 22.636,13.807 C23.689,16.657 22.274,19.667 19.56,20.772 C18.584,21.169 16.91,21.613 15.323,21.992 C13.712,22.377 12.109,22.715 11.232,22.896 L11.211,22.9 C11.111,22.92 10.986,22.946 10.872,22.96 C10.736,22.977 10.548,22.987 10.335,22.937 C10.051,22.869 9.791,22.719 9.59,22.507 C9.44,22.348 9.355,22.18 9.301,22.053 C9.257,21.948 9.216,21.827 9.184,21.729 C9.182,21.723 9.18,21.716 9.177,21.709 C8.895,20.859 8.386,19.303 7.914,17.715 C7.615,16.707 7.32,15.654 7.11,14.753 C5.616,13.948 4.038,13.047 3.172,12.391 C0.825,10.613 0.297,7.35 1.996,4.878 C3.532,2.642 6.146,2.22 8.298,3.178 Z M8.968,13.9 C9.154,14.775 9.475,15.945 9.831,17.145 C10.263,18.598 10.728,20.029 11.016,20.898 C11.912,20.713 13.384,20.399 14.858,20.047 C16.463,19.663 17.992,19.251 18.806,18.92 C20.546,18.211 21.429,16.312 20.76,14.499 C20.116,12.755 18.368,12.079 16.63,12.693 C16.355,12.79 16.05,12.762 15.797,12.616 C15.544,12.47 15.368,12.22 15.314,11.933 C15.218,11.415 15.029,10.948 14.767,10.553 C14.737,10.516 14.71,10.478 14.686,10.438 C14.018,9.517 12.932,9.028 11.698,9.257 C9.788,9.612 8.579,11.315 8.834,13.162 C8.862,13.363 8.905,13.6 8.96,13.863 C8.963,13.876 8.966,13.888 8.968,13.9 Z M15.312,8.233 C15.386,8.081 15.45,7.941 15.502,7.817 C16.232,6.085 15.513,4.118 13.759,3.309 C12.07,2.531 10.356,3.29 9.561,4.952 C9.435,5.216 9.2,5.411 8.918,5.487 C8.635,5.562 8.334,5.511 8.093,5.345 C6.564,4.296 4.677,4.506 3.644,6.01 C2.544,7.612 2.894,9.671 4.38,10.797 C4.904,11.194 5.797,11.734 6.812,12.306 C6.974,9.853 8.77,7.766 11.333,7.291 C12.888,7.002 14.266,7.409 15.312,8.233 Z"/>
</svg>
