<svg xmlns="http://www.w3.org/2000/svg" width="24" height="24" viewBox="0 0 24 24">
  <defs/>
  <path d="M16.241,2 L16.241,2 C17.046,2 17.711,2 18.252,2.044 C18.814,2.09 19.331,2.189 19.816,2.436 C20.569,2.819 21.181,3.431 21.564,4.184 C21.811,4.669 21.91,5.186 21.956,5.748 C22,6.289 22,6.954 22,7.759 L22,16.241 C22,17.046 22,17.711 21.956,18.252 C21.91,18.814 21.811,19.331 21.564,19.816 C21.181,20.569 20.569,21.181 19.816,21.564 C19.331,21.811 18.814,21.91 18.252,21.956 C17.711,22 17.046,22 16.241,22 L7.759,22 C6.954,22 6.289,22 5.748,21.956 C5.186,21.91 4.669,21.811 4.184,21.564 C3.431,21.181 2.819,20.569 2.436,19.816 C2.189,19.331 2.09,18.814 2.044,18.252 C2,17.711 2,17.046 2,16.241 L2,7.759 C2,6.954 2,6.289 2.044,5.748 C2.09,5.186 2.189,4.669 2.436,4.184 C2.819,3.431 3.431,2.819 4.184,2.436 C4.669,2.189 5.186,2.09 5.748,2.044 C6.289,2 6.954,2 7.759,2 L16.241,2 Z M5.911,4.038 C5.473,4.073 5.248,4.138 5.092,4.218 C4.716,4.41 4.41,4.716 4.218,5.092 C4.138,5.248 4.073,5.473 4.038,5.911 C4.001,6.361 4,6.943 4,7.8 L4,16.2 C4,17.057 4.001,17.639 4.038,18.089 C4.073,18.527 4.138,18.752 4.218,18.908 C4.41,19.284 4.716,19.59 5.092,19.782 C5.248,19.862 5.473,19.927 5.911,19.962 C6.361,19.999 6.943,20 7.8,20 L16.2,20 C17.057,20 17.639,19.999 18.089,19.962 C18.527,19.927 18.752,19.862 18.908,19.782 C19.284,19.59 19.59,19.284 19.782,18.908 C19.862,18.752 19.927,18.527 19.962,18.089 C19.999,17.639 20,17.057 20,16.2 L20,7.8 C20,6.943 19.999,6.361 19.962,5.911 C19.927,5.473 19.862,5.248 19.782,5.092 C19.59,4.716 19.284,4.41 18.908,4.218 C18.752,4.138 18.527,4.073 18.089,4.038 C17.639,4.001 17.057,4 16.2,4 L7.8,4 C6.943,4 6.361,4.001 5.911,4.038 Z M12.258,8.024 C11.793,7.944 11.314,8.032 10.907,8.271 C10.499,8.511 10.19,8.886 10.033,9.332 C9.85,9.853 9.279,10.127 8.758,9.943 C8.237,9.76 7.963,9.189 8.147,8.668 C8.46,7.777 9.079,7.026 9.893,6.547 C10.708,6.068 11.665,5.893 12.596,6.053 C13.527,6.213 14.372,6.697 14.98,7.42 C15.588,8.142 15.921,9.056 15.92,10.001 C15.92,11.531 14.785,12.542 13.975,13.082 C13.539,13.373 13.111,13.586 12.795,13.726 C12.636,13.797 12.502,13.851 12.405,13.888 C12.356,13.906 12.317,13.92 12.289,13.931 L12.254,13.943 L12.243,13.946 L12.239,13.948 L12.238,13.948 C12.237,13.948 12.236,13.949 11.92,13 L12.236,13.949 C11.712,14.123 11.146,13.84 10.971,13.316 C10.797,12.793 11.079,12.227 11.602,12.052 L11.603,12.052 L11.619,12.046 C11.634,12.041 11.659,12.031 11.693,12.019 C11.76,11.993 11.861,11.953 11.983,11.899 C12.229,11.789 12.551,11.627 12.865,11.418 C13.555,10.958 13.92,10.469 13.92,10 L13.92,9.999 C13.921,9.526 13.754,9.069 13.45,8.708 C13.146,8.346 12.724,8.104 12.258,8.024 Z M11,17 C11,16.448 11.448,16 12,16 L12.01,16 C12.562,16 13.01,16.448 13.01,17 C13.01,17.552 12.562,18 12.01,18 L12,18 C11.448,18 11,17.552 11,17 Z"/>
</svg>
