<svg xmlns="http://www.w3.org/2000/svg" width="24" height="24" viewBox="0 0 24 24">
  <defs/>
  <path d="M1,12 C1,5.925 5.925,1 12,1 C18.075,1 23,5.925 23,12 C23,18.075 18.075,23 12,23 C5.925,23 1,18.075 1,12 Z M12,3 C7.029,3 3,7.029 3,12 C3,16.971 7.029,21 12,21 C16.971,21 21,16.971 21,12 C21,7.029 16.971,3 12,3 Z M12.258,8.024 C11.793,7.944 11.314,8.032 10.907,8.271 C10.499,8.511 10.19,8.886 10.033,9.332 C9.85,9.853 9.279,10.127 8.758,9.943 C8.237,9.76 7.963,9.189 8.147,8.668 C8.46,7.777 9.079,7.026 9.893,6.547 C10.708,6.068 11.665,5.893 12.596,6.053 C13.527,6.213 14.372,6.697 14.98,7.42 C15.588,8.142 15.921,9.056 15.92,10.001 C15.92,11.531 14.785,12.542 13.975,13.082 C13.539,13.373 13.111,13.586 12.795,13.726 C12.636,13.797 12.502,13.851 12.405,13.888 C12.356,13.906 12.317,13.92 12.289,13.931 L12.254,13.943 L12.243,13.946 L12.239,13.948 L12.238,13.948 C12.237,13.948 12.236,13.949 11.92,13 L12.236,13.949 C11.712,14.123 11.146,13.84 10.971,13.316 C10.797,12.792 11.08,12.226 11.603,12.052 L11.619,12.046 C11.634,12.041 11.659,12.031 11.693,12.019 C11.76,11.993 11.861,11.953 11.983,11.899 C12.229,11.789 12.551,11.627 12.865,11.418 C13.555,10.958 13.92,10.469 13.92,10 L13.92,9.999 C13.921,9.526 13.754,9.069 13.45,8.708 C13.146,8.346 12.724,8.104 12.258,8.024 Z M11,17 C11,16.448 11.448,16 12,16 L12.01,16 C12.562,16 13.01,16.448 13.01,17 C13.01,17.552 12.562,18 12.01,18 L12,18 C11.448,18 11,17.552 11,17 Z"/>
</svg>
