<svg xmlns="http://www.w3.org/2000/svg" width="24" height="24" viewBox="0 0 24 24">
  <defs/>
  <path d="M8.472,1 C8.489,1 8.506,1 8.523,1 L15.477,1 C15.494,1 15.511,1 15.528,1 C15.718,0.999 15.957,0.999 16.193,1.055 C16.397,1.104 16.592,1.185 16.771,1.295 C16.977,1.421 17.146,1.591 17.28,1.725 C17.292,1.738 17.304,1.75 17.316,1.761 L22.239,6.684 C22.25,6.696 22.262,6.708 22.275,6.72 C22.409,6.854 22.579,7.023 22.705,7.229 C22.815,7.408 22.896,7.603 22.945,7.807 C23.001,8.043 23.001,8.282 23,8.472 C23,8.489 23,8.506 23,8.523 L23,15.477 C23,15.494 23,15.511 23,15.528 C23.001,15.718 23.001,15.957 22.945,16.193 C22.896,16.397 22.815,16.592 22.705,16.771 C22.579,16.977 22.409,17.146 22.275,17.28 C22.262,17.292 22.25,17.304 22.239,17.316 L17.316,22.238 C17.304,22.25 17.292,22.262 17.28,22.275 C17.146,22.409 16.977,22.579 16.771,22.705 C16.592,22.815 16.397,22.896 16.193,22.945 C15.958,23.001 15.719,23.001 15.529,23 L15.528,23 C15.511,23 15.494,23 15.477,23 L8.523,23 C8.506,23 8.489,23 8.472,23 L8.471,23 C8.281,23.001 8.042,23.001 7.807,22.945 C7.603,22.896 7.408,22.815 7.229,22.705 C7.023,22.579 6.854,22.409 6.72,22.275 C6.708,22.262 6.696,22.25 6.684,22.238 L1.762,17.316 C1.75,17.304 1.738,17.292 1.725,17.28 C1.591,17.146 1.421,16.977 1.295,16.771 C1.185,16.592 1.104,16.397 1.055,16.193 C0.999,15.957 0.999,15.718 1,15.528 C1,15.511 1,15.494 1,15.477 L1,8.523 C1,8.506 1,8.489 1,8.472 C0.999,8.282 0.999,8.043 1.055,7.807 C1.104,7.603 1.185,7.408 1.295,7.229 C1.421,7.023 1.591,6.854 1.725,6.72 C1.738,6.708 1.75,6.696 1.762,6.684 L6.684,1.761 C6.696,1.75 6.708,1.738 6.72,1.725 C6.854,1.591 7.023,1.421 7.229,1.295 C7.408,1.185 7.603,1.104 7.807,1.055 C8.043,0.999 8.282,0.999 8.472,1 Z M8.275,3.003 C8.274,3.003 8.274,3.004 8.273,3.005 C8.238,3.037 8.191,3.083 8.098,3.176 L3.176,8.098 C3.083,8.191 3.037,8.237 3.005,8.273 C3.004,8.273 3.003,8.274 3.003,8.275 L3.002,8.279 C3,8.326 3,8.392 3,8.523 L3,15.477 C3,15.608 3,15.674 3.002,15.721 L3.003,15.725 C3.003,15.726 3.004,15.726 3.005,15.727 C3.037,15.762 3.083,15.809 3.176,15.901 L8.098,20.824 C8.191,20.917 8.238,20.963 8.273,20.995 C8.274,20.996 8.274,20.997 8.275,20.997 L8.279,20.997 C8.326,21 8.392,21 8.523,21 L15.477,21 C15.608,21 15.674,21 15.721,20.997 L15.725,20.997 L15.727,20.995 C15.762,20.963 15.809,20.917 15.901,20.824 L20.824,15.901 C20.917,15.809 20.963,15.762 20.995,15.727 C20.996,15.726 20.997,15.726 20.997,15.725 L20.998,15.721 C21,15.674 21,15.608 21,15.477 L21,8.523 C21,8.392 21,8.326 20.998,8.279 L20.997,8.275 C20.997,8.274 20.996,8.273 20.995,8.273 C20.963,8.237 20.917,8.191 20.824,8.098 L15.901,3.176 C15.809,3.083 15.762,3.037 15.727,3.005 C15.726,3.004 15.726,3.003 15.725,3.003 L15.721,3.002 C15.674,3 15.608,3 15.477,3 L8.523,3 C8.392,3 8.326,3 8.279,3.002 Z M12.258,8.024 C11.793,7.944 11.314,8.032 10.907,8.271 C10.499,8.511 10.19,8.886 10.033,9.332 C9.85,9.853 9.279,10.127 8.758,9.943 C8.237,9.76 7.963,9.189 8.147,8.668 C8.46,7.777 9.079,7.026 9.893,6.547 C10.708,6.068 11.665,5.893 12.596,6.053 C13.527,6.213 14.372,6.697 14.98,7.419 C15.588,8.142 15.921,9.056 15.92,10.001 C15.92,11.531 14.785,12.542 13.975,13.082 C13.539,13.372 13.111,13.586 12.795,13.726 C12.636,13.797 12.502,13.851 12.405,13.887 C12.356,13.906 12.317,13.92 12.289,13.93 L12.254,13.943 L12.243,13.946 L12.239,13.948 L12.238,13.948 C12.237,13.948 12.236,13.949 11.92,13 L12.236,13.949 C11.712,14.123 11.146,13.84 10.971,13.316 C10.797,12.792 11.08,12.226 11.603,12.051 L11.619,12.046 C11.634,12.04 11.659,12.031 11.693,12.019 C11.76,11.993 11.861,11.953 11.983,11.899 C12.229,11.789 12.551,11.627 12.865,11.418 C13.555,10.958 13.92,10.469 13.92,10 L13.92,9.998 C13.921,9.526 13.754,9.069 13.45,8.707 C13.146,8.346 12.724,8.104 12.258,8.024 Z M11,17 C11,16.448 11.448,16 12,16 L12.01,16 C12.562,16 13.01,16.448 13.01,17 C13.01,17.552 12.562,18 12.01,18 L12,18 C11.448,18 11,17.552 11,17 Z"/>
</svg>
