<svg xmlns="http://www.w3.org/2000/svg" width="24" height="24" viewBox="0 0 24 24">
  <defs/>
  <path d="M11.597,1.185 C11.863,1.13 12.137,1.13 12.403,1.185 C12.71,1.248 12.985,1.402 13.203,1.524 C13.224,1.536 13.243,1.547 13.263,1.557 L20.663,5.669 C20.683,5.68 20.704,5.692 20.726,5.703 C20.957,5.831 21.248,5.991 21.471,6.233 C21.664,6.442 21.81,6.691 21.899,6.961 C22.002,7.273 22.001,7.605 22,7.869 L22,7.869 C22,7.894 22,7.918 22,7.941 L22,16.059 C22,16.082 22,16.106 22,16.131 L22,16.131 C22.001,16.395 22.002,16.727 21.899,17.039 C21.81,17.309 21.664,17.558 21.471,17.767 C21.248,18.009 20.957,18.169 20.726,18.296 C20.704,18.308 20.683,18.32 20.663,18.331 L13.263,22.442 C13.243,22.453 13.224,22.464 13.203,22.476 C12.985,22.598 12.71,22.752 12.403,22.815 C12.137,22.87 11.863,22.87 11.597,22.815 C11.29,22.752 11.015,22.598 10.797,22.476 C10.776,22.464 10.757,22.453 10.737,22.442 L3.337,18.331 C3.317,18.32 3.296,18.308 3.274,18.296 C3.043,18.169 2.752,18.009 2.529,17.767 C2.336,17.558 2.19,17.309 2.101,17.039 C1.998,16.726 1.999,16.395 2,16.131 C2,16.106 2,16.082 2,16.059 L2,7.941 C2,7.918 2,7.894 2,7.869 L2,7.869 C1.999,7.605 1.998,7.274 2.101,6.961 C2.19,6.691 2.336,6.442 2.529,6.233 C2.752,5.991 3.043,5.831 3.274,5.703 C3.296,5.692 3.317,5.68 3.337,5.669 L10.737,1.557 C10.757,1.547 10.776,1.536 10.797,1.524 C11.015,1.402 11.29,1.248 11.597,1.185 Z M12,3.149 C11.998,3.15 11.997,3.15 11.995,3.151 C11.938,3.179 11.86,3.222 11.709,3.306 L4.309,7.417 C4.149,7.506 4.067,7.552 4.01,7.588 C4.008,7.589 4.006,7.59 4.005,7.591 L4.004,7.597 C4,7.665 4,7.758 4,7.941 L4,16.059 C4,16.242 4,16.335 4.004,16.403 L4.005,16.409 C4.006,16.41 4.008,16.411 4.01,16.412 C4.067,16.448 4.149,16.494 4.309,16.583 L11.709,20.694 C11.86,20.778 11.938,20.821 11.995,20.849 C11.997,20.85 11.998,20.85 12,20.851 C12.002,20.85 12.003,20.85 12.005,20.849 C12.062,20.821 12.14,20.778 12.291,20.694 L19.691,16.583 C19.851,16.494 19.933,16.448 19.99,16.412 C19.992,16.411 19.994,16.41 19.995,16.409 L19.996,16.403 C20,16.335 20,16.242 20,16.059 L20,7.941 C20,7.758 20,7.665 19.996,7.597 C19.995,7.595 19.995,7.593 19.995,7.591 C19.994,7.59 19.992,7.589 19.99,7.588 C19.933,7.552 19.851,7.506 19.691,7.417 L12.291,3.306 C12.14,3.222 12.062,3.179 12.005,3.151 C12.003,3.15 12.002,3.15 12,3.149 Z M12.258,8.024 C11.793,7.944 11.314,8.032 10.907,8.271 C10.499,8.511 10.19,8.886 10.033,9.332 C9.85,9.853 9.279,10.127 8.758,9.943 C8.237,9.76 7.963,9.189 8.147,8.668 C8.46,7.777 9.079,7.026 9.893,6.547 C10.708,6.068 11.665,5.893 12.596,6.053 C13.527,6.213 14.372,6.697 14.98,7.419 C15.588,8.142 15.921,9.056 15.92,10.001 C15.92,11.531 14.785,12.542 13.975,13.082 C13.539,13.372 13.111,13.586 12.795,13.726 C12.636,13.797 12.502,13.851 12.405,13.888 C12.356,13.906 12.317,13.92 12.289,13.93 L12.254,13.943 L12.243,13.946 L12.239,13.948 L12.237,13.948 C12.237,13.948 12.236,13.949 11.92,13 L12.236,13.949 C11.712,14.123 11.146,13.84 10.971,13.316 C10.797,12.793 11.079,12.227 11.602,12.052 L11.603,12.051 L11.619,12.046 C11.634,12.04 11.659,12.031 11.693,12.019 C11.76,11.993 11.861,11.953 11.983,11.899 C12.229,11.789 12.551,11.627 12.865,11.418 C13.555,10.958 13.92,10.469 13.92,10 L13.92,9.998 C13.921,9.526 13.754,9.069 13.45,8.707 C13.146,8.346 12.724,8.104 12.258,8.024 Z M11,17 C11,16.448 11.448,16 12,16 L12.01,16 C12.562,16 13.01,16.448 13.01,17 C13.01,17.552 12.562,18 12.01,18 L12,18 C11.448,18 11,17.552 11,17 Z"/>
</svg>
