<svg xmlns="http://www.w3.org/2000/svg" width="24" height="24" viewBox="0 0 24 24">
  <defs/>
  <path d="M7.869,2 C7.894,2 7.918,2 7.941,2 L16.058,2 C16.082,2 16.106,2 16.13,2 C16.394,1.999 16.726,1.998 17.039,2.101 C17.309,2.19 17.557,2.336 17.767,2.529 C18.009,2.752 18.169,3.043 18.296,3.274 C18.308,3.296 18.32,3.317 18.331,3.337 L22.442,10.737 C22.453,10.757 22.464,10.776 22.475,10.797 C22.598,11.015 22.751,11.29 22.815,11.597 C22.869,11.863 22.869,12.137 22.815,12.403 C22.751,12.71 22.598,12.985 22.475,13.203 C22.464,13.223 22.453,13.243 22.442,13.263 L18.331,20.663 C18.32,20.683 18.308,20.704 18.296,20.726 C18.169,20.957 18.009,21.247 17.767,21.471 C17.557,21.664 17.309,21.81 17.039,21.899 C16.726,22.002 16.395,22.001 16.131,22 L16.13,22 C16.106,22 16.082,22 16.058,22 L7.941,22 C7.918,22 7.894,22 7.869,22 L7.868,22 C7.605,22.001 7.273,22.002 6.961,21.899 C6.69,21.81 6.442,21.664 6.233,21.471 C5.99,21.247 5.83,20.957 5.703,20.726 C5.691,20.704 5.68,20.683 5.668,20.663 L1.557,13.263 C1.546,13.243 1.535,13.223 1.524,13.203 C1.402,12.985 1.248,12.71 1.185,12.403 C1.13,12.137 1.13,11.863 1.185,11.597 C1.248,11.29 1.402,11.015 1.524,10.797 C1.535,10.776 1.546,10.757 1.557,10.737 L5.668,3.337 C5.68,3.317 5.691,3.296 5.703,3.274 C5.83,3.043 5.99,2.752 6.233,2.529 C6.442,2.336 6.69,2.19 6.961,2.101 C7.273,1.998 7.605,1.999 7.869,2 Z M7.591,4.005 C7.59,4.006 7.589,4.008 7.588,4.01 C7.551,4.067 7.505,4.149 7.417,4.308 L3.305,11.708 C3.221,11.86 3.179,11.937 3.151,11.995 C3.15,11.997 3.149,11.998 3.149,12 C3.149,12.001 3.15,12.003 3.151,12.005 C3.179,12.062 3.221,12.14 3.305,12.291 L7.417,19.691 C7.505,19.851 7.551,19.933 7.588,19.99 C7.589,19.992 7.59,19.993 7.591,19.995 L7.597,19.995 C7.664,20 7.758,20 7.941,20 L16.058,20 C16.241,20 16.335,20 16.403,19.995 L16.408,19.995 C16.409,19.993 16.41,19.992 16.411,19.99 C16.448,19.933 16.494,19.851 16.583,19.691 L20.694,12.291 C20.778,12.14 20.82,12.062 20.848,12.005 C20.849,12.003 20.85,12.001 20.851,12 C20.85,11.998 20.849,11.997 20.848,11.995 C20.82,11.937 20.778,11.86 20.694,11.708 L16.583,4.308 C16.494,4.149 16.448,4.067 16.411,4.01 C16.41,4.008 16.409,4.006 16.408,4.005 L16.403,4.004 C16.335,4 16.241,4 16.058,4 L7.941,4 C7.758,4 7.664,4 7.597,4.004 Z"/>
</svg>
