<svg xmlns="http://www.w3.org/2000/svg" width="24" height="24" viewBox="0 0 24 24">
  <defs/>
  <path d="M11.491,1.316 C11.825,1.228 12.175,1.228 12.509,1.316 C12.896,1.418 13.225,1.667 13.487,1.865 C13.512,1.884 13.536,1.902 13.56,1.92 L14.167,2.375 C14.243,2.432 14.321,2.49 14.399,2.549 C14.438,2.578 14.477,2.608 14.517,2.638 C14.518,2.638 14.519,2.639 14.52,2.64 L20.6,7.2 L22.6,8.7 C23.042,9.031 23.131,9.658 22.8,10.1 C22.469,10.542 21.842,10.631 21.4,10.3 L21,10 L21,17.839 C21,18.366 21,18.82 20.969,19.195 C20.937,19.59 20.866,19.984 20.673,20.362 C20.385,20.927 19.927,21.385 19.362,21.673 C18.984,21.866 18.59,21.937 18.195,21.969 C17.82,22 17.366,22 16.839,22 L7.161,22 C6.634,22 6.18,22 5.805,21.969 C5.41,21.937 5.016,21.866 4.638,21.673 C4.074,21.385 3.615,20.927 3.327,20.362 C3.134,19.984 3.063,19.59 3.031,19.195 C3,18.82 3,18.366 3,17.838 L3,10 L2.6,10.3 C2.158,10.631 1.531,10.542 1.2,10.1 C0.869,9.658 0.958,9.031 1.4,8.7 L9.48,2.64 C9.482,2.639 9.483,2.638 9.485,2.636 C9.524,2.607 9.562,2.578 9.601,2.549 C9.679,2.49 9.757,2.432 9.833,2.375 L10.44,1.92 C10.464,1.902 10.488,1.884 10.513,1.865 C10.775,1.667 11.104,1.418 11.491,1.316 Z M5,8.5 L5,17.8 C5,18.377 5.001,18.749 5.024,19.032 C5.046,19.304 5.084,19.404 5.109,19.454 C5.205,19.642 5.358,19.795 5.546,19.891 C5.595,19.916 5.696,19.954 5.968,19.976 C6.251,19.999 6.623,20 7.2,20 L8,20 L8,13.568 C8,13.316 8,13.07 8.017,12.862 C8.036,12.633 8.08,12.363 8.218,12.092 C8.41,11.716 8.716,11.41 9.092,11.218 C9.363,11.08 9.633,11.036 9.862,11.017 C10.069,11 10.313,11 10.564,11 L13.436,11 C13.687,11 13.931,11 14.138,11.017 C14.367,11.036 14.637,11.08 14.908,11.218 C15.284,11.41 15.59,11.716 15.782,12.092 C15.92,12.363 15.964,12.633 15.983,12.862 C16,13.069 16,13.313 16,13.564 L16,20 L16.8,20 C17.377,20 17.749,19.999 18.032,19.976 C18.304,19.954 18.404,19.916 18.454,19.891 C18.642,19.795 18.795,19.642 18.891,19.454 C18.916,19.404 18.954,19.304 18.976,19.032 C18.999,18.749 19,18.377 19,17.8 L19,8.5 L13.32,4.24 C12.56,3.67 12.398,3.571 12.255,3.533 C12.088,3.489 11.912,3.489 11.745,3.533 C11.602,3.571 11.44,3.67 10.68,4.24 Z M14,20 L14,13.6 C14,13.304 13.999,13.141 13.99,13.025 C13.989,13.02 13.989,13.016 13.989,13.011 C13.984,13.011 13.98,13.011 13.975,13.01 C13.859,13.001 13.696,13 13.4,13 L10.6,13 C10.304,13 10.141,13.001 10.025,13.01 C10.02,13.011 10.016,13.011 10.012,13.011 C10.011,13.016 10.011,13.02 10.01,13.025 C10.001,13.141 10,13.304 10,13.6 L10,20 Z"/>
</svg>
