<svg xmlns="http://www.w3.org/2000/svg" width="24" height="24" viewBox="0 0 24 24">
  <defs/>
  <path d="M11.477,1.336 C11.82,1.244 12.18,1.244 12.523,1.336 C12.92,1.444 13.255,1.707 13.522,1.916 C13.547,1.936 13.572,1.956 13.596,1.975 L20.378,7.25 C20.405,7.27 20.431,7.29 20.456,7.31 C20.833,7.602 21.165,7.86 21.412,8.194 C21.629,8.488 21.791,8.818 21.889,9.17 C22.001,9.57 22.001,9.99 22,10.467 C22,10.499 22,10.532 22,10.565 L22,17.839 C22,18.366 22,18.82 21.969,19.195 C21.937,19.59 21.866,19.984 21.673,20.362 C21.385,20.926 20.926,21.385 20.362,21.673 C19.984,21.866 19.59,21.937 19.195,21.969 C18.82,22 18.366,22 17.839,22 L6.161,22 C5.634,22 5.18,22 4.805,21.969 C4.41,21.937 4.016,21.866 3.638,21.673 C3.074,21.385 2.615,20.926 2.327,20.362 C2.134,19.984 2.063,19.59 2.031,19.195 C2,18.82 2,18.366 2,17.839 L2,10.565 C2,10.532 2,10.499 2,10.467 C1.999,9.99 1.999,9.57 2.111,9.17 C2.209,8.818 2.371,8.488 2.588,8.194 C2.835,7.86 3.167,7.602 3.544,7.31 C3.569,7.29 3.595,7.27 3.621,7.25 L10.404,1.975 C10.428,1.956 10.453,1.936 10.478,1.916 C10.745,1.707 11.08,1.444 11.477,1.336 Z M11.993,3.282 C11.917,3.332 11.818,3.408 11.632,3.553 L4.849,8.828 C4.351,9.216 4.258,9.299 4.196,9.384 C4.124,9.481 4.07,9.591 4.037,9.709 C4.009,9.81 4,9.934 4,10.565 L4,17.8 C4,18.376 4.001,18.749 4.024,19.032 C4.046,19.304 4.084,19.404 4.109,19.454 C4.205,19.642 4.358,19.795 4.546,19.891 C4.595,19.916 4.696,19.954 4.968,19.976 C5.251,19.999 5.623,20 6.2,20 L17.8,20 C18.376,20 18.749,19.999 19.032,19.976 C19.304,19.954 19.404,19.916 19.454,19.891 C19.642,19.795 19.795,19.642 19.891,19.454 C19.916,19.404 19.954,19.304 19.976,19.032 C19.999,18.749 20,18.376 20,17.8 L20,10.565 C20,9.934 19.991,9.81 19.963,9.709 C19.93,9.591 19.876,9.481 19.804,9.384 C19.742,9.299 19.649,9.216 19.151,8.828 L12.368,3.553 C12.181,3.408 12.082,3.332 12.007,3.282 C12.005,3.28 12.002,3.278 12,3.277 C11.998,3.278 11.995,3.28 11.993,3.282 Z M8,13 C8,10.791 9.791,9 12,9 C14.209,9 16,10.791 16,13 C16,15.209 14.209,17 12,17 C9.791,17 8,15.209 8,13 Z M12,11 C10.895,11 10,11.895 10,13 C10,14.105 10.895,15 12,15 C13.105,15 14,14.105 14,13 C14,11.895 13.105,11 12,11 Z"/>
</svg>
