<svg xmlns="http://www.w3.org/2000/svg" width="24" height="24" viewBox="0 0 24 24">
  <defs/>
  <path d="M3,1 C3.552,1 4,1.448 4,2 L4,3.5 L19.432,3.5 C19.684,3.5 19.93,3.5 20.138,3.517 C20.367,3.536 20.637,3.58 20.908,3.718 C21.284,3.91 21.59,4.216 21.782,4.592 C21.92,4.863 21.964,5.133 21.983,5.362 C22,5.569 22,5.813 22,6.064 L22,7.936 C22,8.187 22,8.431 21.983,8.638 C21.964,8.867 21.92,9.137 21.782,9.408 C21.59,9.784 21.284,10.09 20.908,10.282 C20.637,10.42 20.367,10.464 20.138,10.483 C19.931,10.5 19.687,10.5 19.436,10.5 L18,10.5 L18,12.936 C18,13.187 18,13.431 17.983,13.638 C17.964,13.867 17.92,14.137 17.782,14.408 C17.59,14.784 17.284,15.09 16.908,15.282 C16.637,15.42 16.367,15.464 16.138,15.483 C15.931,15.5 15.687,15.5 15.436,15.5 L14,15.5 L14,17.936 C14,18.187 14,18.431 13.983,18.638 C13.964,18.867 13.92,19.137 13.782,19.408 C13.59,19.784 13.284,20.09 12.908,20.282 C12.637,20.42 12.367,20.464 12.138,20.483 C11.931,20.5 11.687,20.5 11.436,20.5 L4,20.5 L4,22 C4,22.552 3.552,23 3,23 C2.448,23 2,22.552 2,22 L2,2 C2,1.448 2.448,1 3,1 Z M19.4,8.5 C19.697,8.5 19.859,8.499 19.975,8.49 C19.98,8.489 19.984,8.489 19.989,8.489 C19.989,8.484 19.989,8.48 19.99,8.475 C19.999,8.359 20,8.197 20,7.9 L20,6.1 C20,5.803 19.999,5.641 19.99,5.525 C19.989,5.52 19.989,5.516 19.989,5.511 C19.984,5.511 19.98,5.511 19.975,5.51 C19.859,5.501 19.697,5.5 19.4,5.5 L4,5.5 L4,8.5 Z M4,10.5 L4,13.5 L15.4,13.5 C15.696,13.5 15.859,13.499 15.975,13.49 C15.98,13.489 15.984,13.489 15.989,13.489 C15.989,13.484 15.989,13.48 15.99,13.475 C15.999,13.359 16,13.196 16,12.9 L16,10.5 Z M12,15.5 L4,15.5 L4,18.5 L11.4,18.5 C11.696,18.5 11.859,18.499 11.975,18.49 C11.98,18.489 11.984,18.489 11.989,18.489 C11.989,18.484 11.989,18.48 11.99,18.475 C11.999,18.359 12,18.197 12,17.9 Z"/>
</svg>
