<svg xmlns="http://www.w3.org/2000/svg" width="24" height="24" viewBox="0 0 24 24">
  <defs/>
  <path d="M3,1 C3.552,1 4,1.448 4,2 L4,3.5 L11.432,3.5 C11.684,3.5 11.93,3.5 12.138,3.517 C12.367,3.536 12.637,3.58 12.908,3.718 C13.284,3.91 13.59,4.216 13.782,4.592 C13.92,4.863 13.964,5.133 13.983,5.362 C14,5.569 14,5.813 14,6.064 L14,8.5 L15.432,8.5 C15.684,8.5 15.93,8.5 16.138,8.517 C16.367,8.536 16.637,8.58 16.908,8.718 C17.284,8.91 17.59,9.216 17.782,9.592 C17.92,9.863 17.964,10.133 17.983,10.362 C18,10.569 18,10.813 18,11.064 L18,13.5 L19.436,13.5 C19.687,13.5 19.931,13.5 20.138,13.517 C20.367,13.536 20.637,13.58 20.908,13.718 C21.284,13.91 21.59,14.216 21.782,14.592 C21.92,14.863 21.964,15.133 21.983,15.362 C22,15.569 22,15.813 22,16.064 L22,17.936 C22,18.187 22,18.431 21.983,18.638 C21.964,18.867 21.92,19.137 21.782,19.408 C21.59,19.784 21.284,20.09 20.908,20.282 C20.637,20.42 20.367,20.464 20.138,20.483 C19.931,20.5 19.687,20.5 19.436,20.5 L4,20.5 L4,22 C4,22.552 3.552,23 3,23 C2.448,23 2,22.552 2,22 L2,2 C2,1.448 2.448,1 3,1 Z M4,15.5 L4,18.5 L19.4,18.5 C19.697,18.5 19.859,18.499 19.975,18.49 C19.98,18.489 19.984,18.489 19.989,18.489 C19.989,18.484 19.989,18.48 19.99,18.475 C19.999,18.359 20,18.197 20,17.9 L20,16.1 C20,15.804 19.999,15.641 19.99,15.525 C19.989,15.52 19.989,15.516 19.989,15.511 C19.984,15.511 19.98,15.511 19.975,15.51 C19.859,15.501 19.697,15.5 19.4,15.5 Z M4,10.5 L4,13.5 L16,13.5 L16,11.1 C16,10.804 15.999,10.641 15.99,10.525 C15.989,10.52 15.989,10.516 15.989,10.511 C15.984,10.511 15.98,10.511 15.975,10.51 C15.859,10.501 15.696,10.5 15.4,10.5 Z M4,5.5 L4,8.5 L12,8.5 L12,6.1 C12,5.803 11.999,5.641 11.99,5.525 C11.989,5.52 11.989,5.516 11.989,5.511 C11.984,5.511 11.98,5.511 11.975,5.51 C11.859,5.501 11.696,5.5 11.4,5.5 Z"/>
</svg>
