<svg xmlns="http://www.w3.org/2000/svg" width="24" height="24" viewBox="0 0 24 24">
  <defs/>
  <path d="M3,1 C3.183,1 3.354,1.049 3.501,1.134 L12.32,3.5 L15.432,3.5 C15.684,3.5 15.93,3.5 16.138,3.517 C16.367,3.536 16.637,3.58 16.908,3.718 C17.284,3.91 17.59,4.216 17.782,4.592 C17.92,4.863 17.964,5.133 17.983,5.362 C18,5.569 18,5.813 18,6.064 L18,8.5 L19.432,8.5 C19.684,8.5 19.93,8.5 20.138,8.517 C20.367,8.536 20.637,8.58 20.908,8.718 C21.284,8.91 21.59,9.216 21.782,9.592 C21.92,9.863 21.964,10.133 21.983,10.362 C22,10.569 22,10.813 22,11.064 L22,12.936 C22,13.187 22,13.431 21.983,13.638 C21.964,13.867 21.92,14.137 21.782,14.408 C21.59,14.784 21.284,15.09 20.908,15.282 C20.637,15.42 20.367,15.464 20.138,15.483 C19.931,15.5 19.687,15.5 19.436,15.5 L14,15.5 L14,17.936 C14,18.187 14,18.431 13.983,18.638 C13.964,18.867 13.92,19.137 13.782,19.408 C13.59,19.784 13.284,20.09 12.908,20.282 C12.637,20.42 12.367,20.464 12.138,20.483 C11.931,20.5 11.687,20.5 11.436,20.5 L4,20.5 L4,22 C4,22.552 3.552,23 3,23 C2.448,23 2,22.552 2,22 L2,2 C2,1.448 2.448,1 3,1 Z M4,10.5 L4,13.5 L19.4,13.5 C19.697,13.5 19.859,13.499 19.975,13.49 C19.98,13.489 19.984,13.489 19.989,13.488 C19.989,13.484 19.989,13.48 19.99,13.475 C19.999,13.359 20,13.196 20,12.9 L20,11.1 C20,10.804 19.999,10.641 19.99,10.525 C19.989,10.52 19.989,10.516 19.989,10.511 C19.984,10.511 19.98,10.511 19.975,10.51 C19.859,10.501 19.697,10.5 19.4,10.5 Z M16,8.5 L16,6.1 C16,5.803 15.999,5.641 15.99,5.525 C15.989,5.52 15.989,5.516 15.989,5.511 C15.984,5.511 15.98,5.511 15.975,5.51 C15.859,5.501 15.696,5.5 15.4,5.5 L4,5.5 L4,8.5 Z M12,15.5 L4,15.5 L4,18.5 L11.4,18.5 C11.696,18.5 11.859,18.499 11.975,18.49 C11.98,18.489 11.984,18.489 11.989,18.489 C11.989,18.484 11.989,18.48 11.99,18.475 C11.999,18.359 12,18.197 12,17.9 Z M2,4.5 L13.75,3.884 L12.32,3.5 L4,3.5 L4,2 C4,1.63 3.799,1.307 3.501,1.134 L3,1 L2,4.5 Z M16.454,4.609 L16.908,3.718 L13.75,3.884 L16.454,4.609 Z"/>
</svg>
