<svg xmlns="http://www.w3.org/2000/svg" width="24" height="24" viewBox="0 0 24 24">
  <defs/>
  <path d="M3,2 C3,1.448 3.448,1 4,1 L20,1 C20.552,1 21,1.448 21,2 C21,2.552 20.552,3 20,3 L19,3 L19,4.867 C19,5.581 19.001,6.121 18.863,6.634 C18.741,7.086 18.541,7.514 18.271,7.897 C17.965,8.332 17.551,8.677 17.002,9.134 C16.972,9.158 16.943,9.183 16.913,9.207 L13.562,12 L16.913,14.792 C16.943,14.817 16.972,14.842 17.002,14.866 C17.551,15.323 17.965,15.668 18.271,16.103 C18.541,16.486 18.741,16.914 18.863,17.366 C19.001,17.879 19,18.419 19,19.133 L19,21 L20,21 C20.552,21 21,21.448 21,22 C21,22.552 20.552,23 20,23 L4,23 C3.448,23 3,22.552 3,22 C3,21.448 3.448,21 4,21 L5,21 L5,19.248 C5,19.209 5,19.171 5,19.133 L5,19.133 C5,18.419 4.999,17.879 5.137,17.366 C5.259,16.914 5.459,16.486 5.729,16.103 C6.035,15.668 6.449,15.323 6.998,14.866 C7.027,14.842 7.057,14.817 7.087,14.792 L10.438,12 L7.087,9.207 C7.057,9.183 7.027,9.158 6.998,9.134 C6.449,8.677 6.035,8.332 5.729,7.897 C5.459,7.514 5.259,7.086 5.137,6.634 C4.999,6.121 5,5.581 5,4.867 L5,4.867 C5,4.829 5,4.791 5,4.752 L5,3 L4,3 C3.448,3 3,2.552 3,2 Z M7,3 L7,4.752 C7,5.632 7.008,5.889 7.069,6.114 C7.13,6.341 7.23,6.554 7.364,6.746 C7.499,6.937 7.691,7.107 8.367,7.671 L12,10.698 L15.633,7.671 C16.309,7.107 16.501,6.937 16.636,6.746 C16.77,6.554 16.871,6.341 16.931,6.114 C16.992,5.889 17,5.632 17,4.752 L17,3 Z M12,13.302 L8.367,16.329 C7.691,16.893 7.499,17.063 7.364,17.254 C7.23,17.446 7.13,17.659 7.069,17.885 C7.008,18.111 7,18.368 7,19.248 L7,21 L17,21 L17,19.248 C17,18.368 16.992,18.111 16.931,17.885 C16.871,17.659 16.77,17.446 16.636,17.254 C16.501,17.063 16.309,16.893 15.633,16.329 Z"/>
</svg>
