<svg xmlns="http://www.w3.org/2000/svg" width="24" height="24" viewBox="0 0 24 24">
  <defs/>
  <path d="M4,2.837 C4,1.823 4.823,1 5.837,1 L18.163,1 C19.177,1 20,1.823 20,2.837 C20,5.768 18.836,8.578 16.764,10.651 L15.545,11.87 C15.481,11.934 15.446,11.969 15.421,11.995 C15.419,11.997 15.417,11.998 15.416,12 C15.417,12.002 15.419,12.003 15.421,12.005 C15.446,12.031 15.481,12.066 15.545,12.13 L16.764,13.349 C18.836,15.422 20,18.232 20,21.163 C20,22.177 19.177,23 18.163,23 L5.837,23 C4.823,23 4,22.177 4,21.163 C4,18.232 5.164,15.422 7.236,13.349 L8.455,12.13 C8.52,12.066 8.554,12.031 8.579,12.005 C8.581,12.003 8.583,12.002 8.584,12 C8.583,11.998 8.581,11.997 8.579,11.995 C8.554,11.969 8.52,11.934 8.455,11.87 L7.236,10.651 C5.164,8.578 4,5.768 4,2.837 Z M6.001,3 C6.043,5.341 6.992,7.578 8.65,9.236 L9.87,10.455 C9.878,10.464 9.887,10.473 9.896,10.482 C9.988,10.573 10.1,10.685 10.189,10.805 C10.718,11.514 10.718,12.486 10.189,13.195 C10.1,13.315 9.988,13.427 9.896,13.518 C9.887,13.527 9.878,13.536 9.87,13.545 L8.65,14.764 C6.992,16.423 6.043,18.659 6.001,21 L17.999,21 C17.956,18.659 17.008,16.423 15.349,14.764 L14.13,13.545 L14.104,13.518 C14.012,13.427 13.9,13.315 13.811,13.195 C13.282,12.486 13.282,11.514 13.811,10.805 C13.9,10.685 14.012,10.573 14.104,10.482 L14.13,10.455 L15.349,9.236 C17.008,7.578 17.956,5.341 17.999,3 Z"/>
</svg>
