<svg xmlns="http://www.w3.org/2000/svg" width="24" height="24" viewBox="0 0 24 24">
  <defs/>
  <path d="M6.568,1 L17.432,1 L17.432,1 C17.685,1 17.93,1 18.138,1.017 C18.367,1.036 18.637,1.08 18.908,1.218 C19.284,1.41 19.59,1.716 19.782,2.092 C19.92,2.363 19.965,2.633 19.983,2.862 C20,3.069 20,3.313 20,3.564 L20,5.675 C20,5.703 20,5.73 20,5.758 L20,5.76 C20.001,6.166 20.001,6.524 19.917,6.872 C19.844,7.178 19.722,7.471 19.558,7.739 C19.371,8.045 19.117,8.298 18.829,8.585 C18.809,8.605 18.79,8.625 18.77,8.644 L15.839,11.576 C15.629,11.785 15.515,11.901 15.439,11.99 C15.436,11.993 15.433,11.997 15.431,12 C15.433,12.003 15.436,12.007 15.439,12.01 C15.515,12.099 15.629,12.215 15.839,12.424 L18.77,15.356 C18.79,15.375 18.809,15.395 18.829,15.415 C19.117,15.702 19.371,15.955 19.558,16.261 C19.722,16.529 19.844,16.822 19.917,17.128 C20.001,17.476 20.001,17.834 20,18.24 L20,18.242 C20,18.27 20,18.298 20,18.326 L20,20.436 C20,20.687 20,20.931 19.983,21.138 C19.965,21.367 19.92,21.637 19.782,21.908 C19.59,22.284 19.284,22.59 18.908,22.782 C18.637,22.92 18.367,22.964 18.138,22.983 C17.931,23 17.687,23 17.436,23 L6.564,23 C6.313,23 6.069,23 5.862,22.983 C5.633,22.964 5.364,22.92 5.092,22.782 L5.543,21.897 L6.281,6.859 C6.203,6.775 6.172,6.734 6.147,6.694 C6.093,6.605 6.052,6.507 6.028,6.405 C6.007,6.317 6,6.211 6,5.675 L6,3.6 C6,3.303 6.001,3.141 6.01,3.025 C6.011,3.02 6.011,3.016 6.012,3.011 C6.016,3.011 6.02,3.011 6.025,3.01 C6.123,3.002 6.254,3 6.47,3 Z M6.47,3 L6.281,6.859 C6.352,6.936 6.463,7.049 6.644,7.23 L9.598,10.184 C9.777,10.363 9.951,10.536 10.086,10.696 C10.234,10.87 10.394,11.092 10.488,11.382 C10.618,11.784 10.618,12.216 10.488,12.618 C10.394,12.908 10.234,13.13 10.086,13.304 C9.951,13.464 9.777,13.637 9.598,13.816 L6.644,16.77 C6.265,17.149 6.195,17.229 6.147,17.306 C6.093,17.395 6.052,17.493 6.028,17.595 C6.007,17.683 6,17.789 6,18.326 L6,20.4 C6,20.697 6.001,20.859 6.01,20.975 C6.011,20.98 6.011,20.984 6.012,20.989 C6.016,20.989 6.02,20.989 6.025,20.99 C6.141,20.999 6.304,21 6.6,21 L17.4,21 C17.697,21 17.859,20.999 17.976,20.99 C17.98,20.989 17.985,20.989 17.989,20.989 C17.989,20.984 17.989,20.98 17.99,20.975 C17.999,20.859 18,20.697 18,20.4 L18,18.326 C18,17.789 17.994,17.683 17.972,17.595 C17.948,17.493 17.908,17.395 17.853,17.306 C17.805,17.229 17.735,17.149 17.356,16.77 L14.402,13.816 C14.223,13.637 14.05,13.464 13.914,13.304 C13.766,13.13 13.606,12.908 13.512,12.618 C13.382,12.216 13.382,11.784 13.512,11.382 C13.606,11.092 13.766,10.87 13.914,10.696 C14.05,10.536 14.223,10.363 14.402,10.184 L17.356,7.23 C17.735,6.851 17.805,6.772 17.853,6.694 C17.908,6.605 17.948,6.507 17.972,6.405 C17.994,6.317 18,6.211 18,5.675 L18,3.6 C18,3.303 17.999,3.141 17.99,3.025 C17.989,3.02 17.989,3.016 17.989,3.011 Q17.982,3.011 17.976,3.01 C17.859,3.001 17.697,3 17.4,3 L6.6,3 C6.554,3 6.51,3 6.47,3 Z M9,19.5 C8.448,19.5 8,19.052 8,18.5 C8,17.948 8.448,17.5 9,17.5 L15,17.5 C15.552,17.5 16,17.948 16,18.5 C16,19.052 15.552,19.5 15,19.5 Z M8.561,11.99 L8.57,12 C8.567,11.997 8.564,11.993 8.561,11.99 L8.869,10.869 L8.162,11.576 C8.371,11.785 8.485,11.901 8.561,11.99 Z M5.092,1.218 L4.218,2.092 C4.41,1.716 4.716,1.41 5.092,1.218 Z M4.442,7.739 L5.171,8.585 C4.883,8.298 4.629,8.045 4.442,7.739 Z M4,5.758 L4.083,6.872 C3.999,6.523 4,6.165 4,5.758 Z M4.083,6.872 L4.442,7.739 C4.278,7.471 4.156,7.178 4.083,6.872 Z M4.218,2.092 L4.017,2.862 C4.036,2.633 4.08,2.363 4.218,2.092 Z M5.862,1.017 L5.092,1.218 C5.364,1.08 5.633,1.036 5.862,1.017 Z M5.862,1.017 C6.07,1 6.316,1 6.568,1 L5.862,1.017 Z"/>
</svg>
