<svg xmlns="http://www.w3.org/2000/svg" width="24" height="24" viewBox="0 0 24 24">
  <defs/>
  <path d="M5,12 C5,7.029 9.029,3 14,3 C18.971,3 23,7.029 23,12 C23,12.552 22.552,13 22,13 C21.448,13 21,12.552 21,12 C21,8.134 17.866,5 14,5 C13.66,5 13.327,5.024 13,5.071 C16.392,5.556 19,8.474 19,12 C19,16.971 14.971,21 10,21 C5.029,21 1,16.971 1,12 C1,11.448 1.448,11 2,11 C2.552,11 3,11.448 3,12 C3,15.866 6.134,19 10,19 C10.34,19 10.673,18.976 11,18.929 C7.608,18.444 5,15.526 5,12 Z M17,12 C17,9.239 14.761,7 12,7 C9.239,7 7,9.239 7,12 C7,14.761 9.239,17 12,17 C14.761,17 17,14.761 17,12 Z M10,12 C10,10.895 10.895,10 12,10 C13.105,10 14,10.895 14,12 C14,13.105 13.105,14 12,14 C10.895,14 10,13.105 10,12 Z"/>
</svg>
