<svg xmlns="http://www.w3.org/2000/svg" width="24" height="24" viewBox="0 0 24 24">
  <defs/>
  <path d="M2,4 C2,3.448 2.448,3 3,3 L21,3 C21.552,3 22,3.448 22,4 C22,4.552 21.552,5 21,5 L3,5 C2.448,5 2,4.552 2,4 Z M5,8 C5,7.448 5.448,7 6,7 L20,7 C20.552,7 21,7.448 21,8 C21,8.552 20.552,9 20,9 L6,9 C5.448,9 5,8.552 5,8 Z M8,12 C8,11.448 8.448,11 9,11 L18,11 C18.552,11 19,11.448 19,12 C19,12.552 18.552,13 18,13 L9,13 C8.448,13 8,12.552 8,12 Z M8,15 L15,15 C15.552,15 16,15.448 16,16 C16,16.552 15.552,17 15,17 L8,17 C7.448,17 7,16.552 7,16 C7,15.448 7.448,15 8,15 Z M11,20 C11,19.448 11.448,19 12,19 L17,19 C17.552,19 18,19.448 18,20 C18,20.552 17.552,21 17,21 L12,21 C11.448,21 11,20.552 11,20 Z"/>
</svg>
