<svg xmlns="http://www.w3.org/2000/svg" width="24" height="24" viewBox="0 0 24 24">
  <defs/>
  <path d="M5.32,2.93 C7.075,2.345 9.437,2 12,2 C14.563,2 16.925,2.345 18.68,2.93 C19.553,3.221 20.331,3.589 20.912,4.047 C21.481,4.496 22,5.148 22,6 C22,6.852 21.481,7.504 20.912,7.953 C20.331,8.411 19.553,8.779 18.68,9.07 C16.925,9.655 14.563,10 12,10 C9.437,10 7.075,9.655 5.32,9.07 C4.447,8.779 3.669,8.411 3.088,7.953 C2.519,7.504 2,6.852 2,6 C2,5.148 2.519,4.496 3.088,4.047 C3.669,3.589 4.447,3.221 5.32,2.93 Z M4,6 L4,6 C4,6.001 4,6.005 4.003,6.015 C4.006,6.026 4.015,6.048 4.035,6.081 C4.078,6.151 4.164,6.255 4.326,6.382 C4.656,6.643 5.196,6.921 5.952,7.173 C7.454,7.673 9.592,8 12,8 C14.408,8 16.546,7.673 18.048,7.173 C18.804,6.921 19.344,6.643 19.674,6.382 C19.836,6.255 19.923,6.151 19.965,6.081 C19.985,6.048 19.993,6.026 19.997,6.015 C20,6.005 20,6.001 20,6 L20,6 C20,5.999 20,5.995 19.997,5.985 C19.993,5.974 19.985,5.952 19.965,5.919 C19.923,5.849 19.836,5.745 19.674,5.618 C19.344,5.357 18.804,5.079 18.048,4.827 C16.546,4.327 14.408,4 12,4 C9.592,4 7.454,4.327 5.952,4.827 C5.196,5.079 4.656,5.357 4.326,5.618 C4.164,5.745 4.078,5.849 4.035,5.919 C4.015,5.952 4.006,5.974 4.003,5.985 C4,5.995 4,5.999 4,6 L4,6 Z M3.651,11.139 C3.943,10.67 4.56,10.527 5.029,10.819 C6.223,11.563 8.818,12.167 12,12.167 C15.182,12.167 17.777,11.563 18.971,10.819 C19.44,10.527 20.057,10.67 20.349,11.139 C20.641,11.608 20.498,12.224 20.029,12.517 C18.36,13.556 15.312,14.167 12,14.167 C8.688,14.167 5.64,13.556 3.971,12.517 C3.502,12.224 3.359,11.608 3.651,11.139 Z M5.064,16.077 C5.26,15.561 5.837,15.3 6.353,15.495 C7.673,15.994 9.69,16.333 12,16.333 C14.31,16.333 16.326,15.994 17.647,15.495 C18.163,15.3 18.74,15.561 18.935,16.077 C19.131,16.594 18.87,17.171 18.353,17.366 C16.742,17.975 14.469,18.333 12,18.333 C9.531,18.333 7.258,17.975 5.647,17.366 C5.13,17.171 4.869,16.594 5.064,16.077 Z M6.53,20.257 C6.664,19.722 7.207,19.396 7.743,19.53 C8.905,19.821 10.38,20 12,20 C13.62,20 15.095,19.821 16.257,19.53 C16.793,19.396 17.336,19.722 17.47,20.257 C17.604,20.793 17.279,21.336 16.743,21.47 C15.398,21.807 13.756,22 12,22 C10.244,22 8.602,21.807 7.257,21.47 C6.721,21.336 6.396,20.793 6.53,20.257 Z"/>
</svg>
