<svg xmlns="http://www.w3.org/2000/svg" width="24" height="24" viewBox="0 0 24 24">
  <defs/>
  <path d="M19.432,7 L19.432,7 C19.684,7 19.93,7 20.138,7.017 C20.367,7.036 20.637,7.08 20.908,7.218 C21.284,7.41 21.59,7.716 21.782,8.092 C21.92,8.363 21.964,8.633 21.983,8.862 C22,9.069 22,9.313 22,9.564 L22,14.436 C22,14.687 22,14.931 21.983,15.138 C21.964,15.367 21.92,15.637 21.782,15.908 C21.59,16.284 21.284,16.59 20.908,16.782 C20.637,16.92 20.367,16.964 20.138,16.983 C19.931,17 19.687,17 19.436,17 L14.564,17 C14.313,17 14.069,17 13.862,16.983 C13.633,16.964 13.363,16.92 13.092,16.782 C12.716,16.59 12.41,16.284 12.218,15.908 C12.08,15.637 12.036,15.367 12.017,15.138 C12,14.931 12,14.687 12,14.436 L12,9.564 C12,9.313 12,9.069 12.017,8.862 C12.036,8.633 12.08,8.363 12.218,8.092 C12.41,7.716 12.716,7.41 13.092,7.218 C13.363,7.08 13.633,7.036 13.862,7.017 C14.07,7 14.316,7 14.568,7 L19.432,7 Z M2,20 C2,19.448 2.448,19 3,19 L21,19 C21.552,19 22,19.448 22,20 C22,20.552 21.552,21 21,21 L3,21 C2.448,21 2,20.552 2,20 Z M2,4 C2,3.448 2.448,3 3,3 L21,3 C21.552,3 22,3.448 22,4 C22,4.552 21.552,5 21,5 L3,5 C2.448,5 2,4.552 2,4 Z M14.011,9.011 C14.011,9.016 14.011,9.02 14.01,9.025 C14.001,9.141 14,9.303 14,9.6 L14,14.4 C14,14.696 14.001,14.859 14.01,14.975 C14.011,14.98 14.011,14.984 14.011,14.989 C14.016,14.989 14.02,14.989 14.025,14.99 C14.141,14.999 14.304,15 14.6,15 L19.4,15 C19.697,15 19.859,14.999 19.975,14.99 C19.98,14.989 19.984,14.989 19.989,14.988 C19.989,14.984 19.989,14.98 19.99,14.975 C19.999,14.859 20,14.696 20,14.4 L20,9.6 C20,9.303 19.999,9.141 19.99,9.025 C19.989,9.02 19.989,9.016 19.989,9.011 C19.984,9.011 19.98,9.011 19.975,9.01 C19.859,9.001 19.697,9 19.4,9 L14.6,9 C14.304,9 14.141,9.001 14.025,9.01 C14.02,9.011 14.016,9.011 14.011,9.011 Z M2,14.75 C2,14.198 2.448,13.75 3,13.75 L9,13.75 C9.552,13.75 10,14.198 10,14.75 C10,15.302 9.552,15.75 9,15.75 L3,15.75 C2.448,15.75 2,15.302 2,14.75 Z M2,9.25 C2,8.698 2.448,8.25 3,8.25 L9,8.25 C9.552,8.25 10,8.698 10,9.25 C10,9.802 9.552,10.25 9,10.25 L3,10.25 C2.448,10.25 2,9.802 2,9.25 Z"/>
</svg>
