<svg xmlns="http://www.w3.org/2000/svg" width="24" height="24" viewBox="0 0 24 24">
  <defs/>
  <path d="M5.41,20.808 C5.403,20.803 5.397,20.798 5.39,20.793 C2.724,18.786 1,15.594 1,12 C1,5.925 5.925,1 12,1 C18.075,1 23,5.925 23,12 C23,18.075 18.075,23 12,23 C9.528,23 7.247,22.185 5.41,20.808 Z M12,3 C7.029,3 3,7.029 3,12 C3,14.634 4.132,17.004 5.936,18.65 L14.184,10.402 C14.363,10.223 14.536,10.049 14.696,9.914 C14.87,9.766 15.092,9.606 15.382,9.512 C15.784,9.382 16.216,9.382 16.618,9.512 C16.908,9.606 17.13,9.766 17.305,9.914 C17.464,10.049 17.638,10.223 17.816,10.402 L20.881,13.467 C20.959,12.99 21,12.5 21,12 C21,7.029 16.971,3 12,3 Z M20.231,15.645 L16.424,11.839 C16.215,11.629 16.099,11.515 16.01,11.439 C16.007,11.436 16.003,11.433 16,11.43 C15.997,11.433 15.993,11.436 15.99,11.439 C15.901,11.515 15.785,11.629 15.576,11.839 L7.575,19.839 C8.882,20.578 10.392,21 12,21 C15.673,21 18.832,18.8 20.231,15.645 Z M5.5,8.5 C5.5,6.843 6.843,5.5 8.5,5.5 C10.157,5.5 11.5,6.843 11.5,8.5 C11.5,10.157 10.157,11.5 8.5,11.5 C6.843,11.5 5.5,10.157 5.5,8.5 Z M8.5,7.5 C7.948,7.5 7.5,7.948 7.5,8.5 C7.5,9.052 7.948,9.5 8.5,9.5 C9.052,9.5 9.5,9.052 9.5,8.5 C9.5,7.948 9.052,7.5 8.5,7.5 Z"/>
</svg>
