<svg xmlns="http://www.w3.org/2000/svg" width="24" height="24" viewBox="0 0 24 24">
  <defs/>
  <path d="M12.5,2 C13.052,2 13.5,2.448 13.5,3 C13.5,3.552 13.052,4 12.5,4 L7.8,4 C6.943,4 6.361,4.001 5.911,4.038 C5.473,4.073 5.248,4.138 5.092,4.218 C4.716,4.41 4.41,4.716 4.218,5.092 C4.138,5.248 4.073,5.473 4.038,5.911 C4.001,6.361 4,6.943 4,7.8 L4,16.2 C4,17.057 4.001,17.639 4.038,18.089 C4.073,18.527 4.138,18.752 4.218,18.908 C4.397,19.26 4.676,19.55 5.019,19.743 C5.106,19.608 5.198,19.505 5.259,19.439 C5.411,19.275 5.617,19.088 5.83,18.894 L14.339,11.159 C14.499,11.013 14.659,10.868 14.804,10.754 C14.966,10.628 15.167,10.495 15.424,10.412 C15.784,10.295 16.171,10.282 16.538,10.376 C16.799,10.443 17.008,10.564 17.178,10.679 C17.33,10.784 17.498,10.918 17.668,11.054 L20.488,13.31 C20.51,13.327 20.531,13.344 20.553,13.361 C20.867,13.612 21.143,13.833 21.36,14.109 C21.629,14.452 21.821,14.851 21.921,15.276 C22.001,15.617 22,15.971 22,16.373 L22,16.491 C22,16.658 22,16.817 22,16.97 C22,16.98 22,16.99 22,17 L22,17.138 C22,17.933 22.001,18.524 21.864,19.035 C21.702,19.639 21.404,20.185 21.006,20.639 C20.863,20.802 20.707,20.953 20.539,21.091 C20.106,21.447 19.595,21.714 19.035,21.864 C18.524,22.001 17.933,22 17.138,22 L7.026,22 C6.772,22 6.526,22 6.319,21.986 C6.115,21.98 5.925,21.97 5.748,21.956 C5.186,21.91 4.669,21.811 4.184,21.564 C3.431,21.181 2.819,20.569 2.436,19.816 C2.189,19.331 2.09,18.814 2.044,18.252 C2,17.711 2,17.046 2,16.241 L2,7.759 C2,6.954 2,6.289 2.044,5.748 C2.09,5.186 2.189,4.669 2.436,4.184 C2.819,3.431 3.431,2.819 4.184,2.436 C4.669,2.189 5.186,2.09 5.748,2.044 C6.289,2 6.954,2 7.759,2 L12.5,2 Z M19.59,19.213 C19.69,19.083 19.773,18.94 19.839,18.787 C19.897,18.65 19.946,18.454 19.972,18.076 C19.999,17.688 20,17.19 20,16.456 C20,15.924 19.994,15.819 19.973,15.733 C19.94,15.591 19.876,15.458 19.787,15.344 C19.732,15.274 19.653,15.203 19.238,14.871 L16.441,12.634 C16.24,12.473 16.132,12.387 16.05,12.331 C16.047,12.329 16.045,12.327 16.042,12.326 C16.039,12.328 16.037,12.33 16.034,12.332 C15.955,12.393 15.853,12.485 15.663,12.658 L7.587,20 L16.456,20 C17.19,20 17.688,19.999 18.076,19.972 C18.454,19.946 18.65,19.897 18.787,19.839 C18.942,19.772 19.088,19.687 19.22,19.585 C19.359,19.478 19.483,19.353 19.59,19.213 Z M18.293,1.293 C18.683,0.902 19.317,0.902 19.707,1.293 L22.707,4.293 C23.098,4.683 23.098,5.317 22.707,5.707 C22.317,6.098 21.683,6.098 21.293,5.707 L20,4.414 L20,8 C20,8.552 19.552,9 19,9 C18.448,9 18,8.552 18,8 L18,4.414 L16.707,5.707 C16.317,6.098 15.683,6.098 15.293,5.707 C14.902,5.317 14.902,4.683 15.293,4.293 Z M5.5,8.5 C5.5,6.843 6.843,5.5 8.5,5.5 C10.157,5.5 11.5,6.843 11.5,8.5 C11.5,10.157 10.157,11.5 8.5,11.5 C6.843,11.5 5.5,10.157 5.5,8.5 Z M8.5,7.5 C7.948,7.5 7.5,7.948 7.5,8.5 C7.5,9.052 7.948,9.5 8.5,9.5 C9.052,9.5 9.5,9.052 9.5,8.5 C9.5,7.948 9.052,7.5 8.5,7.5 Z"/>
</svg>
