<svg xmlns="http://www.w3.org/2000/svg" width="24" height="24" viewBox="0 0 24 24">
  <defs/>
  <path d="M4.6,7 L9.432,7 C9.684,7 9.93,7 10.138,7.017 C10.367,7.036 10.637,7.08 10.908,7.218 C11.284,7.41 11.59,7.716 11.782,8.092 C11.92,8.363 11.964,8.633 11.983,8.862 C12,9.069 12,9.313 12,9.564 L12,14.436 C12,14.687 12,14.931 11.983,15.138 C11.964,15.367 11.92,15.637 11.782,15.908 C11.59,16.284 11.284,16.59 10.908,16.782 C10.637,16.92 10.367,16.964 10.138,16.983 C9.931,17 9.687,17 9.436,17 L4.564,17 C4.313,17 4.069,17 3.862,16.983 C3.633,16.964 3.363,16.92 3.092,16.782 C2.716,16.59 2.41,16.284 2.218,15.908 C2.08,15.637 2.036,15.367 2.017,15.138 C2,14.93 2,14.684 2,14.432 L2,14.432 L2,9.6 L2,9.568 L2,9.568 C2,9.316 2,9.07 2.017,8.862 C2.036,8.633 2.08,8.363 2.218,8.092 C2.41,7.716 2.716,7.41 3.092,7.218 C3.363,7.08 3.633,7.036 3.862,7.017 C4.07,7 4.316,7 4.568,7 L4.6,7 Z M2,20 C2,19.448 2.448,19 3,19 L21,19 C21.552,19 22,19.448 22,20 C22,20.552 21.552,21 21,21 L3,21 C2.448,21 2,20.552 2,20 Z M2,4 C2,3.448 2.448,3 3,3 L21,3 C21.552,3 22,3.448 22,4 C22,4.552 21.552,5 21,5 L3,5 C2.448,5 2,4.552 2,4 Z M4.011,9.011 C4.011,9.016 4.011,9.02 4.01,9.025 C4.001,9.141 4,9.303 4,9.6 L4,14.4 C4,14.696 4.001,14.859 4.01,14.975 C4.011,14.98 4.011,14.984 4.011,14.989 C4.016,14.989 4.02,14.989 4.025,14.99 C4.141,14.999 4.303,15 4.6,15 L9.4,15 C9.697,15 9.859,14.999 9.975,14.99 C9.98,14.989 9.984,14.989 9.989,14.989 C9.989,14.984 9.989,14.98 9.99,14.975 C9.999,14.859 10,14.696 10,14.4 L10,9.6 C10,9.303 9.999,9.141 9.99,9.025 C9.989,9.02 9.989,9.016 9.989,9.011 C9.984,9.011 9.98,9.011 9.975,9.01 C9.859,9.001 9.697,9 9.4,9 L4.6,9 C4.303,9 4.141,9.001 4.025,9.01 C4.02,9.011 4.016,9.011 4.011,9.011 Z M14,14.75 C14,14.198 14.448,13.75 15,13.75 L21,13.75 C21.552,13.75 22,14.198 22,14.75 C22,15.302 21.552,15.75 21,15.75 L15,15.75 C14.448,15.75 14,15.302 14,14.75 Z M14,9.25 C14,8.698 14.448,8.25 15,8.25 L21,8.25 C21.552,8.25 22,8.698 22,9.25 C22,9.802 21.552,10.25 21,10.25 L15,10.25 C14.448,10.25 14,9.802 14,9.25 Z"/>
</svg>
