<svg xmlns="http://www.w3.org/2000/svg" width="24" height="24" viewBox="0 0 24 24">
  <defs/>
  <path d="M9.247,7.904 C9.73,7.708 10.27,7.708 10.753,7.904 C11.117,8.052 11.368,8.308 11.551,8.527 C11.726,8.736 11.914,9.007 12.115,9.299 L14.909,13.334 C15.093,13.057 15.265,12.803 15.426,12.604 C15.609,12.377 15.863,12.109 16.234,11.955 C16.724,11.752 17.276,11.752 17.766,11.955 C18.137,12.109 18.391,12.377 18.574,12.604 C18.749,12.821 18.938,13.104 19.141,13.409 L22.198,17.994 C22.446,18.367 22.67,18.702 22.824,18.987 C22.979,19.272 23.155,19.663 23.128,20.119 C23.093,20.703 22.805,21.242 22.338,21.595 C21.973,21.871 21.55,21.941 21.228,21.971 C20.906,22 20.505,22 20.058,22 L4.006,22 C3.55,22 3.142,22 2.816,21.97 C2.49,21.94 2.061,21.87 1.694,21.589 C1.225,21.23 0.939,20.684 0.911,20.095 C0.889,19.633 1.075,19.239 1.236,18.955 C1.398,18.669 1.631,18.332 1.891,17.956 L7.862,9.331 C7.87,9.32 7.877,9.309 7.885,9.299 C8.086,9.007 8.274,8.736 8.449,8.527 C8.632,8.308 8.883,8.052 9.247,7.904 Z M14.089,15.664 L10.493,10.469 C10.262,10.135 10.125,9.94 10.016,9.809 C10.01,9.802 10.005,9.796 10,9.79 C9.995,9.796 9.989,9.802 9.984,9.809 C9.875,9.94 9.738,10.135 9.507,10.469 L3.56,19.059 C3.268,19.482 3.088,19.742 2.977,19.938 C2.97,19.951 2.964,19.963 2.958,19.974 C2.97,19.976 2.984,19.977 2.998,19.979 C3.223,19.999 3.539,20 4.054,20 L17.091,20 L14.116,15.702 C14.107,15.689 14.098,15.677 14.089,15.664 Z M14,6 C14,3.791 15.791,2 18,2 C20.209,2 22,3.791 22,6 C22,8.209 20.209,10 18,10 C15.791,10 14,8.209 14,6 Z M18,4 C16.895,4 16,4.895 16,6 C16,7.105 16.895,8 18,8 C19.105,8 20,7.105 20,6 C20,4.895 19.105,4 18,4 Z M19.524,20 L20.01,20 C20.516,20 20.825,19.999 21.045,19.979 C21.059,19.978 21.072,19.976 21.085,19.975 C21.079,19.964 21.073,19.952 21.066,19.94 C20.961,19.746 20.79,19.488 20.51,19.067 L17.499,14.552 C17.266,14.202 17.128,13.997 17.017,13.859 C17.011,13.851 17.005,13.845 17,13.838 C16.995,13.845 16.989,13.851 16.983,13.859 C16.872,13.997 16.734,14.202 16.501,14.552 L16.133,15.103 Z"/>
</svg>
