<svg xmlns="http://www.w3.org/2000/svg" width="24" height="24" viewBox="0 0 24 24">
  <defs/>
  <path d="M17.241,1 L17.241,1 C18.046,1 18.711,1 19.252,1.044 C19.814,1.09 20.331,1.189 20.816,1.436 C21.569,1.819 22.181,2.431 22.564,3.184 C22.811,3.669 22.91,4.186 22.956,4.748 C23,5.289 23,5.954 23,6.759 L23,17.241 C23,18.046 23,18.711 22.956,19.252 C22.91,19.814 22.811,20.331 22.564,20.816 C22.181,21.569 21.569,22.181 20.816,22.564 C20.646,22.651 20.471,22.719 20.29,22.774 C19.543,23.001 18.594,23 17.366,23 L6.634,23 C5.406,23 4.457,23.001 3.71,22.774 C3.529,22.719 3.354,22.651 3.184,22.564 C2.431,22.181 1.819,21.569 1.436,20.816 C1.189,20.331 1.09,19.814 1.044,19.252 C1,18.711 1,18.046 1,17.241 L1,6.759 C1,5.954 1,5.289 1.044,4.748 C1.09,4.186 1.189,3.669 1.436,3.184 C1.819,2.431 2.431,1.819 3.184,1.436 C3.669,1.189 4.186,1.09 4.748,1.044 C5.289,1 5.954,1 6.759,1 L17.241,1 Z M4.911,3.038 C4.473,3.073 4.248,3.138 4.092,3.218 C3.716,3.41 3.41,3.716 3.218,4.092 C3.138,4.248 3.073,4.473 3.038,4.911 C3.001,5.361 3,5.943 3,6.8 L3,17.2 C3,18.057 3.001,18.639 3.038,19.089 C3.064,19.407 3.105,19.612 3.156,19.761 C3.63,17.904 5.13,16.473 7.025,16.096 C7.509,16 8.066,16 8.883,16 L15.117,16 C15.934,16 16.491,16 16.976,16.096 C18.87,16.473 20.37,17.904 20.844,19.761 C20.895,19.612 20.937,19.407 20.962,19.089 C20.999,18.639 21,18.057 21,17.2 L21,6.8 C21,5.943 20.999,5.361 20.962,4.911 C20.927,4.473 20.862,4.248 20.782,4.092 C20.59,3.716 20.284,3.41 19.908,3.218 C19.752,3.138 19.527,3.073 19.089,3.038 C18.639,3.001 18.057,3 17.2,3 L6.8,3 C5.943,3 5.361,3.001 4.911,3.038 Z M7,9.5 C7,6.739 9.239,4.5 12,4.5 C14.761,4.5 17,6.739 17,9.5 C17,12.261 14.761,14.5 12,14.5 C9.239,14.5 7,12.261 7,9.5 Z M18.992,20.97 C18.984,20.709 18.969,20.55 18.942,20.415 C18.706,19.225 17.775,18.294 16.585,18.058 C16.32,18.005 15.977,18 15,18 L9,18 C8.023,18 7.68,18.005 7.415,18.058 C6.225,18.294 5.294,19.225 5.058,20.415 C5.031,20.55 5.016,20.709 5.008,20.97 C5.415,20.997 5.974,21 6.8,21 L17.2,21 C18.026,21 18.585,20.997 18.992,20.97 Z M12,6.5 C10.343,6.5 9,7.843 9,9.5 C9,11.157 10.343,12.5 12,12.5 C13.657,12.5 15,11.157 15,9.5 C15,7.843 13.657,6.5 12,6.5 Z"/>
</svg>
