<svg xmlns="http://www.w3.org/2000/svg" width="24" height="24" viewBox="0 0 24 24">
  <defs/>
  <path d="M17.241,2 L17.241,2 C18.046,2 18.711,2 19.252,2.044 C19.814,2.09 20.331,2.189 20.816,2.436 C21.569,2.819 22.181,3.431 22.564,4.184 C22.811,4.669 22.91,5.186 22.956,5.748 C23,6.289 23,6.954 23,7.759 L23,16.241 C23,17.046 23,17.711 22.956,18.252 C22.91,18.814 22.811,19.331 22.564,19.816 C22.181,20.569 21.569,21.181 20.816,21.564 C20.331,21.811 19.814,21.91 19.252,21.956 C18.711,22 18.046,22 17.241,22 L6.759,22 C5.954,22 5.289,22 4.748,21.956 C4.186,21.91 3.669,21.811 3.184,21.564 C2.431,21.181 1.819,20.569 1.436,19.816 C1.189,19.331 1.09,18.814 1.044,18.252 C1,17.711 1,17.046 1,16.241 L1,7.759 C1,6.954 1,6.289 1.044,5.748 C1.09,5.186 1.189,4.669 1.436,4.184 C1.819,3.431 2.431,2.819 3.184,2.436 C3.669,2.189 4.186,2.09 4.748,2.044 C5.289,2 5.954,2 6.759,2 L17.241,2 Z M21,12.586 L21,7.8 C21,6.943 20.999,6.361 20.962,5.911 C20.927,5.473 20.862,5.248 20.782,5.092 C20.59,4.716 20.284,4.41 19.908,4.218 C19.752,4.138 19.527,4.073 19.089,4.038 C18.639,4.001 18.057,4 17.2,4 L6.8,4 C5.943,4 5.361,4.001 4.911,4.038 C4.473,4.073 4.248,4.138 4.092,4.218 C3.716,4.41 3.41,4.716 3.218,5.092 C3.138,5.248 3.073,5.473 3.038,5.911 C3.001,6.361 3,6.943 3,7.8 L3,16.2 C3,17.057 3.001,17.639 3.038,18.089 C3.073,18.527 3.138,18.752 3.218,18.908 C3.378,19.221 3.617,19.486 3.909,19.676 L10.184,13.402 C10.363,13.223 10.536,13.049 10.696,12.914 C10.87,12.766 11.092,12.606 11.382,12.512 C11.784,12.382 12.216,12.382 12.618,12.512 C12.908,12.606 13.13,12.766 13.304,12.914 C13.464,13.049 13.637,13.223 13.816,13.402 L14,13.586 L16.184,11.402 C16.362,11.223 16.536,11.049 16.695,10.914 C16.87,10.766 17.092,10.606 17.382,10.512 C17.784,10.382 18.216,10.382 18.618,10.512 C18.908,10.606 19.13,10.766 19.305,10.914 C19.464,11.049 19.637,11.223 19.816,11.402 Z M12.424,14.839 C12.215,14.629 12.099,14.515 12.01,14.439 C12.007,14.436 12.003,14.433 12,14.43 C11.997,14.433 11.993,14.436 11.99,14.439 C11.901,14.515 11.785,14.629 11.576,14.839 L6.414,20 C6.536,20 6.665,20 6.8,20 L17.2,20 C17.335,20 17.463,20 17.586,20 Z M5,9 C5,7.343 6.343,6 8,6 C9.657,6 11,7.343 11,9 C11,10.657 9.657,12 8,12 C6.343,12 5,10.657 5,9 Z M20.091,19.676 C20.383,19.486 20.622,19.221 20.782,18.908 C20.862,18.752 20.927,18.527 20.962,18.089 C20.999,17.639 21,17.057 21,16.2 L21,15.414 L18.424,12.839 C18.215,12.629 18.099,12.515 18.01,12.439 C18.007,12.436 18.003,12.433 18,12.43 C17.997,12.433 17.993,12.436 17.99,12.439 C17.901,12.515 17.785,12.629 17.576,12.839 L15.414,15 Z M8,8 C7.448,8 7,8.448 7,9 C7,9.552 7.448,10 8,10 C8.552,10 9,9.552 9,9 C9,8.448 8.552,8 8,8 Z"/>
</svg>
