<svg xmlns="http://www.w3.org/2000/svg" width="24" height="24" viewBox="0 0 24 24">
  <defs/>
  <path d="M16.241,2 L16.241,2 C17.046,2 17.711,2 18.252,2.044 C18.814,2.09 19.331,2.189 19.816,2.436 C20.569,2.819 21.181,3.431 21.564,4.184 C21.811,4.669 21.91,5.186 21.956,5.748 C22,6.289 22,6.954 22,7.759 L22,16.241 C22,17.046 22,17.711 21.956,18.252 C21.91,18.814 21.811,19.331 21.564,19.816 C21.181,20.569 20.569,21.181 19.816,21.564 C19.331,21.811 18.814,21.91 18.252,21.956 C17.711,22 17.046,22 16.241,22 L6.89,22 C6.621,22 6.357,22 6.144,21.981 C6.136,21.98 6.128,21.98 6.119,21.979 C5.989,21.973 5.866,21.965 5.748,21.956 C5.186,21.91 4.669,21.811 4.184,21.564 C3.431,21.181 2.819,20.569 2.436,19.816 C2.189,19.331 2.09,18.814 2.044,18.252 C2,17.711 2,17.046 2,16.241 L2,7.759 C2,6.954 2,6.289 2.044,5.748 C2.09,5.186 2.189,4.669 2.436,4.184 C2.819,3.431 3.431,2.819 4.184,2.436 C4.669,2.189 5.186,2.09 5.748,2.044 C6.289,2 6.954,2 7.759,2 L16.241,2 Z M20,12.586 L20,7.8 C20,6.943 19.999,6.361 19.962,5.911 C19.927,5.473 19.862,5.248 19.782,5.092 C19.59,4.716 19.284,4.41 18.908,4.218 C18.752,4.138 18.527,4.073 18.089,4.038 C17.639,4.001 17.057,4 16.2,4 L7.8,4 C6.943,4 6.361,4.001 5.911,4.038 C5.473,4.073 5.248,4.138 5.092,4.218 C4.716,4.41 4.41,4.716 4.218,5.092 C4.138,5.248 4.073,5.473 4.038,5.911 C4.001,6.361 4,6.943 4,7.8 L4,16.2 C4,17.057 4.001,17.639 4.038,18.089 C4.073,18.527 4.138,18.752 4.218,18.908 C4.386,19.238 4.642,19.514 4.957,19.706 C5.015,19.618 5.073,19.548 5.115,19.497 C5.253,19.333 5.441,19.145 5.632,18.954 L14.184,10.402 C14.363,10.223 14.536,10.049 14.696,9.914 C14.87,9.766 15.092,9.606 15.382,9.512 C15.784,9.382 16.216,9.382 16.618,9.512 C16.908,9.606 17.13,9.766 17.305,9.914 C17.464,10.049 17.638,10.223 17.816,10.402 Z M7.8,20 L16.2,20 C17.057,20 17.639,19.999 18.089,19.962 C18.527,19.927 18.752,19.862 18.908,19.782 C19.284,19.59 19.59,19.284 19.782,18.908 C19.862,18.752 19.927,18.527 19.962,18.089 C19.999,17.639 20,17.057 20,16.2 L20,15.414 L16.424,11.839 C16.215,11.629 16.099,11.515 16.01,11.439 C16.007,11.436 16.003,11.433 16,11.43 C15.997,11.433 15.993,11.436 15.99,11.439 C15.901,11.515 15.785,11.629 15.576,11.839 L7.414,20 C7.536,20 7.665,20 7.8,20 Z M5.5,8.5 C5.5,6.843 6.843,5.5 8.5,5.5 C10.157,5.5 11.5,6.843 11.5,8.5 C11.5,10.157 10.157,11.5 8.5,11.5 C6.843,11.5 5.5,10.157 5.5,8.5 Z M8.5,7.5 C7.948,7.5 7.5,7.948 7.5,8.5 C7.5,9.052 7.948,9.5 8.5,9.5 C9.052,9.5 9.5,9.052 9.5,8.5 C9.5,7.948 9.052,7.5 8.5,7.5 Z"/>
</svg>
