<svg xmlns="http://www.w3.org/2000/svg" width="24" height="24" viewBox="0 0 24 24">
  <defs/>
  <path d="M12,1 C12.552,1 13,1.448 13,2 C13,2.552 12.552,3 12,3 L6.8,3 C5.943,3 5.361,3.001 4.911,3.038 C4.473,3.073 4.248,3.138 4.092,3.218 C3.716,3.41 3.41,3.716 3.218,4.092 C3.138,4.248 3.073,4.473 3.038,4.911 C3.001,5.361 3,5.943 3,6.8 L3,17 C3.835,16.372 4.874,16 6,16 L13.117,16 C13.934,16 14.491,16 14.975,16.096 C16.959,16.491 18.509,18.041 18.904,20.024 C18.959,20.304 18.983,20.607 18.993,20.97 C19.025,20.967 19.058,20.965 19.089,20.962 C19.527,20.927 19.752,20.862 19.908,20.782 C20.284,20.59 20.59,20.284 20.782,19.908 C20.862,19.752 20.927,19.527 20.962,19.089 C20.999,18.639 21,18.057 21,17.2 L21,12 C21,11.448 21.448,11 22,11 C22.552,11 23,11.448 23,12 L23,17.241 C23,18.046 23,18.711 22.956,19.252 C22.91,19.814 22.811,20.331 22.564,20.816 C22.181,21.569 21.569,22.181 20.816,22.564 C20.331,22.811 19.814,22.91 19.252,22.956 C18.908,22.984 18.514,22.994 18.065,22.998 C18.044,22.999 18.022,23 18,23 C17.983,23 17.965,23 17.948,22.999 C17.726,23 17.49,23 17.241,23 L6.759,23 C5.954,23 5.289,23 4.748,22.956 C4.186,22.91 3.669,22.811 3.184,22.564 C2.431,22.181 1.819,21.569 1.436,20.816 C1.363,20.673 1.303,20.528 1.254,20.379 C1.192,20.258 1.155,20.123 1.147,19.984 C1.096,19.749 1.065,19.505 1.044,19.252 C1,18.711 1,18.046 1,17.241 L1,6.759 C1,5.954 1,5.289 1.044,4.748 C1.09,4.186 1.189,3.669 1.436,3.184 C1.819,2.431 2.431,1.819 3.184,1.436 C3.669,1.189 4.186,1.09 4.748,1.044 C5.289,1 5.954,1 6.759,1 L12,1 Z M5,9.5 C5,6.739 7.239,4.5 10,4.5 C12.761,4.5 15,6.739 15,9.5 C15,12.261 12.761,14.5 10,14.5 C7.239,14.5 5,12.261 5,9.5 Z M16.993,21 C16.985,20.724 16.971,20.558 16.942,20.415 C16.705,19.225 15.775,18.294 14.585,18.058 C14.32,18.005 13.977,18 13,18 L6,18 C4.735,18 3.651,18.783 3.21,19.893 C3.213,19.898 3.215,19.903 3.218,19.908 C3.41,20.284 3.716,20.59 4.092,20.782 C4.248,20.862 4.473,20.927 4.911,20.962 C5.361,20.999 5.943,21 6.8,21 Z M15.793,1.793 C16.183,1.402 16.817,1.402 17.207,1.793 L19,3.586 L20.793,1.793 C21.183,1.402 21.817,1.402 22.207,1.793 C22.598,2.183 22.598,2.817 22.207,3.207 L20.414,5 L22.207,6.793 C22.598,7.183 22.598,7.817 22.207,8.207 C21.817,8.598 21.183,8.598 20.793,8.207 L19,6.414 L17.207,8.207 C16.817,8.598 16.183,8.598 15.793,8.207 C15.402,7.817 15.402,7.183 15.793,6.793 L17.586,5 L15.793,3.207 C15.402,2.817 15.402,2.183 15.793,1.793 Z M10,6.5 C8.343,6.5 7,7.843 7,9.5 C7,11.157 8.343,12.5 10,12.5 C11.657,12.5 13,11.157 13,9.5 C13,7.843 11.657,6.5 10,6.5 Z"/>
</svg>
