<svg xmlns="http://www.w3.org/2000/svg" width="24" height="24" viewBox="0 0 24 24">
  <defs/>
  <path d="M8.814,3 C8.864,3 8.915,3 8.967,3 L15.033,3 C15.085,3 15.136,3 15.186,3 L15.186,3 C16.114,2.999 16.813,2.999 17.45,3.219 C18.011,3.412 18.521,3.727 18.945,4.142 C19.426,4.614 19.739,5.24 20.153,6.07 L20.221,6.206 L22.388,10.539 C22.396,10.557 22.405,10.574 22.414,10.591 C22.578,10.919 22.702,11.167 22.791,11.433 C22.87,11.667 22.927,11.909 22.961,12.154 C23,12.431 23,12.708 23,13.074 L23,15.241 C23,16.046 23,16.711 22.956,17.252 C22.91,17.814 22.811,18.331 22.564,18.816 C22.181,19.569 21.569,20.181 20.816,20.564 C20.331,20.811 19.814,20.91 19.252,20.956 C18.711,21 18.046,21 17.241,21 L6.759,21 C5.954,21 5.289,21 4.748,20.956 C4.186,20.91 3.669,20.811 3.184,20.564 C2.431,20.181 1.819,19.569 1.436,18.816 C1.189,18.331 1.09,17.814 1.044,17.252 C1,16.711 1,16.046 1,15.242 L1,13.133 L1,13.075 L1,13.075 C1,12.708 1,12.431 1.039,12.154 C1.073,11.909 1.13,11.667 1.209,11.433 C1.298,11.167 1.422,10.919 1.586,10.591 C1.595,10.574 1.604,10.557 1.612,10.539 L3.779,6.206 C3.802,6.16 3.825,6.115 3.847,6.07 C4.261,5.24 4.574,4.614 5.055,4.142 C5.479,3.727 5.989,3.412 6.55,3.219 C7.187,2.999 7.886,2.999 8.814,3 Z M3.618,11 L5.882,11 C6.946,11 7.919,11.601 8.394,12.553 C8.531,12.827 8.812,13 9.118,13 L14.882,13 C15.188,13 15.469,12.827 15.606,12.553 C16.081,11.601 17.054,11 18.118,11 L20.382,11 L18.432,7.101 C17.918,6.073 17.756,5.778 17.545,5.571 C17.334,5.364 17.078,5.206 16.798,5.109 C16.519,5.013 16.183,5 15.033,5 L8.967,5 C7.817,5 7.481,5.013 7.202,5.109 C7.178,5.118 7.153,5.127 7.129,5.136 L5.547,7.142 Z M3,13 C3,13.041 3,13.085 3,13.133 L3,15.2 C3,16.057 3.001,16.639 3.038,17.089 C3.073,17.527 3.138,17.752 3.218,17.908 C3.41,18.284 3.716,18.59 4.092,18.782 C4.248,18.862 4.473,18.927 4.911,18.962 C5.361,18.999 5.943,19 6.8,19 L17.2,19 C18.057,19 18.639,18.999 19.089,18.962 C19.527,18.927 19.752,18.862 19.908,18.782 C20.284,18.59 20.59,18.284 20.782,17.908 C20.862,17.752 20.927,17.527 20.962,17.089 C20.999,16.639 21,16.057 21,15.2 L21,13.133 C21,13.085 21,13.041 21,13 L18.118,13 C17.812,13 17.531,13.173 17.394,13.447 C16.919,14.399 15.946,15 14.882,15 L9.118,15 C8.054,15 7.081,14.399 6.606,13.447 C6.469,13.173 6.188,13 5.882,13 Z M5.554,7.128 L7.126,5.137 C6.876,5.235 6.647,5.383 6.455,5.571 C6.244,5.778 6.082,6.073 5.568,7.101 L5.554,7.128 Z M2.507,10.986 L2.513,10.989 L5.547,7.142 L5.554,7.128 Z M8.814,3 L7.126,5.137 C7.127,5.137 7.128,5.136 7.129,5.136 L8.814,3 Z"/>
</svg>
