<svg xmlns="http://www.w3.org/2000/svg" width="24" height="24" viewBox="0 0 24 24">
  <defs/>
  <path d="M2.065,8.643 L3.934,9.551 C4.306,9.21 4.797,9 5.439,9 C7.478,9 8.986,10.273 10.631,12 C10.452,12.188 10.275,12.37 10.099,12.546 L11.997,13.469 L13.382,12.02 C13.375,12.013 13.369,12.007 13.363,12 C13.775,11.559 14.174,11.145 14.575,10.771 L18.179,7 C19.74,7 20.976,7.625 21.806,8.603 C22.619,9.559 23,10.799 23,12 C23,13.201 22.619,14.441 21.806,15.397 C20.976,16.375 19.739,17 18.178,17 C16.618,17 15.329,16.381 14.224,15.549 C13.428,14.949 12.691,14.208 11.997,13.469 C10.34,15.208 8.307,17 5.439,17 C3.964,17 2.817,16.341 2.065,15.357 C1.335,14.401 1,13.176 1,12 C1,10.824 1.335,9.599 2.065,8.643 C2.817,7.659 3.964,7 5.439,7 C6.749,7 7.886,7.374 8.892,7.947 L17.015,7.119 C17.384,7.042 17.77,7 18.174,7 L18.178,7 L17.015,7.119 C15.96,7.337 15.042,7.836 14.225,8.451 C13.429,9.051 12.691,9.793 11.997,10.532 C11.098,9.587 10.087,8.627 8.892,7.947 Z M13.382,12.02 C14.075,12.762 14.732,13.427 15.428,13.951 C16.314,14.619 17.19,15 18.178,15 C19.164,15 19.839,14.625 20.282,14.103 C20.744,13.559 21,12.799 21,12 C21,11.201 20.744,10.441 20.282,9.897 C19.839,9.376 19.164,9 18.179,9 L13.456,11.942 L13.382,12.02 Z M10.099,12.546 L3.934,9.551 C3.832,9.644 3.739,9.746 3.654,9.857 C3.239,10.401 3,11.176 3,12 C3,12.824 3.239,13.599 3.654,14.143 C4.049,14.659 4.621,15 5.439,15 C7.256,15 8.652,13.989 10.099,12.546 Z M13.456,11.942 L18.178,9 C17.19,9 16.314,9.381 15.428,10.049 C15.139,10.267 14.856,10.509 14.575,10.771 L13.456,11.942 Z"/>
</svg>
