<svg xmlns="http://www.w3.org/2000/svg" width="24" height="24" viewBox="0 0 24 24">
  <defs/>
  <path d="M16.797,7.203 C20.35,8.018 23,11.2 23,15 C23,19.418 19.418,23 15,23 C11.2,23 8.018,20.35 7.203,16.797 C3.65,15.982 1,12.8 1,9 C1,4.582 4.582,1 9,1 C12.8,1 15.982,3.65 16.797,7.203 Z M9,3 C5.686,3 3,5.686 3,9 C3,11.615 4.673,13.839 7.007,14.661 C7.18,10.512 10.512,7.18 14.661,7.007 C13.839,4.673 11.615,3 9,3 Z M9.339,16.993 C10.161,19.327 12.385,21 15,21 C18.314,21 21,18.314 21,15 C21,12.385 19.327,10.161 16.993,9.339 C16.82,13.488 13.488,16.82 9.339,16.993 Z M9,15 C12.314,15 15,12.314 15,9 C11.686,9 9,11.686 9,15 Z"/>
</svg>
