<svg xmlns="http://www.w3.org/2000/svg" width="24" height="24" viewBox="0 0 24 24">
  <defs/>
  <path d="M13.227,3 Q13.25,2.999 13.273,3 L16.727,3 C16.742,2.999 16.758,2.999 16.773,3 L19.5,3 C20.052,3 20.5,3.447 20.5,4 C20.5,4.552 20.052,5 19.5,5 L17.443,5 L12.193,19 L14.5,19 C15.052,19 15.5,19.448 15.5,20 C15.5,20.552 15.052,21 14.5,21 L10.773,21 C10.758,21 10.742,21 10.727,21 L7.273,21 C7.258,21 7.242,21 7.227,21 L4.5,21 C3.948,21 3.5,20.552 3.5,20 C3.5,19.448 3.948,19 4.5,19 L6.557,19 L11.807,5 L9.5,5 C8.948,5 8.5,4.552 8.5,4 C8.5,3.447 8.948,3 9.5,3 Z M15.307,5 L13.943,5 L8.693,19 L10.057,19 Z"/>
</svg>
