<svg xmlns="http://www.w3.org/2000/svg" width="24" height="24" viewBox="0 0 24 24">
  <defs/>
  <path d="M8,9 C8,5.134 11.134,2 15,2 C18.866,2 22,5.134 22,9 C22,12.866 18.866,16 15,16 C14.682,16 14.368,15.979 14.06,15.937 C13.835,15.907 13.694,15.888 13.591,15.878 C13.573,15.877 13.558,15.875 13.546,15.875 C13.543,15.877 13.54,15.88 13.536,15.883 C13.483,15.932 13.412,16.002 13.286,16.128 L11.707,17.707 C11.519,17.895 11.265,18 11,18 L10,18 L10,19 C10,19.552 9.552,20 9,20 L8,20 L8,21 C8,21.552 7.552,22 7,22 L4.564,22 C4.313,22 4.069,22 3.862,21.983 C3.633,21.964 3.363,21.92 3.092,21.782 C2.716,21.59 2.41,21.284 2.218,20.908 C2.08,20.637 2.036,20.367 2.017,20.138 C2,19.93 2,19.684 2,19.432 L2,19.432 L2,17.663 C2,17.646 2,17.629 2,17.612 L2,17.612 C1.999,17.422 1.999,17.183 2.055,16.947 C2.104,16.743 2.185,16.548 2.295,16.369 C2.421,16.163 2.591,15.994 2.725,15.86 C2.738,15.848 2.75,15.836 2.761,15.824 L7.872,10.714 C7.998,10.588 8.068,10.517 8.117,10.464 C8.12,10.46 8.123,10.457 8.125,10.454 C8.125,10.442 8.123,10.427 8.122,10.409 C8.112,10.306 8.093,10.165 8.063,9.94 C8.021,9.632 8,9.318 8,9 Z M8,18 L8,17 C8,16.448 8.448,16 9,16 L10.586,16 L11.872,14.714 C11.889,14.697 11.906,14.679 11.924,14.661 C12.104,14.481 12.322,14.261 12.57,14.122 C12.804,13.992 12.998,13.926 13.263,13.888 C13.456,13.861 13.644,13.874 13.783,13.888 C13.928,13.902 14.106,13.926 14.308,13.953 L14.326,13.955 C14.546,13.985 14.771,14 15,14 C17.761,14 20,11.761 20,9 C20,6.239 17.761,4 15,4 C12.238,4 10,6.239 10,9 C10,9.229 10.015,9.454 10.045,9.674 L10.047,9.692 C10.074,9.893 10.098,10.072 10.112,10.217 C10.126,10.356 10.139,10.544 10.112,10.737 C10.074,11.002 10.008,11.196 9.878,11.43 C9.739,11.678 9.519,11.896 9.339,12.076 C9.321,12.093 9.303,12.111 9.286,12.128 L4.176,17.239 C4.083,17.331 4.037,17.378 4.005,17.413 C4.004,17.413 4.003,17.414 4.003,17.415 L4.002,17.419 C4,17.466 4,17.532 4,17.663 L4,19.4 C4,19.697 4.001,19.859 4.01,19.975 C4.011,19.98 4.011,19.984 4.011,19.989 C4.016,19.989 4.02,19.989 4.025,19.99 C4.141,19.999 4.303,20 4.6,20 L6,20 L6,19 C6,18.448 6.448,18 7,18 Z M14,7 C14,6.448 14.448,6 15,6 C15.766,6 16.536,6.293 17.121,6.879 C17.707,7.464 18,8.234 18,9 C18,9.552 17.552,10 17,10 C16.448,10 16,9.552 16,9 C16,8.743 15.903,8.488 15.707,8.293 C15.512,8.097 15.257,8 15,8 C14.448,8 14,7.552 14,7 Z"/>
</svg>
