<svg width="24" height="24" viewBox="0 0 24 24" fill="none" xmlns="http://www.w3.org/2000/svg">
<path d="M12.5147 0.956299C9.55961 0.956467 7.65707 2.604 7.16212 4.71118C6.82707 6.13771 7.16757 7.68884 8.14943 8.88696C5.79447 9.74245 4.11055 11.151 3.29396 13.2043C2.39981 15.4528 2.31408 18.2563 2.91603 21.5393L3.04493 22.2024L3.0713 22.302C3.2238 22.7853 3.72061 23.0838 4.22755 22.9788C4.73424 22.8736 5.07144 22.4026 5.01954 21.8987L5.00392 21.7971L4.88185 21.1731C4.31875 18.0985 4.4485 15.7137 5.15235 13.9436C5.83621 12.2241 7.48101 10.9516 10.4658 10.301C10.877 10.2113 11.1883 9.8734 11.2442 9.4563C11.3 9.0391 11.0881 8.6314 10.7149 8.43677C9.3366 7.71794 8.8345 6.33859 9.10939 5.16821C9.37013 4.05879 10.3882 2.95646 12.5147 2.9563C14.6749 2.9563 16.5115 4.03814 17.8027 5.98267C19.1073 7.94735 19.8481 10.7984 19.6768 14.2112C19.5152 17.4294 17.9825 19.1041 16.3154 19.8157C14.5559 20.5665 12.6054 20.2794 11.5576 19.4739C10.8336 18.9172 10.4085 18.2225 10.2481 17.3547C10.0826 16.4592 10.1889 15.3165 10.6602 13.887C10.7789 13.527 10.6842 13.1305 10.4151 12.8635C10.1459 12.5966 9.74868 12.5055 9.38966 12.6272C8.56071 12.9082 7.85631 13.3634 7.32032 14.012C6.7867 14.6577 6.46115 15.4449 6.30763 16.3284C6.02767 17.9401 6.26029 19.8108 6.91603 21.8987L7.05275 22.3186L7.08985 22.4143C7.2992 22.8757 7.8287 23.1125 8.31935 22.9475C8.80991 22.7823 9.08791 22.2738 8.9756 21.7795L8.94825 21.6809L8.82228 21.2942C8.31244 19.6692 8.12693 18.3208 8.20997 17.2239C8.22722 17.3913 8.25119 17.5564 8.28126 17.719C8.53333 19.0821 9.23127 20.2073 10.3389 21.0588C12.0385 22.3656 14.7722 22.6485 17.0996 21.6555C19.5195 20.6229 21.4766 18.2391 21.6738 14.3118C21.8612 10.579 21.0634 7.27764 19.4688 4.87622C17.8607 2.45459 15.4367 0.956299 12.5147 0.956299ZM14.2559 11.9456C14.9738 11.8576 15.8445 11.9405 16.8233 12.1399C17.3642 12.2502 17.7136 12.7786 17.6035 13.3196C17.4933 13.8607 16.965 14.2101 16.4238 14.0999C15.5326 13.9183 14.9057 13.8801 14.499 13.9299C14.4202 13.9396 14.3563 13.9526 14.3047 13.9651C14.3996 14.069 14.5357 14.1957 14.7188 14.3333C15.3124 14.7794 16.0269 15.093 16.2852 15.1438C16.8271 15.2503 17.1798 15.7767 17.0733 16.3186C16.9733 16.8264 16.5055 17.1683 16.001 17.1213L15.8994 17.1067L15.6416 17.0422C15.0067 16.8556 14.1667 16.4205 13.5166 15.9319C13.1393 15.6483 12.7375 15.2826 12.4736 14.8528C12.2046 14.4145 11.9849 13.7259 12.3838 13.0344L12.4649 12.9055C12.8892 12.2846 13.5862 12.0277 14.2559 11.9456ZM14.7881 6.64087C15.2624 6.35831 15.8764 6.51332 16.1592 6.98755C16.442 7.46193 16.2859 8.07584 15.8115 8.35864C15.1309 8.76441 14.7908 9.08563 14.6524 9.29419C14.6223 9.33954 14.6075 9.3708 14.6006 9.38892C14.604 9.39499 14.6072 9.39927 14.6094 9.40259C14.6239 9.40619 14.6532 9.41138 14.7022 9.41138C14.919 9.41124 15.3282 9.31515 15.9824 8.98169C16.4745 8.7309 17.0773 8.92713 17.3281 9.41919C17.5786 9.91117 17.3826 10.5132 16.8906 10.7639C16.1362 11.1484 15.3892 11.4113 14.7022 11.4114C13.9313 11.4114 13.2468 11.0717 12.8506 10.3577C12.6635 10.0204 12.5689 9.64024 12.6026 9.23755C12.6355 8.84373 12.7852 8.49079 12.9863 8.18774C13.3729 7.60536 14.0202 7.09868 14.7881 6.64087Z" fill="black"/>
</svg>
