<svg xmlns="http://www.w3.org/2000/svg" width="24" height="24" viewBox="0 0 24 24">
  <defs/>
  <path d="M6.161,3 L17.839,3 C18.366,3 18.82,3 19.195,3.031 C19.59,3.063 19.984,3.134 20.362,3.327 C20.927,3.615 21.385,4.074 21.673,4.638 C21.866,5.016 21.937,5.41 21.969,5.805 C22,6.18 22,6.634 22,7.161 L22,15.268 C22.453,15.53 22.793,15.963 22.932,16.482 C23.002,16.743 23.001,17.031 23,17.265 L23,17.266 C23,17.289 23,17.311 23,17.333 C23,17.371 23,17.408 23,17.445 C23.001,17.953 23.001,18.391 22.898,18.777 C22.62,19.812 21.812,20.62 20.777,20.898 C20.391,21.001 19.953,21.001 19.446,21 L19.445,21 C19.408,21 19.371,21 19.333,21 L4.667,21 C4.629,21 4.592,21 4.555,21 L4.554,21 C4.047,21.001 3.609,21.001 3.224,20.898 C2.188,20.62 1.38,19.812 1.102,18.777 C0.999,18.391 0.999,17.953 1,17.445 C1,17.408 1,17.371 1,17.333 C1,17.311 1,17.289 1,17.266 C0.999,17.031 0.998,16.743 1.068,16.482 C1.207,15.963 1.547,15.53 2,15.268 L2,7.161 C2,6.634 2,6.18 2.031,5.805 C2.063,5.41 2.134,5.016 2.327,4.638 C2.615,4.074 3.074,3.615 3.638,3.327 C4.016,3.134 4.41,3.063 4.805,3.031 C5.18,3 5.634,3 6.161,3 Z M20,15 L20,7.2 C20,6.623 19.999,6.251 19.976,5.968 C19.954,5.696 19.916,5.595 19.891,5.546 C19.795,5.358 19.642,5.205 19.454,5.109 C19.405,5.084 19.304,5.046 19.032,5.024 C18.749,5.001 18.377,5 17.8,5 L6.2,5 C5.623,5 5.251,5.001 4.968,5.024 C4.696,5.046 4.595,5.084 4.546,5.109 C4.358,5.205 4.205,5.358 4.109,5.546 C4.084,5.595 4.046,5.696 4.024,5.968 C4.001,6.251 4,6.623 4,7.2 L4,15 Z M3.004,17.004 C3.004,17.007 3.003,17.01 3.003,17.014 C3,17.08 3,17.169 3,17.333 C3,18.018 3.009,18.164 3.034,18.259 C3.127,18.604 3.396,18.874 3.741,18.966 C3.836,18.991 3.982,19 4.667,19 L19.333,19 C20.018,19 20.164,18.991 20.259,18.966 C20.604,18.874 20.874,18.604 20.966,18.259 C20.992,18.164 21,18.018 21,17.333 C21,17.169 21,17.08 20.997,17.014 C20.997,17.01 20.997,17.007 20.996,17.004 C20.993,17.004 20.99,17.003 20.986,17.003 C20.92,17 20.831,17 20.667,17 L3.333,17 C3.169,17 3.08,17 3.014,17.003 C3.011,17.003 3.007,17.004 3.004,17.004 Z"/>
</svg>
