<svg xmlns="http://www.w3.org/2000/svg" width="24" height="24" viewBox="0 0 24 24">
  <defs/>
  <path d="M6.161,3 L17.838,3 C18.366,3 18.82,3 19.195,3.031 C19.59,3.063 19.983,3.134 20.362,3.327 C20.926,3.615 21.385,4.074 21.673,4.638 C21.866,5.016 21.937,5.41 21.969,5.805 C22,6.18 22,6.634 22,7.161 L22,15.268 C22.453,15.53 22.793,15.963 22.932,16.482 C23.002,16.743 23.001,17.031 23,17.266 C23,17.289 23,17.311 23,17.333 C23,17.371 23,17.408 23,17.445 L23,17.446 C23,17.953 23.001,18.391 22.898,18.777 C22.62,19.812 21.812,20.62 20.776,20.898 C20.391,21.001 19.953,21.001 19.446,21 L19.445,21 C19.408,21 19.371,21 19.333,21 L4.667,21 C4.629,21 4.592,21 4.555,21 L4.554,21 C4.046,21.001 3.609,21.001 3.223,20.898 C2.188,20.62 1.38,19.812 1.102,18.777 C0.999,18.391 0.999,17.953 1,17.445 C1,17.408 1,17.371 1,17.333 L1,17 C1,16.26 1.402,15.613 2,15.268 L2,7.161 C2,6.634 2,6.18 2.03,5.805 C2.063,5.41 2.134,5.016 2.327,4.638 C2.615,4.074 3.073,3.615 3.638,3.327 C4.016,3.134 4.41,3.063 4.805,3.031 C5.179,3 5.634,3 6.161,3 Z M4,15 L8.337,15 C8.354,15 8.371,15 8.388,15 C8.578,14.999 8.817,14.999 9.053,15.055 C9.257,15.104 9.452,15.185 9.631,15.295 C9.837,15.421 10.006,15.591 10.14,15.725 C10.152,15.738 10.164,15.75 10.176,15.762 L10.238,15.824 C10.331,15.917 10.377,15.963 10.413,15.995 C10.413,15.996 10.414,15.997 10.415,15.997 L10.419,15.998 C10.466,16 10.532,16 10.663,16 L13.337,16 C13.468,16 13.534,16 13.581,15.998 L13.585,15.997 C13.585,15.997 13.586,15.996 13.587,15.995 C13.622,15.963 13.669,15.917 13.761,15.824 L13.824,15.762 C13.836,15.75 13.848,15.738 13.86,15.725 C13.994,15.591 14.163,15.421 14.369,15.295 C14.548,15.185 14.743,15.104 14.947,15.055 C15.183,14.999 15.422,14.999 15.612,15 C15.629,15 15.646,15 15.663,15 L20,15 L20,7.2 C20,6.623 19.999,6.251 19.976,5.968 C19.954,5.696 19.916,5.595 19.891,5.546 C19.795,5.358 19.642,5.205 19.454,5.109 C19.404,5.084 19.304,5.046 19.032,5.024 C18.749,5.001 18.376,5 17.8,5 L6.2,5 C5.623,5 5.251,5.001 4.968,5.024 C4.696,5.046 4.595,5.084 4.546,5.109 C4.358,5.205 4.205,5.358 4.109,5.546 C4.084,5.595 4.046,5.696 4.024,5.968 C4.001,6.251 4,6.623 4,7.2 Z M15.663,17 C15.532,17 15.466,17 15.419,17.002 L15.415,17.003 C15.414,17.003 15.413,17.004 15.413,17.005 C15.377,17.037 15.331,17.083 15.238,17.176 L15.176,17.239 C15.164,17.25 15.152,17.262 15.14,17.275 C15.006,17.409 14.837,17.579 14.631,17.705 C14.452,17.815 14.257,17.896 14.053,17.945 C13.817,18.001 13.578,18.001 13.388,18 C13.371,18 13.354,18 13.337,18 L10.663,18 C10.646,18 10.629,18 10.612,18 C10.422,18.001 10.183,18.001 9.947,17.945 C9.743,17.896 9.548,17.815 9.369,17.705 C9.163,17.579 8.994,17.409 8.86,17.275 C8.848,17.262 8.836,17.25 8.824,17.239 L8.761,17.176 C8.669,17.083 8.622,17.037 8.587,17.005 C8.586,17.004 8.585,17.003 8.585,17.003 L8.581,17.002 C8.534,17 8.468,17 8.337,17 L3,17 L3,17.333 C3,18.018 3.009,18.164 3.034,18.259 C3.126,18.604 3.396,18.874 3.741,18.966 C3.836,18.991 3.982,19 4.667,19 L19.333,19 C20.018,19 20.164,18.991 20.259,18.966 C20.604,18.874 20.873,18.604 20.966,18.259 C20.991,18.164 21,18.018 21,17.333 C21,17.169 21,17.08 20.997,17.014 C20.997,17.01 20.996,17.007 20.996,17.004 C20.993,17.004 20.989,17.003 20.986,17.003 C20.92,17 20.831,17 20.667,17 Z"/>
</svg>
