<svg xmlns="http://www.w3.org/2000/svg" width="24" height="24" viewBox="0 0 24 24">
  <defs/>
  <path d="M11.723,6.085 C11.906,6.051 12.094,6.051 12.277,6.085 C12.493,6.125 12.686,6.224 12.779,6.272 C12.789,6.276 12.798,6.281 12.805,6.285 L22.447,11.106 C22.786,11.275 23,11.621 23,12 C23,12.379 22.786,12.725 22.447,12.894 L12.805,17.716 C12.798,17.719 12.789,17.724 12.779,17.729 C12.686,17.776 12.493,17.875 12.277,17.915 C12.094,17.95 11.906,17.95 11.723,17.915 C11.507,17.875 11.314,17.776 11.221,17.729 C11.211,17.724 11.202,17.719 11.195,17.716 L1.553,12.894 C1.214,12.725 1,12.379 1,12 C1,11.621 1.214,11.275 1.553,11.106 L11.195,6.285 C11.202,6.281 11.211,6.276 11.221,6.272 C11.314,6.224 11.507,6.125 11.723,6.085 Z M12,8.118 L4.236,12 L12,15.882 L19.764,12 Z"/>
</svg>
