<svg xmlns="http://www.w3.org/2000/svg" width="24" height="24" viewBox="0 0 24 24">
  <defs/>
  <path d="M4.764,12 L1.553,10.394 C1.214,10.225 1,9.879 1,9.5 C1,9.121 1.214,8.775 1.553,8.606 L11.195,3.785 C11.202,3.781 11.211,3.776 11.221,3.772 C11.314,3.724 11.507,3.625 11.723,3.585 C11.906,3.551 12.094,3.551 12.277,3.585 C12.493,3.625 12.686,3.724 12.779,3.772 C12.789,3.776 12.798,3.781 12.805,3.785 L22.447,8.606 C22.786,8.775 23,9.121 23,9.5 C23,9.879 22.786,10.225 22.447,10.394 L19.236,12 L22.447,13.606 C22.786,13.775 23,14.121 23,14.5 C23,14.879 22.786,15.225 22.447,15.394 L12.805,20.216 C12.798,20.219 12.789,20.224 12.779,20.229 C12.686,20.276 12.493,20.375 12.277,20.415 C12.094,20.45 11.906,20.45 11.723,20.415 C11.507,20.375 11.314,20.276 11.221,20.229 C11.211,20.224 11.202,20.219 11.195,20.216 L1.553,15.394 C1.214,15.225 1,14.879 1,14.5 C1,14.121 1.214,13.775 1.553,13.606 Z M12,5.618 L4.236,9.5 L7.438,11.101 C7.445,11.104 7.451,11.108 7.458,11.111 L12,13.382 L16.542,11.111 C16.549,11.108 16.555,11.104 16.562,11.101 L19.764,9.5 Z M7,13.118 L4.236,14.5 L12,18.382 L19.764,14.5 L17,13.118 L12.805,15.216 C12.798,15.219 12.789,15.224 12.779,15.229 C12.686,15.276 12.493,15.375 12.277,15.415 C12.094,15.45 11.906,15.45 11.723,15.415 C11.507,15.375 11.314,15.276 11.221,15.229 C11.211,15.224 11.202,15.219 11.195,15.216 Z"/>
</svg>
