<svg xmlns="http://www.w3.org/2000/svg" width="24" height="24" viewBox="0 0 24 24">
  <defs/>
  <path d="M4.764,9.5 L1.553,7.894 C1.214,7.725 1,7.379 1,7 C1,6.621 1.214,6.275 1.553,6.106 L11.195,1.285 C11.202,1.281 11.211,1.276 11.221,1.272 C11.314,1.224 11.507,1.125 11.723,1.085 C11.906,1.051 12.094,1.051 12.277,1.085 C12.493,1.125 12.686,1.224 12.779,1.272 C12.789,1.276 12.798,1.281 12.805,1.285 L22.447,6.106 C22.786,6.275 23,6.621 23,7 C23,7.379 22.786,7.725 22.447,7.894 L19.236,9.5 L22.447,11.106 C22.786,11.275 23,11.621 23,12 C23,12.379 22.786,12.725 22.447,12.894 L19.236,14.5 L22.447,16.106 C22.786,16.275 23,16.621 23,17 C23,17.379 22.786,17.725 22.447,17.895 L12.805,22.716 C12.798,22.719 12.789,22.724 12.779,22.729 C12.686,22.776 12.493,22.875 12.277,22.915 C12.094,22.95 11.906,22.95 11.723,22.915 C11.507,22.875 11.314,22.776 11.221,22.729 C11.211,22.724 11.202,22.719 11.195,22.716 L1.553,17.895 C1.214,17.725 1,17.379 1,17 C1,16.621 1.214,16.275 1.553,16.106 L4.764,14.5 L1.553,12.894 C1.214,12.725 1,12.379 1,12 C1,11.621 1.214,11.275 1.553,11.106 Z M12,3.118 L4.236,7 L7.438,8.601 C7.445,8.604 7.451,8.608 7.458,8.611 L12,10.882 L16.542,8.611 C16.549,8.608 16.555,8.604 16.562,8.601 L19.764,7 Z M17,15.618 L12.805,17.716 C12.798,17.719 12.789,17.724 12.779,17.729 C12.686,17.776 12.493,17.875 12.277,17.915 C12.094,17.95 11.906,17.95 11.723,17.915 C11.507,17.875 11.314,17.776 11.221,17.729 C11.211,17.724 11.202,17.719 11.195,17.716 L7,15.618 L4.236,17 L12,20.882 L19.764,17 Z M7,10.618 L4.236,12 L7.438,13.601 C7.445,13.604 7.451,13.608 7.458,13.611 L12,15.882 L16.542,13.611 C16.549,13.608 16.555,13.604 16.562,13.601 L19.764,12 L17,10.618 L12.805,12.716 C12.798,12.719 12.789,12.724 12.779,12.729 C12.686,12.776 12.493,12.875 12.277,12.915 C12.094,12.95 11.906,12.95 11.723,12.915 C11.507,12.875 11.314,12.776 11.221,12.729 C11.211,12.724 11.202,12.719 11.195,12.716 Z"/>
</svg>
