<svg xmlns="http://www.w3.org/2000/svg" width="24" height="24" viewBox="0 0 24 24">
  <defs/>
  <path d="M4.852,2.139 C4.861,2.146 4.871,2.153 4.88,2.16 L8.747,5.06 C8.754,5.066 8.762,5.071 8.769,5.077 C8.894,5.17 9.035,5.276 9.148,5.377 C9.272,5.489 9.455,5.676 9.565,5.956 C9.701,6.306 9.701,6.694 9.565,7.044 C9.455,7.324 9.272,7.511 9.148,7.623 C9.035,7.724 8.894,7.83 8.769,7.923 C8.762,7.929 8.754,7.934 8.747,7.94 L4.88,10.84 C4.871,10.847 4.861,10.854 4.852,10.861 C4.671,10.997 4.484,11.137 4.32,11.238 C4.16,11.337 3.857,11.508 3.469,11.5 C3.019,11.49 2.597,11.279 2.319,10.925 C2.08,10.619 2.034,10.274 2.017,10.087 C2,9.895 2,9.662 2,9.435 L2,9.435 L2,9.4 L2,3.6 L2,3.565 L2,3.565 C2,3.338 2,3.105 2.017,2.913 C2.034,2.726 2.08,2.381 2.319,2.075 C2.597,1.721 3.019,1.51 3.469,1.5 C3.857,1.492 4.16,1.663 4.32,1.762 C4.484,1.863 4.671,2.003 4.852,2.139 Z M2,14.75 C2,14.198 2.448,13.75 3,13.75 L21,13.75 C21.552,13.75 22,14.198 22,14.75 C22,15.302 21.552,15.75 21,15.75 L3,15.75 C2.448,15.75 2,15.302 2,14.75 Z M2,20 C2,19.448 2.448,19 3,19 L21,19 C21.552,19 22,19.448 22,20 C22,20.552 21.552,21 21,21 L3,21 C2.448,21 2,20.552 2,20 Z M11,9.25 C11,8.698 11.448,8.25 12,8.25 L21,8.25 C21.552,8.25 22,8.698 22,9.25 C22,9.802 21.552,10.25 21,10.25 L12,10.25 C11.448,10.25 11,9.802 11,9.25 Z M11,4 C11,3.448 11.448,3 12,3 L21,3 C21.552,3 22,3.448 22,4 C22,4.552 21.552,5 21,5 L12,5 C11.448,5 11,4.552 11,4 Z M4,4 L4,9 L7.333,6.5 Z"/>
</svg>
