<svg xmlns="http://www.w3.org/2000/svg" width="24" height="24" viewBox="0 0 24 24">
  <defs/>
  <path d="M4.852,7.739 C4.861,7.746 4.871,7.753 4.88,7.76 L8.747,10.66 C8.754,10.666 8.762,10.671 8.769,10.677 C8.894,10.77 9.035,10.876 9.148,10.977 C9.272,11.089 9.455,11.276 9.565,11.556 C9.701,11.906 9.701,12.294 9.565,12.644 C9.455,12.924 9.272,13.111 9.148,13.223 C9.035,13.324 8.894,13.43 8.769,13.523 C8.762,13.529 8.754,13.534 8.747,13.54 L4.88,16.44 C4.871,16.447 4.861,16.454 4.852,16.461 C4.671,16.597 4.484,16.737 4.32,16.838 C4.16,16.937 3.857,17.108 3.469,17.1 C3.019,17.09 2.597,16.879 2.319,16.525 C2.08,16.219 2.034,15.874 2.017,15.687 C2,15.495 2,15.262 2,15.035 L2,15.035 L2,15 L2,9.2 L2,9.165 L2,9.165 C2,8.938 2,8.705 2.017,8.513 C2.034,8.326 2.08,7.981 2.319,7.675 C2.597,7.321 3.019,7.11 3.469,7.1 C3.857,7.092 4.16,7.263 4.32,7.362 C4.484,7.463 4.671,7.603 4.852,7.739 Z M2,20 C2,19.448 2.448,19 3,19 L21,19 C21.552,19 22,19.448 22,20 C22,20.552 21.552,21 21,21 L3,21 C2.448,21 2,20.552 2,20 Z M2,4 C2,3.448 2.448,3 3,3 L21,3 C21.552,3 22,3.448 22,4 C22,4.552 21.552,5 21,5 L3,5 C2.448,5 2,4.552 2,4 Z M11,14.75 C11,14.198 11.448,13.75 12,13.75 L21,13.75 C21.552,13.75 22,14.198 22,14.75 C22,15.302 21.552,15.75 21,15.75 L12,15.75 C11.448,15.75 11,15.302 11,14.75 Z M11,9.25 C11,8.698 11.448,8.25 12,8.25 L21,8.25 C21.552,8.25 22,8.698 22,9.25 C22,9.802 21.552,10.25 21,10.25 L12,10.25 C11.448,10.25 11,9.802 11,9.25 Z M4,9.6 L4,14.6 L7.333,12.1 Z"/>
</svg>
