<svg xmlns="http://www.w3.org/2000/svg" width="24" height="24" viewBox="0 0 24 24">
  <defs/>
  <path d="M5.707,14.293 C6.098,14.683 6.098,15.317 5.707,15.707 L4.414,17 L19.586,17 L18.293,15.707 C17.902,15.317 17.902,14.683 18.293,14.293 C18.683,13.902 19.317,13.902 19.707,14.293 L22.707,17.293 C23.098,17.683 23.098,18.317 22.707,18.707 L19.707,21.707 C19.317,22.098 18.683,22.098 18.293,21.707 C17.902,21.317 17.902,20.683 18.293,20.293 L19.586,19 L4.414,19 L5.707,20.293 C6.098,20.683 6.098,21.317 5.707,21.707 C5.317,22.098 4.683,22.098 4.293,21.707 L1.293,18.707 C0.902,18.317 0.902,17.683 1.293,17.293 L4.293,14.293 C4.683,13.902 5.317,13.902 5.707,14.293 Z M6,3 C6,2.448 6.448,2 7,2 L17,2 C17.552,2 18,2.448 18,3 C18,3.552 17.552,4 17,4 L13,4 L13,14 C13,14.552 12.552,15 12,15 C11.448,15 11,14.552 11,14 L11,4 L7,4 C6.448,4 6,3.552 6,3 Z"/>
</svg>
