<svg xmlns="http://www.w3.org/2000/svg" width="24" height="24" viewBox="0 0 24 24">
  <defs/>
  <path d="M19.774,4.217 C19.775,4.219 19.777,4.22 19.778,4.222 C19.78,4.223 19.781,4.225 19.782,4.226 C21.771,6.216 23,8.965 23,12 C23,18.075 18.075,23 12,23 C8.965,23 6.216,21.771 4.226,19.783 C4.225,19.781 4.223,19.78 4.222,19.778 C4.22,19.777 4.219,19.775 4.217,19.774 C2.229,17.784 1,15.035 1,12 C1,5.925 5.925,1 12,1 C15.035,1 17.784,2.229 19.774,4.217 Z M12,8 C9.791,8 8,9.791 8,12 C8,14.209 9.791,16 12,16 C14.209,16 16,14.209 16,12 C16,9.791 14.209,8 12,8 Z M6.382,4.968 L8.523,7.109 C9.504,6.411 10.704,6 12,6 C13.296,6 14.496,6.411 15.476,7.109 L17.618,4.968 C16.078,3.736 14.125,3 12,3 C9.875,3 7.922,3.736 6.382,4.968 Z M19.032,6.382 L16.891,8.523 C17.589,9.504 18,10.704 18,12 C18,13.296 17.589,14.496 16.891,15.476 L19.032,17.618 C20.264,16.078 21,14.125 21,12 C21,9.875 20.264,7.922 19.032,6.382 Z M4.968,6.382 C3.736,7.922 3,9.875 3,12 C3,14.125 3.736,16.078 4.968,17.618 L7.109,15.476 C6.411,14.496 6,13.296 6,12 C6,10.704 6.411,9.504 7.109,8.523 Z M17.618,19.032 L15.476,16.891 C14.496,17.589 13.296,18 12,18 C10.704,18 9.504,17.589 8.523,16.891 L6.382,19.032 C7.922,20.264 9.875,21 12,21 C14.125,21 16.078,20.264 17.618,19.032 Z"/>
</svg>
