<svg xmlns="http://www.w3.org/2000/svg" width="24" height="24" viewBox="0 0 24 24">
  <defs/>
  <path d="M4.226,19.782 C4.225,19.781 4.223,19.78 4.222,19.778 C4.22,19.777 4.219,19.775 4.218,19.774 C2.229,17.784 1,15.035 1,12 C1,5.925 5.925,1 12,1 C18.075,1 23,5.925 23,12 C23,18.075 18.075,23 12,23 C8.965,23 6.216,21.771 4.226,19.782 Z M19.031,6.381 L16.17,9.241 C16.695,10.032 17,10.98 17,12 C17,13.02 16.695,13.968 16.17,14.759 L19.031,17.619 C20.263,16.079 21,14.126 21,12 C21,9.874 20.263,7.921 19.031,6.381 Z M4.968,6.382 C3.736,7.922 3,9.875 3,12 C3,14.125 3.736,16.078 4.968,17.618 L7.828,14.757 C7.305,13.967 7,13.019 7,12 C7,10.981 7.305,10.033 7.828,9.243 Z M6.382,4.968 L9.243,7.828 C10.033,7.305 10.981,7 12,7 C13.018,7 13.966,7.304 14.756,7.827 L17.616,4.967 C16.077,3.736 14.124,3 12,3 C9.875,3 7.922,3.736 6.382,4.968 Z M17.616,19.033 L14.756,16.173 C13.966,16.695 13.018,17 12,17 C10.981,17 10.033,16.695 9.243,16.172 L6.382,19.032 C7.922,20.264 9.875,21 12,21 C14.124,21 16.077,20.264 17.616,19.033 Z M12,9 C10.343,9 9,10.343 9,12 C9,13.657 10.343,15 12,15 C13.657,15 15,13.657 15,12 C15,10.343 13.657,9 12,9 Z"/>
</svg>
