<svg xmlns="http://www.w3.org/2000/svg" width="24" height="24" viewBox="0 0 24 24">
  <defs/>
  <path d="M5,12 C5,8.134 8.134,5 12,5 C15.866,5 19,8.134 19,12 C19,14.792 17.365,17.203 15,18.326 L15,20 C15,21.657 13.657,23 12,23 C10.343,23 9,21.657 9,20 L9,18.326 C6.635,17.203 5,14.792 5,12 Z M12,7 C9.239,7 7,9.239 7,12 C7,14.761 9.239,17 12,17 C14.761,17 17,14.761 17,12 C17,9.239 14.761,7 12,7 Z M20,12 C20,11.448 20.448,11 21,11 L22,11 C22.552,11 23,11.448 23,12 C23,12.552 22.552,13 22,13 L21,13 C20.448,13 20,12.552 20,12 Z M12,1 C12.552,1 13,1.448 13,2 L13,3 C13,3.552 12.552,4 12,4 C11.448,4 11,3.552 11,3 L11,2 C11,1.448 11.448,1 12,1 Z M1,12 C1,11.448 1.448,11 2,11 L3,11 C3.552,11 4,11.448 4,12 C4,12.552 3.552,13 3,13 L2,13 C1.448,13 1,12.552 1,12 Z M19.807,4.193 C20.198,4.583 20.198,5.217 19.807,5.607 L19.207,6.207 C18.816,6.598 18.183,6.598 17.793,6.207 C17.402,5.816 17.402,5.183 17.793,4.793 L18.393,4.193 C18.784,3.802 19.417,3.802 19.807,4.193 Z M4.193,4.193 C4.583,3.802 5.216,3.802 5.607,4.193 L6.207,4.793 C6.598,5.183 6.598,5.817 6.207,6.207 C5.817,6.598 5.183,6.598 4.793,6.207 L4.193,5.607 C3.802,5.216 3.802,4.583 4.193,4.193 Z M11,18.929 L11,20 C11,20.552 11.448,21 12,21 C12.552,21 13,20.552 13,20 L13,18.929 C12.673,18.976 12.34,19 12,19 C11.66,19 11.327,18.976 11,18.929 Z"/>
</svg>
