<svg xmlns="http://www.w3.org/2000/svg" width="24" height="24" viewBox="0 0 24 24">
  <defs/>
  <path d="M8.459,1 C8.472,1 8.484,1 8.494,1 L14.25,1 C14.578,1 14.885,1.161 15.071,1.431 C15.258,1.7 15.301,2.044 15.186,2.351 L13.443,7 L19.154,7 C19.418,7 19.679,7 19.89,7.019 C20.08,7.036 20.466,7.08 20.791,7.354 C21.155,7.662 21.351,8.123 21.319,8.599 C21.292,9.022 21.056,9.331 20.935,9.48 C20.803,9.645 20.621,9.833 20.438,10.023 L8.219,22.694 C7.899,23.027 7.393,23.096 6.995,22.863 C6.596,22.63 6.409,22.155 6.542,21.713 L9.155,13 L4.262,13 C4.076,13 3.874,13 3.704,12.985 C3.526,12.968 3.229,12.925 2.949,12.729 C2.611,12.493 2.385,12.127 2.325,11.719 C2.275,11.381 2.369,11.096 2.434,10.929 C2.496,10.77 2.586,10.59 2.67,10.423 C2.675,10.414 2.679,10.405 2.684,10.395 L6.884,1.995 C6.888,1.986 6.894,1.976 6.899,1.964 C6.955,1.85 7.07,1.613 7.259,1.428 C7.418,1.273 7.609,1.155 7.819,1.082 C8.069,0.996 8.332,0.999 8.459,1 Z M8.618,3 L4.618,11 L10.5,11 C10.816,11 11.113,11.15 11.302,11.403 C11.491,11.657 11.548,11.985 11.457,12.288 L9.642,18.337 L18.646,9 L12,9 C11.672,9 11.364,8.839 11.178,8.57 C10.991,8.3 10.948,7.956 11.063,7.649 L12.807,3 Z"/>
</svg>
