<svg xmlns="http://www.w3.org/2000/svg" width="24" height="24" viewBox="0 0 24 24">
  <defs/>
  <path d="M5,12 C5,8.134 8.134,5 12,5 C15.866,5 19,8.134 19,12 C19,14.153 18.027,16.079 16.5,17.362 L16.5,18.838 C16.5,19.366 16.5,19.82 16.469,20.195 C16.437,20.59 16.366,20.984 16.173,21.362 C15.885,21.927 15.427,22.385 14.862,22.673 C14.484,22.866 14.09,22.937 13.695,22.969 C13.321,23 12.866,23 12.339,23 L11.661,23 C11.134,23 10.679,23 10.305,22.969 C9.91,22.937 9.516,22.866 9.138,22.673 C8.574,22.385 8.115,21.927 7.827,21.362 C7.634,20.984 7.563,20.59 7.531,20.195 C7.5,19.82 7.5,19.366 7.5,18.838 L7.5,17.362 C5.973,16.079 5,14.153 5,12 Z M12,7 C9.239,7 7,9.239 7,12 C7,13.672 7.82,15.153 9.084,16.062 C9.345,16.25 9.5,16.552 9.5,16.874 L9.5,18.8 C9.5,19.377 9.501,19.749 9.524,20.032 C9.546,20.304 9.584,20.404 9.609,20.454 C9.705,20.642 9.858,20.795 10.046,20.891 C10.095,20.916 10.196,20.954 10.468,20.976 C10.751,20.999 11.123,21 11.7,21 L12.3,21 C12.877,21 13.249,20.999 13.532,20.976 C13.804,20.954 13.905,20.916 13.954,20.891 C14.142,20.795 14.295,20.642 14.391,20.454 C14.416,20.404 14.454,20.304 14.476,20.032 C14.499,19.749 14.5,19.377 14.5,18.8 L14.5,16.874 C14.5,16.552 14.655,16.25 14.916,16.062 C16.18,15.153 17,13.672 17,12 C17,9.239 14.761,7 12,7 Z M9,13.5 C9,12.948 9.448,12.5 10,12.5 L14,12.5 C14.552,12.5 15,12.948 15,13.5 C15,14.052 14.552,14.5 14,14.5 L13,14.5 L13,18.5 C13,19.052 12.552,19.5 12,19.5 C11.448,19.5 11,19.052 11,18.5 L11,14.5 L10,14.5 C9.448,14.5 9,14.052 9,13.5 Z M20,12 C20,11.448 20.448,11 21,11 L22,11 C22.552,11 23,11.448 23,12 C23,12.552 22.552,13 22,13 L21,13 C20.448,13 20,12.552 20,12 Z M12,1 C12.552,1 13,1.448 13,2 L13,3 C13,3.552 12.552,4 12,4 C11.448,4 11,3.552 11,3 L11,2 C11,1.448 11.448,1 12,1 Z M1,12 C1,11.448 1.448,11 2,11 L3,11 C3.552,11 4,11.448 4,12 C4,12.552 3.552,13 3,13 L2,13 C1.448,13 1,12.552 1,12 Z M19.807,4.193 C20.198,4.583 20.198,5.217 19.807,5.607 L19.207,6.207 C18.816,6.598 18.183,6.598 17.793,6.207 C17.402,5.816 17.402,5.183 17.793,4.793 L18.393,4.193 C18.784,3.802 19.417,3.802 19.807,4.193 Z M4.193,4.193 C4.583,3.802 5.216,3.802 5.607,4.193 L6.207,4.793 C6.598,5.183 6.598,5.817 6.207,6.207 C5.817,6.598 5.183,6.598 4.793,6.207 L4.193,5.607 C3.802,5.216 3.802,4.583 4.193,4.193 Z"/>
</svg>
