<svg xmlns="http://www.w3.org/2000/svg" width="24" height="24" viewBox="0 0 24 24">
  <defs/>
  <path d="M4,9 C4,4.582 7.582,1 12,1 C16.418,1 20,4.582 20,9 C20,11.963 18.39,14.547 16,15.929 L16,16.032 C16,16.471 16,16.849 15.979,17.162 C15.956,17.492 15.907,17.822 15.772,18.148 C15.467,18.883 14.883,19.467 14.148,19.772 C13.822,19.907 13.492,19.956 13.162,19.979 C12.849,20 12.471,20 12.032,20 L11.968,20 C11.529,20 11.151,20 10.838,19.979 C10.508,19.956 10.178,19.907 9.852,19.772 C9.117,19.467 8.533,18.883 8.228,18.148 C8.093,17.822 8.044,17.492 8.021,17.162 C8,16.849 8,16.471 8,16.032 L8,15.929 C5.61,14.547 4,11.963 4,9 Z M12,3 C8.686,3 6,5.686 6,9 C6,11.392 7.4,13.459 9.429,14.423 C9.778,14.589 10,14.94 10,15.326 L10,16 C10,16.48 10,16.789 10.017,17.026 C10.032,17.254 10.059,17.341 10.076,17.383 C10.178,17.628 10.372,17.822 10.617,17.924 C10.659,17.941 10.746,17.968 10.974,17.983 C11.211,18 11.52,18 12,18 C12.48,18 12.789,18 13.026,17.983 C13.254,17.968 13.341,17.941 13.383,17.924 C13.628,17.822 13.822,17.628 13.924,17.383 C13.941,17.341 13.968,17.254 13.983,17.026 C14,16.789 14,16.48 14,16 L14,15.326 C14,14.94 14.222,14.589 14.571,14.423 C16.6,13.459 18,11.392 18,9 C18,5.686 15.314,3 12,3 Z M9,10 C9,9.448 9.448,9 10,9 L14,9 C14.552,9 15,9.448 15,10 C15,10.552 14.552,11 14,11 L13,11 L13,16 C13,16.552 12.552,17 12,17 C11.448,17 11,16.552 11,16 L11,11 L10,11 C9.448,11 9,10.552 9,10 Z M8.5,22 C8.5,21.448 8.948,21 9.5,21 L14.5,21 C15.052,21 15.5,21.448 15.5,22 C15.5,22.552 15.052,23 14.5,23 L9.5,23 C8.948,23 8.5,22.552 8.5,22 Z"/>
</svg>
