<svg xmlns="http://www.w3.org/2000/svg" width="24" height="24" viewBox="0 0 24 24">
  <defs/>
  <path d="M8,17.124 C5.31,15.673 3.5,12.733 3.5,9.5 C3.5,4.806 7.306,1 12,1 C16.694,1 20.5,4.806 20.5,9.5 C20.5,12.733 18.69,15.673 16,17.124 L16,19.032 C16,19.471 16,19.849 15.979,20.162 C15.956,20.492 15.907,20.822 15.772,21.148 C15.467,21.883 14.883,22.467 14.148,22.772 C13.822,22.907 13.492,22.956 13.162,22.979 C12.849,23 12.471,23 12.032,23 L11.968,23 C11.529,23 11.151,23 10.838,22.979 C10.508,22.956 10.178,22.907 9.852,22.772 C9.117,22.467 8.533,21.883 8.228,21.148 C8.093,20.822 8.044,20.492 8.021,20.162 C8,19.849 8,19.471 8,19.032 Z M12,3 C8.41,3 5.5,5.91 5.5,9.5 C5.5,12.11 7.034,14.457 9.217,15.5 L14.783,15.5 C16.966,14.457 18.5,12.11 18.5,9.5 C18.5,5.91 15.59,3 12,3 Z M14,17.5 L10,17.5 L10,19 C10,19.48 10,19.789 10.017,20.026 C10.032,20.254 10.059,20.341 10.076,20.383 C10.178,20.628 10.372,20.822 10.617,20.924 C10.659,20.941 10.746,20.968 10.974,20.983 C11.211,21 11.52,21 12,21 C12.48,21 12.789,21 13.026,20.983 C13.254,20.968 13.341,20.941 13.383,20.924 C13.628,20.822 13.822,20.628 13.924,20.383 C13.941,20.341 13.968,20.254 13.983,20.026 C14,19.789 14,19.48 14,19 Z"/>
</svg>
