<svg xmlns="http://www.w3.org/2000/svg" width="24" height="24" viewBox="0 0 24 24">
  <defs/>
  <path d="M17,8 C16.448,8 16,7.552 16,7 C16,6.448 16.448,6 17,6 L21,6 C21.552,6 22,6.448 22,7 L22,11 C22,11.552 21.552,12 21,12 C20.448,12 20,11.552 20,11 L20,9.414 L16.273,13.141 C16.267,13.147 16.262,13.152 16.256,13.158 C16.172,13.242 16.072,13.343 15.976,13.424 C15.865,13.518 15.696,13.644 15.464,13.719 C15.162,13.817 14.838,13.817 14.536,13.719 C14.304,13.644 14.135,13.518 14.024,13.424 C13.928,13.343 13.828,13.242 13.744,13.158 C13.738,13.152 13.733,13.147 13.727,13.141 L12,11.414 L7.707,15.707 C7.317,16.098 6.683,16.098 6.293,15.707 C5.902,15.317 5.902,14.683 6.293,14.293 L10.727,9.859 C10.733,9.853 10.738,9.848 10.744,9.842 C10.828,9.758 10.928,9.657 11.024,9.576 C11.135,9.482 11.304,9.356 11.536,9.281 C11.838,9.183 12.162,9.183 12.464,9.281 C12.696,9.356 12.865,9.482 12.976,9.576 C13.072,9.657 13.172,9.758 13.256,9.842 C13.262,9.848 13.267,9.853 13.273,9.859 L15,11.586 L18.586,8 Z M3,2 C3.552,2 4,2.448 4,3 L4,19.4 C4,19.697 4.001,19.859 4.01,19.975 C4.011,19.98 4.011,19.984 4.011,19.989 C4.016,19.989 4.02,19.989 4.025,19.99 C4.141,19.999 4.303,20 4.6,20 L21,20 C21.552,20 22,20.448 22,21 C22,21.552 21.552,22 21,22 L4.564,22 C4.313,22 4.069,22 3.862,21.983 C3.633,21.964 3.363,21.92 3.092,21.782 L3.543,20.897 Z"/>
</svg>
