<svg xmlns="http://www.w3.org/2000/svg" width="24" height="24" viewBox="0 0 24 24">
  <defs/>
  <path d="M11.337,5.863 C11.755,5.657 12.245,5.657 12.663,5.863 C13.03,6.044 13.224,6.361 13.318,6.526 C13.418,6.703 13.521,6.93 13.624,7.156 C13.629,7.166 13.634,7.177 13.639,7.188 L17.91,16.586 C18.139,17.089 17.917,17.682 17.414,17.91 C16.911,18.139 16.318,17.917 16.09,17.414 L14.538,14 L9.462,14 L7.91,17.414 C7.682,17.917 7.089,18.139 6.586,17.91 C6.083,17.682 5.861,17.089 6.09,16.586 L10.361,7.188 C10.366,7.177 10.371,7.166 10.376,7.156 C10.479,6.93 10.582,6.703 10.682,6.526 C10.776,6.361 10.97,6.044 11.337,5.863 Z M2,21 C2,20.448 2.448,20 3,20 L21,20 C21.552,20 22,20.448 22,21 C22,21.552 21.552,22 21,22 L3,22 C2.448,22 2,21.552 2,21 Z M2,3 C2,2.448 2.448,2 3,2 L21,2 C21.552,2 22,2.448 22,3 C22,3.552 21.552,4 21,4 L3,4 C2.448,4 2,3.552 2,3 Z M10.371,12 L13.629,12 L12,8.417 Z"/>
</svg>
