<svg xmlns="http://www.w3.org/2000/svg" width="24" height="24" viewBox="0 0 24 24">
  <defs/>
  <path d="M2,6 C2,3.791 3.791,2 6,2 L18,2 C20.209,2 22,3.791 22,6 L22,14.988 C22,14.997 22,15.005 22,15.013 L22,18 C22,20.209 20.209,22 18,22 L6,22 C3.791,22 2,20.209 2,18 L2,9.012 C2,9.003 2,8.995 2,8.987 Z M4,10.943 L4,18 C4,19.105 4.896,20 6,20 L18,20 C19.105,20 20,19.105 20,18 L20,15.515 L14.108,11.306 L11.007,14.408 C10.488,14.926 9.671,14.994 9.074,14.568 Z M20,13.057 L20,6 C20,4.895 19.105,4 18,4 L6,4 C4.896,4 4,4.895 4,6 L4,8.485 L9.892,12.694 L12.993,9.592 C13.512,9.074 14.329,9.006 14.926,9.432 Z"/>
</svg>
