<svg xmlns="http://www.w3.org/2000/svg" width="24" height="24" viewBox="0 0 24 24">
  <defs/>
  <path d="M16.241,2 L16.241,2 C17.046,2 17.711,2 18.252,2.044 C18.814,2.09 19.331,2.189 19.816,2.436 C20.569,2.819 21.181,3.431 21.564,4.184 C21.811,4.669 21.91,5.186 21.956,5.748 C22,6.289 22,6.954 22,7.759 L22,16.241 C22,17.046 22,17.711 21.956,18.252 C21.91,18.814 21.811,19.331 21.564,19.816 C21.181,20.569 20.569,21.181 19.816,21.564 C19.331,21.811 18.814,21.91 18.252,21.956 C17.711,22 17.046,22 16.241,22 L7.759,22 C6.954,22 6.289,22 5.748,21.956 C5.186,21.91 4.669,21.811 4.184,21.564 C3.431,21.181 2.819,20.569 2.436,19.816 C2.189,19.331 2.09,18.814 2.044,18.252 C2,17.711 2,17.046 2,16.241 L2,7.753 C2,7.506 2,7.272 2.001,7.051 C1.999,7.012 2,6.973 2.002,6.935 C2.006,6.486 2.016,6.092 2.044,5.748 C2.09,5.186 2.189,4.669 2.436,4.184 C2.819,3.431 3.431,2.819 4.184,2.436 C4.669,2.189 5.186,2.09 5.748,2.044 C6.289,2 6.954,2 7.759,2 L16.241,2 Z M4,9.414 L4,16.2 C4,17.057 4.001,17.639 4.038,18.089 C4.073,18.527 4.138,18.752 4.218,18.908 C4.41,19.284 4.716,19.59 5.092,19.782 C5.248,19.862 5.473,19.927 5.911,19.962 C6.361,19.999 6.943,20 7.8,20 L16.2,20 C17.057,20 17.639,19.999 18.089,19.962 C18.527,19.927 18.752,19.862 18.908,19.782 C19.284,19.59 19.59,19.284 19.782,18.908 C19.862,18.752 19.927,18.527 19.962,18.089 C19.999,17.639 20,17.057 20,16.2 L20,7.8 C20,6.943 19.999,6.361 19.962,5.911 C19.927,5.473 19.862,5.248 19.782,5.092 C19.59,4.716 19.284,4.41 18.908,4.218 C18.752,4.138 18.527,4.073 18.089,4.038 C17.639,4.001 17.057,4 16.2,4 L7.8,4 C6.943,4 6.361,4.001 5.911,4.038 C5.473,4.073 5.248,4.138 5.092,4.218 C4.716,4.41 4.41,4.716 4.218,5.092 C4.138,5.248 4.073,5.473 4.038,5.911 C4.021,6.109 4.012,6.332 4.007,6.593 L8,10.586 L9.727,8.859 C9.733,8.853 9.738,8.848 9.744,8.842 C9.828,8.758 9.928,8.657 10.024,8.576 C10.135,8.482 10.304,8.356 10.536,8.281 C10.838,8.183 11.162,8.183 11.464,8.281 C11.696,8.356 11.865,8.482 11.976,8.576 C12.072,8.657 12.172,8.758 12.256,8.842 C12.262,8.848 12.267,8.853 12.273,8.859 L16,12.586 L16,11 C16,10.448 16.448,10 17,10 C17.552,10 18,10.448 18,11 L18,15 C18,15.552 17.552,16 17,16 L13,16 C12.448,16 12,15.552 12,15 C12,14.448 12.448,14 13,14 L14.586,14 L11,10.414 L9.273,12.141 C9.267,12.147 9.262,12.152 9.256,12.158 C9.172,12.242 9.072,12.343 8.976,12.424 C8.865,12.518 8.696,12.644 8.464,12.719 C8.162,12.817 7.838,12.817 7.536,12.719 C7.304,12.644 7.135,12.518 7.024,12.424 C6.928,12.343 6.828,12.242 6.744,12.158 C6.738,12.152 6.733,12.147 6.727,12.141 Z"/>
</svg>
