<svg xmlns="http://www.w3.org/2000/svg" width="24" height="24" viewBox="0 0 24 24">
  <defs/>
  <path d="M3,2 C3.552,2 4,2.448 4,3 L4,19.4 C4,19.697 4.001,19.859 4.01,19.975 C4.011,19.98 4.011,19.984 4.011,19.989 C4.016,19.989 4.02,19.989 4.025,19.99 C4.141,19.999 4.303,20 4.6,20 L21,20 C21.552,20 22,20.448 22,21 C22,21.552 21.552,22 21,22 L4.564,22 C4.313,22 4.069,22 3.862,21.983 C3.633,21.964 3.363,21.92 3.092,21.782 L3.543,20.897 Z M6.316,7.27 C6.719,6.893 7.352,6.913 7.73,7.316 L11.545,11.388 L14.668,9.767 C14.679,9.761 14.691,9.755 14.705,9.747 C14.839,9.676 15.117,9.527 15.426,9.499 C15.686,9.476 15.947,9.521 16.185,9.629 C16.467,9.758 16.68,9.991 16.782,10.103 C16.793,10.114 16.803,10.125 16.811,10.134 L20.73,14.316 C21.107,14.719 21.087,15.352 20.684,15.73 C20.281,16.107 19.648,16.087 19.27,15.684 L15.455,11.612 L12.332,13.233 C12.321,13.239 12.309,13.245 12.295,13.253 C12.161,13.324 11.883,13.473 11.574,13.501 C11.314,13.524 11.053,13.479 10.815,13.371 C10.533,13.242 10.32,13.009 10.218,12.897 C10.207,12.886 10.197,12.875 10.189,12.866 L6.27,8.684 C5.893,8.281 5.913,7.648 6.316,7.27 Z"/>
</svg>
