<svg xmlns="http://www.w3.org/2000/svg" width="24" height="24" viewBox="0 0 24 24">
  <defs/>
  <path d="M16.241,2 L16.241,2 C17.046,2 17.711,2 18.252,2.044 C18.814,2.09 19.331,2.189 19.816,2.436 C20.569,2.819 21.181,3.431 21.564,4.184 C21.811,4.669 21.91,5.186 21.956,5.748 C22,6.289 22,6.954 22,7.759 L22,8.987 C22,8.995 22,9.003 22,9.012 L22,16.241 C22,17.046 22,17.711 21.956,18.252 C21.91,18.814 21.811,19.331 21.564,19.816 C21.181,20.569 20.569,21.181 19.816,21.564 C19.331,21.811 18.814,21.91 18.252,21.956 C17.711,22 17.046,22 16.241,22 L7.759,22 C6.954,22 6.289,22 5.748,21.956 C5.186,21.91 4.669,21.811 4.184,21.564 C3.431,21.181 2.82,20.569 2.436,19.816 C2.189,19.331 2.09,18.814 2.044,18.252 C2,17.711 2,17.046 2,16.241 L2,15.013 Q2,15.001 2,14.988 L2,7.759 C2,6.954 2,6.289 2.044,5.748 C2.09,5.186 2.189,4.669 2.436,4.184 C2.82,3.431 3.431,2.819 4.184,2.436 C4.669,2.189 5.186,2.09 5.748,2.044 C6.289,2 6.954,2 7.759,2 L16.241,2 Z M4,15.515 L4,16.2 C4,17.057 4.001,17.639 4.038,18.089 C4.073,18.527 4.138,18.752 4.218,18.908 C4.41,19.284 4.716,19.59 5.092,19.782 C5.248,19.862 5.473,19.927 5.911,19.962 C6.361,19.999 6.944,20 7.8,20 L16.2,20 C17.057,20 17.639,19.999 18.089,19.962 C18.528,19.927 18.752,19.862 18.908,19.782 C19.284,19.59 19.59,19.284 19.782,18.908 C19.862,18.752 19.927,18.527 19.962,18.089 C19.999,17.639 20,17.057 20,16.2 L20,10.943 L15.133,14.42 C15.127,14.424 15.122,14.428 15.116,14.432 C15.033,14.491 14.932,14.564 14.836,14.621 C14.724,14.69 14.561,14.775 14.35,14.818 C14.073,14.873 13.785,14.849 13.521,14.749 C13.32,14.672 13.173,14.561 13.073,14.476 C12.988,14.403 12.9,14.314 12.828,14.242 C12.823,14.237 12.818,14.233 12.814,14.228 L9.892,11.306 Z M20,8.485 L20,7.8 C20,6.943 19.999,6.361 19.962,5.911 C19.927,5.473 19.862,5.248 19.782,5.092 C19.59,4.716 19.284,4.41 18.908,4.218 C18.752,4.138 18.528,4.073 18.089,4.038 C17.639,4.001 17.057,4 16.2,4 L7.8,4 C6.944,4 6.361,4.001 5.911,4.038 C5.473,4.073 5.248,4.138 5.092,4.218 C4.716,4.41 4.41,4.716 4.218,5.092 C4.138,5.248 4.073,5.473 4.038,5.911 C4.001,6.361 4,6.943 4,7.8 L4,13.057 L8.867,9.58 C8.873,9.576 8.878,9.572 8.884,9.568 C8.967,9.509 9.068,9.436 9.164,9.379 C9.277,9.31 9.44,9.225 9.65,9.183 C9.928,9.127 10.215,9.151 10.48,9.251 C10.68,9.328 10.827,9.439 10.927,9.524 C11.012,9.597 11.1,9.686 11.172,9.758 C11.177,9.763 11.182,9.767 11.186,9.772 L14.108,12.694 Z"/>
</svg>
