<svg xmlns="http://www.w3.org/2000/svg" width="24" height="24" viewBox="0 0 24 24">
  <defs/>
  <path d="M16.241,2 L16.241,2 C17.046,2 17.711,2 18.252,2.044 C18.814,2.09 19.331,2.189 19.816,2.436 C20.569,2.819 21.181,3.431 21.564,4.184 C21.811,4.669 21.91,5.186 21.956,5.748 C22,6.289 22,6.954 22,7.759 L22,16.241 C22,17.046 22,17.711 21.956,18.252 C21.91,18.814 21.811,19.331 21.564,19.816 C21.181,20.569 20.569,21.181 19.816,21.564 C19.331,21.811 18.814,21.91 18.252,21.956 C17.711,22 17.046,22 16.241,22 L7.759,22 C6.954,22 6.289,22 5.748,21.956 C5.186,21.91 4.669,21.811 4.184,21.564 C3.431,21.181 2.819,20.569 2.436,19.816 C2.189,19.331 2.09,18.814 2.044,18.252 C2.016,17.908 2.006,17.514 2.002,17.065 C2,17.027 1.999,16.988 2.001,16.949 C2,16.728 2,16.494 2,16.247 L2,7.759 C2,6.954 2,6.289 2.044,5.748 C2.09,5.186 2.189,4.669 2.436,4.184 C2.819,3.431 3.431,2.819 4.184,2.436 C4.669,2.189 5.186,2.09 5.748,2.044 C6.289,2 6.954,2 7.759,2 L16.241,2 Z M4.007,17.407 C4.012,17.668 4.021,17.891 4.038,18.089 C4.073,18.527 4.138,18.752 4.218,18.908 C4.41,19.284 4.716,19.59 5.092,19.782 C5.248,19.862 5.473,19.927 5.911,19.962 C6.361,19.999 6.943,20 7.8,20 L16.2,20 C17.057,20 17.639,19.999 18.089,19.962 C18.527,19.927 18.752,19.862 18.908,19.782 C19.284,19.59 19.59,19.284 19.782,18.908 C19.862,18.752 19.927,18.527 19.962,18.089 C19.999,17.639 20,17.057 20,16.2 L20,7.8 C20,6.943 19.999,6.361 19.962,5.911 C19.927,5.473 19.862,5.248 19.782,5.092 C19.59,4.716 19.284,4.41 18.908,4.218 C18.752,4.138 18.527,4.073 18.089,4.038 C17.639,4.001 17.057,4 16.2,4 L7.8,4 C6.943,4 6.361,4.001 5.911,4.038 C5.473,4.073 5.248,4.138 5.092,4.218 C4.716,4.41 4.41,4.716 4.218,5.092 C4.138,5.248 4.073,5.473 4.038,5.911 C4.001,6.361 4,6.943 4,7.8 L4,14.586 L6.727,11.859 C6.733,11.853 6.738,11.848 6.744,11.842 C6.828,11.758 6.928,11.657 7.024,11.576 C7.135,11.482 7.304,11.356 7.536,11.281 C7.838,11.183 8.162,11.183 8.464,11.281 C8.696,11.356 8.865,11.482 8.976,11.576 C9.072,11.657 9.172,11.758 9.256,11.842 C9.262,11.848 9.267,11.853 9.273,11.859 L11,13.586 L14.586,10 L13,10 C12.448,10 12,9.552 12,9 C12,8.448 12.448,8 13,8 L17,8 C17.552,8 18,8.448 18,9 L18,13 C18,13.552 17.552,14 17,14 C16.448,14 16,13.552 16,13 L16,11.414 L12.273,15.141 C12.267,15.147 12.262,15.152 12.256,15.158 C12.172,15.242 12.072,15.343 11.976,15.424 C11.865,15.518 11.696,15.644 11.464,15.719 C11.162,15.817 10.838,15.817 10.536,15.719 C10.304,15.644 10.135,15.518 10.024,15.424 C9.928,15.343 9.828,15.242 9.744,15.158 C9.738,15.152 9.733,15.147 9.727,15.141 L8,13.414 Z"/>
</svg>
