<svg xmlns="http://www.w3.org/2000/svg" width="24" height="24" viewBox="0 0 24 24">
  <defs/>
  <path d="M1,12 C1,5.925 5.925,1 12,1 C18.075,1 23,5.925 23,12 C23,18.075 18.075,23 12,23 C5.925,23 1,18.075 1,12 Z M12,3 C7.029,3 3,7.029 3,12 C3,16.971 7.029,21 12,21 C16.971,21 21,16.971 21,12 C21,7.029 16.971,3 12,3 Z M18.707,9.293 C19.098,9.683 19.098,10.317 18.707,10.707 L15.273,14.141 C15.267,14.147 15.262,14.152 15.256,14.158 C15.172,14.242 15.072,14.343 14.976,14.424 C14.865,14.518 14.696,14.644 14.464,14.719 C14.162,14.817 13.838,14.817 13.536,14.719 C13.304,14.644 13.135,14.518 13.024,14.424 C12.928,14.343 12.828,14.242 12.744,14.158 C12.738,14.152 12.733,14.147 12.727,14.141 L10,11.414 L6.707,14.707 C6.317,15.098 5.683,15.098 5.293,14.707 C4.902,14.317 4.902,13.683 5.293,13.293 L8.727,9.859 C8.733,9.853 8.738,9.848 8.744,9.842 C8.828,9.758 8.928,9.657 9.024,9.576 C9.135,9.482 9.304,9.356 9.536,9.281 C9.838,9.183 10.162,9.183 10.464,9.281 C10.696,9.356 10.865,9.482 10.976,9.576 C11.072,9.657 11.172,9.758 11.256,9.842 C11.262,9.848 11.267,9.853 11.273,9.859 L14,12.586 L17.293,9.293 C17.683,8.902 18.317,8.902 18.707,9.293 Z"/>
</svg>
