<svg xmlns="http://www.w3.org/2000/svg" width="24" height="24" viewBox="0 0 24 24">
  <defs/>
  <path d="M6.293,6.293 C6.683,5.902 7.317,5.902 7.707,6.293 L12,10.586 L13.727,8.859 C13.733,8.853 13.738,8.848 13.744,8.842 C13.828,8.758 13.928,8.657 14.024,8.576 C14.135,8.482 14.304,8.356 14.536,8.281 C14.838,8.183 15.162,8.183 15.464,8.281 C15.696,8.356 15.865,8.482 15.976,8.576 C16.072,8.657 16.172,8.758 16.256,8.842 C16.262,8.848 16.267,8.853 16.273,8.859 L20,12.586 L20,11 C20,10.448 20.448,10 21,10 C21.552,10 22,10.448 22,11 L22,15 C22,15.552 21.552,16 21,16 L17,16 C16.448,16 16,15.552 16,15 C16,14.448 16.448,14 17,14 L18.586,14 L15,10.414 L13.273,12.141 C13.267,12.147 13.262,12.152 13.256,12.158 C13.172,12.242 13.072,12.343 12.976,12.424 C12.865,12.518 12.696,12.644 12.464,12.719 C12.162,12.817 11.838,12.817 11.536,12.719 C11.304,12.644 11.135,12.518 11.024,12.424 C10.928,12.343 10.828,12.242 10.744,12.158 C10.738,12.152 10.733,12.147 10.727,12.141 L6.293,7.707 C5.902,7.317 5.902,6.683 6.293,6.293 Z M3,2 C3.552,2 4,2.448 4,3 L4,19.4 C4,19.697 4.001,19.859 4.01,19.975 C4.011,19.98 4.011,19.984 4.011,19.989 C4.016,19.989 4.02,19.989 4.025,19.99 C4.141,19.999 4.303,20 4.6,20 L21,20 C21.552,20 22,20.448 22,21 C22,21.552 21.552,22 21,22 L4.564,22 C4.313,22 4.069,22 3.862,21.983 C3.633,21.964 3.363,21.92 3.092,21.782 L3.543,20.897 Z"/>
</svg>
