<svg xmlns="http://www.w3.org/2000/svg" width="24" height="24" viewBox="0 0 24 24">
  <defs/>
  <path d="M3,2 C3.552,2 4,2.448 4,3 L4,19.4 C4,19.697 4.001,19.859 4.01,19.975 C4.011,19.98 4.011,19.984 4.011,19.989 C4.016,19.989 4.02,19.989 4.025,19.99 C4.141,19.999 4.303,20 4.6,20 L21,20 C21.552,20 22,20.448 22,21 C22,21.552 21.552,22 21,22 L4.564,22 C4.313,22 4.069,22 3.862,21.983 C3.633,21.964 3.363,21.92 3.092,21.782 L3.543,20.897 Z M20.684,7.27 C21.087,7.648 21.107,8.281 20.73,8.684 L16.811,12.866 C16.803,12.875 16.793,12.886 16.782,12.897 C16.68,13.009 16.467,13.242 16.185,13.371 C15.947,13.479 15.686,13.524 15.426,13.501 C15.117,13.473 14.839,13.324 14.705,13.253 C14.691,13.245 14.679,13.239 14.668,13.233 L11.545,11.612 L7.73,15.684 C7.352,16.087 6.719,16.107 6.316,15.73 C5.913,15.352 5.893,14.719 6.27,14.316 L10.189,10.134 C10.197,10.125 10.207,10.114 10.218,10.103 C10.32,9.991 10.533,9.758 10.815,9.629 C11.053,9.521 11.314,9.476 11.574,9.499 C11.883,9.527 12.161,9.676 12.295,9.747 C12.309,9.755 12.321,9.761 12.332,9.767 L15.455,11.388 L19.27,7.316 C19.648,6.913 20.281,6.893 20.684,7.27 Z"/>
</svg>
