<svg xmlns="http://www.w3.org/2000/svg" width="24" height="24" viewBox="0 0 24 24">
  <defs/>
  <path d="M1,12 C1,5.925 5.925,1 12,1 C18.075,1 23,5.925 23,12 C23,18.075 18.075,23 12,23 C5.925,23 1,18.075 1,12 Z M12,3 C7.029,3 3,7.029 3,12 C3,16.971 7.029,21 12,21 C16.971,21 21,16.971 21,12 C21,7.029 16.971,3 12,3 Z M5.293,9.293 C5.683,8.902 6.317,8.902 6.707,9.293 L10,12.586 L12.727,9.859 C12.733,9.853 12.738,9.848 12.744,9.842 C12.828,9.758 12.928,9.657 13.024,9.576 C13.135,9.482 13.304,9.356 13.536,9.281 C13.838,9.183 14.162,9.183 14.464,9.281 C14.696,9.356 14.865,9.482 14.976,9.576 C15.072,9.657 15.172,9.758 15.256,9.842 C15.262,9.848 15.267,9.853 15.273,9.859 L18.707,13.293 C19.098,13.683 19.098,14.317 18.707,14.707 C18.317,15.098 17.683,15.098 17.293,14.707 L14,11.414 L11.273,14.141 C11.267,14.147 11.262,14.152 11.256,14.158 C11.172,14.242 11.072,14.343 10.976,14.424 C10.865,14.518 10.696,14.644 10.464,14.719 C10.162,14.817 9.838,14.817 9.536,14.719 C9.304,14.644 9.135,14.518 9.024,14.424 C8.928,14.343 8.828,14.242 8.744,14.158 C8.738,14.152 8.733,14.147 8.727,14.141 L5.293,10.707 C4.902,10.317 4.902,9.683 5.293,9.293 Z"/>
</svg>
