<svg xmlns="http://www.w3.org/2000/svg" width="24" height="24" viewBox="0 0 24 24">
  <defs/>
  <path d="M14,7 C14,6.448 14.448,6 15,6 L17,6 C20.314,6 23,8.686 23,12 C23,15.314 20.314,18 17,18 L15,18 C14.448,18 14,17.552 14,17 C14,16.448 14.448,16 15,16 L17,16 C19.209,16 21,14.209 21,12 C21,9.791 19.209,8 17,8 L15,8 C14.448,8 14,7.552 14,7 Z M7,8 C4.791,8 3,9.791 3,12 C3,14.209 4.791,16 7,16 L9,16 C9.552,16 10,16.448 10,17 C10,17.552 9.552,18 9,18 L7,18 C3.686,18 1,15.314 1,12 C1,8.686 3.686,6 7,6 L9,6 C9.552,6 10,6.448 10,7 C10,7.552 9.552,8 9,8 Z M6,12 C6,11.448 6.448,11 7,11 L17,11 C17.552,11 18,11.448 18,12 C18,12.552 17.552,13 17,13 L7,13 C6.448,13 6,12.552 6,12 Z"/>
</svg>
