<svg xmlns="http://www.w3.org/2000/svg" width="24" height="24" viewBox="0 0 24 24">
  <defs/>
  <path d="M7.05,11.293 C7.441,11.683 7.441,12.317 7.05,12.707 L4.929,14.828 C3.757,16 3.757,17.899 4.929,19.071 C6.101,20.243 8,20.243 9.172,19.071 L11.293,16.95 C11.683,16.559 12.317,16.559 12.707,16.95 C13.098,17.34 13.098,17.973 12.707,18.364 L10.586,20.485 C8.633,22.438 5.467,22.438 3.515,20.485 C1.562,18.533 1.562,15.367 3.515,13.414 L5.636,11.293 C6.027,10.902 6.66,10.902 7.05,11.293 Z M13.414,3.515 C15.367,1.562 18.533,1.562 20.485,3.515 C22.438,5.467 22.438,8.633 20.485,10.586 L18.364,12.707 C17.973,13.098 17.34,13.098 16.95,12.707 C16.559,12.317 16.559,11.683 16.95,11.293 L19.071,9.172 C20.243,8 20.243,6.101 19.071,4.929 C17.899,3.757 16,3.757 14.828,4.929 L12.707,7.05 C12.317,7.441 11.683,7.441 11.293,7.05 C10.902,6.66 10.902,6.027 11.293,5.636 Z M15,19 C15.552,19 16,19.448 16,20 L16,22 C16,22.552 15.552,23 15,23 C14.448,23 14,22.552 14,22 L14,20 C14,19.448 14.448,19 15,19 Z M19,15 C19,14.448 19.448,14 20,14 L22,14 C22.552,14 23,14.448 23,15 C23,15.552 22.552,16 22,16 L20,16 C19.448,16 19,15.552 19,15 Z M2.793,2.793 C3.183,2.402 3.817,2.402 4.207,2.793 L5.621,4.207 C6.012,4.598 6.012,5.231 5.621,5.621 C5.231,6.012 4.598,6.012 4.207,5.621 L2.793,4.207 C2.402,3.817 2.402,3.183 2.793,2.793 Z M9,1 C9.552,1 10,1.448 10,2 L10,4 C10,4.552 9.552,5 9,5 C8.448,5 8,4.552 8,4 L8,2 C8,1.448 8.448,1 9,1 Z M1,9 C1,8.448 1.448,8 2,8 L4,8 C4.552,8 5,8.448 5,9 C5,9.552 4.552,10 4,10 L2,10 C1.448,10 1,9.552 1,9 Z M18.379,18.379 C18.769,17.988 19.402,17.988 19.793,18.379 L21.207,19.793 C21.598,20.183 21.598,20.817 21.207,21.207 C20.817,21.598 20.183,21.598 19.793,21.207 L18.379,19.793 C17.988,19.402 17.988,18.769 18.379,18.379 Z"/>
</svg>
