<svg xmlns="http://www.w3.org/2000/svg" width="24" height="24" viewBox="0 0 24 24">
  <defs/>
  <path d="M14,7.778 C14,6.796 14.796,6 15.778,6 L17,6 C20.314,6 23,8.686 23,12 C23,15.314 20.314,18 17,18 L15.778,18 C14.796,18 14,17.204 14,16.222 L14,13 L8,13 C7.448,13 7,12.552 7,12 C7,11.448 7.448,11 8,11 L14,11 Z M7,8 C4.791,8 3,9.791 3,12 C3,14.209 4.791,16 7,16 L9,16 C9.552,16 10,16.448 10,17 C10,17.552 9.552,18 9,18 L7,18 C3.686,18 1,15.314 1,12 C1,8.686 3.686,6 7,6 L9,6 C9.552,6 10,6.448 10,7 C10,7.552 9.552,8 9,8 Z M16,13 L16,16 L17,16 C19.209,16 21,14.209 21,12 C21,9.791 19.209,8 17,8 L16,8 L16,11 L18,11 C18.552,11 19,11.448 19,12 C19,12.552 18.552,13 18,13 Z"/>
</svg>
