<svg xmlns="http://www.w3.org/2000/svg" width="24" height="24" viewBox="0 0 24 24">
  <defs/>
  <path d="M6.344,10.586 C6.734,10.976 6.734,11.609 6.344,12 L4.929,13.414 C3.367,14.976 3.367,17.509 4.929,19.071 C6.491,20.633 9.024,20.633 10.586,19.071 L12,17.657 C12.391,17.266 13.024,17.266 13.415,17.657 C13.805,18.047 13.805,18.681 13.415,19.071 L12,20.485 C9.657,22.828 5.858,22.828 3.515,20.485 C1.172,18.142 1.172,14.343 3.515,12 L4.929,10.586 C5.32,10.195 5.953,10.195 6.344,10.586 Z M12,3.515 C14.344,1.172 18.143,1.172 20.486,3.515 C22.829,5.858 22.829,9.657 20.486,12 L19.072,13.414 C18.681,13.805 18.048,13.805 17.657,13.414 C17.267,13.024 17.267,12.391 17.657,12 L19.072,10.586 C20.634,9.024 20.634,6.491 19.072,4.929 C17.509,3.367 14.977,3.367 13.415,4.929 L12,6.343 C11.61,6.734 10.977,6.734 10.586,6.343 C10.196,5.953 10.196,5.319 10.586,4.929 Z M16.208,7.793 C16.598,8.183 16.598,8.817 16.208,9.207 L9.208,16.207 C8.817,16.598 8.184,16.598 7.793,16.207 C7.403,15.816 7.403,15.183 7.793,14.793 L14.793,7.793 C15.184,7.402 15.817,7.402 16.208,7.793 Z"/>
</svg>
