<svg xmlns="http://www.w3.org/2000/svg" width="24" height="24" viewBox="0 0 24 24">
  <defs/>
  <path d="M12.775,2.751 C13.907,1.658 15.422,1.053 16.996,1.067 C18.569,1.08 20.074,1.711 21.186,2.824 C22.299,3.936 22.93,5.441 22.943,7.014 C22.957,8.587 22.352,10.103 21.259,11.235 L21.247,11.247 L18.247,14.247 C17.639,14.855 16.907,15.326 16.101,15.627 C15.295,15.927 14.433,16.051 13.575,15.99 C12.717,15.928 11.882,15.683 11.127,15.271 C10.372,14.858 9.715,14.288 9.199,13.599 C8.868,13.157 8.959,12.53 9.401,12.199 C9.843,11.868 10.47,11.959 10.801,12.401 C11.144,12.86 11.583,13.24 12.086,13.515 C12.589,13.79 13.146,13.954 13.718,13.995 C14.29,14.036 14.864,13.953 15.402,13.753 C15.939,13.552 16.427,13.239 16.833,12.833 L19.826,9.839 C20.551,9.086 20.952,8.078 20.943,7.032 C20.934,5.983 20.514,4.98 19.772,4.238 C19.03,3.496 18.027,3.076 16.978,3.067 C15.932,3.057 14.924,3.459 14.17,4.185 L12.455,5.889 C12.063,6.279 11.43,6.277 11.041,5.885 C10.651,5.493 10.653,4.86 11.045,4.471 L12.765,2.761 Z M7.899,8.373 C8.705,8.073 9.567,7.949 10.425,8.01 C11.283,8.072 12.118,8.317 12.873,8.729 C13.628,9.142 14.285,9.712 14.801,10.401 C15.132,10.843 15.041,11.47 14.599,11.801 C14.157,12.132 13.53,12.041 13.199,11.599 C12.856,11.14 12.417,10.76 11.914,10.485 C11.411,10.21 10.854,10.046 10.282,10.005 C9.71,9.964 9.136,10.047 8.598,10.247 C8.061,10.448 7.573,10.761 7.167,11.167 L4.174,14.161 C3.449,14.914 3.047,15.922 3.057,16.968 C3.066,18.017 3.486,19.02 4.228,19.762 C4.97,20.504 5.973,20.924 7.022,20.933 C8.068,20.942 9.076,20.541 9.829,19.816 L11.533,18.113 C11.923,17.722 12.557,17.722 12.947,18.113 C13.338,18.503 13.338,19.136 12.947,19.527 L11.237,21.237 L11.225,21.249 C10.093,22.342 8.577,22.947 7.004,22.933 C5.431,22.92 3.926,22.289 2.814,21.176 C1.701,20.064 1.07,18.559 1.057,16.986 C1.043,15.413 1.648,13.897 2.741,12.765 L2.753,12.753 L5.753,9.753 C6.361,9.145 7.093,8.674 7.899,8.373 Z"/>
</svg>
