<svg xmlns="http://www.w3.org/2000/svg" width="24" height="24" viewBox="0 0 24 24">
  <defs/>
  <path d="M9,12 C9,8.686 11.686,6 15,6 L17,6 C20.314,6 23,8.686 23,12 C23,15.314 20.314,18 17,18 L16.5,18 C15.948,18 15.5,17.552 15.5,17 C15.5,16.448 15.948,16 16.5,16 L17,16 C19.209,16 21,14.209 21,12 C21,9.791 19.209,8 17,8 L15,8 C12.791,8 11,9.791 11,12 C11,12.552 10.552,13 10,13 C9.448,13 9,12.552 9,12 Z M7,8 C4.791,8 3,9.791 3,12 C3,14.209 4.791,16 7,16 L9,16 C11.209,16 13,14.209 13,12 C13,11.448 13.448,11 14,11 C14.552,11 15,11.448 15,12 C15,15.314 12.314,18 9,18 L7,18 C3.686,18 1,15.314 1,12 C1,8.686 3.686,6 7,6 L7.5,6 C8.052,6 8.5,6.448 8.5,7 C8.5,7.552 8.052,8 7.5,8 Z"/>
</svg>
