<svg xmlns="http://www.w3.org/2000/svg" width="24" height="24" viewBox="0 0 24 24">
  <defs/>
  <path d="M8,12 C8,11.448 8.448,11 9,11 L21,11 C21.552,11 22,11.448 22,12 C22,12.552 21.552,13 21,13 L9,13 C8.448,13 8,12.552 8,12 Z M8,18 C8,17.448 8.448,17 9,17 L21,17 C21.552,17 22,17.448 22,18 C22,18.552 21.552,19 21,19 L9,19 C8.448,19 8,18.552 8,18 Z M8,6 C8,5.448 8.448,5 9,5 L21,5 C21.552,5 22,5.448 22,6 C22,6.552 21.552,7 21,7 L9,7 C8.448,7 8,6.552 8,6 Z M2,18 C2,16.895 2.895,16 4,16 C5.105,16 6,16.895 6,18 C6,19.105 5.105,20 4,20 C2.895,20 2,19.105 2,18 Z M2,12 C2,10.895 2.895,10 4,10 C5.105,10 6,10.895 6,12 C6,13.105 5.105,14 4,14 C2.895,14 2,13.105 2,12 Z M2,6 C2,4.895 2.895,4 4,4 C5.105,4 6,4.895 6,6 C6,7.105 5.105,8 4,8 C2.895,8 2,7.105 2,6 Z"/>
</svg>
