<svg width="24" height="24" viewBox="0 0 24 24" fill="none" xmlns="http://www.w3.org/2000/svg">
<path d="M6.94727 3.31356C8.57447 2.89292 10.4301 3.01028 12.208 3.02547H19.4258C20.7391 3.02547 21.896 3.58742 22.5264 4.70809C23.1335 5.78774 23.1374 7.1831 22.6494 8.65731C22.6401 8.68538 22.6299 8.71318 22.6182 8.74032L21.6973 10.8673L21.6953 10.8722C21.125 12.1714 20.3765 13.0234 19.4004 13.5294C18.4658 14.0138 17.4309 14.1197 16.4414 14.1641H16.4385L15.5176 14.2022C15.4659 14.4077 15.4057 14.6049 15.3311 14.7931C14.9902 15.6518 14.4162 16.2578 13.5547 16.8321C13.5039 16.866 13.4497 16.895 13.3936 16.919C10.559 18.1338 9.15306 18.8241 6.50294 20.3643C5.17024 21.1389 3.90984 21.0654 2.95899 20.5499C2.50551 20.304 2.14065 19.9675 1.88087 19.6104C1.6503 19.2935 1.45871 18.8948 1.41505 18.4718C0.840679 15.1311 0.589432 10.4573 2.53321 6.95809C3.72313 4.81584 5.19967 3.76538 6.94727 3.31356ZM12.1914 5.02547C10.2182 5.00863 8.74466 4.91466 7.44727 5.25008C6.27031 5.55446 5.22563 6.22863 4.28126 7.92879C2.78542 10.6215 2.81446 14.3872 3.28907 17.5382L3.38966 18.1593L3.40333 18.2804C3.40059 18.225 3.39346 18.2898 3.49805 18.4337C3.59057 18.5608 3.73213 18.6945 3.91212 18.7921C4.22813 18.9634 4.74615 19.0721 5.49708 18.6358C8.19443 17.0681 9.67176 16.3411 12.5088 15.1231C13.0993 14.7192 13.3308 14.4131 13.4727 14.0557C13.6514 13.6055 13.7257 12.9965 13.8223 11.8458V11.8438L14.4102 5.02547H12.1914ZM5.00001 11.5001C5.00001 10.8788 5.08153 9.81115 5.69239 8.79403C6.32981 7.73271 7.46675 6.85387 9.3213 6.51668C9.86464 6.41794 10.3846 6.77802 10.4834 7.32137C10.5821 7.86472 10.2221 8.38469 9.67872 8.48348C8.33336 8.72811 7.71981 9.30384 7.40723 9.8243C7.06821 10.3889 7.00001 11.0305 7.00001 11.5001C7.00001 12.0524 6.55229 12.5001 6.00001 12.5001C5.44772 12.5001 5.00001 12.0524 5.00001 11.5001ZM15.8154 12.0157C15.8106 12.0738 15.8037 12.1313 15.7988 12.1886L16.3516 12.1661L16.6953 12.1466C17.4672 12.0952 18.0254 11.9899 18.4805 11.754C18.9589 11.5059 19.4303 11.0546 19.8633 10.0684L20.7637 7.98836C21.13 6.85642 21.0176 6.10537 20.7832 5.68856C20.5692 5.30814 20.1528 5.02547 19.4258 5.02547H16.417L15.8154 12.0157Z" fill="black"/>
</svg>
