<svg xmlns="http://www.w3.org/2000/svg" width="24" height="24" viewBox="0 0 24 24">
  <defs/>
  <path d="M4.214,4.293 C4.605,3.902 5.238,3.902 5.629,4.293 L8.457,7.121 C8.848,7.512 8.848,8.145 8.457,8.535 C8.067,8.926 7.433,8.926 7.043,8.535 L4.214,5.707 C3.824,5.317 3.824,4.683 4.214,4.293 Z M12,17 C12.552,17 13,17.448 13,18 L13,22 C13,22.552 12.552,23 12,23 C11.448,23 11,22.552 11,22 L11,18 C11,17.448 11.448,17 12,17 Z M17,12 C17,11.448 17.448,11 18,11 L22,11 C22.552,11 23,11.448 23,12 C23,12.552 22.552,13 22,13 L18,13 C17.448,13 17,12.552 17,12 Z M12,1 C12.552,1 13,1.448 13,2 L13,6 C13,6.552 12.552,7 12,7 C11.448,7 11,6.552 11,6 L11,2 C11,1.448 11.448,1 12,1 Z M1,12 C1,11.448 1.448,11 2,11 L6,11 C6.552,11 7,11.448 7,12 C7,12.552 6.552,13 6,13 L2,13 C1.448,13 1,12.552 1,12 Z M19.785,4.293 C20.176,4.683 20.176,5.317 19.785,5.707 L16.957,8.535 C16.567,8.926 15.933,8.926 15.543,8.535 C15.152,8.145 15.152,7.512 15.543,7.121 L18.371,4.293 C18.762,3.902 19.395,3.902 19.785,4.293 Z M8.457,15.543 C8.848,15.933 8.848,16.567 8.457,16.957 L5.629,19.785 C5.238,20.176 4.605,20.176 4.214,19.785 C3.824,19.395 3.824,18.762 4.214,18.371 L7.043,15.543 C7.433,15.152 8.067,15.152 8.457,15.543 Z M15.543,15.543 C15.933,15.152 16.567,15.152 16.957,15.543 L19.785,18.371 C20.176,18.762 20.176,19.395 19.785,19.785 C19.395,20.176 18.762,20.176 18.371,19.785 L15.543,16.957 C15.152,16.567 15.152,15.933 15.543,15.543 Z"/>
</svg>
