<svg xmlns="http://www.w3.org/2000/svg" width="24" height="24" viewBox="0 0 24 24">
  <defs/>
  <path d="M12,17 C12.552,17 13,17.448 13,18 L13,22 C13,22.552 12.552,23 12,23 C11.448,23 11,22.552 11,22 L11,18 C11,17.448 11.448,17 12,17 Z M8.457,15.543 C8.848,15.933 8.848,16.567 8.457,16.957 L5.629,19.785 C5.238,20.176 4.605,20.176 4.214,19.785 C3.824,19.395 3.824,18.762 4.214,18.371 L7.043,15.543 C7.433,15.152 8.067,15.152 8.457,15.543 Z M1.25,12 C1.25,11.448 1.698,11 2.25,11 L5.75,11 C6.302,11 6.75,11.448 6.75,12 C6.75,12.552 6.302,13 5.75,13 L2.25,13 C1.698,13 1.25,12.552 1.25,12 Z M4.422,4.502 C4.812,4.111 5.445,4.111 5.836,4.502 L7.957,6.623 C8.348,7.013 8.348,7.647 7.957,8.037 C7.567,8.428 6.933,8.428 6.543,8.037 L4.422,5.916 C4.031,5.525 4.031,4.892 4.422,4.502 Z M12,1.25 C12.552,1.25 13,1.698 13,2.25 L13,4.75 C13,5.302 12.552,5.75 12,5.75 C11.448,5.75 11,5.302 11,4.75 L11,2.25 C11,1.698 11.448,1.25 12,1.25 Z M19.371,4.709 C19.762,5.099 19.762,5.732 19.371,6.123 L17.957,7.537 C17.567,7.928 16.933,7.928 16.543,7.537 C16.152,7.147 16.152,6.513 16.543,6.123 L17.957,4.709 C18.348,4.318 18.981,4.318 19.371,4.709 Z M18.75,12 C18.75,11.448 19.198,11 19.75,11 L21.25,11 C21.802,11 22.25,11.448 22.25,12 C22.25,12.552 21.802,13 21.25,13 L19.75,13 C19.198,13 18.75,12.552 18.75,12 Z M17.043,17.043 C17.433,16.652 18.067,16.652 18.457,17.043 L19.164,17.75 C19.555,18.14 19.555,18.774 19.164,19.164 C18.774,19.555 18.14,19.555 17.75,19.164 L17.043,18.457 C16.652,18.067 16.652,17.433 17.043,17.043 Z"/>
</svg>
