<svg xmlns="http://www.w3.org/2000/svg" width="24" height="24" viewBox="0 0 24 24">
  <defs/>
  <path d="M6,8 C6,4.686 8.686,2 12,2 C14.462,2 16.575,3.483 17.5,5.6 C17.721,6.106 17.49,6.695 16.984,6.916 C16.478,7.137 15.889,6.906 15.668,6.4 C15.049,4.986 13.639,4 12,4 C9.791,4 8,5.791 8,8 L8,9.002 C8.236,9 8.487,9 8.754,9 L15.241,9 C16.046,9 16.711,9 17.252,9.044 C17.814,9.09 18.331,9.189 18.816,9.436 C19.569,9.819 20.181,10.431 20.564,11.184 C20.811,11.669 20.91,12.186 20.956,12.748 C21,13.289 21,13.954 21,14.759 L21,16.241 C21,17.046 21,17.711 20.956,18.252 C20.91,18.814 20.811,19.331 20.564,19.816 C20.181,20.569 19.569,21.181 18.816,21.564 C18.331,21.811 17.814,21.91 17.252,21.956 C16.711,22 16.046,22 15.241,22 L8.759,22 C7.954,22 7.289,22 6.748,21.956 C6.186,21.91 5.669,21.811 5.184,21.564 C4.431,21.181 3.819,20.569 3.436,19.816 C3.189,19.331 3.09,18.814 3.044,18.252 C3,17.711 3,17.046 3,16.241 L3,14.759 C3,13.954 3,13.289 3.044,12.748 C3.09,12.186 3.189,11.669 3.436,11.184 C3.819,10.431 4.431,9.819 5.184,9.436 C5.446,9.302 5.717,9.212 6,9.15 Z M6.911,11.038 C6.473,11.073 6.248,11.138 6.092,11.218 C5.716,11.41 5.41,11.716 5.218,12.092 C5.138,12.248 5.073,12.473 5.038,12.911 C5.001,13.361 5,13.943 5,14.8 L5,16.2 C5,17.057 5.001,17.639 5.038,18.089 C5.073,18.527 5.138,18.752 5.218,18.908 C5.41,19.284 5.716,19.59 6.092,19.782 C6.248,19.862 6.473,19.927 6.911,19.962 C7.361,19.999 7.943,20 8.8,20 L15.2,20 C16.057,20 16.639,19.999 17.089,19.962 C17.527,19.927 17.752,19.862 17.908,19.782 C18.284,19.59 18.59,19.284 18.782,18.908 C18.862,18.752 18.927,18.527 18.962,18.089 C18.999,17.639 19,17.057 19,16.2 L19,14.8 C19,13.943 18.999,13.361 18.962,12.911 C18.927,12.473 18.862,12.248 18.782,12.092 C18.59,11.716 18.284,11.41 17.908,11.218 C17.752,11.138 17.527,11.073 17.089,11.038 C16.639,11.001 16.057,11 15.2,11 L8.8,11 C7.943,11 7.361,11.001 6.911,11.038 Z M12,13.5 C12.552,13.5 13,13.948 13,14.5 L13,16.5 C13,17.052 12.552,17.5 12,17.5 C11.448,17.5 11,17.052 11,16.5 L11,14.5 C11,13.948 11.448,13.5 12,13.5 Z"/>
</svg>
