<svg xmlns="http://www.w3.org/2000/svg" width="24" height="24" viewBox="0 0 24 24">
  <defs/>
  <path d="M18,9.708 C19.245,11.119 20,12.971 20,15 C20,19.418 16.418,23 12,23 C7.582,23 4,19.418 4,15 C4,12.971 4.755,11.119 6,9.708 L6,8 C6,4.686 8.686,2 12,2 C15.314,2 18,4.686 18,8 Z M12,9 C8.686,9 6,11.686 6,15 C6,18.314 8.686,21 12,21 C15.314,21 18,18.314 18,15 C18,11.686 15.314,9 12,9 Z M12,4 C9.791,4 8,5.791 8,8 L8,8.07 C9.177,7.39 10.543,7 12,7 C13.457,7 14.823,7.39 16,8.07 L16,8 C16,5.791 14.209,4 12,4 Z M12,13 C12.552,13 13,13.448 13,14 L13,16 C13,16.552 12.552,17 12,17 C11.448,17 11,16.552 11,16 L11,14 C11,13.448 11.448,13 12,13 Z"/>
</svg>
