<svg xmlns="http://www.w3.org/2000/svg" width="24" height="24" viewBox="0 0 24 24">
  <defs/>
  <path d="M1,12 C1,5.925 5.925,1 12,1 C18.075,1 23,5.925 23,12 C23,18.075 18.075,23 12,23 C5.925,23 1,18.075 1,12 Z M12,3 C7.029,3 3,7.029 3,12 C3,16.971 7.029,21 12,21 C16.971,21 21,16.971 21,12 C21,7.029 16.971,3 12,3 Z M8,10 C8,7.791 9.791,6 12,6 C14.209,6 16,7.791 16,10 C16,11.157 15.508,12.2 14.724,12.929 C14.717,12.935 14.71,12.942 14.703,12.948 L15.598,15.631 C15.601,15.64 15.604,15.649 15.607,15.658 C15.658,15.811 15.715,15.983 15.751,16.135 C15.79,16.3 15.837,16.565 15.761,16.865 C15.668,17.237 15.436,17.559 15.113,17.765 C14.852,17.931 14.586,17.971 14.417,17.986 C14.262,18 14.08,18 13.919,18 L10.081,18 C9.919,18 9.738,18 9.583,17.986 C9.414,17.971 9.148,17.931 8.887,17.765 C8.564,17.559 8.332,17.237 8.239,16.865 C8.164,16.565 8.21,16.3 8.249,16.135 C8.285,15.983 8.342,15.811 8.393,15.658 C8.396,15.649 8.399,15.64 8.402,15.631 L9.297,12.948 C9.29,12.942 9.283,12.935 9.276,12.929 C8.492,12.2 8,11.157 8,10 Z M12,8 C10.895,8 10,8.895 10,10 C10,10.578 10.244,11.098 10.638,11.465 L10.651,11.477 C10.746,11.565 10.84,11.653 10.914,11.728 C10.979,11.794 11.11,11.929 11.204,12.111 C11.243,12.187 11.294,12.294 11.328,12.43 C11.363,12.566 11.37,12.684 11.372,12.769 C11.376,12.955 11.339,13.111 11.312,13.209 C11.287,13.3 11.253,13.403 11.223,13.495 L10.387,16 L13.613,16 L12.777,13.495 C12.747,13.403 12.713,13.3 12.688,13.209 C12.661,13.111 12.624,12.955 12.628,12.769 C12.63,12.684 12.637,12.566 12.672,12.43 C12.706,12.294 12.757,12.187 12.796,12.111 C12.89,11.929 13.021,11.794 13.086,11.728 C13.16,11.653 13.254,11.565 13.349,11.477 L13.362,11.465 C13.756,11.098 14,10.578 14,10 C14,8.895 13.105,8 12,8 Z"/>
</svg>
