<svg xmlns="http://www.w3.org/2000/svg" width="24" height="24" viewBox="0 0 24 24">
  <defs/>
  <path d="M16.241,2 L16.241,2 C17.046,2 17.711,2 18.252,2.044 C18.814,2.09 19.331,2.189 19.816,2.436 C20.569,2.819 21.181,3.431 21.564,4.184 C21.811,4.669 21.91,5.186 21.956,5.748 C22,6.289 22,6.954 22,7.759 L22,16.241 C22,17.046 22,17.711 21.956,18.252 C21.91,18.814 21.811,19.331 21.564,19.816 C21.181,20.569 20.569,21.181 19.816,21.564 C19.331,21.811 18.814,21.91 18.252,21.956 C17.711,22 17.046,22 16.241,22 L7.759,22 C6.954,22 6.289,22 5.748,21.956 C5.186,21.91 4.669,21.811 4.184,21.564 C3.431,21.181 2.819,20.569 2.436,19.816 C2.189,19.331 2.09,18.814 2.044,18.252 C2,17.711 2,17.046 2,16.241 L2,7.759 C2,6.954 2,6.289 2.044,5.748 C2.09,5.186 2.189,4.669 2.436,4.184 C2.819,3.431 3.431,2.819 4.184,2.436 C4.669,2.189 5.186,2.09 5.748,2.044 C6.289,2 6.954,2 7.759,2 L16.241,2 Z M5.911,4.038 C5.473,4.073 5.248,4.138 5.092,4.218 C4.716,4.41 4.41,4.716 4.218,5.092 C4.138,5.248 4.073,5.473 4.038,5.911 C4.001,6.361 4,6.943 4,7.8 L4,16.2 C4,17.057 4.001,17.639 4.038,18.089 C4.073,18.527 4.138,18.752 4.218,18.908 C4.41,19.284 4.716,19.59 5.092,19.782 C5.248,19.862 5.473,19.927 5.911,19.962 C6.361,19.999 6.943,20 7.8,20 L16.2,20 C17.057,20 17.639,19.999 18.089,19.962 C18.527,19.927 18.752,19.862 18.908,19.782 C19.284,19.59 19.59,19.284 19.782,18.908 C19.862,18.752 19.927,18.527 19.962,18.089 C19.999,17.639 20,17.057 20,16.2 L20,7.8 C20,6.943 19.999,6.361 19.962,5.911 C19.927,5.473 19.862,5.248 19.782,5.092 C19.59,4.716 19.284,4.41 18.908,4.218 C18.752,4.138 18.527,4.073 18.089,4.038 C17.639,4.001 17.057,4 16.2,4 L7.8,4 C6.943,4 6.361,4.001 5.911,4.038 Z M8,10 C8,7.791 9.791,6 12,6 C14.209,6 16,7.791 16,10 C16,11.157 15.508,12.2 14.724,12.929 C14.717,12.935 14.71,12.942 14.703,12.948 L15.598,15.631 C15.601,15.64 15.604,15.649 15.607,15.658 C15.658,15.811 15.715,15.983 15.751,16.135 C15.79,16.3 15.837,16.565 15.761,16.865 C15.668,17.237 15.436,17.559 15.113,17.765 C14.852,17.931 14.586,17.971 14.417,17.986 C14.262,18 14.08,18 13.919,18 L10.081,18 C9.92,18 9.738,18 9.583,17.986 C9.414,17.971 9.148,17.931 8.887,17.765 C8.564,17.559 8.332,17.237 8.239,16.865 C8.164,16.565 8.21,16.3 8.249,16.135 C8.285,15.983 8.342,15.811 8.393,15.658 C8.396,15.649 8.399,15.64 8.402,15.631 L9.297,12.948 C9.29,12.942 9.283,12.935 9.276,12.929 C8.492,12.2 8,11.157 8,10 Z M12,8 C10.895,8 10,8.895 10,10 C10,10.578 10.244,11.098 10.638,11.465 L10.651,11.477 C10.746,11.565 10.84,11.653 10.914,11.728 C10.979,11.794 11.11,11.929 11.204,12.111 C11.243,12.187 11.294,12.294 11.328,12.43 C11.363,12.566 11.37,12.684 11.372,12.769 C11.376,12.955 11.339,13.111 11.312,13.209 C11.287,13.3 11.253,13.403 11.223,13.495 L10.387,16 L13.613,16 L12.777,13.495 C12.747,13.403 12.713,13.3 12.688,13.209 C12.661,13.111 12.624,12.955 12.628,12.769 C12.63,12.684 12.637,12.566 12.672,12.43 C12.706,12.294 12.757,12.187 12.796,12.111 C12.89,11.929 13.021,11.794 13.086,11.728 C13.16,11.653 13.254,11.565 13.349,11.477 L13.362,11.465 C13.756,11.098 14,10.578 14,10 C14,8.895 13.105,8 12,8 Z"/>
</svg>
