<svg xmlns="http://www.w3.org/2000/svg" width="24" height="24" viewBox="0 0 24 24">
  <defs/>
  <path d="M8.071,2.557 L9.129,2.675 Q9.151,2.677 9.172,2.68 C9.424,2.708 9.611,2.728 9.78,2.762 C11.526,3.109 12.833,4.569 12.985,6.343 C13,6.515 13,6.703 13,6.957 L13,7 C13,7.552 12.552,8 12,8 C11.448,8 11,7.552 11,7 C11,6.684 10.999,6.589 10.993,6.514 C10.917,5.627 10.263,4.897 9.39,4.724 C9.316,4.709 9.222,4.697 8.908,4.663 L7.887,4.549 C7.105,4.462 6.571,4.403 6.155,4.387 C5.747,4.371 5.535,4.401 5.39,4.447 C4.849,4.62 4.406,5.016 4.174,5.536 C4.112,5.675 4.059,5.881 4.03,6.289 C4.001,6.704 4,7.241 4,8.028 L4,15.972 C4,16.759 4.001,17.296 4.03,17.711 C4.059,18.119 4.112,18.325 4.174,18.464 C4.406,18.984 4.849,19.38 5.39,19.553 C5.535,19.599 5.747,19.629 6.155,19.613 C6.571,19.597 7.105,19.538 7.887,19.451 L8.908,19.337 C9.221,19.303 9.316,19.291 9.39,19.277 C10.263,19.103 10.917,18.373 10.993,17.486 C10.999,17.411 11,17.316 11,17 C11,16.448 11.448,16 12,16 C12.552,16 13,16.448 13,17 L13,17.043 C13,17.297 13,17.485 12.985,17.657 C12.833,19.431 11.526,20.891 9.78,21.238 C9.611,21.272 9.424,21.292 9.172,21.32 L8.071,21.443 C7.335,21.524 6.73,21.592 6.234,21.611 C5.723,21.632 5.245,21.607 4.781,21.458 C3.697,21.111 2.813,20.319 2.348,19.281 C2.149,18.835 2.071,18.364 2.035,17.853 C2,17.359 2,16.75 2,16.009 L2,7.991 C2,7.25 2,6.641 2.035,6.147 C2.071,5.636 2.149,5.165 2.348,4.719 C2.813,3.681 3.697,2.889 4.781,2.542 C5.245,2.393 5.723,2.368 6.234,2.389 C6.73,2.408 7.335,2.475 8.071,2.557 Z M15.293,6.293 C15.683,5.902 16.317,5.902 16.707,6.293 L21.707,11.293 C22.098,11.683 22.098,12.317 21.707,12.707 L16.707,17.707 C16.317,18.098 15.683,18.098 15.293,17.707 C14.902,17.317 14.902,16.683 15.293,16.293 L18.586,13 L9,13 C8.448,13 8,12.552 8,12 C8,11.448 8.448,11 9,11 L18.586,11 L15.293,7.707 C14.902,7.317 14.902,6.683 15.293,6.293 Z"/>
</svg>
