<svg xmlns="http://www.w3.org/2000/svg" width="24" height="24" viewBox="0 0 24 24">
  <defs/>
  <path d="M9.518,4.068 C9.295,4.009 8.994,4 8,4 L7.5,4 C6.787,4 6.303,4.001 5.927,4.026 C5.559,4.051 5.368,4.097 5.235,4.152 C4.745,4.355 4.355,4.745 4.152,5.235 C4.097,5.368 4.051,5.559 4.026,5.927 C4.001,6.303 4,6.787 4,7.5 L4,16.5 C4,17.213 4.001,17.697 4.026,18.073 C4.051,18.441 4.097,18.632 4.152,18.765 C4.355,19.255 4.745,19.645 5.235,19.848 C5.368,19.903 5.559,19.949 5.927,19.974 C6.303,19.999 6.787,20 7.5,20 L8,20 C8.994,20 9.295,19.991 9.518,19.932 C10.208,19.747 10.747,19.208 10.932,18.518 C10.991,18.295 11,17.994 11,17 C11,16.448 11.448,16 12,16 C12.552,16 13,16.448 13,17 C13,17.046 13,17.092 13,17.138 L13,17.138 C13,17.933 13.001,18.524 12.864,19.035 C12.494,20.416 11.416,21.494 10.035,21.864 C9.524,22.001 8.933,22 8.138,22 L7.466,22 C6.796,22 6.243,22 5.79,21.969 C5.321,21.937 4.887,21.869 4.469,21.695 C3.489,21.289 2.71,20.511 2.304,19.531 C2.131,19.113 2.063,18.679 2.031,18.209 C2,17.757 2,17.204 2,16.534 L2,7.466 C2,6.796 2,6.243 2.031,5.79 C2.063,5.321 2.131,4.887 2.304,4.469 C2.71,3.489 3.489,2.71 4.469,2.304 C4.887,2.131 5.321,2.063 5.79,2.031 C6.243,2 6.796,2 7.465,2 L8,2 C8.047,2 8.092,2 8.138,2 C8.933,1.999 9.524,1.999 10.035,2.136 C11.416,2.506 12.494,3.584 12.864,4.965 C13.001,5.476 13,6.067 13,6.862 L13,6.862 C13,6.908 13,6.953 13,7 C13,7.552 12.552,8 12,8 C11.448,8 11,7.552 11,7 C11,6.006 10.991,5.705 10.932,5.482 C10.747,4.792 10.208,4.253 9.518,4.068 Z M15.293,6.293 C15.683,5.902 16.317,5.902 16.707,6.293 L21.707,11.293 C22.098,11.683 22.098,12.317 21.707,12.707 L16.707,17.707 C16.317,18.098 15.683,18.098 15.293,17.707 C14.902,17.317 14.902,16.683 15.293,16.293 L18.586,13 L9,13 C8.448,13 8,12.552 8,12 C8,11.448 8.448,11 9,11 L18.586,11 L15.293,7.707 C14.902,7.317 14.902,6.683 15.293,6.293 Z"/>
</svg>
