<svg xmlns="http://www.w3.org/2000/svg" width="24" height="24" viewBox="0 0 24 24">
  <defs/>
  <path d="M17.815,3.478 C17.307,3.502 16.653,3.588 15.698,3.716 L9.106,4.595 C8.734,4.644 8.622,4.661 8.535,4.681 C7.708,4.879 7.097,5.577 7.01,6.422 C7.001,6.512 7,6.625 7,7 C7,7.552 6.552,8 6,8 C5.448,8 5,7.552 5,7 L5,6.949 L5,6.948 C5,6.647 5,6.423 5.021,6.218 C5.194,4.528 6.417,3.132 8.069,2.736 C8.27,2.688 8.492,2.659 8.791,2.619 C8.807,2.617 8.824,2.615 8.842,2.612 L15.477,1.728 C16.378,1.607 17.118,1.509 17.721,1.48 C18.344,1.451 18.924,1.489 19.478,1.71 C20.33,2.049 21.04,2.67 21.489,3.47 C21.781,3.991 21.895,4.561 21.948,5.182 C22,5.784 22,6.529 22,7.438 L22,16.562 C22,17.471 22,18.216 21.948,18.818 C21.895,19.439 21.781,20.009 21.489,20.53 C21.04,21.33 20.33,21.951 19.478,22.29 C18.924,22.511 18.344,22.549 17.721,22.52 C17.118,22.491 16.378,22.393 15.477,22.272 L8.842,21.388 L8.79,21.381 C8.492,21.341 8.27,21.312 8.069,21.264 C6.417,20.868 5.194,19.472 5.021,17.782 C5,17.577 5,17.353 5,17.052 L5,17.051 L5,17 C5,16.448 5.448,16 6,16 C6.552,16 7,16.448 7,17 C7,17.375 7.001,17.488 7.01,17.578 C7.097,18.423 7.708,19.121 8.535,19.319 C8.622,19.339 8.734,19.356 9.106,19.405 L15.698,20.284 C16.653,20.412 17.307,20.498 17.815,20.522 C18.312,20.545 18.565,20.501 18.739,20.432 C19.165,20.263 19.52,19.952 19.744,19.552 C19.836,19.388 19.913,19.143 19.956,18.647 C19.999,18.141 20,17.482 20,16.517 L20,7.482 C20,6.518 19.999,5.859 19.956,5.353 C19.913,4.857 19.836,4.612 19.744,4.448 C19.52,4.048 19.165,3.738 18.739,3.568 C18.565,3.499 18.312,3.455 17.815,3.478 Z M11.293,7.293 C11.683,6.902 12.317,6.902 12.707,7.293 L16.707,11.293 C17.098,11.683 17.098,12.317 16.707,12.707 L12.707,16.707 C12.317,17.098 11.683,17.098 11.293,16.707 C10.902,16.317 10.902,15.683 11.293,15.293 L13.586,13 L3,13 C2.448,13 2,12.552 2,12 C2,11.448 2.448,11 3,11 L13.586,11 L11.293,8.707 C10.902,8.317 10.902,7.683 11.293,7.293 Z"/>
</svg>
