<svg xmlns="http://www.w3.org/2000/svg" width="24" height="24" viewBox="0 0 24 24">
  <defs/>
  <path d="M1,12 C1,6.513 5.293,2 10.667,2 C12.433,2 14.09,2.491 15.515,3.347 C15.988,3.631 16.142,4.246 15.857,4.719 C15.573,5.192 14.958,5.346 14.485,5.061 C13.36,4.385 12.057,4 10.667,4 C6.468,4 3,7.546 3,12 C3,16.454 6.468,20 10.667,20 C12.057,20 13.36,19.615 14.485,18.939 C14.958,18.654 15.573,18.808 15.857,19.281 C16.142,19.754 15.988,20.369 15.515,20.653 C14.09,21.509 12.433,22 10.667,22 C5.293,22 1,17.487 1,12 Z M17.293,7.293 C17.683,6.902 18.317,6.902 18.707,7.293 L22.707,11.293 C23.098,11.683 23.098,12.317 22.707,12.707 L18.707,16.707 C18.317,17.098 17.683,17.098 17.293,16.707 C16.902,16.317 16.902,15.683 17.293,15.293 L19.586,13 L9,13 C8.448,13 8,12.552 8,12 C8,11.448 8.448,11 9,11 L19.586,11 L17.293,8.707 C16.902,8.317 16.902,7.683 17.293,7.293 Z"/>
</svg>
