<svg xmlns="http://www.w3.org/2000/svg" width="24" height="24" viewBox="0 0 24 24">
  <defs/>
  <path d="M12,3 C8.67,3 5.761,4.808 4.203,7.501 C3.927,7.979 3.315,8.142 2.837,7.866 C2.359,7.589 2.196,6.977 2.472,6.499 C4.373,3.214 7.927,1 12,1 C18.075,1 23,5.925 23,12 C23,18.075 18.075,23 12,23 C7.927,23 4.373,20.786 2.472,17.501 C2.196,17.023 2.359,16.411 2.837,16.134 C3.315,15.858 3.927,16.021 4.203,16.499 C5.761,19.192 8.67,21 12,21 C16.971,21 21,16.971 21,12 C21,7.029 16.971,3 12,3 Z M11.293,8.707 C10.902,8.317 10.902,7.683 11.293,7.293 C11.683,6.902 12.317,6.902 12.707,7.293 L16.707,11.293 C17.098,11.683 17.098,12.317 16.707,12.707 L12.707,16.707 C12.317,17.098 11.683,17.098 11.293,16.707 C10.902,16.317 10.902,15.683 11.293,15.293 L13.586,13 L3,13 C2.448,13 2,12.552 2,12 C2,11.448 2.448,11 3,11 L13.586,11 Z"/>
</svg>
