<svg xmlns="http://www.w3.org/2000/svg" width="24" height="24" viewBox="0 0 24 24">
  <defs/>
  <path d="M9,2 C9.552,2 10,2.448 10,3 C10,3.552 9.552,4 9,4 L7.8,4 C6.943,4 6.361,4.001 5.911,4.038 C5.473,4.073 5.248,4.138 5.092,4.218 C4.716,4.41 4.41,4.716 4.218,5.092 C4.138,5.248 4.073,5.473 4.038,5.911 C4.001,6.361 4,6.943 4,7.8 L4,16.2 C4,17.057 4.001,17.639 4.038,18.089 C4.073,18.527 4.138,18.752 4.218,18.908 C4.41,19.284 4.716,19.59 5.092,19.782 C5.248,19.862 5.473,19.927 5.911,19.962 C6.361,19.999 6.943,20 7.8,20 L9,20 C9.552,20 10,20.448 10,21 C10,21.552 9.552,22 9,22 L7.759,22 C6.954,22 6.289,22 5.748,21.956 C5.186,21.91 4.669,21.811 4.184,21.564 C3.431,21.181 2.819,20.569 2.436,19.816 C2.189,19.331 2.09,18.814 2.044,18.252 C2,17.711 2,17.046 2,16.241 L2,7.759 C2,6.954 2,6.289 2.044,5.748 C2.09,5.186 2.189,4.669 2.436,4.184 C2.819,3.431 3.431,2.819 4.184,2.436 C4.669,2.189 5.186,2.09 5.748,2.044 C6.289,2 6.954,2 7.759,2 L9,2 Z M15.293,6.293 C15.683,5.902 16.317,5.902 16.707,6.293 L21.707,11.293 C22.098,11.683 22.098,12.317 21.707,12.707 L16.707,17.707 C16.317,18.098 15.683,18.098 15.293,17.707 C14.902,17.317 14.902,16.683 15.293,16.293 L18.586,13 L9,13 C8.448,13 8,12.552 8,12 C8,11.448 8.448,11 9,11 L18.586,11 L15.293,7.707 C14.902,7.317 14.902,6.683 15.293,6.293 Z"/>
</svg>
