<svg xmlns="http://www.w3.org/2000/svg" width="24" height="24" viewBox="0 0 24 24">
  <defs/>
  <path d="M18.089,4.038 C17.639,4.001 17.057,4 16.2,4 L15,4 C14.448,4 14,3.552 14,3 C14,2.448 14.448,2 15,2 L16.241,2 C17.046,2 17.711,2 18.252,2.044 C18.814,2.09 19.331,2.189 19.816,2.436 C20.569,2.819 21.181,3.431 21.564,4.184 C21.811,4.669 21.91,5.186 21.956,5.748 C22,6.289 22,6.954 22,7.759 L22,16.241 C22,17.046 22,17.711 21.956,18.252 C21.91,18.814 21.811,19.331 21.564,19.816 C21.181,20.569 20.569,21.181 19.816,21.564 C19.331,21.811 18.814,21.91 18.252,21.956 C17.711,22 17.046,22 16.241,22 L15,22 C14.448,22 14,21.552 14,21 C14,20.448 14.448,20 15,20 L16.2,20 C17.057,20 17.639,19.999 18.089,19.962 C18.527,19.927 18.752,19.862 18.908,19.782 C19.284,19.59 19.59,19.284 19.782,18.908 C19.862,18.752 19.927,18.527 19.962,18.089 C19.999,17.639 20,17.057 20,16.2 L20,7.8 C20,6.943 19.999,6.361 19.962,5.911 C19.927,5.473 19.862,5.248 19.782,5.092 C19.59,4.716 19.284,4.41 18.908,4.218 C18.752,4.138 18.527,4.073 18.089,4.038 Z M9.293,6.293 C9.683,5.902 10.317,5.902 10.707,6.293 L15.707,11.293 C16.098,11.683 16.098,12.317 15.707,12.707 L10.707,17.707 C10.317,18.098 9.683,18.098 9.293,17.707 C8.902,17.317 8.902,16.683 9.293,16.293 L12.586,13 L3,13 C2.448,13 2,12.552 2,12 C2,11.448 2.448,11 3,11 L12.586,11 L9.293,7.707 C8.902,7.317 8.902,6.683 9.293,6.293 Z"/>
</svg>
