<svg xmlns="http://www.w3.org/2000/svg" width="24" height="24" viewBox="0 0 24 24">
  <defs/>
  <path d="M9.862,2 C9.908,2 9.953,2 10,2 L16.241,2 C17.046,2 17.711,2 18.252,2.044 C18.814,2.09 19.331,2.189 19.816,2.436 C20.569,2.819 21.181,3.431 21.564,4.184 C21.811,4.669 21.91,5.186 21.956,5.748 C22,6.289 22,6.954 22,7.759 L22,16.241 C22,17.046 22,17.711 21.956,18.252 C21.91,18.814 21.811,19.331 21.564,19.816 C21.181,20.569 20.569,21.181 19.816,21.564 C19.331,21.811 18.814,21.91 18.252,21.956 C17.711,22 17.046,22 16.241,22 L9.862,22 C9.067,22 8.476,22.001 7.965,21.864 C6.584,21.494 5.506,20.416 5.136,19.035 C4.999,18.524 5,17.933 5,17.138 C5,17.092 5,17.046 5,17 C5,16.448 5.448,16 6,16 C6.552,16 7,16.448 7,17 C7,17.994 7.009,18.295 7.068,18.518 C7.253,19.208 7.792,19.747 8.482,19.932 C8.705,19.991 9.006,20 10,20 L16.2,20 C17.057,20 17.639,19.999 18.089,19.962 C18.527,19.927 18.752,19.862 18.908,19.782 C19.284,19.59 19.59,19.284 19.782,18.908 C19.862,18.752 19.927,18.527 19.962,18.089 C19.999,17.639 20,17.057 20,16.2 L20,7.8 C20,6.943 19.999,6.361 19.962,5.911 C19.927,5.473 19.862,5.248 19.782,5.092 C19.59,4.716 19.284,4.41 18.908,4.218 C18.752,4.138 18.527,4.073 18.089,4.038 C17.639,4.001 17.057,4 16.2,4 L10,4 C9.006,4 8.705,4.009 8.482,4.068 C7.792,4.253 7.253,4.792 7.068,5.482 C7.009,5.705 7,6.006 7,7 C7,7.552 6.552,8 6,8 C5.448,8 5,7.552 5,7 C5,6.953 5,6.908 5,6.862 L5,6.862 C5,6.067 4.999,5.476 5.136,4.965 C5.506,3.584 6.584,2.506 7.965,2.136 C8.476,1.999 9.067,1.999 9.862,2 Z M11.293,7.293 C11.683,6.902 12.317,6.902 12.707,7.293 L16.707,11.293 C17.098,11.683 17.098,12.317 16.707,12.707 L12.707,16.707 C12.317,17.098 11.683,17.098 11.293,16.707 C10.902,16.317 10.902,15.683 11.293,15.293 L13.586,13 L3,13 C2.448,13 2,12.552 2,12 C2,11.448 2.448,11 3,11 L13.586,11 L11.293,8.707 C10.902,8.317 10.902,7.683 11.293,7.293 Z"/>
</svg>
