<svg xmlns="http://www.w3.org/2000/svg" width="24" height="24" viewBox="0 0 24 24">
  <defs/>
  <path d="M11.862,2 C11.908,2 11.953,2 12,2 C12.047,2 12.092,2 12.138,2 C12.933,2 13.524,1.999 14.035,2.136 C15.416,2.506 16.494,3.584 16.864,4.965 C16.946,5.272 16.979,5.608 16.992,6 L17.241,6 C18.046,6 18.711,6 19.252,6.044 C19.814,6.09 20.331,6.189 20.816,6.436 C21.569,6.82 22.181,7.431 22.564,8.184 C22.811,8.669 22.91,9.186 22.956,9.748 C23,10.29 23,10.954 23,11.759 L23,16.241 C23,17.046 23,17.711 22.956,18.252 C22.91,18.814 22.811,19.331 22.564,19.816 C22.181,20.569 21.569,21.181 20.816,21.564 C20.331,21.811 19.814,21.91 19.252,21.956 C18.711,22 18.046,22 17.241,22 L6.759,22 C5.954,22 5.289,22 4.748,21.956 C4.186,21.91 3.669,21.811 3.184,21.564 C2.431,21.181 1.819,20.569 1.436,19.816 C1.189,19.331 1.09,18.814 1.044,18.252 C1,17.711 1,17.046 1,16.241 L1,11.759 C1,10.954 1,10.289 1.044,9.748 C1.09,9.186 1.189,8.669 1.436,8.184 C1.819,7.431 2.431,6.82 3.184,6.436 C3.669,6.189 4.186,6.09 4.748,6.044 C5.289,6 5.954,6 6.759,6 L7.008,6 C7.021,5.608 7.054,5.272 7.136,4.965 C7.506,3.584 8.584,2.506 9.965,2.136 C10.476,1.999 11.067,2 11.862,2 Z M9,20 L15,20 L15,18.5 L12.773,18.5 C12.655,18.5 12.514,18.5 12.39,18.49 C12.245,18.478 12.037,18.448 11.819,18.337 C11.537,18.193 11.307,17.963 11.163,17.681 C11.052,17.463 11.022,17.255 11.01,17.11 C11,16.985 11,16.842 11,16.723 L11,14.277 C11,14.158 11,14.016 11.01,13.89 C11.022,13.745 11.052,13.537 11.163,13.319 C11.307,13.037 11.537,12.807 11.819,12.664 C12.037,12.552 12.245,12.522 12.39,12.51 C12.516,12.5 12.658,12.5 12.777,12.5 L15,12.5 L15,8 L9,8 Z M7,8 L6.8,8 C5.943,8 5.361,8.001 4.911,8.038 C4.473,8.073 4.248,8.138 4.092,8.218 C3.716,8.41 3.41,8.716 3.218,9.092 C3.138,9.249 3.073,9.473 3.038,9.911 C3.001,10.361 3,10.943 3,11.8 L3,16.2 C3,17.057 3.001,17.639 3.038,18.089 C3.073,18.528 3.138,18.752 3.218,18.908 C3.41,19.284 3.716,19.59 4.092,19.782 C4.248,19.862 4.473,19.927 4.911,19.962 C5.361,19.999 5.943,20 6.8,20 L7,20 Z M17,20 L17.2,20 C18.057,20 18.639,19.999 19.089,19.962 C19.527,19.927 19.752,19.862 19.908,19.782 C20.284,19.59 20.59,19.284 20.782,18.908 C20.862,18.752 20.927,18.528 20.962,18.089 C20.999,17.639 21,17.057 21,16.2 L21,11.8 C21,10.943 20.999,10.361 20.962,9.911 C20.927,9.473 20.862,9.249 20.782,9.092 C20.59,8.716 20.284,8.41 19.908,8.218 C19.752,8.138 19.527,8.073 19.089,8.038 C18.639,8.001 18.057,8 17.2,8 L17,8 L17,12.5 L17.723,12.5 C17.842,12.5 17.985,12.5 18.11,12.51 C18.255,12.522 18.463,12.552 18.681,12.664 C18.963,12.807 19.193,13.037 19.337,13.319 C19.448,13.537 19.478,13.745 19.49,13.89 C19.5,14.016 19.5,14.158 19.5,14.277 L19.5,16.723 C19.5,16.842 19.5,16.985 19.49,17.11 C19.478,17.255 19.448,17.463 19.337,17.681 C19.193,17.963 18.963,18.193 18.681,18.337 C18.463,18.448 18.255,18.478 18.11,18.49 C17.986,18.5 17.845,18.5 17.727,18.5 L17,18.5 Z M14.99,6 C14.981,5.743 14.964,5.601 14.932,5.482 C14.747,4.792 14.208,4.253 13.518,4.068 C13.295,4.009 12.994,4 12,4 C11.006,4 10.705,4.009 10.482,4.068 C9.792,4.253 9.253,4.792 9.068,5.482 C9.036,5.601 9.019,5.743 9.01,6 Z M17.5,16.5 L17.5,14.5 L13,14.5 L13,16.5 Z"/>
</svg>
