<svg xmlns="http://www.w3.org/2000/svg" width="24" height="24" viewBox="0 0 24 24">
  <defs/>
  <path d="M15.241,1 L15.241,1 C16.046,1 16.711,1 17.252,1.044 C17.814,1.09 18.331,1.189 18.816,1.436 C19.569,1.819 20.181,2.431 20.564,3.184 C20.811,3.669 20.91,4.186 20.956,4.748 C21,5.289 21,5.954 21,6.759 L21,15.241 C21,16.046 21,16.711 20.956,17.252 C20.91,17.814 20.811,18.331 20.564,18.816 C20.181,19.569 19.569,20.181 18.816,20.564 C18.331,20.811 17.814,20.91 17.252,20.956 C17.171,20.962 17.087,20.968 17,20.973 L17,22 C17,22.552 16.552,23 16,23 C15.448,23 15,22.552 15,22 L15,21 L9,21 L9,22 C9,22.552 8.552,23 8,23 C7.448,23 7,22.552 7,22 L7,20.973 C6.913,20.968 6.829,20.962 6.748,20.956 C6.186,20.91 5.669,20.811 5.184,20.564 C4.431,20.181 3.819,19.569 3.436,18.816 C3.189,18.331 3.09,17.814 3.044,17.252 C3,16.711 3,16.046 3,15.241 L3,6.759 C3,5.954 3,5.289 3.044,4.748 C3.09,4.186 3.189,3.669 3.436,3.184 C3.819,2.431 4.431,1.819 5.184,1.436 C5.669,1.189 6.186,1.09 6.748,1.044 C7.289,1 7.954,1 8.759,1 L15.241,1 Z M6.911,3.038 C6.473,3.073 6.248,3.138 6.092,3.218 C5.716,3.41 5.41,3.716 5.218,4.092 C5.138,4.248 5.073,4.473 5.038,4.911 C5.001,5.361 5,5.943 5,6.8 L5,15.2 C5,16.057 5.001,16.639 5.038,17.089 C5.073,17.527 5.138,17.752 5.218,17.908 C5.41,18.284 5.716,18.59 6.092,18.782 C6.248,18.862 6.473,18.927 6.911,18.962 C7.361,18.999 7.943,19 8.8,19 L15.2,19 C16.057,19 16.639,18.999 17.089,18.962 C17.527,18.927 17.752,18.862 17.908,18.782 C18.284,18.59 18.59,18.284 18.782,17.908 C18.862,17.752 18.927,17.527 18.962,17.089 C18.999,16.639 19,16.057 19,15.2 L19,6.8 C19,5.943 18.999,5.361 18.962,4.911 C18.927,4.473 18.862,4.248 18.782,4.092 C18.59,3.716 18.284,3.41 17.908,3.218 C17.752,3.138 17.527,3.073 17.089,3.038 C16.639,3.001 16.057,3 15.2,3 L8.8,3 C7.943,3 7.361,3.001 6.911,3.038 Z M14.5,6 C15.052,6 15.5,6.448 15.5,7 L15.5,15 C15.5,15.552 15.052,16 14.5,16 C13.948,16 13.5,15.552 13.5,15 L13.5,7 C13.5,6.448 13.948,6 14.5,6 Z M9.5,6 C10.052,6 10.5,6.448 10.5,7 L10.5,15 C10.5,15.552 10.052,16 9.5,16 C8.948,16 8.5,15.552 8.5,15 L8.5,7 C8.5,6.448 8.948,6 9.5,6 Z"/>
</svg>
