<svg width="24" height="24" viewBox="0 0 24 24" fill="none" xmlns="http://www.w3.org/2000/svg">
<path d="M21 18.5137C21.0055 16.9609 20.6125 13.9287 19.831 11.2969C19.44 9.97969 18.9713 8.83245 18.4502 8.03613C17.9023 7.1989 17.4693 7.00006 17.207 7C16.9317 7 16.6583 7.05517 16.4033 7.16211C16.1484 7.26905 15.9161 7.42624 15.7197 7.625C15.5233 7.82389 15.3667 8.06081 15.2598 8.32227C15.1528 8.58372 15.0976 8.86474 15.0976 9.14844V10.9941C15.1105 11.0861 15.1108 11.1796 15.0976 11.2725V18.2363L15.1035 18.3818C15.1288 18.7202 15.2398 19.0467 15.4268 19.3281C15.6402 19.6493 15.942 19.897 16.292 20.042L16.2939 20.043L18.2441 20.8525L18.2559 20.8584C18.4756 20.9532 18.7121 21.0011 18.9502 21H19.0928C19.5944 21 20.0779 20.7984 20.4365 20.4355C20.7955 20.0721 21 19.5759 21 19.0566V18.5137ZM2.99999 19.0566C2.99999 19.5758 3.20353 20.0721 3.56249 20.4355C3.9211 20.7986 4.40543 21 4.90722 21H5.0498C5.28787 21.0011 5.52438 20.9532 5.74413 20.8584L5.75585 20.8525L7.70605 20.043L7.708 20.042C8.05802 19.897 8.35983 19.6493 8.57324 19.3281C8.78665 19.0068 8.90164 18.6268 8.90234 18.2373V9.14844C8.90234 8.86475 8.84718 8.58372 8.74023 8.32227C8.63325 8.06081 8.47672 7.82389 8.28027 7.625C8.08393 7.42624 7.85155 7.26905 7.59667 7.16211C7.34165 7.05517 7.06826 7 6.79296 7C6.53071 7.00002 6.09769 7.19888 5.5498 8.03613C5.02872 8.83243 4.56004 9.97972 4.16894 11.2969C3.38751 13.9287 2.99453 16.9609 2.99999 18.5137V19.0566ZM23 19.0566C23 20.0984 22.5907 21.1005 21.8594 21.8408C21.1277 22.5815 20.1329 23 19.0928 23H18.9551V22.999C18.4468 23.0008 17.9441 22.8989 17.4766 22.6992V22.7002L15.5273 21.8896V21.8906C14.8072 21.5924 14.1926 21.0847 13.7607 20.4346C13.329 19.7845 13.0987 19.0202 13.0976 18.2393V11.6514L12.874 11.499L12.8154 11.459L12.7627 11.4102C12.4699 11.1415 12.2098 10.8461 11.9844 10.5303C11.759 10.846 11.4996 11.1416 11.207 11.4102L11.165 11.4482L11.1201 11.4814L10.9023 11.6396V18.2393C10.9013 19.0202 10.671 19.7845 10.2393 20.4346C9.80737 21.0847 9.19285 21.5924 8.47265 21.8906L8.47167 21.8896L6.52343 22.7002L6.52245 22.6992C6.05517 22.8987 5.55288 23.0008 5.04492 22.999V23H4.90722C3.86702 23 2.87138 22.5816 2.13964 21.8408C1.40844 21.1005 0.999993 20.0983 0.999993 19.0566V18.5166C0.994399 16.7452 1.42244 13.5212 2.25195 10.7275C2.66656 9.33121 3.20125 7.97261 3.87597 6.94141C4.52397 5.95114 5.47953 5.00002 6.79296 5L6.99609 5.00488C7.46783 5.02844 7.93236 5.1343 8.36913 5.31738C8.86859 5.52682 9.32209 5.834 9.70312 6.21973C10.084 6.6053 10.3853 7.06233 10.5908 7.56445C10.7023 7.83702 10.7841 8.12051 10.8359 8.40918C10.9314 8.10354 10.9824 7.78711 10.9844 7.46777V2C10.9844 1.44775 11.4321 1.00005 11.9844 1C12.5367 1 12.9844 1.44772 12.9844 2V7.46289C12.9859 7.8062 13.0429 8.1468 13.1523 8.47363C13.2031 8.1626 13.2893 7.85732 13.4092 7.56445C13.6147 7.06232 13.916 6.6053 14.2969 6.21973C14.6778 5.83407 15.1305 5.52682 15.6299 5.31738C16.1293 5.10794 16.6657 5 17.207 5C18.5204 5.00006 19.4761 5.95117 20.124 6.94141C20.7987 7.97261 21.3334 9.33122 21.748 10.7275C22.5775 13.5212 23.0056 16.7452 23 18.5166V19.0566Z" fill="black"/>
</svg>
