<svg xmlns="http://www.w3.org/2000/svg" width="24" height="24" viewBox="0 0 24 24">
  <defs/>
  <path d="M12.707,11.293 C13.098,11.683 13.098,12.317 12.707,12.707 L3.707,21.707 C3.317,22.098 2.683,22.098 2.293,21.707 C1.902,21.317 1.902,20.683 2.293,20.293 L11.293,11.293 C11.683,10.902 12.317,10.902 12.707,11.293 Z M15,13 C15.552,13 16,13.448 16,14 L16,16 C16,16.552 15.552,17 15,17 C14.448,17 14,16.552 14,16 L14,14 C14,13.448 14.448,13 15,13 Z M15,1 C15.552,1 16,1.448 16,2 L16,4 C16,4.552 15.552,5 15,5 C14.448,5 14,4.552 14,4 L14,2 C14,1.448 14.448,1 15,1 Z M19,9 C19,8.448 19.448,8 20,8 L22,8 C22.552,8 23,8.448 23,9 C23,9.552 22.552,10 22,10 L20,10 C19.448,10 19,9.552 19,9 Z M7,9 C7,8.448 7.448,8 8,8 L10,8 C10.552,8 11,8.448 11,9 C11,9.552 10.552,10 10,10 L8,10 C7.448,10 7,9.552 7,9 Z M10.293,4.293 C10.683,3.902 11.317,3.902 11.707,4.293 L12.907,5.493 C13.298,5.883 13.298,6.517 12.907,6.907 C12.517,7.298 11.883,7.298 11.493,6.907 L10.293,5.707 C9.902,5.317 9.902,4.683 10.293,4.293 Z M19.707,4.293 C20.098,4.683 20.098,5.317 19.707,5.707 L18.507,6.907 C18.117,7.298 17.483,7.298 17.093,6.907 C16.702,6.517 16.702,5.883 17.093,5.493 L18.293,4.293 C18.683,3.902 19.317,3.902 19.707,4.293 Z M17.093,11.093 C17.483,10.702 18.117,10.702 18.507,11.093 L19.707,12.293 C20.098,12.683 20.098,13.317 19.707,13.707 C19.317,14.098 18.683,14.098 18.293,13.707 L17.093,12.507 C16.702,12.117 16.702,11.483 17.093,11.093 Z"/>
</svg>
