<svg xmlns="http://www.w3.org/2000/svg" width="24" height="24" viewBox="0 0 24 24">
  <defs/>
  <path d="M12.882,7.012 C13.284,6.882 13.716,6.882 14.118,7.012 C14.408,7.106 14.63,7.266 14.805,7.414 C14.964,7.549 15.138,7.723 15.316,7.902 L16.098,8.684 C16.277,8.863 16.451,9.036 16.586,9.196 C16.734,9.37 16.894,9.592 16.988,9.882 C17.118,10.284 17.118,10.716 16.988,11.118 C16.894,11.408 16.734,11.63 16.586,11.804 C16.451,11.964 16.277,12.137 16.098,12.316 L13.707,14.708 L6.816,21.598 C6.638,21.777 6.464,21.951 6.305,22.086 C6.13,22.234 5.908,22.394 5.618,22.488 C5.216,22.618 4.784,22.618 4.382,22.488 C4.092,22.394 3.87,22.234 3.696,22.086 C3.536,21.951 3.363,21.777 3.184,21.598 L3.162,21.576 L2.424,20.838 L2.402,20.816 C2.223,20.638 2.049,20.464 1.914,20.305 C1.766,20.13 1.606,19.908 1.512,19.618 C1.382,19.216 1.382,18.784 1.512,18.382 C1.606,18.092 1.766,17.87 1.914,17.695 C2.049,17.536 2.223,17.362 2.402,17.184 L9.293,10.293 L11.684,7.902 C11.863,7.723 12.036,7.549 12.196,7.414 C12.37,7.266 12.592,7.106 12.882,7.012 Z M10,12.414 L3.839,18.576 C3.629,18.785 3.515,18.901 3.439,18.99 C3.436,18.993 3.433,18.997 3.431,19 C3.433,19.003 3.436,19.007 3.439,19.01 C3.515,19.099 3.629,19.215 3.839,19.424 L4.576,20.162 C4.786,20.371 4.901,20.485 4.99,20.561 C4.994,20.564 4.997,20.567 5,20.57 C5.003,20.567 5.007,20.564 5.01,20.561 C5.099,20.485 5.215,20.371 5.424,20.162 L11.586,14 Z M13,12.586 L14.662,10.924 C14.871,10.715 14.986,10.599 15.061,10.51 C15.064,10.507 15.067,10.503 15.07,10.5 C15.067,10.497 15.064,10.493 15.061,10.49 C14.986,10.401 14.871,10.285 14.662,10.076 L13.924,9.338 C13.715,9.129 13.599,9.015 13.51,8.939 C13.507,8.936 13.503,8.933 13.5,8.93 C13.497,8.933 13.493,8.936 13.49,8.939 C13.401,9.015 13.285,9.129 13.076,9.338 L11.414,11 Z M9.243,3.293 C9.633,2.902 10.266,2.902 10.657,3.293 L11.718,4.354 C12.108,4.744 12.108,5.377 11.718,5.768 C11.327,6.158 10.694,6.158 10.303,5.768 L9.243,4.707 C8.852,4.317 8.852,3.683 9.243,3.293 Z M20.718,3.293 C21.108,3.683 21.108,4.317 20.718,4.707 L19.657,5.768 C19.266,6.158 18.633,6.158 18.243,5.768 C17.852,5.377 17.852,4.744 18.243,4.354 L19.303,3.293 C19.694,2.902 20.327,2.902 20.718,3.293 Z M18.243,12.293 C18.633,11.902 19.266,11.902 19.657,12.293 L20.718,13.354 C21.108,13.744 21.108,14.377 20.718,14.768 C20.327,15.158 19.694,15.158 19.303,14.768 L18.243,13.707 C17.852,13.317 17.852,12.683 18.243,12.293 Z M15.01,1 C15.563,1 16.01,1.448 16.01,2 L16.01,3.5 C16.01,4.052 15.563,4.5 15.01,4.5 C14.458,4.5 14.01,4.052 14.01,3.5 L14.01,2 C14.01,1.448 14.458,1 15.01,1 Z M19.51,9 C19.51,8.448 19.958,8 20.51,8 L22.01,8 C22.563,8 23.01,8.448 23.01,9 C23.01,9.552 22.563,10 22.01,10 L20.51,10 C19.958,10 19.51,9.552 19.51,9 Z"/>
</svg>
