<svg xmlns="http://www.w3.org/2000/svg" width="24" height="24" viewBox="0 0 24 24">
  <defs/>
  <path d="M17.241,3 L17.241,3 C18.046,3 18.711,3 19.252,3.044 C19.814,3.09 20.331,3.189 20.816,3.436 C21.569,3.819 22.181,4.431 22.564,5.184 C22.803,5.652 22.903,6.15 22.951,6.689 C23.004,6.853 23.014,7.025 22.982,7.19 C23,7.64 23,8.16 23,8.759 L23,15.241 C23,16.046 23,16.711 22.956,17.252 C22.91,17.814 22.811,18.331 22.564,18.816 C22.181,19.569 21.569,20.181 20.816,20.564 C20.331,20.811 19.814,20.91 19.252,20.956 C18.711,21 18.046,21 17.241,21 L6.759,21 C5.954,21 5.289,21 4.748,20.956 C4.186,20.91 3.669,20.811 3.184,20.564 C2.431,20.181 1.82,19.569 1.436,18.816 C1.189,18.331 1.09,17.814 1.044,17.252 C1,16.711 1,16.046 1,15.241 L1,8.759 C1,8.16 1,7.64 1.018,7.19 C0.986,7.025 0.996,6.853 1.049,6.689 C1.097,6.15 1.197,5.652 1.436,5.184 C1.82,4.431 2.431,3.819 3.184,3.436 C3.669,3.189 4.186,3.09 4.748,3.044 C5.289,3 5.954,3 6.759,3 L17.241,3 Z M9.699,11.168 C9.71,11.176 9.722,11.184 9.733,11.192 L10.738,11.896 C11.467,12.406 11.622,12.495 11.758,12.529 C11.917,12.569 12.083,12.569 12.242,12.529 C12.378,12.495 12.533,12.406 13.262,11.896 L14.267,11.192 C14.279,11.184 14.29,11.176 14.302,11.168 L20.917,6.537 C20.882,6.33 20.835,6.196 20.782,6.092 C20.59,5.716 20.284,5.41 19.908,5.218 C19.752,5.138 19.528,5.073 19.089,5.038 C18.639,5.001 18.057,5 17.2,5 L6.8,5 C5.944,5 5.361,5.001 4.911,5.038 C4.473,5.073 4.248,5.138 4.092,5.218 C3.716,5.41 3.41,5.716 3.218,6.092 C3.165,6.196 3.119,6.33 3.083,6.537 Z M9.222,13.276 L3.561,18.389 C3.714,18.548 3.893,18.681 4.092,18.782 C4.248,18.862 4.473,18.927 4.911,18.962 C5.361,18.999 5.944,19 6.8,19 L17.2,19 C18.057,19 18.639,18.999 19.089,18.962 C19.528,18.927 19.752,18.862 19.908,18.782 C20.107,18.681 20.286,18.548 20.439,18.389 L14.778,13.276 L14.409,13.535 C14.37,13.562 14.331,13.589 14.293,13.616 C13.749,13.998 13.27,14.334 12.726,14.47 C12.249,14.588 11.751,14.588 11.274,14.47 C10.73,14.334 10.252,13.998 9.707,13.616 C9.669,13.589 9.63,13.562 9.592,13.535 Z M16.459,12.099 L20.997,16.198 C21,15.911 21,15.583 21,15.2 L21,8.921 Z M3,8.921 L3,15.2 C3,15.583 3,15.911 3.004,16.198 L7.541,12.099 Z"/>
</svg>
