<svg xmlns="http://www.w3.org/2000/svg" width="24" height="24" viewBox="0 0 24 24">
  <defs/>
  <path d="M11.314,0.965 C11.765,0.859 12.235,0.859 12.686,0.965 C13.201,1.086 13.658,1.384 14.179,1.724 C14.216,1.747 14.252,1.771 14.289,1.795 L21.539,6.507 C21.556,6.519 21.574,6.53 21.592,6.542 L21.817,6.688 C21.835,6.7 21.854,6.712 21.873,6.724 C22.079,6.857 22.338,7.024 22.535,7.26 C22.705,7.464 22.833,7.7 22.912,7.955 C23.002,8.249 23.001,8.557 23,8.802 C23,8.824 23,8.847 23,8.868 L23,16.241 C23,17.046 23,17.711 22.956,18.252 C22.91,18.814 22.811,19.33 22.564,19.816 C22.181,20.569 21.569,21.18 20.816,21.564 C20.331,21.811 19.814,21.91 19.252,21.956 C18.711,22 18.046,22 17.241,22 L6.759,22 C5.954,22 5.289,22 4.748,21.956 C4.186,21.91 3.669,21.811 3.184,21.564 C2.431,21.18 1.82,20.569 1.436,19.816 C1.189,19.33 1.09,18.814 1.044,18.252 C1,17.711 1,17.046 1,16.241 L1,8.868 C1,8.847 1,8.824 1,8.802 C0.999,8.557 0.998,8.249 1.088,7.955 C1.167,7.7 1.295,7.464 1.465,7.26 C1.663,7.024 1.921,6.857 2.127,6.724 C2.146,6.712 2.165,6.7 2.183,6.688 L2.409,6.542 C2.426,6.53 2.444,6.519 2.461,6.507 C2.47,6.502 2.478,6.496 2.487,6.491 L9.711,1.795 C9.748,1.771 9.785,1.747 9.821,1.724 C10.342,1.384 10.8,1.086 11.314,0.965 Z M21,9.843 L14.289,14.205 C14.252,14.229 14.216,14.252 14.179,14.276 C13.658,14.616 13.201,14.914 12.686,15.035 C12.235,15.141 11.765,15.141 11.314,15.035 C10.8,14.914 10.342,14.616 9.821,14.276 C9.785,14.252 9.748,14.229 9.711,14.205 L3,9.843 L3,16.2 C3,17.056 3.001,17.639 3.038,18.089 C3.073,18.527 3.138,18.751 3.218,18.908 C3.41,19.284 3.716,19.59 4.092,19.782 C4.248,19.862 4.473,19.927 4.911,19.962 C5.361,19.999 5.943,20 6.8,20 L17.2,20 C18.057,20 18.639,19.999 19.089,19.962 C19.528,19.927 19.752,19.862 19.908,19.782 C20.284,19.59 20.59,19.284 20.782,18.908 C20.862,18.751 20.927,18.527 20.962,18.089 C20.999,17.639 21,17.056 21,16.2 Z M10.801,3.472 L3.835,8 L10.801,12.528 C11.497,12.98 11.642,13.058 11.772,13.088 C11.922,13.123 12.078,13.123 12.229,13.088 C12.358,13.058 12.504,12.98 13.199,12.528 L20.165,8 L13.199,3.472 C12.504,3.02 12.358,2.942 12.229,2.912 C12.078,2.876 11.922,2.876 11.772,2.912 C11.642,2.942 11.497,3.02 10.801,3.472 Z"/>
</svg>
