<svg xmlns="http://www.w3.org/2000/svg" width="24" height="24" viewBox="0 0 24 24">
  <defs/>
  <path d="M8.022,2 L16.241,2 C17.046,2 17.711,2 18.252,2.044 C18.814,2.09 19.331,2.188 19.816,2.436 C20.569,2.819 21.181,3.431 21.564,4.184 C21.811,4.669 21.91,5.186 21.956,5.748 C22,6.289 22,6.953 22,7.758 L22,16.241 C22,17.046 22,17.71 21.956,18.252 C21.91,18.814 21.811,19.33 21.564,19.816 C21.181,20.568 20.569,21.18 19.816,21.564 C19.331,21.811 18.814,21.91 18.252,21.956 C17.711,22 17.046,22 16.241,22 L16.023,22 C16.008,22 15.993,22 15.978,22 L7.759,22 C6.954,22 6.289,22 5.748,21.956 C5.186,21.91 4.669,21.811 4.184,21.564 C3.431,21.18 2.819,20.568 2.436,19.816 C2.189,19.33 2.09,18.814 2.044,18.252 C2.016,17.908 2.006,17.516 2.002,17.069 C1.999,17.028 1.999,16.987 2.001,16.947 C2,16.724 2,16.489 2,16.241 L2,7.758 C2,6.953 2,6.289 2.044,5.748 C2.09,5.186 2.189,4.669 2.436,4.184 C2.819,3.431 3.431,2.819 4.184,2.436 C4.669,2.188 5.186,2.09 5.748,2.044 C6.289,2 6.954,2 7.759,2 L7.977,2 C7.992,1.999 8.007,1.999 8.022,2 Z M16.65,20 C17.268,19.998 17.722,19.992 18.089,19.962 C18.527,19.926 18.752,19.861 18.908,19.782 C19.284,19.59 19.59,19.284 19.782,18.908 C19.862,18.751 19.927,18.527 19.962,18.089 C19.999,17.639 20,17.056 20,16.2 L20,7.8 C20,6.943 19.999,6.361 19.962,5.911 C19.927,5.472 19.862,5.248 19.782,5.092 C19.59,4.715 19.284,4.41 18.908,4.218 C18.752,4.138 18.527,4.073 18.089,4.037 C17.639,4.001 17.057,4 16.2,4 L9.539,4 L12.91,11.585 C12.913,11.591 12.916,11.598 12.919,11.605 Z M4,15.3 L10.715,11.57 L7.35,4 C6.732,4.001 6.278,4.007 5.911,4.037 C5.473,4.073 5.248,4.138 5.092,4.218 C4.716,4.409 4.41,4.715 4.218,5.092 C4.138,5.248 4.073,5.472 4.038,5.911 C4.001,6.361 4,6.943 4,7.8 Z M14.461,20 L11.53,13.405 L4.011,17.582 C4.017,17.77 4.025,17.937 4.038,18.089 C4.073,18.527 4.138,18.751 4.218,18.908 C4.41,19.284 4.716,19.59 5.092,19.782 C5.248,19.861 5.473,19.926 5.911,19.962 C6.361,19.999 6.943,20 7.8,20 Z"/>
</svg>
