<svg xmlns="http://www.w3.org/2000/svg" width="24" height="24" viewBox="0 0 24 24">
  <defs/>
  <path d="M22.472,1.118 C22.797,1.292 23,1.631 23,2 L23,18 C23,18.334 22.833,18.647 22.555,18.832 L16.555,22.832 C16.24,23.042 15.833,23.056 15.504,22.868 L9,19.152 L2.496,22.868 C2.187,23.045 1.806,23.044 1.498,22.865 C1.19,22.686 1,22.357 1,22 L1,6 C1,5.641 1.192,5.31 1.504,5.132 L8.504,1.132 C8.811,0.956 9.189,0.956 9.496,1.132 L15.96,4.825 L21.445,1.168 C21.752,0.963 22.147,0.944 22.472,1.118 Z M8,17.42 L8,3.723 L3,6.58 L3,20.277 Z M15,6.58 L10,3.723 L10,17.42 L15,20.277 Z M17,20.132 L21,17.465 L21,3.869 L17,6.535 Z"/>
</svg>
