<svg xmlns="http://www.w3.org/2000/svg" width="24" height="24" viewBox="0 0 24 24">
  <defs/>
  <path d="M5,8 C5,4.134 8.134,1 12,1 C15.866,1 19,4.134 19,8 C19,10.442 17.631,12.188 16.284,13.592 C15.958,13.931 15.623,14.26 15.301,14.577 L15.259,14.618 C14.92,14.951 14.599,15.269 14.296,15.588 C13.686,16.23 13.203,16.829 12.894,17.447 C12.725,17.786 12.379,18 12,18 C11.621,18 11.275,17.786 11.106,17.447 C10.797,16.829 10.314,16.23 9.704,15.588 C9.402,15.269 9.079,14.951 8.741,14.618 L8.699,14.576 C8.377,14.26 8.042,13.931 7.716,13.592 C6.369,12.188 5,10.442 5,8 Z M12,3 C9.239,3 7,5.239 7,8 C7,9.622 7.881,10.875 9.159,12.206 C9.464,12.524 9.781,12.836 10.108,13.157 L10.144,13.193 C10.479,13.523 10.825,13.863 11.155,14.211 C11.445,14.517 11.732,14.837 12,15.175 C12.268,14.837 12.555,14.517 12.845,14.211 C13.175,13.863 13.521,13.523 13.856,13.193 L13.892,13.157 C14.219,12.836 14.536,12.524 14.841,12.206 C16.119,10.875 17,9.622 17,8 C17,5.239 14.761,3 12,3 Z M5.915,13.883 C6.138,14.388 5.909,14.978 5.404,15.201 C4.555,15.576 3.929,15.998 3.53,16.417 C3.134,16.832 3,17.196 3,17.5 C3,18.104 3.592,18.984 5.339,19.77 C6.992,20.514 9.346,21 12,21 C14.653,21 17.007,20.514 18.661,19.77 C20.408,18.984 21,18.104 21,17.5 C21,17.196 20.865,16.832 20.471,16.417 C20.07,15.998 19.445,15.576 18.596,15.201 C18.091,14.978 17.862,14.388 18.085,13.883 C18.308,13.377 18.898,13.149 19.404,13.371 C20.406,13.814 21.281,14.369 21.918,15.037 C22.56,15.711 23,16.545 23,17.5 C23,19.381 21.354,20.751 19.481,21.594 C17.515,22.479 14.869,23 12,23 C9.131,23 6.485,22.479 4.519,21.594 C2.646,20.751 1,19.381 1,17.5 C1,16.545 1.44,15.711 2.082,15.037 C2.719,14.369 3.593,13.814 4.596,13.371 C5.102,13.149 5.692,13.377 5.915,13.883 Z M10,8 C10,6.895 10.895,6 12,6 C13.105,6 14,6.895 14,8 C14,9.105 13.105,10 12,10 C10.895,10 10,9.105 10,8 Z"/>
</svg>
