<svg xmlns="http://www.w3.org/2000/svg" width="24" height="24" viewBox="0 0 24 24">
  <defs/>
  <path d="M3,10 C3,5.029 7.029,1 12,1 C16.971,1 21,5.029 21,10 C21,12.526 19.853,14.74 18.292,16.767 C16.988,18.461 15.318,20.116 13.651,21.769 C13.335,22.082 13.02,22.394 12.707,22.707 C12.317,23.098 11.683,23.098 11.293,22.707 C10.98,22.394 10.665,22.082 10.349,21.769 C8.681,20.116 7.012,18.461 5.708,16.767 C4.147,14.74 3,12.526 3,10 Z M12,3 C8.134,3 5,6.134 5,10 C5,11.892 5.853,13.678 7.292,15.547 C8.507,17.125 10.063,18.667 11.732,20.323 C11.821,20.412 11.91,20.5 12,20.589 C12.09,20.5 12.179,20.412 12.268,20.323 C13.937,18.667 15.493,17.125 16.708,15.547 C18.147,13.678 19,11.892 19,10 C19,6.134 15.866,3 12,3 Z M8,10 C8,7.791 9.791,6 12,6 C14.209,6 16,7.791 16,10 C16,12.209 14.209,14 12,14 C9.791,14 8,12.209 8,10 Z M12,8 C10.895,8 10,8.895 10,10 C10,11.105 10.895,12 12,12 C13.105,12 14,11.105 14,10 C14,8.895 13.105,8 12,8 Z"/>
</svg>
