<svg xmlns="http://www.w3.org/2000/svg" width="24" height="24" viewBox="0 0 24 24">
  <defs/>
  <path d="M3,10 C3,5.029 7.029,1 12,1 C16.971,1 21,5.029 21,10 C21,13.119 19.256,15.366 17.471,17.224 C17.041,17.673 16.597,18.11 16.167,18.532 L16.111,18.587 C15.661,19.03 15.227,19.458 14.819,19.888 C13.998,20.753 13.328,21.579 12.894,22.447 C12.725,22.786 12.379,23 12,23 C11.621,23 11.275,22.786 11.106,22.447 C10.672,21.579 10.002,20.753 9.181,19.888 C8.773,19.458 8.339,19.03 7.889,18.587 L7.833,18.532 C7.403,18.11 6.959,17.673 6.529,17.224 C4.744,15.366 3,13.119 3,10 Z M12,3 C8.134,3 5,6.134 5,10 C5,12.299 6.256,14.053 7.971,15.839 C8.382,16.267 8.807,16.685 9.242,17.113 L9.291,17.161 C9.739,17.601 10.196,18.052 10.632,18.511 C11.112,19.017 11.581,19.549 12,20.115 C12.419,19.549 12.888,19.017 13.368,18.511 C13.804,18.052 14.261,17.601 14.709,17.161 L14.758,17.113 C15.193,16.685 15.618,16.267 16.029,15.839 C17.744,14.053 19,12.299 19,10 C19,6.134 15.866,3 12,3 Z M8,9.5 C8,7.291 9.791,5.5 12,5.5 C14.209,5.5 16,7.291 16,9.5 C16,11.709 14.209,13.5 12,13.5 C9.791,13.5 8,11.709 8,9.5 Z M12,7.5 C10.895,7.5 10,8.395 10,9.5 C10,10.605 10.895,11.5 12,11.5 C13.105,11.5 14,10.605 14,9.5 C14,8.395 13.105,7.5 12,7.5 Z"/>
</svg>
