<svg xmlns="http://www.w3.org/2000/svg" width="24" height="24" viewBox="0 0 24 24">
  <defs/>
  <path d="M8.981,13.182 C9.088,13.723 8.735,14.249 8.193,14.356 C6.511,14.686 5.149,15.218 4.235,15.835 C3.298,16.466 3,17.06 3,17.5 C3,18.104 3.592,18.984 5.339,19.77 C6.992,20.514 9.346,21 12,21 C14.653,21 17.007,20.514 18.661,19.77 C20.408,18.984 21,18.104 21,17.5 C21,17.06 20.702,16.466 19.765,15.835 C18.851,15.218 17.489,14.686 15.807,14.356 C15.265,14.249 14.912,13.723 15.019,13.182 C15.125,12.64 15.651,12.287 16.193,12.393 C18.043,12.757 19.681,13.365 20.884,14.177 C22.064,14.973 23,16.095 23,17.5 C23,19.381 21.354,20.751 19.481,21.594 C17.515,22.479 14.869,23 12,23 C9.131,23 6.485,22.479 4.519,21.594 C2.646,20.751 1,19.381 1,17.5 C1,16.095 1.936,14.973 3.116,14.177 C4.319,13.365 5.957,12.757 7.807,12.393 C8.349,12.287 8.875,12.64 8.981,13.182 Z M8,6 C8,3.791 9.791,2 12,2 C14.209,2 16,3.791 16,6 C16,7.864 14.725,9.43 13,9.874 L13,17 C13,17.552 12.552,18 12,18 C11.448,18 11,17.552 11,17 L11,9.874 C9.275,9.43 8,7.864 8,6 Z M12,4 C10.895,4 10,4.895 10,6 C10,7.105 10.895,8 12,8 C13.105,8 14,7.105 14,6 C14,4.895 13.105,4 12,4 Z"/>
</svg>
