<svg xmlns="http://www.w3.org/2000/svg" width="24" height="24" viewBox="0 0 24 24">
  <defs/>
  <path d="M8.981,13.182 C9.088,13.723 8.735,14.249 8.193,14.356 C6.511,14.686 5.149,15.218 4.235,15.835 C3.298,16.466 3,17.06 3,17.5 C3,18.104 3.592,18.984 5.339,19.77 C6.992,20.514 9.346,21 12,21 C14.653,21 17.007,20.514 18.661,19.77 C20.408,18.984 21,18.104 21,17.5 C21,17.06 20.702,16.466 19.765,15.835 C18.851,15.218 17.489,14.686 15.807,14.356 C15.265,14.249 14.912,13.723 15.019,13.182 C15.125,12.64 15.651,12.287 16.193,12.393 C18.043,12.757 19.681,13.365 20.884,14.177 C22.064,14.973 23,16.095 23,17.5 C23,19.381 21.354,20.751 19.481,21.594 C17.515,22.479 14.869,23 12,23 C9.131,23 6.485,22.479 4.519,21.594 C2.646,20.751 1,19.381 1,17.5 C1,16.095 1.936,14.973 3.116,14.177 C4.319,13.365 5.957,12.757 7.807,12.393 C8.349,12.287 8.875,12.64 8.981,13.182 Z M11.512,2.127 C11.828,1.95 12.216,1.958 12.524,2.148 L17.87,5.438 C18.039,5.542 18.219,5.653 18.361,5.76 C18.507,5.869 18.75,6.07 18.886,6.4 C19.048,6.794 19.035,7.237 18.851,7.621 C18.696,7.943 18.442,8.13 18.29,8.23 C18.142,8.329 17.956,8.429 17.781,8.523 C17.771,8.528 17.761,8.533 17.752,8.539 L13,11.097 L13,17 C13,17.552 12.552,18 12,18 C11.448,18 11,17.552 11,17 L11,10.521 C11,10.507 11,10.494 11,10.481 L11,3 C11,2.638 11.196,2.304 11.512,2.127 Z M13,8.826 L16.498,6.942 L13,4.79 Z"/>
</svg>
