<svg xmlns="http://www.w3.org/2000/svg" width="24" height="24" viewBox="0 0 24 24">
  <defs/>
  <path d="M12,1 C12.552,1 13,1.448 13,2 L13,3.055 C17.172,3.516 20.484,6.828 20.945,11 L22,11 C22.552,11 23,11.448 23,12 C23,12.552 22.552,13 22,13 L20.945,13 C20.484,17.172 17.172,20.484 13,20.945 L13,22 C13,22.552 12.552,23 12,23 C11.448,23 11,22.552 11,22 L11,20.945 C6.828,20.484 3.516,17.172 3.055,13 L2,13 C1.448,13 1,12.552 1,12 C1,11.448 1.448,11 2,11 L3.055,11 C3.516,6.828 6.828,3.516 11,3.055 L11,2 C11,1.448 11.448,1 12,1 Z M12,5 C8.134,5 5,8.134 5,12 C5,15.866 8.134,19 12,19 C15.866,19 19,15.866 19,12 C19,8.134 15.866,5 12,5 Z M8,12 C8,9.791 9.791,8 12,8 C14.209,8 16,9.791 16,12 C16,14.209 14.209,16 12,16 C9.791,16 8,14.209 8,12 Z M12,10 C10.895,10 10,10.895 10,12 C10,13.105 10.895,14 12,14 C13.105,14 14,13.105 14,12 C14,10.895 13.105,10 12,10 Z"/>
</svg>
