<svg xmlns="http://www.w3.org/2000/svg" width="24" height="24" viewBox="0 0 24 24">
  <defs/>
  <path d="M3,10 C3,5.029 7.029,1 12,1 C16.971,1 21,5.029 21,10 C21,13.679 18.939,15.686 17.018,17.298 C16.815,17.468 16.615,17.633 16.421,17.794 C14.7,19.218 13.353,20.333 12.981,22.196 C12.887,22.663 12.477,23 12,23 C11.523,23 11.113,22.663 11.019,22.196 C10.647,20.333 9.299,19.218 7.579,17.794 C7.385,17.633 7.185,17.468 6.982,17.298 C5.061,15.686 3,13.679 3,10 Z M12,3 C8.134,3 5,6.134 5,10 C5,12.74 6.439,14.232 8.268,15.766 C8.459,15.926 8.658,16.089 8.861,16.255 C9.944,17.14 11.149,18.126 12,19.432 C12.851,18.126 14.056,17.14 15.139,16.255 C15.342,16.089 15.541,15.926 15.732,15.766 C17.561,14.232 19,12.74 19,10 C19,6.134 15.866,3 12,3 Z M8,10 C8,7.791 9.791,6 12,6 C14.209,6 16,7.791 16,10 C16,12.209 14.209,14 12,14 C9.791,14 8,12.209 8,10 Z M12,8 C10.895,8 10,8.895 10,10 C10,11.105 10.895,12 12,12 C13.105,12 14,11.105 14,10 C14,8.895 13.105,8 12,8 Z"/>
</svg>
