<svg xmlns="http://www.w3.org/2000/svg" width="24" height="24" viewBox="0 0 24 24">
  <defs/>
  <path d="M15,4 C14.448,4 14,3.552 14,3 C14,2.448 14.448,2 15,2 L21,2 C21.552,2 22,2.448 22,3 L22,9 C22,9.552 21.552,10 21,10 C20.448,10 20,9.552 20,9 L20,5.414 L14.707,10.707 C14.317,11.098 13.683,11.098 13.293,10.707 C12.902,10.317 12.902,9.683 13.293,9.293 L18.586,4 Z M10.707,13.293 C11.098,13.683 11.098,14.317 10.707,14.707 L5.414,20 L9,20 C9.552,20 10,20.448 10,21 C10,21.552 9.552,22 9,22 L3,22 C2.735,22 2.48,21.895 2.293,21.707 C2.105,21.52 2,21.265 2,21 L2,15 C2,14.448 2.448,14 3,14 C3.552,14 4,14.448 4,15 L4,18.586 L9.293,13.293 C9.683,12.902 10.317,12.902 10.707,13.293 Z"/>
</svg>
