<svg width="24" height="24" viewBox="0 0 24 24" fill="none" xmlns="http://www.w3.org/2000/svg">
<path d="M8.00001 4.5C8.00001 3.11929 9.1193 2 10.5 2H17.5C18.8807 2 20 3.11929 20 4.5V5H21C21.5523 5 22 5.44772 22 6C22 6.55228 21.5523 7 21 7H20.7662L20.8624 7.16034C22.2611 9.49157 23 12.1591 23 14.8778V15C23 18.866 19.866 22 16 22H11.7082C9.05681 22 6.63297 20.502 5.44722 18.1305L5.38197 18H5.00001C3.34315 18 2.00001 16.6569 2.00001 15V12.1623L1.05132 9.31623C0.949675 9.01128 1.00081 8.67606 1.18877 8.41529C1.37672 8.15452 1.67856 8 2.00001 8H3.46493C3.71471 8 3.95705 8.08501 4.15209 8.24104L5.73121 9.50434L7.23382 7H7.00001C6.44772 7 6.00001 6.55228 6.00001 6C6.00001 5.44772 6.44772 5 7.00001 5H8.00001V4.5ZM10 5H18V4.5C18 4.22386 17.7761 4 17.5 4H10.5C10.2239 4 10 4.22386 10 4.5V5ZM18.4338 7H9.5662L6.8575 11.5145C6.70903 11.7619 6.46091 11.9332 6.17689 11.9842C5.89287 12.0353 5.60065 11.9611 5.37531 11.7809L3.47405 10.2599L3.94869 11.6838C3.98268 11.7857 4.00001 11.8925 4.00001 12V15C4.00001 15.5523 4.44772 16 5.00001 16H5.9382C6.35486 16 6.73574 16.2354 6.92207 16.6081L7.23608 17.2361C8.08304 18.93 9.81435 20 11.7082 20H16C18.7614 20 21 17.7614 21 15V14.8778C21 12.5216 20.3597 10.2097 19.1474 8.18933L18.4338 7Z" fill="black"/>
</svg>
