<svg xmlns="http://www.w3.org/2000/svg" width="24" height="24" viewBox="0 0 24 24">
  <defs/>
  <path d="M1,12 C1,5.925 5.925,1 12,1 C18.075,1 23,5.925 23,12 C23,18.075 18.075,23 12,23 C5.925,23 1,18.075 1,12 Z M12,3 C7.029,3 3,7.029 3,12 C3,16.971 7.029,21 12,21 C16.971,21 21,16.971 21,12 C21,7.029 16.971,3 12,3 Z M10.943,5.5 L13.033,5.5 L13.057,5.5 L13.057,5.5 C13.176,5.5 13.318,5.5 13.443,5.51 C13.588,5.522 13.796,5.552 14.014,5.663 C14.297,5.807 14.526,6.037 14.67,6.319 C14.781,6.537 14.811,6.745 14.823,6.89 C14.833,7.015 14.833,7.158 14.833,7.277 L14.833,9.167 L16.7,9.167 L16.723,9.167 L16.724,9.167 C16.843,9.167 16.985,9.167 17.11,9.177 C17.255,9.189 17.463,9.219 17.681,9.33 C17.963,9.474 18.193,9.703 18.337,9.986 C18.448,10.204 18.478,10.412 18.49,10.557 C18.5,10.682 18.5,10.824 18.5,10.943 L18.5,13.057 C18.5,13.176 18.5,13.318 18.49,13.443 C18.478,13.588 18.448,13.796 18.337,14.014 C18.193,14.297 17.963,14.526 17.681,14.67 C17.463,14.781 17.255,14.811 17.11,14.823 C16.985,14.833 16.842,14.833 16.723,14.833 L14.833,14.833 L14.833,16.723 C14.833,16.842 14.833,16.985 14.823,17.11 C14.811,17.255 14.781,17.463 14.67,17.681 C14.526,17.963 14.297,18.193 14.014,18.337 C13.796,18.448 13.588,18.478 13.443,18.49 C13.318,18.5 13.176,18.5 13.057,18.5 L10.943,18.5 C10.824,18.5 10.682,18.5 10.557,18.49 C10.412,18.478 10.204,18.448 9.986,18.337 C9.703,18.193 9.474,17.963 9.33,17.681 C9.219,17.463 9.189,17.255 9.177,17.11 C9.167,16.985 9.167,16.843 9.167,16.724 L9.167,16.723 L9.167,16.7 L9.167,14.833 L7.277,14.833 C7.158,14.833 7.015,14.833 6.89,14.823 C6.745,14.811 6.537,14.781 6.319,14.67 C6.037,14.526 5.807,14.297 5.663,14.014 C5.552,13.796 5.522,13.588 5.51,13.443 C5.5,13.318 5.5,13.176 5.5,13.057 L5.5,13.057 L5.5,13.033 L5.5,10.967 L5.5,10.943 L5.5,10.943 C5.5,10.824 5.5,10.682 5.51,10.557 C5.522,10.412 5.552,10.204 5.663,9.986 C5.807,9.703 6.037,9.474 6.319,9.33 C6.537,9.219 6.745,9.189 6.89,9.177 C7.015,9.167 7.158,9.167 7.277,9.167 L7.3,9.167 L9.167,9.167 L9.167,7.3 L9.167,7.277 L9.167,7.276 C9.167,7.157 9.167,7.015 9.177,6.89 C9.189,6.745 9.219,6.537 9.33,6.319 C9.474,6.037 9.703,5.807 9.986,5.663 C10.204,5.552 10.412,5.522 10.557,5.51 C10.682,5.5 10.824,5.5 10.943,5.5 Z M11.167,7.5 L11.167,9.393 C11.167,9.512 11.167,9.652 11.156,9.776 C11.145,9.922 11.114,10.13 11.003,10.348 C10.859,10.63 10.63,10.859 10.348,11.003 C10.13,11.114 9.922,11.145 9.776,11.156 C9.652,11.167 9.512,11.167 9.393,11.167 L7.5,11.167 L7.5,12.833 L9.393,12.833 C9.512,12.833 9.652,12.833 9.776,12.844 C9.922,12.855 10.13,12.886 10.348,12.997 C10.63,13.141 10.859,13.37 11.003,13.652 C11.114,13.87 11.145,14.078 11.156,14.224 C11.167,14.348 11.167,14.488 11.167,14.607 L11.167,16.5 L12.833,16.5 L12.833,14.607 C12.833,14.488 12.833,14.348 12.844,14.224 C12.855,14.078 12.886,13.87 12.997,13.652 C13.141,13.37 13.37,13.141 13.652,12.997 C13.87,12.886 14.078,12.855 14.224,12.844 C14.348,12.833 14.488,12.833 14.607,12.833 L16.5,12.833 L16.5,11.167 L14.607,11.167 C14.488,11.167 14.348,11.167 14.224,11.156 C14.078,11.145 13.87,11.114 13.652,11.003 C13.37,10.859 13.141,10.63 12.997,10.348 C12.886,10.13 12.855,9.922 12.844,9.776 C12.833,9.652 12.833,9.512 12.833,9.393 L12.833,7.5 Z"/>
</svg>
