<svg width="24" height="24" viewBox="0 0 24 24" fill="none" xmlns="http://www.w3.org/2000/svg">
<path d="M15.0262 3.68722C15.8667 2.287 17.6781 1.81422 19.0979 2.63396C20.5177 3.45371 21.014 5.25881 20.2216 6.68679L18.7063 9.99992H22C22.5523 9.99992 23 10.4476 23 10.9999C23 13.9173 21.8411 16.7152 19.7782 18.7781C17.7153 20.841 14.9174 21.9999 12 21.9999C9.08262 21.9999 6.28473 20.841 4.22183 18.7781C2.15893 16.7152 1 13.9173 1 10.9999C1 10.4476 1.44772 9.99992 2 9.99992H4.5C4.5 7.79078 6.29086 5.99992 8.5 5.99992C9.97863 5.99992 11.2699 6.80221 11.9622 7.99522L15.0262 3.68722ZM10.5 9.99992C10.5 8.89535 9.60457 7.99992 8.5 7.99992C7.39543 7.99992 6.5 8.89535 6.5 9.99992H10.5ZM12.9906 9.99992H16.507L18.4206 5.81611C18.4337 5.78742 18.4482 5.75936 18.4639 5.73204C18.7401 5.25375 18.5762 4.64215 18.0979 4.36601C17.6196 4.08987 17.008 4.25375 16.7319 4.73204C16.7161 4.75936 16.699 4.78592 16.6808 4.81164L12.9906 9.99992ZM3.0557 11.9999C3.28137 14.0189 4.18561 15.9135 5.63604 17.3639C7.32387 19.0517 9.61305 19.9999 12 19.9999C14.3869 19.9999 16.6761 19.0517 18.364 17.3639C19.8144 15.9135 20.7186 14.0189 20.9443 11.9999H3.0557Z" fill="black"/>
</svg>
