<svg xmlns="http://www.w3.org/2000/svg" width="24" height="24" viewBox="0 0 24 24">
  <defs/>
  <path d="M13.432,2 L13.432,2 C13.684,2 13.93,2 14.138,2.017 C14.367,2.036 14.637,2.08 14.908,2.218 C15.284,2.41 15.59,2.716 15.782,3.092 C15.92,3.363 15.964,3.633 15.983,3.862 C16,4.069 16,4.313 16,4.564 L16,7.4 C16,7.697 16.001,7.859 16.01,7.975 C16.011,7.98 16.011,7.984 16.011,7.989 C16.016,7.989 16.02,7.989 16.025,7.99 C16.141,7.999 16.303,8 16.6,8 L19.432,8 C19.684,8 19.93,8 20.138,8.017 C20.367,8.036 20.637,8.08 20.908,8.218 C21.284,8.41 21.59,8.716 21.782,9.092 C21.92,9.363 21.964,9.633 21.983,9.862 C22,10.069 22,10.313 22,10.564 L22,13.436 C22,13.687 22,13.931 21.983,14.138 C21.964,14.367 21.92,14.637 21.782,14.908 C21.59,15.284 21.284,15.59 20.908,15.782 C20.637,15.92 20.367,15.964 20.138,15.983 C19.931,16 19.687,16 19.436,16 L16.6,16 C16.303,16 16.141,16.001 16.025,16.01 C16.02,16.011 16.016,16.011 16.011,16.011 C16.011,16.016 16.011,16.02 16.01,16.025 C16.001,16.141 16,16.303 16,16.6 L16,19.436 C16,19.687 16,19.931 15.983,20.138 C15.964,20.367 15.92,20.637 15.782,20.908 C15.59,21.284 15.284,21.59 14.908,21.782 C14.637,21.92 14.367,21.964 14.138,21.983 C13.931,22 13.687,22 13.436,22 L10.564,22 C10.313,22 10.069,22 9.862,21.983 C9.633,21.964 9.363,21.92 9.092,21.782 C8.716,21.59 8.41,21.284 8.218,20.908 C8.08,20.637 8.036,20.367 8.017,20.138 C8,19.93 8,19.684 8,19.432 L8,19.432 L8,16.6 C8,16.303 7.999,16.141 7.99,16.025 C7.989,16.02 7.989,16.016 7.989,16.011 C7.984,16.011 7.98,16.011 7.975,16.01 C7.859,16.001 7.697,16 7.4,16 L4.564,16 C4.313,16 4.069,16 3.862,15.983 C3.633,15.964 3.363,15.92 3.092,15.782 C2.716,15.59 2.41,15.284 2.218,14.908 C2.08,14.637 2.036,14.367 2.017,14.138 C2,13.93 2,13.684 2,13.432 L2,10.568 C2,10.316 2,10.07 2.017,9.862 C2.036,9.633 2.08,9.363 2.218,9.092 C2.41,8.716 2.716,8.41 3.092,8.218 C3.363,8.08 3.633,8.036 3.862,8.017 C4.07,8 4.316,8 4.568,8 L7.4,8 C7.697,8 7.859,7.999 7.975,7.99 C7.98,7.989 7.984,7.989 7.989,7.989 C7.989,7.984 7.989,7.98 7.99,7.975 C7.999,7.859 8,7.697 8,7.4 L8,4.6 L8,4.568 L8,4.568 C8,4.316 8,4.07 8.017,3.862 C8.036,3.633 8.08,3.363 8.218,3.092 C8.41,2.716 8.716,2.41 9.092,2.218 C9.363,2.08 9.633,2.036 9.862,2.017 C10.07,2 10.316,2 10.568,2 L13.432,2 Z M10.012,4.011 C10.011,4.016 10.011,4.02 10.01,4.025 C10.001,4.141 10,4.303 10,4.6 L10,7.436 C10,7.687 10,7.931 9.983,8.138 C9.964,8.367 9.92,8.637 9.782,8.908 C9.59,9.284 9.284,9.59 8.908,9.782 C8.637,9.92 8.367,9.964 8.138,9.983 C7.931,10 7.687,10 7.436,10 L4.6,10 C4.303,10 4.141,10.001 4.025,10.01 C4.02,10.011 4.016,10.011 4.011,10.012 C4.011,10.016 4.011,10.02 4.01,10.025 C4.001,10.141 4,10.304 4,10.6 L4,13.4 C4,13.696 4.001,13.859 4.01,13.975 C4.011,13.98 4.011,13.984 4.011,13.989 C4.016,13.989 4.02,13.989 4.025,13.99 C4.141,13.999 4.303,14 4.6,14 L7.436,14 C7.687,14 7.931,14 8.138,14.017 C8.367,14.036 8.637,14.08 8.908,14.218 C9.284,14.41 9.59,14.716 9.782,15.092 C9.92,15.363 9.964,15.633 9.983,15.862 C10,16.069 10,16.313 10,16.564 L10,19.4 C10,19.697 10.001,19.859 10.01,19.975 C10.011,19.98 10.011,19.984 10.012,19.989 C10.016,19.989 10.02,19.989 10.025,19.99 C10.141,19.999 10.304,20 10.6,20 L13.4,20 C13.696,20 13.859,19.999 13.975,19.99 C13.98,19.989 13.984,19.989 13.989,19.989 C13.989,19.984 13.989,19.98 13.99,19.975 C13.999,19.859 14,19.697 14,19.4 L14,16.564 C14,16.313 14,16.069 14.017,15.862 C14.036,15.633 14.08,15.363 14.218,15.092 C14.41,14.716 14.716,14.41 15.092,14.218 C15.363,14.08 15.633,14.036 15.862,14.017 C16.069,14 16.313,14 16.564,14 L19.4,14 C19.697,14 19.859,13.999 19.975,13.99 C19.98,13.989 19.984,13.989 19.989,13.988 C19.989,13.984 19.989,13.98 19.99,13.975 C19.999,13.859 20,13.696 20,13.4 L20,10.6 C20,10.304 19.999,10.141 19.99,10.025 C19.989,10.02 19.989,10.016 19.989,10.012 C19.984,10.011 19.98,10.011 19.975,10.01 C19.859,10.001 19.697,10 19.4,10 L16.564,10 C16.313,10 16.069,10 15.862,9.983 C15.633,9.964 15.363,9.92 15.092,9.782 C14.716,9.59 14.41,9.284 14.218,8.908 C14.08,8.637 14.036,8.367 14.017,8.138 C14,7.931 14,7.687 14,7.436 L14,4.6 C14,4.303 13.999,4.141 13.99,4.025 C13.989,4.02 13.989,4.016 13.989,4.011 C13.984,4.011 13.98,4.011 13.975,4.01 C13.859,4.001 13.696,4 13.4,4 L10.6,4 C10.304,4 10.141,4.001 10.025,4.01 C10.02,4.011 10.016,4.011 10.012,4.011 Z"/>
</svg>
