<svg width="24" height="24" viewBox="0 0 24 24" fill="none" xmlns="http://www.w3.org/2000/svg">

<path d="M13.5264 3.68722C14.3669 2.287 16.1783 1.81422 17.5981 2.63396C19.0179 3.45371 19.5142 5.25881 18.7218 6.68679L17.2065 9.99992H22C22.5523 9.99992 23 10.4476 23 10.9999C23 13.9173 21.8411 16.7152 19.7782 18.7781C17.7153 20.841 14.9174 21.9999 12 21.9999C9.08262 21.9999 6.28473 20.841 4.22183 18.7781C2.15893 16.7152 1 13.9173 1 10.9999C1 10.4476 1.44772 9.99992 2 9.99992H9.0365L13.5264 3.68722ZM11.4908 9.99992H15.0072L16.9207 5.81611C16.9339 5.78742 16.9483 5.75936 16.9641 5.73204C17.2403 5.25374 17.0764 4.64215 16.5981 4.36601C16.1198 4.08987 15.5082 4.25375 15.2321 4.73204C15.2163 4.75936 15.1992 4.78592 15.1809 4.81164L11.4908 9.99992ZM15.3357 11.9999H3.0557C3.28137 14.0189 4.18561 15.9135 5.63604 17.3639C7.32387 19.0517 9.61305 19.9999 12 19.9999C14.3869 19.9999 16.6761 19.0517 18.364 17.3639C19.8144 15.9135 20.7186 14.0189 20.9443 11.9999H15.9227C15.7359 12.0573 15.5318 12.0604 15.3357 11.9999Z" fill="black"/>
</svg>
