<svg xmlns="http://www.w3.org/2000/svg" width="24" height="24" viewBox="0 0 24 24">
  <defs/>
  <path d="M16.241,2 L16.241,2 C17.046,2 17.711,2 18.252,2.044 C18.814,2.09 19.331,2.189 19.816,2.436 C20.569,2.819 21.181,3.431 21.564,4.184 C21.811,4.669 21.91,5.186 21.956,5.748 C22,6.289 22,6.954 22,7.759 L22,16.241 C22,17.046 22,17.711 21.956,18.252 C21.91,18.814 21.811,19.331 21.564,19.816 C21.181,20.569 20.569,21.181 19.816,21.564 C19.331,21.811 18.814,21.91 18.252,21.956 C17.711,22 17.046,22 16.241,22 L7.759,22 C6.954,22 6.289,22 5.748,21.956 C5.186,21.91 4.669,21.811 4.184,21.564 C3.431,21.181 2.819,20.569 2.436,19.816 C2.189,19.331 2.09,18.814 2.044,18.252 C2,17.711 2,17.046 2,16.241 L2,7.759 C2,6.954 2,6.289 2.044,5.748 C2.09,5.186 2.189,4.669 2.436,4.184 C2.819,3.431 3.431,2.819 4.184,2.436 C4.669,2.189 5.186,2.09 5.748,2.044 C6.289,2 6.954,2 7.759,2 L16.241,2 Z M5.911,4.038 C5.473,4.073 5.248,4.138 5.092,4.218 C4.716,4.41 4.41,4.716 4.218,5.092 C4.138,5.248 4.073,5.473 4.038,5.911 C4.001,6.361 4,6.943 4,7.8 L4,16.2 C4,17.057 4.001,17.639 4.038,18.089 C4.073,18.527 4.138,18.752 4.218,18.908 C4.41,19.284 4.716,19.59 5.092,19.782 C5.248,19.862 5.473,19.927 5.911,19.962 C6.361,19.999 6.943,20 7.8,20 L16.2,20 C17.057,20 17.639,19.999 18.089,19.962 C18.527,19.927 18.752,19.862 18.908,19.782 C19.284,19.59 19.59,19.284 19.782,18.908 C19.862,18.752 19.927,18.527 19.962,18.089 C19.999,17.639 20,17.057 20,16.2 L20,7.8 C20,6.943 19.999,6.361 19.962,5.911 C19.927,5.473 19.862,5.248 19.782,5.092 C19.59,4.716 19.284,4.41 18.908,4.218 C18.752,4.138 18.527,4.073 18.089,4.038 C17.639,4.001 17.057,4 16.2,4 L7.8,4 C6.943,4 6.361,4.001 5.911,4.038 Z M10.943,5.5 L13.033,5.5 L13.057,5.5 L13.057,5.5 C13.176,5.5 13.318,5.5 13.443,5.51 C13.588,5.522 13.796,5.552 14.014,5.663 C14.297,5.807 14.526,6.037 14.67,6.319 C14.781,6.537 14.811,6.745 14.823,6.89 C14.833,7.015 14.833,7.158 14.833,7.277 L14.833,9.167 L16.7,9.167 L16.723,9.167 L16.724,9.167 C16.843,9.167 16.985,9.167 17.11,9.177 C17.255,9.189 17.463,9.219 17.681,9.33 C17.963,9.474 18.193,9.703 18.337,9.986 C18.448,10.204 18.478,10.412 18.49,10.557 C18.5,10.682 18.5,10.824 18.5,10.943 L18.5,13.057 C18.5,13.176 18.5,13.318 18.49,13.443 C18.478,13.588 18.448,13.796 18.337,14.014 C18.193,14.297 17.963,14.526 17.681,14.67 C17.463,14.781 17.255,14.811 17.11,14.823 C16.985,14.833 16.842,14.833 16.723,14.833 L14.833,14.833 L14.833,16.723 C14.833,16.842 14.833,16.985 14.823,17.11 C14.811,17.255 14.781,17.463 14.67,17.681 C14.526,17.963 14.297,18.193 14.014,18.337 C13.796,18.448 13.588,18.478 13.443,18.49 C13.318,18.5 13.176,18.5 13.057,18.5 L10.943,18.5 C10.824,18.5 10.682,18.5 10.557,18.49 C10.412,18.478 10.204,18.448 9.986,18.337 C9.703,18.193 9.474,17.963 9.33,17.681 C9.219,17.463 9.189,17.255 9.177,17.11 C9.167,16.985 9.167,16.843 9.167,16.724 L9.167,16.723 L9.167,16.7 L9.167,14.833 L7.277,14.833 C7.158,14.833 7.015,14.833 6.89,14.823 C6.745,14.811 6.537,14.781 6.319,14.67 C6.037,14.526 5.807,14.297 5.663,14.014 C5.552,13.796 5.522,13.588 5.51,13.443 C5.5,13.318 5.5,13.176 5.5,13.057 L5.5,13.057 L5.5,13.033 L5.5,10.967 L5.5,10.943 L5.5,10.943 C5.5,10.824 5.5,10.682 5.51,10.557 C5.522,10.412 5.552,10.204 5.663,9.986 C5.807,9.703 6.037,9.474 6.319,9.33 C6.537,9.219 6.745,9.189 6.89,9.177 C7.015,9.167 7.157,9.167 7.276,9.167 L7.277,9.167 L7.3,9.167 L9.167,9.167 L9.167,7.3 L9.167,7.277 L9.167,7.276 C9.167,7.157 9.167,7.015 9.177,6.89 C9.189,6.745 9.219,6.537 9.33,6.319 C9.474,6.037 9.703,5.807 9.986,5.663 C10.204,5.552 10.412,5.522 10.557,5.51 C10.682,5.5 10.824,5.5 10.943,5.5 Z M11.167,7.5 L11.167,9.393 C11.167,9.512 11.167,9.652 11.156,9.776 C11.145,9.922 11.114,10.13 11.003,10.348 C10.859,10.63 10.63,10.859 10.348,11.003 C10.13,11.114 9.922,11.145 9.776,11.156 C9.652,11.167 9.512,11.167 9.393,11.167 L7.5,11.167 L7.5,12.833 L9.393,12.833 C9.512,12.833 9.652,12.833 9.776,12.844 C9.922,12.855 10.13,12.886 10.348,12.997 C10.63,13.141 10.859,13.37 11.003,13.652 C11.114,13.87 11.145,14.078 11.156,14.224 C11.167,14.348 11.167,14.488 11.167,14.607 L11.167,16.5 L12.833,16.5 L12.833,14.607 C12.833,14.488 12.833,14.348 12.844,14.224 C12.855,14.078 12.886,13.87 12.997,13.652 C13.141,13.37 13.37,13.141 13.652,12.997 C13.87,12.886 14.078,12.855 14.224,12.844 C14.348,12.833 14.488,12.833 14.607,12.833 L16.5,12.833 L16.5,11.167 L14.607,11.167 C14.488,11.167 14.348,11.167 14.224,11.156 C14.078,11.145 13.87,11.114 13.652,11.003 C13.37,10.859 13.141,10.63 12.997,10.348 C12.886,10.13 12.855,9.922 12.844,9.776 C12.833,9.652 12.833,9.512 12.833,9.393 L12.833,7.5 Z"/>
</svg>
