<svg xmlns="http://www.w3.org/2000/svg" width="24" height="24" viewBox="0 0 24 24">
  <defs/>
  <path d="M5.67,5.5 C5.558,5.181 5.5,4.843 5.5,4.5 C5.5,3.71 5.808,2.949 6.362,2.385 C6.916,1.821 7.672,1.5 8.464,1.5 C10.259,1.5 11.373,2.718 12,3.772 C12.627,2.718 13.741,1.5 15.536,1.5 C16.328,1.5 17.084,1.821 17.638,2.385 C18.192,2.949 18.5,3.71 18.5,4.5 C18.5,4.843 18.442,5.181 18.33,5.5 L19.5,5.5 C21.433,5.5 23,7.067 23,9 C23,9.979 22.598,10.865 21.949,11.5 C22.598,12.135 23,13.021 23,14 C23,14.979 22.598,15.865 21.949,16.5 C22.598,17.135 23,18.021 23,19 C23,20.933 21.433,22.5 19.5,22.5 L4.5,22.5 C2.567,22.5 1,20.933 1,19 C1,18.021 1.402,17.135 2.051,16.5 C1.402,15.865 1,14.979 1,14 C1,13.021 1.402,12.135 2.051,11.5 C1.402,10.865 1,9.979 1,9 C1,7.067 2.567,5.5 4.5,5.5 Z M11,7.5 L4.5,7.5 C3.672,7.5 3,8.172 3,9 C3,9.828 3.672,10.5 4.5,10.5 L11,10.5 Z M19.5,10.5 C20.328,10.5 21,9.828 21,9 C21,8.172 20.328,7.5 19.5,7.5 L13,7.5 L13,10.5 Z M11,20.5 L11,17.5 L4.5,17.5 C3.672,17.5 3,18.172 3,19 C3,19.828 3.672,20.5 4.5,20.5 Z M4.5,12.5 C3.672,12.5 3,13.172 3,14 C3,14.828 3.672,15.5 4.5,15.5 L11,15.5 L11,12.5 Z M19.5,17.5 L13,17.5 L13,20.5 L19.5,20.5 C20.328,20.5 21,19.828 21,19 C21,18.172 20.328,17.5 19.5,17.5 Z M13,12.5 L13,15.5 L19.5,15.5 C20.328,15.5 21,14.828 21,14 C21,13.172 20.328,12.5 19.5,12.5 Z M8.464,3.5 C8.214,3.5 7.971,3.601 7.789,3.786 C7.606,3.973 7.5,4.229 7.5,4.5 C7.5,4.771 7.606,5.027 7.789,5.214 C7.971,5.399 8.214,5.5 8.464,5.5 L10.634,5.5 C10.562,5.329 10.479,5.151 10.384,4.975 C9.898,4.076 9.274,3.5 8.464,3.5 Z M15.536,5.5 C15.786,5.5 16.029,5.399 16.211,5.214 C16.394,5.027 16.5,4.771 16.5,4.5 C16.5,4.229 16.394,3.973 16.211,3.786 C16.029,3.601 15.786,3.5 15.536,3.5 C14.726,3.5 14.102,4.076 13.616,4.975 C13.521,5.151 13.438,5.329 13.366,5.5 Z"/>
</svg>