<svg xmlns="http://www.w3.org/2000/svg" width="24" height="24" viewBox="0 0 24 24">
  <defs/>
  <path d="M16.241,2 L16.241,2 C17.046,2 17.711,2 18.252,2.044 C18.814,2.09 19.331,2.189 19.816,2.436 C20.569,2.819 21.181,3.431 21.564,4.184 C21.811,4.669 21.91,5.186 21.956,5.748 C22,6.289 22,6.954 22,7.759 L22,13.241 C22,14.046 22,14.711 21.956,15.252 C21.91,15.814 21.811,16.331 21.564,16.816 C21.181,17.569 20.569,18.181 19.816,18.564 C19.331,18.811 18.814,18.91 18.252,18.956 C17.711,19 17.046,19 16.241,19 L13.684,19 C13.02,19 12.826,19.005 12.65,19.041 C12.474,19.077 12.303,19.137 12.142,19.219 C11.983,19.301 11.829,19.418 11.31,19.833 L8.897,21.763 C8.713,21.91 8.526,22.06 8.361,22.169 C8.204,22.273 7.899,22.459 7.502,22.46 C7.045,22.46 6.613,22.253 6.328,21.896 C6.08,21.585 6.035,21.23 6.018,21.042 C6,20.846 6,20.606 6,20.371 L6,20.371 L6,18.992 C5.608,18.979 5.272,18.946 4.965,18.864 C3.584,18.494 2.506,17.416 2.136,16.035 C1.999,15.524 2,14.933 2,14.138 C2,14.092 2,14.047 2,14 L2,7.759 C2,6.954 2,6.289 2.044,5.748 C2.09,5.186 2.189,4.669 2.436,4.184 C2.82,3.431 3.431,2.819 4.184,2.436 C4.669,2.189 5.186,2.09 5.748,2.044 C6.289,2 6.954,2 7.759,2 L16.241,2 Z M5.911,4.038 C5.473,4.073 5.249,4.138 5.092,4.218 C4.716,4.41 4.41,4.716 4.218,5.092 C4.138,5.248 4.073,5.473 4.038,5.911 C4.001,6.361 4,6.943 4,7.8 L4,14 C4,14.994 4.009,15.295 4.068,15.518 C4.253,16.208 4.792,16.747 5.482,16.932 C5.705,16.991 6.006,17 7,17 C7.552,17 8,17.448 8,18 L8,19.919 L10.061,18.271 C10.083,18.253 10.106,18.235 10.128,18.217 C10.55,17.879 10.869,17.624 11.233,17.438 C11.554,17.274 11.895,17.154 12.248,17.082 C12.648,17 13.056,17 13.597,17 L16.2,17 C17.057,17 17.639,16.999 18.089,16.962 C18.528,16.927 18.752,16.862 18.908,16.782 C19.284,16.59 19.59,16.284 19.782,15.908 C19.862,15.752 19.927,15.527 19.962,15.089 C19.999,14.639 20,14.057 20,13.2 L20,7.8 C20,6.943 19.999,6.361 19.962,5.911 C19.927,5.473 19.862,5.248 19.782,5.092 C19.59,4.716 19.284,4.41 18.908,4.218 C18.752,4.138 18.528,4.073 18.089,4.038 C17.639,4.001 17.057,4 16.2,4 L7.8,4 C6.944,4 6.361,4.001 5.911,4.038 Z M11.997,6.374 C13.206,5.557 14.837,5.474 16.159,6.559 C17.735,7.853 17.926,10.074 16.711,11.617 C16.097,12.398 14.645,13.734 13.7,14.582 L13.678,14.601 C13.519,14.743 13.359,14.887 13.21,15 C13.041,15.128 12.836,15.258 12.573,15.337 C12.202,15.449 11.792,15.449 11.421,15.337 C11.158,15.258 10.953,15.128 10.784,15 C10.635,14.887 10.475,14.744 10.316,14.601 L10.295,14.582 C9.349,13.734 7.897,12.398 7.283,11.617 C6.06,10.062 6.292,7.862 7.825,6.568 C9.138,5.459 10.785,5.556 11.997,6.374 Z M11.241,8.354 C10.637,7.656 9.754,7.557 9.115,8.096 C8.393,8.705 8.308,9.686 8.855,10.381 C9.338,10.994 10.639,12.204 11.63,13.092 C11.819,13.262 11.918,13.35 11.993,13.407 C11.995,13.408 11.996,13.409 11.997,13.41 C11.998,13.409 11.999,13.408 12.001,13.407 C12.076,13.35 12.175,13.262 12.365,13.092 C13.355,12.204 14.656,10.994 15.139,10.381 C15.695,9.674 15.607,8.694 14.89,8.105 C14.221,7.556 13.349,7.665 12.753,8.354 C12.563,8.573 12.287,8.699 11.997,8.699 C11.707,8.699 11.431,8.573 11.241,8.354 Z"/>
</svg>
