<svg xmlns="http://www.w3.org/2000/svg" width="24" height="24" viewBox="0 0 24 24">
  <defs/>
  <path d="M16.241,2 L16.241,2 C17.046,2 17.711,2 18.252,2.044 C18.814,2.09 19.331,2.189 19.816,2.436 C20.569,2.819 21.181,3.431 21.564,4.184 C21.811,4.669 21.91,5.186 21.956,5.748 C22,6.289 22,6.954 22,7.759 L22,13.241 C22,14.046 22,14.711 21.956,15.252 C21.91,15.814 21.811,16.331 21.564,16.816 C21.181,17.569 20.569,18.181 19.816,18.564 C19.331,18.811 18.814,18.91 18.252,18.956 C17.711,19 17.046,19 16.241,19 L13.684,19 C13.02,19 12.826,19.005 12.65,19.041 C12.474,19.077 12.303,19.137 12.142,19.219 C11.983,19.301 11.829,19.418 11.31,19.833 L8.897,21.763 C8.713,21.91 8.526,22.06 8.361,22.169 C8.204,22.273 7.899,22.459 7.502,22.46 C7.045,22.46 6.613,22.253 6.328,21.896 C6.08,21.585 6.035,21.23 6.018,21.042 C6,20.846 6,20.606 6,20.371 L6,20.371 L6,18.992 C5.608,18.979 5.272,18.946 4.965,18.864 C3.584,18.494 2.506,17.416 2.136,16.035 C1.999,15.524 2,14.933 2,14.138 C2,14.092 2,14.047 2,14 L2,7.759 C2,6.954 2,6.289 2.044,5.748 C2.09,5.186 2.189,4.669 2.436,4.184 C2.82,3.431 3.431,2.819 4.184,2.436 C4.669,2.189 5.186,2.09 5.748,2.044 C6.289,2 6.954,2 7.759,2 L16.241,2 Z M5.911,4.038 C5.473,4.073 5.249,4.138 5.092,4.218 C4.716,4.41 4.41,4.716 4.218,5.092 C4.138,5.248 4.073,5.473 4.038,5.911 C4.001,6.361 4,6.943 4,7.8 L4,14 C4,14.994 4.009,15.295 4.068,15.518 C4.253,16.208 4.792,16.747 5.482,16.932 C5.705,16.991 6.006,17 7,17 C7.552,17 8,17.448 8,18 L8,19.919 L10.061,18.271 C10.083,18.253 10.106,18.235 10.128,18.217 C10.55,17.879 10.869,17.624 11.233,17.438 C11.554,17.274 11.895,17.154 12.248,17.082 C12.648,17 13.056,17 13.597,17 L16.2,17 C17.057,17 17.639,16.999 18.089,16.962 C18.528,16.927 18.752,16.862 18.908,16.782 C19.284,16.59 19.59,16.284 19.782,15.908 C19.862,15.752 19.927,15.527 19.962,15.089 C19.999,14.639 20,14.057 20,13.2 L20,7.8 C20,6.943 19.999,6.361 19.962,5.911 C19.927,5.473 19.862,5.248 19.782,5.092 C19.59,4.716 19.284,4.41 18.908,4.218 C18.752,4.138 18.528,4.073 18.089,4.038 C17.639,4.001 17.057,4 16.2,4 L7.8,4 C6.944,4 6.361,4.001 5.911,4.038 Z M12,6.5 C12.552,6.5 13,6.948 13,7.5 L13,9.5 L15,9.5 C15.552,9.5 16,9.948 16,10.5 C16,11.052 15.552,11.5 15,11.5 L13,11.5 L13,13.5 C13,14.052 12.552,14.5 12,14.5 C11.448,14.5 11,14.052 11,13.5 L11,11.5 L9,11.5 C8.448,11.5 8,11.052 8,10.5 C8,9.948 8.448,9.5 9,9.5 L11,9.5 L11,7.5 C11,6.948 11.448,6.5 12,6.5 Z"/>
</svg>
