<svg xmlns="http://www.w3.org/2000/svg" width="24" height="24" viewBox="0 0 24 24">
  <defs/>
  <path d="M2,12 C2,6.477 6.477,2 12,2 C17.523,2 22,6.477 22,12 C22,17.523 17.523,22 12,22 C10.672,22 9.401,21.74 8.239,21.268 C8.134,21.226 8.074,21.201 8.029,21.184 C8.024,21.183 8.019,21.181 8.015,21.179 C8.014,21.18 8.012,21.18 8.01,21.18 C7.973,21.185 7.923,21.193 7.827,21.209 L4.269,21.802 C4.26,21.804 4.25,21.806 4.24,21.807 C4.08,21.834 3.9,21.864 3.744,21.876 C3.574,21.889 3.303,21.893 3.017,21.77 C2.663,21.619 2.381,21.337 2.23,20.983 C2.107,20.697 2.111,20.426 2.124,20.256 C2.136,20.1 2.166,19.92 2.193,19.76 C2.195,19.75 2.196,19.74 2.198,19.731 L2.791,16.173 C2.807,16.077 2.815,16.027 2.82,15.99 L2.821,15.985 C2.819,15.981 2.818,15.976 2.816,15.971 C2.799,15.926 2.774,15.866 2.732,15.761 C2.26,14.599 2,13.328 2,12 Z M12,4 C7.582,4 4,7.582 4,12 C4,13.066 4.208,14.081 4.585,15.008 C4.591,15.023 4.597,15.038 4.603,15.053 C4.664,15.203 4.737,15.38 4.774,15.547 C4.808,15.697 4.822,15.829 4.822,15.984 C4.822,16.153 4.793,16.324 4.77,16.463 L4.77,16.463 C4.768,16.476 4.766,16.489 4.764,16.502 L4.217,19.783 L7.498,19.236 C7.511,19.234 7.524,19.232 7.537,19.23 C7.675,19.207 7.847,19.178 8.016,19.178 C8.171,19.178 8.303,19.192 8.453,19.226 C8.619,19.263 8.797,19.336 8.947,19.397 C8.962,19.403 8.977,19.41 8.992,19.415 C9.919,19.792 10.934,20 12,20 C16.418,20 20,16.418 20,12 C20,7.582 16.418,4 12,4 Z M7,13 C7,12.448 7.448,12 8,12 L15,12 C15.552,12 16,12.448 16,13 C16,13.552 15.552,14 15,14 L8,14 C7.448,14 7,13.552 7,13 Z M7,9.5 C7,8.948 7.448,8.5 8,8.5 L12,8.5 C12.552,8.5 13,8.948 13,9.5 C13,10.052 12.552,10.5 12,10.5 L8,10.5 C7.448,10.5 7,10.052 7,9.5 Z"/>
</svg>
