<svg xmlns="http://www.w3.org/2000/svg" width="24" height="24" viewBox="0 0 24 24">
  <defs/>
  <path d="M12.703,2.944 C12.753,3.494 12.349,3.981 11.799,4.032 C7.986,4.385 5,7.594 5,11.5 C5,12.34 5.137,13.146 5.391,13.897 C5.399,13.921 5.407,13.946 5.415,13.97 C5.496,14.209 5.592,14.489 5.612,14.743 C5.63,14.974 5.613,15.169 5.556,15.394 C5.494,15.639 5.367,15.873 5.264,16.062 C5.254,16.081 5.244,16.099 5.234,16.116 L3.779,18.811 L8.523,18.32 C8.534,18.319 8.545,18.318 8.556,18.317 L8.558,18.317 C8.677,18.304 8.824,18.289 8.968,18.294 C9.1,18.299 9.211,18.314 9.34,18.344 C9.482,18.377 9.636,18.436 9.765,18.486 C9.778,18.491 9.791,18.497 9.804,18.501 C10.639,18.823 11.548,19 12.5,19 C16.409,19 19.62,16.009 19.968,12.191 C20.018,11.641 20.505,11.236 21.055,11.286 C21.605,11.336 22.01,11.823 21.96,12.373 C21.519,17.211 17.452,21 12.5,21 C11.298,21 10.146,20.776 9.085,20.368 C8.994,20.333 8.942,20.312 8.903,20.298 C8.898,20.297 8.894,20.295 8.89,20.294 L8.886,20.294 C8.855,20.297 8.811,20.301 8.729,20.31 L3.574,20.843 C3.36,20.865 3.136,20.888 2.95,20.89 C2.764,20.892 2.429,20.882 2.108,20.686 C1.732,20.456 1.475,20.073 1.407,19.638 C1.349,19.266 1.467,18.953 1.54,18.782 C1.614,18.61 1.721,18.412 1.823,18.223 L3.475,15.165 C3.546,15.033 3.585,14.962 3.61,14.909 C3.612,14.906 3.613,14.904 3.614,14.901 C3.612,14.894 3.61,14.886 3.607,14.877 C3.585,14.803 3.552,14.704 3.495,14.536 C3.174,13.581 3,12.56 3,11.5 C3,6.551 6.782,2.488 11.615,2.041 C12.165,1.99 12.652,2.394 12.703,2.944 Z M15.171,3.172 C16.733,1.609 19.266,1.609 20.828,3.172 C22.39,4.734 22.39,7.266 20.828,8.828 C19.266,10.391 16.733,10.391 15.171,8.828 C13.609,7.266 13.609,4.734 15.171,3.172 Z M19.414,4.586 C18.633,3.805 17.366,3.805 16.585,4.586 C15.804,5.367 15.804,6.633 16.585,7.414 C17.366,8.195 18.633,8.195 19.414,7.414 C20.195,6.633 20.195,5.367 19.414,4.586 Z"/>
</svg>
