<svg xmlns="http://www.w3.org/2000/svg" width="24" height="24" viewBox="0 0 24 24">
  <defs/>
  <path d="M16.241,2 L16.241,2 C17.046,2 17.711,2 18.252,2.044 C18.814,2.09 19.331,2.189 19.816,2.436 C20.569,2.819 21.181,3.431 21.564,4.184 C21.811,4.669 21.91,5.186 21.956,5.748 C22,6.289 22,6.954 22,7.759 L22,13.241 C22,14.046 22,14.711 21.956,15.252 C21.91,15.814 21.811,16.331 21.564,16.816 C21.181,17.569 20.569,18.181 19.816,18.564 C19.331,18.811 18.814,18.91 18.252,18.956 C17.711,19 17.046,19 16.241,19 L9.684,19 C9.02,19 8.826,19.005 8.65,19.041 C8.474,19.077 8.303,19.137 8.142,19.219 C7.982,19.301 7.828,19.418 7.31,19.833 L4.897,21.763 C4.713,21.91 4.526,22.06 4.361,22.169 C4.204,22.273 3.899,22.459 3.502,22.46 C3.045,22.46 2.613,22.253 2.328,21.896 C2.08,21.585 2.035,21.23 2.018,21.042 C2,20.846 2,20.606 2,20.371 L2,20.371 L2,7.759 L2,7.759 C2,6.954 2,6.289 2.044,5.748 C2.09,5.186 2.189,4.669 2.436,4.184 C2.819,3.431 3.431,2.819 4.184,2.436 C4.669,2.189 5.186,2.09 5.748,2.044 C6.289,2 6.954,2 7.759,2 L16.241,2 Z M5.911,4.038 C5.473,4.073 5.248,4.138 5.092,4.218 C4.716,4.41 4.41,4.716 4.218,5.092 C4.138,5.248 4.073,5.473 4.038,5.911 C4.001,6.361 4,6.943 4,7.8 L4,19.919 L6.061,18.271 C6.083,18.253 6.106,18.235 6.128,18.217 C6.55,17.879 6.869,17.624 7.233,17.438 C7.553,17.274 7.895,17.154 8.248,17.082 C8.648,17 9.056,17 9.597,17 L16.2,17 C17.057,17 17.639,16.999 18.089,16.962 C18.527,16.927 18.752,16.862 18.908,16.782 C19.284,16.59 19.59,16.284 19.782,15.908 C19.862,15.752 19.927,15.527 19.962,15.089 C19.999,14.639 20,14.057 20,13.2 L20,7.8 C20,6.943 19.999,6.361 19.962,5.911 C19.927,5.473 19.862,5.248 19.782,5.092 C19.59,4.716 19.284,4.41 18.908,4.218 C18.752,4.138 18.527,4.073 18.089,4.038 C17.639,4.001 17.057,4 16.2,4 L7.8,4 C6.943,4 6.361,4.001 5.911,4.038 Z"/>
</svg>
