<svg xmlns="http://www.w3.org/2000/svg" width="24" height="24" viewBox="0 0 24 24">
  <defs/>
  <path d="M5,10 C5,5.023 9.059,1 14.053,1 C19.046,1 23.105,5.023 23.105,10 C23.105,11.122 22.898,12.198 22.52,13.191 C22.483,13.287 22.462,13.343 22.447,13.384 C22.445,13.389 22.443,13.394 22.442,13.398 L22.442,13.402 C22.446,13.435 22.451,13.48 22.462,13.566 L22.868,16.864 C22.886,17.016 22.908,17.189 22.913,17.339 C22.919,17.505 22.912,17.764 22.788,18.034 C22.633,18.373 22.358,18.641 22.016,18.788 C21.743,18.906 21.484,18.907 21.318,18.897 C21.168,18.889 20.996,18.864 20.844,18.841 C20.835,18.84 20.826,18.839 20.817,18.837 L17.631,18.37 C17.543,18.357 17.497,18.351 17.462,18.347 L17.458,18.346 C17.454,18.347 17.449,18.349 17.444,18.351 C17.401,18.366 17.343,18.387 17.244,18.425 C16.25,18.797 15.174,19 14.053,19 C13.873,19 13.695,18.995 13.517,18.985 C12.564,21.333 10.3,23 7.632,23 C6.904,23 6.203,22.875 5.549,22.644 C5.441,22.606 5.374,22.583 5.325,22.566 C5.316,22.563 5.309,22.561 5.303,22.559 C5.302,22.559 5.3,22.56 5.298,22.56 C5.264,22.564 5.217,22.57 5.13,22.582 L2.135,22.991 C1.811,23.035 1.486,22.918 1.264,22.677 C1.043,22.437 0.953,22.103 1.024,21.784 L1.635,19.022 C1.656,18.926 1.668,18.874 1.675,18.836 C1.675,18.834 1.676,18.832 1.676,18.83 C1.674,18.824 1.672,18.816 1.669,18.807 C1.653,18.752 1.628,18.678 1.589,18.557 C1.377,17.909 1.263,17.217 1.263,16.5 C1.263,13.874 2.796,11.591 5.018,10.57 C5.006,10.381 5,10.191 5,10 Z M7,10.031 C7.208,10.011 7.418,10 7.632,10 C11.172,10 14,12.933 14,16.5 C14,16.668 13.994,16.835 13.981,17 C14.005,17 14.029,17 14.053,17 C14.931,17 15.769,16.841 16.542,16.552 C16.556,16.546 16.57,16.541 16.585,16.535 C16.726,16.482 16.893,16.42 17.045,16.388 C17.185,16.358 17.303,16.346 17.446,16.345 C17.601,16.344 17.758,16.367 17.886,16.386 C17.898,16.388 17.91,16.39 17.921,16.392 L20.847,16.82 L20.477,13.811 C20.475,13.799 20.474,13.788 20.472,13.776 L20.472,13.775 C20.457,13.652 20.438,13.499 20.441,13.35 C20.445,13.212 20.459,13.098 20.488,12.964 C20.521,12.817 20.583,12.656 20.635,12.52 C20.64,12.505 20.646,12.492 20.651,12.478 C20.944,11.709 21.105,10.874 21.105,10 C21.105,6.14 17.954,3 14.053,3 C10.151,3 7,6.14 7,10 C7,10.01 7,10.021 7,10.031 Z M11.861,17.633 C11.952,17.272 12,16.892 12,16.5 C12,13.992 10.021,12 7.632,12 C5.242,12 3.263,13.992 3.263,16.5 C3.263,17.004 3.343,17.487 3.49,17.936 C3.496,17.954 3.502,17.972 3.508,17.991 C3.564,18.162 3.628,18.356 3.654,18.519 C3.678,18.672 3.683,18.79 3.674,18.944 C3.665,19.109 3.627,19.278 3.596,19.415 L3.588,19.454 L3.287,20.815 L4.859,20.6 C4.871,20.599 4.883,20.597 4.895,20.595 L4.895,20.595 C5.019,20.578 5.172,20.557 5.318,20.558 C5.457,20.559 5.56,20.569 5.696,20.597 C5.84,20.625 6.013,20.687 6.166,20.741 C6.183,20.747 6.199,20.753 6.215,20.758 C6.658,20.915 7.134,21 7.632,21 C9.631,21 11.343,19.606 11.849,17.681 C11.852,17.665 11.856,17.649 11.861,17.633 Z"/>
</svg>
