<svg xmlns="http://www.w3.org/2000/svg" width="24" height="24" viewBox="0 0 24 24">
  <defs/>
  <path d="M14.241,1 L14.241,1 C15.046,1 15.711,1 16.252,1.044 C16.814,1.09 17.331,1.189 17.816,1.436 C18.569,1.819 19.181,2.431 19.564,3.184 C19.811,3.669 19.91,4.186 19.956,4.748 C20,5.288 20,5.951 20,6.753 L20,10.018 C20.067,10.021 20.132,10.025 20.195,10.031 C20.59,10.063 20.984,10.134 21.362,10.327 C21.927,10.615 22.385,11.073 22.673,11.638 C22.866,12.016 22.937,12.41 22.969,12.805 C23,13.178 23,13.631 23,14.156 L23,16.952 C23,17.388 23,17.765 22.979,18.077 C22.956,18.406 22.907,18.736 22.772,19.062 C22.467,19.797 21.883,20.381 21.148,20.686 C20.822,20.821 20.492,20.87 20.162,20.893 C20.11,20.896 20.056,20.899 20,20.902 L20,22 C20,22.372 19.793,22.714 19.463,22.886 C19.133,23.059 18.735,23.034 18.429,22.821 L16.253,21.308 C15.918,21.075 15.85,21.032 15.786,21.003 C15.712,20.97 15.634,20.945 15.554,20.931 C15.485,20.918 15.405,20.914 14.997,20.914 L13.161,20.914 C12.634,20.914 12.18,20.914 11.805,20.884 C11.41,20.851 11.016,20.78 10.638,20.587 C10.074,20.3 9.615,19.841 9.327,19.276 C9.134,18.898 9.063,18.505 9.031,18.109 C9.014,17.907 9.006,17.681 9.003,17.433 L7.61,18.843 C7.418,19.037 7.231,19.227 7.066,19.367 C6.92,19.491 6.61,19.741 6.18,19.777 C5.7,19.817 5.23,19.624 4.917,19.258 C4.636,18.931 4.591,18.535 4.575,18.344 C4.556,18.129 4.556,17.862 4.556,17.589 L4.556,17.589 L4.556,16.011 C4.536,15.995 4.492,15.968 4.42,15.958 C2.672,15.702 1.298,14.328 1.042,12.58 C1,12.29 1,11.963 1,11.521 L1,11.521 L1,11.444 L1,6.759 C1,5.954 1,5.289 1.044,4.748 C1.09,4.186 1.189,3.669 1.436,3.184 C1.819,2.431 2.431,1.819 3.184,1.436 C3.669,1.189 4.186,1.09 4.748,1.044 C5.289,1 5.954,1 6.759,1 L14.241,1 Z M9,14.589 L9,14.161 C9,13.634 9,13.179 9.031,12.805 C9.063,12.41 9.134,12.016 9.327,11.638 C9.615,11.073 10.074,10.615 10.638,10.327 C11.016,10.134 11.41,10.063 11.805,10.031 C12.18,10 12.634,10 13.161,10 L18,10 L18,6.8 C18,5.943 17.999,5.361 17.962,4.911 C17.927,4.473 17.862,4.248 17.782,4.092 C17.59,3.716 17.284,3.41 16.908,3.218 C16.752,3.138 16.527,3.073 16.089,3.038 C15.639,3.001 15.057,3 14.2,3 L6.8,3 C5.943,3 5.361,3.001 4.911,3.038 C4.473,3.073 4.248,3.138 4.092,3.218 C3.716,3.41 3.41,3.716 3.218,4.092 C3.138,4.248 3.073,4.473 3.038,4.911 C3.001,5.361 3,5.943 3,6.8 L3,11.444 C3,11.996 3.003,12.164 3.021,12.29 C3.149,13.164 3.836,13.851 4.71,13.979 C5.598,14.109 6.556,14.814 6.556,15.992 L6.556,17.064 Z M11,15.001 L11,16.714 C11,17.291 11.001,17.663 11.024,17.947 C11.046,18.218 11.084,18.319 11.109,18.368 C11.205,18.556 11.358,18.709 11.546,18.805 C11.595,18.83 11.696,18.868 11.968,18.89 C12.251,18.913 12.623,18.914 13.2,18.914 L15.06,18.914 C15.371,18.914 15.645,18.914 15.917,18.964 C16.156,19.008 16.389,19.081 16.611,19.181 C16.863,19.296 17.088,19.452 17.343,19.63 C17.36,19.642 17.377,19.654 17.395,19.666 L18,20.087 L18,19.914 C18,19.362 18.448,18.914 19,18.914 C19.48,18.914 19.789,18.914 20.026,18.898 C20.254,18.882 20.341,18.855 20.383,18.838 C20.628,18.737 20.822,18.542 20.924,18.297 C20.941,18.255 20.968,18.169 20.983,17.941 C21,17.704 21,17.394 21,16.914 L21,14.2 C21,13.623 20.999,13.251 20.976,12.968 C20.954,12.696 20.916,12.595 20.891,12.546 C20.795,12.358 20.642,12.205 20.454,12.109 C20.405,12.084 20.304,12.046 20.032,12.024 C19.749,12.001 19.377,12 18.8,12 L13.2,12 C12.623,12 12.251,12.001 11.968,12.024 C11.696,12.046 11.595,12.084 11.546,12.109 C11.358,12.205 11.205,12.358 11.109,12.546 C11.084,12.595 11.046,12.696 11.024,12.968 C11.001,13.251 11,13.623 11,14.2 L11,15.001 Z"/>
</svg>
