<svg xmlns="http://www.w3.org/2000/svg" width="24" height="24" viewBox="0 0 24 24">
  <defs/>
  <path d="M3,11.5 C3,6.253 7.253,2 12.5,2 C17.746,2 22,6.253 22,11.5 C22,16.747 17.746,21 12.5,21 C11.298,21 10.146,20.776 9.085,20.368 C8.994,20.333 8.942,20.312 8.903,20.298 C8.898,20.297 8.894,20.295 8.89,20.294 L8.886,20.294 C8.855,20.297 8.811,20.301 8.729,20.31 L3.608,20.839 C3.597,20.84 3.585,20.841 3.574,20.843 C3.36,20.865 3.136,20.888 2.95,20.89 C2.764,20.892 2.429,20.882 2.108,20.686 C1.732,20.456 1.475,20.073 1.407,19.638 C1.349,19.266 1.467,18.953 1.54,18.782 C1.614,18.61 1.721,18.412 1.823,18.223 L3.475,15.165 C3.546,15.033 3.585,14.962 3.61,14.909 C3.612,14.906 3.613,14.904 3.614,14.901 C3.612,14.894 3.61,14.886 3.607,14.877 C3.585,14.803 3.552,14.704 3.495,14.536 C3.174,13.581 3,12.56 3,11.5 Z M12.5,4 C8.357,4 5,7.358 5,11.5 C5,12.34 5.137,13.146 5.391,13.897 C5.399,13.921 5.407,13.946 5.415,13.97 C5.496,14.209 5.592,14.489 5.612,14.743 C5.63,14.974 5.613,15.169 5.556,15.394 C5.494,15.639 5.367,15.873 5.264,16.062 C5.254,16.081 5.244,16.099 5.234,16.116 L3.779,18.811 L8.523,18.32 C8.534,18.319 8.545,18.318 8.556,18.317 L8.557,18.317 C8.676,18.304 8.823,18.289 8.968,18.294 C9.1,18.299 9.211,18.314 9.34,18.344 C9.482,18.377 9.636,18.436 9.765,18.486 C9.778,18.491 9.791,18.497 9.804,18.501 C10.639,18.823 11.548,19 12.5,19 C16.642,19 20,15.642 20,11.5 C20,7.358 16.642,4 12.5,4 Z M12.832,8.518 C12.541,8.468 12.242,8.523 11.988,8.672 C11.734,8.821 11.541,9.056 11.443,9.334 C11.26,9.855 10.689,10.129 10.168,9.946 C9.647,9.762 9.373,9.191 9.556,8.67 C9.811,7.947 10.313,7.337 10.975,6.948 C11.636,6.559 12.414,6.417 13.17,6.547 C13.926,6.676 14.611,7.07 15.106,7.656 C15.599,8.243 15.87,8.986 15.869,9.753 C15.868,11.032 14.922,11.855 14.299,12.27 C13.958,12.498 13.623,12.664 13.378,12.773 C13.254,12.828 13.149,12.87 13.073,12.899 C13.035,12.914 13.004,12.925 12.981,12.933 L12.952,12.943 L12.943,12.947 L12.939,12.948 L12.938,12.948 C12.938,12.948 12.937,12.949 12.621,12.001 L12.937,12.949 C12.413,13.123 11.846,12.84 11.672,12.316 C11.497,11.792 11.78,11.226 12.304,11.052 L12.302,11.052 L12.311,11.049 C12.321,11.045 12.338,11.039 12.361,11.03 C12.408,11.012 12.479,10.984 12.566,10.946 C12.742,10.867 12.969,10.753 13.19,10.606 C13.692,10.271 13.869,9.97 13.869,9.752 L13.869,9.75 C13.869,9.455 13.765,9.17 13.575,8.944 C13.386,8.719 13.122,8.568 12.832,8.518 Z M11.649,15 C11.649,14.448 12.097,14 12.649,14 L12.66,14 C13.212,14 13.66,14.448 13.66,15 C13.66,15.552 13.212,16 12.66,16 L12.649,16 C12.097,16 11.649,15.552 11.649,15 Z"/>
</svg>
