<svg xmlns="http://www.w3.org/2000/svg" width="24" height="24" viewBox="0 0 24 24">
  <defs/>
  <path d="M3,11.5 C3,6.253 7.253,2 12.5,2 C17.746,2 22,6.253 22,11.5 C22,16.747 17.746,21 12.5,21 C11.298,21 10.146,20.776 9.085,20.368 C8.994,20.333 8.942,20.312 8.903,20.298 C8.898,20.297 8.894,20.295 8.89,20.294 L8.886,20.294 C8.855,20.297 8.811,20.301 8.729,20.31 L3.608,20.839 C3.597,20.84 3.585,20.841 3.574,20.843 C3.36,20.865 3.136,20.888 2.95,20.89 C2.764,20.892 2.429,20.882 2.108,20.686 C1.732,20.456 1.475,20.073 1.407,19.638 C1.349,19.266 1.467,18.953 1.54,18.782 C1.614,18.61 1.721,18.412 1.823,18.223 L3.475,15.165 C3.546,15.033 3.585,14.962 3.61,14.909 C3.612,14.906 3.613,14.904 3.614,14.901 C3.612,14.894 3.61,14.886 3.607,14.877 C3.585,14.803 3.552,14.704 3.495,14.536 C3.174,13.581 3,12.56 3,11.5 Z M12.5,4 C8.357,4 5,7.358 5,11.5 C5,12.34 5.137,13.146 5.391,13.897 C5.399,13.921 5.407,13.946 5.415,13.97 C5.496,14.209 5.592,14.489 5.612,14.743 C5.63,14.974 5.613,15.169 5.556,15.394 C5.494,15.639 5.367,15.873 5.264,16.062 C5.254,16.081 5.244,16.099 5.234,16.116 L3.779,18.811 L8.523,18.32 C8.534,18.319 8.545,18.318 8.556,18.317 L8.557,18.317 C8.676,18.304 8.823,18.289 8.968,18.294 C9.1,18.299 9.211,18.314 9.34,18.344 C9.482,18.377 9.636,18.436 9.765,18.486 C9.778,18.491 9.791,18.497 9.804,18.501 C10.639,18.823 11.548,19 12.5,19 C16.642,19 20,15.642 20,11.5 C20,7.358 16.642,4 12.5,4 Z M12.496,7.624 C13.706,6.807 15.337,6.724 16.658,7.809 C18.235,9.103 18.425,11.324 17.21,12.867 C16.596,13.648 15.144,14.984 14.199,15.832 L14.177,15.851 C14.018,15.993 13.858,16.137 13.709,16.25 C13.541,16.378 13.335,16.508 13.073,16.587 C12.702,16.699 12.291,16.699 11.92,16.587 C11.658,16.508 11.452,16.378 11.284,16.25 C11.135,16.137 10.975,15.994 10.816,15.851 L10.794,15.832 C9.849,14.984 8.397,13.648 7.783,12.867 C6.559,11.312 6.791,9.112 8.324,7.818 C9.638,6.709 11.284,6.806 12.496,7.624 Z M11.741,9.604 C11.137,8.906 10.254,8.807 9.614,9.346 C8.892,9.955 8.807,10.936 9.354,11.631 C9.837,12.244 11.138,13.454 12.129,14.342 C12.319,14.512 12.417,14.6 12.493,14.657 C12.494,14.658 12.495,14.659 12.497,14.66 L12.5,14.657 C12.576,14.6 12.674,14.512 12.864,14.342 C13.855,13.454 15.156,12.244 15.639,11.631 C16.194,10.924 16.106,9.944 15.389,9.355 C14.72,8.806 13.849,8.915 13.252,9.604 C13.062,9.823 12.787,9.949 12.497,9.949 C12.206,9.949 11.931,9.823 11.741,9.604 Z"/>
</svg>
