<svg xmlns="http://www.w3.org/2000/svg" width="24" height="24" viewBox="0 0 24 24">
  <defs/>
  <path d="M3,11.5 C3,6.253 7.253,2 12.5,2 C17.746,2 22,6.253 22,11.5 C22,16.747 17.746,21 12.5,21 C11.298,21 10.146,20.776 9.085,20.368 C8.994,20.333 8.942,20.312 8.903,20.298 C8.898,20.297 8.894,20.295 8.89,20.294 L8.886,20.294 C8.855,20.297 8.811,20.301 8.729,20.31 L3.608,20.839 C3.597,20.84 3.585,20.841 3.574,20.843 C3.36,20.865 3.136,20.888 2.95,20.89 C2.764,20.892 2.429,20.882 2.108,20.686 C1.732,20.456 1.475,20.073 1.407,19.638 C1.349,19.266 1.467,18.953 1.54,18.782 C1.614,18.61 1.721,18.412 1.823,18.223 L3.475,15.165 C3.546,15.033 3.585,14.962 3.61,14.909 C3.612,14.906 3.613,14.904 3.614,14.901 C3.612,14.894 3.61,14.886 3.607,14.877 C3.585,14.803 3.552,14.704 3.495,14.536 C3.174,13.581 3,12.56 3,11.5 Z M12.5,4 C8.357,4 5,7.358 5,11.5 C5,12.34 5.137,13.146 5.391,13.897 C5.399,13.921 5.407,13.946 5.415,13.97 C5.496,14.209 5.592,14.489 5.612,14.743 C5.63,14.974 5.613,15.169 5.556,15.394 C5.494,15.639 5.367,15.873 5.264,16.062 C5.254,16.081 5.244,16.099 5.234,16.116 L3.779,18.811 L8.523,18.32 C8.534,18.319 8.545,18.318 8.556,18.317 L8.557,18.317 C8.676,18.304 8.823,18.289 8.968,18.294 C9.1,18.299 9.211,18.314 9.34,18.344 C9.482,18.377 9.636,18.436 9.765,18.486 C9.778,18.491 9.791,18.497 9.804,18.501 C10.639,18.823 11.548,19 12.5,19 C16.642,19 20,15.642 20,11.5 C20,7.358 16.642,4 12.5,4 Z M12.5,7.5 C13.052,7.5 13.5,7.948 13.5,8.5 L13.5,10.5 L15.5,10.5 C16.052,10.5 16.5,10.948 16.5,11.5 C16.5,12.052 16.052,12.5 15.5,12.5 L13.5,12.5 L13.5,14.5 C13.5,15.052 13.052,15.5 12.5,15.5 C11.947,15.5 11.5,15.052 11.5,14.5 L11.5,12.5 L9.5,12.5 C8.947,12.5 8.5,12.052 8.5,11.5 C8.5,10.948 8.947,10.5 9.5,10.5 L11.5,10.5 L11.5,8.5 C11.5,7.948 11.947,7.5 12.5,7.5 Z"/>
</svg>
