<svg xmlns="http://www.w3.org/2000/svg" width="24" height="24" viewBox="0 0 24 24">
  <defs/>
  <path d="M3,11.5 C3,6.253 7.253,2 12.5,2 C17.746,2 22,6.253 22,11.5 C22,16.747 17.746,21 12.5,21 C11.298,21 10.146,20.776 9.085,20.368 C8.994,20.333 8.942,20.312 8.903,20.298 C8.898,20.297 8.894,20.295 8.89,20.294 L8.886,20.294 C8.855,20.297 8.811,20.301 8.729,20.31 L3.608,20.839 C3.597,20.84 3.585,20.841 3.574,20.843 C3.36,20.865 3.136,20.888 2.95,20.89 C2.764,20.892 2.429,20.882 2.108,20.686 C1.732,20.456 1.475,20.073 1.407,19.638 C1.349,19.266 1.467,18.953 1.54,18.782 C1.614,18.61 1.721,18.412 1.823,18.223 L3.475,15.165 C3.546,15.033 3.585,14.962 3.61,14.909 C3.612,14.906 3.613,14.904 3.614,14.901 C3.612,14.894 3.61,14.886 3.607,14.877 C3.585,14.803 3.552,14.704 3.495,14.536 C3.174,13.581 3,12.56 3,11.5 Z M12.5,4 C8.357,4 5,7.358 5,11.5 C5,12.34 5.137,13.146 5.391,13.897 C5.399,13.921 5.407,13.946 5.415,13.97 C5.496,14.209 5.592,14.489 5.612,14.743 C5.63,14.974 5.613,15.169 5.556,15.394 C5.494,15.639 5.367,15.873 5.264,16.062 C5.254,16.081 5.244,16.099 5.234,16.116 L3.779,18.811 L8.523,18.32 C8.534,18.319 8.545,18.318 8.556,18.317 L8.557,18.317 C8.676,18.304 8.823,18.289 8.968,18.294 C9.1,18.299 9.211,18.314 9.34,18.344 C9.482,18.377 9.636,18.436 9.765,18.486 C9.778,18.491 9.791,18.497 9.804,18.501 C10.639,18.823 11.548,19 12.5,19 C16.642,19 20,15.642 20,11.5 C20,7.358 16.642,4 12.5,4 Z M15.251,13.337 C15.616,12.925 16.244,12.885 16.658,13.247 C17.074,13.611 17.116,14.243 16.752,14.658 L16,14 C16.752,14.658 16.751,14.66 16.751,14.66 L16.75,14.661 L16.747,14.665 L16.74,14.673 L16.719,14.695 C16.702,14.713 16.681,14.736 16.653,14.764 C16.599,14.819 16.523,14.894 16.427,14.98 C16.235,15.152 15.957,15.376 15.599,15.599 C14.885,16.044 13.828,16.5 12.5,16.5 C11.171,16.5 10.114,16.044 9.4,15.599 C9.043,15.376 8.764,15.152 8.572,14.98 C8.476,14.894 8.4,14.819 8.346,14.764 C8.319,14.736 8.297,14.713 8.28,14.695 L8.26,14.673 L8.252,14.665 L8.248,14.659 C7.884,14.243 7.925,13.611 8.341,13.247 C8.755,12.885 9.383,12.925 9.747,13.336 L9.749,13.338 C9.753,13.342 9.762,13.352 9.775,13.365 C9.801,13.391 9.845,13.435 9.905,13.489 C10.028,13.598 10.214,13.749 10.458,13.901 C10.947,14.206 11.641,14.5 12.5,14.5 C13.358,14.5 14.052,14.206 14.541,13.901 C14.785,13.749 14.971,13.598 15.094,13.489 C15.154,13.435 15.198,13.391 15.224,13.365 C15.237,13.352 15.247,13.342 15.25,13.338 L15.25,13.338 L15.251,13.337 Z M8.25,9 C8.25,8.172 8.921,7.5 9.75,7.5 C10.578,7.5 11.25,8.172 11.25,9 C11.25,9.828 10.578,10.5 9.75,10.5 C8.921,10.5 8.25,9.828 8.25,9 Z M13.75,9 C13.75,8.172 14.421,7.5 15.25,7.5 C16.078,7.5 16.75,8.172 16.75,9 C16.75,9.828 16.078,10.5 15.25,10.5 C14.421,10.5 13.75,9.828 13.75,9 Z M9,14 C8.25,14.656 8.247,14.659 8.248,14.659 Z"/>
</svg>
