<svg xmlns="http://www.w3.org/2000/svg" width="24" height="24" viewBox="0 0 24 24">
  <defs/>
  <path d="M1.293,1.293 C1.683,0.902 2.317,0.902 2.707,1.293 L18.776,17.362 C18.777,17.363 18.778,17.364 18.779,17.365 C18.827,17.405 18.87,17.448 18.908,17.494 L22.707,21.293 C23.098,21.683 23.098,22.317 22.707,22.707 C22.317,23.098 21.683,23.098 21.293,22.707 L18.153,19.568 C16.545,21.075 14.38,22 12,22 C7.029,22 3,17.971 3,13 L3,12 C3,11.448 3.448,11 4,11 C4.552,11 5,11.448 5,12 L5,13 C5,16.866 8.134,20 12,20 C13.828,20 15.491,19.301 16.738,18.153 L15.322,16.736 C14.44,17.522 13.276,18 12,18 C9.239,18 7,15.761 7,13 L7,8.414 L1.293,2.707 C0.902,2.317 0.902,1.683 1.293,1.293 Z M8.838,3.127 C9.699,2.423 10.802,2 12,2 C14.761,2 17,4.239 17,7 L17,10.4 C17,10.952 16.552,11.4 16,11.4 C15.448,11.4 15,10.952 15,10.4 L15,7 C15,5.343 13.657,4 12,4 C11.28,4 10.621,4.253 10.104,4.675 C9.676,5.025 9.046,4.961 8.696,4.534 C8.347,4.106 8.41,3.476 8.838,3.127 Z M9,10.416 L9,13 C9,14.657 10.343,16 12,16 C12.721,16 13.383,15.746 13.901,15.321 Z"/>
</svg>
