<svg xmlns="http://www.w3.org/2000/svg" width="24" height="24" viewBox="0 0 24 24">
  <defs/>
  <path d="M1.293,1.293 C1.683,0.902 2.317,0.902 2.707,1.293 L14.83,13.413 C14.844,13.427 14.858,13.442 14.871,13.457 L16.891,15.476 C17.589,14.496 18,13.296 18,12 L18,10 C18,9.448 18.448,9 19,9 C19.552,9 20,9.448 20,10 L20,12 C20,13.849 19.373,15.551 18.32,16.906 L22.707,21.293 C23.098,21.683 23.098,22.317 22.707,22.707 C22.317,23.098 21.683,23.098 21.293,22.707 L16.906,18.32 C15.799,19.18 14.461,19.756 13,19.938 L13,21 L16,21 C16.552,21 17,21.448 17,22 C17,22.552 16.552,23 16,23 L8,23 C7.448,23 7,22.552 7,22 C7,21.448 7.448,21 8,21 L11,21 L11,19.938 C7.054,19.446 4,16.08 4,12 L4,10 C4,9.448 4.448,9 5,9 C5.552,9 6,9.448 6,10 L6,12 C6,15.314 8.686,18 12,18 C13.296,18 14.496,17.589 15.476,16.891 L14.032,15.446 C13.436,15.798 12.741,16 12,16 C9.791,16 8,14.209 8,12 L8,9.414 L1.293,2.707 C0.902,2.317 0.902,1.683 1.293,1.293 Z M8.417,3.221 C9.07,1.907 10.428,1 12,1 C14.209,1 16,2.791 16,5 L16,9.4 C16,9.952 15.552,10.4 15,10.4 C14.448,10.4 14,9.952 14,9.4 L14,5 C14,3.895 13.105,3 12,3 C11.216,3 10.536,3.451 10.208,4.111 C9.962,4.606 9.361,4.807 8.867,4.561 C8.372,4.315 8.171,3.715 8.417,3.221 Z M10,11.414 L10,12 C10,13.105 10.895,14 12,14 C12.179,14 12.353,13.976 12.518,13.932 Z"/>
</svg>
