<svg xmlns="http://www.w3.org/2000/svg" width="24" height="24" viewBox="0 0 24 24">
  <defs/>
  <path d="M3,5.5 C3,3.015 5.015,1 7.5,1 C9.836,1 11.756,2.78 11.979,5.057 C12.314,5.019 12.655,5 13,5 C17.971,5 22,9.029 22,14 C22,17.779 19.672,21.011 16.375,22.345 C15.863,22.553 15.28,22.306 15.073,21.794 C14.866,21.282 15.113,20.699 15.625,20.492 C18.192,19.452 20,16.936 20,14 C20,10.134 16.866,7 13,7 C12.66,7 12.326,7.024 12,7.071 L12,12.764 C12.475,13.189 12.813,13.763 12.942,14.415 C13.001,14.707 13,15.035 13,15.415 L13,15.416 L13,15.584 L13,15.585 C13,15.965 13.001,16.293 12.942,16.585 C12.706,17.775 11.775,18.706 10.585,18.942 C10.293,19.001 9.965,19 9.585,19 L5.415,19 C5.035,19 4.707,19.001 4.415,18.942 C3.225,18.706 2.294,17.775 2.058,16.585 C1.999,16.292 2,15.965 2,15.584 L2,15.584 C2,15.556 2,15.528 2,15.5 C2,15.472 2,15.444 2,15.416 L2,15.416 C2,15.035 1.999,14.708 2.058,14.415 C2.187,13.763 2.525,13.189 3,12.764 Z M5.416,12 L9.584,12 C9.638,12 9.692,12 9.744,12 L10,12 L10,6.273 C10,6.259 10,6.244 10,6.229 L10,5.5 C10,4.119 8.881,3 7.5,3 C6.119,3 5,4.119 5,5.5 L5,12 L5.256,12 C5.308,12 5.362,12 5.416,12 Z M2,22 C2,21.448 2.448,21 3,21 L12,21 C12.552,21 13,21.448 13,22 C13,22.552 12.552,23 12,23 L3,23 C2.448,23 2,22.552 2,22 Z M5.5,14 C4.988,14 4.877,14.005 4.805,14.019 C4.408,14.098 4.098,14.408 4.019,14.805 C4.005,14.877 4,14.987 4,15.5 C4,16.013 4.005,16.123 4.019,16.195 C4.098,16.592 4.408,16.902 4.805,16.981 C4.877,16.995 4.988,17 5.5,17 L9.5,17 C10.013,17 10.123,16.995 10.195,16.981 C10.592,16.902 10.902,16.592 10.981,16.195 C10.995,16.123 11,16.013 11,15.5 C11,14.987 10.995,14.877 10.981,14.805 C10.902,14.408 10.592,14.098 10.195,14.019 C10.123,14.005 10.013,14 9.5,14 Z"/>
</svg>
