<svg xmlns="http://www.w3.org/2000/svg" width="24" height="24" viewBox="0 0 24 24">
  <defs/>
  <path d="M8,5 C8,2.791 9.791,1 12,1 C14.209,1 16,2.791 16,5 L16,12 C16,14.209 14.209,16 12,16 C9.791,16 8,14.209 8,12 Z M5,9 C5.552,9 6,9.448 6,10 L6,12 C6,15.314 8.686,18 12,18 C15.314,18 18,15.314 18,12 L18,10 C18,9.448 18.448,9 19,9 C19.552,9 20,9.448 20,10 L20,12 C20,16.08 16.946,19.446 13,19.938 L13,21 L16,21 C16.552,21 17,21.448 17,22 C17,22.552 16.552,23 16,23 L8,23 C7.448,23 7,22.552 7,22 C7,21.448 7.448,21 8,21 L11,21 L11,19.938 C7.054,19.446 4,16.08 4,12 L4,10 C4,9.448 4.448,9 5,9 Z M12,3 C10.895,3 10,3.895 10,5 L10,12 C10,13.105 10.895,14 12,14 C13.105,14 14,13.105 14,12 L14,5 C14,3.895 13.105,3 12,3 Z"/>
</svg>
