<svg xmlns="http://www.w3.org/2000/svg" width="24" height="24" viewBox="0 0 24 24">
  <defs/>
  <path d="M7,7 C7,4.239 9.239,2 12,2 C14.761,2 17,4.239 17,7 L17,13 C17,15.761 14.761,18 12,18 C9.239,18 7,15.761 7,13 Z M12,4 C10.343,4 9,5.343 9,7 L9,13 C9,14.657 10.343,16 12,16 C13.657,16 15,14.657 15,13 L15,7 C15,5.343 13.657,4 12,4 Z M4,11 C4.552,11 5,11.448 5,12 L5,13 C5,16.866 8.134,20 12,20 C15.866,20 19,16.866 19,13 L19,12 C19,11.448 19.448,11 20,11 C20.552,11 21,11.448 21,12 L21,13 C21,17.971 16.971,22 12,22 C7.029,22 3,17.971 3,13 L3,12 C3,11.448 3.448,11 4,11 Z"/>
</svg>
