<svg xmlns="http://www.w3.org/2000/svg" width="24" height="24" viewBox="0 0 24 24">
  <defs/>
  <path d="M8,2 C8.552,2 9,2.448 9,3 L9,3.241 C9,4.046 9,4.711 8.956,5.252 C8.91,5.814 8.811,6.331 8.564,6.816 C8.18,7.569 7.568,8.181 6.816,8.564 C6.331,8.811 5.814,8.91 5.252,8.956 C4.711,9 4.046,9 3.241,9 L3,9 C2.448,9 2,8.552 2,8 C2,7.448 2.448,7 3,7 L3.2,7 C4.056,7 4.639,6.999 5.089,6.962 C5.527,6.927 5.751,6.862 5.908,6.782 C6.284,6.59 6.59,6.284 6.782,5.908 C6.862,5.752 6.927,5.527 6.962,5.089 C6.999,4.639 7,4.057 7,3.2 L7,3 C7,2.448 7.448,2 8,2 Z M2,16 C2,15.448 2.448,15 3,15 L3.241,15 C4.046,15 4.71,15 5.252,15.044 C5.814,15.09 6.331,15.189 6.816,15.436 C7.568,15.819 8.18,16.431 8.564,17.184 C8.811,17.669 8.91,18.186 8.956,18.748 C9,19.289 9,19.954 9,20.759 L9,21 C9,21.552 8.552,22 8,22 C7.448,22 7,21.552 7,21 L7,20.8 C7,19.943 6.999,19.361 6.962,18.911 C6.927,18.473 6.862,18.248 6.782,18.092 C6.59,17.716 6.284,17.41 5.908,17.218 C5.751,17.138 5.527,17.073 5.089,17.038 C4.639,17.001 4.056,17 3.2,17 L3,17 C2.448,17 2,16.552 2,16 Z M16,2 C16.552,2 17,2.448 17,3 L17,3.2 C17,4.057 17.001,4.639 17.037,5.089 C17.073,5.527 17.138,5.752 17.218,5.908 C17.41,6.284 17.716,6.59 18.092,6.782 C18.248,6.862 18.472,6.927 18.911,6.962 C19.361,6.999 19.943,7 20.8,7 L21,7 C21.552,7 22,7.448 22,8 C22,8.552 21.552,9 21,9 L20.758,9 C19.954,9 19.289,9 18.748,8.956 C18.186,8.91 17.669,8.811 17.184,8.564 C16.431,8.181 15.819,7.569 15.436,6.816 C15.189,6.331 15.09,5.814 15.044,5.252 C15,4.711 15,4.046 15,3.241 L15,3 C15,2.448 15.448,2 16,2 Z M20.759,15 L21,15 C21.552,15 22,15.448 22,16 C22,16.552 21.552,17 21,17 L20.8,17 C19.943,17 19.361,17.001 18.911,17.038 C18.472,17.073 18.248,17.138 18.092,17.218 C17.716,17.41 17.41,17.716 17.218,18.092 C17.138,18.248 17.073,18.473 17.037,18.911 C17.001,19.361 17,19.943 17,20.8 L17,21 C17,21.552 16.552,22 16,22 C15.448,22 15,21.552 15,21 L15,20.759 C15,19.954 15,19.289 15.044,18.748 C15.09,18.186 15.189,17.669 15.436,17.184 C15.819,16.431 16.431,15.819 17.184,15.436 C17.669,15.189 18.186,15.09 18.748,15.044 C19.289,15 19.954,15 20.759,15 Z"/>
</svg>
