<svg xmlns="http://www.w3.org/2000/svg" width="24" height="24" viewBox="0 0 24 24">
  <defs/>
  <path d="M3,14 C3,13.448 3.448,13 4,13 L10,13 C10.552,13 11,13.448 11,14 L11,20 C11,20.552 10.552,21 10,21 C9.448,21 9,20.552 9,20 L9,16.414 L3.707,21.707 C3.317,22.098 2.683,22.098 2.293,21.707 C1.902,21.317 1.902,20.683 2.293,20.293 L7.586,15 L4,15 C3.448,15 3,14.552 3,14 Z M20.293,2.293 C20.683,1.902 21.317,1.902 21.707,2.293 C22.098,2.683 22.098,3.317 21.707,3.707 L16.414,9 L20,9 C20.552,9 21,9.448 21,10 C21,10.552 20.552,11 20,11 L14,11 C13.448,11 13,10.552 13,10 L13,4 C13,3.448 13.448,3 14,3 C14.552,3 15,3.448 15,4 L15,7.586 Z"/>
</svg>
