<svg xmlns="http://www.w3.org/2000/svg" width="24" height="24" viewBox="0 0 24 24">
  <defs/>
  <path d="M12,8 C12.552,8 13,8.448 13,9 L13,14 L18.838,14 C19.366,14 19.82,14 20.195,14.031 C20.59,14.063 20.983,14.134 21.362,14.327 C21.926,14.615 22.385,15.073 22.673,15.638 C22.866,16.016 22.937,16.41 22.969,16.805 C23,17.18 23,17.634 23,18.161 L23,18.838 C23,19.366 23,19.82 22.969,20.195 C22.937,20.59 22.866,20.983 22.673,21.362 C22.385,21.926 21.926,22.385 21.362,22.673 C20.983,22.866 20.59,22.937 20.195,22.969 C19.82,23 19.366,23 18.838,23 L5.161,23 C4.634,23 4.179,23 3.805,22.969 C3.41,22.937 3.016,22.866 2.638,22.673 C2.073,22.385 1.614,21.926 1.327,21.362 C1.134,20.983 1.063,20.59 1.03,20.195 C1,19.82 1,19.366 1,18.838 L1,18.161 C1,17.634 1,17.179 1.03,16.805 C1.063,16.41 1.134,16.016 1.327,15.638 C1.614,15.073 2.073,14.615 2.638,14.327 C3.016,14.134 3.41,14.063 3.805,14.031 C4.179,14 4.634,14 5.161,14 L11,14 L11,9 C11,8.448 11.448,8 12,8 Z M5.2,16 C4.623,16 4.251,16.001 3.968,16.024 C3.696,16.046 3.595,16.084 3.546,16.109 C3.358,16.205 3.205,16.358 3.109,16.546 C3.084,16.595 3.046,16.696 3.024,16.968 C3.001,17.251 3,17.623 3,18.2 L3,18.8 C3,19.376 3.001,19.749 3.024,20.032 C3.046,20.304 3.084,20.404 3.109,20.454 C3.205,20.642 3.358,20.795 3.546,20.891 C3.595,20.916 3.696,20.954 3.968,20.976 C4.251,20.999 4.623,21 5.2,21 L18.8,21 C19.376,21 19.749,20.999 20.032,20.976 C20.304,20.954 20.404,20.916 20.454,20.891 C20.642,20.795 20.795,20.642 20.891,20.454 C20.916,20.404 20.954,20.304 20.976,20.032 C20.999,19.749 21,19.376 21,18.8 L21,18.2 C21,17.623 20.999,17.251 20.976,16.968 C20.954,16.696 20.916,16.595 20.891,16.546 C20.795,16.358 20.642,16.205 20.454,16.109 C20.404,16.084 20.304,16.046 20.032,16.024 C19.749,16.001 19.376,16 18.8,16 Z M18.894,1.691 C19.31,1.329 19.942,1.373 20.305,1.79 C22.771,4.627 23.542,8.424 22.62,11.859 C22.477,12.392 21.929,12.708 21.396,12.566 C20.862,12.422 20.546,11.874 20.689,11.341 C21.444,8.526 20.81,5.42 18.795,3.102 C18.433,2.685 18.477,2.054 18.894,1.691 Z M5.103,1.691 C5.519,2.054 5.563,2.685 5.201,3.102 C3.186,5.42 2.553,8.526 3.308,11.341 C3.451,11.874 3.134,12.422 2.601,12.565 C2.067,12.708 1.519,12.392 1.376,11.859 C0.455,8.424 1.225,4.627 3.692,1.79 C4.054,1.373 4.686,1.329 5.103,1.691 Z M16.091,4.499 C16.524,4.157 17.153,4.23 17.496,4.663 C18.899,6.438 19.319,8.733 18.761,10.816 C18.618,11.35 18.07,11.667 17.536,11.524 C17.003,11.381 16.686,10.833 16.829,10.299 C17.229,8.806 16.926,7.168 15.927,5.904 C15.584,5.471 15.658,4.842 16.091,4.499 Z M7.909,4.499 C8.342,4.842 8.416,5.471 8.073,5.904 C7.074,7.168 6.771,8.806 7.171,10.299 C7.313,10.833 6.997,11.381 6.463,11.524 C5.93,11.667 5.382,11.35 5.239,10.816 C4.681,8.733 5.1,6.438 6.504,4.663 C6.847,4.23 7.476,4.157 7.909,4.499 Z M4.5,18.5 C4.5,17.948 4.948,17.5 5.5,17.5 L9.5,17.5 C10.052,17.5 10.5,17.948 10.5,18.5 C10.5,19.052 10.052,19.5 9.5,19.5 L5.5,19.5 C4.948,19.5 4.5,19.052 4.5,18.5 Z"/>
</svg>
