<svg xmlns="http://www.w3.org/2000/svg" width="24" height="24" viewBox="0 0 24 24">
  <defs/>
  <path d="M5.636,1.222 C6.026,1.612 6.026,2.246 5.636,2.636 C2.24,6.032 2.125,11.466 5.291,15 L11,15 L11,9 C11,8.448 11.448,8 12,8 C12.552,8 13,8.448 13,9 L13,15 L18.709,15 C21.875,11.466 21.76,6.032 18.364,2.636 C17.974,2.246 17.974,1.612 18.364,1.222 C18.755,0.831 19.388,0.831 19.778,1.222 C23.582,5.025 24.018,10.921 21.086,15.204 C21.107,15.212 21.127,15.22 21.148,15.228 C21.883,15.533 22.467,16.117 22.772,16.852 C22.907,17.178 22.956,17.508 22.979,17.838 C23,18.151 23,18.529 23,18.968 L23,19.032 C23,19.471 23,19.849 22.979,20.162 C22.956,20.492 22.907,20.822 22.772,21.148 C22.467,21.883 21.883,22.467 21.148,22.772 C20.822,22.907 20.492,22.956 20.162,22.979 C19.849,23 19.471,23 19.032,23 L4.968,23 C4.529,23 4.151,23 3.838,22.979 C3.508,22.956 3.178,22.907 2.852,22.772 C2.117,22.467 1.533,21.883 1.228,21.148 C1.093,20.822 1.044,20.492 1.021,20.162 C1,19.849 1,19.471 1,19.032 L1,18.968 C1,18.529 1,18.151 1.021,17.838 C1.044,17.508 1.093,17.178 1.228,16.852 C1.533,16.117 2.117,15.533 2.852,15.228 C2.873,15.22 2.893,15.212 2.914,15.204 C-0.018,10.921 0.418,5.025 4.222,1.222 C4.612,0.831 5.245,0.831 5.636,1.222 Z M5,17 C4.52,17 4.211,17 3.974,17.017 C3.746,17.032 3.659,17.059 3.617,17.076 C3.372,17.178 3.178,17.372 3.076,17.617 C3.059,17.659 3.032,17.746 3.017,17.974 C3.001,18.211 3,18.52 3,19 C3,19.48 3.001,19.789 3.017,20.026 C3.032,20.254 3.059,20.341 3.076,20.383 C3.178,20.628 3.372,20.822 3.617,20.924 C3.659,20.941 3.746,20.968 3.974,20.983 C4.211,21 4.52,21 5,21 L19,21 C19.48,21 19.789,21 20.026,20.983 C20.254,20.968 20.341,20.941 20.383,20.924 C20.628,20.822 20.822,20.628 20.924,20.383 C20.941,20.341 20.968,20.254 20.983,20.026 C20.999,19.789 21,19.48 21,19 C21,18.52 20.999,18.211 20.983,17.974 C20.968,17.746 20.941,17.659 20.924,17.617 C20.822,17.372 20.628,17.178 20.383,17.076 C20.341,17.059 20.254,17.032 20.026,17.017 C19.789,17 19.48,17 19,17 Z M15.535,4.05 C15.926,3.66 16.559,3.66 16.95,4.05 C19.683,6.784 19.683,11.216 16.95,13.95 C16.559,14.34 15.926,14.34 15.535,13.95 C15.145,13.559 15.145,12.926 15.535,12.535 C17.488,10.583 17.488,7.417 15.535,5.464 C15.145,5.074 15.145,4.441 15.535,4.05 Z M8.464,4.05 C8.855,4.441 8.855,5.074 8.464,5.464 C6.512,7.417 6.512,10.583 8.464,12.535 C8.855,12.926 8.855,13.559 8.464,13.95 C8.074,14.34 7.441,14.34 7.05,13.95 C4.317,11.216 4.317,6.784 7.05,4.05 C7.441,3.66 8.074,3.66 8.464,4.05 Z"/>
</svg>
