<svg xmlns="http://www.w3.org/2000/svg" width="24" height="24" viewBox="0 0 24 24">
  <defs/>
  <path d="M15.161,3 L18.838,3 C19.366,3 19.82,3 20.195,3.031 C20.59,3.063 20.984,3.134 21.362,3.327 C21.927,3.615 22.385,4.074 22.673,4.638 C22.866,5.016 22.937,5.41 22.969,5.805 C23,6.18 23,6.634 23,7.161 L23,16.839 C23,17.366 23,17.82 22.969,18.195 C22.937,18.59 22.866,18.984 22.673,19.362 C22.385,19.927 21.927,20.385 21.362,20.673 C20.984,20.866 20.59,20.937 20.195,20.969 C19.82,21 19.366,21 18.839,21 L15.161,21 C14.634,21 14.179,21 13.805,20.969 C13.41,20.937 13.016,20.866 12.638,20.673 C12.073,20.385 11.615,19.927 11.327,19.362 C11.134,18.984 11.063,18.59 11.031,18.195 C11,17.82 11,17.366 11,16.838 L11,7.161 C11,6.634 11,6.18 11.031,5.805 C11.063,5.41 11.134,5.016 11.327,4.638 C11.615,4.074 12.073,3.615 12.638,3.327 C13.016,3.134 13.41,3.063 13.805,3.031 C14.179,3 14.634,3 15.161,3 Z M13.968,5.024 C13.696,5.046 13.595,5.084 13.546,5.109 C13.358,5.205 13.205,5.358 13.109,5.546 C13.084,5.595 13.046,5.696 13.024,5.968 C13.001,6.251 13,6.623 13,7.2 L13,16.8 C13,17.377 13.001,17.749 13.024,18.032 C13.046,18.304 13.084,18.404 13.109,18.454 C13.205,18.642 13.358,18.795 13.546,18.891 C13.595,18.916 13.696,18.954 13.968,18.976 C14.251,18.999 14.623,19 15.2,19 L18.8,19 C19.377,19 19.749,18.999 20.032,18.976 C20.304,18.954 20.404,18.916 20.454,18.891 C20.642,18.795 20.795,18.642 20.891,18.454 C20.916,18.404 20.954,18.304 20.976,18.032 C20.999,17.749 21,17.377 21,16.8 L21,7.2 C21,6.623 20.999,6.251 20.976,5.968 C20.954,5.696 20.916,5.595 20.891,5.546 C20.795,5.358 20.642,5.205 20.454,5.109 C20.405,5.084 20.304,5.046 20.032,5.024 C19.749,5.001 19.377,5 18.8,5 L15.2,5 C14.623,5 14.251,5.001 13.968,5.024 Z M5.161,5 L8,5 C8.552,5 9,5.448 9,6 C9,6.552 8.552,7 8,7 L5.2,7 C4.623,7 4.251,7.001 3.968,7.024 C3.696,7.046 3.595,7.084 3.546,7.109 C3.358,7.205 3.205,7.358 3.109,7.546 C3.084,7.595 3.046,7.696 3.024,7.968 C3.001,8.251 3,8.623 3,9.2 L3,12.8 C3,13.377 3.001,13.749 3.024,14.032 C3.046,14.304 3.084,14.405 3.109,14.454 C3.205,14.642 3.358,14.795 3.546,14.891 C3.595,14.916 3.696,14.954 3.968,14.976 C4.251,14.999 4.623,15 5.2,15 L8,15 C8.552,15 9,15.448 9,16 C9,16.552 8.552,17 8,17 L5.161,17 C4.634,17 4.18,17 3.805,16.969 C3.41,16.937 3.016,16.866 2.638,16.673 C2.074,16.385 1.615,15.927 1.327,15.362 C1.134,14.984 1.063,14.59 1.031,14.195 C1,13.821 1,13.366 1,12.839 L1,9.161 C1,8.634 1,8.18 1.031,7.805 C1.063,7.41 1.134,7.016 1.327,6.638 C1.615,6.074 2.074,5.615 2.638,5.327 C3.016,5.134 3.41,5.063 3.805,5.031 C4.18,5 4.634,5 5.161,5 Z M15,15 C15,13.895 15.895,13 17,13 C18.105,13 19,13.895 19,15 C19,16.105 18.105,17 17,17 C15.895,17 15,16.105 15,15 Z M4.5,20 C4.5,19.448 4.948,19 5.5,19 L8,19 C8.552,19 9,19.448 9,20 C9,20.552 8.552,21 8,21 L5.5,21 C4.948,21 4.5,20.552 4.5,20 Z M16,9 C16,8.448 16.448,8 17,8 L17.01,8 C17.562,8 18.01,8.448 18.01,9 C18.01,9.552 17.562,10 17.01,10 L17,10 C16.448,10 16,9.552 16,9 Z"/>
</svg>
