<svg xmlns="http://www.w3.org/2000/svg" width="24" height="24" viewBox="0 0 24 24">
  <defs/>
  <path d="M11.998,1.743 C12.14,2.193 11.949,2.68 11.54,2.914 C9.423,4.12 8,6.394 8,9 C8,12.866 11.134,16 15,16 C17.605,16 19.88,14.577 21.086,12.461 C21.319,12.052 21.807,11.861 22.256,12.003 C22.706,12.145 22.995,12.582 22.95,13.051 C22.421,18.633 17.721,23 12,23 C5.925,23 1,18.075 1,12 C1,6.279 5.367,1.579 10.95,1.049 C11.419,1.005 11.856,1.294 11.998,1.743 Z M7.315,4.314 C4.727,5.894 3,8.746 3,12 C3,16.97 7.029,21 12,21 C15.254,21 18.105,19.273 19.686,16.685 C18.321,17.519 16.717,18 15,18 C10.029,18 6,13.971 6,9 C6,7.283 6.481,5.678 7.315,4.314 Z"/>
</svg>
