<svg xmlns="http://www.w3.org/2000/svg" width="24" height="24" viewBox="0 0 24 24">
  <defs/>
  <path d="M11.565,2.698 C11.707,3.148 11.516,3.635 11.107,3.869 C9.106,5.009 7.761,7.159 7.761,9.622 C7.761,13.277 10.723,16.24 14.378,16.24 C16.841,16.24 18.991,14.894 20.131,12.894 C20.365,12.485 20.852,12.294 21.302,12.436 C21.751,12.578 22.04,13.015 21.996,13.484 C21.489,18.824 16.993,23 11.521,23 C5.711,23 1,18.289 1,12.479 C1,7.006 5.177,2.511 10.517,2.004 C10.986,1.96 11.423,2.249 11.565,2.698 Z M6.918,5.306 C4.561,6.822 3,9.468 3,12.479 C3,17.185 6.815,21 11.521,21 C14.532,21 17.178,19.439 18.694,17.082 C17.425,17.818 15.951,18.24 14.378,18.24 C9.619,18.24 5.761,14.382 5.761,9.622 C5.761,8.049 6.182,6.575 6.918,5.306 Z M18,1 C18.379,1 18.725,1.214 18.894,1.553 L19.512,2.788 C19.795,3.353 19.881,3.516 19.985,3.652 C20.09,3.788 20.212,3.91 20.348,4.015 C20.484,4.119 20.647,4.205 21.212,4.488 L22.447,5.106 C22.786,5.275 23,5.621 23,6 C23,6.379 22.786,6.725 22.447,6.894 L21.212,7.512 C20.647,7.795 20.484,7.881 20.348,7.985 C20.212,8.09 20.09,8.212 19.985,8.348 C19.881,8.484 19.795,8.647 19.512,9.212 L18.894,10.447 C18.725,10.786 18.379,11 18,11 C17.621,11 17.275,10.786 17.106,10.447 L16.488,9.212 C16.205,8.647 16.119,8.484 16.015,8.348 C15.91,8.212 15.788,8.09 15.652,7.985 C15.516,7.881 15.353,7.795 14.788,7.512 L13.553,6.894 C13.214,6.725 13,6.379 13,6 C13,5.621 13.214,5.275 13.553,5.106 L14.788,4.488 C15.353,4.205 15.516,4.119 15.652,4.015 C15.788,3.91 15.91,3.788 16.015,3.652 C16.119,3.516 16.205,3.353 16.488,2.788 L17.106,1.553 C17.275,1.214 17.621,1 18,1 Z M18,4.228 C17.872,4.47 17.748,4.679 17.599,4.873 C17.389,5.145 17.145,5.389 16.873,5.599 C16.679,5.748 16.47,5.872 16.228,6 C16.47,6.128 16.679,6.252 16.873,6.401 C17.145,6.611 17.389,6.855 17.599,7.127 C17.748,7.321 17.872,7.53 18,7.772 C18.128,7.53 18.252,7.321 18.401,7.127 C18.611,6.855 18.855,6.611 19.127,6.401 C19.321,6.252 19.53,6.128 19.772,6 C19.53,5.872 19.321,5.748 19.127,5.599 C18.855,5.389 18.611,5.145 18.401,4.873 C18.252,4.679 18.128,4.47 18,4.228 Z"/>
</svg>
