<svg xmlns="http://www.w3.org/2000/svg" width="24" height="24" viewBox="0 0 24 24">
  <defs/>
  <path d="M1,12 C1,5.925 5.925,1 12,1 C13.726,1 15.363,1.398 16.819,2.109 C17.244,2.317 17.466,2.794 17.35,3.253 C17.234,3.712 16.812,4.027 16.339,4.007 C16.226,4.002 16.114,4 16,4 C11.582,4 8,7.582 8,12 C8,16.418 11.582,20 16,20 C16.114,20 16.226,19.998 16.339,19.993 C16.812,19.973 17.234,20.288 17.35,20.747 C17.466,21.206 17.244,21.683 16.819,21.891 C15.363,22.602 13.726,23 12,23 C5.925,23 1,18.075 1,12 Z M11.62,3.008 C6.826,3.207 3,7.157 3,12 C3,16.843 6.826,20.793 11.62,20.992 C8.292,19.368 6,15.952 6,12 C6,8.048 8.292,4.632 11.62,3.008 Z M19.401,5.201 C19.842,4.869 20.469,4.958 20.801,5.399 C23.734,9.3 23.733,14.703 20.799,18.603 C20.467,19.045 19.84,19.133 19.399,18.801 C18.958,18.469 18.869,17.842 19.201,17.401 C21.599,14.213 21.6,9.79 19.202,6.601 C18.871,6.16 18.959,5.533 19.401,5.201 Z"/>
</svg>
