<svg xmlns="http://www.w3.org/2000/svg" width="24" height="24" viewBox="0 0 24 24">
  <defs/>
  <path d="M8.863,1.293 C9.157,1.587 9.238,2.033 9.067,2.412 C8.53,3.599 8.231,4.916 8.231,6.307 C8.231,11.533 12.468,15.769 17.694,15.769 C19.084,15.769 20.402,15.47 21.588,14.933 C21.967,14.762 22.413,14.843 22.707,15.137 C23.001,15.431 23.083,15.877 22.911,16.256 C21.114,20.231 17.112,23 12.462,23 C6.132,23 1,17.868 1,11.538 C1,6.888 3.769,2.886 7.744,1.089 C8.123,0.917 8.569,0.999 8.863,1.293 Z M6.413,4.261 C4.327,5.997 3,8.613 3,11.538 C3,16.764 7.236,21 12.462,21 C15.387,21 18.003,19.673 19.739,17.587 C19.075,17.706 18.391,17.769 17.694,17.769 C11.363,17.769 6.231,12.637 6.231,6.307 C6.231,5.609 6.294,4.925 6.413,4.261 Z"/>
</svg>
