<svg xmlns="http://www.w3.org/2000/svg" width="24" height="24" viewBox="0 0 24 24">
  <defs/>
  <path d="M11.293,1.293 C11.683,0.902 12.317,0.902 12.707,1.293 L15.707,4.293 C16.098,4.683 16.098,5.317 15.707,5.707 C15.317,6.098 14.683,6.098 14.293,5.707 L13,4.414 L13,11 L19.586,11 L18.293,9.707 C17.902,9.317 17.902,8.683 18.293,8.293 C18.683,7.902 19.317,7.902 19.707,8.293 L22.707,11.293 C23.098,11.683 23.098,12.317 22.707,12.707 L19.707,15.707 C19.317,16.098 18.683,16.098 18.293,15.707 C17.902,15.317 17.902,14.683 18.293,14.293 L19.586,13 L13,13 L13,19.586 L14.293,18.293 C14.683,17.902 15.317,17.902 15.707,18.293 C16.098,18.683 16.098,19.317 15.707,19.707 L12.707,22.707 C12.317,23.098 11.683,23.098 11.293,22.707 L8.293,19.707 C7.902,19.317 7.902,18.683 8.293,18.293 C8.683,17.902 9.317,17.902 9.707,18.293 L11,19.586 L11,13 L4.414,13 L5.707,14.293 C6.098,14.683 6.098,15.317 5.707,15.707 C5.317,16.098 4.683,16.098 4.293,15.707 L1.293,12.707 C0.902,12.317 0.902,11.683 1.293,11.293 L4.293,8.293 C4.683,7.902 5.317,7.902 5.707,8.293 C6.098,8.683 6.098,9.317 5.707,9.707 L4.414,11 L11,11 L11,4.414 L9.707,5.707 C9.317,6.098 8.683,6.098 8.293,5.707 C7.902,5.317 7.902,4.683 8.293,4.293 Z"/>
</svg>
