<svg xmlns="http://www.w3.org/2000/svg" width="24" height="24" viewBox="0 0 24 24">
  <defs/>
  <path d="M14.726,3.245 L18.447,5.106 C18.941,5.353 19.141,5.953 18.894,6.447 C18.647,6.941 18.047,7.141 17.553,6.894 L13.868,5.052 C13.467,4.852 13.228,4.733 13.05,4.664 C13.04,4.66 13.03,4.656 13.021,4.653 C13.02,4.662 13.019,4.672 13.018,4.683 C13.001,4.874 13,5.141 13,5.589 L13,18 C13,20.209 11.209,22 9,22 C6.791,22 5,20.209 5,18 C5,15.791 6.791,14 9,14 C9.729,14 10.412,14.195 11,14.535 L11,5.543 C11,5.152 11,4.793 11.027,4.501 C11.054,4.2 11.12,3.817 11.361,3.472 C11.676,3.021 12.163,2.72 12.708,2.639 C13.124,2.578 13.496,2.691 13.778,2.801 C14.052,2.908 14.374,3.069 14.726,3.245 Z M11,18 C11,16.895 10.105,16 9,16 C7.895,16 7,16.895 7,18 C7,19.105 7.895,20 9,20 C10.105,20 11,19.105 11,18 Z"/>
</svg>
