<svg xmlns="http://www.w3.org/2000/svg" width="24" height="24" viewBox="0 0 24 24">
  <defs/>
  <path d="M17.226,3.245 L20.947,5.106 C21.441,5.353 21.641,5.953 21.394,6.447 C21.147,6.941 20.547,7.141 20.053,6.894 L16.368,5.052 C15.967,4.852 15.728,4.733 15.55,4.664 C15.54,4.66 15.53,4.656 15.521,4.653 C15.52,4.662 15.519,4.672 15.518,4.683 C15.501,4.874 15.5,5.141 15.5,5.589 L15.5,18 C15.5,20.209 13.709,22 11.5,22 C9.291,22 7.5,20.209 7.5,18 C7.5,15.791 9.291,14 11.5,14 C12.229,14 12.912,14.195 13.5,14.535 L13.5,5.543 C13.5,5.152 13.5,4.793 13.527,4.501 C13.554,4.2 13.62,3.817 13.861,3.472 C14.176,3.021 14.663,2.72 15.208,2.639 C15.624,2.578 15.996,2.691 16.278,2.801 C16.552,2.908 16.874,3.069 17.226,3.245 Z M6.5,3 C7.052,3 7.5,3.448 7.5,4 L7.5,6 L9.5,6 C10.052,6 10.5,6.448 10.5,7 C10.5,7.552 10.052,8 9.5,8 L7.5,8 L7.5,10 C7.5,10.552 7.052,11 6.5,11 C5.948,11 5.5,10.552 5.5,10 L5.5,8 L3.5,8 C2.948,8 2.5,7.552 2.5,7 C2.5,6.448 2.948,6 3.5,6 L5.5,6 L5.5,4 C5.5,3.448 5.948,3 6.5,3 Z M13.5,18 C13.5,16.895 12.605,16 11.5,16 C10.395,16 9.5,16.895 9.5,18 C9.5,19.105 10.395,20 11.5,20 C12.605,20 13.5,19.105 13.5,18 Z"/>
</svg>
