<svg xmlns="http://www.w3.org/2000/svg" width="24" height="24" viewBox="0 0 24 24">
  <defs/>
  <path d="M19.968,4.199 C19.83,4.21 19.639,4.241 19.301,4.297 L10.501,5.764 C10.249,5.806 10.115,5.829 10.019,5.852 C10.015,5.853 10.012,5.854 10.009,5.855 C10.009,5.858 10.008,5.861 10.008,5.865 C10.001,5.963 10,6.1 10,6.355 L10,18 C10,20.209 8.209,22 6,22 C3.791,22 2,20.209 2,18 C2,15.791 3.791,14 6,14 C6.729,14 7.412,14.195 8,14.535 L8,6.327 C8,6.111 8,5.897 8.014,5.714 C8.029,5.51 8.065,5.273 8.175,5.029 C8.33,4.684 8.578,4.391 8.893,4.182 C9.116,4.033 9.344,3.959 9.542,3.91 C9.72,3.866 9.931,3.831 10.144,3.795 L19.007,2.318 C19.298,2.27 19.575,2.224 19.811,2.205 C20.065,2.185 20.375,2.186 20.696,2.306 C21.135,2.468 21.502,2.78 21.735,3.185 C21.906,3.483 21.958,3.789 21.98,4.043 C22,4.277 22,4.556 22,4.849 L22,16 C22,18.209 20.209,20 18,20 C15.791,20 14,18.209 14,16 C14,13.791 15.791,12 18,12 C18.729,12 19.412,12.195 20,12.535 L20,4.889 C20,4.546 19.999,4.353 19.987,4.215 C19.987,4.209 19.986,4.203 19.986,4.198 C19.98,4.198 19.974,4.198 19.968,4.199 Z M20,16 C20,14.896 19.105,14 18,14 C16.895,14 16,14.896 16,16 C16,17.105 16.895,18 18,18 C19.105,18 20,17.105 20,16 Z M8,18 C8,16.896 7.105,16 6,16 C4.895,16 4,16.896 4,18 C4,19.105 4.895,20 6,20 C7.105,20 8,19.105 8,18 Z"/>
</svg>
