<svg xmlns="http://www.w3.org/2000/svg" width="24" height="24" viewBox="0 0 24 24">
  <defs/>
  <path d="M11.326,1.903 C11.748,1.692 12.244,1.692 12.666,1.903 C13.039,2.089 13.232,2.417 13.324,2.584 C13.424,2.766 13.527,3 13.63,3.235 C13.635,3.246 13.639,3.257 13.644,3.269 L20.941,19.905 C21.056,20.167 21.167,20.421 21.239,20.632 C21.301,20.814 21.425,21.207 21.292,21.63 C21.144,22.096 20.779,22.462 20.312,22.608 C19.889,22.742 19.496,22.616 19.314,22.555 C19.103,22.483 18.849,22.371 18.587,22.256 L11.996,19.356 L5.405,22.256 C5.143,22.371 4.889,22.483 4.678,22.555 C4.496,22.616 4.103,22.742 3.68,22.608 C3.214,22.462 2.848,22.096 2.7,21.63 C2.567,21.207 2.692,20.814 2.753,20.632 C2.825,20.421 2.936,20.167 3.051,19.905 L10.348,3.269 C10.352,3.257 10.357,3.246 10.362,3.235 C10.465,3 10.568,2.766 10.668,2.584 C10.76,2.417 10.953,2.089 11.326,1.903 Z M11.996,4.489 L5.104,20.203 L11.271,17.49 C11.278,17.487 11.286,17.483 11.294,17.479 C11.379,17.441 11.555,17.362 11.748,17.33 C11.912,17.303 12.08,17.303 12.244,17.33 C12.437,17.362 12.613,17.441 12.698,17.479 C12.707,17.483 12.714,17.487 12.721,17.49 L18.888,20.203 Z"/>
</svg>
