<svg xmlns="http://www.w3.org/2000/svg" width="24" height="24" viewBox="0 0 24 24">
  <defs/>
  <path d="M1.293,1.293 C1.683,0.902 2.317,0.902 2.707,1.293 L22.707,21.293 C23.098,21.683 23.098,22.317 22.707,22.707 C22.317,23.098 21.683,23.098 21.293,22.707 L20.872,22.286 C20.713,22.431 20.523,22.542 20.312,22.609 C19.889,22.742 19.496,22.617 19.313,22.555 C19.103,22.483 18.849,22.372 18.587,22.256 L11.996,19.356 L5.405,22.256 C5.142,22.372 4.888,22.483 4.678,22.555 C4.496,22.617 4.103,22.742 3.68,22.609 C3.213,22.462 2.847,22.097 2.7,21.63 C2.566,21.207 2.691,20.814 2.753,20.632 C2.824,20.421 2.936,20.167 3.051,19.905 L7.758,9.172 L1.293,2.707 C0.902,2.317 0.902,1.683 1.293,1.293 Z M9.276,10.69 L5.104,20.204 L11.271,17.49 C11.277,17.487 11.285,17.483 11.294,17.48 C11.379,17.441 11.554,17.363 11.748,17.33 C11.912,17.303 12.079,17.303 12.243,17.33 C12.437,17.363 12.612,17.441 12.697,17.48 C12.706,17.483 12.714,17.487 12.72,17.49 L18.712,20.126 Z M11.326,1.903 C11.748,1.692 12.244,1.692 12.666,1.903 C13.039,2.089 13.232,2.417 13.324,2.584 C13.424,2.767 13.526,3.001 13.629,3.235 L13.644,3.269 L16.816,10.502 C17.038,11.007 16.808,11.597 16.302,11.819 C15.797,12.041 15.207,11.811 14.985,11.305 L11.996,4.49 L11.387,5.877 C11.165,6.383 10.575,6.613 10.07,6.392 C9.564,6.17 9.334,5.58 9.555,5.074 L10.347,3.269 C10.352,3.258 10.357,3.246 10.362,3.235 C10.465,3.001 10.567,2.767 10.668,2.584 C10.759,2.417 10.952,2.089 11.326,1.903 Z"/>
</svg>
