<svg xmlns="http://www.w3.org/2000/svg" width="24" height="24" viewBox="0 0 24 24">
  <defs/>
  <path d="M20.647,1.474 C20.83,1.421 21.199,1.325 21.595,1.457 C22.042,1.607 22.393,1.958 22.542,2.405 C22.674,2.801 22.579,3.169 22.525,3.352 C22.467,3.552 22.375,3.79 22.281,4.029 L15.664,20.986 C15.56,21.253 15.459,21.511 15.36,21.711 C15.275,21.883 15.085,22.249 14.692,22.454 C14.258,22.679 13.741,22.679 13.307,22.453 C12.914,22.248 12.725,21.881 12.64,21.709 C12.541,21.509 12.441,21.251 12.337,20.984 L9.727,14.273 L3.051,11.676 C3.039,11.672 3.027,11.667 3.016,11.663 C2.749,11.559 2.49,11.458 2.291,11.36 C2.118,11.275 1.752,11.086 1.547,10.692 C1.321,10.259 1.32,9.742 1.546,9.308 C1.75,8.914 2.117,8.724 2.289,8.639 C2.489,8.54 2.747,8.44 3.014,8.336 C3.026,8.331 3.037,8.326 3.049,8.322 L19.971,1.718 C20.21,1.625 20.448,1.532 20.647,1.474 Z M20.239,3.76 L4.254,9.998 L10.534,12.44 C10.541,12.443 10.549,12.446 10.558,12.45 C10.645,12.483 10.824,12.551 10.984,12.665 C11.12,12.762 11.238,12.88 11.334,13.015 C11.448,13.175 11.517,13.355 11.55,13.442 C11.553,13.451 11.556,13.459 11.559,13.466 L14.001,19.745 Z"/>
</svg>
