<svg xmlns="http://www.w3.org/2000/svg" width="24" height="24" viewBox="0 0 24 24">
  <defs/>
  <path d="M11,3 C11.552,3 12,3.448 12,4 C12,4.552 11.552,5 11,5 L7.8,5 C6.944,5 6.361,5.001 5.911,5.038 C5.473,5.073 5.249,5.138 5.092,5.218 C4.716,5.41 4.41,5.716 4.218,6.092 C4.138,6.248 4.073,6.473 4.038,6.911 C4.001,7.361 4,7.943 4,8.8 L4,14 C4,14.994 4.009,15.295 4.068,15.518 C4.253,16.208 4.792,16.747 5.482,16.932 C5.705,16.991 6.006,17 7,17 C7.552,17 8,17.448 8,18 L8,19.919 L10.061,18.271 C10.083,18.253 10.106,18.235 10.128,18.217 C10.55,17.879 10.869,17.624 11.233,17.438 C11.554,17.274 11.895,17.154 12.248,17.082 C12.648,17 13.056,17 13.597,17 L15.2,17 C16.057,17 16.639,16.999 17.089,16.962 C17.528,16.927 17.752,16.862 17.908,16.782 C18.284,16.59 18.59,16.284 18.782,15.908 C18.862,15.752 18.927,15.527 18.962,15.089 C18.999,14.639 19,14.057 19,13.2 L19,13 C19,12.448 19.448,12 20,12 C20.552,12 21,12.448 21,13 L21,13.241 C21,14.046 21,14.711 20.956,15.252 C20.91,15.814 20.811,16.331 20.564,16.816 C20.181,17.569 19.569,18.181 18.816,18.564 C18.331,18.811 17.814,18.91 17.252,18.956 C16.711,19 16.046,19 15.241,19 L13.684,19 C13.02,19 12.826,19.005 12.65,19.041 C12.474,19.077 12.303,19.137 12.142,19.219 C11.983,19.301 11.829,19.418 11.31,19.833 L8.897,21.763 C8.713,21.91 8.526,22.06 8.361,22.169 C8.204,22.273 7.899,22.459 7.502,22.46 C7.045,22.46 6.613,22.253 6.328,21.896 C6.08,21.585 6.035,21.23 6.018,21.042 C6,20.846 6,20.606 6,20.371 L6,20.371 L6,18.992 C5.608,18.979 5.272,18.946 4.965,18.864 C3.584,18.494 2.506,17.416 2.136,16.035 C1.999,15.524 2,14.933 2,14.138 C2,14.092 2,14.047 2,14 L2,8.759 C2,7.954 2,7.289 2.044,6.748 C2.09,6.186 2.189,5.669 2.436,5.184 C2.82,4.431 3.431,3.819 4.184,3.436 C4.669,3.189 5.186,3.09 5.748,3.044 C6.289,3 6.954,3 7.759,3 L11,3 Z M15.172,3.172 C16.734,1.609 19.266,1.609 20.829,3.172 C22.391,4.734 22.391,7.266 20.829,8.828 C19.266,10.391 16.734,10.391 15.172,8.828 C13.61,7.266 13.61,4.734 15.172,3.172 Z M19.414,4.586 C18.633,3.805 17.367,3.805 16.586,4.586 C15.805,5.367 15.805,6.633 16.586,7.414 C17.367,8.195 18.633,8.195 19.414,7.414 C20.195,6.633 20.195,5.367 19.414,4.586 Z"/>
</svg>
