<svg xmlns="http://www.w3.org/2000/svg" width="24" height="24" viewBox="0 0 24 24">
  <defs/>
  <path d="M11,3 C11.552,3 12,3.448 12,4 C12,4.552 11.552,5 11,5 L7.8,5 C6.943,5 6.361,5.001 5.911,5.038 C5.473,5.073 5.248,5.138 5.092,5.218 C4.716,5.41 4.41,5.716 4.218,6.092 C4.138,6.248 4.073,6.473 4.038,6.911 C4.001,7.361 4,7.943 4,8.8 L4,16.2 C4,17.057 4.001,17.639 4.038,18.089 C4.073,18.527 4.138,18.752 4.218,18.908 C4.41,19.284 4.716,19.59 5.092,19.782 C5.248,19.862 5.473,19.927 5.911,19.962 C6.361,19.999 6.943,20 7.8,20 L15.2,20 C16.057,20 16.639,19.999 17.089,19.962 C17.527,19.927 17.752,19.862 17.908,19.782 C18.284,19.59 18.59,19.284 18.782,18.908 C18.862,18.752 18.927,18.527 18.962,18.089 C18.999,17.639 19,17.057 19,16.2 L19,13 C19,12.448 19.448,12 20,12 C20.552,12 21,12.448 21,13 L21,16.241 C21,17.046 21,17.711 20.956,18.252 C20.91,18.814 20.811,19.331 20.564,19.816 C20.181,20.569 19.569,21.181 18.816,21.564 C18.331,21.811 17.814,21.91 17.252,21.956 C16.711,22 16.046,22 15.241,22 L7.759,22 C6.954,22 6.289,22 5.748,21.956 C5.186,21.91 4.669,21.811 4.184,21.564 C3.431,21.181 2.819,20.569 2.436,19.816 C2.189,19.331 2.09,18.814 2.044,18.252 C2,17.711 2,17.046 2,16.241 L2,8.759 C2,7.954 2,7.289 2.044,6.748 C2.09,6.186 2.189,5.669 2.436,5.184 C2.819,4.431 3.431,3.819 4.184,3.436 C4.669,3.189 5.186,3.09 5.748,3.044 C6.289,3 6.954,3 7.759,3 L11,3 Z M15.172,3.172 C16.734,1.609 19.266,1.609 20.828,3.172 C22.39,4.734 22.39,7.266 20.828,8.828 C19.266,10.391 16.734,10.391 15.172,8.828 C13.609,7.266 13.609,4.734 15.172,3.172 Z M6,13 C6,12.448 6.448,12 7,12 L15,12 C15.552,12 16,12.448 16,13 C16,13.552 15.552,14 15,14 L7,14 C6.448,14 6,13.552 6,13 Z M6,17 C6,16.448 6.448,16 7,16 L13,16 C13.552,16 14,16.448 14,17 C14,17.552 13.552,18 13,18 L7,18 C6.448,18 6,17.552 6,17 Z M19.414,4.586 C18.633,3.805 17.367,3.805 16.586,4.586 C15.805,5.367 15.805,6.633 16.586,7.414 C17.367,8.195 18.633,8.195 19.414,7.414 C20.195,6.633 20.195,5.367 19.414,4.586 Z"/>
</svg>
