<svg xmlns="http://www.w3.org/2000/svg" width="24" height="24" viewBox="0 0 24 24">
  <defs/>
  <path d="M11.597,1.185 C11.863,1.13 12.137,1.13 12.403,1.185 C12.71,1.248 12.985,1.402 13.203,1.524 C13.224,1.536 13.243,1.547 13.263,1.558 L20.663,5.669 C20.683,5.68 20.704,5.692 20.726,5.704 C20.957,5.831 21.248,5.991 21.471,6.233 C21.664,6.443 21.81,6.691 21.899,6.961 C22.002,7.273 22.001,7.604 22,7.868 L22,7.869 C22,7.894 22,7.918 22,7.942 L22,12 C22,12.552 21.552,13 21,13 C20.448,13 20,12.552 20,12 L20,8.7 L17.003,10.365 C16.992,10.371 16.981,10.377 16.97,10.383 L13,12.589 L13,20.444 C13.351,20.445 13.692,20.63 13.874,20.959 C14.142,21.442 13.968,22.051 13.486,22.319 L13.263,22.443 C13.243,22.453 13.224,22.464 13.203,22.476 C12.985,22.598 12.71,22.752 12.403,22.815 C12.137,22.87 11.863,22.87 11.597,22.815 C11.29,22.752 11.015,22.598 10.797,22.476 C10.776,22.464 10.757,22.453 10.737,22.443 L3.337,18.331 C3.317,18.32 3.296,18.309 3.274,18.297 C3.043,18.169 2.752,18.009 2.529,17.767 C2.336,17.558 2.19,17.309 2.101,17.039 C1.998,16.726 1.999,16.395 2,16.131 C2,16.106 2,16.082 2,16.059 L2,7.942 C2,7.918 2,7.894 2,7.869 L2,7.869 C1.999,7.606 1.998,7.274 2.101,6.961 C2.19,6.691 2.336,6.443 2.529,6.233 C2.752,5.991 3.043,5.831 3.274,5.704 C3.296,5.692 3.317,5.68 3.337,5.669 L6.999,3.634 C7.009,3.629 7.018,3.624 7.028,3.618 L10.737,1.558 C10.757,1.547 10.776,1.536 10.797,1.524 C11.015,1.402 11.29,1.248 11.597,1.185 Z M11,12.589 L4,8.7 L4,16.059 C4,16.242 4,16.335 4.004,16.403 L4.005,16.409 C4.006,16.41 4.008,16.411 4.01,16.412 C4.067,16.448 4.149,16.494 4.309,16.583 L11,20.301 Z M15,18 C15,15.791 16.791,14 19,14 C21.209,14 23,15.791 23,18 C23,18.871 22.722,19.677 22.249,20.334 L22.707,20.793 C23.098,21.184 23.098,21.817 22.707,22.207 C22.317,22.598 21.683,22.598 21.293,22.207 L20.705,21.619 C20.188,21.864 19.61,22 19,22 C16.791,22 15,20.209 15,18 Z M7.5,5.644 L5.059,7 L12,10.856 L14.441,9.5 Z M16.5,8.356 L18.941,7 L12.291,3.306 C12.14,3.222 12.062,3.179 12.005,3.151 C12.003,3.151 12.002,3.15 12,3.149 C11.998,3.15 11.997,3.151 11.995,3.151 C11.938,3.179 11.86,3.222 11.709,3.306 L9.559,4.5 Z M19,16 C17.895,16 17,16.896 17,18 C17,19.105 17.895,20 19,20 C20.105,20 21,19.105 21,18 C21,16.896 20.105,16 19,16 Z"/>
</svg>
