<svg xmlns="http://www.w3.org/2000/svg" width="24" height="24" viewBox="0 0 24 24">
  <defs/>
  <path d="M9.792,1.293 C10.183,0.902 10.816,0.902 11.207,1.293 L12.206,2.293 L21.098,11.184 C21.276,11.363 21.45,11.536 21.585,11.696 C21.734,11.87 21.893,12.092 21.987,12.382 C22.118,12.784 22.118,13.216 21.987,13.618 C21.893,13.908 21.734,14.13 21.585,14.304 C21.45,14.464 21.276,14.637 21.098,14.816 L15.571,20.342 C15.002,20.911 14.533,21.381 14.119,21.733 C13.689,22.098 13.254,22.393 12.736,22.562 C11.932,22.823 11.067,22.823 10.264,22.562 C9.745,22.393 9.31,22.098 8.88,21.733 C8.466,21.381 7.997,20.911 7.427,20.342 L4.157,17.072 C3.588,16.503 3.118,16.033 2.767,15.619 C2.402,15.189 2.106,14.754 1.938,14.236 C1.677,13.433 1.677,12.567 1.938,11.764 C2.106,11.246 2.402,10.811 2.767,10.381 C3.118,9.967 3.588,9.497 4.157,8.928 L10.085,3 L9.792,2.707 C9.402,2.317 9.402,1.683 9.792,1.293 Z M11.5,4.414 L5.601,10.313 C4.995,10.919 4.584,11.331 4.292,11.675 C4.186,11.8 4.104,11.907 4.039,12 L19.085,12 Z M19.085,14 L4.039,14 C4.104,14.093 4.186,14.2 4.292,14.325 C4.584,14.669 4.995,15.081 5.601,15.687 L8.813,18.899 C9.418,19.504 9.831,19.916 10.175,20.208 C10.51,20.493 10.715,20.605 10.882,20.66 C11.283,20.79 11.716,20.79 12.118,20.66 C12.285,20.605 12.489,20.493 12.824,20.208 C13.169,19.916 13.581,19.504 14.186,18.899 Z"/>
</svg>
