<svg xmlns="http://www.w3.org/2000/svg" width="24" height="24" viewBox="0 0 24 24">
  <defs/>
  <path d="M7.293,1.293 C7.683,0.902 8.316,0.902 8.707,1.293 L16.598,9.184 C16.777,9.363 16.95,9.536 17.086,9.696 C17.234,9.87 17.393,10.092 17.488,10.382 C17.618,10.784 17.618,11.216 17.488,11.618 C17.393,11.908 17.234,12.13 17.086,12.304 C16.95,12.464 16.777,12.637 16.598,12.816 L11.942,17.472 C11.569,17.844 11.248,18.166 10.962,18.409 C10.659,18.666 10.331,18.893 9.927,19.025 C9.324,19.221 8.675,19.221 8.073,19.025 C7.669,18.893 7.34,18.666 7.038,18.409 C6.751,18.166 6.43,17.844 6.057,17.472 L2.528,13.943 C2.155,13.57 1.834,13.248 1.591,12.962 C1.334,12.659 1.106,12.331 0.975,11.927 C0.779,11.325 0.779,10.675 0.975,10.073 C1.106,9.669 1.334,9.341 1.591,9.038 C1.834,8.752 2.155,8.43 2.528,8.057 L7.585,3 L7.293,2.707 C6.902,2.317 6.902,1.683 7.293,1.293 Z M9,4.414 L3.97,9.444 C3.747,9.667 3.567,9.847 3.42,10 L14.585,10 L9.293,4.707 Z M14.585,12 L3.42,12 C3.567,12.153 3.747,12.333 3.97,12.556 L7.444,16.03 C7.852,16.438 8.116,16.701 8.332,16.885 C8.54,17.061 8.638,17.105 8.691,17.123 C8.892,17.188 9.108,17.188 9.309,17.123 C9.361,17.105 9.459,17.061 9.667,16.885 C9.884,16.701 10.148,16.438 10.555,16.03 Z M19.312,12.274 C19.698,11.909 20.302,11.909 20.688,12.274 L20.691,12.277 L20.697,12.283 L20.717,12.302 C20.734,12.319 20.758,12.342 20.788,12.372 C20.848,12.431 20.933,12.516 21.033,12.62 C21.233,12.828 21.502,13.12 21.774,13.453 C22.043,13.782 22.332,14.172 22.559,14.575 C22.77,14.95 23,15.461 23,16 C23,17.657 21.657,19 20,19 C18.343,19 17,17.657 17,16 C17,15.461 17.229,14.95 17.441,14.575 C17.667,14.172 17.956,13.782 18.225,13.453 C18.497,13.12 18.767,12.828 18.966,12.62 C19.067,12.516 19.151,12.431 19.211,12.372 C19.241,12.342 19.265,12.319 19.282,12.302 L19.303,12.283 L19.309,12.277 Z M2,21 L14,21 C14.552,21 15,21.448 15,22 C15,22.552 14.552,23 14,23 L2,23 C1.447,23 1,22.552 1,22 C1,21.448 1.447,21 2,21 Z M20,14.452 C19.926,14.536 19.85,14.626 19.774,14.719 C19.543,15.001 19.332,15.292 19.184,15.556 C19.11,15.687 19.06,15.796 19.03,15.882 C19.002,15.964 19,16.001 19,16.001 C19,16.553 19.447,17 20,17 C20.552,17 21,16.552 21,16 L21,16.001 C21,16.001 20.997,15.964 20.969,15.882 C20.939,15.796 20.889,15.687 20.816,15.556 C20.667,15.292 20.456,15.001 20.225,14.719 C20.15,14.626 20.074,14.536 20,14.452 Z"/>
</svg>
