<svg xmlns="http://www.w3.org/2000/svg" width="24" height="24" viewBox="0 0 24 24">
  <defs/>
  <path d="M1,12 C1,5.925 5.925,1 12,1 C18.075,1 23,5.925 23,12 C23,14.209 21.209,16 19,16 L18.5,16 C18.004,16 17.853,16.002 17.739,16.017 C16.841,16.135 16.135,16.841 16.017,17.739 C16.002,17.853 16,18.004 16,18.5 L16,19 C16,21.209 14.209,23 12,23 C5.925,23 1,18.075 1,12 Z M12,3 C7.029,3 3,7.029 3,12 C3,16.971 7.029,21 12,21 C13.105,21 14,20.105 14,19 L14,18.43 C14,18.033 14,17.739 14.034,17.478 C14.271,15.683 15.683,14.271 17.478,14.034 C17.739,14 18.033,14 18.43,14 L19,14 C20.105,14 21,13.105 21,12 C21,7.029 16.971,3 12,3 Z M14,8 C14,6.895 14.895,6 16,6 C17.105,6 18,6.895 18,8 C18,9.105 17.105,10 16,10 C14.895,10 14,9.105 14,8 Z M5,12 C5,10.895 5.895,10 7,10 C8.105,10 9,10.895 9,12 C9,13.105 8.105,14 7,14 C5.895,14 5,13.105 5,12 Z M8,7 C8,5.895 8.895,5 10,5 C11.105,5 12,5.895 12,7 C12,8.105 11.105,9 10,9 C8.895,9 8,8.105 8,7 Z"/>
</svg>
