<svg xmlns="http://www.w3.org/2000/svg" width="24" height="24" viewBox="0 0 24 24">
  <defs/>
  <path d="M2,12 C2,11.448 2.448,11 3,11 L18,11 C19.061,11 20.078,11.421 20.828,12.172 C21.579,12.922 22,13.939 22,15 C22,16.061 21.579,17.078 20.828,17.828 C20.078,18.579 19.061,19 18,19 L16.414,19 L16.707,19.293 C17.098,19.683 17.098,20.317 16.707,20.707 C16.317,21.098 15.683,21.098 15.293,20.707 L13.293,18.707 C12.902,18.317 12.902,17.683 13.293,17.293 L15.293,15.293 C15.683,14.902 16.317,14.902 16.707,15.293 C17.098,15.683 17.098,16.317 16.707,16.707 L16.414,17 L18,17 C18.53,17 19.039,16.789 19.414,16.414 C19.789,16.039 20,15.53 20,15 C20,14.47 19.789,13.961 19.414,13.586 C19.039,13.211 18.53,13 18,13 L3,13 C2.448,13 2,12.552 2,12 Z M2,6 C2,5.448 2.448,5 3,5 L21,5 C21.552,5 22,5.448 22,6 C22,6.552 21.552,7 21,7 L3,7 C2.448,7 2,6.552 2,6 Z M2,18 C2,17.448 2.448,17 3,17 L10,17 C10.552,17 11,17.448 11,18 C11,18.552 10.552,19 10,19 L3,19 C2.448,19 2,18.552 2,18 Z"/>
</svg>
