<svg xmlns="http://www.w3.org/2000/svg" width="24" height="24" viewBox="0 0 24 24">
  <defs/>
  <path d="M6,3 C6.265,3 6.52,3.105 6.707,3.293 L9.707,6.293 C10.098,6.683 10.098,7.317 9.707,7.707 C9.317,8.098 8.683,8.098 8.293,7.707 L7,6.414 L7,17.586 L8.293,16.293 C8.683,15.902 9.317,15.902 9.707,16.293 C10.098,16.683 10.098,17.317 9.707,17.707 L6.707,20.707 C6.52,20.895 6.265,21 6,21 C5.735,21 5.48,20.895 5.293,20.707 L2.293,17.707 C1.902,17.317 1.902,16.683 2.293,16.293 C2.683,15.902 3.317,15.902 3.707,16.293 L5,17.586 L5,6.414 L3.707,7.707 C3.317,8.098 2.683,8.098 2.293,7.707 C1.902,7.317 1.902,6.683 2.293,6.293 L5.293,3.293 C5.48,3.105 5.735,3 6,3 Z M12,14 C12,13.448 12.448,13 13,13 L21,13 C21.552,13 22,13.448 22,14 C22,14.552 21.552,15 21,15 L13,15 C12.448,15 12,14.552 12,14 Z M12,18 C12,17.448 12.448,17 13,17 L21,17 C21.552,17 22,17.448 22,18 C22,18.552 21.552,19 21,19 L13,19 C12.448,19 12,18.552 12,18 Z M12,10 C12,9.448 12.448,9 13,9 L21,9 C21.552,9 22,9.448 22,10 C22,10.552 21.552,11 21,11 L13,11 C12.448,11 12,10.552 12,10 Z M12,6 C12,5.448 12.448,5 13,5 L21,5 C21.552,5 22,5.448 22,6 C22,6.552 21.552,7 21,7 L13,7 C12.448,7 12,6.552 12,6 Z"/>
</svg>
