<svg xmlns="http://www.w3.org/2000/svg" width="24" height="24" viewBox="0 0 24 24">
  <defs/>
  <path d="M5.161,4 L18.838,4 C19.366,4 19.82,4 20.195,4.031 C20.59,4.063 20.984,4.134 21.362,4.327 C21.927,4.615 22.385,5.074 22.673,5.638 C22.866,6.016 22.937,6.41 22.969,6.805 C23,7.18 23,7.634 23,8.161 L23,11 C23,11.552 22.552,12 22,12 C21.448,12 21,11.552 21,11 L21,8.2 C21,7.623 20.999,7.251 20.976,6.968 C20.954,6.696 20.916,6.595 20.891,6.546 C20.795,6.358 20.642,6.205 20.454,6.109 C20.404,6.084 20.304,6.046 20.032,6.024 C19.749,6.001 19.377,6 18.8,6 L5.2,6 C4.623,6 4.251,6.001 3.968,6.024 C3.696,6.046 3.595,6.084 3.546,6.109 C3.358,6.205 3.205,6.358 3.109,6.546 C3.084,6.595 3.046,6.696 3.024,6.968 C3.001,7.251 3,7.623 3,8.2 L3,11.8 C3,12.377 3.001,12.749 3.024,13.032 C3.046,13.304 3.084,13.405 3.109,13.454 C3.205,13.642 3.358,13.795 3.546,13.891 C3.595,13.916 3.696,13.954 3.968,13.976 C4.251,13.999 4.623,14 5.2,14 L11,14 C11.552,14 12,14.448 12,15 C12,15.552 11.552,16 11,16 L5.161,16 C4.634,16 4.18,16 3.805,15.969 C3.41,15.937 3.016,15.866 2.638,15.673 C2.074,15.385 1.615,14.927 1.327,14.362 C1.134,13.984 1.063,13.59 1.031,13.195 C1,12.821 1,12.366 1,11.839 L1,8.161 C1,7.634 1,7.18 1.031,6.805 C1.063,6.41 1.134,6.016 1.327,5.638 C1.615,5.074 2.074,4.615 2.638,4.327 C3.016,4.134 3.41,4.063 3.805,4.031 C4.18,4 4.634,4 5.161,4 Z M14.75,15.25 C14.75,13.731 15.981,12.5 17.5,12.5 C19.019,12.5 20.25,13.731 20.25,15.25 L20.25,16.028 C20.452,16.052 20.68,16.102 20.908,16.218 C21.284,16.41 21.59,16.716 21.782,17.092 C21.92,17.363 21.964,17.633 21.983,17.862 C22,18.069 22,18.313 22,18.564 L22,19.436 C22,19.687 22,19.931 21.983,20.138 C21.964,20.367 21.92,20.637 21.782,20.908 C21.59,21.284 21.284,21.59 20.908,21.782 C20.637,21.92 20.367,21.964 20.138,21.983 C19.931,22 19.687,22 19.436,22 L15.564,22 C15.313,22 15.069,22 14.862,21.983 C14.633,21.964 14.363,21.92 14.092,21.782 C13.716,21.59 13.41,21.284 13.218,20.908 C13.08,20.637 13.036,20.367 13.017,20.138 C13,19.931 13,19.687 13,19.436 L13,18.564 C13,18.313 13,18.069 13.017,17.862 C13.036,17.633 13.08,17.363 13.218,17.092 C13.41,16.716 13.716,16.41 14.092,16.218 C14.32,16.102 14.547,16.052 14.75,16.028 Z M15.6,18 C15.304,18 15.141,18.001 15.025,18.01 C15.02,18.011 15.016,18.011 15.012,18.011 C15.011,18.016 15.011,18.02 15.01,18.025 C15.001,18.141 15,18.303 15,18.6 L15,19.4 C15,19.697 15.001,19.859 15.01,19.975 C15.011,19.98 15.011,19.984 15.012,19.989 C15.016,19.989 15.02,19.989 15.025,19.99 C15.141,19.999 15.304,20 15.6,20 L19.4,20 C19.697,20 19.859,19.999 19.975,19.99 C19.98,19.989 19.984,19.989 19.989,19.989 C19.989,19.984 19.989,19.98 19.99,19.975 C19.999,19.859 20,19.697 20,19.4 L20,18.6 C20,18.303 19.999,18.141 19.99,18.025 C19.989,18.02 19.989,18.016 19.989,18.011 C19.984,18.011 19.98,18.011 19.975,18.01 C19.859,18.001 19.697,18 19.4,18 Z M10.75,10 C10.75,9.31 11.31,8.75 12,8.75 C12.69,8.75 13.25,9.31 13.25,10 C13.25,10.69 12.69,11.25 12,11.25 C11.31,11.25 10.75,10.69 10.75,10 Z M15.75,10 C15.75,9.31 16.31,8.75 17,8.75 C17.69,8.75 18.25,9.31 18.25,10 C18.25,10.69 17.69,11.25 17,11.25 C16.31,11.25 15.75,10.69 15.75,10 Z M5.75,10 C5.75,9.31 6.31,8.75 7,8.75 C7.69,8.75 8.25,9.31 8.25,10 C8.25,10.69 7.69,11.25 7,11.25 C6.31,11.25 5.75,10.69 5.75,10 Z M18.25,16 L18.25,15.25 C18.25,14.836 17.914,14.5 17.5,14.5 C17.086,14.5 16.75,14.836 16.75,15.25 L16.75,16 Z"/>
</svg>
