<svg xmlns="http://www.w3.org/2000/svg" width="24" height="24" viewBox="0 0 24 24">
  <defs/>
  <path d="M1,12 C1,5.925 5.925,1 12,1 C18.075,1 23,5.925 23,12 C23,18.075 18.075,23 12,23 C5.925,23 1,18.075 1,12 Z M12,3 C7.029,3 3,7.029 3,12 C3,16.971 7.029,21 12,21 C16.971,21 21,16.971 21,12 C21,7.029 16.971,3 12,3 Z M14.5,8 C15.052,8 15.5,8.448 15.5,9 L15.5,15 C15.5,15.552 15.052,16 14.5,16 C13.948,16 13.5,15.552 13.5,15 L13.5,9 C13.5,8.448 13.948,8 14.5,8 Z M9.5,8 C10.052,8 10.5,8.448 10.5,9 L10.5,15 C10.5,15.552 10.052,16 9.5,16 C8.948,16 8.5,15.552 8.5,15 L8.5,9 C8.5,8.448 8.948,8 9.5,8 Z"/>
</svg>
