<svg xmlns="http://www.w3.org/2000/svg" width="24" height="24" viewBox="0 0 24 24">
  <defs/>
  <path d="M16.382,2.512 C16.784,2.381 17.216,2.381 17.618,2.512 C17.908,2.606 18.13,2.766 18.305,2.914 C18.464,3.049 18.638,3.223 18.816,3.402 L22.598,7.184 C22.777,7.362 22.951,7.536 23.086,7.695 C23.234,7.87 23.394,8.092 23.488,8.382 C23.618,8.783 23.618,9.216 23.488,9.618 C23.394,9.908 23.234,10.13 23.086,10.304 C22.951,10.464 22.777,10.637 22.598,10.816 L21.816,11.598 C21.638,11.777 21.464,11.95 21.305,12.086 C21.13,12.234 20.908,12.394 20.618,12.488 C20.288,12.595 19.936,12.614 19.599,12.545 L18.2,17.44 C18.194,17.461 18.188,17.482 18.182,17.504 C18.115,17.74 18.032,18.036 17.864,18.294 C17.719,18.517 17.531,18.708 17.311,18.858 C17.057,19.031 16.763,19.12 16.528,19.191 C16.507,19.198 16.485,19.205 16.465,19.211 L4.294,22.956 C3.94,23.065 3.555,22.969 3.293,22.707 C3.031,22.445 2.935,22.06 3.044,21.706 L6.789,9.535 C6.795,9.515 6.802,9.493 6.808,9.472 C6.88,9.237 6.969,8.943 7.142,8.689 C7.291,8.469 7.483,8.281 7.706,8.136 C7.964,7.968 8.26,7.884 8.496,7.818 C8.518,7.812 8.539,7.806 8.56,7.8 L13.455,6.401 C13.386,6.063 13.405,5.712 13.512,5.382 C13.606,5.092 13.766,4.87 13.914,4.695 C14.049,4.536 14.223,4.362 14.402,4.184 L15.184,3.402 C15.363,3.223 15.536,3.049 15.696,2.914 C15.87,2.766 16.092,2.606 16.382,2.512 Z M14.047,8.312 L9.109,9.723 C8.946,9.77 8.863,9.794 8.804,9.814 C8.803,9.815 8.801,9.815 8.8,9.816 C8.799,9.817 8.798,9.819 8.798,9.821 C8.776,9.879 8.75,9.961 8.701,10.123 L6.14,18.446 L9.292,15.293 C9.105,14.902 9,14.463 9,14 C9,12.343 10.343,11 12,11 C13.657,11 15,12.343 15,14 C15,15.657 13.657,17 12,17 C11.537,17 11.098,16.895 10.707,16.708 L7.554,19.86 L15.876,17.299 C16.038,17.25 16.121,17.224 16.179,17.202 L16.184,17.2 C16.185,17.199 16.185,17.197 16.186,17.195 C16.206,17.136 16.23,17.054 16.277,16.891 L16.481,16.176 L14.047,8.312 Z M1,5 C1,4.448 1.448,4 2,4 L8,4 C8.552,4 9,4.448 9,5 C9,5.552 8.552,6 8,6 L2,6 C1.448,6 1,5.552 1,5 Z M17,4.43 C16.997,4.433 16.993,4.436 16.99,4.439 C16.901,4.514 16.785,4.629 16.576,4.838 L16.518,4.896 L16.651,7.236 L19.576,10.161 C19.785,10.371 19.901,10.485 19.99,10.561 C19.993,10.564 19.997,10.567 20,10.569 C20.003,10.567 20.007,10.564 20.01,10.561 C20.099,10.485 20.215,10.371 20.424,10.161 L21.162,9.424 C21.371,9.214 21.485,9.099 21.561,9.01 C21.564,9.006 21.567,9.003 21.57,9 C21.567,8.997 21.564,8.993 21.561,8.99 C21.485,8.901 21.371,8.785 21.162,8.576 L17.424,4.838 C17.215,4.629 17.099,4.514 17.01,4.439 C17.007,4.436 17.003,4.433 17,4.43 Z M13.455,6.401 L14.047,8.312 L14.709,8.123 L16.821,10.235 L16.651,7.236 L15.839,6.424 C15.629,6.214 15.515,6.099 15.439,6.01 C15.436,6.006 15.433,6.003 15.43,6 C15.433,5.997 15.436,5.993 15.439,5.99 C15.515,5.901 15.629,5.785 15.839,5.576 L16.518,4.896 L16.382,2.512 Z M11.306,14.72 C11.486,14.893 11.731,15 12,15 C12.552,15 13,14.552 13,14 C13,13.448 12.552,13 12,13 C11.448,13 11,13.448 11,14 C11,14.269 11.106,14.514 11.28,14.694 C11.284,14.698 11.289,14.702 11.293,14.707 C11.297,14.711 11.302,14.716 11.306,14.72 Z M17.877,11.291 L16.821,10.235 L17.046,14.198 Z M17.046,14.198 L16.481,16.176 L17.311,18.858 L17.046,14.198 Z"/>
</svg>
