<svg xmlns="http://www.w3.org/2000/svg" width="24" height="24" viewBox="0 0 24 24">
  <defs/>
  <path d="M14.382,1.512 C14.784,1.381 15.216,1.381 15.618,1.512 C15.908,1.606 16.13,1.766 16.305,1.914 C16.464,2.049 16.638,2.223 16.816,2.402 L21.598,7.184 C21.777,7.362 21.951,7.536 22.086,7.695 C22.234,7.87 22.394,8.092 22.488,8.382 C22.618,8.783 22.618,9.216 22.488,9.618 C22.394,9.908 22.234,10.13 22.086,10.304 C21.951,10.464 21.777,10.637 21.598,10.816 L20.816,11.598 C20.638,11.777 20.464,11.95 20.305,12.086 C20.13,12.234 19.908,12.394 19.618,12.488 C19.323,12.584 19.011,12.609 18.707,12.564 L17.681,17.694 C17.676,17.719 17.671,17.745 17.666,17.771 C17.611,18.05 17.542,18.4 17.362,18.703 C17.206,18.964 16.992,19.187 16.737,19.353 C16.442,19.545 16.094,19.628 15.818,19.694 C15.792,19.7 15.766,19.706 15.741,19.712 L2.235,22.972 C1.896,23.054 1.539,22.953 1.293,22.707 C1.047,22.461 0.946,22.104 1.028,21.765 L4.288,8.258 C4.294,8.234 4.3,8.208 4.306,8.182 C4.372,7.906 4.454,7.558 4.647,7.263 C4.813,7.008 5.035,6.794 5.297,6.638 C5.599,6.457 5.95,6.389 6.229,6.334 C6.255,6.329 6.281,6.324 6.306,6.319 L11.436,5.293 C11.391,4.989 11.416,4.677 11.512,4.382 C11.606,4.092 11.766,3.87 11.914,3.695 C12.049,3.536 12.223,3.362 12.402,3.184 L13.161,2.424 L13.184,2.402 C13.363,2.223 13.536,2.049 13.696,1.914 C13.87,1.766 14.092,1.606 14.382,1.512 Z M12.671,7.085 L6.698,8.28 C6.504,8.319 6.404,8.339 6.333,8.358 C6.331,8.359 6.329,8.359 6.327,8.36 C6.326,8.362 6.326,8.364 6.325,8.366 C6.303,8.437 6.279,8.536 6.232,8.728 L3.806,18.78 L8.292,14.293 C8.105,13.902 8,13.463 8,13 C8,11.343 9.343,10 11,10 C12.657,10 14,11.343 14,13 C14,14.657 12.657,16 11,16 C10.537,16 10.098,15.895 9.707,15.708 L5.22,20.194 L15.272,17.767 C15.464,17.721 15.563,17.697 15.634,17.675 C15.636,17.674 15.638,17.674 15.64,17.673 C15.64,17.671 15.641,17.669 15.642,17.667 C15.661,17.595 15.681,17.496 15.72,17.302 L16.914,11.328 Z M15,3.43 C14.997,3.433 14.993,3.436 14.99,3.439 C14.901,3.514 14.785,3.629 14.576,3.838 L13.839,4.576 C13.629,4.785 13.515,4.901 13.439,4.99 C13.436,4.993 13.433,4.997 13.43,5 C13.433,5.003 13.436,5.006 13.439,5.01 C13.515,5.099 13.629,5.214 13.839,5.424 L18.576,10.161 C18.785,10.371 18.901,10.485 18.99,10.561 C18.993,10.564 18.997,10.567 19,10.569 C19.003,10.567 19.007,10.564 19.01,10.561 C19.099,10.485 19.215,10.371 19.424,10.161 L20.162,9.424 C20.371,9.214 20.485,9.099 20.561,9.01 C20.564,9.006 20.567,9.003 20.57,9 C20.567,8.997 20.564,8.993 20.561,8.99 C20.485,8.901 20.371,8.785 20.162,8.576 L15.424,3.838 C15.215,3.629 15.099,3.514 15.01,3.439 C15.007,3.436 15.003,3.433 15,3.43 Z M10.305,13.719 C10.485,13.893 10.73,14 11,14 C11.552,14 12,13.552 12,13 C12,12.448 11.552,12 11,12 C10.448,12 10,12.448 10,13 C10,13.27 10.107,13.515 10.281,13.694 C10.285,13.698 10.289,13.703 10.293,13.707 C10.297,13.711 10.301,13.715 10.305,13.719 Z"/>
</svg>
