<svg xmlns="http://www.w3.org/2000/svg" width="24" height="24" viewBox="0 0 24 24">
  <defs/>
  <path d="M1.293,1.293 C1.539,1.047 1.896,0.946 2.235,1.028 L15.741,4.288 C15.766,4.294 15.792,4.3 15.818,4.306 C16.094,4.372 16.442,4.454 16.737,4.647 C16.992,4.813 17.206,5.035 17.362,5.297 C17.542,5.599 17.611,5.95 17.666,6.229 C17.671,6.255 17.676,6.281 17.681,6.306 L18.707,11.436 C19.011,11.391 19.323,11.416 19.618,11.512 C19.908,11.606 20.13,11.766 20.305,11.914 C20.464,12.049 20.638,12.223 20.816,12.402 L21.598,13.184 C21.777,13.363 21.951,13.536 22.086,13.696 C22.234,13.87 22.394,14.092 22.488,14.382 C22.618,14.784 22.618,15.216 22.488,15.618 C22.394,15.908 22.234,16.13 22.086,16.305 C21.951,16.464 21.777,16.638 21.598,16.816 L16.816,21.598 C16.638,21.777 16.464,21.951 16.305,22.086 C16.13,22.234 15.908,22.394 15.618,22.488 C15.216,22.618 14.784,22.618 14.382,22.488 C14.092,22.394 13.87,22.234 13.696,22.086 C13.536,21.951 13.363,21.777 13.184,21.598 L12.402,20.816 C12.223,20.638 12.049,20.464 11.914,20.305 C11.766,20.13 11.606,19.908 11.512,19.618 C11.416,19.323 11.391,19.011 11.436,18.707 L6.306,17.681 C6.281,17.676 6.255,17.671 6.229,17.666 C5.95,17.611 5.599,17.542 5.297,17.362 C5.035,17.206 4.813,16.992 4.647,16.737 C4.454,16.442 4.372,16.094 4.306,15.818 C4.3,15.792 4.294,15.766 4.288,15.741 L1.028,2.235 C0.946,1.896 1.047,1.539 1.293,1.293 Z M12.671,16.914 L16.914,12.671 L15.72,6.698 C15.681,6.504 15.661,6.404 15.642,6.333 C15.641,6.331 15.64,6.329 15.64,6.327 C15.638,6.326 15.636,6.326 15.634,6.325 C15.563,6.303 15.464,6.279 15.272,6.232 L5.22,3.806 L9.707,8.292 C10.098,8.105 10.537,8 11,8 C12.657,8 14,9.343 14,11 C14,12.657 12.657,14 11,14 C9.343,14 8,12.657 8,11 C8,10.537 8.105,10.098 8.292,9.707 L3.806,5.22 L6.232,15.272 C6.279,15.464 6.303,15.563 6.325,15.634 C6.326,15.636 6.326,15.638 6.327,15.64 C6.329,15.64 6.331,15.641 6.333,15.642 C6.404,15.661 6.504,15.681 6.698,15.72 Z M18.99,13.439 C18.901,13.515 18.785,13.629 18.576,13.839 L13.839,18.576 C13.629,18.785 13.515,18.901 13.439,18.99 C13.436,18.993 13.433,18.997 13.43,19 C13.433,19.003 13.436,19.007 13.439,19.01 C13.515,19.099 13.629,19.215 13.839,19.424 L14.576,20.162 C14.785,20.371 14.901,20.485 14.99,20.561 C14.993,20.564 14.997,20.567 15,20.57 C15.003,20.567 15.007,20.564 15.01,20.561 C15.099,20.485 15.215,20.371 15.424,20.162 L20.162,15.424 C20.371,15.215 20.485,15.099 20.561,15.01 C20.564,15.007 20.567,15.003 20.57,15 C20.567,14.997 20.564,14.993 20.561,14.99 C20.485,14.901 20.371,14.785 20.162,14.576 L19.424,13.839 C19.215,13.629 19.099,13.515 19.01,13.439 C19.007,13.436 19.003,13.433 19,13.43 C18.997,13.433 18.993,13.436 18.99,13.439 Z M10.281,10.305 C10.107,10.485 10,10.73 10,11 C10,11.552 10.448,12 11,12 C11.552,12 12,11.552 12,11 C12,10.448 11.552,10 11,10 C10.73,10 10.485,10.107 10.305,10.281 C10.301,10.285 10.297,10.289 10.293,10.293 C10.289,10.297 10.285,10.301 10.281,10.305 Z"/>
</svg>
