<svg xmlns="http://www.w3.org/2000/svg" width="24" height="24" viewBox="0 0 24 24">
  <defs/>
  <path d="M14.536,4.281 C14.838,4.183 15.162,4.183 15.464,4.281 C15.696,4.356 15.865,4.482 15.976,4.576 C16.072,4.657 16.172,4.758 16.256,4.842 C16.262,4.848 16.267,4.853 16.273,4.859 L19.158,7.744 C19.242,7.828 19.343,7.928 19.424,8.024 C19.518,8.135 19.644,8.304 19.719,8.536 C19.817,8.838 19.817,9.162 19.719,9.464 C19.644,9.696 19.518,9.865 19.424,9.976 C19.343,10.072 19.242,10.172 19.158,10.257 L8.808,20.606 C8.795,20.619 8.783,20.632 8.77,20.644 C8.584,20.831 8.419,20.996 8.228,21.135 C8.06,21.257 7.88,21.362 7.69,21.447 C7.475,21.544 7.25,21.605 6.995,21.674 C6.978,21.679 6.961,21.684 6.943,21.688 L2.263,22.965 C1.917,23.059 1.547,22.961 1.293,22.707 C1.039,22.453 0.941,22.083 1.035,21.737 L2.312,17.057 C2.316,17.039 2.321,17.022 2.326,17.005 C2.395,16.75 2.456,16.525 2.553,16.31 C2.638,16.12 2.743,15.94 2.865,15.772 C3.004,15.581 3.169,15.416 3.356,15.23 C3.369,15.217 3.381,15.205 3.394,15.192 L13.727,4.859 C13.733,4.853 13.738,4.848 13.744,4.842 C13.828,4.758 13.928,4.657 14.024,4.576 C14.135,4.482 14.304,4.356 14.536,4.281 Z M15,6.414 L4.808,16.606 C4.563,16.851 4.517,16.901 4.482,16.95 C4.441,17.006 4.406,17.066 4.378,17.129 C4.353,17.184 4.332,17.249 4.241,17.583 L3.425,20.575 L6.417,19.759 C6.751,19.668 6.816,19.647 6.871,19.622 C6.934,19.594 6.994,19.559 7.05,19.518 C7.099,19.483 7.149,19.437 7.394,19.192 L17.586,9 Z M17.293,1.293 C17.683,0.902 18.317,0.902 18.707,1.293 L22.707,5.293 C23.098,5.683 23.098,6.317 22.707,6.707 C22.317,7.098 21.683,7.098 21.293,6.707 L17.293,2.707 C16.902,2.317 16.902,1.683 17.293,1.293 Z"/>
</svg>
