<svg width="24" height="24" viewBox="0 0 24 24" fill="none" xmlns="http://www.w3.org/2000/svg">
<path d="M16.293 2.29249C17.788 0.797621 20.212 0.797585 21.707 2.29249C23.2021 3.78754 23.202 6.21145 21.707 7.70656L10.4277 18.9868C10.176 19.2386 9.99109 19.4256 9.78125 19.5884C9.69326 19.6567 9.60211 19.7211 9.50879 19.7818L9.2207 19.9527C8.98677 20.0782 8.74099 20.1713 8.4082 20.2993L2.85937 22.4331C2.49053 22.575 2.07241 22.486 1.79297 22.2066C1.51373 21.9272 1.42475 21.5098 1.5664 21.1411L3.70117 15.5913L3.875 15.148C3.9298 15.0158 3.98412 14.8957 4.04687 14.7788C4.15241 14.5822 4.27427 14.3946 4.41113 14.2183C4.57383 14.0086 4.76096 13.8245 5.01269 13.5728L16.293 2.29249ZM21 19.9995C21.5522 19.9995 21.9998 20.4474 22 20.9995C22 21.5518 21.5523 21.9995 21 21.9995H13C12.4477 21.9995 12 21.5518 12 20.9995C12.0002 20.4474 12.4478 19.9995 13 19.9995H21ZM4.24023 19.7583L7.2041 18.6187L5.37988 16.7944L4.24023 19.7583ZM20.293 3.70656C19.5791 2.99274 18.4211 2.99269 17.707 3.70656L6.42773 14.9868C6.42298 14.9916 6.41773 14.9959 6.41308 15.0005C6.46904 15.0553 6.5243 15.1107 6.57715 15.1636L8.83691 17.4224C8.88961 17.4751 8.94443 17.5307 8.99902 17.5864L20.293 6.29249C21.0069 5.57844 21.007 4.42055 20.293 3.70656Z" fill="black"/>
</svg>
