<svg width="22" height="22" viewBox="0 0 22 22" fill="none" xmlns="http://www.w3.org/2000/svg">
<path d="M15.293 1.29249C16.788 -0.202379 19.212 -0.202415 20.707 1.29249C22.2021 2.78754 22.202 5.21145 20.707 6.70656L9.42774 17.9868C9.17601 18.2386 8.9911 18.4256 8.78126 18.5884C8.69326 18.6567 8.60212 18.7211 8.5088 18.7818L8.22071 18.9527C7.98678 19.0782 7.741 19.1713 7.40821 19.2993L1.85938 21.4331C1.49053 21.575 1.07242 21.486 0.792975 21.2066C0.513733 20.9272 0.424757 20.5098 0.566412 20.1411L2.70118 14.5913L2.87501 14.148C2.9298 14.0158 2.98412 13.8957 3.04688 13.7788C3.15242 13.5822 3.27427 13.3946 3.41114 13.2183C3.57384 13.0086 3.76097 12.8245 4.0127 12.5728L15.293 1.29249ZM3.24024 18.7583L6.20411 17.6187L4.37989 15.7944L3.24024 18.7583ZM19.293 2.70656C18.5791 1.99274 17.4211 1.99269 16.707 2.70656L5.42774 13.9868C5.42299 13.9916 5.41773 13.9959 5.41309 14.0005C5.46904 14.0553 5.52431 14.1107 5.57715 14.1636L7.83692 16.4224C7.88962 16.4751 7.94443 16.5307 7.99903 16.5864L19.293 5.29249C20.0069 4.57844 20.007 3.42055 19.293 2.70656Z" fill="black"/>
</svg>
