<svg xmlns="http://www.w3.org/2000/svg" width="24" height="24" viewBox="0 0 24 24">
  <defs/>
  <path d="M11.503,1.548 C11.829,1.465 12.171,1.465 12.497,1.548 C12.875,1.645 13.198,1.882 13.456,2.07 C13.48,2.088 13.504,2.106 13.527,2.123 L21.646,8.015 C21.669,8.032 21.693,8.049 21.718,8.067 C21.978,8.253 22.303,8.487 22.513,8.817 C22.693,9.102 22.799,9.428 22.82,9.764 C22.845,10.154 22.719,10.535 22.619,10.838 L22.619,10.839 C22.61,10.868 22.6,10.896 22.591,10.923 L19.491,20.454 C19.482,20.482 19.473,20.51 19.464,20.539 C19.366,20.843 19.244,21.224 18.995,21.525 C18.78,21.785 18.503,21.986 18.19,22.11 C17.828,22.253 17.428,22.252 17.108,22.25 L17.107,22.25 C17.077,22.25 17.047,22.25 17.018,22.25 L6.982,22.25 C6.953,22.25 6.924,22.25 6.893,22.25 L6.892,22.25 C6.573,22.252 6.173,22.253 5.81,22.11 C5.497,21.986 5.22,21.785 5.005,21.525 C4.756,21.224 4.634,20.843 4.537,20.539 C4.527,20.51 4.518,20.482 4.51,20.454 L1.409,10.923 C1.4,10.896 1.391,10.868 1.382,10.839 C1.281,10.535 1.156,10.154 1.18,9.764 C1.201,9.428 1.307,9.102 1.488,8.817 C1.697,8.487 2.023,8.253 2.283,8.067 C2.307,8.049 2.331,8.032 2.355,8.015 L10.473,2.123 C10.496,2.106 10.52,2.088 10.545,2.07 C10.802,1.882 11.125,1.645 11.503,1.548 Z M11.994,3.498 C11.922,3.543 11.828,3.611 11.648,3.741 L3.529,9.633 C3.349,9.764 3.255,9.833 3.19,9.887 C3.188,9.889 3.186,9.891 3.184,9.892 C3.185,9.895 3.186,9.897 3.186,9.9 C3.207,9.982 3.242,10.093 3.311,10.304 L6.411,19.836 C6.48,20.047 6.517,20.158 6.548,20.236 L6.551,20.243 C6.554,20.243 6.556,20.243 6.559,20.244 C6.643,20.249 6.76,20.25 6.982,20.25 L17.018,20.25 C17.241,20.25 17.357,20.249 17.441,20.244 C17.444,20.243 17.447,20.243 17.449,20.243 C17.45,20.241 17.451,20.238 17.452,20.236 C17.484,20.158 17.52,20.047 17.589,19.836 L20.689,10.304 C20.758,10.093 20.794,9.982 20.814,9.9 C20.815,9.897 20.816,9.895 20.816,9.892 C20.814,9.891 20.812,9.889 20.81,9.887 C20.746,9.833 20.652,9.764 20.471,9.633 L12.353,3.741 C12.173,3.611 12.078,3.543 12.007,3.498 C12.005,3.497 12.002,3.495 12,3.494 C11.998,3.495 11.996,3.497 11.994,3.498 Z"/>
</svg>
