<svg xmlns="http://www.w3.org/2000/svg" width="24" height="24" viewBox="0 0 24 24">
  <defs/>
  <path d="M19.707,4.293 C20.098,4.683 20.098,5.317 19.707,5.707 L5.707,19.707 C5.317,20.098 4.683,20.098 4.293,19.707 C3.902,19.317 3.902,18.683 4.293,18.293 L18.293,4.293 C18.683,3.902 19.317,3.902 19.707,4.293 Z M15.5,17.5 C15.5,16.395 16.395,15.5 17.5,15.5 C18.605,15.5 19.5,16.395 19.5,17.5 C19.5,18.605 18.605,19.5 17.5,19.5 C16.395,19.5 15.5,18.605 15.5,17.5 Z M4.5,6.5 C4.5,5.395 5.395,4.5 6.5,4.5 C7.605,4.5 8.5,5.395 8.5,6.5 C8.5,7.605 7.605,8.5 6.5,8.5 C5.395,8.5 4.5,7.605 4.5,6.5 Z"/>
</svg>
