<svg xmlns="http://www.w3.org/2000/svg" width="24" height="24" viewBox="0 0 24 24">
  <defs/>
  <path d="M19.707,4.293 C20.098,4.683 20.098,5.317 19.707,5.707 L5.707,19.707 C5.317,20.098 4.683,20.098 4.293,19.707 C3.902,19.317 3.902,18.683 4.293,18.293 L18.293,4.293 C18.683,3.902 19.317,3.902 19.707,4.293 Z M14,17 C14,15.343 15.343,14 17,14 C18.657,14 20,15.343 20,17 C20,18.657 18.657,20 17,20 C15.343,20 14,18.657 14,17 Z M4,7 C4,5.343 5.343,4 7,4 C8.657,4 10,5.343 10,7 C10,8.657 8.657,10 7,10 C5.343,10 4,8.657 4,7 Z M17,16 C16.448,16 16,16.448 16,17 C16,17.552 16.448,18 17,18 C17.552,18 18,17.552 18,17 C18,16.448 17.552,16 17,16 Z M7,6 C6.448,6 6,6.448 6,7 C6,7.552 6.448,8 7,8 C7.552,8 8,7.552 8,7 C8,6.448 7.552,6 7,6 Z"/>
</svg>
