<svg xmlns="http://www.w3.org/2000/svg" width="24" height="24" viewBox="0 0 24 24">
  <defs/>
  <path d="M7.069,1.88 L18.744,4.474 C19.163,4.567 19.529,4.649 19.83,4.739 C20.15,4.836 20.462,4.96 20.754,5.17 C21.195,5.488 21.542,5.921 21.757,6.421 C21.899,6.751 21.952,7.082 21.977,7.416 C22,7.729 22,8.104 22,8.534 L22,15.467 C22,15.896 22,16.271 21.977,16.584 C21.952,16.918 21.899,17.249 21.757,17.58 C21.542,18.08 21.195,18.512 20.754,18.83 C20.462,19.04 20.15,19.165 19.83,19.261 C19.529,19.351 19.163,19.433 18.744,19.526 L7.069,22.12 C6.439,22.26 5.904,22.379 5.461,22.438 C5.001,22.498 4.531,22.511 4.062,22.356 C3.374,22.13 2.792,21.663 2.422,21.041 C2.169,20.617 2.08,20.154 2.039,19.692 C2,19.248 2,18.699 2,18.054 L2,5.946 C2,5.301 2,4.752 2.039,4.308 C2.08,3.846 2.169,3.383 2.422,2.959 C2.792,2.337 3.374,1.87 4.062,1.644 C4.531,1.489 5.001,1.502 5.461,1.563 C5.904,1.621 6.439,1.74 7.069,1.88 Z M9,11 L9,4.358 L6.677,3.842 C5.994,3.69 5.545,3.591 5.2,3.546 C4.864,3.501 4.741,3.526 4.687,3.544 C4.458,3.619 4.264,3.775 4.141,3.982 C4.112,4.03 4.061,4.145 4.031,4.483 C4.001,4.829 4,5.289 4,5.989 L4,11 Z M4,13 L4,18.011 C4,18.711 4.001,19.171 4.031,19.517 C4.061,19.855 4.112,19.97 4.141,20.018 C4.264,20.226 4.458,20.381 4.687,20.457 C4.741,20.474 4.864,20.499 5.2,20.455 C5.545,20.409 5.994,20.31 6.677,20.159 L9,19.642 L9,13 Z M15,11 L15,5.691 L11,4.802 L11,11 Z M11,13 L11,19.198 L15,18.309 L15,13 Z M17,13 L17,17.865 L18.277,17.581 C18.739,17.478 19.032,17.412 19.254,17.346 C19.464,17.283 19.543,17.237 19.584,17.207 C19.732,17.101 19.847,16.957 19.919,16.79 C19.939,16.743 19.966,16.656 19.982,16.438 C19.999,16.206 20,15.906 20,15.433 L20,13 Z M20,11 L20,8.567 C20,8.095 19.999,7.794 19.982,7.563 C19.966,7.344 19.939,7.257 19.919,7.21 C19.847,7.043 19.732,6.899 19.584,6.793 C19.543,6.763 19.464,6.718 19.254,6.655 C19.032,6.588 18.739,6.522 18.277,6.419 L17,6.136 L17,11 Z"/>
</svg>
