<svg xmlns="http://www.w3.org/2000/svg" width="24" height="24" viewBox="0 0 24 24">
  <defs/>
  <path d="M4.1,2.878 C4.951,2.447 5.956,2.447 6.808,2.878 C7.24,3.096 7.616,3.473 8.05,3.908 C8.082,3.94 8.114,3.972 8.146,4.004 L8.341,4.199 C8.362,4.22 8.383,4.241 8.404,4.262 C8.691,4.548 8.938,4.795 9.111,5.061 C9.757,6.056 9.757,7.338 9.111,8.332 C8.938,8.598 8.691,8.845 8.404,9.131 C8.383,9.152 8.362,9.173 8.341,9.194 C8.283,9.252 8.254,9.281 8.233,9.303 C8.233,9.305 8.233,9.306 8.232,9.308 C8.232,9.31 8.232,9.312 8.232,9.314 C8.235,9.322 8.239,9.331 8.245,9.344 C8.255,9.365 8.266,9.388 8.282,9.42 C8.93,10.77 9.813,12.035 10.934,13.156 C12.054,14.277 13.32,15.16 14.669,15.808 C14.701,15.823 14.725,15.835 14.745,15.844 C14.759,15.85 14.768,15.855 14.775,15.858 C14.777,15.858 14.779,15.858 14.781,15.857 C14.783,15.857 14.785,15.857 14.787,15.856 C14.809,15.836 14.838,15.806 14.896,15.749 C14.917,15.728 14.938,15.707 14.959,15.686 C15.245,15.399 15.491,15.152 15.758,14.979 C16.752,14.332 18.034,14.332 19.028,14.979 C19.295,15.152 19.541,15.399 19.827,15.686 C19.848,15.707 19.869,15.728 19.891,15.749 L20.085,15.944 C20.118,15.976 20.15,16.008 20.181,16.039 C20.617,16.474 20.993,16.849 21.212,17.282 C21.643,18.133 21.643,19.139 21.212,19.99 C20.993,20.423 20.617,20.798 20.181,21.233 C20.15,21.264 20.118,21.296 20.085,21.328 L19.928,21.486 C19.905,21.509 19.882,21.531 19.86,21.554 C19.395,22.02 19.038,22.377 18.556,22.647 C18.006,22.956 17.216,23.162 16.585,23.16 C16.033,23.158 15.631,23.044 15.112,22.896 C15.093,22.891 15.074,22.886 15.055,22.881 C11.862,21.974 8.849,20.264 6.338,17.752 C3.826,15.241 2.116,12.228 1.209,9.034 C1.204,9.015 1.199,8.997 1.193,8.978 C1.046,8.459 0.931,8.057 0.93,7.505 C0.928,6.874 1.133,6.084 1.442,5.534 L1.442,5.534 C1.713,5.052 2.07,4.695 2.536,4.23 C2.558,4.207 2.581,4.185 2.604,4.162 L2.761,4.004 C2.794,3.972 2.825,3.94 2.857,3.908 C3.291,3.473 3.667,3.096 4.1,2.878 Z M5.905,4.662 C5.621,4.519 5.286,4.519 5.002,4.662 C4.896,4.716 4.763,4.831 4.176,5.418 L4.018,5.576 C3.458,6.136 3.307,6.298 3.186,6.513 C3.046,6.762 2.929,7.213 2.93,7.499 C2.93,7.753 2.968,7.906 3.133,8.488 C3.949,11.362 5.487,14.074 7.752,16.338 C10.016,18.602 12.728,20.141 15.601,20.956 C16.184,21.122 16.337,21.159 16.591,21.16 C16.877,21.161 17.327,21.044 17.576,20.904 C17.791,20.783 17.953,20.632 18.514,20.072 L18.671,19.914 C19.258,19.327 19.374,19.194 19.427,19.087 C19.571,18.804 19.571,18.469 19.427,18.185 C19.374,18.078 19.258,17.945 18.671,17.358 L18.476,17.163 C18.091,16.777 18.004,16.698 17.938,16.656 C17.607,16.44 17.18,16.44 16.848,16.656 C16.782,16.698 16.695,16.777 16.31,17.163 C16.302,17.171 16.294,17.178 16.286,17.187 C16.197,17.277 16.083,17.391 15.947,17.488 C15.46,17.837 14.798,17.95 14.223,17.782 C14.062,17.736 13.93,17.672 13.828,17.622 C13.819,17.618 13.811,17.615 13.804,17.611 C12.254,16.867 10.802,15.853 9.52,14.57 C8.237,13.288 7.223,11.836 6.479,10.286 C6.475,10.278 6.471,10.27 6.467,10.262 C6.418,10.16 6.354,10.028 6.307,9.867 C6.14,9.292 6.253,8.63 6.601,8.143 C6.699,8.007 6.813,7.893 6.903,7.803 C6.911,7.795 6.919,7.787 6.927,7.78 C7.312,7.394 7.391,7.307 7.434,7.242 L7.434,7.242 C7.65,6.91 7.65,6.483 7.434,6.152 C7.391,6.086 7.312,5.999 6.927,5.613 L6.732,5.418 C6.145,4.831 6.012,4.716 5.905,4.662 Z M15.792,2.293 C16.183,1.902 16.816,1.902 17.207,2.293 C17.597,2.683 17.597,3.317 17.207,3.707 L15.414,5.5 L21,5.5 C21.552,5.5 22,5.948 22,6.5 C22,7.052 21.552,7.5 21,7.5 L15.414,7.5 L17.207,9.293 C17.597,9.683 17.597,10.317 17.207,10.707 C16.816,11.098 16.183,11.098 15.792,10.707 L12.292,7.207 C11.902,6.817 11.902,6.183 12.292,5.793 Z"/>
</svg>
