<svg xmlns="http://www.w3.org/2000/svg" width="24" height="24" viewBox="0 0 24 24">
  <defs/>
  <path d="M15.839,1 L15.839,1 C16.366,1 16.821,1 17.195,1.031 C17.59,1.063 17.984,1.134 18.362,1.327 C18.927,1.615 19.385,2.074 19.673,2.638 C19.866,3.016 19.937,3.41 19.969,3.805 C20,4.18 20,4.634 20,5.161 L20,18.838 C20,19.366 20,19.82 19.969,20.195 C19.937,20.59 19.866,20.984 19.673,21.362 C19.385,21.927 18.927,22.385 18.362,22.673 C17.984,22.866 17.59,22.937 17.195,22.969 C16.82,23 16.366,23 15.839,23 L8.161,23 C7.634,23 7.18,23 6.805,22.969 C6.41,22.937 6.016,22.866 5.638,22.673 C5.074,22.385 4.615,21.927 4.327,21.362 C4.134,20.984 4.063,20.59 4.031,20.195 C4,19.82 4,19.366 4,18.838 L4,5.161 C4,4.634 4,4.18 4.031,3.805 C4.063,3.41 4.134,3.016 4.327,2.638 C4.615,2.074 5.074,1.615 5.638,1.327 C6.016,1.134 6.41,1.063 6.805,1.031 C7.18,1 7.634,1 8.161,1 L15.839,1 Z M8,3 C7.535,3.001 7.217,3.004 6.968,3.024 C6.696,3.046 6.595,3.084 6.546,3.109 C6.358,3.205 6.205,3.358 6.109,3.546 C6.084,3.595 6.046,3.696 6.024,3.968 C6.001,4.251 6,4.623 6,5.2 L6,18.8 C6,19.377 6.001,19.749 6.024,20.032 C6.046,20.304 6.084,20.405 6.109,20.454 C6.205,20.642 6.358,20.795 6.546,20.891 C6.595,20.916 6.696,20.954 6.968,20.976 C7.251,20.999 7.623,21 8.2,21 L15.8,21 C16.377,21 16.749,20.999 17.032,20.976 C17.304,20.954 17.404,20.916 17.454,20.891 C17.642,20.795 17.795,20.642 17.891,20.454 C17.916,20.404 17.954,20.304 17.976,20.032 C17.999,19.749 18,19.377 18,18.8 L18,5.2 C18,4.623 17.999,4.251 17.976,3.968 C17.954,3.696 17.916,3.595 17.891,3.546 C17.795,3.358 17.642,3.205 17.454,3.109 C17.404,3.084 17.304,3.046 17.032,3.024 C16.783,3.004 16.465,3.001 16,3 L16,3.436 C16,3.687 16,3.931 15.983,4.138 C15.964,4.367 15.92,4.637 15.782,4.908 C15.59,5.284 15.284,5.59 14.908,5.782 C14.637,5.92 14.367,5.964 14.138,5.983 C13.93,6 13.684,6 13.432,6 L10.568,6 C10.316,6 10.07,6 9.862,5.983 C9.633,5.964 9.363,5.92 9.092,5.782 C8.716,5.59 8.41,5.284 8.218,4.908 C8.08,4.637 8.036,4.367 8.017,4.138 C8,3.93 8,3.684 8,3.432 Z M14,3 L10,3 L10,3.4 C10,3.697 10.001,3.859 10.01,3.975 C10.011,3.98 10.011,3.984 10.012,3.989 C10.016,3.989 10.02,3.989 10.025,3.99 C10.141,3.999 10.304,4 10.6,4 L13.4,4 C13.696,4 13.859,3.999 13.975,3.99 C13.98,3.989 13.984,3.989 13.989,3.989 C13.989,3.984 13.989,3.98 13.99,3.975 C13.999,3.859 14,3.697 14,3.4 Z"/>
</svg>
