<svg xmlns="http://www.w3.org/2000/svg" width="24" height="24" viewBox="0 0 24 24">
  <defs/>
  <path d="M21.707,2.293 C22.097,2.683 22.097,3.317 21.707,3.707 L12.618,12.796 C13.561,13.618 14.588,14.289 15.669,14.808 C15.701,14.823 15.725,14.835 15.745,14.844 C15.759,14.85 15.768,14.855 15.776,14.858 C15.777,14.858 15.779,14.858 15.781,14.857 C15.783,14.857 15.785,14.857 15.787,14.856 C15.809,14.836 15.838,14.806 15.896,14.749 C15.917,14.728 15.938,14.707 15.959,14.686 C16.245,14.399 16.491,14.152 16.758,13.979 C17.752,13.332 19.034,13.332 20.028,13.979 C20.295,14.152 20.541,14.399 20.827,14.686 C20.848,14.707 20.869,14.728 20.891,14.749 L21.085,14.944 C21.118,14.976 21.15,15.008 21.181,15.039 C21.617,15.474 21.993,15.849 22.212,16.282 C22.643,17.133 22.643,18.139 22.212,18.99 C21.993,19.423 21.617,19.798 21.181,20.233 C21.15,20.264 21.118,20.296 21.085,20.328 L20.928,20.486 C20.905,20.509 20.882,20.531 20.86,20.554 C20.395,21.02 20.038,21.377 19.556,21.647 C19.006,21.956 18.216,22.162 17.585,22.16 C17.033,22.158 16.631,22.044 16.112,21.896 C16.093,21.891 16.074,21.886 16.055,21.881 C13.144,21.054 10.383,19.56 8.015,17.399 L3.707,21.707 C3.316,22.098 2.683,22.098 2.293,21.707 C1.902,21.317 1.902,20.683 2.293,20.293 L20.292,2.293 C20.683,1.902 21.316,1.902 21.707,2.293 Z M6.905,3.662 C6.621,3.519 6.286,3.519 6.002,3.662 C5.896,3.716 5.763,3.831 5.176,4.418 L5.018,4.576 C4.458,5.136 4.307,5.298 4.186,5.513 C4.046,5.762 3.929,6.213 3.93,6.499 C3.93,6.753 3.968,6.906 4.133,7.488 C4.612,9.175 5.34,10.805 6.316,12.322 C6.615,12.786 6.481,13.405 6.017,13.704 C5.553,14.003 4.934,13.869 4.635,13.405 C3.549,11.719 2.741,9.908 2.209,8.034 C2.204,8.015 2.199,7.997 2.193,7.978 C2.046,7.459 1.931,7.057 1.93,6.505 C1.928,5.874 2.133,5.084 2.442,4.534 C2.713,4.052 3.07,3.695 3.536,3.23 C3.558,3.207 3.581,3.185 3.604,3.162 L3.761,3.004 C3.794,2.972 3.825,2.94 3.857,2.908 C4.291,2.473 4.667,2.096 5.1,1.878 C5.951,1.447 6.956,1.447 7.808,1.878 C8.24,2.096 8.616,2.473 9.05,2.908 C9.082,2.94 9.114,2.972 9.146,3.004 L9.341,3.199 C9.362,3.22 9.383,3.241 9.404,3.262 C9.691,3.548 9.938,3.795 10.111,4.061 C10.757,5.056 10.757,6.338 10.111,7.332 C9.938,7.598 9.691,7.845 9.404,8.131 C9.383,8.152 9.362,8.173 9.341,8.194 C9.283,8.252 9.254,8.281 9.233,8.303 C9.233,8.305 9.233,8.306 9.232,8.308 C9.232,8.31 9.232,8.312 9.232,8.314 C9.235,8.322 9.239,8.331 9.245,8.344 C9.255,8.365 9.266,8.388 9.282,8.42 C9.394,8.655 9.514,8.887 9.641,9.115 C9.908,9.599 9.733,10.207 9.25,10.475 C8.767,10.742 8.158,10.567 7.891,10.084 C7.745,9.821 7.608,9.555 7.479,9.286 C7.475,9.278 7.471,9.27 7.467,9.262 C7.418,9.16 7.354,9.028 7.307,8.867 C7.14,8.292 7.253,7.63 7.601,7.143 C7.699,7.007 7.813,6.893 7.903,6.803 C7.911,6.795 7.919,6.787 7.927,6.78 C8.312,6.394 8.391,6.307 8.434,6.242 C8.65,5.91 8.65,5.483 8.434,5.152 C8.391,5.086 8.312,4.999 7.927,4.613 L7.732,4.418 C7.145,3.831 7.012,3.716 6.905,3.662 Z M11.201,14.213 L9.431,15.983 C11.55,17.897 14.01,19.221 16.601,19.956 C17.184,20.122 17.337,20.159 17.591,20.16 C17.877,20.161 18.327,20.044 18.576,19.904 C18.791,19.783 18.953,19.632 19.514,19.072 L19.671,18.914 C20.258,18.327 20.374,18.194 20.427,18.087 C20.571,17.804 20.571,17.469 20.427,17.185 C20.374,17.078 20.258,16.945 19.671,16.358 L19.476,16.163 C19.091,15.777 19.004,15.698 18.938,15.656 C18.607,15.44 18.18,15.44 17.848,15.656 C17.782,15.698 17.695,15.777 17.31,16.163 C17.302,16.171 17.294,16.178 17.286,16.187 C17.197,16.277 17.083,16.391 16.947,16.488 C16.46,16.837 15.798,16.95 15.223,16.782 C15.062,16.736 14.93,16.672 14.828,16.622 C14.819,16.618 14.811,16.615 14.804,16.611 C13.522,15.996 12.308,15.196 11.201,14.213 Z"/>
</svg>
