<svg xmlns="http://www.w3.org/2000/svg" width="24" height="24" viewBox="0 0 24 24">
  <defs/>
  <path d="M9.149,5.04 C9.329,5.019 9.716,4.975 10.086,5.132 C10.39,5.261 10.657,5.502 10.816,5.792 C10.936,6.012 10.974,6.224 10.988,6.382 C11,6.513 11,6.659 11,6.776 L11,13 L17.224,13 C17.341,13 17.487,13 17.618,13.012 C17.776,13.026 17.988,13.064 18.208,13.184 C18.498,13.343 18.739,13.61 18.868,13.914 C19.025,14.284 18.981,14.671 18.96,14.851 C18.958,14.869 18.956,14.885 18.955,14.899 C18.808,16.361 18.305,17.77 17.483,19 C16.494,20.48 15.089,21.634 13.444,22.315 C11.8,22.996 9.99,23.174 8.244,22.827 C6.498,22.48 4.895,21.623 3.636,20.364 C2.377,19.105 1.52,17.502 1.173,15.756 C0.826,14.01 1.004,12.2 1.685,10.556 C2.366,8.911 3.52,7.506 5,6.517 C6.23,5.695 7.639,5.192 9.101,5.045 C9.115,5.044 9.131,5.042 9.149,5.04 Z M9,7.072 C7.971,7.22 6.983,7.597 6.111,8.18 C4.96,8.949 4.063,10.042 3.533,11.321 C3.003,12.6 2.864,14.008 3.135,15.366 C3.405,16.723 4.071,17.971 5.05,18.95 C6.029,19.929 7.277,20.595 8.634,20.865 C9.992,21.136 11.4,20.997 12.679,20.467 C13.958,19.937 15.051,19.04 15.82,17.889 C16.403,17.017 16.78,16.029 16.928,15 L10.773,15 C10.655,15 10.514,15 10.39,14.99 C10.245,14.978 10.037,14.948 9.819,14.837 C9.537,14.693 9.307,14.463 9.163,14.181 C9.052,13.963 9.022,13.755 9.01,13.61 C9,13.484 9,13.342 9,13.223 Z M14.851,1.04 C14.869,1.042 14.885,1.044 14.899,1.045 C16.955,1.251 18.889,2.161 20.364,3.636 C21.839,5.111 22.749,7.045 22.955,9.101 C22.956,9.115 22.958,9.131 22.96,9.149 C22.981,9.329 23.025,9.716 22.868,10.086 C22.739,10.39 22.498,10.657 22.208,10.816 C21.988,10.936 21.776,10.973 21.618,10.988 C21.487,11 21.341,11 21.224,11 L14.773,11 C14.655,11 14.514,11 14.39,10.99 C14.245,10.978 14.037,10.948 13.819,10.837 C13.537,10.693 13.307,10.463 13.163,10.181 C13.052,9.963 13.022,9.755 13.01,9.61 C13,9.486 13,9.345 13,9.227 L13,2.776 C13,2.659 13,2.513 13.012,2.382 C13.027,2.224 13.064,2.012 13.184,1.792 C13.343,1.502 13.61,1.261 13.914,1.132 C14.284,0.975 14.671,1.019 14.851,1.04 Z M15,3.072 L15,9 L20.928,9 C20.714,7.513 20.024,6.125 18.95,5.05 C17.875,3.976 16.487,3.286 15,3.072 Z"/>
</svg>
