<svg xmlns="http://www.w3.org/2000/svg" width="24" height="24" viewBox="0 0 24 24">
  <defs/>
  <path d="M12.831,1.031 C12.849,1.033 12.866,1.034 12.88,1.035 C14.023,1.127 15.147,1.397 16.21,1.837 C17.545,2.39 18.757,3.2 19.779,4.222 C20.8,5.243 21.61,6.456 22.163,7.791 C22.603,8.854 22.874,9.978 22.965,11.121 C22.966,11.135 22.968,11.151 22.97,11.17 C22.987,11.352 23.024,11.741 22.863,12.105 C22.731,12.405 22.492,12.664 22.204,12.82 C21.984,12.939 21.772,12.974 21.617,12.988 C21.487,13 21.341,13 21.224,13 L12.777,13 C12.658,13 12.516,13 12.391,12.99 C12.245,12.978 12.037,12.948 11.819,12.837 C11.537,12.693 11.308,12.463 11.164,12.181 C11.053,11.963 11.022,11.755 11.01,11.61 C11,11.486 11,11.345 11,11.227 L11,2.776 C11,2.659 11,2.513 11.012,2.384 C11.026,2.228 11.062,2.017 11.181,1.797 C11.336,1.508 11.595,1.269 11.895,1.137 C12.259,0.977 12.648,1.014 12.831,1.031 Z M8.917,2.43 C9.138,2.936 8.907,3.526 8.4,3.747 C7.053,4.335 5.87,5.244 4.955,6.394 C4.04,7.545 3.421,8.902 3.152,10.348 C2.883,11.793 2.972,13.282 3.411,14.685 C3.851,16.088 4.627,17.362 5.672,18.396 C6.718,19.429 8.001,20.191 9.408,20.614 C10.816,21.038 12.307,21.11 13.749,20.824 C15.191,20.538 16.541,19.904 17.681,18.976 C18.821,18.048 19.717,16.855 20.289,15.501 C20.504,14.992 21.091,14.754 21.6,14.969 C22.108,15.184 22.347,15.771 22.131,16.279 C21.432,17.934 20.337,19.393 18.944,20.527 C17.55,21.661 15.9,22.437 14.137,22.786 C12.375,23.135 10.553,23.047 8.833,22.529 C7.112,22.012 5.544,21.081 4.266,19.818 C2.989,18.555 2.04,16.997 1.503,15.283 C0.966,13.568 0.857,11.748 1.186,9.982 C1.515,8.215 2.271,6.556 3.39,5.15 C4.508,3.743 5.954,2.632 7.6,1.913 C8.107,1.693 8.696,1.924 8.917,2.43 Z M13,3.056 L13,11 L20.945,11 C20.851,10.161 20.639,9.339 20.315,8.556 C19.863,7.464 19.2,6.472 18.364,5.636 C17.529,4.8 16.537,4.137 15.445,3.685 C14.662,3.361 13.839,3.15 13,3.056 Z"/>
</svg>
