<svg xmlns="http://www.w3.org/2000/svg" width="24" height="24" viewBox="0 0 24 24">
  <defs/>
  <path d="M23,12 C23,18.075 18.075,23 12,23 C5.925,23 1,18.075 1,12 C1,5.925 5.925,1 12,1 C15.005,1 17.728,2.205 19.713,4.157 C19.735,4.179 19.757,4.2 19.778,4.222 C19.8,4.243 19.821,4.265 19.843,4.287 C21.795,6.272 23,8.995 23,12 Z M11,3.055 C6.5,3.552 3,7.367 3,12 C3,16.971 7.029,21 12,21 C13.618,21 15.137,20.573 16.449,19.825 L11.191,12.588 C11.067,12.417 11,12.211 11,12 Z M13,3.056 L13,11 L20.944,11 C20.851,10.161 20.639,9.339 20.315,8.556 C19.871,7.483 19.223,6.506 18.407,5.68 C18.378,5.65 18.35,5.622 18.32,5.593 C17.494,4.777 16.517,4.13 15.444,3.685 C14.661,3.361 13.839,3.149 13,3.056 Z M20.944,13 L13.963,13 L18.066,18.648 C18.864,17.92 19.526,17.053 20.019,16.086 C20.512,15.119 20.824,14.073 20.944,13 Z"/>
</svg>
