<svg xmlns="http://www.w3.org/2000/svg" width="24" height="24" viewBox="0 0 24 24">
  <defs/>
  <path d="M12.017,1 C18.084,1.009 23,5.93 23,12 C23,18.075 18.075,23 12,23 C8.962,23 6.212,21.769 4.222,19.778 C4.159,19.715 4.096,19.651 4.035,19.586 C2.178,17.637 1.029,15.008 1.001,12.11 C1,12.03 1,11.95 1.001,11.871 C1.034,8.969 2.192,6.336 4.058,4.389 C4.167,4.276 4.278,4.165 4.392,4.056 C6.362,2.168 9.034,1.006 11.977,1 L12,1 Z M9.576,20.67 C10.347,20.885 11.16,21 12,21 C16.971,21 21,16.971 21,12 C21,7.4 17.548,3.605 13.094,3.066 L13,12.01 C12.999,12.135 12.974,12.259 12.927,12.375 Z M3,12.09 C3.014,13.448 3.335,14.797 3.953,16.03 C4.356,16.835 4.874,17.568 5.485,18.209 C5.583,18.312 5.683,18.412 5.786,18.51 C6.363,19.062 7.014,19.536 7.722,19.918 L10.648,12.677 L3.097,10.682 C3.037,11.085 3.005,11.49 3.001,11.894 C3,11.929 3,11.965 3,12 C3,12.03 3,12.06 3,12.09 Z M11.094,3.046 C9.453,3.212 7.882,3.826 6.559,4.831 C6.284,5.04 6.022,5.263 5.775,5.5 C5.682,5.589 5.591,5.68 5.502,5.773 C4.689,6.622 4.049,7.622 3.619,8.719 L11.014,10.7 Z"/>
</svg>
