<svg xmlns="http://www.w3.org/2000/svg" width="24" height="24" viewBox="0 0 24 24">
  <defs/>
  <path d="M7,6.5 C7,4.015 9.015,2 11.5,2 C13.758,2 15.628,3.663 15.951,5.831 L17.705,5.33 C17.715,5.327 17.723,5.325 17.733,5.322 C17.881,5.28 18.05,5.231 18.199,5.203 C18.363,5.171 18.621,5.138 18.909,5.22 C19.269,5.322 19.578,5.555 19.775,5.873 C19.933,6.128 19.972,6.385 19.987,6.552 C20,6.702 20,6.878 20,7.032 L20,8.101 C20.54,8.652 20.99,9.293 21.326,10 C21.417,10 21.515,10.002 21.605,10.009 C21.743,10.02 21.941,10.047 22.151,10.149 C22.457,10.296 22.704,10.543 22.851,10.849 C22.952,11.059 22.98,11.257 22.991,11.395 C23,11.514 23,11.647 23,11.76 L23,15.223 C23,15.342 23,15.484 22.99,15.61 C22.978,15.755 22.948,15.963 22.837,16.181 C22.693,16.463 22.463,16.693 22.181,16.837 C21.963,16.948 21.755,16.978 21.61,16.99 C21.485,17 21.342,17 21.223,17 L20.745,17 C20.052,17.995 19.106,18.801 18,19.326 L18,20.223 C18,20.342 18,20.485 17.99,20.61 C17.978,20.755 17.948,20.963 17.837,21.181 C17.693,21.463 17.463,21.693 17.181,21.837 C16.963,21.948 16.755,21.978 16.61,21.99 C16.485,22 16.342,22 16.223,22 L14.277,22 C14.158,22 14.015,22 13.89,21.99 C13.745,21.978 13.537,21.948 13.319,21.837 C13.037,21.693 12.807,21.463 12.663,21.181 C12.552,20.963 12.522,20.755 12.51,20.61 C12.5,20.486 12.5,20.345 12.5,20.227 L12.5,20 L11.5,20 L11.5,20.223 C11.5,20.342 11.5,20.485 11.49,20.61 C11.478,20.755 11.448,20.963 11.336,21.181 C11.193,21.463 10.963,21.693 10.681,21.837 C10.463,21.948 10.255,21.978 10.11,21.99 C9.984,22 9.842,22 9.723,22 L7.777,22 C7.658,22 7.515,22 7.39,21.99 C7.245,21.978 7.037,21.948 6.819,21.837 C6.537,21.693 6.307,21.463 6.163,21.181 C6.052,20.963 6.022,20.755 6.01,20.61 C6,20.485 6,20.343 6,20.224 L6,20.223 L6,17.899 C4.984,16.862 4.287,15.508 4.071,14 L4,14 C2.343,14 1,12.657 1,11 C1,9.888 1.605,8.919 2.499,8.402 C2.977,8.125 3.589,8.289 3.866,8.767 C4.142,9.245 3.979,9.857 3.501,10.133 C3.199,10.308 3,10.631 3,11 C3,11.552 3.448,12 4,12 L4.071,12 C4.355,10.015 5.472,8.298 7.057,7.215 C7.019,6.982 7,6.743 7,6.5 Z M10.553,8.02 C8.001,8.246 6,10.389 6,13 C6,14.374 6.553,15.617 7.451,16.522 C7.457,16.528 7.464,16.535 7.471,16.542 C7.543,16.613 7.684,16.754 7.781,16.913 C7.865,17.05 7.922,17.188 7.959,17.345 C8.002,17.525 8.001,17.713 8,17.804 C8,17.814 8,17.822 8,17.83 L8,20 L9.5,20 L9.5,19.777 L9.5,19.776 C9.5,19.657 9.5,19.515 9.51,19.39 C9.522,19.245 9.552,19.037 9.663,18.819 C9.807,18.537 10.037,18.307 10.319,18.163 C10.537,18.052 10.745,18.022 10.89,18.01 C11.015,18 11.158,18 11.277,18 L12.723,18 C12.842,18 12.984,18 13.11,18.01 C13.255,18.022 13.463,18.052 13.681,18.163 C13.963,18.307 14.193,18.537 14.336,18.819 C14.448,19.037 14.478,19.245 14.49,19.39 C14.5,19.515 14.5,19.658 14.5,19.777 L14.5,20 L16,20 L16,19.224 C16,19.213 16,19.199 16,19.184 L16,19.184 C15.998,19.045 15.995,18.762 16.086,18.506 C16.165,18.285 16.282,18.1 16.45,17.936 C16.583,17.806 16.725,17.725 16.813,17.678 C16.897,17.633 16.997,17.587 17.087,17.545 L17.103,17.538 C17.921,17.158 18.62,16.563 19.126,15.825 C19.133,15.815 19.14,15.805 19.148,15.793 C19.219,15.687 19.36,15.478 19.541,15.332 C19.696,15.207 19.861,15.12 20.052,15.063 C20.273,14.997 20.51,14.999 20.626,15 L20.626,15 C20.638,15 20.649,15 20.659,15 L21,15 L21,11.999 C20.863,11.994 20.69,11.976 20.528,11.921 C20.289,11.841 20.091,11.714 19.918,11.531 C19.795,11.402 19.719,11.267 19.675,11.182 C19.632,11.102 19.588,11.006 19.548,10.92 L19.542,10.905 C19.385,10.567 19.192,10.248 18.967,9.955 L10.553,8.02 Z M10.819,6.002 C10.879,6.001 10.939,6 11,6 L13.95,6 C13.718,4.859 12.71,4 11.5,4 C10.191,4 9.117,5.006 9.009,6.287 C9.585,6.117 10.192,6.018 10.819,6.002 Z M15.555,7.995 C15.49,8 15.427,8 15.396,8 L15.387,8 L12.467,8 L18.786,9.734 C18.71,9.646 18.631,9.561 18.549,9.478 C18.543,9.472 18.536,9.465 18.528,9.457 C18.457,9.387 18.316,9.246 18.219,9.087 C18.135,8.95 18.078,8.811 18.041,8.655 C17.998,8.475 17.999,8.287 18,8.196 C18,8.186 18,8.178 18,8.17 L18,7.326 L15.882,7.931 C15.88,7.931 15.877,7.932 15.874,7.933 C15.845,7.942 15.785,7.959 15.72,7.972 C15.666,7.982 15.611,7.99 15.555,7.995 Z M7.057,7.215 L10.553,8.02 C10.653,8.011 10.755,8.005 10.857,8.002 C10.904,8.001 10.952,8 11,8 L12.467,8 L7,6.5 Z M18.786,9.734 C18.848,9.806 18.908,9.88 18.967,9.955 L22.851,10.849 L18.786,9.734 Z"/>
</svg>
