<svg xmlns="http://www.w3.org/2000/svg" width="24" height="24" viewBox="0 0 24 24">
  <defs/>
  <path d="M8.364,1 L15.677,1 C16.039,1 16.375,1 16.65,1.025 C16.938,1.051 17.297,1.113 17.628,1.333 C18.068,1.624 18.374,2.077 18.482,2.593 C18.562,2.983 18.487,3.339 18.404,3.616 C18.325,3.881 18.2,4.193 18.066,4.529 L17.043,7.085 C17.02,7.143 17.009,7.171 17.001,7.191 L17.001,7.193 L17.001,7.194 C17,7.216 17,7.246 17,7.308 L17,9.439 C17,9.55 17.001,9.605 17.002,9.646 L17.002,9.649 C17.003,9.649 17.003,9.65 17.004,9.651 C17.028,9.683 17.062,9.726 17.132,9.814 L18.729,11.811 C19.038,12.197 19.312,12.539 19.504,12.829 C19.691,13.112 19.919,13.513 19.92,13.998 C19.92,14.607 19.643,15.183 19.167,15.563 C18.789,15.865 18.333,15.938 17.995,15.969 C17.65,16 17.213,16 16.721,16 L13,16 L13,22 C13,22.552 12.553,23 12,23 C11.448,23 11,22.552 11,22 L11,16 L7.28,16 C6.788,16 6.351,16 6.006,15.969 C5.668,15.938 5.212,15.865 4.833,15.563 C4.357,15.183 4.08,14.607 4.081,13.998 C4.082,13.513 4.31,13.112 4.497,12.829 C4.689,12.539 4.962,12.197 5.271,11.811 L6.869,9.814 C6.939,9.726 6.973,9.683 6.997,9.651 L6.999,9.649 L6.999,9.646 C7,9.605 7,9.55 7,9.439 L7,7.308 C7,7.246 7,7.216 7,7.194 L7,7.193 L6.999,7.191 C6.992,7.171 6.98,7.143 6.958,7.085 L5.95,4.566 C5.945,4.553 5.94,4.541 5.935,4.529 C5.801,4.193 5.676,3.881 5.597,3.616 C5.514,3.339 5.438,2.983 5.519,2.593 C5.627,2.077 5.933,1.624 6.372,1.333 C6.704,1.113 7.063,1.051 7.351,1.025 C7.626,1 7.962,1 8.324,1 L8.364,1 Z M16.671,14 C17.224,14 17.569,13.999 17.814,13.977 C17.831,13.975 17.847,13.974 17.861,13.972 C17.854,13.96 17.845,13.946 17.836,13.932 C17.7,13.727 17.485,13.457 17.14,13.025 L15.57,11.063 C15.561,11.052 15.552,11.041 15.543,11.029 C15.442,10.903 15.314,10.744 15.219,10.559 C15.137,10.399 15.078,10.228 15.041,10.051 C15,9.848 15,9.644 15,9.482 L15,7.284 L15,7.283 C15,7.193 15,7.08 15.013,6.965 C15.025,6.864 15.044,6.764 15.071,6.666 C15.102,6.554 15.144,6.448 15.177,6.365 C15.181,6.357 15.184,6.35 15.186,6.343 L16.194,3.823 C16.348,3.438 16.438,3.211 16.488,3.044 C16.49,3.035 16.493,3.027 16.495,3.019 C16.487,3.018 16.478,3.018 16.469,3.017 C16.295,3.001 16.052,3 15.637,3 L8.364,3 C7.949,3 7.705,3.001 7.532,3.017 C7.523,3.018 7.514,3.018 7.506,3.019 C7.508,3.027 7.511,3.035 7.513,3.044 C7.563,3.211 7.652,3.438 7.807,3.823 L8.814,6.343 C8.817,6.35 8.82,6.357 8.823,6.365 C8.857,6.448 8.899,6.554 8.93,6.666 C8.957,6.764 8.976,6.864 8.987,6.965 C9.001,7.081 9.001,7.194 9,7.284 L9,7.308 L9,9.439 C9,9.453 9,9.467 9,9.482 C9.001,9.644 9.001,9.848 8.96,10.051 C8.923,10.228 8.863,10.399 8.781,10.559 C8.687,10.744 8.559,10.903 8.458,11.029 C8.449,11.041 8.439,11.052 8.431,11.063 L6.861,13.025 C6.516,13.457 6.301,13.727 6.165,13.932 C6.156,13.946 6.147,13.96 6.139,13.972 C6.154,13.974 6.17,13.975 6.187,13.977 C6.431,13.999 6.777,14 7.329,14 Z"/>
</svg>
