<svg xmlns="http://www.w3.org/2000/svg" width="24" height="24" viewBox="0 0 24 24">
  <defs/>
  <path d="M13.274,1.553 C13.715,1.264 14.252,1.161 14.768,1.266 C15.158,1.345 15.456,1.555 15.678,1.74 C15.891,1.917 16.128,2.154 16.384,2.41 L21.583,7.609 C21.839,7.865 22.076,8.103 22.253,8.315 C22.438,8.537 22.648,8.835 22.728,9.225 C22.832,9.741 22.729,10.278 22.44,10.719 C22.222,11.052 21.916,11.25 21.661,11.388 C21.418,11.519 21.109,11.651 20.777,11.794 L18.246,12.879 C18.189,12.903 18.162,12.915 18.142,12.924 L18.14,12.925 L18.139,12.926 C18.123,12.941 18.102,12.962 18.058,13.006 L16.497,14.567 C16.429,14.635 16.396,14.669 16.372,14.694 L16.37,14.696 L16.37,14.698 C16.362,14.732 16.352,14.779 16.333,14.873 L15.592,18.58 C15.504,19.02 15.425,19.415 15.333,19.726 C15.241,20.036 15.089,20.437 14.747,20.741 C14.309,21.129 13.724,21.306 13.145,21.226 C12.692,21.163 12.343,20.913 12.094,20.706 C11.845,20.499 11.56,20.214 11.243,19.897 L8.377,17.031 L3.427,21.98 C3.036,22.371 2.403,22.371 2.013,21.98 C1.622,21.59 1.622,20.957 2.013,20.566 L6.963,15.616 L4.096,12.75 C3.779,12.433 3.494,12.148 3.287,11.899 C3.08,11.65 2.83,11.301 2.767,10.848 C2.687,10.269 2.864,9.684 3.252,9.246 C3.556,8.904 3.957,8.752 4.267,8.66 C4.578,8.568 4.973,8.489 5.413,8.401 L9.12,7.66 C9.215,7.641 9.261,7.631 9.295,7.623 L9.297,7.623 L9.299,7.621 C9.324,7.597 9.358,7.564 9.426,7.496 L10.987,5.935 C11.031,5.891 11.052,5.87 11.068,5.854 L11.068,5.853 L11.069,5.851 C11.078,5.831 11.09,5.804 11.115,5.747 L12.199,3.216 C12.342,2.884 12.474,2.575 12.605,2.332 C12.743,2.077 12.941,1.772 13.274,1.553 Z M12.627,18.452 C12.984,18.809 13.204,19.028 13.373,19.169 C13.384,19.178 13.394,19.186 13.404,19.194 C13.408,19.182 13.412,19.17 13.416,19.156 C13.479,18.944 13.54,18.641 13.639,18.146 L14.372,14.481 C14.375,14.469 14.377,14.457 14.38,14.444 C14.407,14.307 14.441,14.133 14.507,13.965 C14.564,13.819 14.639,13.68 14.729,13.551 C14.832,13.403 14.957,13.278 15.057,13.179 C15.066,13.17 15.075,13.161 15.083,13.153 L16.644,11.592 L16.661,11.575 C16.725,11.511 16.805,11.431 16.896,11.358 C16.976,11.295 17.06,11.238 17.148,11.188 C17.249,11.13 17.354,11.085 17.437,11.05 C17.444,11.046 17.451,11.043 17.458,11.04 L19.953,9.971 C20.334,9.808 20.557,9.711 20.711,9.628 C20.719,9.624 20.726,9.62 20.734,9.616 C20.729,9.609 20.723,9.603 20.717,9.595 C20.605,9.462 20.434,9.289 20.141,8.995 L14.998,3.852 C14.704,3.559 14.531,3.388 14.398,3.276 C14.391,3.27 14.384,3.265 14.377,3.26 C14.373,3.267 14.369,3.274 14.365,3.282 C14.282,3.436 14.185,3.659 14.022,4.04 L12.953,6.535 C12.95,6.542 12.947,6.549 12.943,6.557 C12.908,6.639 12.863,6.744 12.806,6.845 C12.755,6.933 12.698,7.017 12.635,7.097 C12.562,7.188 12.482,7.268 12.418,7.332 C12.413,7.338 12.407,7.343 12.401,7.349 L10.841,8.91 C10.832,8.918 10.823,8.927 10.814,8.936 C10.715,9.036 10.59,9.161 10.442,9.264 C10.313,9.354 10.174,9.429 10.028,9.486 C9.86,9.552 9.686,9.586 9.549,9.614 C9.536,9.616 9.524,9.618 9.512,9.621 L5.848,10.354 C5.352,10.453 5.049,10.515 4.837,10.577 C4.823,10.582 4.811,10.585 4.799,10.589 C4.807,10.599 4.815,10.609 4.824,10.62 C4.965,10.789 5.184,11.009 5.541,11.366 Z"/>
</svg>
