<svg xmlns="http://www.w3.org/2000/svg" width="24" height="24" viewBox="0 0 24 24">
  <defs/>
  <path d="M17.026,2.117 C18.38,0.72 20.616,0.702 21.991,2.077 C23.33,3.415 23.354,5.577 22.048,6.945 L19.269,9.855 C19.152,9.977 19.094,10.039 19.053,10.087 C19.052,10.088 19.051,10.089 19.05,10.09 C19.05,10.092 19.051,10.094 19.051,10.095 C19.061,10.157 19.08,10.24 19.118,10.405 L20.846,17.892 C20.851,17.913 20.856,17.936 20.861,17.958 C20.919,18.201 20.99,18.507 20.966,18.819 C20.945,19.089 20.87,19.352 20.744,19.592 C20.599,19.87 20.376,20.091 20.199,20.267 C20.183,20.284 20.167,20.299 20.151,20.315 L19.751,20.715 C19.473,20.993 19.218,21.248 18.992,21.436 C18.76,21.63 18.442,21.854 18.028,21.928 C17.486,22.023 16.929,21.892 16.487,21.564 C16.149,21.313 15.966,20.97 15.845,20.693 C15.727,20.424 15.613,20.082 15.488,19.709 L13.977,15.175 L11.776,17.377 C11.669,17.483 11.616,17.537 11.578,17.579 C11.578,17.58 11.577,17.581 11.576,17.582 L11.576,17.586 C11.579,17.641 11.587,17.717 11.604,17.867 L11.788,19.521 C11.79,19.539 11.792,19.559 11.794,19.579 C11.819,19.796 11.85,20.07 11.807,20.343 C11.769,20.58 11.689,20.807 11.571,21.016 C11.434,21.256 11.239,21.45 11.084,21.604 C11.07,21.619 11.056,21.632 11.042,21.646 L10.844,21.844 L10.819,21.869 C10.605,22.083 10.4,22.288 10.215,22.443 C10.016,22.61 9.757,22.794 9.417,22.882 C8.956,23.002 8.467,22.954 8.039,22.746 C7.723,22.592 7.505,22.362 7.342,22.159 C7.191,21.97 7.031,21.73 6.863,21.477 L5.274,19.095 C5.239,19.041 5.221,19.015 5.208,18.997 L5.207,18.995 L5.206,18.995 C5.187,18.982 5.161,18.964 5.108,18.928 L2.726,17.34 C2.473,17.172 2.233,17.012 2.044,16.861 C1.841,16.698 1.61,16.48 1.457,16.164 C1.249,15.736 1.2,15.247 1.321,14.786 C1.409,14.446 1.593,14.187 1.76,13.988 C1.915,13.802 2.119,13.598 2.334,13.384 L2.557,13.161 C2.57,13.147 2.584,13.133 2.598,13.119 C2.753,12.964 2.947,12.769 3.187,12.632 C3.395,12.514 3.623,12.434 3.86,12.396 C4.133,12.352 4.406,12.384 4.624,12.408 C4.644,12.411 4.663,12.413 4.682,12.415 L6.336,12.599 C6.486,12.616 6.562,12.624 6.617,12.627 L6.621,12.627 C6.622,12.626 6.623,12.625 6.624,12.624 C6.665,12.587 6.719,12.534 6.826,12.427 L9.027,10.226 L4.494,8.715 C4.121,8.59 3.779,8.476 3.51,8.358 C3.232,8.237 2.89,8.053 2.639,7.715 C2.311,7.274 2.179,6.717 2.275,6.175 C2.348,5.76 2.573,5.443 2.767,5.211 C2.955,4.985 3.21,4.73 3.488,4.452 C3.497,4.442 3.507,4.432 3.517,4.422 L3.888,4.052 C3.903,4.036 3.919,4.02 3.936,4.003 C4.112,3.826 4.333,3.603 4.61,3.458 C4.85,3.333 5.113,3.257 5.383,3.237 C5.696,3.213 6.001,3.284 6.245,3.341 C6.267,3.347 6.289,3.352 6.311,3.357 L13.77,5.078 C13.936,5.116 14.02,5.135 14.082,5.146 C14.084,5.146 14.086,5.147 14.087,5.147 C14.089,5.146 14.09,5.145 14.091,5.143 C14.137,5.101 14.198,5.039 14.316,4.917 Z M20.577,3.491 C19.992,2.906 19.039,2.913 18.463,3.509 L15.753,6.308 C15.738,6.323 15.722,6.339 15.707,6.356 C15.537,6.533 15.323,6.755 15.054,6.903 C14.8,7.043 14.519,7.126 14.231,7.147 C13.924,7.168 13.624,7.098 13.385,7.042 L13.385,7.042 C13.363,7.037 13.341,7.032 13.32,7.027 L5.861,5.306 C5.693,5.267 5.607,5.247 5.544,5.236 C5.542,5.236 5.54,5.236 5.538,5.236 C5.537,5.237 5.536,5.238 5.534,5.239 C5.487,5.282 5.424,5.344 5.302,5.466 L4.931,5.837 C4.614,6.154 4.426,6.343 4.304,6.49 C4.297,6.498 4.29,6.506 4.284,6.514 C4.293,6.518 4.302,6.522 4.312,6.526 C4.487,6.603 4.74,6.688 5.166,6.83 L11.195,8.84 C11.524,8.95 11.772,9.222 11.852,9.559 C11.932,9.896 11.831,10.251 11.586,10.496 L8.24,13.841 C8.227,13.855 8.213,13.869 8.199,13.883 C8.045,14.038 7.851,14.233 7.61,14.37 C7.402,14.488 7.174,14.568 6.937,14.606 C6.664,14.649 6.391,14.618 6.174,14.593 C6.154,14.591 6.134,14.589 6.115,14.587 L4.461,14.403 C4.311,14.386 4.236,14.378 4.18,14.375 L4.176,14.375 C4.175,14.376 4.174,14.377 4.173,14.377 C4.132,14.415 4.078,14.468 3.971,14.575 L3.773,14.773 C3.524,15.022 3.384,15.163 3.292,15.273 C3.287,15.278 3.283,15.283 3.28,15.288 C3.284,15.291 3.289,15.295 3.294,15.299 C3.406,15.389 3.572,15.5 3.865,15.696 L6.217,17.264 C6.224,17.269 6.231,17.273 6.238,17.278 C6.316,17.33 6.414,17.395 6.506,17.474 C6.586,17.542 6.661,17.617 6.729,17.697 C6.808,17.789 6.873,17.887 6.925,17.965 C6.929,17.972 6.934,17.979 6.938,17.985 L8.507,20.338 C8.702,20.631 8.814,20.797 8.903,20.909 C8.908,20.914 8.911,20.919 8.915,20.923 C8.92,20.919 8.924,20.916 8.929,20.911 C9.039,20.819 9.181,20.679 9.43,20.429 L9.628,20.232 C9.735,20.125 9.788,20.071 9.825,20.03 C9.826,20.029 9.827,20.028 9.828,20.027 L9.828,20.022 C9.825,19.967 9.817,19.892 9.8,19.741 L9.616,18.088 C9.614,18.069 9.612,18.049 9.61,18.029 C9.585,17.812 9.553,17.539 9.597,17.265 C9.635,17.029 9.715,16.801 9.833,16.593 C9.97,16.352 10.165,16.158 10.32,16.004 C10.334,15.99 10.348,15.976 10.362,15.962 L13.707,12.617 C13.952,12.372 14.307,12.271 14.644,12.351 C14.981,12.431 15.253,12.679 15.363,13.008 L17.373,19.037 C17.514,19.462 17.6,19.715 17.677,19.89 C17.681,19.9 17.685,19.91 17.689,19.918 C17.697,19.913 17.704,19.906 17.713,19.899 C17.86,19.777 18.049,19.589 18.366,19.272 L18.737,18.901 C18.859,18.779 18.921,18.716 18.964,18.668 C18.965,18.667 18.966,18.666 18.967,18.664 C18.967,18.663 18.967,18.661 18.966,18.659 C18.956,18.596 18.936,18.51 18.897,18.342 L17.169,10.854 C17.164,10.833 17.16,10.812 17.154,10.79 L17.154,10.789 C17.099,10.552 17.029,10.254 17.05,9.949 C17.069,9.685 17.139,9.428 17.258,9.191 C17.396,8.918 17.608,8.697 17.777,8.522 C17.792,8.505 17.808,8.489 17.822,8.474 L20.601,5.564 C21.157,4.982 21.147,4.061 20.577,3.491 Z"/>
</svg>
