<svg xmlns="http://www.w3.org/2000/svg" width="24" height="24" viewBox="0 0 24 24">
  <defs/>
  <path d="M1,12 C1,5.925 5.925,1 12,1 C18.075,1 23,5.925 23,12 C23,18.075 18.075,23 12,23 C5.925,23 1,18.075 1,12 Z M12,3 C7.029,3 3,7.029 3,12 C3,16.971 7.029,21 12,21 C16.971,21 21,16.971 21,12 C21,7.029 16.971,3 12,3 Z M11.245,7.433 C11.255,7.439 11.264,7.445 11.273,7.451 L15.994,10.486 C16.003,10.491 16.011,10.497 16.02,10.503 C16.171,10.6 16.336,10.706 16.468,10.808 C16.607,10.917 16.827,11.109 16.957,11.416 C17.115,11.789 17.115,12.211 16.957,12.584 C16.827,12.891 16.607,13.083 16.468,13.192 C16.336,13.294 16.171,13.4 16.02,13.497 C16.011,13.503 16.003,13.509 15.994,13.514 L11.273,16.549 C11.264,16.555 11.255,16.561 11.245,16.567 C11.069,16.68 10.885,16.799 10.722,16.883 C10.558,16.969 10.261,17.107 9.893,17.08 C9.459,17.049 9.06,16.831 8.799,16.483 C8.578,16.188 8.533,15.863 8.517,15.68 C8.5,15.497 8.5,15.278 8.5,15.069 L8.5,15.068 L8.5,15.035 L8.5,8.965 L8.5,8.932 L8.5,8.931 C8.5,8.722 8.5,8.503 8.517,8.32 C8.533,8.137 8.578,7.812 8.799,7.517 C9.06,7.169 9.459,6.951 9.893,6.92 C10.261,6.893 10.558,7.031 10.722,7.116 C10.885,7.201 11.069,7.32 11.245,7.433 Z M10.5,9.332 L10.5,14.668 L14.651,12 Z"/>
</svg>
