<svg xmlns="http://www.w3.org/2000/svg" width="24" height="24" viewBox="0 0 24 24">
  <defs/>
  <path d="M16.241,2 L16.241,2 C17.046,2 17.711,2 18.252,2.044 C18.814,2.09 19.331,2.189 19.816,2.436 C20.569,2.819 21.181,3.431 21.564,4.184 C21.811,4.669 21.91,5.186 21.956,5.748 C22,6.289 22,6.954 22,7.759 L22,16.241 C22,17.046 22,17.711 21.956,18.252 C21.91,18.814 21.811,19.331 21.564,19.816 C21.181,20.569 20.569,21.181 19.816,21.564 C19.331,21.811 18.814,21.91 18.252,21.956 C17.711,22 17.046,22 16.241,22 L7.759,22 C6.954,22 6.289,22 5.748,21.956 C5.186,21.91 4.669,21.811 4.184,21.564 C3.431,21.181 2.819,20.569 2.436,19.816 C2.189,19.331 2.09,18.814 2.044,18.252 C2,17.711 2,17.046 2,16.241 L2,7.759 C2,6.954 2,6.289 2.044,5.748 C2.09,5.186 2.189,4.669 2.436,4.184 C2.819,3.431 3.431,2.819 4.184,2.436 C4.669,2.189 5.186,2.09 5.748,2.044 C6.289,2 6.954,2 7.759,2 L16.241,2 Z M5.911,4.038 C5.473,4.073 5.248,4.138 5.092,4.218 C4.716,4.41 4.41,4.716 4.218,5.092 C4.138,5.248 4.073,5.473 4.038,5.911 C4.001,6.361 4,6.943 4,7.8 L4,16.2 C4,17.057 4.001,17.639 4.038,18.089 C4.073,18.527 4.138,18.752 4.218,18.908 C4.41,19.284 4.716,19.59 5.092,19.782 C5.248,19.862 5.473,19.927 5.911,19.962 C6.361,19.999 6.943,20 7.8,20 L16.2,20 C17.057,20 17.639,19.999 18.089,19.962 C18.527,19.927 18.752,19.862 18.908,19.782 C19.284,19.59 19.59,19.284 19.782,18.908 C19.862,18.752 19.927,18.527 19.962,18.089 C19.999,17.639 20,17.057 20,16.2 L20,7.8 C20,6.943 19.999,6.361 19.962,5.911 C19.927,5.473 19.862,5.248 19.782,5.092 C19.59,4.716 19.284,4.41 18.908,4.218 C18.752,4.138 18.527,4.073 18.089,4.038 C17.639,4.001 17.057,4 16.2,4 L7.8,4 C6.943,4 6.361,4.001 5.911,4.038 Z M11.245,7.433 C11.255,7.439 11.264,7.445 11.273,7.451 L15.994,10.486 C16.003,10.491 16.011,10.497 16.02,10.503 C16.171,10.6 16.336,10.706 16.468,10.808 C16.607,10.917 16.827,11.109 16.957,11.416 C17.115,11.789 17.115,12.211 16.957,12.584 C16.827,12.891 16.607,13.083 16.468,13.192 C16.336,13.294 16.171,13.4 16.02,13.497 C16.011,13.503 16.003,13.509 15.994,13.514 L11.273,16.549 C11.264,16.555 11.255,16.561 11.245,16.567 C11.069,16.68 10.885,16.799 10.722,16.883 C10.558,16.969 10.261,17.107 9.893,17.08 C9.459,17.049 9.06,16.831 8.799,16.483 C8.578,16.188 8.533,15.863 8.517,15.68 C8.5,15.497 8.5,15.277 8.5,15.068 L8.5,8.932 C8.5,8.723 8.5,8.503 8.517,8.32 C8.533,8.137 8.578,7.812 8.799,7.517 C9.06,7.169 9.459,6.951 9.893,6.92 C10.261,6.893 10.558,7.031 10.722,7.116 C10.885,7.201 11.069,7.32 11.245,7.433 Z M10.5,9.332 L10.5,14.668 L14.651,12 Z"/>
</svg>
