<svg xmlns="http://www.w3.org/2000/svg" width="24" height="24" viewBox="0 0 24 24">
  <defs/>
  <path d="M8.006,2.802 C8.018,2.81 8.03,2.818 8.042,2.826 L18.591,9.859 C18.896,10.062 19.179,10.251 19.396,10.426 C19.623,10.609 19.891,10.863 20.045,11.234 C20.248,11.724 20.248,12.276 20.045,12.766 C19.891,13.137 19.623,13.391 19.396,13.574 C19.179,13.749 18.896,13.938 18.591,14.141 L8.006,21.198 C7.633,21.447 7.298,21.67 7.013,21.824 C6.728,21.979 6.337,22.155 5.881,22.128 C5.297,22.093 4.758,21.805 4.405,21.338 C4.129,20.974 4.059,20.55 4.029,20.228 C4,19.905 4,19.502 4,19.054 L4,4.946 C4,4.498 4,4.095 4.029,3.772 C4.059,3.45 4.129,3.027 4.405,2.662 C4.758,2.196 5.297,1.907 5.881,1.872 C6.337,1.845 6.728,2.021 7.013,2.176 C7.298,2.33 7.633,2.554 8.006,2.802 Z M6.025,3.916 C6.024,3.928 6.022,3.941 6.021,3.955 C6.001,4.175 6,4.484 6,4.99 L6,19.01 C6,19.516 6.001,19.826 6.021,20.045 C6.022,20.059 6.024,20.073 6.025,20.085 C6.036,20.079 6.048,20.073 6.06,20.066 C6.254,19.961 6.512,19.79 6.933,19.51 L17.448,12.499 C17.798,12.266 18.003,12.128 18.141,12.017 C18.149,12.011 18.155,12.005 18.162,12 C18.155,11.995 18.149,11.989 18.141,11.983 C18.003,11.872 17.798,11.734 17.448,11.501 L6.933,4.491 C6.512,4.21 6.254,4.039 6.06,3.934 C6.048,3.927 6.036,3.921 6.025,3.916 Z"/>
</svg>
