<svg xmlns="http://www.w3.org/2000/svg" width="24" height="24" viewBox="0 0 24 24">
  <defs/>
  <path d="M2,10.785 C2,5.358 6.5,1 12,1 C17.5,1 22,5.358 22,10.785 C22,14.132 20.279,17.07 17.679,18.828 C17.222,19.138 16.6,19.018 16.291,18.56 C15.981,18.103 16.101,17.481 16.559,17.172 C18.646,15.76 20,13.424 20,10.785 C20,6.508 16.441,3 12,3 C7.559,3 4,6.508 4,10.785 C4,13.424 5.354,15.76 7.441,17.172 C7.899,17.481 8.019,18.103 7.709,18.56 C7.4,19.018 6.778,19.138 6.321,18.828 C3.721,17.07 2,14.132 2,10.785 Z M12,7 C9.742,7 8,8.727 8,10.75 C8,11.725 8.4,12.619 9.071,13.297 C9.459,13.689 9.456,14.323 9.063,14.711 C8.67,15.099 8.037,15.096 7.649,14.703 C6.637,13.681 6,12.292 6,10.75 C6,7.527 8.735,5 12,5 C15.265,5 18,7.527 18,10.75 C18,12.293 17.363,13.681 16.351,14.703 C15.963,15.096 15.33,15.099 14.937,14.711 C14.544,14.323 14.541,13.689 14.929,13.297 C15.6,12.619 16,11.726 16,10.75 C16,8.727 14.258,7 12,7 Z M9,18 C9,16.343 10.343,15 12,15 C13.657,15 15,16.343 15,18 L15,20 C15,21.657 13.657,23 12,23 C10.343,23 9,21.657 9,20 Z M10,11 C10,9.895 10.895,9 12,9 C13.105,9 14,9.895 14,11 C14,12.105 13.105,13 12,13 C10.895,13 10,12.105 10,11 Z M12,17 C11.448,17 11,17.448 11,18 L11,20 C11,20.552 11.448,21 12,21 C12.552,21 13,20.552 13,20 L13,18 C13,17.448 12.552,17 12,17 Z"/>
</svg>
