<svg xmlns="http://www.w3.org/2000/svg" width="24" height="24" viewBox="0 0 24 24">
  <defs/>
  <path d="M1,12 C1,5.925 5.925,1 12,1 C18.075,1 23,5.925 23,12 C23,18.075 18.075,23 12,23 C5.925,23 1,18.075 1,12 Z M12,3 C7.029,3 3,7.029 3,12 C3,16.971 7.029,21 12,21 C16.971,21 21,16.971 21,12 C21,7.029 16.971,3 12,3 Z M8.601,8.2 C9.042,8.532 9.131,9.159 8.799,9.6 C8.297,10.269 8,11.098 8,12 C8,14.209 9.791,16 12,16 C14.209,16 16,14.209 16,12 C16,11.098 15.703,10.269 15.2,9.6 C14.869,9.159 14.958,8.532 15.399,8.2 C15.841,7.868 16.468,7.957 16.799,8.399 C17.553,9.402 18,10.65 18,12 C18,15.314 15.314,18 12,18 C8.686,18 6,15.314 6,12 C6,10.65 6.447,9.402 7.201,8.399 C7.532,7.957 8.159,7.868 8.601,8.2 Z M12,6 C12.552,6 13,6.448 13,7 L13,12 C13,12.552 12.552,13 12,13 C11.448,13 11,12.552 11,12 L11,7 C11,6.448 11.448,6 12,6 Z"/>
</svg>
