<svg xmlns="http://www.w3.org/2000/svg" width="24" height="24" viewBox="0 0 24 24">
  <defs/>
  <path d="M6.337,5.933 C6.728,6.323 6.728,6.956 6.337,7.347 C5.219,8.466 4.457,9.891 4.149,11.443 C3.84,12.995 3.999,14.603 4.604,16.065 C5.21,17.527 6.235,18.776 7.551,19.655 C8.866,20.534 10.413,21.003 11.995,21.003 C13.577,21.003 15.124,20.534 16.439,19.655 C17.755,18.776 18.78,17.527 19.386,16.065 C19.992,14.603 20.15,12.995 19.842,11.443 C19.533,9.891 18.771,8.466 17.653,7.347 C17.262,6.956 17.263,6.323 17.653,5.933 C18.044,5.542 18.677,5.542 19.067,5.933 C20.465,7.332 21.418,9.113 21.803,11.053 C22.189,12.993 21.991,15.003 21.234,16.83 C20.477,18.658 19.195,20.219 17.551,21.318 C15.906,22.417 13.973,23.003 11.995,23.003 C10.017,23.003 8.084,22.417 6.44,21.318 C4.795,20.219 3.514,18.658 2.757,16.83 C2,15.003 1.801,12.993 2.187,11.053 C2.573,9.113 3.525,7.332 4.923,5.933 C5.313,5.542 5.947,5.542 6.337,5.933 Z M12,1 C12.552,1 13,1.448 13,2 L13,12 C13,12.552 12.552,13 12,13 C11.448,13 11,12.552 11,12 L11,2 C11,1.448 11.448,1 12,1 Z"/>
</svg>
