<svg xmlns="http://www.w3.org/2000/svg" width="24" height="24" viewBox="0 0 24 24">
  <defs/>
  <path d="M1,3 C1,2.448 1.448,2 2,2 L22,2 C22.552,2 23,2.448 23,3 C23,3.552 22.552,4 22,4 L22,11.241 C22,12.046 22,12.711 21.956,13.252 C21.91,13.814 21.811,14.331 21.564,14.816 C21.181,15.569 20.569,16.181 19.816,16.564 C19.331,16.811 18.814,16.91 18.252,16.956 C17.711,17 17.046,17 16.241,17 L14.762,17 L18.64,20.232 C19.065,20.585 19.122,21.216 18.768,21.64 C18.415,22.065 17.784,22.122 17.36,21.768 L13.408,18.475 C13.251,18.344 13.117,18.232 13,18.137 L13,21 C13,21.552 12.552,22 12,22 C11.448,22 11,21.552 11,21 L11,18.137 C10.883,18.232 10.749,18.344 10.592,18.475 L6.64,21.768 C6.216,22.122 5.585,22.065 5.232,21.64 C4.878,21.216 4.936,20.585 5.36,20.232 L9.238,17 L7.759,17 C6.954,17 6.289,17 5.748,16.956 C5.186,16.91 4.669,16.811 4.184,16.564 C3.431,16.181 2.819,15.569 2.436,14.816 C2.189,14.331 2.09,13.814 2.044,13.252 C2,12.711 2,12.046 2,11.241 L2,4 C1.448,4 1,3.552 1,3 Z M4,4 L4,11.2 C4,12.057 4.001,12.639 4.038,13.089 C4.073,13.527 4.138,13.752 4.218,13.908 C4.41,14.284 4.716,14.59 5.092,14.782 C5.248,14.862 5.473,14.927 5.911,14.962 C6.361,14.999 6.943,15 7.8,15 L16.2,15 C17.057,15 17.639,14.999 18.089,14.962 C18.527,14.927 18.752,14.862 18.908,14.782 C19.284,14.59 19.59,14.284 19.782,13.908 C19.862,13.752 19.927,13.527 19.962,13.089 C19.999,12.639 20,12.057 20,11.2 L20,4 Z M16,6 C16.552,6 17,6.448 17,7 L17,12 C17,12.552 16.552,13 16,13 C15.448,13 15,12.552 15,12 L15,7 C15,6.448 15.448,6 16,6 Z M12,8 C12.552,8 13,8.448 13,9 L13,12 C13,12.552 12.552,13 12,13 C11.448,13 11,12.552 11,12 L11,9 C11,8.448 11.448,8 12,8 Z M8,10 C8.552,10 9,10.448 9,11 L9,12 C9,12.552 8.552,13 8,13 C7.448,13 7,12.552 7,12 L7,11 C7,10.448 7.448,10 8,10 Z"/>
</svg>
