<svg xmlns="http://www.w3.org/2000/svg" width="24" height="24" viewBox="0 0 24 24">
  <defs/>
  <path d="M14.839,1 L14.839,1 C15.366,1 15.821,1 16.195,1.031 C16.59,1.063 16.984,1.134 17.362,1.327 C17.927,1.615 18.385,2.074 18.673,2.638 C18.866,3.016 18.937,3.41 18.969,3.805 C19,4.18 19,4.634 19,5.161 L19,6.027 C19.087,6.032 19.171,6.038 19.252,6.044 C19.814,6.09 20.331,6.189 20.816,6.436 C21.569,6.819 22.181,7.431 22.564,8.184 C22.811,8.669 22.91,9.186 22.956,9.748 C23,10.289 23,10.954 23,11.759 L23,14.138 C23.001,14.933 23.001,15.524 22.864,16.035 C22.494,17.416 21.416,18.494 20.035,18.864 C19.728,18.946 19.392,18.979 19,18.992 C19,19.454 18.997,19.857 18.969,20.195 C18.937,20.59 18.866,20.984 18.673,21.362 C18.385,21.927 17.927,22.385 17.362,22.673 C16.984,22.866 16.59,22.937 16.195,22.969 C15.821,23 15.366,23 14.839,23 L9.162,23 C8.634,23 8.18,23 7.805,22.969 C7.41,22.937 7.016,22.866 6.638,22.673 C6.074,22.385 5.615,21.927 5.327,21.362 C5.134,20.984 5.063,20.59 5.031,20.195 C5.003,19.857 5,19.454 5,18.992 C4.608,18.979 4.272,18.946 3.965,18.864 C2.584,18.494 1.506,17.416 1.136,16.035 C0.999,15.524 1,14.933 1,14.138 C1,14.092 1,14.047 1,14 L1,11.759 C1,10.954 1,10.289 1.044,9.748 C1.09,9.186 1.189,8.669 1.436,8.184 C1.82,7.431 2.431,6.819 3.184,6.436 C3.669,6.189 4.186,6.09 4.748,6.044 C4.829,6.038 4.913,6.032 5,6.027 L5,5.161 C5,4.634 5,4.18 5.031,3.805 C5.063,3.41 5.134,3.016 5.327,2.638 C5.615,2.074 6.074,1.615 6.638,1.327 C7.016,1.134 7.41,1.063 7.805,1.031 C8.18,1 8.634,1 9.161,1 L14.839,1 Z M19,16.99 C19.258,16.981 19.399,16.964 19.518,16.932 C20.208,16.747 20.747,16.208 20.932,15.518 C20.992,15.295 21,14.994 21,14 L21,11.8 C21,10.943 20.999,10.361 20.962,9.911 C20.927,9.473 20.862,9.248 20.782,9.092 C20.59,8.716 20.284,8.41 19.908,8.218 C19.752,8.138 19.528,8.073 19.089,8.038 C18.639,8.001 18.057,8 17.2,8 L6.8,8 C5.944,8 5.361,8.001 4.911,8.038 C4.473,8.073 4.249,8.138 4.092,8.218 C3.716,8.41 3.41,8.716 3.218,9.092 C3.138,9.248 3.073,9.473 3.038,9.911 C3.001,10.361 3,10.943 3,11.8 L3,14 C3,14.994 3.009,15.295 3.068,15.518 C3.253,16.208 3.792,16.747 4.482,16.932 C4.601,16.964 4.743,16.981 5,16.99 C5,16.535 5.003,16.138 5.031,15.805 C5.063,15.41 5.134,15.016 5.327,14.638 C5.615,14.073 6.074,13.615 6.638,13.327 C7.016,13.134 7.41,13.063 7.805,13.031 C8.18,13 8.634,13 9.162,13 L14.839,13 C15.366,13 15.821,13 16.195,13.031 C16.59,13.063 16.984,13.134 17.362,13.327 C17.927,13.615 18.385,14.073 18.673,14.638 C18.866,15.016 18.937,15.41 18.969,15.805 C18.997,16.138 19,16.535 19,16.99 Z M7,18.8 C7,19.377 7.001,19.749 7.024,20.032 C7.046,20.304 7.084,20.404 7.109,20.454 C7.205,20.642 7.358,20.795 7.546,20.891 C7.596,20.916 7.696,20.954 7.968,20.976 C8.251,20.999 8.624,21 9.2,21 L14.8,21 C15.377,21 15.749,20.999 16.032,20.976 C16.304,20.954 16.405,20.916 16.454,20.891 C16.642,20.795 16.795,20.642 16.891,20.454 C16.916,20.405 16.954,20.304 16.976,20.032 C16.999,19.749 17,19.377 17,18.8 L17,17.2 C17,16.623 16.999,16.251 16.976,15.968 C16.954,15.696 16.916,15.595 16.891,15.546 C16.795,15.358 16.642,15.205 16.454,15.109 C16.405,15.084 16.304,15.046 16.032,15.024 C15.749,15.001 15.377,15 14.8,15 L9.2,15 C8.624,15 8.251,15.001 7.968,15.024 C7.696,15.046 7.596,15.084 7.546,15.109 C7.358,15.205 7.205,15.358 7.109,15.546 C7.084,15.595 7.046,15.696 7.024,15.968 C7.001,16.251 7,16.623 7,17.2 Z M7,6 L17,6 L17,5.2 C17,4.623 16.999,4.251 16.976,3.968 C16.954,3.696 16.916,3.595 16.891,3.546 C16.795,3.358 16.642,3.205 16.454,3.109 C16.405,3.084 16.304,3.046 16.032,3.024 C15.749,3.001 15.377,3 14.8,3 L9.2,3 C8.624,3 8.251,3.001 7.968,3.024 C7.696,3.046 7.596,3.084 7.546,3.109 C7.358,3.205 7.205,3.358 7.109,3.546 C7.084,3.595 7.046,3.696 7.024,3.968 C7.001,4.251 7,4.623 7,5.2 Z M14,10.5 C14,9.948 14.448,9.5 15,9.5 L18,9.5 C18.552,9.5 19,9.948 19,10.5 C19,11.052 18.552,11.5 18,11.5 L15,11.5 C14.448,11.5 14,11.052 14,10.5 Z"/>
</svg>
