<svg xmlns="http://www.w3.org/2000/svg" width="24" height="24" viewBox="0 0 24 24">
  <defs/>
  <path d="M11.293,1.293 C11.683,0.902 12.317,0.902 12.707,1.293 L15.327,3.912 C15.959,2.928 16.768,2.307 17.69,2.073 C18.956,1.751 20.172,2.232 20.97,3.03 C21.768,3.828 22.249,5.044 21.927,6.31 C21.693,7.232 21.072,8.041 20.088,8.673 L22.707,11.293 C23.098,11.683 23.098,12.317 22.707,12.707 L19.107,16.307 C18.867,16.547 18.522,16.649 18.191,16.578 C17.859,16.507 17.586,16.273 17.465,15.956 C16.938,14.572 16.268,14.126 15.818,14.011 C15.35,13.892 14.834,14.055 14.445,14.445 C14.055,14.834 13.892,15.35 14.011,15.818 C14.126,16.268 14.572,16.938 15.956,17.465 C16.273,17.586 16.507,17.859 16.578,18.191 C16.649,18.522 16.547,18.867 16.307,19.107 L12.707,22.707 C12.317,23.098 11.683,23.098 11.293,22.707 L8.673,20.088 C8.041,21.072 7.232,21.693 6.31,21.927 C5.044,22.249 3.828,21.768 3.03,20.97 C2.232,20.172 1.751,18.956 2.073,17.69 C2.307,16.768 2.928,15.959 3.912,15.327 L1.293,12.707 C0.902,12.317 0.902,11.683 1.293,11.293 L4.893,7.693 C5.133,7.453 5.478,7.351 5.809,7.422 C6.141,7.493 6.414,7.727 6.534,8.044 C7.062,9.428 7.732,9.874 8.182,9.989 C8.65,10.108 9.166,9.945 9.555,9.555 C9.945,9.166 10.108,8.65 9.989,8.182 C9.874,7.732 9.428,7.062 8.044,6.534 C7.727,6.414 7.493,6.141 7.422,5.809 C7.351,5.478 7.453,5.133 7.693,4.893 Z M10.088,5.327 C11.072,5.959 11.693,6.768 11.927,7.69 C12.249,8.956 11.768,10.172 10.97,10.97 C10.172,11.768 8.956,12.249 7.69,11.927 C6.768,11.693 5.959,11.072 5.327,10.088 L3.414,12 L6.307,14.893 C6.547,15.133 6.649,15.478 6.578,15.809 C6.507,16.141 6.273,16.414 5.956,16.535 C4.572,17.062 4.126,17.732 4.011,18.182 C3.893,18.65 4.055,19.166 4.445,19.555 C4.834,19.945 5.35,20.108 5.818,19.989 C6.268,19.874 6.938,19.428 7.466,18.044 C7.586,17.727 7.859,17.493 8.191,17.422 C8.522,17.351 8.867,17.453 9.107,17.693 L12,20.586 L13.912,18.673 C12.928,18.041 12.307,17.232 12.073,16.31 C11.751,15.044 12.232,13.828 13.03,13.03 C13.828,12.232 15.044,11.751 16.31,12.073 C17.232,12.307 18.041,12.928 18.673,13.912 L20.586,12 L17.693,9.107 C17.453,8.867 17.351,8.522 17.422,8.191 C17.493,7.859 17.727,7.586 18.044,7.466 C19.428,6.938 19.874,6.268 19.989,5.818 C20.108,5.35 19.945,4.834 19.555,4.445 C19.166,4.055 18.65,3.893 18.182,4.011 C17.732,4.126 17.062,4.572 16.535,5.956 C16.414,6.273 16.141,6.507 15.809,6.578 C15.478,6.649 15.133,6.547 14.893,6.307 L12,3.414 Z"/>
</svg>
