<svg xmlns="http://www.w3.org/2000/svg" width="24" height="24" viewBox="0 0 24 24">
  <defs/>
  <path d="M6.5,4.5 C6.5,2.567 8.067,1 10,1 C11.933,1 13.5,2.567 13.5,4.5 L13.5,5 L13.534,5 C14.204,5 14.757,5 15.21,5.031 C15.679,5.063 16.113,5.131 16.531,5.304 C17.511,5.71 18.289,6.489 18.695,7.469 C18.869,7.887 18.937,8.321 18.969,8.79 C18.984,9.004 18.991,9.24 18.996,9.5 L19.5,9.5 C21.433,9.5 23,11.067 23,13 C23,14.933 21.433,16.5 19.5,16.5 L19,16.5 L19,17.241 C19,18.046 19,18.711 18.956,19.252 C18.91,19.814 18.811,20.331 18.564,20.816 C18.181,21.569 17.569,22.181 16.816,22.564 C16.331,22.811 15.814,22.91 15.252,22.956 C14.711,23 14.046,23 13.241,23 L12.5,23 C11.948,23 11.5,22.552 11.5,22 L11.5,20.25 C11.5,19.56 10.94,19 10.25,19 C9.56,19 9,19.56 9,20.25 L9,22 C9,22.552 8.552,23 8,23 L6.759,23 C5.954,23 5.289,23 4.748,22.956 C4.186,22.91 3.669,22.811 3.184,22.564 C2.431,22.181 1.819,21.569 1.436,20.816 C1.189,20.331 1.09,19.814 1.044,19.252 C1,18.711 1,18.046 1,17.241 L1,15.5 C1,14.948 1.448,14.5 2,14.5 L3.5,14.5 C4.328,14.5 5,13.828 5,13 C5,12.172 4.328,11.5 3.5,11.5 L2,11.5 C1.448,11.5 1,11.052 1,10.5 L1,10.466 C1,9.796 1,9.243 1.031,8.79 C1.063,8.321 1.131,7.887 1.304,7.469 C1.71,6.489 2.489,5.71 3.469,5.304 C3.887,5.131 4.321,5.063 4.79,5.031 C5.243,5 5.796,5 6.466,5 L6.5,5 Z M10,3 C9.172,3 8.5,3.672 8.5,4.5 L8.5,6 C8.5,6.552 8.052,7 7.5,7 L6.5,7 C5.787,7 5.303,7.001 4.927,7.026 C4.559,7.051 4.368,7.097 4.235,7.152 C3.745,7.355 3.355,7.745 3.152,8.235 C3.097,8.368 3.051,8.559 3.026,8.927 C3.015,9.093 3.008,9.281 3.005,9.5 L3.5,9.5 C5.433,9.5 7,11.067 7,13 C7,14.933 5.433,16.5 3.5,16.5 L3,16.5 L3,17.2 C3,18.057 3.001,18.639 3.038,19.089 C3.073,19.527 3.138,19.752 3.218,19.908 C3.41,20.284 3.716,20.59 4.092,20.782 C4.248,20.862 4.473,20.927 4.911,20.962 C5.361,20.999 5.943,21 6.8,21 L7,21 L7,20.25 C7,18.455 8.455,17 10.25,17 C12.045,17 13.5,18.455 13.5,20.25 L13.5,21 C14.196,20.999 14.693,20.995 15.089,20.962 C15.527,20.927 15.752,20.862 15.908,20.782 C16.284,20.59 16.59,20.284 16.782,19.908 C16.862,19.752 16.927,19.527 16.962,19.089 C16.999,18.639 17,18.057 17,17.2 L17,15.5 C17,14.948 17.448,14.5 18,14.5 L19.5,14.5 C20.328,14.5 21,13.828 21,13 C21,12.172 20.328,11.5 19.5,11.5 L18,11.5 C17.448,11.5 17,11.052 17,10.5 C17,9.787 17,9.303 16.974,8.927 C16.949,8.559 16.903,8.368 16.848,8.235 C16.645,7.745 16.255,7.355 15.765,7.152 C15.632,7.097 15.441,7.051 15.073,7.026 C14.697,7.001 14.213,7 13.5,7 L12.5,7 C11.948,7 11.5,6.552 11.5,6 L11.5,4.5 C11.5,3.672 10.828,3 10,3 Z"/>
</svg>
