<svg xmlns="http://www.w3.org/2000/svg" width="24" height="24" viewBox="0 0 24 24">
  <defs/>
  <path d="M19.432,15 L19.436,15 C19.687,15 19.931,15 20.138,15.017 C20.367,15.036 20.637,15.08 20.908,15.218 C21.284,15.41 21.59,15.716 21.782,16.092 C21.92,16.363 21.964,16.633 21.983,16.862 C22,17.069 22,17.313 22,17.564 L22,19.436 C22,19.687 22,19.931 21.983,20.138 C21.964,20.367 21.92,20.637 21.782,20.908 C21.59,21.284 21.284,21.59 20.908,21.782 C20.637,21.92 20.367,21.964 20.138,21.983 C19.931,22 19.687,22 19.436,22 L17.564,22 C17.313,22 17.069,22 16.862,21.983 C16.633,21.964 16.363,21.92 16.092,21.782 C15.716,21.59 15.41,21.284 15.218,20.908 C15.08,20.637 15.036,20.367 15.017,20.138 C15,19.931 15,19.687 15,19.436 L15,17.564 C15,17.313 15,17.069 15.017,16.862 C15.036,16.633 15.08,16.363 15.218,16.092 C15.41,15.716 15.716,15.41 16.092,15.218 C16.363,15.08 16.633,15.036 16.862,15.017 C17.069,15 17.313,15 17.564,15 L19.432,15 Z M19.432,2 L19.432,2 C19.684,2 19.93,2 20.138,2.017 C20.367,2.036 20.637,2.08 20.908,2.218 C21.284,2.41 21.59,2.716 21.782,3.092 C21.92,3.363 21.964,3.633 21.983,3.862 C22,4.069 22,4.313 22,4.564 L22,6.436 C22,6.687 22,6.931 21.983,7.138 C21.964,7.367 21.92,7.637 21.782,7.908 C21.59,8.284 21.284,8.59 20.908,8.782 C20.637,8.92 20.367,8.964 20.138,8.983 C19.93,9 19.684,9 19.432,9 L17.568,9 C17.316,9 17.07,9 16.862,8.983 C16.633,8.964 16.363,8.92 16.092,8.782 C15.716,8.59 15.41,8.284 15.218,7.908 C15.08,7.637 15.036,7.367 15.017,7.138 C15,6.931 15,6.687 15,6.436 L15,4.564 C15,4.313 15,4.069 15.017,3.862 C15.036,3.633 15.08,3.363 15.218,3.092 C15.41,2.716 15.716,2.41 16.092,2.218 C16.363,2.08 16.633,2.036 16.862,2.017 C17.07,2 17.316,2 17.568,2 L19.432,2 Z M7.138,2.017 C7.367,2.036 7.637,2.08 7.908,2.218 C8.284,2.41 8.59,2.716 8.782,3.092 C8.92,3.363 8.964,3.633 8.983,3.862 C9,4.07 9,4.316 9,4.568 L9,6.432 C9,6.684 9,6.93 8.983,7.138 C8.964,7.367 8.92,7.637 8.782,7.908 C8.59,8.284 8.284,8.59 7.908,8.782 C7.637,8.92 7.367,8.964 7.138,8.983 C6.93,9 6.684,9 6.432,9 L4.568,9 C4.316,9 4.07,9 3.862,8.983 C3.633,8.964 3.363,8.92 3.092,8.782 C2.716,8.59 2.41,8.284 2.218,7.908 C2.08,7.637 2.036,7.367 2.017,7.138 C2,6.93 2,6.684 2,6.432 L2,6.432 L2,6.4 L2,4.6 L2,4.568 L2,4.568 C2,4.316 2,4.07 2.017,3.862 C2.036,3.633 2.08,3.363 2.218,3.092 C2.41,2.716 2.716,2.41 3.092,2.218 C3.363,2.08 3.633,2.036 3.862,2.017 C4.07,2 4.316,2 4.568,2 L6.432,2 C6.684,2 6.93,2 7.138,2.017 Z M6,12 C6,11.448 6.448,11 7,11 L12,11 C12.552,11 13,11.448 13,12 L13,17 C13,17.552 12.552,18 12,18 C11.448,18 11,17.552 11,17 L11,13 L7,13 C6.448,13 6,12.552 6,12 Z M12,1 C12.552,1 13,1.448 13,2 L13,8 C13,8.552 12.552,9 12,9 C11.448,9 11,8.552 11,8 L11,2 C11,1.448 11.448,1 12,1 Z M2,21 C2,20.448 2.448,20 3,20 L8,20 C8.552,20 9,20.448 9,21 C9,21.552 8.552,22 8,22 L3,22 C2.448,22 2,21.552 2,21 Z M6.975,4.01 C6.859,4.001 6.697,4 6.4,4 L4.6,4 C4.303,4 4.141,4.001 4.025,4.01 C4.02,4.011 4.016,4.011 4.011,4.011 C4.011,4.016 4.011,4.02 4.01,4.025 C4.001,4.141 4,4.303 4,4.6 L4,6.4 C4,6.697 4.001,6.859 4.01,6.975 C4.011,6.98 4.011,6.984 4.011,6.989 C4.016,6.989 4.02,6.989 4.025,6.99 C4.141,6.999 4.303,7 4.6,7 L6.4,7 C6.697,7 6.859,6.999 6.975,6.99 C6.98,6.989 6.984,6.989 6.989,6.989 C6.989,6.984 6.989,6.98 6.99,6.975 C6.999,6.859 7,6.697 7,6.4 L7,4.6 C7,4.303 6.999,4.141 6.99,4.025 C6.989,4.02 6.989,4.016 6.989,4.011 C6.984,4.011 6.98,4.011 6.975,4.01 Z M17.011,4.011 C17.011,4.016 17.011,4.02 17.01,4.025 C17.001,4.141 17,4.303 17,4.6 L17,6.4 C17,6.697 17.001,6.859 17.01,6.975 C17.011,6.98 17.011,6.984 17.011,6.989 C17.016,6.989 17.02,6.989 17.025,6.99 C17.141,6.999 17.303,7 17.6,7 L19.4,7 C19.697,7 19.859,6.999 19.975,6.99 C19.98,6.989 19.984,6.989 19.989,6.989 C19.989,6.984 19.989,6.98 19.99,6.975 C19.999,6.859 20,6.697 20,6.4 L20,4.6 C20,4.303 19.999,4.141 19.99,4.025 C19.989,4.02 19.989,4.016 19.989,4.011 C19.984,4.011 19.98,4.011 19.975,4.01 C19.859,4.001 19.697,4 19.4,4 L17.6,4 C17.303,4 17.141,4.001 17.025,4.01 C17.02,4.011 17.016,4.011 17.011,4.011 Z M17.011,17.011 C17.011,17.016 17.011,17.02 17.01,17.025 C17.001,17.141 17,17.303 17,17.6 L17,19.4 C17,19.697 17.001,19.859 17.01,19.975 C17.011,19.98 17.011,19.984 17.011,19.989 C17.016,19.989 17.02,19.989 17.025,19.99 C17.141,19.999 17.303,20 17.6,20 L19.4,20 C19.697,20 19.859,19.999 19.975,19.99 C19.98,19.989 19.984,19.989 19.989,19.989 C19.989,19.984 19.989,19.98 19.99,19.975 C19.999,19.859 20,19.697 20,19.4 L20,17.6 C20,17.303 19.999,17.141 19.99,17.025 C19.989,17.02 19.989,17.016 19.989,17.011 C19.984,17.011 19.98,17.011 19.975,17.01 C19.859,17.001 19.697,17 19.4,17 L17.6,17 C17.303,17 17.141,17.001 17.025,17.01 C17.02,17.011 17.016,17.011 17.011,17.011 Z M14.5,12 C14.5,11.448 14.948,11 15.5,11 L17.5,11 C18.052,11 18.5,11.448 18.5,12 C18.5,12.552 18.052,13 17.5,13 L15.5,13 C14.948,13 14.5,12.552 14.5,12 Z M2,17 C2,16.448 2.448,16 3,16 L4.5,16 C5.052,16 5.5,16.448 5.5,17 C5.5,17.552 5.052,18 4.5,18 L3,18 C2.448,18 2,17.552 2,17 Z M20,12 C20,11.448 20.448,11 21,11 L21.01,11 C21.562,11 22.01,11.448 22.01,12 C22.01,12.552 21.562,13 21.01,13 L21,13 C20.448,13 20,12.552 20,12 Z M11,21 C11,20.448 11.448,20 12,20 L12.01,20 C12.562,20 13.01,20.448 13.01,21 C13.01,21.552 12.562,22 12.01,22 L12,22 C11.448,22 11,21.552 11,21 Z M2,12 C2,11.448 2.448,11 3,11 L3.01,11 C3.562,11 4.01,11.448 4.01,12 C4.01,12.552 3.562,13 3.01,13 L3,13 C2.448,13 2,12.552 2,12 Z M7,17 C7,16.448 7.448,16 8,16 L8.01,16 C8.562,16 9.01,16.448 9.01,17 C9.01,17.552 8.562,18 8.01,18 L8,18 C7.448,18 7,17.552 7,17 Z"/>
</svg>
