<svg xmlns="http://www.w3.org/2000/svg" width="24" height="24" viewBox="0 0 24 24">
  <defs/>
  <path d="M15.241,2 L15.241,2 C16.046,2 16.711,2 17.252,2.044 C17.814,2.09 18.331,2.189 18.816,2.436 C19.569,2.819 20.181,3.431 20.564,4.184 C20.811,4.669 20.91,5.186 20.956,5.748 C21,6.289 21,6.954 21,7.759 L21,21 C21,21.376 20.789,21.72 20.454,21.891 C20.119,22.062 19.716,22.03 19.412,21.809 L17.279,20.257 L15.375,21.781 C15.023,22.062 14.526,22.074 14.162,21.809 L12,20.236 L9.838,21.809 C9.474,22.074 8.977,22.062 8.625,21.781 L6.721,20.257 L4.588,21.809 C4.284,22.03 3.881,22.062 3.546,21.891 C3.211,21.72 3,21.376 3,21 L3,7.759 C3,6.954 3,6.289 3.044,5.748 C3.09,5.186 3.189,4.669 3.436,4.184 C3.819,3.431 4.431,2.819 5.184,2.436 C5.669,2.189 6.186,2.09 6.748,2.044 C7.289,2 7.954,2 8.759,2 L15.241,2 Z M6.911,4.038 C6.473,4.073 6.248,4.138 6.092,4.218 C5.716,4.41 5.41,4.716 5.218,5.092 C5.138,5.248 5.073,5.473 5.038,5.911 C5.001,6.361 5,6.943 5,7.8 L5,19.036 L6.162,18.191 C6.526,17.926 7.023,17.938 7.375,18.219 L9.279,19.743 L11.412,18.191 C11.762,17.936 12.238,17.936 12.588,18.191 L14.721,19.743 L16.625,18.219 C16.977,17.938 17.474,17.926 17.838,18.191 L19,19.036 L19,7.8 C19,6.943 18.999,6.361 18.962,5.911 C18.927,5.473 18.862,5.248 18.782,5.092 C18.59,4.716 18.284,4.41 17.908,4.218 C17.752,4.138 17.527,4.073 17.089,4.038 C16.639,4.001 16.057,4 15.2,4 L8.8,4 C7.943,4 7.361,4.001 6.911,4.038 Z"/>
</svg>
