<svg width="24" height="24" viewBox="0 0 24 24" fill="none" xmlns="http://www.w3.org/2000/svg">
<path d="M8.7587 2H15.2413C16.0463 1.99999 16.7106 1.99998 17.2518 2.04419C17.8139 2.09012 18.3306 2.18868 18.816 2.43597C19.5686 2.81947 20.1805 3.43139 20.564 4.18404C20.8113 4.66937 20.9099 5.18608 20.9558 5.74817C21 6.28936 21 6.95372 21 7.75868V21C21 21.3761 20.7889 21.7204 20.4538 21.8911C20.1186 22.0618 19.716 22.03 19.4118 21.8087L17.2789 20.2575L15.3747 21.7809C15.0229 22.0623 14.5262 22.0738 14.1618 21.8087L12 20.2365L9.83817 21.8087C9.47377 22.0738 8.97715 22.0623 8.62531 21.7809L6.72111 20.2575L4.58817 21.8087C4.28399 22.03 3.88139 22.0618 3.54622 21.8911C3.21105 21.7204 3 21.3761 3 21L3 7.7587C2.99999 6.95373 2.99998 6.28937 3.04419 5.74817C3.09012 5.18608 3.18868 4.66937 3.43597 4.18404C3.81947 3.43139 4.43139 2.81947 5.18404 2.43597C5.66937 2.18868 6.18608 2.09012 6.74817 2.04419C7.28937 1.99998 7.95373 1.99999 8.7587 2ZM6.91104 4.03755C6.47262 4.07337 6.24842 4.1383 6.09202 4.21799C5.7157 4.40973 5.40973 4.7157 5.21799 5.09202C5.1383 5.24842 5.07337 5.47262 5.03755 5.91104C5.00078 6.36113 5 6.94342 5 7.8V19.0362L6.16183 18.1913C6.52623 17.9262 7.02285 17.9377 7.3747 18.2191L9.27889 19.7425L11.4118 18.1913C11.7625 17.9362 12.2375 17.9362 12.5882 18.1913L14.7211 19.7425L16.6253 18.2191C16.9771 17.9377 17.4738 17.9262 17.8382 18.1913L19 19.0362V7.8C19 6.94342 18.9992 6.36113 18.9624 5.91104C18.9266 5.47262 18.8617 5.24842 18.782 5.09202C18.5903 4.7157 18.2843 4.40973 17.908 4.21799C17.7516 4.1383 17.5274 4.07337 17.089 4.03755C16.6389 4.00078 16.0566 4 15.2 4H8.8C7.94342 4 7.36113 4.00078 6.91104 4.03755ZM7 7C7 6.44772 7.44772 6 8 6H16C16.5523 6 17 6.44772 17 7C17 7.55229 16.5523 8 16 8H8C7.44772 8 7 7.55229 7 7ZM7 11C7 10.4477 7.44772 10 8 10H16C16.5523 10 17 10.4477 17 11C17 11.5523 16.5523 12 16 12H8C7.44772 12 7 11.5523 7 11ZM7 15C7 14.4477 7.44772 14 8 14H12C12.5523 14 13 14.4477 13 15C13 15.5523 12.5523 16 12 16H8C7.44772 16 7 15.5523 7 15Z" fill="black"/>
</svg>
