<svg xmlns="http://www.w3.org/2000/svg" width="24" height="24" viewBox="0 0 24 24">
  <defs/>
  <path d="M12,2 C12.552,2 13,2.448 13,3 L13,21 C13,21.552 12.552,22 12,22 C11.448,22 11,21.552 11,21 L11,3 C11,2.448 11.448,2 12,2 Z M16.5,5 C17.052,5 17.5,5.448 17.5,6 L17.5,18 C17.5,18.552 17.052,19 16.5,19 C15.948,19 15.5,18.552 15.5,18 L15.5,6 C15.5,5.448 15.948,5 16.5,5 Z M7.5,5 C8.052,5 8.5,5.448 8.5,6 L8.5,18 C8.5,18.552 8.052,19 7.5,19 C6.948,19 6.5,18.552 6.5,18 L6.5,6 C6.5,5.448 6.948,5 7.5,5 Z M21,9 C21.552,9 22,9.448 22,10 L22,14 C22,14.552 21.552,15 21,15 C20.448,15 20,14.552 20,14 L20,10 C20,9.448 20.448,9 21,9 Z M3,9 C3.552,9 4,9.448 4,10 L4,14 C4,14.552 3.552,15 3,15 C2.448,15 2,14.552 2,14 L2,10 C2,9.448 2.448,9 3,9 Z"/>
</svg>
