<svg xmlns="http://www.w3.org/2000/svg" width="24" height="24" viewBox="0 0 24 24">
  <defs/>
  <path d="M16.5,2 C17.052,2 17.5,2.448 17.5,3 L17.5,21 C17.5,21.552 17.052,22 16.5,22 C15.948,22 15.5,21.552 15.5,21 L15.5,3 C15.5,2.448 15.948,2 16.5,2 Z M12,5 C12.552,5 13,5.448 13,6 L13,18 C13,18.552 12.552,19 12,19 C11.448,19 11,18.552 11,18 L11,6 C11,5.448 11.448,5 12,5 Z M21,9 C21.552,9 22,9.448 22,10 L22,14 C22,14.552 21.552,15 21,15 C20.448,15 20,14.552 20,14 L20,10 C20,9.448 20.448,9 21,9 Z M3,9 C3.552,9 4,9.448 4,10 L4,14 C4,14.552 3.552,15 3,15 C2.448,15 2,14.552 2,14 L2,10 C2,9.448 2.448,9 3,9 Z M7.5,10 C8.052,10 8.5,10.448 8.5,11 L8.5,13 C8.5,13.552 8.052,14 7.5,14 C6.948,14 6.5,13.552 6.5,13 L6.5,11 C6.5,10.448 6.948,10 7.5,10 Z"/>
</svg>
