<svg xmlns="http://www.w3.org/2000/svg" width="24" height="24" viewBox="0 0 24 24">
  <defs/>
  <path d="M3.793,7.293 C4.183,6.902 4.817,6.902 5.207,7.293 L9.207,11.293 C9.598,11.683 9.598,12.317 9.207,12.707 L5.207,16.707 C4.817,17.098 4.183,17.098 3.793,16.707 C3.402,16.317 3.402,15.683 3.793,15.293 L6.086,13 L2,13 C1.448,13 1,12.552 1,12 C1,11.448 1.448,11 2,11 L6.086,11 L3.793,8.707 C3.402,8.317 3.402,7.683 3.793,7.293 Z M20.207,7.293 C20.598,7.683 20.598,8.317 20.207,8.707 L17.914,11 L22,11 C22.552,11 23,11.448 23,12 C23,12.552 22.552,13 22,13 L17.914,13 L20.207,15.293 C20.598,15.683 20.598,16.317 20.207,16.707 C19.817,17.098 19.183,17.098 18.793,16.707 L14.793,12.707 C14.402,12.317 14.402,11.683 14.793,11.293 L18.793,7.293 C19.183,6.902 19.817,6.902 20.207,7.293 Z M12,17 C12.552,17 13,17.448 13,18 L13,21 C13,21.552 12.552,22 12,22 C11.448,22 11,21.552 11,21 L11,18 C11,17.448 11.448,17 12,17 Z M12,9.5 C12.552,9.5 13,9.948 13,10.5 L13,13.5 C13,14.052 12.552,14.5 12,14.5 C11.448,14.5 11,14.052 11,13.5 L11,10.5 C11,9.948 11.448,9.5 12,9.5 Z M12,2 C12.552,2 13,2.448 13,3 L13,6 C13,6.552 12.552,7 12,7 C11.448,7 11,6.552 11,6 L11,3 C11,2.448 11.448,2 12,2 Z"/>
</svg>
