<svg xmlns="http://www.w3.org/2000/svg" width="24" height="24" viewBox="0 0 24 24">
  <defs/>
  <path d="M20.664,6.788 C20.823,6.688 21.127,6.511 21.518,6.516 C21.971,6.521 22.397,6.731 22.678,7.086 C22.92,7.394 22.965,7.743 22.983,7.93 C23,8.124 23,8.36 23,8.59 L23,15.41 C23,15.64 23,15.876 22.983,16.07 C22.965,16.257 22.92,16.606 22.678,16.914 C22.397,17.269 21.971,17.479 21.518,17.485 C21.127,17.489 20.823,17.312 20.664,17.212 C20.5,17.108 20.313,16.964 20.13,16.823 L15.715,13.427 C15.707,13.421 15.7,13.415 15.693,13.41 C15.572,13.317 15.435,13.212 15.325,13.111 C15.203,12.998 15.025,12.813 14.919,12.537 C14.787,12.191 14.787,11.809 14.919,11.463 C15.025,11.187 15.203,11.002 15.325,10.889 C15.435,10.788 15.572,10.683 15.693,10.59 C15.7,10.585 15.707,10.579 15.715,10.573 L20.13,7.177 C20.313,7.036 20.5,6.892 20.664,6.788 Z M3.87,7.177 C3.879,7.184 3.888,7.191 3.897,7.198 L8.285,10.573 C8.293,10.579 8.3,10.585 8.307,10.59 C8.428,10.683 8.565,10.788 8.675,10.889 C8.797,11.002 8.975,11.187 9.081,11.463 C9.213,11.809 9.213,12.191 9.081,12.537 C8.975,12.813 8.797,12.998 8.675,13.111 C8.565,13.212 8.428,13.317 8.307,13.41 C8.3,13.415 8.293,13.421 8.285,13.427 L3.87,16.823 C3.687,16.964 3.5,17.108 3.336,17.212 C3.177,17.312 2.873,17.489 2.482,17.485 C2.029,17.479 1.603,17.269 1.322,16.914 C1.08,16.606 1.035,16.257 1.018,16.07 C1,15.876 1,15.641 1,15.411 L1,15.41 L1,15.375 L1,8.625 L1,8.59 L1,8.589 C1,8.359 1,8.124 1.018,7.93 C1.035,7.743 1.08,7.394 1.322,7.086 C1.603,6.731 2.029,6.521 2.482,6.516 C2.873,6.511 3.177,6.688 3.336,6.788 C3.5,6.892 3.687,7.036 3.87,7.177 Z M21,9.031 L17.14,12 L21,14.969 Z M3,9.031 L3,14.969 L6.86,12 Z M12,17 C12.552,17 13,17.448 13,18 L13,21 C13,21.552 12.552,22 12,22 C11.448,22 11,21.552 11,21 L11,18 C11,17.448 11.448,17 12,17 Z M12,9.5 C12.552,9.5 13,9.948 13,10.5 L13,13.5 C13,14.052 12.552,14.5 12,14.5 C11.448,14.5 11,14.052 11,13.5 L11,10.5 C11,9.948 11.448,9.5 12,9.5 Z M12,2 C12.552,2 13,2.448 13,3 L13,6 C13,6.552 12.552,7 12,7 C11.448,7 11,6.552 11,6 L11,3 C11,2.448 11.448,2 12,2 Z"/>
</svg>
