<svg xmlns="http://www.w3.org/2000/svg" width="24" height="24" viewBox="0 0 24 24">
  <defs/>
  <path d="M13.707,0.893 C14.098,1.283 14.098,1.917 13.707,2.307 L13.41,2.604 C17.988,3.285 21.5,7.232 21.5,12 C21.5,15.159 19.957,17.957 17.589,19.683 C17.142,20.008 16.517,19.91 16.192,19.463 C15.866,19.017 15.965,18.392 16.411,18.066 C18.285,16.701 19.5,14.492 19.5,12 C19.5,8.356 16.901,5.319 13.455,4.641 L13.707,4.893 C14.098,5.283 14.098,5.917 13.707,6.307 C13.317,6.698 12.683,6.698 12.293,6.307 L10.293,4.307 C9.902,3.917 9.902,3.283 10.293,2.893 L12.293,0.893 C12.683,0.502 13.317,0.502 13.707,0.893 Z M7.808,4.537 C8.133,4.983 8.035,5.608 7.589,5.934 C5.715,7.299 4.5,9.508 4.5,12 C4.5,15.644 7.099,18.681 10.545,19.359 L10.293,19.107 C9.902,18.717 9.902,18.083 10.293,17.693 C10.683,17.302 11.317,17.302 11.707,17.693 L13.707,19.693 C14.098,20.083 14.098,20.717 13.707,21.107 L11.707,23.107 C11.317,23.498 10.683,23.498 10.293,23.107 C9.902,22.717 9.902,22.083 10.293,21.693 L10.59,21.396 C6.012,20.715 2.5,16.767 2.5,12 C2.5,8.841 4.043,6.043 6.411,4.317 C6.858,3.992 7.483,4.09 7.808,4.537 Z"/>
</svg>
