<svg xmlns="http://www.w3.org/2000/svg" width="24" height="24" viewBox="0 0 24 24">
  <defs/>
  <path d="M1,12 C1,6.477 5.477,2 11,2 C13.762,2 16.265,3.121 18.073,4.931 C18.713,5.571 19.398,6.362 20,7.094 L20,4 C20,3.448 20.448,3 21,3 C21.552,3 22,3.448 22,4 L22,10 C22,10.552 21.552,11 21,11 L15,11 C14.448,11 14,10.552 14,10 C14,9.448 14.448,9 15,9 L18.969,9 C18.277,8.131 17.417,7.103 16.659,6.345 C15.21,4.895 13.21,4 11,4 C6.582,4 3,7.582 3,12 C3,16.418 6.582,20 11,20 C14.646,20 17.724,17.56 18.687,14.223 C18.841,13.692 19.395,13.386 19.926,13.539 C20.456,13.692 20.762,14.247 20.609,14.777 C19.406,18.948 15.561,22 11,22 C5.477,22 1,17.523 1,12 Z"/>
</svg>
