<svg xmlns="http://www.w3.org/2000/svg" width="24" height="24" viewBox="0 0 24 24">
  <defs/>
  <path d="M13.025,3.003 C13.147,2.464 13.683,2.126 14.221,2.249 C15.999,2.652 17.688,3.546 19.071,4.929 C22.976,8.834 22.976,15.166 19.071,19.071 C18.273,19.869 17.605,20.5 17.046,21 L20,21 C20.552,21 21,21.448 21,22 C21,22.552 20.552,23 20,23 L14,23 C13.735,23 13.48,22.895 13.293,22.707 C13.105,22.52 13,22.265 13,22 L13,16 C13,15.448 13.448,15 14,15 C14.552,15 15,15.448 15,16 L15,20.126 C15.617,19.614 16.479,18.835 17.657,17.657 C20.781,14.533 20.781,9.467 17.657,6.343 C16.549,5.235 15.199,4.521 13.779,4.199 C13.24,4.077 12.903,3.541 13.025,3.003 Z M3,2 C3,1.448 3.448,1 4,1 L10,1 C10.552,1 11,1.448 11,2 L11,8 C11,8.552 10.552,9 10,9 C9.448,9 9,8.552 9,8 L9,3.874 C8.383,4.386 7.522,5.165 6.343,6.343 C3.219,9.468 3.219,14.533 6.343,17.657 C7.451,18.765 8.801,19.479 10.221,19.801 C10.76,19.923 11.097,20.459 10.975,20.998 C10.853,21.536 10.317,21.874 9.779,21.752 C8.001,21.348 6.311,20.454 4.929,19.071 C1.024,15.166 1.024,8.834 4.929,4.929 C5.727,4.131 6.395,3.5 6.954,3 L4,3 C3.448,3 3,2.552 3,2 Z"/>
</svg>
