<svg xmlns="http://www.w3.org/2000/svg" width="24" height="24" viewBox="0 0 24 24">
  <defs/>
  <path d="M17.809,6.675 C17.952,6.142 18.5,5.825 19.034,5.968 L21.766,6.7 C22.299,6.843 22.616,7.391 22.473,7.925 C22.33,8.458 21.781,8.775 21.248,8.632 L20.843,8.523 C22.542,12.828 20.879,17.844 16.75,20.227 C14.015,21.807 10.82,21.87 8.141,20.682 C7.636,20.458 7.409,19.867 7.633,19.362 C7.857,18.857 8.447,18.629 8.952,18.853 C11.072,19.794 13.592,19.741 15.75,18.495 C18.906,16.673 20.237,12.903 19.101,9.581 L19.009,9.925 C18.866,10.458 18.317,10.775 17.784,10.632 C17.25,10.489 16.934,9.941 17.077,9.407 Z M7.25,3.773 C9.985,2.194 13.18,2.13 15.859,3.319 C16.364,3.543 16.591,4.133 16.367,4.638 C16.143,5.143 15.553,5.371 15.048,5.147 C12.928,4.207 10.408,4.259 8.25,5.505 C5.094,7.327 3.763,11.097 4.899,14.42 L4.992,14.075 C5.135,13.542 5.683,13.225 6.216,13.368 C6.75,13.511 7.066,14.059 6.923,14.593 L6.191,17.325 C6.123,17.581 5.955,17.799 5.725,17.932 C5.496,18.065 5.223,18.1 4.967,18.032 L2.235,17.3 C1.701,17.157 1.385,16.608 1.527,16.075 C1.67,15.542 2.219,15.225 2.752,15.368 L3.157,15.476 C1.459,11.171 3.121,6.157 7.25,3.773 Z"/>
</svg>
