<svg xmlns="http://www.w3.org/2000/svg" width="24" height="24" viewBox="0 0 24 24">
  <defs/>
  <path d="M16.192,4.537 C16.517,4.09 17.142,3.992 17.589,4.317 C19.957,6.043 21.5,8.841 21.5,12 C21.5,16.767 17.988,20.715 13.41,21.396 L13.707,21.693 C14.098,22.083 14.098,22.717 13.707,23.107 C13.317,23.498 12.683,23.498 12.293,23.107 L10.293,21.107 C9.902,20.717 9.902,20.083 10.293,19.693 L12.293,17.693 C12.683,17.302 13.317,17.302 13.707,17.693 C14.098,18.083 14.098,18.717 13.707,19.107 L13.455,19.359 C16.901,18.681 19.5,15.644 19.5,12 C19.5,9.508 18.285,7.299 16.411,5.934 C15.965,5.608 15.866,4.983 16.192,4.537 Z M10.293,0.893 C10.683,0.502 11.317,0.502 11.707,0.893 L13.707,2.893 C14.098,3.283 14.098,3.917 13.707,4.307 L11.707,6.307 C11.317,6.698 10.683,6.698 10.293,6.307 C9.902,5.917 9.902,5.283 10.293,4.893 L10.545,4.641 C7.099,5.319 4.5,8.356 4.5,12 C4.5,14.492 5.715,16.701 7.589,18.066 C8.035,18.392 8.133,19.017 7.808,19.463 C7.483,19.91 6.858,20.008 6.411,19.683 C4.043,17.957 2.5,15.159 2.5,12 C2.5,7.232 6.012,3.285 10.59,2.604 L10.293,2.307 C9.902,1.917 9.902,1.283 10.293,0.893 Z"/>
</svg>
