<svg xmlns="http://www.w3.org/2000/svg" width="24" height="24" viewBox="0 0 24 24">
  <defs/>
  <path d="M12,4 C9.79,4 7.79,4.895 6.341,6.345 C5.583,7.103 4.723,8.131 4.031,9 L8,9 C8.552,9 9,9.448 9,10 C9,10.552 8.552,11 8,11 L2,11 C1.448,11 1,10.552 1,10 L1,4 C1,3.448 1.448,3 2,3 C2.552,3 3,3.448 3,4 L3,7.094 C3.602,6.362 4.287,5.571 4.926,4.931 C6.735,3.121 9.238,2 12,2 C17.523,2 22,6.477 22,12 C22,17.523 17.523,22 12,22 C7.44,22 3.595,18.948 2.391,14.777 C2.238,14.247 2.544,13.692 3.075,13.539 C3.605,13.386 4.159,13.692 4.313,14.223 C5.276,17.56 8.354,20 12,20 C16.418,20 20,16.418 20,12 C20,7.582 16.418,4 12,4 Z"/>
</svg>
