<svg xmlns="http://www.w3.org/2000/svg" width="24" height="24" viewBox="0 0 24 24">
  <defs/>
  <path d="M13.293,1.293 C13.48,1.105 13.735,1 14,1 L20,1 C20.552,1 21,1.448 21,2 C21,2.552 20.552,3 20,3 L17.046,3 C17.605,3.5 18.273,4.131 19.071,4.929 C22.976,8.834 22.976,15.166 19.071,19.071 C17.688,20.454 15.999,21.348 14.221,21.751 C13.683,21.874 13.147,21.536 13.025,20.997 C12.903,20.459 13.24,19.923 13.779,19.801 C15.199,19.479 16.549,18.765 17.657,17.657 C20.781,14.533 20.781,9.467 17.657,6.343 C16.479,5.165 15.617,4.386 15,3.874 L15,8 C15,8.552 14.552,9 14,9 C13.448,9 13,8.552 13,8 L13,2 C13,1.735 13.105,1.48 13.293,1.293 Z M10.975,3.002 C11.097,3.541 10.76,4.077 10.221,4.199 C8.801,4.521 7.451,5.235 6.343,6.343 C3.219,9.467 3.219,14.533 6.343,17.657 C7.522,18.835 8.383,19.614 9,20.125 L9,16 C9,15.448 9.448,15 10,15 C10.552,15 11,15.448 11,16 L11,22 C11,22.552 10.552,23 10,23 L4,23 C3.448,23 3,22.552 3,22 C3,21.448 3.448,21 4,21 L6.954,21 C6.395,20.5 5.727,19.869 4.929,19.071 C1.024,15.166 1.024,8.834 4.929,4.929 C6.311,3.546 8.001,2.652 9.779,2.248 C10.317,2.126 10.853,2.464 10.975,3.002 Z"/>
</svg>
