<svg xmlns="http://www.w3.org/2000/svg" width="24" height="24" viewBox="0 0 24 24">
  <defs/>
  <path d="M3.003,13.025 C3.541,12.903 4.077,13.24 4.199,13.779 C4.521,15.199 5.235,16.549 6.343,17.657 C9.467,20.781 14.533,20.781 17.657,17.657 C18.835,16.479 19.614,15.617 20.126,15 L16,15 C15.448,15 15,14.552 15,14 C15,13.448 15.448,13 16,13 L22,13 C22.552,13 23,13.448 23,14 L23,20 C23,20.552 22.552,21 22,21 C21.448,21 21,20.552 21,20 L21,17.046 C20.5,17.605 19.869,18.273 19.071,19.071 C15.166,22.976 8.834,22.976 4.929,19.071 C3.546,17.688 2.652,15.999 2.249,14.221 C2.126,13.683 2.464,13.147 3.003,13.025 Z M4.929,4.929 C8.834,1.024 15.166,1.024 19.071,4.929 C20.454,6.311 21.348,8.001 21.751,9.779 C21.874,10.317 21.536,10.853 20.997,10.975 C20.459,11.097 19.923,10.76 19.801,10.221 C19.479,8.801 18.765,7.451 17.657,6.343 C14.533,3.219 9.467,3.219 6.343,6.343 C5.165,7.522 4.386,8.383 3.874,9 L8,9 C8.552,9 9,9.448 9,10 C9,10.552 8.552,11 8,11 L2,11 C1.448,11 1,10.552 1,10 L1,4 C1,3.448 1.448,3 2,3 C2.552,3 3,3.448 3,4 L3,6.954 C3.5,6.395 4.131,5.727 4.929,4.929 Z"/>
</svg>
