<svg xmlns="http://www.w3.org/2000/svg" width="24" height="24" viewBox="0 0 24 24">
  <defs/>
  <path d="M17.657,6.343 C14.533,3.219 9.467,3.219 6.343,6.343 C5.235,7.451 4.521,8.801 4.199,10.221 C4.077,10.76 3.541,11.097 3.003,10.975 C2.464,10.853 2.126,10.317 2.249,9.779 C2.652,8.001 3.546,6.311 4.929,4.929 C8.834,1.024 15.166,1.024 19.071,4.929 C19.869,5.727 20.5,6.395 21,6.954 L21,4 C21,3.448 21.448,3 22,3 C22.552,3 23,3.448 23,4 L23,10 C23,10.552 22.552,11 22,11 L16,11 C15.448,11 15,10.552 15,10 C15,9.448 15.448,9 16,9 L20.126,9 C19.614,8.383 18.835,7.522 17.657,6.343 Z M20.997,13.025 C21.536,13.147 21.874,13.683 21.751,14.221 C21.348,15.999 20.454,17.688 19.071,19.071 C15.166,22.976 8.834,22.976 4.929,19.071 C4.131,18.273 3.5,17.605 3,17.046 L3,20 C3,20.552 2.552,21 2,21 C1.448,21 1,20.552 1,20 L1,14 C1,13.448 1.448,13 2,13 L8,13 C8.552,13 9,13.448 9,14 C9,14.552 8.552,15 8,15 L3.874,15 C4.386,15.617 5.165,16.479 6.343,17.657 C9.467,20.781 14.533,20.781 17.657,17.657 C18.765,16.549 19.479,15.199 19.801,13.779 C19.923,13.24 20.459,12.903 20.997,13.025 Z"/>
</svg>
