<svg xmlns="http://www.w3.org/2000/svg" width="24" height="24" viewBox="0 0 24 24">
  <defs/>
  <path d="M7.707,13.293 C8.098,13.683 8.098,14.317 7.707,14.707 L5.414,17 L16.2,17 C17.057,17 17.639,16.999 18.089,16.962 C18.527,16.927 18.752,16.862 18.908,16.782 C19.284,16.59 19.59,16.284 19.782,15.908 C19.862,15.752 19.927,15.527 19.962,15.089 C19.999,14.639 20,14.057 20,13.2 L20,13 C20,12.448 20.448,12 21,12 C21.552,12 22,12.448 22,13 L22,13.241 C22,14.046 22,14.711 21.956,15.252 C21.91,15.814 21.811,16.331 21.564,16.816 C21.181,17.569 20.569,18.181 19.816,18.564 C19.331,18.811 18.814,18.91 18.252,18.956 C17.711,19 17.046,19 16.241,19 L5.414,19 L7.707,21.293 C8.098,21.683 8.098,22.317 7.707,22.707 C7.317,23.098 6.683,23.098 6.293,22.707 L2.293,18.707 C1.902,18.317 1.902,17.683 2.293,17.293 L6.293,13.293 C6.683,12.902 7.317,12.902 7.707,13.293 Z M16.293,1.293 C16.683,0.902 17.317,0.902 17.707,1.293 L21.707,5.293 C22.098,5.683 22.098,6.317 21.707,6.707 L17.707,10.707 C17.317,11.098 16.683,11.098 16.293,10.707 C15.902,10.317 15.902,9.683 16.293,9.293 L18.586,7 L7.8,7 C6.943,7 6.361,7.001 5.911,7.038 C5.473,7.073 5.248,7.138 5.092,7.218 C4.716,7.41 4.41,7.716 4.218,8.092 C4.138,8.248 4.073,8.473 4.038,8.911 C4.001,9.361 4,9.943 4,10.8 L4,11 C4,11.552 3.552,12 3,12 C2.448,12 2,11.552 2,11 L2,10.759 C2,9.954 2,9.289 2.044,8.748 C2.09,8.186 2.189,7.669 2.436,7.184 C2.819,6.431 3.431,5.819 4.184,5.436 C4.669,5.189 5.186,5.09 5.748,5.044 C6.289,5 6.954,5 7.759,5 L18.586,5 L16.293,2.707 C15.902,2.317 15.902,1.683 16.293,1.293 Z"/>
</svg>
