<svg xmlns="http://www.w3.org/2000/svg" width="24" height="24" viewBox="0 0 24 24">
  <defs/>
  <path d="M17.097,5.245 C17.334,4.746 17.93,4.533 18.429,4.77 C21.13,6.053 23,8.807 23,12 C23,16.418 19.418,20 15,20 L12.414,20 L13.707,21.293 C14.098,21.683 14.098,22.317 13.707,22.707 C13.317,23.098 12.683,23.098 12.293,22.707 L9.293,19.707 C8.902,19.317 8.902,18.683 9.293,18.293 L12.293,15.293 C12.683,14.902 13.317,14.902 13.707,15.293 C14.098,15.683 14.098,16.317 13.707,16.707 L12.414,18 L15,18 C18.314,18 21,15.314 21,12 C21,9.608 19.6,7.541 17.571,6.577 C17.072,6.34 16.86,5.743 17.097,5.245 Z M10.293,1.293 C10.683,0.902 11.317,0.902 11.707,1.293 L14.707,4.293 C15.098,4.683 15.098,5.317 14.707,5.707 L11.707,8.707 C11.317,9.098 10.683,9.098 10.293,8.707 C9.902,8.317 9.902,7.683 10.293,7.293 L11.586,6 L9,6 C5.686,6 3,8.686 3,12 C3,14.392 4.4,16.459 6.429,17.423 C6.928,17.66 7.14,18.257 6.903,18.756 C6.666,19.254 6.07,19.467 5.571,19.23 C2.87,17.947 1,15.193 1,12 C1,7.582 4.582,4 9,4 L11.586,4 L10.293,2.707 C9.902,2.317 9.902,1.683 10.293,1.293 Z"/>
</svg>
