<svg xmlns="http://www.w3.org/2000/svg" width="24" height="24" viewBox="0 0 24 24">
  <defs/>
  <path d="M10.293,1.293 C10.683,0.902 11.317,0.902 11.707,1.293 L14.707,4.293 C15.098,4.683 15.098,5.317 14.707,5.707 L11.707,8.707 C11.317,9.098 10.683,9.098 10.293,8.707 C9.902,8.317 9.902,7.683 10.293,7.293 L11.586,6 L6.8,6 C5.943,6 5.361,6.001 4.911,6.038 C4.473,6.073 4.248,6.138 4.092,6.218 C3.716,6.41 3.41,6.716 3.218,7.092 C3.138,7.248 3.073,7.473 3.038,7.911 C3.001,8.361 3,8.943 3,9.8 L3,15.5 C3,15.996 3.002,16.147 3.017,16.261 C3.135,17.159 3.842,17.865 4.739,17.983 C4.853,17.998 5.004,18 5.5,18 C6.052,18 6.5,18.448 6.5,19 C6.5,19.552 6.052,20 5.5,20 L5.43,20 C5.033,20 4.739,20 4.478,19.966 C2.683,19.729 1.271,18.317 1.034,16.522 C1,16.261 1,15.966 1,15.569 L1,15.569 L1,15.5 L1,9.759 C1,8.954 1,8.289 1.044,7.748 C1.09,7.186 1.189,6.669 1.436,6.184 C1.819,5.431 2.431,4.819 3.184,4.436 C3.669,4.189 4.186,4.09 4.748,4.044 C5.289,4 5.954,4 6.759,4 L11.586,4 L10.293,2.707 C9.902,2.317 9.902,1.683 10.293,1.293 Z M19.261,6.017 C19.147,6.002 18.996,6 18.5,6 C17.948,6 17.5,5.552 17.5,5 C17.5,4.448 17.948,4 18.5,4 L18.569,4 C18.966,4 19.261,4 19.522,4.034 C21.317,4.271 22.729,5.683 22.966,7.478 C23,7.739 23,8.033 23,8.43 L23,14.241 C23,15.046 23,15.711 22.956,16.252 C22.91,16.814 22.811,17.331 22.564,17.816 C22.181,18.569 21.569,19.181 20.816,19.564 C20.331,19.811 19.814,19.91 19.252,19.956 C18.711,20 18.046,20 17.241,20 L12.414,20 L13.707,21.293 C14.098,21.683 14.098,22.317 13.707,22.707 C13.317,23.098 12.683,23.098 12.293,22.707 L9.293,19.707 C8.902,19.317 8.902,18.683 9.293,18.293 L12.293,15.293 C12.683,14.902 13.317,14.902 13.707,15.293 C14.098,15.683 14.098,16.317 13.707,16.707 L12.414,18 L17.2,18 C18.057,18 18.639,17.999 19.089,17.962 C19.527,17.927 19.752,17.862 19.908,17.782 C20.284,17.59 20.59,17.284 20.782,16.908 C20.862,16.752 20.927,16.527 20.962,16.089 C20.999,15.639 21,15.057 21,14.2 L21,8.5 C21,8.004 20.998,7.853 20.983,7.739 C20.865,6.841 20.159,6.135 19.261,6.017 Z"/>
</svg>
