<svg width="18" height="18" viewBox="0 0 18 18" fill="none" xmlns="http://www.w3.org/2000/svg">
<path d="M0.999951 0.200012C1.44178 0.200012 1.79995 0.558184 1.79995 1.00001V2.40001C1.79995 4.09337 1.80057 5.31528 1.87904 6.27566C1.95674 7.2267 2.10678 7.8506 2.36672 8.36076C2.86526 9.33921 3.66076 10.1347 4.6392 10.6332C5.14936 10.8932 5.77327 11.0432 6.72431 11.1209C7.68469 11.1994 8.90659 11.2 10.6 11.2H15.0686L11.4343 7.5657C11.1218 7.25328 11.1218 6.74675 11.4343 6.43433C11.7467 6.12191 12.2532 6.12191 12.5656 6.43433L17.5656 11.4343C17.8781 11.7467 17.8781 12.2533 17.5656 12.5657L12.5656 17.5657C12.2532 17.8781 11.7467 17.8781 11.4343 17.5657C11.1218 17.2533 11.1218 16.7467 11.4343 16.4343L15.0686 12.8H10.5639C8.91426 12.8 7.62715 12.8 6.59402 12.7156C5.54403 12.6298 4.68613 12.4529 3.91282 12.0589C2.63331 11.4069 1.59305 10.3667 0.941107 9.08715C0.547086 8.31384 0.370141 7.45593 0.284353 6.40595C0.199943 5.37282 0.199947 4.08571 0.199951 2.43608L0.199951 1.00001C0.199951 0.558184 0.558124 0.200012 0.999951 0.200012Z" fill="black"/>
</svg>
