<svg xmlns="http://www.w3.org/2000/svg" width="24" height="24" viewBox="0 0 24 24">
  <defs/>
  <path d="M8.707,2.293 C9.098,2.683 9.098,3.317 8.707,3.707 L6.414,6 L14,6 C17.866,6 21,9.134 21,13 C21,16.866 17.866,20 14,20 L4,20 C3.448,20 3,19.552 3,19 C3,18.448 3.448,18 4,18 L14,18 C16.761,18 19,15.761 19,13 C19,10.239 16.761,8 14,8 L6.414,8 L8.707,10.293 C9.098,10.683 9.098,11.317 8.707,11.707 C8.317,12.098 7.683,12.098 7.293,11.707 L3.293,7.707 C2.902,7.317 2.902,6.683 3.293,6.293 L7.293,2.293 C7.683,1.902 8.317,1.902 8.707,2.293 Z"/>
</svg>
