<svg xmlns="http://www.w3.org/2000/svg" width="24" height="24" viewBox="0 0 24 24">
  <defs/>
  <path d="M15.293,2.293 C15.683,1.902 16.317,1.902 16.707,2.293 L20.707,6.293 C21.098,6.683 21.098,7.317 20.707,7.707 L16.707,11.707 C16.317,12.098 15.683,12.098 15.293,11.707 C14.902,11.317 14.902,10.683 15.293,10.293 L17.586,8 L10,8 C7.239,8 5,10.239 5,13 C5,15.761 7.239,18 10,18 L20,18 C20.552,18 21,18.448 21,19 C21,19.552 20.552,20 20,20 L10,20 C6.134,20 3,16.866 3,13 C3,9.134 6.134,6 10,6 L17.586,6 L15.293,3.707 C14.902,3.317 14.902,2.683 15.293,2.293 Z"/>
</svg>
