<svg xmlns="http://www.w3.org/2000/svg" width="24" height="24" viewBox="0 0 24 24">
  <defs/>
  <path d="M19.68,7.262 C19.84,7.163 20.143,6.992 20.531,7 C20.981,7.01 21.403,7.221 21.681,7.575 C21.92,7.881 21.965,8.226 21.983,8.413 C22,8.605 22,8.838 22,9.065 L22,14.935 C22,15.162 22,15.395 21.983,15.587 C21.965,15.774 21.92,16.119 21.681,16.425 C21.403,16.779 20.981,16.99 20.531,17 C20.143,17.008 19.84,16.837 19.68,16.738 C19.516,16.637 19.329,16.497 19.148,16.361 L15.253,13.44 C15.246,13.434 15.238,13.429 15.231,13.423 C15.106,13.33 14.965,13.224 14.852,13.123 C14.728,13.011 14.545,12.824 14.435,12.544 C14.299,12.194 14.299,11.806 14.435,11.456 C14.545,11.176 14.728,10.989 14.852,10.877 C14.965,10.776 15.106,10.67 15.231,10.577 C15.238,10.571 15.246,10.566 15.253,10.56 L19.12,7.66 C19.129,7.653 19.139,7.646 19.148,7.639 C19.329,7.503 19.516,7.363 19.68,7.262 Z M2,20 C2,19.448 2.448,19 3,19 L21,19 C21.552,19 22,19.448 22,20 C22,20.552 21.552,21 21,21 L3,21 C2.448,21 2,20.552 2,20 Z M2,4 C2,3.448 2.448,3 3,3 L21,3 C21.552,3 22,3.448 22,4 C22,4.552 21.552,5 21,5 L3,5 C2.448,5 2,4.552 2,4 Z M2,14.75 C2,14.198 2.448,13.75 3,13.75 L12,13.75 C12.552,13.75 13,14.198 13,14.75 C13,15.302 12.552,15.75 12,15.75 L3,15.75 C2.448,15.75 2,15.302 2,14.75 Z M2,9.25 C2,8.698 2.448,8.25 3,8.25 L12,8.25 C12.552,8.25 13,8.698 13,9.25 C13,9.802 12.552,10.25 12,10.25 L3,10.25 C2.448,10.25 2,9.802 2,9.25 Z M20,9.5 L16.667,12 L20,14.5 Z"/>
</svg>
