<svg xmlns="http://www.w3.org/2000/svg" width="24" height="24" viewBox="0 0 24 24">
  <defs/>
  <path d="M19.68,1.762 C19.84,1.663 20.143,1.492 20.531,1.5 C20.981,1.51 21.403,1.721 21.681,2.075 C21.92,2.381 21.965,2.726 21.983,2.913 C22,3.105 22,3.338 22,3.565 L22,9.435 C22,9.662 22,9.895 21.983,10.087 C21.965,10.274 21.92,10.619 21.681,10.925 C21.403,11.279 20.981,11.49 20.531,11.5 C20.143,11.508 19.84,11.337 19.68,11.238 C19.516,11.137 19.329,10.997 19.148,10.861 C19.139,10.854 19.129,10.847 19.12,10.84 L15.253,7.94 C15.246,7.934 15.238,7.929 15.231,7.923 C15.106,7.83 14.965,7.724 14.852,7.623 C14.728,7.511 14.545,7.324 14.435,7.044 C14.299,6.694 14.299,6.306 14.435,5.956 C14.545,5.676 14.728,5.489 14.852,5.377 C14.965,5.276 15.106,5.17 15.231,5.077 C15.238,5.071 15.246,5.066 15.253,5.06 L19.148,2.139 C19.329,2.003 19.516,1.863 19.68,1.762 Z M2,14.75 C2,14.198 2.448,13.75 3,13.75 L21,13.75 C21.552,13.75 22,14.198 22,14.75 C22,15.302 21.552,15.75 21,15.75 L3,15.75 C2.448,15.75 2,15.302 2,14.75 Z M2,20 C2,19.448 2.448,19 3,19 L21,19 C21.552,19 22,19.448 22,20 C22,20.552 21.552,21 21,21 L3,21 C2.448,21 2,20.552 2,20 Z M2,9.25 C2,8.698 2.448,8.25 3,8.25 L12,8.25 C12.552,8.25 13,8.698 13,9.25 C13,9.802 12.552,10.25 12,10.25 L3,10.25 C2.448,10.25 2,9.802 2,9.25 Z M2,4 C2,3.448 2.448,3 3,3 L12,3 C12.552,3 13,3.448 13,4 C13,4.552 12.552,5 12,5 L3,5 C2.448,5 2,4.552 2,4 Z M20,4 L16.667,6.5 L20,9 Z"/>
</svg>
