<svg xmlns="http://www.w3.org/2000/svg" width="24" height="24" viewBox="0 0 24 24">
  <defs/>
  <path d="M11.359,20.767 C11.132,20.577 11,20.296 11,20 L11,15.414 L8.586,13 L4,13 C3.704,13 3.422,12.868 3.232,12.641 C3.042,12.413 2.963,12.113 3.016,11.821 L3.016,11.819 L3.017,11.816 L3.019,11.806 L3.025,11.774 C3.03,11.747 3.038,11.709 3.048,11.661 C3.068,11.566 3.098,11.433 3.138,11.27 C3.218,10.947 3.342,10.503 3.516,10.023 C3.841,9.128 4.429,7.848 5.444,7.169 L5.445,7.168 C6.04,6.771 6.738,6.607 7.372,6.548 C8.015,6.489 8.668,6.53 9.235,6.603 C9.761,6.671 10.236,6.769 10.595,6.855 C11.806,5.146 13.39,3.73 15.231,2.718 C17.306,1.576 19.638,0.985 22.006,1 C22.556,1.003 23,1.45 23,2 C23,4.81 22.212,9.707 17.148,13.416 C17.233,13.774 17.33,14.245 17.397,14.764 C17.47,15.332 17.511,15.985 17.451,16.628 C17.392,17.262 17.229,17.959 16.832,18.555 L16.831,18.556 C16.152,19.571 14.872,20.159 13.977,20.484 C13.497,20.658 13.052,20.782 12.729,20.862 C12.567,20.902 12.433,20.932 12.339,20.952 C12.291,20.962 12.253,20.969 12.226,20.975 L12.194,20.981 L12.184,20.983 L12.181,20.983 L12.179,20.984 C11.887,21.037 11.587,20.957 11.359,20.767 Z M20.959,3.038 C19.292,3.174 17.668,3.66 16.195,4.47 C14.419,5.447 12.923,6.862 11.848,8.58 L11.842,8.589 C11.197,9.597 10.639,10.658 10.175,11.76 L12.242,13.828 C13.358,13.364 14.432,12.807 15.454,12.162 C19.679,9.324 20.755,5.613 20.959,3.038 Z M3.856,15.735 C4.455,15.23 5.22,14.964 6.003,14.988 C6.787,15.012 7.533,15.325 8.1,15.866 L8.113,15.878 C9.301,17.052 9.286,18.935 8.265,20.144 C7.822,20.671 7.212,21.057 6.626,21.344 C6.028,21.636 5.382,21.858 4.803,22.024 C4.22,22.191 3.682,22.306 3.291,22.381 C3.094,22.418 2.933,22.445 2.82,22.463 C2.763,22.472 2.718,22.479 2.686,22.483 L2.649,22.489 L2.638,22.49 L2.633,22.491 C2.325,22.532 2.013,22.427 1.793,22.207 C1.573,21.986 1.468,21.676 1.509,21.367 L1.51,21.362 L1.511,21.351 L1.516,21.313 C1.521,21.282 1.528,21.237 1.537,21.18 C1.555,21.066 1.582,20.905 1.619,20.709 C1.693,20.318 1.809,19.78 1.976,19.197 C2.142,18.617 2.364,17.972 2.656,17.374 C2.943,16.787 3.329,16.177 3.856,15.735 Z M9.467,8.662 C9.312,8.634 9.149,8.608 8.98,8.587 C8.5,8.525 8.004,8.498 7.557,8.54 C7.102,8.582 6.77,8.688 6.555,8.831 C6.12,9.123 5.709,9.842 5.396,10.705 C5.36,10.805 5.326,10.904 5.295,11 L8.325,11 C8.661,10.199 9.043,9.419 9.467,8.662 Z M15.341,14.551 C14.583,14.97 13.801,15.346 13,15.678 L13,18.705 C13.096,18.674 13.195,18.64 13.295,18.603 C14.158,18.291 14.877,17.879 15.168,17.444 C15.311,17.229 15.418,16.897 15.46,16.442 C15.502,15.996 15.475,15.5 15.413,15.02 C15.392,14.858 15.368,14.7 15.341,14.551 Z M3.77,20.229 C3.926,20.191 4.087,20.148 4.253,20.101 C4.765,19.954 5.291,19.77 5.748,19.546 C6.217,19.317 6.547,19.08 6.734,18.857 L6.736,18.854 C7.132,18.386 7.099,17.695 6.713,17.307 C6.504,17.11 6.229,16.996 5.941,16.987 C5.651,16.978 5.367,17.077 5.144,17.264 L5.143,17.265 C4.92,17.453 4.682,17.783 4.453,18.251 C4.23,18.709 4.046,19.235 3.899,19.747 C3.852,19.913 3.809,20.074 3.77,20.229 Z M2.5,21.5 C2.632,22.483 2.633,22.491 2.633,22.491 L2.5,21.5 Z M2.5,21.5 L1.509,21.367 C1.509,21.367 1.511,21.367 2.5,21.5 Z"/>
</svg>
