<svg xmlns="http://www.w3.org/2000/svg" width="24" height="24" viewBox="0 0 24 24">
  <defs/>
  <path d="M17.176,14.958 L17.931,17.224 C18.152,17.886 18.012,18.616 17.561,19.149 L15.143,22.006 C14.153,23.176 12.269,22.843 11.74,21.405 L11.073,19.595 C9.576,19.927 7.972,19.643 6.663,18.751 L4.207,21.207 C3.816,21.597 3.183,21.597 2.793,21.207 C2.402,20.816 2.402,20.183 2.793,19.793 L5.235,17.351 C4.291,16.025 3.986,14.381 4.326,12.848 L2.515,12.181 C1.077,11.651 0.745,9.767 1.914,8.777 L4.772,6.36 C5.304,5.909 6.034,5.768 6.696,5.989 L8.963,6.744 L12.329,3.146 C12.846,2.593 13.531,2.226 14.277,2.102 L19.184,1.284 C21.214,0.946 22.975,2.706 22.636,4.736 L21.818,9.643 C21.694,10.39 21.327,11.074 20.774,11.592 Z M19.355,10.18 C18.621,9.107 17.766,8.073 16.794,7.1 C15.831,6.137 14.807,5.29 13.745,4.56 L9.998,8.566 C9.99,8.574 9.981,8.583 9.973,8.592 L7.176,11.582 C6.053,12.782 5.894,14.545 6.68,15.905 L12.292,10.293 C12.683,9.902 13.316,9.902 13.707,10.293 C14.097,10.683 14.097,11.316 13.707,11.707 L8.117,17.296 C9.463,18.018 11.168,17.839 12.339,16.744 L15.325,13.951 C15.336,13.94 15.347,13.929 15.359,13.919 Z M20.663,4.408 C20.776,3.731 20.189,3.144 19.513,3.257 L16.114,3.823 C16.836,4.393 17.536,5.014 18.208,5.686 C18.89,6.368 19.519,7.079 20.096,7.812 Z M5.1,11.002 C5.279,10.726 5.484,10.463 5.716,10.215 L7.459,8.352 L6.063,7.886 L3.206,10.304 Z M15.569,16.461 L13.705,18.205 C13.457,18.436 13.194,18.642 12.919,18.82 L13.616,20.714 L16.034,17.857 Z"/>
</svg>
