<svg xmlns="http://www.w3.org/2000/svg" width="24" height="24" viewBox="0 0 24 24">
  <defs/>
  <path d="M5.416,1 C5.444,1 5.472,1 5.5,1 L16.5,1 C16.528,1 16.556,1 16.584,1 L16.584,1 C16.965,1 17.293,0.999 17.585,1.058 C18.775,1.294 19.706,2.225 19.942,3.415 C19.949,3.446 19.954,3.478 19.959,3.511 C20.03,3.513 20.097,3.517 20.163,3.521 C20.492,3.544 20.822,3.593 21.148,3.728 C21.883,4.033 22.467,4.617 22.772,5.352 C22.907,5.678 22.956,6.008 22.979,6.338 C23,6.651 23,7.029 23,7.468 L23,7.839 C23,8.366 23,8.821 22.969,9.195 C22.937,9.59 22.866,9.984 22.673,10.362 C22.385,10.927 21.927,11.385 21.362,11.673 C20.984,11.866 20.59,11.937 20.195,11.969 C19.82,12 19.366,12 18.839,12 L15.2,12 C14.623,12 14.251,12.001 13.968,12.024 C13.696,12.046 13.595,12.084 13.546,12.109 C13.358,12.205 13.205,12.358 13.109,12.546 C13.084,12.595 13.046,12.696 13.024,12.968 C13.003,13.219 13.001,13.539 13,14.008 C13.048,14.011 13.094,14.013 13.138,14.017 C13.367,14.036 13.637,14.08 13.908,14.218 C14.284,14.41 14.59,14.716 14.782,15.092 C14.92,15.363 14.965,15.633 14.983,15.862 C15,16.07 15,16.316 15,16.568 L15,20.432 C15,20.684 15,20.93 14.983,21.138 C14.965,21.367 14.92,21.637 14.782,21.908 C14.59,22.284 14.284,22.59 13.908,22.782 C13.637,22.92 13.367,22.965 13.138,22.983 C12.931,23 12.687,23 12.436,23 L11.564,23 C11.313,23 11.069,23 10.862,22.983 C10.633,22.965 10.363,22.92 10.092,22.782 C9.716,22.59 9.41,22.284 9.218,21.908 C9.08,21.637 9.036,21.367 9.017,21.138 C9,20.93 9,20.684 9,20.432 L9,16.568 C9,16.316 9,16.07 9.017,15.862 C9.036,15.633 9.08,15.363 9.218,15.092 C9.41,14.716 9.716,14.41 10.092,14.218 C10.363,14.08 10.633,14.036 10.862,14.017 C10.906,14.013 10.953,14.01 11,14.008 C11,13.546 11.003,13.143 11.031,12.805 C11.063,12.41 11.134,12.017 11.327,11.638 C11.615,11.074 12.074,10.615 12.638,10.327 C13.017,10.134 13.41,10.063 13.805,10.031 C14.18,10 14.634,10 15.161,10 L18.8,10 C19.377,10 19.749,9.999 20.032,9.976 C20.304,9.954 20.405,9.916 20.454,9.891 C20.642,9.795 20.795,9.642 20.891,9.454 C20.916,9.405 20.954,9.304 20.976,9.032 C20.999,8.749 21,8.377 21,7.8 L21,7.5 C21,7.02 21,6.711 20.983,6.474 C20.968,6.246 20.941,6.159 20.924,6.117 C20.823,5.872 20.628,5.678 20.383,5.576 C20.341,5.559 20.254,5.532 20.026,5.517 C20.003,5.515 19.98,5.514 19.956,5.513 C19.952,5.537 19.947,5.561 19.942,5.585 C19.706,6.775 18.775,7.706 17.585,7.942 C17.293,8.001 16.965,8 16.584,8 L16.584,8 C16.556,8 16.528,8 16.5,8 L5.5,8 C5.472,8 5.444,8 5.416,8 L5.416,8 C5.035,8 4.708,8.001 4.415,7.942 C3.225,7.706 2.294,6.775 2.058,5.585 C1.999,5.293 2,4.965 2,4.584 L2,4.584 C2,4.556 2,4.528 2,4.5 C2,4.472 2,4.444 2,4.416 L2,4.416 C2,4.035 1.999,3.708 2.058,3.415 C2.294,2.225 3.225,1.294 4.415,1.058 C4.708,0.999 5.035,1 5.416,1 Z M5.5,3 C4.988,3 4.877,3.005 4.805,3.019 C4.408,3.098 4.098,3.408 4.019,3.805 C4.005,3.877 4,3.987 4,4.5 C4,5.013 4.005,5.123 4.019,5.195 C4.098,5.592 4.408,5.902 4.805,5.981 C4.877,5.995 4.988,6 5.5,6 L16.5,6 C17.013,6 17.123,5.995 17.195,5.981 C17.592,5.902 17.902,5.592 17.981,5.195 C17.995,5.123 18,5.013 18,4.5 C18,3.987 17.995,3.877 17.981,3.805 C17.902,3.408 17.592,3.098 17.195,3.019 C17.123,3.005 17.013,3 16.5,3 Z M11.6,16 C11.304,16 11.141,16.001 11.025,16.01 C11.02,16.011 11.016,16.011 11.012,16.011 C11.011,16.016 11.011,16.02 11.01,16.025 C11.001,16.141 11,16.304 11,16.6 L11,20.4 C11,20.697 11.001,20.859 11.01,20.976 C11.011,20.98 11.011,20.985 11.012,20.989 C11.016,20.989 11.02,20.989 11.025,20.99 C11.141,20.999 11.304,21 11.6,21 L12.4,21 C12.697,21 12.859,20.999 12.976,20.99 C12.98,20.989 12.984,20.989 12.989,20.989 C12.989,20.985 12.989,20.98 12.99,20.976 C12.999,20.859 13,20.697 13,20.4 L13,16.6 C13,16.304 12.999,16.141 12.99,16.025 C12.989,16.02 12.989,16.016 12.989,16.011 C12.984,16.011 12.98,16.011 12.976,16.01 C12.859,16.001 12.697,16 12.4,16 Z"/>
</svg>
