<svg xmlns="http://www.w3.org/2000/svg" width="24" height="24" viewBox="0 0 24 24">
  <defs/>
  <path d="M15.353,6.065 C14.57,6.001 13.477,6 11.934,6 L11.5,6 C10.948,6 10.5,5.552 10.5,5 C10.5,4.448 10.948,4 11.5,4 L11.985,4 C13.466,4 14.642,4 15.517,4.072 C15.962,4.108 16.375,4.166 16.736,4.269 C17.096,4.371 17.467,4.534 17.771,4.821 C18.521,5.531 18.853,6.576 18.651,7.588 C18.569,7.998 18.36,8.346 18.125,8.637 C17.889,8.929 17.586,9.215 17.243,9.502 C16.57,10.066 15.61,10.745 14.401,11.6 L10.295,14.504 C9.036,15.395 8.144,16.026 7.542,16.531 C7.243,16.781 7.05,16.972 6.931,17.12 C6.833,17.242 6.812,17.301 6.81,17.307 C6.744,17.642 6.854,17.988 7.101,18.224 C7.107,18.228 7.158,18.264 7.309,18.307 C7.491,18.359 7.758,18.403 8.147,18.435 C8.93,18.499 10.023,18.5 11.566,18.5 L12.5,18.5 C13.052,18.5 13.5,18.948 13.5,19.5 C13.5,20.052 13.052,20.5 12.5,20.5 L11.515,20.5 C10.034,20.5 8.859,20.5 7.983,20.428 C7.538,20.392 7.125,20.333 6.764,20.231 C6.404,20.129 6.033,19.966 5.729,19.679 C4.979,18.969 4.647,17.924 4.849,16.912 C4.931,16.502 5.14,16.154 5.375,15.863 C5.611,15.571 5.914,15.285 6.257,14.998 C6.93,14.434 7.89,13.755 9.099,12.9 L13.205,9.996 C14.464,9.105 15.356,8.474 15.958,7.969 C16.257,7.719 16.449,7.528 16.569,7.38 C16.667,7.258 16.688,7.199 16.69,7.193 C16.756,6.858 16.646,6.512 16.399,6.276 C16.393,6.272 16.342,6.236 16.191,6.193 C16.009,6.141 15.741,6.097 15.353,6.065 Z M1,5 C1,2.791 2.791,1 5,1 C7.209,1 9,2.791 9,5 C9,7.209 7.209,9 5,9 C2.791,9 1,7.209 1,5 Z M15,19 C15,16.791 16.791,15 19,15 C21.209,15 23,16.791 23,19 C23,21.209 21.209,23 19,23 C16.791,23 15,21.209 15,19 Z M19,17 C17.895,17 17,17.895 17,19 C17,20.105 17.895,21 19,21 C20.105,21 21,20.105 21,19 C21,17.895 20.105,17 19,17 Z M5,3 C3.895,3 3,3.895 3,5 C3,6.105 3.895,7 5,7 C6.105,7 7,6.105 7,5 C7,3.895 6.105,3 5,3 Z"/>
</svg>
