<svg xmlns="http://www.w3.org/2000/svg" width="24" height="24" viewBox="0 0 24 24">
  <defs/>
  <path d="M3,4 C3,3.448 3.448,3 4,3 C8.509,3 12.833,4.791 16.021,7.979 C19.209,11.167 21,15.491 21,20 C21,20.552 20.552,21 20,21 C19.448,21 19,20.552 19,20 C19,16.022 17.42,12.206 14.607,9.393 C11.794,6.58 7.978,5 4,5 C3.448,5 3,4.552 3,4 Z M3,11 C3,10.448 3.448,10 4,10 C6.652,10 9.196,11.054 11.071,12.929 C12.946,14.804 14,17.348 14,20 C14,20.552 13.552,21 13,21 C12.448,21 12,20.552 12,20 C12,17.878 11.157,15.843 9.657,14.343 C8.157,12.843 6.122,12 4,12 C3.448,12 3,11.552 3,11 Z M3,19 C3,17.895 3.895,17 5,17 C6.105,17 7,17.895 7,19 C7,20.105 6.105,21 5,21 C3.895,21 3,20.105 3,19 Z"/>
</svg>
