<svg xmlns="http://www.w3.org/2000/svg" width="24" height="24" viewBox="0 0 24 24">
  <defs/>
  <path d="M19.951,20.927 C20.685,10.844 13.156,3.315 3.073,4.05 C2.522,4.09 2.043,3.676 2.003,3.125 C1.963,2.574 2.377,2.095 2.928,2.055 C14.228,1.232 22.768,9.772 21.945,21.073 C21.905,21.623 21.426,22.037 20.875,21.997 C20.324,21.957 19.91,21.478 19.951,20.927 Z M12.043,11.957 C9.926,9.84 6.794,8.67 3.098,9.033 C2.548,9.087 2.059,8.685 2.005,8.136 C1.951,7.586 2.353,7.097 2.902,7.043 C7.144,6.626 10.882,7.968 13.457,10.543 C16.032,13.118 17.374,16.856 16.957,21.097 C16.903,21.647 16.414,22.049 15.864,21.995 C15.315,21.941 14.913,21.452 14.967,20.902 C15.33,17.206 14.16,14.073 12.043,11.957 Z M8.518,15.481 C7.334,14.298 5.481,13.661 3.149,14.011 C2.603,14.094 2.093,13.717 2.011,13.171 C1.929,12.625 2.305,12.116 2.852,12.034 C5.705,11.605 8.229,12.364 9.932,14.067 C11.635,15.771 12.395,18.295 11.966,21.148 C11.884,21.694 11.375,22.071 10.829,21.989 C10.283,21.907 9.906,21.397 9.988,20.851 C10.339,18.519 9.702,16.665 8.518,15.481 Z M2,19 C2,17.343 3.343,16 5,16 C6.657,16 8,17.343 8,19 C8,20.657 6.657,22 5,22 C3.343,22 2,20.657 2,19 Z M5,18 C4.448,18 4,18.448 4,19 C4,19.552 4.448,20 5,20 C5.552,20 6,19.552 6,19 C6,18.448 5.552,18 5,18 Z"/>
</svg>
