<svg xmlns="http://www.w3.org/2000/svg" width="24" height="24" viewBox="0 0 24 24">
  <defs/>
  <path d="M16.536,1.28 C16.838,1.183 17.162,1.183 17.463,1.28 C17.696,1.356 17.865,1.482 17.976,1.576 C18.072,1.657 18.172,1.758 18.256,1.842 C18.262,1.848 18.267,1.853 18.273,1.859 L22.158,5.744 C22.242,5.828 22.343,5.928 22.424,6.024 C22.518,6.135 22.644,6.304 22.719,6.536 C22.817,6.838 22.817,7.162 22.719,7.463 C22.644,7.696 22.518,7.865 22.424,7.976 C22.343,8.072 22.242,8.172 22.158,8.256 L8.256,22.158 C8.172,22.242 8.072,22.343 7.976,22.424 C7.865,22.518 7.696,22.644 7.463,22.719 C7.162,22.817 6.838,22.817 6.536,22.719 C6.304,22.644 6.135,22.518 6.024,22.424 C5.928,22.343 5.828,22.242 5.744,22.158 L1.842,18.256 C1.758,18.172 1.657,18.072 1.576,17.976 C1.482,17.865 1.356,17.696 1.28,17.463 C1.183,17.162 1.183,16.838 1.28,16.536 C1.356,16.304 1.482,16.135 1.576,16.024 C1.657,15.928 1.758,15.828 1.842,15.743 C1.848,15.738 1.853,15.733 1.859,15.727 L15.727,1.859 C15.733,1.853 15.738,1.848 15.743,1.842 C15.828,1.758 15.928,1.657 16.024,1.576 C16.135,1.482 16.304,1.356 16.536,1.28 Z M17,3.414 L15.414,5 L16.707,6.293 C17.098,6.683 17.098,7.316 16.707,7.707 C16.316,8.098 15.683,8.098 15.293,7.707 L14,6.414 L12.414,8 L13.707,9.293 C14.098,9.683 14.098,10.316 13.707,10.707 C13.316,11.097 12.683,11.097 12.293,10.707 L11,9.414 L9.414,11 L10.707,12.293 C11.098,12.683 11.098,13.316 10.707,13.707 C10.316,14.097 9.683,14.097 9.293,13.707 L8,12.414 L6.414,14 L7.707,15.293 C8.098,15.683 8.098,16.316 7.707,16.707 C7.317,17.097 6.683,17.097 6.293,16.707 L5,15.414 L3.414,17 L7,20.586 L20.586,7 Z"/>
</svg>
