<svg xmlns="http://www.w3.org/2000/svg" width="24" height="24" viewBox="0 0 24 24">
  <defs/>
  <path d="M7.54,1.231 C8.283,0.923 9.118,0.923 9.861,1.231 L11.604,1.953 C11.857,2.057 12.141,2.057 12.394,1.952 L12.396,1.951 L14.14,1.232 C14.883,0.925 15.718,0.924 16.461,1.232 C17.204,1.54 17.794,2.13 18.102,2.873 L18.807,4.576 C18.814,4.589 18.82,4.603 18.825,4.616 C18.93,4.869 19.13,5.07 19.383,5.175 L21.128,5.898 C21.871,6.206 22.461,6.796 22.769,7.539 C23.077,8.282 23.077,9.117 22.769,9.86 L22.047,11.604 C21.942,11.858 21.942,12.142 22.047,12.394 L22.048,12.396 L22.768,14.139 C22.921,14.507 23,14.901 23,15.3 C23,15.698 22.921,16.093 22.769,16.461 C22.616,16.829 22.393,17.163 22.111,17.445 C21.829,17.727 21.495,17.95 21.127,18.102 L19.383,18.825 C19.13,18.929 18.929,19.13 18.824,19.382 L18.101,21.128 C17.793,21.871 17.203,22.461 16.46,22.769 C15.717,23.077 14.882,23.077 14.139,22.769 L12.395,22.047 C12.142,21.942 11.858,21.943 11.605,22.048 L11.604,22.048 L9.859,22.77 C9.116,23.077 8.282,23.077 7.54,22.769 C6.797,22.462 6.207,21.872 5.899,21.13 L5.176,19.383 C5.071,19.13 4.87,18.929 4.617,18.824 L2.873,18.101 C2.13,17.793 1.54,17.203 1.232,16.461 C0.924,15.718 0.924,14.884 1.231,14.141 L1.953,12.397 C2.058,12.144 2.058,11.859 1.953,11.606 L1.231,9.86 C1.079,9.492 1,9.097 1,8.699 C1,8.3 1.078,7.906 1.231,7.538 C1.383,7.17 1.607,6.835 1.889,6.554 C2.17,6.272 2.505,6.049 2.873,5.896 L4.617,5.174 C4.869,5.069 5.071,4.869 5.176,4.617 L5.898,2.872 C6.206,2.129 6.796,1.539 7.54,1.231 Z M9.095,3.079 C8.842,2.974 8.558,2.974 8.305,3.079 C8.052,3.183 7.851,3.384 7.746,3.637 L7.023,5.384 C6.714,6.126 6.124,6.715 5.381,7.022 L3.638,7.744 C3.513,7.796 3.399,7.872 3.303,7.968 C3.207,8.064 3.131,8.178 3.079,8.303 C3.027,8.428 3,8.563 3,8.698 C3,8.834 3.027,8.968 3.079,9.094 L3.079,9.095 L3.8,10.84 L3.8,10.841 C4.108,11.583 4.109,12.418 3.802,13.16 L3.079,14.905 C2.975,15.158 2.975,15.442 3.08,15.695 C3.184,15.948 3.385,16.149 3.638,16.253 L5.384,16.976 C6.126,17.284 6.716,17.875 7.024,18.618 L7.746,20.363 C7.851,20.616 8.052,20.817 8.305,20.921 C8.558,21.026 8.842,21.026 9.095,20.922 L10.839,20.2 L10.319,15.095 L8.707,16.707 C8.317,17.098 7.683,17.098 7.293,16.707 C6.902,16.317 6.902,15.683 7.293,15.293 L10.058,12.528 L9.826,10.252 C9.589,10.409 9.305,10.5 9,10.5 C8.172,10.5 7.5,9.828 7.5,9 C7.5,8.172 8.172,7.5 9,7.5 C9.197,7.5 9.384,7.538 9.556,7.607 Z M17,5.434 L18.618,16.977 L20.362,16.254 C20.487,16.203 20.601,16.126 20.697,16.031 C20.793,15.935 20.869,15.821 20.921,15.696 C20.973,15.57 21,15.436 21,15.3 C21,15.164 20.973,15.029 20.921,14.904 L20.2,13.163 L20.2,13.161 C19.89,12.417 19.892,11.582 20.199,10.839 L20.921,9.095 C21.026,8.842 21.026,8.558 20.921,8.305 C20.817,8.052 20.616,7.851 20.362,7.746 L18.617,7.023 C17.892,6.722 17.313,6.152 17,5.434 Z M16.707,7.293 C16.317,6.902 15.683,6.902 15.293,7.293 L10.058,12.528 L10.319,15.095 L16.707,8.707 C17.098,8.317 17.098,7.683 16.707,7.293 Z M13.5,15 C13.5,15.828 14.172,16.5 15,16.5 C15.828,16.5 16.5,15.828 16.5,15 C16.5,14.172 15.828,13.5 15,13.5 C14.172,13.5 13.5,14.172 13.5,15 Z M17,5.434 C16.992,5.418 16.985,5.401 16.978,5.384 L16.254,3.639 C16.15,3.386 15.949,3.185 15.696,3.08 C15.443,2.975 15.158,2.975 14.906,3.08 L13.16,3.8 L13.159,3.8 C12.868,3.921 12.563,3.994 12.255,4.02 Z M9.556,7.607 L9.826,10.252 C10.232,9.984 10.5,9.523 10.5,9 C10.5,8.368 10.109,7.828 9.556,7.607 Z M10.84,3.801 C11.292,3.988 11.777,4.061 12.255,4.02 L9.095,3.079 L10.84,3.801 Z"/>
</svg>
