<svg xmlns="http://www.w3.org/2000/svg" width="24" height="24" viewBox="0 0 24 24">
  <defs/>
  <path d="M13.283,1.436 L14.531,2.394 C14.552,2.41 14.579,2.417 14.604,2.414 L14.61,2.413 L16.172,2.207 C17.116,2.083 18.03,2.609 18.395,3.492 L18.996,4.945 C19.006,4.971 19.026,4.991 19.052,5.002 L19.053,5.003 L20.507,5.604 C21.388,5.969 21.915,6.88 21.79,7.826 L21.584,9.39 C21.581,9.417 21.588,9.445 21.606,9.468 L22.563,10.715 L22.564,10.716 C23.146,11.473 23.145,12.526 22.564,13.282 L21.64,14.487 C21.601,14.536 21.584,14.601 21.592,14.665 L21.79,16.171 C21.914,17.115 21.389,18.029 20.507,18.394 L18.88,19.333 L18.394,20.506 L18.394,20.507 C18.029,21.387 17.118,21.915 16.172,21.79 L14.91,21.624 L13.282,22.563 L13.283,22.563 L14.53,21.605 C14.553,21.587 14.581,21.58 14.608,21.584 L14.61,21.584 L14.91,21.624 L18.88,19.333 L18.996,19.052 C19.006,19.026 19.026,19.006 19.052,18.995 L19.053,18.995 L20.507,18.394 L19.723,16.554 L18.29,17.146 L18.29,13.19 L16.478,8.936 L8.707,16.707 C8.598,16.816 8.47,16.894 8.334,16.942 L7.567,19.808 L9.071,19.609 C9.661,19.531 10.259,19.691 10.731,20.054 L7.567,19.808 C7.518,19.814 7.472,19.786 7.454,19.743 L6.853,18.29 C6.798,18.156 6.73,18.03 6.65,17.912 L5.605,20.506 L5.004,19.053 C4.994,19.027 4.974,19.007 4.948,18.996 L3.492,18.394 C2.612,18.029 2.085,17.119 2.21,16.173 L2.416,14.608 C2.419,14.582 2.412,14.554 2.395,14.531 L1.437,13.283 L1.436,13.282 C0.854,12.526 0.855,11.472 1.436,10.716 L2.394,9.469 L2.415,9.388 L2.21,7.827 C2.085,6.881 2.612,5.97 3.492,5.605 L4.944,5.006 C4.972,4.994 4.994,4.972 5.006,4.944 L5.605,3.492 C5.97,2.612 6.881,2.085 7.827,2.21 L9.387,2.415 C9.416,2.419 9.447,2.411 9.471,2.393 L10.716,1.437 C11.473,0.854 12.527,0.855 13.283,1.436 Z M12.065,3.022 C12.026,2.992 11.973,2.993 11.936,3.021 L10.686,3.981 L10.683,3.983 C10.241,4.32 9.683,4.47 9.13,4.398 L7.566,4.193 C7.519,4.186 7.472,4.212 7.453,4.258 L6.851,5.715 C6.637,6.228 6.228,6.637 5.715,6.851 L5.711,6.853 L4.259,7.452 C4.213,7.472 4.187,7.519 4.193,7.566 L4.399,9.13 C4.47,9.682 4.321,10.242 3.982,10.684 L3.022,11.934 C2.992,11.973 2.993,12.026 3.021,12.063 L3.022,12.064 L3.981,13.313 C4.321,13.756 4.472,14.317 4.398,14.872 L4.398,14.873 L4.193,16.433 C4.187,16.48 4.213,16.528 4.259,16.547 L5.71,17.147 L5.711,17.148 C6.095,17.306 6.42,17.573 6.65,17.912 L7.186,16.581 C7.218,16.625 7.253,16.667 7.293,16.707 C7.575,16.989 7.982,17.067 8.334,16.942 L9.32,13.266 L7.982,14.604 L9.705,10.324 C9.917,10.211 10.098,10.049 10.234,9.852 L10.495,8.879 C10.486,8.759 10.462,8.643 10.426,8.533 L10.91,7.329 Z M10.91,7.329 L10.495,8.879 C10.498,8.919 10.5,8.959 10.5,9 C10.5,9.316 10.402,9.61 10.234,9.852 L9.32,13.266 L15.293,7.293 C15.405,7.181 15.536,7.101 15.676,7.053 L14.552,4.414 C14.105,4.406 13.671,4.255 13.315,3.982 L13.314,3.981 L14.407,4.073 L13.283,1.436 L10.91,7.329 Z M18.29,6.851 L18.29,13.19 L19.723,16.554 L19.743,16.545 C19.786,16.527 19.814,16.481 19.807,16.432 L19.61,14.927 C19.531,14.337 19.692,13.738 20.055,13.266 L20.055,13.266 L20.055,13.266 L20.978,12.064 C21.008,12.025 21.007,11.972 20.979,11.936 L20.018,10.685 C19.679,10.242 19.528,9.681 19.602,9.126 L19.602,9.125 L19.807,7.565 C19.813,7.518 19.787,7.471 19.741,7.451 Z M13.5,15 C13.5,14.171 14.172,13.5 15,13.5 C15.828,13.5 16.5,14.171 16.5,15 C16.5,15.828 15.828,16.5 15,16.5 C14.172,16.5 13.5,15.828 13.5,15 Z M7.5,9 C7.5,8.171 8.172,7.5 9,7.5 C9.665,7.5 10.23,7.933 10.426,8.533 L9.705,10.324 C9.495,10.436 9.255,10.5 9,10.5 C8.172,10.5 7.5,9.828 7.5,9 Z M10.732,20.055 L17.147,18.29 L16.546,19.741 C16.527,19.787 16.48,19.813 16.433,19.807 L14.873,19.602 L14.872,19.601 C14.316,19.528 13.756,19.679 13.312,20.019 L12.062,20.978 C12.026,21.007 11.973,21.007 11.934,20.977 Z M16.707,7.293 C16.428,7.014 16.026,6.934 15.676,7.053 L16.478,8.936 L16.707,8.707 C17.098,8.316 17.098,7.683 16.707,7.293 Z M7.186,16.581 C6.906,16.19 6.942,15.643 7.293,15.293 L7.982,14.604 L7.186,16.581 Z M16.546,4.255 C16.528,4.211 16.482,4.184 16.433,4.19 L16.18,4.224 L14.407,4.073 L14.552,4.414 C14.658,4.416 14.766,4.41 14.873,4.396 L16.18,4.224 Z M17.147,5.708 L17.147,5.709 C17.361,6.226 17.771,6.637 18.289,6.851 Z"/>
</svg>
