<svg xmlns="http://www.w3.org/2000/svg" width="24" height="24" viewBox="0 0 24 24">
  <defs/>
  <path d="M17.707,3.293 L20.77,6.356 C20.79,6.376 20.809,6.395 20.829,6.415 C21.117,6.702 21.371,6.956 21.558,7.261 C21.722,7.529 21.844,7.822 21.917,8.128 C22.001,8.476 22,8.834 22,9.24 L22,9.242 C22,9.27 22,9.298 22,9.326 L22,16.241 C22,17.046 22,17.711 21.956,18.252 C21.91,18.814 21.811,19.331 21.564,19.816 C21.181,20.569 20.569,21.181 19.816,21.564 C19.331,21.811 18.814,21.91 18.252,21.956 C17.908,21.984 17.514,21.994 17.066,21.998 Q17.033,22 17,22 C16.983,22 16.966,22 16.949,21.999 C16.726,22 16.49,22 16.241,22 L7.759,22 C7.51,22 7.274,22 7.051,21.999 C7.034,22 7.017,22 7,22 C6.978,22 6.956,21.999 6.934,21.998 C6.486,21.994 6.092,21.984 5.748,21.956 C5.186,21.91 4.669,21.811 4.184,21.564 C3.431,21.181 2.819,20.569 2.436,19.816 C2.189,19.331 2.09,18.814 2.044,18.252 C2,17.711 2,17.046 2,16.241 L2,7.759 C2,6.954 2,6.289 2.044,5.748 C2.09,5.186 2.189,4.669 2.436,4.184 C2.819,3.431 3.431,2.82 4.184,2.436 C4.669,2.189 5.186,2.09 5.748,2.044 C6.092,2.016 6.486,2.006 6.934,2.002 C6.956,2.001 6.978,2 7,2 C7.017,2 7.034,2.001 7.051,2.001 C7.272,2 7.506,2 7.753,2 L14.675,2 C14.703,2 14.73,2 14.758,2 C15.165,2 15.524,1.999 15.872,2.083 C16.178,2.156 16.471,2.278 16.739,2.442 C17.045,2.629 17.298,2.883 17.586,3.171 C17.605,3.191 17.625,3.21 17.644,3.23 Z M18,6.414 L18,6.436 C18,6.687 18,6.931 17.983,7.138 C17.964,7.367 17.92,7.637 17.782,7.908 C17.59,8.284 17.284,8.59 16.908,8.782 C16.637,8.92 16.367,8.964 16.138,8.983 C15.93,9 15.684,9 15.432,9 L8.568,9 C8.316,9 8.07,9 7.862,8.983 C7.633,8.964 7.363,8.92 7.092,8.782 C6.716,8.59 6.41,8.284 6.218,7.908 C6.08,7.637 6.036,7.367 6.017,7.138 C6,6.93 6,6.684 6,6.432 L6,4.031 C5.97,4.033 5.94,4.035 5.911,4.038 C5.473,4.073 5.248,4.138 5.092,4.218 C4.716,4.41 4.41,4.716 4.218,5.092 C4.138,5.249 4.073,5.473 4.038,5.911 C4.001,6.361 4,6.944 4,7.8 L4,16.2 C4,17.057 4.001,17.639 4.038,18.089 C4.073,18.528 4.138,18.752 4.218,18.908 C4.41,19.284 4.716,19.59 5.092,19.782 C5.248,19.862 5.473,19.927 5.911,19.962 C5.94,19.965 5.97,19.967 6,19.969 L6,14.568 C6,14.316 6,14.07 6.017,13.862 C6.036,13.633 6.08,13.363 6.218,13.092 C6.41,12.716 6.716,12.41 7.092,12.218 C7.363,12.08 7.633,12.036 7.862,12.017 C8.069,12 8.313,12 8.564,12 L15.436,12 C15.687,12 15.931,12 16.138,12.017 C16.367,12.036 16.637,12.08 16.908,12.218 C17.284,12.41 17.59,12.716 17.782,13.092 C17.92,13.363 17.964,13.633 17.983,13.862 C18,14.069 18,14.313 18,14.564 L18,19.969 C18.03,19.967 18.06,19.965 18.089,19.962 C18.527,19.927 18.752,19.862 18.908,19.782 C19.284,19.59 19.59,19.284 19.782,18.908 C19.862,18.752 19.927,18.528 19.962,18.089 C19.999,17.639 20,17.057 20,16.2 L20,9.326 C20,8.789 19.994,8.683 19.972,8.595 C19.948,8.493 19.907,8.396 19.853,8.306 C19.805,8.229 19.735,8.15 19.356,7.77 Z M16,20 L16,14.6 C16,14.304 15.999,14.141 15.99,14.025 C15.989,14.02 15.989,14.016 15.989,14.012 C15.984,14.011 15.98,14.011 15.975,14.01 C15.859,14.001 15.696,14 15.4,14 L8.6,14 C8.303,14 8.141,14.001 8.025,14.01 C8.02,14.011 8.016,14.011 8.011,14.012 C8.011,14.016 8.011,14.02 8.01,14.025 C8.001,14.141 8,14.304 8,14.6 L8,20 Z M15.405,4.028 C15.317,4.007 15.211,4 14.675,4 L8,4 L8,6.4 C8,6.697 8.001,6.859 8.01,6.975 C8.011,6.98 8.011,6.984 8.011,6.989 C8.016,6.989 8.02,6.989 8.025,6.99 C8.141,6.999 8.303,7 8.6,7 L15.4,7 C15.696,7 15.859,6.999 15.975,6.99 C15.98,6.989 15.984,6.989 15.989,6.989 C15.989,6.984 15.989,6.98 15.99,6.975 C15.999,6.859 16,6.697 16,6.4 L16,4.416 C15.812,4.232 15.752,4.183 15.694,4.147 C15.605,4.093 15.507,4.052 15.405,4.028 Z"/>
</svg>
