<svg xmlns="http://www.w3.org/2000/svg" width="24" height="24" viewBox="0 0 24 24">
  <defs/>
  <path d="M14.339,22 L6.161,22 C5.634,22 5.18,22 4.805,21.969 C4.41,21.937 4.016,21.866 3.638,21.673 C3.074,21.385 2.615,20.927 2.327,20.362 C2.134,19.984 2.063,19.59 2.031,19.195 C2,18.821 2,18.366 2,17.839 L2,9.662 C2,9.134 2,8.68 2.031,8.305 C2.063,7.91 2.134,7.517 2.327,7.138 C2.615,6.574 3.074,6.115 3.638,5.827 C4.016,5.634 4.41,5.563 4.805,5.531 C5.18,5.5 5.634,5.5 6.161,5.5 L13.837,5.5 C13.854,5.5 13.871,5.5 13.888,5.5 C14.078,5.499 14.317,5.499 14.553,5.555 C14.757,5.604 14.952,5.685 15.131,5.795 C15.337,5.921 15.506,6.091 15.64,6.225 C15.652,6.238 15.664,6.25 15.676,6.262 L17.739,8.324 C17.75,8.336 17.762,8.348 17.775,8.36 C17.909,8.494 18.079,8.663 18.205,8.869 C18.315,9.048 18.396,9.243 18.445,9.447 C18.501,9.683 18.501,9.922 18.5,10.112 C18.5,10.129 18.5,10.146 18.5,10.163 L18.5,17.839 C18.5,18.366 18.5,18.821 18.469,19.195 C18.437,19.59 18.366,19.984 18.173,20.362 C17.885,20.927 17.427,21.385 16.862,21.673 C16.484,21.866 16.09,21.937 15.695,21.969 C15.321,22 14.866,22 14.339,22 Z M14.081,7.503 C14.034,7.5 13.968,7.5 13.837,7.5 L8,7.5 L8,8.4 C8,8.697 8.001,8.859 8.01,8.975 C8.011,8.98 8.011,8.984 8.011,8.989 C8.016,8.989 8.02,8.989 8.025,8.99 C8.141,8.999 8.303,9 8.6,9 L12.5,9 C13.052,9 13.5,9.448 13.5,10 C13.5,10.552 13.052,11 12.5,11 L8.564,11 C8.313,11 8.069,11 7.862,10.983 C7.633,10.965 7.363,10.92 7.092,10.782 C6.716,10.59 6.41,10.284 6.218,9.908 C6.08,9.637 6.036,9.367 6.017,9.138 C6,8.93 6,8.684 6,8.432 L6,7.5 C5.535,7.501 5.217,7.504 4.968,7.524 C4.696,7.546 4.595,7.584 4.546,7.609 C4.358,7.705 4.205,7.858 4.109,8.046 C4.084,8.096 4.046,8.196 4.024,8.468 C4.001,8.751 4,9.124 4,9.7 L4,17.8 C4,18.377 4.001,18.749 4.024,19.032 C4.046,19.304 4.084,19.405 4.109,19.454 C4.205,19.642 4.358,19.795 4.546,19.891 C4.595,19.916 4.696,19.954 4.968,19.976 C5.217,19.997 5.535,20 6,20 L6,16.568 C6,16.316 6,16.07 6.017,15.862 C6.036,15.633 6.08,15.363 6.218,15.092 C6.41,14.716 6.716,14.41 7.092,14.218 C7.363,14.08 7.633,14.036 7.862,14.017 C8.069,14 8.313,14 8.564,14 L11.936,14 C12.187,14 12.431,14 12.638,14.017 C12.867,14.036 13.137,14.08 13.408,14.218 C13.784,14.41 14.09,14.716 14.282,15.092 C14.42,15.363 14.464,15.633 14.483,15.862 C14.5,16.069 14.5,16.313 14.5,16.564 L14.5,20 C14.965,20 15.283,19.997 15.532,19.976 C15.804,19.954 15.905,19.916 15.954,19.891 C16.142,19.795 16.295,19.642 16.391,19.454 C16.416,19.405 16.454,19.304 16.476,19.032 C16.499,18.749 16.5,18.377 16.5,17.8 L16.5,10.163 C16.5,10.032 16.5,9.966 16.498,9.919 L16.497,9.915 C16.497,9.915 16.496,9.914 16.495,9.913 C16.463,9.878 16.417,9.831 16.324,9.739 L14.262,7.676 C14.169,7.583 14.123,7.537 14.087,7.505 C14.087,7.504 14.086,7.503 14.085,7.503 Z M15.405,4.028 C15.317,4.007 15.211,4 14.675,4 L7,4 C6.448,4 6,3.552 6,3 C6,2.448 6.448,2 7,2 L14.675,2 C14.703,2 14.73,2 14.758,2 C15.165,2 15.524,1.999 15.872,2.083 C16.178,2.156 16.471,2.278 16.739,2.442 C17.045,2.629 17.298,2.883 17.586,3.171 C17.605,3.191 17.625,3.21 17.644,3.23 L20.77,6.356 C20.79,6.376 20.809,6.395 20.829,6.415 C21.117,6.702 21.371,6.955 21.558,7.261 C21.722,7.529 21.844,7.822 21.917,8.128 C22.001,8.476 22,8.834 22,9.24 L22,9.242 C22,9.27 22,9.298 22,9.326 L22,17 C22,17.552 21.552,18 21,18 C20.448,18 20,17.552 20,17 L20,9.326 C20,8.789 19.994,8.683 19.972,8.595 C19.948,8.493 19.907,8.396 19.853,8.306 C19.805,8.229 19.735,8.15 19.356,7.77 L16.23,4.644 C15.851,4.265 15.771,4.195 15.694,4.147 C15.605,4.093 15.507,4.052 15.405,4.028 Z M12.5,20 L12.5,16.6 C12.5,16.304 12.499,16.141 12.49,16.025 C12.489,16.02 12.489,16.016 12.489,16.012 C12.484,16.011 12.48,16.011 12.475,16.01 C12.359,16.001 12.196,16 11.9,16 L8.6,16 C8.303,16 8.141,16.001 8.025,16.01 C8.02,16.011 8.016,16.011 8.011,16.012 C8.011,16.016 8.011,16.02 8.01,16.025 C8.001,16.141 8,16.304 8,16.6 L8,20 Z"/>
</svg>
