<svg xmlns="http://www.w3.org/2000/svg" width="24" height="24" viewBox="0 0 24 24">
  <defs/>
  <path d="M16.241,2 L16.241,2 C17.046,2 17.711,2 18.252,2.044 C18.814,2.09 19.331,2.189 19.816,2.436 C20.569,2.819 21.181,3.431 21.564,4.184 C21.811,4.669 21.91,5.186 21.956,5.748 C22,6.289 22,6.954 22,7.759 L22,16.241 C22,17.046 22,17.711 21.956,18.252 C21.91,18.814 21.811,19.331 21.564,19.816 C21.181,20.569 20.569,21.181 19.816,21.564 C19.331,21.811 18.814,21.91 18.252,21.956 C17.711,22 17.046,22 16.241,22 L7.759,22 C6.954,22 6.289,22 5.748,21.956 C5.186,21.91 4.669,21.811 4.184,21.564 C3.431,21.181 2.819,20.569 2.436,19.816 C2.189,19.331 2.09,18.814 2.044,18.252 C2,17.711 2,17.046 2,16.241 L2,7.759 C2,6.954 2,6.289 2.044,5.748 C2.09,5.186 2.189,4.669 2.436,4.184 C2.819,3.431 3.431,2.819 4.184,2.436 C4.669,2.189 5.186,2.09 5.748,2.044 C6.289,2 6.954,2 7.759,2 L16.241,2 Z M11.178,4 L7.8,4 C6.943,4 6.361,4.001 5.911,4.038 C5.473,4.073 5.248,4.138 5.092,4.218 C4.716,4.41 4.41,4.716 4.218,5.092 C4.138,5.248 4.073,5.473 4.038,5.911 C4.001,6.361 4,6.943 4,7.8 L4,16.2 C4,17.057 4.001,17.639 4.038,18.089 C4.073,18.527 4.138,18.752 4.218,18.908 C4.41,19.284 4.716,19.59 5.092,19.782 C5.248,19.862 5.473,19.927 5.911,19.962 C6.361,19.999 6.943,20 7.8,20 L16.2,20 C17.057,20 17.639,19.999 18.089,19.962 C18.527,19.927 18.752,19.862 18.908,19.782 C19.284,19.59 19.59,19.284 19.782,18.908 C19.862,18.752 19.927,18.527 19.962,18.089 C19.999,17.639 20,17.057 20,16.2 L20,12.822 C19.735,12.907 19.466,12.947 19.195,12.969 C18.82,13 18.366,13 17.838,13 L15.161,13 C14.634,13 14.18,13 13.805,12.969 C13.434,12.939 13.064,12.874 12.707,12.707 L9.414,16 L12,16 C12.552,16 13,16.448 13,17 C13,17.552 12.552,18 12,18 L7,18 C6.735,18 6.48,17.895 6.293,17.707 C6.105,17.52 6,17.265 6,17 L6,12 C6,11.448 6.448,11 7,11 C7.552,11 8,11.448 8,12 L8,14.586 L11.293,11.293 C11.126,10.936 11.061,10.566 11.031,10.195 C11,9.82 11,9.366 11,8.839 L11,6.161 C11,5.634 11,5.18 11.031,4.805 C11.053,4.534 11.093,4.265 11.178,4 Z M20,8.8 L20,7.8 C20,6.943 19.999,6.361 19.962,5.911 C19.927,5.473 19.862,5.248 19.782,5.092 C19.59,4.716 19.284,4.41 18.908,4.218 C18.752,4.138 18.527,4.073 18.089,4.038 C17.639,4.001 17.057,4 16.2,4 L15.2,4 C14.623,4 14.251,4.001 13.968,4.024 C13.696,4.046 13.595,4.084 13.546,4.109 C13.358,4.205 13.205,4.358 13.109,4.546 C13.084,4.595 13.046,4.696 13.024,4.968 C13.001,5.251 13,5.623 13,6.2 L13,8.8 C13,9.377 13.001,9.749 13.024,10.032 C13.046,10.304 13.084,10.405 13.109,10.454 C13.205,10.642 13.358,10.795 13.546,10.891 C13.595,10.916 13.696,10.954 13.968,10.976 C14.251,10.999 14.623,11 15.2,11 L17.8,11 C18.377,11 18.749,10.999 19.032,10.976 C19.304,10.954 19.404,10.916 19.454,10.891 C19.642,10.795 19.795,10.642 19.891,10.454 C19.916,10.405 19.954,10.304 19.976,10.032 C19.999,9.749 20,9.377 20,8.8 Z"/>
</svg>
