<svg xmlns="http://www.w3.org/2000/svg" width="24" height="24" viewBox="0 0 24 24">
  <defs/>
  <path d="M12,2 C12.552,2 13,2.448 13,3 L13,6.82 L17.836,6.014 C18.249,5.945 18.66,6.14 18.868,6.504 L22.447,12.766 C22.455,12.782 22.464,12.797 22.473,12.812 C22.604,13.042 22.72,13.244 22.804,13.465 C22.878,13.659 22.931,13.861 22.964,14.066 C23,14.299 23,14.532 23,14.796 L23,15 C23,17.761 20.761,20 18,20 C15.239,20 13,17.761 13,15 L13,14.796 C13,14.532 13,14.299 13.036,14.066 C13.068,13.861 13.122,13.659 13.196,13.465 C13.28,13.244 13.396,13.042 13.527,12.812 C13.536,12.797 13.545,12.782 13.553,12.766 L16.087,8.333 L12.183,8.983 C12.171,8.985 12.16,8.987 12.148,8.989 L7.581,9.75 L10.447,14.766 C10.455,14.782 10.464,14.797 10.473,14.812 C10.604,15.042 10.72,15.244 10.804,15.465 C10.878,15.659 10.931,15.861 10.964,16.066 C11,16.299 11,16.532 11,16.796 L11,17 C11,19.761 8.761,22 6,22 C3.239,22 1,19.761 1,17 L1,16.85 L1,16.796 C1,16.532 1,16.299 1.036,16.066 C1.069,15.861 1.122,15.659 1.196,15.465 C1.28,15.244 1.396,15.042 1.527,14.812 C1.536,14.797 1.544,14.782 1.553,14.766 L5.132,8.504 C5.281,8.243 5.539,8.063 5.836,8.014 L11,7.153 L11,3 C11,2.448 11.448,2 12,2 Z M9,17 L3,17 C3,18.657 4.343,20 6,20 C7.657,20 9,18.657 9,17 Z M21,15 L15,15 C15,16.657 16.343,18 18,18 C19.657,18 21,16.657 21,15 Z M18,9.016 L15.723,13 L20.277,13 Z M3.723,15 L8.277,15 L6,11.016 Z"/>
</svg>
