<svg xmlns="http://www.w3.org/2000/svg" width="24" height="24" viewBox="0 0 24 24">
  <defs/>
  <path d="M2,9 C2.552,9 3,9.448 3,10 L3,11.536 C3.06,11.501 3.122,11.468 3.184,11.436 C3.669,11.189 4.186,11.09 4.748,11.044 C5.289,11 5.954,11 6.759,11 L7.241,11 C8.046,11 8.711,11 9.252,11.044 C9.814,11.09 10.331,11.189 10.816,11.436 C11.569,11.82 12.181,12.432 12.564,13.184 C12.811,13.67 12.91,14.186 12.956,14.748 C13,15.29 13,15.954 13,16.759 L13,17.241 C13,18.046 13,18.711 12.956,19.252 C12.91,19.814 12.811,20.331 12.564,20.816 C12.532,20.878 12.499,20.94 12.464,21 L14,21 C14.552,21 15,21.448 15,22 C15,22.552 14.552,23 14,23 L6.759,23 C5.954,23 5.289,23 4.748,22.956 C4.186,22.91 3.669,22.811 3.184,22.564 C2.431,22.181 1.82,21.569 1.436,20.816 C1.189,20.331 1.09,19.814 1.044,19.252 C1,18.711 1,18.046 1,17.241 L1,10 C1,9.448 1.448,9 2,9 Z M6.8,21 L7.2,21 C8.057,21 8.639,20.999 9.089,20.962 C9.527,20.927 9.752,20.862 9.908,20.782 C10.284,20.59 10.59,20.284 10.782,19.908 C10.862,19.752 10.927,19.528 10.962,19.089 C10.999,18.639 11,18.057 11,17.2 L11,16.8 C11,15.943 10.999,15.361 10.962,14.911 C10.927,14.473 10.862,14.248 10.782,14.092 C10.59,13.716 10.284,13.41 9.908,13.218 C9.752,13.138 9.527,13.073 9.089,13.038 C8.639,13.001 8.057,13 7.2,13 L6.8,13 C5.944,13 5.361,13.001 4.911,13.038 C4.473,13.073 4.249,13.138 4.092,13.218 C3.716,13.41 3.41,13.716 3.218,14.092 C3.138,14.248 3.073,14.473 3.038,14.911 C3.001,15.361 3,15.943 3,16.8 L3,17.2 C3,18.057 3.001,18.639 3.038,19.089 C3.073,19.528 3.138,19.752 3.218,19.908 C3.41,20.284 3.716,20.59 4.092,20.782 C4.249,20.862 4.473,20.927 4.911,20.962 C5.361,20.999 5.944,21 6.8,21 Z M19.518,3.068 C19.295,3.009 18.994,3 18,3 C17.448,3 17,2.552 17,2 C17,1.448 17.448,1 18,1 C18.047,1 18.093,1 18.138,1 C18.933,1 19.524,0.999 20.035,1.136 C21.416,1.506 22.494,2.584 22.864,3.965 C23.001,4.476 23.001,5.067 23,5.863 L23,6 C23,6.552 22.552,7 22,7 C21.448,7 21,6.552 21,6 C21,5.006 20.992,4.705 20.932,4.482 C20.747,3.792 20.208,3.253 19.518,3.068 Z M22,17 C22.552,17 23,17.448 23,18 L23,18.138 C23.001,18.933 23.001,19.524 22.864,20.035 C22.494,21.416 21.416,22.494 20.035,22.864 C19.524,23.001 18.933,23.001 18.138,23 L18,23 C17.448,23 17,22.552 17,22 C17,21.448 17.448,21 18,21 C18.994,21 19.295,20.992 19.518,20.932 C20.208,20.747 20.747,20.208 20.932,19.518 C20.992,19.295 21,18.994 21,18 C21,17.448 21.448,17 22,17 Z M5.863,1 C5.908,1 5.954,1 6,1 C6.552,1 7,1.448 7,2 C7,2.552 6.552,3 6,3 C5.006,3 4.705,3.009 4.482,3.068 C3.792,3.253 3.253,3.792 3.068,4.482 C3.009,4.705 3,5.006 3,6 C3,6.552 2.552,7 2,7 C1.448,7 1,6.552 1,6 C1,5.954 1,5.908 1,5.863 C1,5.067 0.999,4.476 1.136,3.965 C1.506,2.584 2.584,1.506 3.965,1.136 C4.476,0.999 5.067,1 5.863,1 Z M22,9 C22.552,9 23,9.448 23,10 L23,14 C23,14.552 22.552,15 22,15 C21.448,15 21,14.552 21,14 L21,10 C21,9.448 21.448,9 22,9 Z M9,2 C9,1.448 9.448,1 10,1 L14,1 C14.552,1 15,1.448 15,2 C15,2.552 14.552,3 14,3 L10,3 C9.448,3 9,2.552 9,2 Z"/>
</svg>
