<svg xmlns="http://www.w3.org/2000/svg" width="24" height="24" viewBox="0 0 24 24">
  <defs/>
  <path d="M8.645,3.5 C9.076,2.054 10.415,1 12,1 C13.586,1 14.925,2.054 15.356,3.5 L20,3.5 C20.553,3.5 21,3.948 21,4.5 C21,5.052 20.553,5.5 20,5.5 L15.356,5.5 C15.02,6.629 14.129,7.519 13,7.855 L13,20 L20,20 C20.553,20 21,20.448 21,21 C21,21.552 20.553,22 20,22 L4,22 C3.448,22 3,21.552 3,21 C3,20.448 3.448,20 4,20 L11,20 L11,7.855 C9.872,7.519 8.981,6.629 8.645,5.5 L4,5.5 C3.448,5.5 3,5.052 3,4.5 C3,3.948 3.448,3.5 4,3.5 Z M18.5,7 C18.839,7 19.155,7.172 19.34,7.456 L22.325,12.062 C22.331,12.071 22.337,12.081 22.343,12.09 C22.506,12.342 22.653,12.568 22.774,12.925 C22.826,13.079 22.863,13.271 22.885,13.409 C22.907,13.547 22.933,13.741 22.932,13.904 C22.931,14.046 22.926,14.173 22.909,14.297 C22.892,14.421 22.867,14.519 22.851,14.58 L22.848,14.589 C22.34,16.535 20.602,18 18.5,18 C16.399,18 14.661,16.535 14.153,14.589 C14.152,14.586 14.151,14.583 14.15,14.58 C14.134,14.519 14.108,14.421 14.092,14.297 C14.075,14.173 14.07,14.046 14.069,13.904 C14.068,13.741 14.094,13.547 14.116,13.409 C14.138,13.271 14.175,13.079 14.227,12.925 C14.348,12.568 14.495,12.342 14.658,12.09 C14.664,12.081 14.67,12.071 14.676,12.062 L17.661,7.456 C17.846,7.172 18.162,7 18.5,7 Z M5.5,7 C5.839,7 6.155,7.172 6.34,7.456 L9.325,12.062 C9.331,12.071 9.337,12.081 9.343,12.09 C9.506,12.342 9.653,12.568 9.774,12.925 C9.826,13.079 9.863,13.271 9.885,13.409 C9.907,13.547 9.933,13.741 9.932,13.904 C9.931,14.046 9.926,14.173 9.909,14.297 C9.892,14.421 9.867,14.519 9.851,14.58 C9.85,14.583 9.849,14.586 9.848,14.589 C9.34,16.535 7.602,18 5.5,18 C3.399,18 1.661,16.535 1.152,14.589 L1.15,14.58 C1.134,14.519 1.108,14.421 1.092,14.297 C1.075,14.173 1.07,14.046 1.069,13.904 C1.068,13.741 1.094,13.547 1.116,13.409 C1.138,13.271 1.175,13.079 1.227,12.925 C1.348,12.568 1.495,12.342 1.658,12.09 C1.664,12.081 1.67,12.071 1.676,12.062 L4.661,7.456 C4.846,7.172 5.162,7 5.5,7 Z M3.072,14 C3.073,14.018 3.074,14.027 3.074,14.03 C3.076,14.038 3.078,14.049 3.088,14.084 C3.381,15.206 4.366,16 5.5,16 C6.635,16 7.62,15.206 7.913,14.084 C7.922,14.049 7.925,14.038 7.927,14.031 L7.927,14.031 C7.927,14.028 7.928,14.018 7.929,14 Z M20.929,14 L16.072,14 C16.073,14.018 16.074,14.028 16.074,14.031 L16.074,14.031 L16.074,14.031 C16.075,14.036 16.077,14.042 16.08,14.056 C16.082,14.063 16.085,14.072 16.088,14.084 C16.381,15.206 17.366,16 18.5,16 C19.635,16 20.62,15.206 20.913,14.084 C20.923,14.049 20.925,14.038 20.927,14.03 C20.927,14.027 20.928,14.018 20.929,14 Z M12,3 C11.172,3 10.5,3.672 10.5,4.5 C10.5,5.328 11.172,6 12,6 C12.829,6 13.5,5.328 13.5,4.5 C13.5,3.672 12.829,3 12,3 Z M6.901,12 L5.5,9.839 L4.1,12 Z M17.1,12 L19.901,12 L18.5,9.839 Z"/>
</svg>
