<svg xmlns="http://www.w3.org/2000/svg" width="24" height="24" viewBox="0 0 24 24">
  <defs/>
  <path d="M12,8 C11.448,8 11,7.552 11,7 C11,6.448 11.448,6 12,6 L17,6 C17.552,6 18,6.448 18,7 L18,12 C18,12.552 17.552,13 17,13 C16.448,13 16,12.552 16,12 L16,9.414 L12.707,12.707 C12.874,13.064 12.939,13.434 12.969,13.805 C13,14.179 13,14.634 13,15.161 L13,17.838 C13,18.366 13,18.82 12.969,19.195 C12.937,19.59 12.866,19.984 12.673,20.362 C12.385,20.927 11.927,21.385 11.362,21.673 C10.984,21.866 10.59,21.937 10.195,21.969 C9.82,22 9.366,22 8.839,22 L6.161,22 C5.634,22 5.18,22 4.805,21.969 C4.41,21.937 4.016,21.866 3.638,21.673 C3.074,21.385 2.615,20.927 2.327,20.362 C2.134,19.984 2.063,19.59 2.031,19.195 C2,18.82 2,18.366 2,17.838 L2,15.161 C2,14.634 2,14.179 2.031,13.805 C2.063,13.41 2.134,13.016 2.327,12.638 C2.615,12.073 3.074,11.615 3.638,11.327 C4.016,11.134 4.41,11.063 4.805,11.031 C5.18,11 5.634,11 6.161,11 L8.839,11 C9.366,11 9.82,11 10.195,11.031 C10.566,11.061 10.936,11.126 11.293,11.293 L14.586,8 Z M16.241,2 L16.241,2 C17.046,2 17.711,2 18.252,2.044 C18.814,2.09 19.331,2.189 19.816,2.436 C20.569,2.819 21.181,3.431 21.564,4.184 C21.811,4.669 21.91,5.186 21.956,5.748 C22,6.289 22,6.954 22,7.759 L22,16.241 C22,17.046 22,17.711 21.956,18.252 C21.91,18.814 21.811,19.331 21.564,19.816 C21.181,20.569 20.569,21.181 19.816,21.564 C19.331,21.811 18.814,21.91 18.252,21.956 C17.711,22 17.046,22 16.241,22 L16,22 C15.448,22 15,21.552 15,21 C15,20.448 15.448,20 16,20 L16.2,20 C17.057,20 17.639,19.999 18.089,19.962 C18.527,19.927 18.752,19.862 18.908,19.782 C19.284,19.59 19.59,19.284 19.782,18.908 C19.862,18.752 19.927,18.527 19.962,18.089 C19.999,17.639 20,17.057 20,16.2 L20,7.8 C20,6.943 19.999,6.361 19.962,5.911 C19.927,5.473 19.862,5.248 19.782,5.092 C19.59,4.716 19.284,4.41 18.908,4.218 C18.752,4.138 18.527,4.073 18.089,4.038 C17.639,4.001 17.057,4 16.2,4 L7.8,4 C6.943,4 6.361,4.001 5.911,4.038 C5.473,4.073 5.248,4.138 5.092,4.218 C4.716,4.41 4.41,4.716 4.218,5.092 C4.138,5.248 4.073,5.473 4.038,5.911 C4.001,6.361 4,6.943 4,7.8 L4,8 C4,8.552 3.552,9 3,9 C2.448,9 2,8.552 2,8 L2,7.759 C2,6.954 2,6.289 2.044,5.748 C2.09,5.186 2.189,4.669 2.436,4.184 C2.819,3.431 3.431,2.819 4.184,2.436 C4.669,2.189 5.186,2.09 5.748,2.044 C6.289,2 6.954,2 7.759,2 L16.241,2 Z M4.968,13.024 C4.696,13.046 4.595,13.084 4.546,13.109 C4.358,13.205 4.205,13.358 4.109,13.546 C4.084,13.595 4.046,13.696 4.024,13.968 C4.001,14.251 4,14.623 4,15.2 L4,17.8 C4,18.377 4.001,18.749 4.024,19.032 C4.046,19.304 4.084,19.404 4.109,19.454 C4.205,19.642 4.358,19.795 4.546,19.891 C4.595,19.916 4.696,19.954 4.968,19.976 C5.251,19.999 5.623,20 6.2,20 L8.8,20 C9.377,20 9.749,19.999 10.032,19.976 C10.304,19.954 10.405,19.916 10.454,19.891 C10.642,19.795 10.795,19.642 10.891,19.454 C10.916,19.404 10.954,19.304 10.976,19.032 C10.999,18.749 11,18.377 11,17.8 L11,15.2 C11,14.623 10.999,14.251 10.976,13.968 C10.954,13.696 10.916,13.595 10.891,13.546 C10.795,13.358 10.642,13.205 10.454,13.109 C10.405,13.084 10.304,13.046 10.032,13.024 C9.749,13.001 9.377,13 8.8,13 L6.2,13 C5.623,13 5.251,13.001 4.968,13.024 Z"/>
</svg>
