<svg xmlns="http://www.w3.org/2000/svg" width="24" height="24" viewBox="0 0 24 24">
  <defs/>
  <path d="M2,6 C2,3.791 3.791,2 6,2 C8.209,2 10,3.791 10,6 C10,6.742 9.798,7.436 9.446,8.032 L12,10.586 L19.293,3.293 C19.683,2.902 20.317,2.902 20.707,3.293 C21.098,3.683 21.098,4.317 20.707,4.707 L13.414,12 L20.707,19.293 C21.098,19.683 21.098,20.317 20.707,20.707 C20.317,21.098 19.683,21.098 19.293,20.707 L12,13.414 L9.446,15.968 C9.798,16.563 10,17.258 10,18 C10,20.209 8.209,22 6,22 C3.791,22 2,20.209 2,18 C2,15.791 3.791,14 6,14 C6.742,14 7.436,14.202 8.032,14.554 L10.586,12 L8.032,9.446 C7.436,9.798 6.742,10 6,10 C3.791,10 2,8.209 2,6 Z M6,16 C4.895,16 4,16.895 4,18 C4,19.105 4.895,20 6,20 C7.105,20 8,19.105 8,18 C8,16.895 7.105,16 6,16 Z M6,4 C4.895,4 4,4.895 4,6 C4,7.105 4.895,8 6,8 C7.105,8 8,7.105 8,6 C8,4.895 7.105,4 6,4 Z M16.5,12 C16.5,11.448 16.948,11 17.5,11 L17.51,11 C18.062,11 18.51,11.448 18.51,12 C18.51,12.552 18.062,13 17.51,13 L17.5,13 C16.948,13 16.5,12.552 16.5,12 Z M21,12 C21,11.448 21.448,11 22,11 L22.01,11 C22.562,11 23.01,11.448 23.01,12 C23.01,12.552 22.562,13 22.01,13 L22,13 C21.448,13 21,12.552 21,12 Z"/>
</svg>
