<svg xmlns="http://www.w3.org/2000/svg" width="24" height="24" viewBox="0 0 24 24">
  <defs/>
  <path d="M8.183,9.353 L11.179,10.878 L20.546,6.109 C21.038,5.858 21.641,6.054 21.891,6.546 C22.142,7.038 21.946,7.641 21.454,7.891 L13.383,12 L21.454,16.109 C21.946,16.359 22.142,16.962 21.891,17.454 C21.641,17.946 21.038,18.142 20.546,17.891 L11.179,13.122 L8.183,14.647 C9.277,15.361 10,16.596 10,18 C10,20.209 8.209,22 6,22 C3.791,22 2,20.209 2,18 C2,16.539 2.784,15.26 3.953,14.562 C3.983,14.544 4.013,14.526 4.045,14.51 C4.139,14.457 4.235,14.408 4.334,14.363 L8.974,12 L4.334,9.638 C4.235,9.592 4.139,9.543 4.045,9.49 C4.013,9.474 3.983,9.456 3.953,9.437 C2.784,8.739 2,7.461 2,6 C2,3.791 3.791,2 6,2 C8.209,2 10,3.791 10,6 C10,7.404 9.277,8.639 8.183,9.353 Z M5,16.268 C4.402,16.614 4,17.26 4,18 C4,19.105 4.895,20 6,20 C7.105,20 8,19.105 8,18 C8,16.895 7.105,16 6,16 C5.712,16 5.438,16.061 5.191,16.171 Z M6,4 C4.895,4 4,4.895 4,6 C4,6.74 4.402,7.386 5,7.732 L5.191,7.829 C5.438,7.939 5.712,8 6,8 C7.105,8 8,7.105 8,6 C8,4.895 7.105,4 6,4 Z"/>
</svg>
