<svg xmlns="http://www.w3.org/2000/svg" width="24" height="24" viewBox="0 0 24 24">
  <defs/>
  <path d="M18.888,17.473 L21.707,20.293 C22.098,20.683 22.098,21.317 21.707,21.707 C21.317,22.098 20.683,22.098 20.293,21.707 L17.473,18.888 C15.842,20.209 13.763,21 11.5,21 C6.253,21 2,16.747 2,11.5 C2,6.253 6.253,2 11.5,2 C16.747,2 21,6.253 21,11.5 C21,13.763 20.209,15.841 18.888,17.473 Z M11.5,4 C7.358,4 4,7.358 4,11.5 C4,15.642 7.358,19 11.5,19 C13.513,19 15.341,18.207 16.688,16.916 C16.719,16.873 16.754,16.832 16.793,16.793 C16.832,16.754 16.873,16.719 16.916,16.688 C18.207,15.341 19,13.513 19,11.5 C19,7.358 15.642,4 11.5,4 Z"/>
</svg>
