<svg xmlns="http://www.w3.org/2000/svg" width="24" height="24" viewBox="0 0 24 24">
  <defs/>
  <path d="M18.032,16.618 L21.707,20.293 C22.098,20.683 22.098,21.317 21.707,21.707 C21.317,22.098 20.683,22.098 20.293,21.707 L16.618,18.032 C15.078,19.264 13.125,20 11,20 C6.029,20 2,15.971 2,11 C2,6.029 6.029,2 11,2 C15.971,2 20,6.029 20,11 C20,13.125 19.264,15.078 18.032,16.618 Z M11,4 C7.134,4 4,7.134 4,11 C4,14.866 7.134,18 11,18 C12.886,18 14.598,17.254 15.856,16.041 C15.883,16.007 15.911,15.974 15.943,15.943 C15.974,15.911 16.007,15.883 16.041,15.856 C17.254,14.598 18,12.886 18,11 C18,7.134 14.866,4 11,4 Z M10,6 C10,5.448 10.448,5 11,5 C14.314,5 17,7.686 17,11 C17,11.552 16.552,12 16,12 C15.448,12 15,11.552 15,11 C15,8.791 13.209,7 11,7 C10.448,7 10,6.552 10,6 Z"/>
</svg>
