<svg xmlns="http://www.w3.org/2000/svg" width="24" height="24" viewBox="0 0 24 24">
  <defs/>
  <path d="M11.375,1.873 C11.794,1.666 12.285,1.667 12.704,1.875 C13.073,2.058 13.266,2.378 13.359,2.544 C13.459,2.723 13.561,2.952 13.664,3.18 C13.669,3.191 13.674,3.202 13.679,3.213 L21.182,19.959 C21.287,20.193 21.391,20.427 21.459,20.623 C21.521,20.803 21.635,21.167 21.522,21.569 C21.395,22.022 21.062,22.39 20.622,22.561 C20.234,22.713 19.861,22.635 19.675,22.591 C19.473,22.543 19.231,22.462 18.988,22.381 L12.038,20.054 L5.014,22.385 C4.77,22.466 4.528,22.547 4.325,22.594 C4.14,22.638 3.766,22.715 3.378,22.562 C2.939,22.39 2.606,22.021 2.481,21.566 C2.369,21.164 2.484,20.801 2.547,20.621 C2.615,20.424 2.72,20.191 2.826,19.958 L10.396,3.208 C10.401,3.197 10.406,3.186 10.411,3.175 C10.514,2.947 10.617,2.718 10.718,2.54 C10.811,2.374 11.005,2.054 11.375,1.873 Z M12.035,4.437 L4.852,20.332 L11,18.291 L11,12 C11,11.448 11.448,11 12,11 C12.553,11 13,11.448 13,12 L13,18.267 L19.155,20.328 Z"/>
</svg>
