<svg xmlns="http://www.w3.org/2000/svg" width="24" height="24" viewBox="0 0 24 24">
  <defs/>
  <path d="M4.039,2.821 C4.05,2.826 4.061,2.831 4.072,2.836 L20.823,10.373 C21.051,10.476 21.28,10.579 21.458,10.679 C21.624,10.773 21.944,10.966 22.126,11.335 C22.334,11.754 22.334,12.246 22.126,12.665 C21.944,13.034 21.624,13.227 21.458,13.321 C21.28,13.421 21.051,13.524 20.823,13.627 L4.045,21.177 C3.81,21.282 3.577,21.387 3.38,21.455 C3.2,21.518 2.836,21.632 2.434,21.52 C1.98,21.393 1.611,21.06 1.44,20.62 C1.288,20.231 1.366,19.858 1.41,19.672 C1.458,19.47 1.539,19.227 1.621,18.984 L3.946,12.037 L1.625,5.044 C1.621,5.033 1.617,5.021 1.614,5.01 C1.533,4.767 1.453,4.524 1.405,4.322 C1.361,4.137 1.285,3.764 1.437,3.376 C1.609,2.937 1.977,2.605 2.431,2.478 C2.833,2.366 3.196,2.481 3.376,2.543 C3.573,2.611 3.805,2.716 4.039,2.821 Z M3.667,4.847 L5.709,11 L10.5,11 C11.053,11 11.5,11.448 11.5,12 C11.5,12.552 11.053,13 10.5,13 L5.733,13 L3.674,19.15 L19.563,12 Z"/>
</svg>
