<svg xmlns="http://www.w3.org/2000/svg" width="24" height="24" viewBox="0 0 24 24">
  <defs/>
  <path d="M16.801,1.5 L16.801,1.5 C17.519,1.5 18.114,1.5 18.602,1.538 C19.112,1.577 19.582,1.662 20.033,1.871 C20.738,2.197 21.333,2.722 21.744,3.381 C22.008,3.803 22.15,4.259 22.252,4.76 C22.35,5.24 22.424,5.831 22.513,6.543 L22.992,10.376 C23.004,10.473 23.002,10.568 22.987,10.66 C22.996,10.772 23,10.886 23,11 C23,12.414 22.348,13.675 21.329,14.5 C22.348,15.325 23,16.586 23,18 C23,20.485 20.985,22.5 18.5,22.5 L5.5,22.5 C3.015,22.5 1,20.485 1,18 C1,16.586 1.652,15.325 2.671,14.5 C1.652,13.675 1,12.414 1,11 C1,10.886 1.004,10.772 1.013,10.66 C0.998,10.568 0.996,10.473 1.008,10.376 L1.487,6.543 C1.576,5.831 1.65,5.24 1.748,4.76 C1.85,4.259 1.992,3.803 2.256,3.381 C2.667,2.722 3.262,2.197 3.967,1.871 C4.418,1.662 4.888,1.577 5.398,1.538 C5.886,1.5 6.481,1.5 7.199,1.5 L16.801,1.5 Z M18.5,13.5 C19.881,13.5 21,12.381 21,11 C21,9.619 19.881,8.5 18.5,8.5 L5.5,8.5 C4.119,8.5 3,9.619 3,11 C3,12.381 4.119,13.5 5.5,13.5 Z M5.5,15.5 C4.119,15.5 3,16.619 3,18 C3,19.381 4.119,20.5 5.5,20.5 L18.5,20.5 C19.881,20.5 21,19.381 21,18 C21,16.619 19.881,15.5 18.5,15.5 Z M3.446,6.995 C4.062,6.679 4.76,6.5 5.5,6.5 L18.5,6.5 C19.24,6.5 19.938,6.679 20.554,6.995 L20.533,6.829 C20.438,6.069 20.373,5.556 20.293,5.16 C20.214,4.776 20.135,4.579 20.048,4.441 C19.842,4.111 19.545,3.849 19.192,3.685 C19.044,3.616 18.839,3.562 18.448,3.532 C18.046,3.501 17.528,3.5 16.763,3.5 L7.237,3.5 C6.472,3.5 5.954,3.501 5.552,3.532 C5.161,3.562 4.956,3.616 4.807,3.685 C4.455,3.849 4.158,4.111 3.952,4.441 C3.865,4.579 3.786,4.776 3.707,5.16 C3.627,5.556 3.562,6.069 3.467,6.829 Z M11,11 C11,10.448 11.448,10 12,10 L18,10 C18.552,10 19,10.448 19,11 C19,11.552 18.552,12 18,12 L12,12 C11.448,12 11,11.552 11,11 Z M11,18 C11,17.448 11.448,17 12,17 L18,17 C18.552,17 19,17.448 19,18 C19,18.552 18.552,19 18,19 L12,19 C11.448,19 11,18.552 11,18 Z M5,11 C5,10.448 5.448,10 6,10 L6.01,10 C6.562,10 7.01,10.448 7.01,11 C7.01,11.552 6.562,12 6.01,12 L6,12 C5.448,12 5,11.552 5,11 Z M5,18 C5,17.448 5.448,17 6,17 L6.01,17 C6.562,17 7.01,17.448 7.01,18 C7.01,18.552 6.562,19 6.01,19 L6,19 C5.448,19 5,18.552 5,18 Z"/>
</svg>
