<svg xmlns="http://www.w3.org/2000/svg" width="24" height="24" viewBox="0 0 24 24">
  <defs/>
  <path d="M1,4 C1,2.343 2.343,1 4,1 C5.657,1 7,2.343 7,4 C7,4.188 6.983,4.371 6.95,4.549 C8.39,3.571 10.128,3 12,3 C13.872,3 15.61,3.571 17.05,4.549 C17.017,4.371 17,4.188 17,4 C17,2.343 18.343,1 20,1 C21.657,1 23,2.343 23,4 C23,5.657 21.657,7 20,7 C19.812,7 19.629,6.983 19.451,6.95 C20.429,8.39 21,10.128 21,12 C21,13.872 20.429,15.61 19.451,17.05 C19.629,17.017 19.812,17 20,17 C21.657,17 23,18.343 23,20 C23,21.657 21.657,23 20,23 C18.343,23 17,21.657 17,20 C17,19.812 17.017,19.629 17.05,19.451 C15.61,20.429 13.872,21 12,21 C10.128,21 8.39,20.429 6.95,19.451 C6.983,19.629 7,19.812 7,20 C7,21.657 5.657,23 4,23 C2.343,23 1,21.657 1,20 C1,18.343 2.343,17 4,17 C4.188,17 4.371,17.017 4.549,17.05 C3.571,15.61 3,13.872 3,12 C3,10.128 3.571,8.39 4.549,6.95 C4.371,6.983 4.188,7 4,7 C2.343,7 1,5.657 1,4 Z M14.133,13 L9.868,13 C10.089,14.966 10.825,16.839 12,18.428 C13.176,16.839 13.912,14.966 14.133,13 Z M12,5.572 C10.825,7.161 10.089,9.034 9.868,11 L14.133,11 C13.912,9.034 13.176,7.161 12,5.572 Z M5.071,11 L7.857,11 C8.048,9.003 8.688,7.082 9.723,5.379 C7.279,6.219 5.446,8.374 5.071,11 Z M7.857,13 L5.071,13 C5.446,15.625 7.279,17.781 9.723,18.621 C8.688,16.918 8.048,14.997 7.857,13 Z M18.929,11 C18.554,8.375 16.721,6.219 14.277,5.379 C15.312,7.082 15.953,9.003 16.144,11 Z M14.277,18.621 C16.721,17.781 18.554,15.625 18.929,13 L16.144,13 C15.953,14.997 15.312,16.918 14.277,18.621 Z M20,19 C19.448,19 19,19.448 19,20 C19,20.552 19.448,21 20,21 C20.552,21 21,20.552 21,20 C21,19.448 20.552,19 20,19 Z M20,3 C19.448,3 19,3.448 19,4 C19,4.552 19.448,5 20,5 C20.552,5 21,4.552 21,4 C21,3.448 20.552,3 20,3 Z M4,19 C3.448,19 3,19.448 3,20 C3,20.552 3.448,21 4,21 C4.552,21 5,20.552 5,20 C5,19.448 4.552,19 4,19 Z M4,3 C3.448,3 3,3.448 3,4 C3,4.552 3.448,5 4,5 C4.552,5 5,4.552 5,4 C5,3.448 4.552,3 4,3 Z"/>
</svg>
