<svg xmlns="http://www.w3.org/2000/svg" width="24" height="24" viewBox="0 0 24 24">
  <defs/>
  <path d="M16.559,2 L16.559,2 C17.315,2 17.94,2 18.452,2.041 C18.985,2.083 19.475,2.173 19.942,2.399 C20.668,2.751 21.271,3.314 21.672,4.014 C21.93,4.464 22.054,4.947 22.132,5.476 C22.208,5.984 22.251,6.608 22.303,7.361 L22.962,16.91 C22.987,17.103 23,17.3 23,17.5 C23,19.985 20.985,22 18.5,22 L5.5,22 C3.015,22 1,19.985 1,17.5 C1,17.3 1.013,17.103 1.038,16.91 L1.697,7.361 C1.749,6.608 1.792,5.984 1.868,5.476 C1.946,4.947 2.07,4.464 2.328,4.014 C2.728,3.314 3.332,2.751 4.058,2.399 C4.525,2.173 5.015,2.083 5.548,2.041 C6.06,2 6.685,2 7.441,2 L16.559,2 Z M20.728,13.589 L20.311,7.539 C20.255,6.735 20.217,6.191 20.154,5.771 C20.094,5.363 20.02,5.154 19.936,5.007 C19.736,4.657 19.434,4.375 19.071,4.2 C18.919,4.126 18.705,4.067 18.294,4.034 C17.87,4.001 17.325,4 16.52,4 L7.48,4 C6.675,4 6.13,4.001 5.706,4.034 C5.295,4.067 5.082,4.126 4.929,4.2 C4.566,4.375 4.264,4.657 4.064,5.007 C3.98,5.154 3.906,5.363 3.846,5.771 C3.783,6.191 3.745,6.735 3.689,7.539 L3.272,13.589 C3.929,13.214 4.689,13 5.5,13 L18.5,13 C19.31,13 20.071,13.214 20.728,13.589 Z M3,17.532 C3.017,18.898 4.13,20 5.5,20 L18.5,20 C19.87,20 20.983,18.898 21,17.532 L20.972,17.121 C20.789,15.92 19.752,15 18.5,15 L5.5,15 C4.248,15 3.211,15.92 3.028,17.121 Z M11,17.5 C11,16.948 11.448,16.5 12,16.5 L18,16.5 C18.552,16.5 19,16.948 19,17.5 C19,18.052 18.552,18.5 18,18.5 L12,18.5 C11.448,18.5 11,18.052 11,17.5 Z M5,17.5 C5,16.948 5.448,16.5 6,16.5 L6.01,16.5 C6.562,16.5 7.01,16.948 7.01,17.5 C7.01,18.052 6.562,18.5 6.01,18.5 L6,18.5 C5.448,18.5 5,18.052 5,17.5 Z"/>
</svg>
