<svg xmlns="http://www.w3.org/2000/svg" width="24" height="24" viewBox="0 0 24 24">
  <defs/>
  <path d="M18.838,1 L18.839,1 C19.366,1 19.821,1 20.195,1.031 C20.59,1.063 20.984,1.134 21.362,1.327 C21.927,1.615 22.385,2.074 22.673,2.638 C22.866,3.016 22.937,3.41 22.969,3.805 C23,4.18 23,4.634 23,5.161 L23,6.839 C23,7.366 23,7.82 22.969,8.195 C22.937,8.59 22.866,8.984 22.673,9.362 C22.385,9.926 21.927,10.385 21.362,10.673 C20.984,10.866 20.59,10.937 20.195,10.969 C19.82,11 19.366,11 18.838,11 L5.161,11 C4.634,11 4.18,11 3.805,10.969 C3.41,10.937 3.016,10.866 2.638,10.673 C2.074,10.385 1.615,9.926 1.327,9.362 C1.134,8.984 1.063,8.59 1.031,8.195 C1,7.82 1,7.366 1,6.839 L1,5.161 C1,4.634 1,4.18 1.031,3.805 C1.063,3.41 1.134,3.016 1.327,2.638 C1.615,2.074 2.074,1.615 2.638,1.327 C3.016,1.134 3.41,1.063 3.805,1.031 C4.18,1 4.634,1 5.161,1 L18.838,1 Z M5.161,13 L18.838,13 C19.366,13 19.82,13 20.195,13.031 C20.59,13.063 20.984,13.134 21.362,13.327 C21.927,13.615 22.385,14.073 22.673,14.638 C22.866,15.016 22.937,15.41 22.969,15.805 C23,16.18 23,16.634 23,17.161 L23,18.839 C23,19.366 23,19.82 22.969,20.195 C22.937,20.59 22.866,20.984 22.673,21.362 C22.385,21.927 21.927,22.385 21.362,22.673 C20.984,22.866 20.59,22.937 20.195,22.969 C19.82,23 19.366,23 18.839,23 L5.161,23 C4.634,23 4.18,23 3.805,22.969 C3.41,22.937 3.016,22.866 2.638,22.673 C2.074,22.385 1.615,21.927 1.327,21.362 C1.134,20.984 1.063,20.59 1.031,20.195 C1,19.821 1,19.366 1,18.839 L1,17.161 C1,16.634 1,16.179 1.031,15.805 C1.063,15.41 1.134,15.016 1.327,14.638 C1.615,14.073 2.074,13.615 2.638,13.327 C3.016,13.134 3.41,13.063 3.805,13.031 C4.18,13 4.634,13 5.161,13 Z M3.968,15.024 C3.696,15.046 3.595,15.084 3.546,15.109 C3.358,15.205 3.205,15.358 3.109,15.546 C3.084,15.595 3.046,15.696 3.024,15.968 C3.001,16.251 3,16.623 3,17.2 L3,18.8 C3,19.377 3.001,19.749 3.024,20.032 C3.046,20.304 3.084,20.405 3.109,20.454 C3.205,20.642 3.358,20.795 3.546,20.891 C3.595,20.916 3.696,20.954 3.968,20.976 C4.251,20.999 4.623,21 5.2,21 L18.8,21 C19.377,21 19.749,20.999 20.032,20.976 C20.304,20.954 20.404,20.916 20.454,20.891 C20.642,20.795 20.795,20.642 20.891,20.454 C20.916,20.405 20.954,20.304 20.976,20.032 C20.999,19.749 21,19.377 21,18.8 L21,17.2 C21,16.623 20.999,16.251 20.976,15.968 C20.954,15.696 20.916,15.595 20.891,15.546 C20.795,15.358 20.642,15.205 20.454,15.109 C20.404,15.084 20.304,15.046 20.032,15.024 C19.749,15.001 19.377,15 18.8,15 L5.2,15 C4.623,15 4.251,15.001 3.968,15.024 Z M3.968,3.024 C3.696,3.046 3.595,3.084 3.546,3.109 C3.358,3.205 3.205,3.358 3.109,3.546 C3.084,3.595 3.046,3.696 3.024,3.968 C3.001,4.251 3,4.623 3,5.2 L3,6.8 C3,7.377 3.001,7.749 3.024,8.032 C3.046,8.304 3.084,8.405 3.109,8.454 C3.205,8.642 3.358,8.795 3.546,8.891 C3.595,8.916 3.696,8.954 3.968,8.976 C4.251,8.999 4.623,9 5.2,9 L18.8,9 C19.377,9 19.749,8.999 20.032,8.976 C20.304,8.954 20.404,8.916 20.454,8.891 C20.642,8.795 20.795,8.642 20.891,8.454 C20.916,8.405 20.954,8.304 20.976,8.032 C20.999,7.749 21,7.377 21,6.8 L21,5.2 C21,4.623 20.999,4.251 20.976,3.968 C20.954,3.696 20.916,3.595 20.891,3.546 C20.795,3.358 20.642,3.205 20.454,3.109 C20.404,3.084 20.304,3.046 20.032,3.024 C19.749,3.001 19.377,3 18.8,3 L5.2,3 C4.623,3 4.251,3.001 3.968,3.024 Z M5,18 C5,17.448 5.448,17 6,17 L6.01,17 C6.562,17 7.01,17.448 7.01,18 C7.01,18.552 6.562,19 6.01,19 L6,19 C5.448,19 5,18.552 5,18 Z M5,6 C5,5.448 5.448,5 6,5 L6.01,5 C6.562,5 7.01,5.448 7.01,6 C7.01,6.552 6.562,7 6.01,7 L6,7 C5.448,7 5,6.552 5,6 Z"/>
</svg>
