<svg xmlns="http://www.w3.org/2000/svg" width="24" height="24" viewBox="0 0 24 24">
  <defs/>
  <path d="M13,16.938 L13,17.171 C13.852,17.472 14.528,18.148 14.829,19 L21,19 C21.552,19 22,19.448 22,20 C22,20.552 21.552,21 21,21 L14.829,21 C14.417,22.165 13.306,23 12,23 C10.694,23 9.583,22.165 9.171,21 L3,21 C2.448,21 2,20.552 2,20 C2,19.448 2.448,19 3,19 L9.171,19 C9.472,18.148 10.148,17.472 11,17.171 L11,16.938 C7.054,16.446 4,13.08 4,9 C4,4.582 7.582,1 12,1 C16.418,1 20,4.582 20,9 C20,13.08 16.946,16.446 13,16.938 Z M13.726,10 L10.276,10 C10.478,11.591 11.07,13.107 12,14.412 C12.93,13.107 13.524,11.591 13.726,10 Z M12,3.588 C11.07,4.893 10.478,6.409 10.276,8 L13.726,8 C13.524,6.409 12.93,4.893 12,3.588 Z M6.083,8 L8.263,8 C8.431,6.393 8.93,4.844 9.721,3.448 C7.834,4.223 6.43,5.932 6.083,8 Z M8.263,10 L6.083,10 C6.43,12.068 7.834,13.777 9.721,14.552 C8.93,13.156 8.431,11.607 8.263,10 Z M17.917,8 C17.57,5.933 16.166,4.224 14.28,3.448 C15.071,4.844 15.57,6.393 15.739,8 Z M14.28,14.552 C16.166,13.776 17.57,12.068 17.917,10 L15.739,10 C15.57,11.607 15.071,13.156 14.28,14.552 Z M12,19 C11.448,19 11,19.448 11,20 C11,20.552 11.448,21 12,21 C12.552,21 13,20.552 13,20 C13,19.448 12.552,19 12,19 Z"/>
</svg>
