<svg xmlns="http://www.w3.org/2000/svg" width="24" height="24" viewBox="0 0 24 24">
  <defs/>
  <path d="M1,8 C1,5.239 3.239,3 6,3 L18,3 C20.761,3 23,5.239 23,8 C23,9.636 22.215,11.088 21,12 C22.215,12.912 23,14.364 23,16 C23,18.761 20.761,21 18,21 L6,21 C3.239,21 1,18.761 1,16 C1,14.364 1.785,12.912 3,12 C1.785,11.088 1,9.636 1,8 Z M6,13 C4.343,13 3,14.343 3,16 C3,17.657 4.343,19 6,19 L18,19 C19.657,19 21,17.657 21,16 C21,14.343 19.657,13 18,13 Z M18,11 C19.657,11 21,9.657 21,8 C21,6.343 19.657,5 18,5 L6,5 C4.343,5 3,6.343 3,8 C3,9.657 4.343,11 6,11 Z M5,16 C5,15.448 5.448,15 6,15 L6.01,15 C6.562,15 7.01,15.448 7.01,16 C7.01,16.552 6.562,17 6.01,17 L6,17 C5.448,17 5,16.552 5,16 Z M5,8 C5,7.448 5.448,7 6,7 L6.01,7 C6.562,7 7.01,7.448 7.01,8 C7.01,8.552 6.562,9 6.01,9 L6,9 C5.448,9 5,8.552 5,8 Z"/>
</svg>
