<svg xmlns="http://www.w3.org/2000/svg" width="24" height="24" viewBox="0 0 24 24">
  <defs/>
  <path d="M10.007,1.825 C10.536,1.297 11.253,1 12,1 C12.747,1 13.464,1.297 13.993,1.825 C14.521,2.354 14.818,3.071 14.818,3.818 L14.818,3.897 C14.819,3.994 14.848,4.089 14.901,4.17 C14.955,4.251 15.032,4.315 15.121,4.354 L15.131,4.358 C15.222,4.398 15.324,4.41 15.422,4.392 C15.519,4.375 15.609,4.329 15.68,4.261 L15.729,4.211 C15.991,3.949 16.301,3.742 16.643,3.6 C16.986,3.458 17.352,3.385 17.723,3.385 C18.093,3.385 18.46,3.458 18.802,3.6 C19.144,3.741 19.454,3.949 19.716,4.211 L19.009,4.918 L19.717,4.211 C19.978,4.473 20.186,4.784 20.327,5.125 C20.469,5.467 20.542,5.834 20.542,6.205 C20.542,6.575 20.469,6.942 20.327,7.284 C20.186,7.626 19.978,7.936 19.716,8.198 L19.667,8.248 C19.598,8.319 19.552,8.408 19.535,8.505 C19.517,8.603 19.529,8.705 19.569,8.796 C19.595,8.854 19.615,8.915 19.629,8.976 C19.664,9.024 19.707,9.066 19.757,9.099 C19.837,9.152 19.931,9.181 20.027,9.182 L20.027,10.182 L20.031,9.182 L20.03,9.182 L20.182,9.182 C20.929,9.182 21.646,9.479 22.175,10.007 C22.703,10.536 23,11.253 23,12 C23,12.747 22.703,13.464 22.175,13.993 C21.646,14.521 20.929,14.818 20.182,14.818 L20.104,14.818 L20.1,13.818 L20.1,14.818 C20.004,14.819 19.91,14.848 19.83,14.901 C19.749,14.955 19.685,15.032 19.646,15.121 L19.642,15.131 C19.602,15.222 19.59,15.324 19.608,15.422 C19.625,15.519 19.671,15.609 19.739,15.68 L19.734,15.675 L19.027,16.382 L19.742,15.683 L19.741,15.682 L19.788,15.729 C20.051,15.991 20.258,16.301 20.4,16.643 C20.542,16.986 20.615,17.352 20.615,17.723 C20.615,18.093 20.542,18.46 20.4,18.802 C20.258,19.144 20.051,19.455 19.789,19.716 C19.527,19.978 19.217,20.186 18.875,20.327 C18.532,20.469 18.166,20.542 17.795,20.542 C17.425,20.542 17.058,20.469 16.716,20.327 C16.374,20.186 16.064,19.978 15.802,19.716 L15.753,19.667 C15.754,19.668 15.754,19.669 15.755,19.669 L16.455,18.955 L15.747,19.662 L15.752,19.667 C15.681,19.598 15.592,19.552 15.495,19.535 C15.396,19.517 15.295,19.529 15.204,19.569 L15.194,19.574 C15.104,19.612 15.028,19.676 14.974,19.757 C14.921,19.837 14.892,19.931 14.891,20.027 L13.891,20.027 L14.891,20.031 L14.891,20.182 C14.891,20.929 14.594,21.646 14.066,22.175 C13.537,22.703 12.82,23 12.073,23 C11.325,23 10.608,22.703 10.08,22.175 C9.551,21.646 9.255,20.929 9.255,20.182 L9.255,20.115 C9.251,20.018 9.218,19.924 9.162,19.844 C9.103,19.763 9.022,19.7 8.928,19.666 C8.908,19.659 8.888,19.651 8.869,19.642 C8.778,19.602 8.676,19.59 8.578,19.608 C8.481,19.625 8.391,19.671 8.32,19.739 L8.271,19.788 C8.009,20.051 7.699,20.258 7.356,20.4 C7.014,20.542 6.648,20.615 6.277,20.615 C5.907,20.615 5.54,20.542 5.198,20.4 C4.856,20.259 4.546,20.051 4.284,19.789 L4.283,19.788 L4.285,19.787 L6.1,14.088 C5.91,13.777 5.654,13.51 5.347,13.307 C5.336,13.299 5.325,13.292 5.315,13.285 L4.47,15.348 C4.475,15.397 4.474,15.446 4.465,15.495 C4.448,15.592 4.402,15.681 4.333,15.752 L4.284,15.802 L4.47,15.348 C4.464,15.299 4.451,15.25 4.431,15.204 L4.426,15.194 C4.388,15.104 4.324,15.028 4.243,14.974 C4.162,14.92 4.067,14.892 3.97,14.891 L3.818,14.891 C3.071,14.891 2.354,14.594 1.825,14.066 C1.297,13.537 1,12.82 1,12.073 C1,11.325 1.297,10.608 1.825,10.08 C2.354,9.551 3.071,9.255 3.818,9.255 L3.885,9.255 C3.982,9.251 4.077,9.218 4.156,9.162 C4.237,9.103 4.3,9.022 4.334,8.928 C4.341,8.908 4.349,8.888 4.358,8.869 C4.398,8.778 4.41,8.676 4.392,8.578 C4.375,8.481 4.329,8.391 4.261,8.32 L4.211,8.271 C3.949,8.009 3.742,7.699 3.6,7.356 C3.458,7.014 3.385,6.648 3.385,6.277 C3.385,5.907 3.458,5.54 3.6,5.198 C3.742,4.856 3.949,4.545 4.211,4.284 C4.473,4.022 4.783,3.814 5.125,3.672 C5.467,3.531 5.834,3.458 6.205,3.458 C6.575,3.458 6.942,3.531 7.284,3.672 C7.626,3.814 7.937,4.022 8.198,4.284 L8.248,4.333 C8.319,4.402 8.408,4.448 8.505,4.465 C8.603,4.483 8.705,4.471 8.796,4.431 C8.85,4.407 8.906,4.388 8.964,4.374 L9.182,3.841 L9.182,3.818 C9.182,3.071 9.479,2.354 10.007,1.825 Z M12,3 C11.783,3 11.575,3.086 11.422,3.24 C11.268,3.393 11.182,3.601 11.182,3.818 L11.182,3.977 C11.18,4.464 11.035,4.941 10.766,5.347 C10.497,5.754 10.115,6.073 9.667,6.265 C9.585,6.3 9.499,6.323 9.412,6.336 C9.127,6.434 8.827,6.48 8.527,6.472 L6.1,14.088 C6.162,14.188 6.216,14.293 6.262,14.401 C6.462,14.857 6.522,15.362 6.433,15.852 C6.344,16.343 6.11,16.797 5.76,17.154 L5.753,17.162 L5.698,17.216 C5.622,17.292 5.561,17.383 5.52,17.482 C5.479,17.581 5.458,17.688 5.458,17.795 C5.458,17.903 5.479,18.009 5.52,18.109 C5.561,18.208 5.622,18.298 5.698,18.374 L5.698,18.375 C5.774,18.451 5.865,18.511 5.964,18.553 C6.063,18.594 6.17,18.615 6.277,18.615 C6.385,18.615 6.491,18.594 6.591,18.553 C6.69,18.511 6.78,18.451 6.856,18.375 L6.919,18.312 C7.276,17.963 7.73,17.729 8.221,17.64 C8.702,17.552 9.198,17.608 9.648,17.8 C10.106,17.975 10.503,18.281 10.788,18.681 C11.08,19.089 11.243,19.575 11.254,20.077 L11.255,20.1 L11.255,20.182 C11.255,20.399 11.341,20.607 11.494,20.76 C11.648,20.914 11.856,21 12.073,21 C12.29,21 12.498,20.914 12.651,20.76 C12.805,20.607 12.891,20.399 12.891,20.182 L12.891,20.023 C12.893,19.536 13.037,19.059 13.307,18.653 C13.575,18.248 13.955,17.93 14.401,17.737 C14.857,17.538 15.362,17.478 15.852,17.567 C16.343,17.656 16.797,17.89 17.154,18.24 L17.162,18.247 L17.216,18.302 C17.292,18.378 17.383,18.439 17.482,18.48 C17.581,18.521 17.688,18.542 17.795,18.542 C17.903,18.542 18.009,18.521 18.109,18.48 C18.208,18.439 18.298,18.378 18.374,18.302 L18.375,18.302 C18.451,18.226 18.511,18.135 18.553,18.036 C18.594,17.937 18.615,17.83 18.615,17.723 C18.615,17.615 18.594,17.509 18.553,17.409 C18.511,17.31 18.451,17.22 18.375,17.144 L18.312,17.081 C17.963,16.724 17.729,16.271 17.64,15.779 C17.551,15.289 17.61,14.784 17.81,14.328 C18.003,13.882 18.321,13.502 18.726,13.234 C19.132,12.965 19.608,12.82 20.096,12.818 L20.182,12.818 C20.399,12.818 20.607,12.732 20.76,12.578 C20.914,12.425 21,12.217 21,12 C21,11.783 20.914,11.575 20.76,11.422 C20.607,11.268 20.399,11.182 20.182,11.182 L20.023,11.182 C19.536,11.18 19.059,11.035 18.653,10.766 C18.246,10.497 17.927,10.115 17.735,9.667 C17.7,9.585 17.677,9.499 17.664,9.412 C17.524,9.007 17.49,8.572 17.567,8.148 C17.656,7.657 17.89,7.203 18.24,6.846 L18.247,6.838 L18.302,6.784 C18.378,6.708 18.439,6.617 18.48,6.518 C18.521,6.419 18.542,6.312 18.542,6.205 C18.542,6.097 18.521,5.991 18.48,5.891 C18.439,5.792 18.378,5.702 18.302,5.626 L18.302,5.625 C18.226,5.549 18.135,5.488 18.036,5.447 C17.937,5.406 17.83,5.385 17.723,5.385 C17.615,5.385 17.509,5.406 17.409,5.447 C17.31,5.488 17.22,5.549 17.144,5.625 L17.081,5.688 C16.724,6.037 16.271,6.271 15.779,6.36 C15.289,6.449 14.784,6.39 14.328,6.19 C13.882,5.997 13.502,5.679 13.234,5.274 C12.965,4.868 12.82,4.392 12.818,3.904 L12.818,3.818 C12.818,3.601 12.732,3.393 12.578,3.24 C12.425,3.086 12.217,3 12,3 Z M8,12 C8,9.791 9.791,8 12,8 C14.209,8 16,9.791 16,12 C16,14.209 14.209,16 12,16 C9.791,16 8,14.209 8,12 Z M12,10 C10.895,10 10,10.895 10,12 C10,13.105 10.895,14 12,14 C13.105,14 14,13.105 14,12 C14,10.895 13.105,10 12,10 Z M5.315,13.285 L8.122,6.428 C7.641,6.336 7.197,6.103 6.846,5.76 L6.838,5.753 L6.784,5.698 C6.708,5.622 6.617,5.561 6.518,5.52 C6.419,5.479 6.312,5.458 6.205,5.458 C6.097,5.458 5.991,5.479 5.891,5.52 C5.792,5.561 5.702,5.622 5.626,5.698 L5.625,5.698 C5.549,5.774 5.488,5.865 5.447,5.964 C5.406,6.063 5.385,6.17 5.385,6.277 C5.385,6.385 5.406,6.491 5.447,6.591 C5.488,6.69 5.549,6.78 5.625,6.856 L5.688,6.919 C6.037,7.276 6.271,7.73 6.36,8.221 C6.448,8.702 6.392,9.198 6.2,9.648 C6.025,10.106 5.719,10.503 5.319,10.788 C4.911,11.08 4.425,11.243 3.923,11.254 L3.9,11.255 L3.818,11.255 C3.601,11.255 3.393,11.341 3.24,11.494 C3.086,11.648 3,11.856 3,12.073 C3,12.29 3.086,12.498 3.24,12.651 C3.393,12.805 3.601,12.891 3.818,12.891 L3.977,12.891 C4.451,12.893 4.915,13.03 5.315,13.285 Z M10.007,1.825 L9.182,3.841 L9.182,3.97 C9.181,4.067 9.152,4.162 9.099,4.243 C9.066,4.293 9.024,4.336 8.976,4.371 C8.972,4.372 8.968,4.373 8.964,4.374 L8.122,6.428 C8.131,6.43 8.14,6.431 8.148,6.433 C8.274,6.456 8.4,6.469 8.527,6.472 L10.007,1.825 Z M19.574,8.879 L18.654,9.273 L19.654,9.273 L19.654,9.2 C19.654,9.125 19.646,9.05 19.629,8.976 C19.607,8.946 19.588,8.913 19.574,8.879 Z M9.255,20.123 L10.255,20.1 L9.255,20.1 L9.255,20.115 L9.255,20.123 Z M8.325,19.734 L7.618,19.027 L8.317,19.742 C8.318,19.741 8.319,19.74 8.32,19.739 L8.325,19.734 Z M19.669,8.245 L18.955,7.545 L19.662,8.253 L19.667,8.248 C19.667,8.247 19.669,8.246 19.669,8.245 Z M4.991,19.082 L4.285,19.787 L4.284,19.789 L4.991,19.082 Z"/>
</svg>
