<svg xmlns="http://www.w3.org/2000/svg" width="24" height="24" viewBox="0 0 24 24">
  <defs/>
  <path d="M18.614,17.105 L17.184,16.953 L17.183,16.953 C16.462,16.878 15.736,17.032 15.109,17.394 L15.107,17.395 C14.483,17.756 13.989,18.305 13.695,18.964 L13.11,20.279 C13.015,20.494 12.859,20.676 12.663,20.804 C12.466,20.932 12.236,21 12.002,21 C11.767,21 11.538,20.932 11.341,20.804 C11.144,20.676 10.989,20.494 10.894,20.28 L10.309,18.965 C10.015,18.303 9.518,17.751 8.891,17.388 C8.263,17.026 7.537,16.872 6.816,16.948 L5.386,17.1 C5.153,17.124 4.917,17.081 4.708,16.974 C4.499,16.868 4.325,16.703 4.208,16.5 C4.09,16.297 4.034,16.064 4.047,15.83 C4.059,15.596 4.139,15.37 4.277,15.181 L5.124,14.017 C5.55,13.431 5.78,12.724 5.78,12 L8.108,12.926 C8.037,12.629 8,12.319 8,12 C8,9.791 9.791,8 12,8 C14.209,8 16,9.791 16,12 C16,13.4 15.281,14.632 14.192,15.346 Z M12.002,1 C12.623,1 13.232,1.18 13.753,1.519 C14.273,1.857 14.685,2.339 14.937,2.907 L14.938,2.909 L15.528,4.225 C15.649,4.499 15.854,4.729 16.114,4.88 C16.375,5.031 16.678,5.095 16.978,5.063 L18.407,4.911 C19.025,4.846 19.65,4.961 20.203,5.243 C20.757,5.525 21.217,5.962 21.528,6.5 C21.839,7.038 21.987,7.655 21.954,8.275 C21.921,8.896 21.709,9.494 21.344,9.996 L21.443,14.162 C21.745,14.631 21.92,15.171 21.95,15.73 C21.982,16.351 21.834,16.967 21.524,17.505 C21.213,18.044 20.753,18.48 20.199,18.762 C19.745,18.993 19.245,19.113 18.739,19.112 L14.783,21.395 C14.531,21.832 14.178,22.204 13.753,22.481 C13.232,22.82 12.623,23 12.002,23 C11.38,23 10.772,22.82 10.251,22.481 C9.73,22.142 9.318,21.659 9.066,21.091 L8.481,19.777 C8.449,19.705 8.412,19.637 8.369,19.572 L7.891,19.121 L7.025,18.937 L5.595,19.089 C4.977,19.154 4.354,19.038 3.8,18.757 C3.247,18.475 2.787,18.038 2.476,17.5 C2.165,16.962 2.017,16.345 2.049,15.725 C2.079,15.164 2.255,14.622 2.558,14.152 L2.66,9.996 C2.294,9.494 2.082,8.896 2.049,8.275 C2.017,7.655 2.165,7.038 2.476,6.5 C2.786,5.962 3.246,5.525 3.8,5.243 C4.3,4.988 4.858,4.87 5.417,4.897 L9.066,2.909 C9.318,2.34 9.73,1.858 10.251,1.519 L9.066,2.909 L8.48,4.225 C8.359,4.499 8.154,4.729 7.894,4.88 C7.633,5.031 7.33,5.095 7.03,5.063 L5.596,4.911 C5.536,4.905 5.477,4.9 5.417,4.897 L2.476,6.5 L2.049,8.275 L2.66,9.996 L3.506,11.159 C3.684,11.403 3.78,11.698 3.78,12 C3.78,12.302 3.684,12.597 3.506,12.841 L2.66,14.004 C2.625,14.052 2.591,14.102 2.558,14.152 L2.476,17.5 L3.8,18.757 L7.025,18.937 L7.025,18.937 L7.025,18.937 C7.326,18.905 7.629,18.97 7.891,19.121 C8.084,19.232 8.248,19.387 8.369,19.572 L12.002,23 L14.783,21.395 C14.84,21.297 14.892,21.196 14.938,21.091 L14.938,21.091 L15.522,19.778 C15.644,19.504 15.85,19.276 16.109,19.126 C16.371,18.975 16.674,18.911 16.974,18.942 L18.403,19.094 C18.515,19.106 18.627,19.112 18.739,19.112 L21.524,17.505 L21.443,14.162 C21.41,14.11 21.375,14.059 21.339,14.009 L20.495,12.849 L20.493,12.847 C20.317,12.602 20.222,12.307 20.224,12.005 L20.224,12 C20.224,11.698 20.32,11.403 20.497,11.159 L21.344,9.996 L19.865,8.573 C19.829,8.66 19.783,8.742 19.727,8.819 L18.88,9.983 C18.454,10.568 18.224,11.274 18.224,11.998 L14.292,5.947 C14.048,5.678 13.848,5.371 13.699,5.036 L14.292,5.947 C14.527,6.207 14.803,6.432 15.111,6.61 L15.113,6.612 C15.741,6.974 16.467,7.128 17.187,7.052 L18.177,6.947 Z M12.002,3 L5.78,12 C5.78,11.275 5.55,10.569 5.124,9.983 L4.277,8.819 C4.139,8.63 4.059,8.404 4.047,8.17 C4.034,7.936 4.091,7.703 4.208,7.5 C4.325,7.297 4.499,7.132 4.708,7.025 C4.917,6.919 5.152,6.875 5.385,6.9 L6.821,7.052 C7.541,7.128 8.267,6.974 8.895,6.612 L8.897,6.61 C9.523,6.247 10.017,5.695 10.309,5.034 L10.31,5.033 L10.894,3.72 C10.989,3.506 11.144,3.324 11.341,3.196 C11.538,3.068 11.767,3 12.002,3 Z M12,10 C10.895,10 10,10.895 10,12 C10,13.105 10.895,14 12,14 C13.105,14 14,13.105 14,12 C14,10.895 13.105,10 12,10 Z M12,16 C12.809,16 13.562,15.76 14.192,15.346 L8.108,12.926 C8.525,14.689 10.11,16 12,16 Z M18.177,6.947 L19.865,8.573 C19.918,8.445 19.95,8.309 19.957,8.17 C19.969,7.936 19.913,7.703 19.796,7.5 C19.678,7.297 19.505,7.132 19.296,7.025 C19.087,6.919 18.851,6.875 18.618,6.9 L18.177,6.947 Z M12.002,1 C11.38,1 10.772,1.18 10.251,1.519 Z M12.002,3 C12.236,3 12.466,3.068 12.663,3.196 Z M12.663,3.196 C12.859,3.324 13.015,3.506 13.11,3.72 Z"/>
</svg>
