<?xml version="1.0" encoding="utf-8"?>
<!-- Generator: Adobe Illustrator 27.2.0, SVG Export Plug-In . SVG Version: 6.00 Build 0)  -->
<svg version="1.1" id="Layer_1" xmlns="http://www.w3.org/2000/svg" xmlns:xlink="http://www.w3.org/1999/xlink" x="0px" y="0px"
	 viewBox="0 0 24 24" style="enable-background:new 0 0 24 24;" xml:space="preserve">
<g>
	<path d="M12,23c-0.6,0-1.2-0.2-1.8-0.5c-0.5-0.3-0.9-0.8-1.2-1.4l-0.6-1.3c0,0,0,0,0,0c-0.1-0.3-0.3-0.5-0.6-0.7
		C7.6,19,7.3,18.9,7,18.9l-1.4,0.2c-0.6,0.1-1.2,0-1.8-0.3c-0.6-0.3-1-0.7-1.3-1.3C2.2,17,2,16.3,2,15.7c0-0.6,0.2-1.2,0.6-1.7
		l0.8-1.2c0.2-0.2,0.3-0.5,0.3-0.8c0-0.3-0.1-0.6-0.3-0.8L2.7,10C2.3,9.5,2.1,8.9,2,8.3C2,7.7,2.2,7,2.5,6.5c0.3-0.5,0.8-1,1.3-1.3
		C4.4,5,5,4.8,5.6,4.9L7,5.1c0.3,0,0.6,0,0.9-0.2c0.3-0.2,0.5-0.4,0.6-0.7l0.6-1.3c0.3-0.6,0.7-1,1.2-1.4c1-0.7,2.5-0.7,3.5,0
		c0.5,0.3,0.9,0.8,1.2,1.4l0.6,1.3c0.1,0.3,0.3,0.5,0.6,0.7C16.4,5,16.7,5.1,17,5.1l1.4-0.2c0.6-0.1,1.2,0,1.8,0.3
		c0.6,0.3,1,0.7,1.3,1.3C21.8,7,22,7.7,22,8.3c0,0.6-0.2,1.2-0.6,1.7l-0.8,1.2c-0.2,0.2-0.3,0.5-0.3,0.8c0,0.3,0.1,0.6,0.3,0.8
		l0.8,1.2c0.4,0.5,0.6,1.1,0.6,1.7c0,0.6-0.1,1.2-0.4,1.8c-0.3,0.5-0.8,1-1.3,1.3c-0.6,0.3-1.2,0.4-1.8,0.3L17,18.9
		c-0.3,0-0.6,0-0.9,0.2c-0.3,0.2-0.5,0.4-0.6,0.7l-0.6,1.3c-0.3,0.6-0.7,1-1.2,1.4C13.2,22.8,12.6,23,12,23z M10.3,19l0.6,1.3
		c0.1,0.2,0.3,0.4,0.4,0.5c0.4,0.3,0.9,0.3,1.3,0c0.2-0.1,0.4-0.3,0.4-0.5l0.6-1.3c0.3-0.7,0.8-1.2,1.4-1.6c0.6-0.4,1.3-0.5,2.1-0.4
		l1.4,0.2c0.2,0,0.5,0,0.7-0.1c0.2-0.1,0.4-0.3,0.5-0.5c0.1-0.2,0.2-0.4,0.2-0.7c0-0.2-0.1-0.5-0.2-0.6L18.9,14
		c-0.4-0.6-0.7-1.3-0.7-2c0-0.7,0.2-1.4,0.7-2l0.8-1.2c0.1-0.2,0.2-0.4,0.2-0.6c0-0.2,0-0.5-0.2-0.7c-0.1-0.2-0.3-0.4-0.5-0.5
		c-0.2-0.1-0.4-0.2-0.7-0.1l-1.4,0.2c-0.7,0.1-1.4-0.1-2.1-0.4C14.5,6.2,14,5.7,13.7,5l-0.6-1.3c-0.1-0.2-0.3-0.4-0.4-0.5
		c-0.4-0.3-0.9-0.3-1.3,0c-0.2,0.1-0.4,0.3-0.4,0.5L10.3,5C10,5.7,9.5,6.2,8.9,6.6C8.3,7,7.5,7.1,6.8,7.1L5.4,6.9
		c-0.2,0-0.5,0-0.7,0.1C4.5,7.1,4.3,7.3,4.2,7.5C4.1,7.7,4,7.9,4,8.2c0,0.2,0.1,0.5,0.2,0.6L5.1,10c0.4,0.6,0.7,1.3,0.7,2
		c0,0.7-0.2,1.4-0.7,2l-0.8,1.2c-0.1,0.2-0.2,0.4-0.2,0.6c0,0.2,0,0.5,0.2,0.7c0.1,0.2,0.3,0.4,0.5,0.5c0.2,0.1,0.4,0.1,0.7,0.1
		l1.4-0.2c0.7-0.1,1.4,0.1,2.1,0.4C9.5,17.8,10,18.3,10.3,19L10.3,19z"/>
</g>
<g>
	<path d="M12,16c-2.2,0-4-1.8-4-4s1.8-4,4-4c2.2,0,4,1.8,4,4S14.2,16,12,16z M12,10c-1.1,0-2,0.9-2,2s0.9,2,2,2c1.1,0,2-0.9,2-2
		S13.1,10,12,10z"/>
</g>
</svg>
