<svg xmlns="http://www.w3.org/2000/svg" width="24" height="24" viewBox="0 0 24 24">
  <defs/>
  <path d="M10,4 C10.552,4 11,4.448 11,5 C11,5.552 10.552,6 10,6 L7.8,6 C6.943,6 6.361,6.001 5.911,6.038 C5.473,6.073 5.248,6.138 5.092,6.218 C4.716,6.41 4.41,6.716 4.218,7.092 C4.138,7.248 4.073,7.473 4.038,7.911 C4.001,8.361 4,8.943 4,9.8 L4,16.2 C4,17.057 4.001,17.639 4.038,18.089 C4.073,18.527 4.138,18.752 4.218,18.908 C4.41,19.284 4.716,19.59 5.092,19.782 C5.248,19.862 5.473,19.927 5.911,19.962 C6.361,19.999 6.943,20 7.8,20 L14.2,20 C15.057,20 15.639,19.999 16.089,19.962 C16.527,19.927 16.752,19.862 16.908,19.782 C17.284,19.59 17.59,19.284 17.782,18.908 C17.862,18.752 17.927,18.527 17.962,18.089 C17.999,17.639 18,17.057 18,16.2 L18,14 C18,13.448 18.448,13 19,13 C19.552,13 20,13.448 20,14 L20,16.241 C20,17.046 20,17.711 19.956,18.252 C19.91,18.814 19.811,19.331 19.564,19.816 C19.181,20.569 18.569,21.181 17.816,21.564 C17.331,21.811 16.814,21.91 16.252,21.956 C15.711,22 15.046,22 14.241,22 L7.759,22 C6.954,22 6.289,22 5.748,21.956 C5.186,21.91 4.669,21.811 4.184,21.564 C3.431,21.181 2.819,20.569 2.436,19.816 C2.189,19.331 2.09,18.814 2.044,18.252 C2,17.711 2,17.046 2,16.241 L2,9.759 C2,8.954 2,8.289 2.044,7.748 C2.09,7.186 2.189,6.669 2.436,6.184 C2.819,5.431 3.431,4.819 4.184,4.436 C4.669,4.189 5.186,4.09 5.748,4.044 C6.289,4 6.954,4 7.759,4 L10,4 Z M14,3 C14,2.448 14.448,2 15,2 L21,2 C21.552,2 22,2.448 22,3 L22,9 C22,9.552 21.552,10 21,10 C20.448,10 20,9.552 20,9 L20,5.414 L13.707,11.707 C13.317,12.098 12.683,12.098 12.293,11.707 C11.902,11.317 11.902,10.683 12.293,10.293 L18.586,4 L15,4 C14.448,4 14,3.552 14,3 Z"/>
</svg>
