<svg xmlns="http://www.w3.org/2000/svg" width="24" height="24" viewBox="0 0 24 24">
  <defs/>
  <path d="M10.337,3.139 C10.63,2.78 11.073,2.576 11.537,2.588 C11.944,2.598 12.251,2.801 12.406,2.911 C12.57,3.029 12.758,3.19 12.944,3.349 C12.953,3.357 12.962,3.365 12.971,3.373 L21.442,10.633 C21.449,10.639 21.455,10.644 21.462,10.65 C21.566,10.74 21.688,10.844 21.785,10.943 C21.896,11.056 22.051,11.235 22.143,11.493 C22.261,11.821 22.261,12.179 22.143,12.507 C22.051,12.765 21.896,12.944 21.785,13.057 C21.688,13.156 21.566,13.26 21.462,13.35 C21.455,13.356 21.449,13.361 21.442,13.367 L12.944,20.651 C12.758,20.81 12.57,20.971 12.406,21.088 C12.251,21.199 11.944,21.402 11.537,21.412 C11.073,21.424 10.63,21.22 10.337,20.861 C10.08,20.545 10.035,20.18 10.018,19.99 C10,19.789 10,19.542 10,19.297 L10,16.196 C9.058,16.359 8.14,16.652 7.273,17.067 C5.922,17.716 4.727,18.649 3.769,19.802 C3.5,20.126 3.057,20.247 2.66,20.104 C2.264,19.961 2,19.584 2,19.163 L2,18.551 C2.001,15.93 2.968,13.401 4.714,11.447 C6.127,9.867 7.969,8.753 10,8.229 L10,4.703 C10,4.458 10,4.211 10.018,4.01 C10.035,3.82 10.08,3.455 10.337,3.139 Z M12,5.174 L12,9.035 C12,9.52 11.651,9.936 11.172,10.02 C9.259,10.354 7.507,11.324 6.205,12.78 C5.225,13.877 4.548,15.195 4.222,16.608 C4.9,16.087 5.633,15.636 6.408,15.264 C7.829,14.583 9.364,14.179 10.932,14.073 C11.209,14.054 11.48,14.151 11.683,14.34 C11.885,14.529 12,14.793 12,15.071 L12,18.826 L19.963,12 Z"/>
</svg>
