<svg xmlns="http://www.w3.org/2000/svg" width="24" height="24" viewBox="0 0 24 24">
  <defs/>
  <path d="M10,2 C10.552,2 11,2.448 11,3 C11,3.552 10.552,4 10,4 L7.8,4 C6.943,4 6.361,4.001 5.911,4.038 C5.473,4.073 5.248,4.138 5.092,4.218 C4.716,4.41 4.41,4.716 4.218,5.092 C4.138,5.248 4.073,5.473 4.038,5.911 C4.001,6.361 4,6.943 4,7.8 L4,16.2 C4,17.057 4.001,17.639 4.038,18.089 C4.073,18.527 4.138,18.752 4.218,18.908 C4.41,19.284 4.716,19.59 5.092,19.782 C5.248,19.862 5.473,19.927 5.911,19.962 C6.361,19.999 6.943,20 7.8,20 L16.2,20 C17.057,20 17.639,19.999 18.089,19.962 C18.527,19.927 18.752,19.862 18.908,19.782 C19.284,19.59 19.59,19.284 19.782,18.908 C19.862,18.752 19.927,18.527 19.962,18.089 C19.999,17.639 20,17.057 20,16.2 L20,14 C20,13.448 20.448,13 21,13 C21.552,13 22,13.448 22,14 L22,16.241 C22,17.046 22,17.711 21.956,18.252 C21.91,18.814 21.811,19.331 21.564,19.816 C21.181,20.569 20.569,21.181 19.816,21.564 C19.331,21.811 18.814,21.91 18.252,21.956 C17.711,22 17.046,22 16.241,22 L7.759,22 C6.954,22 6.289,22 5.748,21.956 C5.186,21.91 4.669,21.811 4.184,21.564 C3.431,21.181 2.819,20.569 2.436,19.816 C2.189,19.331 2.09,18.814 2.044,18.252 C2,17.711 2,17.046 2,16.241 L2,7.759 C2,6.954 2,6.289 2.044,5.748 C2.09,5.186 2.189,4.669 2.436,4.184 C2.819,3.431 3.431,2.819 4.184,2.436 C4.669,2.189 5.186,2.09 5.748,2.044 C6.289,2 6.954,2 7.759,2 L10,2 Z M17.293,2.293 C17.683,1.902 18.317,1.902 18.707,2.293 L21.707,5.293 C22.098,5.683 22.098,6.317 21.707,6.707 L18.707,9.707 C18.317,10.098 17.683,10.098 17.293,9.707 C16.902,9.317 16.902,8.683 17.293,8.293 L18.586,7 L17.8,7 C16.943,7 16.361,7.001 15.911,7.038 C15.473,7.073 15.248,7.138 15.092,7.218 C14.716,7.41 14.41,7.716 14.218,8.092 C14.138,8.248 14.073,8.473 14.038,8.911 C14.001,9.361 14,9.943 14,10.8 L14,12 C14,12.552 13.552,13 13,13 C12.448,13 12,12.552 12,12 L12,10.759 C12,9.954 12,9.289 12.044,8.748 C12.09,8.186 12.189,7.669 12.436,7.184 C12.819,6.431 13.431,5.819 14.184,5.436 C14.669,5.189 15.186,5.09 15.748,5.044 C16.289,5 16.954,5 17.759,5 L18.586,5 L17.293,3.707 C16.902,3.317 16.902,2.683 17.293,2.293 Z"/>
</svg>
