<svg xmlns="http://www.w3.org/2000/svg" width="24" height="24" viewBox="0 0 24 24">
  <defs/>
  <path d="M3,11 C3.552,11 4,11.448 4,12 L4,16.2 C4,17.057 4.001,17.639 4.038,18.089 C4.073,18.527 4.138,18.752 4.218,18.908 C4.41,19.284 4.716,19.59 5.092,19.782 C5.248,19.862 5.473,19.927 5.911,19.962 C6.361,19.999 6.943,20 7.8,20 L16.2,20 C17.057,20 17.639,19.999 18.089,19.962 C18.527,19.927 18.752,19.862 18.908,19.782 C19.284,19.59 19.59,19.284 19.782,18.908 C19.862,18.752 19.927,18.527 19.962,18.089 C19.999,17.639 20,17.057 20,16.2 L20,12 C20,11.448 20.448,11 21,11 C21.552,11 22,11.448 22,12 L22,16.241 C22,17.046 22,17.711 21.956,18.252 C21.91,18.814 21.811,19.331 21.564,19.816 C21.181,20.569 20.569,21.181 19.816,21.564 C19.331,21.811 18.814,21.91 18.252,21.956 C17.711,22 17.046,22 16.241,22 L7.759,22 C6.954,22 6.289,22 5.748,21.956 C5.186,21.91 4.669,21.811 4.184,21.564 C3.431,21.181 2.819,20.569 2.436,19.816 C2.189,19.331 2.09,18.814 2.044,18.252 C2,17.711 2,17.046 2,16.241 L2,12 C2,11.448 2.448,11 3,11 Z M11.293,2.293 C11.683,1.902 12.317,1.902 12.707,2.293 L16.707,6.293 C17.098,6.683 17.098,7.317 16.707,7.707 C16.317,8.098 15.683,8.098 15.293,7.707 L13,5.414 L13,15 C13,15.552 12.552,16 12,16 C11.448,16 11,15.552 11,15 L11,5.414 L8.707,7.707 C8.317,8.098 7.683,8.098 7.293,7.707 C6.902,7.317 6.902,6.683 7.293,6.293 Z"/>
</svg>
