<svg xmlns="http://www.w3.org/2000/svg" width="24" height="24" viewBox="0 0 24 24">
  <defs/>
  <path d="M15.158,7.815 L9.85,10.912 C9.948,11.258 10,11.623 10,12 C10,12.377 9.948,12.741 9.851,13.087 L15.161,16.182 C15.886,15.452 16.89,15 18,15 C20.209,15 22,16.791 22,19 C22,21.209 20.209,23 18,23 C15.791,23 14,21.209 14,19 C14,18.621 14.053,18.255 14.151,17.908 L8.842,14.814 C8.117,15.547 7.112,16 6,16 C3.791,16 2,14.209 2,12 C2,9.791 3.791,8 6,8 C7.111,8 8.117,8.453 8.842,9.185 L14.15,6.088 C14.052,5.742 14,5.377 14,5 C14,2.791 15.791,1 18,1 C20.209,1 22,2.791 22,5 C22,7.209 20.209,9 18,9 C16.889,9 15.883,8.547 15.158,7.815 Z M18,3 C16.895,3 16,3.895 16,5 C16,5.347 16.088,5.674 16.244,5.959 C16.254,5.974 16.264,5.99 16.274,6.006 C16.283,6.022 16.292,6.038 16.3,6.055 C16.653,6.622 17.282,7 18,7 C19.105,7 20,6.105 20,5 C20,3.895 19.105,3 18,3 Z M7.7,10.945 C7.347,10.378 6.718,10 6,10 C4.895,10 4,10.895 4,12 C4,13.105 4.895,14 6,14 C6.718,14 7.347,13.622 7.7,13.055 C7.708,13.038 7.717,13.022 7.726,13.007 C7.736,12.99 7.745,12.974 7.756,12.958 C7.911,12.674 8,12.347 8,12 C8,11.653 7.911,11.326 7.756,11.041 C7.746,11.026 7.736,11.01 7.726,10.994 C7.717,10.978 7.708,10.962 7.7,10.945 Z M16.215,18.096 C16.078,18.368 16,18.675 16,19 C16,20.105 16.895,21 18,21 C19.105,21 20,20.105 20,19 C20,17.895 19.105,17 18,17 C17.307,17 16.697,17.352 16.338,17.888 C16.322,17.924 16.304,17.959 16.284,17.993 C16.263,18.03 16.24,18.064 16.215,18.096 Z"/>
</svg>
