<svg xmlns="http://www.w3.org/2000/svg" width="24" height="24" viewBox="0 0 24 24">
  <defs/>
  <path d="M11.714,1.089 C11.904,1.061 12.096,1.061 12.286,1.089 C12.505,1.12 12.708,1.197 12.87,1.258 C12.884,1.264 12.899,1.269 12.913,1.274 L18.275,3.285 C18.319,3.302 18.362,3.318 18.405,3.334 C19.023,3.565 19.566,3.767 19.983,4.135 C20.349,4.458 20.631,4.864 20.804,5.319 C21.002,5.84 21.001,6.419 21,7.078 L21,7.078 C21,7.124 21,7.171 21,7.218 L21,12 C21,14.827 19.463,17.183 17.801,18.914 C16.128,20.657 14.214,21.888 13.202,22.479 C13.189,22.486 13.175,22.495 13.161,22.503 C12.976,22.611 12.736,22.752 12.419,22.82 C12.16,22.876 11.84,22.876 11.581,22.82 C11.264,22.752 11.024,22.611 10.839,22.503 C10.825,22.495 10.811,22.486 10.798,22.479 C9.786,21.888 7.872,20.657 6.199,18.914 C4.537,17.183 3,14.827 3,12 L3,7.218 C3,7.171 3,7.124 3,7.078 C2.999,6.419 2.998,5.84 3.196,5.319 C3.369,4.864 3.651,4.458 4.017,4.135 C4.434,3.767 4.977,3.565 5.595,3.334 C5.638,3.318 5.681,3.302 5.725,3.285 L11.087,1.274 C11.101,1.269 11.116,1.264 11.13,1.258 C11.292,1.197 11.495,1.12 11.714,1.089 Z M13,3.443 L13,20.255 C13.957,19.636 15.228,18.707 16.358,17.529 C17.86,15.965 19,14.082 19,12 L19,7.218 C19,6.336 18.984,6.161 18.935,6.03 C18.877,5.879 18.783,5.743 18.661,5.636 C18.556,5.544 18.398,5.467 17.573,5.158 Z M11,20.255 L11,3.443 L6.428,5.158 C5.602,5.467 5.444,5.544 5.339,5.636 C5.217,5.743 5.123,5.879 5.065,6.03 C5.016,6.161 5,6.336 5,7.218 L5,12 C5,14.082 6.14,15.965 7.642,17.53 C8.772,18.707 10.043,19.636 11,20.255 Z"/>
</svg>
