<svg xmlns="http://www.w3.org/2000/svg" width="24" height="24" viewBox="0 0 24 24">
  <defs/>
  <path d="M11.714,1.088 C11.904,1.061 12.096,1.061 12.286,1.088 C12.505,1.12 12.708,1.197 12.87,1.258 C12.884,1.263 12.899,1.269 12.913,1.274 L18.275,3.285 C18.319,3.301 18.362,3.318 18.405,3.334 C19.023,3.564 19.566,3.767 19.983,4.135 C20.349,4.457 20.631,4.864 20.804,5.319 C21.002,5.839 21.001,6.418 21,7.078 L21,7.078 C21,7.124 21,7.171 21,7.217 L21,12 C21,14.826 19.463,17.183 17.801,18.914 C16.128,20.657 14.214,21.888 13.202,22.479 C13.189,22.486 13.175,22.494 13.161,22.503 C12.976,22.611 12.736,22.752 12.419,22.82 C12.16,22.875 11.84,22.875 11.581,22.82 C11.264,22.752 11.024,22.611 10.839,22.503 C10.825,22.494 10.811,22.486 10.798,22.479 C9.786,21.888 7.872,20.657 6.199,18.914 C4.537,17.183 3,14.826 3,12 L3,7.217 C3,7.171 3,7.124 3,7.078 C2.999,6.419 2.998,5.839 3.196,5.319 C3.369,4.864 3.651,4.457 4.017,4.135 C4.434,3.767 4.977,3.564 5.595,3.334 C5.638,3.318 5.681,3.301 5.725,3.285 L11.087,1.274 C11.101,1.269 11.116,1.263 11.13,1.258 C11.292,1.197 11.495,1.12 11.714,1.088 Z M11.997,3.071 C11.956,3.085 11.901,3.105 11.789,3.147 L6.428,5.158 C5.602,5.467 5.444,5.543 5.339,5.636 C5.217,5.743 5.123,5.878 5.065,6.03 C5.016,6.161 5,6.336 5,7.217 L5,12 C5,14.082 6.14,15.964 7.642,17.529 C9.133,19.083 10.87,20.205 11.806,20.751 C11.863,20.784 11.904,20.808 11.94,20.829 C11.968,20.844 11.987,20.854 12,20.861 C12.013,20.854 12.032,20.844 12.06,20.829 C12.096,20.808 12.137,20.784 12.194,20.751 C13.13,20.205 14.867,19.083 16.358,17.529 C17.86,15.964 19,14.082 19,12 L19,7.217 C19,6.336 18.984,6.161 18.935,6.03 C18.877,5.878 18.783,5.743 18.661,5.636 C18.556,5.543 18.398,5.467 17.573,5.158 L12.211,3.147 C12.099,3.105 12.044,3.085 12.003,3.071 C12.002,3.071 12.001,3.07 12,3.07 Z M13.707,6.793 C14.098,7.183 14.098,7.816 13.707,8.207 L11.688,10.226 L14.447,11.605 C14.735,11.749 14.936,12.022 14.987,12.34 C15.039,12.657 14.934,12.98 14.707,13.207 L11.707,16.207 C11.317,16.597 10.683,16.597 10.293,16.207 C9.902,15.816 9.902,15.183 10.293,14.793 L12.312,12.774 L9.553,11.394 C9.265,11.25 9.064,10.977 9.013,10.66 C8.961,10.343 9.066,10.02 9.293,9.793 L12.293,6.793 C12.683,6.402 13.317,6.402 13.707,6.793 Z"/>
</svg>
