<svg xmlns="http://www.w3.org/2000/svg" width="24" height="24" viewBox="0 0 24 24">
  <defs/>
  <path d="M11.714,1.089 C11.904,1.061 12.096,1.061 12.286,1.089 C12.505,1.12 12.708,1.197 12.87,1.258 C12.884,1.264 12.899,1.269 12.913,1.274 L18.275,3.285 C18.319,3.302 18.362,3.318 18.405,3.334 C19.023,3.565 19.566,3.767 19.983,4.135 C20.349,4.458 20.631,4.864 20.804,5.319 C21.002,5.84 21.001,6.419 21,7.078 L21,7.078 C21,7.124 21,7.171 21,7.218 L21,12 C21,14.827 19.463,17.183 17.801,18.914 C16.128,20.657 14.214,21.888 13.202,22.479 C13.189,22.486 13.175,22.495 13.161,22.503 C12.976,22.611 12.736,22.752 12.419,22.82 C12.16,22.876 11.84,22.876 11.581,22.82 C11.264,22.752 11.024,22.611 10.839,22.503 C10.825,22.495 10.811,22.486 10.798,22.479 C9.786,21.888 7.872,20.657 6.199,18.914 C4.537,17.183 3,14.827 3,12 L3,7.218 C3,7.171 3,7.124 3,7.078 C2.999,6.419 2.998,5.84 3.196,5.319 C3.369,4.864 3.651,4.458 4.017,4.135 C4.434,3.767 4.977,3.565 5.595,3.334 C5.638,3.318 5.681,3.302 5.725,3.285 L11.087,1.274 C11.101,1.269 11.116,1.264 11.13,1.258 C11.292,1.197 11.495,1.12 11.714,1.089 Z M11.997,3.071 C11.956,3.085 11.901,3.105 11.789,3.147 L6.428,5.158 C5.602,5.467 5.444,5.544 5.339,5.636 C5.217,5.743 5.123,5.879 5.065,6.03 C5.016,6.161 5,6.336 5,7.218 L5,12 C5,14.082 6.14,15.965 7.642,17.53 C9.133,19.083 10.87,20.205 11.806,20.751 C11.863,20.785 11.904,20.809 11.94,20.829 C11.968,20.845 11.987,20.855 12,20.861 C12.013,20.855 12.032,20.845 12.06,20.829 C12.096,20.809 12.137,20.785 12.194,20.751 C13.13,20.205 14.867,19.083 16.358,17.529 C17.86,15.965 19,14.082 19,12 L19,7.218 C19,6.336 18.984,6.161 18.935,6.03 C18.877,5.879 18.783,5.743 18.661,5.636 C18.556,5.544 18.398,5.467 17.573,5.158 L12.211,3.147 C12.099,3.105 12.044,3.085 12.003,3.071 C12.002,3.071 12.001,3.071 12,3.07 Z M12,5 C12.552,5 13,5.448 13,6 L13,6.5 L13.133,6.5 C14.238,6.5 15.194,7.125 15.672,8.035 C15.929,8.524 15.741,9.129 15.252,9.385 C14.763,9.642 14.158,9.454 13.902,8.965 C13.755,8.687 13.465,8.5 13.133,8.5 L11,8.5 C10.448,8.5 10,8.948 10,9.5 C10,10.052 10.448,10.5 11,10.5 L13,10.5 C14.657,10.5 16,11.843 16,13.5 C16,15.157 14.657,16.5 13,16.5 L13,17 C13,17.552 12.552,18 12,18 C11.448,18 11,17.552 11,17 L11,16.5 L10.867,16.5 C9.762,16.5 8.806,15.875 8.328,14.965 C8.071,14.476 8.259,13.872 8.748,13.615 C9.237,13.358 9.842,13.546 10.098,14.035 C10.245,14.314 10.535,14.5 10.867,14.5 L13,14.5 C13.552,14.5 14,14.052 14,13.5 C14,12.948 13.552,12.5 13,12.5 L11,12.5 C9.343,12.5 8,11.157 8,9.5 C8,7.843 9.343,6.5 11,6.5 L11,6 C11,5.448 11.448,5 12,5 Z"/>
</svg>
