<svg xmlns="http://www.w3.org/2000/svg" width="24" height="24" viewBox="0 0 24 24">
  <defs/>
  <path d="M2.293,2.293 C2.683,1.902 3.317,1.902 3.707,2.293 L21.707,20.293 C22.098,20.683 22.098,21.316 21.707,21.707 C21.317,22.097 20.683,22.097 20.293,21.707 L17.653,19.067 C16.014,20.731 14.182,21.907 13.204,22.478 C13.19,22.485 13.176,22.493 13.162,22.502 C12.977,22.611 12.737,22.752 12.42,22.82 L11.225,20.399 C10.908,20.199 10.547,19.96 10.162,19.685 L11.581,22.82 C11.264,22.752 11.024,22.611 10.839,22.503 C10.825,22.494 10.811,22.486 10.798,22.479 C9.786,21.888 7.872,20.657 6.199,18.914 C4.537,17.183 3,14.826 3,12 L3,5.776 C3,5.391 3.104,5.023 3.291,4.705 L2.293,3.707 C1.902,3.316 1.902,2.683 2.293,2.293 Z M5,6.414 L5,7.78 L11.225,20.399 C11.441,20.534 11.636,20.652 11.806,20.751 C11.863,20.784 11.904,20.808 11.94,20.829 C11.968,20.844 11.987,20.854 12,20.861 C12.013,20.854 12.032,20.844 12.061,20.828 C12.097,20.808 12.138,20.784 12.196,20.75 C13.112,20.216 14.779,19.138 16.239,17.653 Z M11.714,1.088 C11.904,1.061 12.096,1.061 12.286,1.088 C12.505,1.12 12.708,1.197 12.87,1.258 C12.884,1.263 12.899,1.269 12.913,1.274 L18.275,3.285 C18.319,3.301 18.362,3.318 18.405,3.334 C19.023,3.564 19.566,3.767 19.983,4.135 C20.349,4.457 20.631,4.864 20.804,5.319 C21.002,5.839 21.001,6.419 21,7.078 C21,7.124 21,7.171 21,7.217 L21,12 C21,12.828 20.867,13.619 20.638,14.365 C20.475,14.893 19.915,15.189 19.388,15.027 C18.86,14.864 18.564,14.304 18.726,13.777 C18.902,13.204 19,12.612 19,12 L19,7.217 C19,6.336 18.984,6.161 18.935,6.03 C18.877,5.878 18.783,5.743 18.661,5.636 C18.556,5.543 18.398,5.467 17.573,5.158 L12.211,3.147 C12.099,3.105 12.044,3.085 12.003,3.071 C12.002,3.071 12.001,3.07 12,3.07 C11.999,3.07 11.998,3.071 11.997,3.071 C11.956,3.085 11.901,3.105 11.789,3.147 L9.16,4.133 C8.643,4.327 8.066,4.065 7.872,3.548 C7.678,3.031 7.94,2.454 8.458,2.26 L11.087,1.274 C11.101,1.269 11.116,1.263 11.13,1.258 C11.292,1.197 11.495,1.12 11.714,1.088 Z M10.162,19.685 L5,8.276 L5,12 C5,14.082 6.14,15.964 7.642,17.529 C8.466,18.388 9.365,19.114 10.162,19.685 Z M2.293,2.293 L5,8.276 L5,7.78 L2.293,2.293 Z"/>
</svg>
