<svg xmlns="http://www.w3.org/2000/svg" width="24" height="24" viewBox="0 0 24 24">
  <defs/>
  <path d="M12,1.397 C12.202,1.397 12.375,1.434 12.521,1.473 C12.792,1.546 13.019,1.691 13.183,1.804 C13.353,1.922 13.556,2.079 13.786,2.257 L13.806,2.272 C14.719,2.978 15.707,3.464 17.021,3.737 L17.05,3.743 C17.691,3.876 18.212,3.985 18.613,4.091 C19.003,4.194 19.404,4.324 19.73,4.554 C19.95,4.709 20.154,4.881 20.336,5.105 C20.518,5.328 20.645,5.563 20.752,5.81 C20.902,6.156 20.954,6.52 20.977,6.879 C21,7.228 21,7.658 21,8.168 L21,12 C21,14.827 19.463,17.183 17.801,18.914 C16.128,20.657 14.214,21.888 13.202,22.479 C13.189,22.486 13.175,22.494 13.161,22.503 C12.976,22.611 12.736,22.752 12.419,22.82 C12.16,22.876 11.84,22.876 11.581,22.82 C11.264,22.752 11.024,22.611 10.839,22.503 C10.825,22.494 10.811,22.486 10.798,22.479 C9.786,21.888 7.872,20.657 6.199,18.914 C4.537,17.183 3,14.827 3,12 L3,8.167 C3,7.658 3,7.228 3.023,6.879 C3.046,6.52 3.098,6.156 3.248,5.81 C3.355,5.563 3.482,5.328 3.664,5.105 C3.845,4.881 4.05,4.709 4.27,4.554 C4.596,4.324 4.997,4.194 5.387,4.091 C5.788,3.985 6.309,3.876 6.95,3.743 L6.979,3.737 C8.293,3.464 9.281,2.978 10.194,2.272 L10.214,2.257 C10.444,2.079 10.647,1.922 10.817,1.804 C10.981,1.691 11.208,1.546 11.479,1.473 C11.625,1.434 11.798,1.397 12,1.397 Z M12,3.419 C11.987,3.427 11.972,3.437 11.954,3.45 C11.834,3.533 11.674,3.656 11.417,3.854 C10.27,4.742 9.005,5.358 7.386,5.695 C6.709,5.836 6.241,5.934 5.898,6.024 C5.73,6.069 5.613,6.106 5.53,6.138 C5.453,6.169 5.425,6.187 5.423,6.188 L5.423,6.188 C5.298,6.277 5.246,6.329 5.215,6.367 C5.185,6.404 5.144,6.465 5.083,6.606 C5.068,6.641 5.036,6.736 5.019,7.01 C5.001,7.285 5,7.65 5,8.2 L5,12 C5,14.082 6.14,15.965 7.642,17.529 C9.133,19.083 10.87,20.205 11.806,20.751 C11.863,20.785 11.904,20.809 11.94,20.829 C11.968,20.845 11.987,20.855 12,20.861 C12.013,20.855 12.032,20.845 12.06,20.829 C12.096,20.809 12.137,20.785 12.194,20.751 C13.13,20.205 14.867,19.083 16.358,17.529 C17.86,15.965 19,14.082 19,12 L19,8.2 C19,7.65 19,7.285 18.981,7.01 C18.963,6.736 18.932,6.641 18.917,6.606 C18.856,6.465 18.815,6.404 18.785,6.367 C18.754,6.329 18.702,6.276 18.577,6.188 C18.577,6.188 18.55,6.169 18.469,6.138 C18.387,6.106 18.27,6.069 18.102,6.024 C17.759,5.934 17.291,5.836 16.614,5.695 C14.995,5.358 13.73,4.742 12.583,3.854 C12.326,3.656 12.166,3.533 12.046,3.45 C12.028,3.437 12.013,3.427 12,3.419 Z"/>
</svg>
