<svg width="24" height="24" viewBox="0 0 24 24" fill="none" xmlns="http://www.w3.org/2000/svg">
<path d="M8.05434 2.14236C8.5136 1.94366 9.06563 1.92791 9.57915 2.25774C10.152 2.62566 10.5041 3.06254 10.7191 3.5528C10.8765 3.9115 10.9539 4.30427 11.0069 4.57271C11.0169 4.62378 11.0261 4.67035 11.0348 4.71133C11.0978 5.00889 11.1632 5.22706 11.298 5.44391C11.4316 5.65876 11.6734 5.93432 12.1715 6.25432C12.2347 6.29495 12.2804 6.3161 12.3092 6.32695C12.3267 6.33354 12.3384 6.33652 12.3449 6.33784C12.3456 6.33752 12.3465 6.33716 12.3474 6.33676C12.427 6.30217 12.4912 6.24197 12.6786 6.06602C12.7162 6.0307 12.7588 5.99073 12.8075 5.94536C12.9107 5.8491 13.1048 5.66994 13.3482 5.54991C13.6405 5.40578 14.0656 5.31884 14.5114 5.53118C14.8806 5.70707 15.1086 6.02083 15.253 6.26835C15.4064 6.53132 15.5452 6.8613 15.6803 7.24972L16.1611 8.48516L16.6818 8.32576C17.2098 8.16407 17.769 8.46109 17.9307 8.98918C18.0924 9.51727 17.7954 10.0764 17.2673 10.2381L16.8885 10.3541L17.1991 11.1521L17.9722 10.9177C18.5007 10.7575 19.0591 11.0561 19.2193 11.5846C19.3698 12.0812 19.1154 12.6041 18.6457 12.7984C18.9598 12.9676 19.2703 13.0445 19.597 13.1074C21.3046 13.4365 22.1889 14.5425 22.6075 15.6152C23.0003 16.6216 23.0001 17.626 23 17.9784L23 19.4853C23 20.4184 22.5802 21.0955 22.0067 21.5056C21.4834 21.8799 20.8832 21.9999 20.4612 21.9999H15.7166C13.7313 21.9999 11.9559 20.8969 11.0647 20.3283C11.0409 20.3131 11.0177 20.2969 10.9953 20.2797L2.12728 13.5001C1.68195 13.2048 1.36204 12.8252 1.17845 12.3819C0.993457 11.9352 0.973872 11.4898 1.02321 11.1081C1.11803 10.3746 1.48248 9.75201 1.69469 9.44529C1.70614 9.42875 1.71808 9.41255 1.73051 9.39673L2.44797 8.48292C2.45311 8.47637 2.45834 8.46988 2.46364 8.46346L4.11097 6.46992L5.65734 4.48313C5.68655 4.44559 5.71841 4.41019 5.75266 4.37719C5.97175 4.16611 6.1862 3.91964 6.41583 3.64794C6.44787 3.61003 6.4806 3.57113 6.51389 3.53157C6.70536 3.30405 6.91546 3.05438 7.11976 2.84238C7.34961 2.60387 7.66567 2.31053 8.05434 2.14236ZM15.2794 11.734L14.9709 10.9412L14.3051 11.1451C13.777 11.3068 13.2178 11.0097 13.0561 10.4817C12.8945 9.95358 13.1915 9.3944 13.7196 9.23272L14.2435 9.07229L13.8098 7.95774C13.8052 7.94591 13.8008 7.93399 13.7966 7.92199C13.7807 7.87591 13.7653 7.83247 13.7503 7.79152C13.5802 7.92892 13.3729 8.07187 13.1442 8.17117C12.511 8.44624 11.8007 8.3933 11.0905 7.93701C10.3926 7.48866 9.91851 7.01292 9.59955 6.49992C9.28184 5.98891 9.15802 5.50267 9.07818 5.12563C9.05857 5.03301 9.0422 4.95258 9.02774 4.88152C8.97691 4.63171 8.94963 4.49762 8.8876 4.35621C8.85297 4.27727 8.80344 4.19067 8.69945 4.0937C8.65868 4.13067 8.61237 4.17573 8.55988 4.23021C8.40641 4.38946 8.24707 4.57858 8.05303 4.8089C8.01769 4.85084 7.9812 4.89415 7.94338 4.9389C7.72509 5.1972 7.47188 5.49162 7.1935 5.76567L5.68028 7.70987C5.6743 7.71756 5.66821 7.72515 5.66201 7.73266L4.65526 8.95099L13.8078 16.2105C13.8329 16.2305 13.8571 16.2516 13.8802 16.2739C13.8719 16.2659 13.8675 16.2618 13.8678 16.2614C13.8691 16.2598 13.9336 16.3064 14.1064 16.3897C14.2922 16.4792 14.5359 16.5793 14.8079 16.6728C15.3765 16.8685 15.9439 16.9931 16.297 16.9931L20.9236 16.9931C20.8858 16.7816 20.8291 16.5595 20.7444 16.3424C20.515 15.7546 20.1032 15.2418 19.2185 15.0713C18.7434 14.9797 18.0726 14.8247 17.3691 14.3638C17.027 14.1396 16.6936 13.8543 16.3744 13.492L15.4618 13.7686C14.9333 13.9288 14.3749 13.6303 14.2147 13.1017C14.0545 12.5732 14.3531 12.0149 14.8816 11.8546L15.2794 11.734ZM3.40044 10.5084L3.32414 10.6056C3.19379 10.7996 3.04106 11.0987 3.00671 11.3645C2.99078 11.4878 3.00529 11.566 3.02626 11.6166C3.0435 11.6582 3.08856 11.7409 3.24577 11.8418C3.2687 11.8566 3.29101 11.8722 3.31266 11.8888L12.176 18.6649C13.0969 19.2505 14.4008 19.9999 15.7166 19.9999H20.4612C20.5576 19.9999 20.7269 19.9621 20.8433 19.8788C20.8914 19.8444 20.9238 19.8074 20.9465 19.764C20.9685 19.7219 21 19.6389 21 19.4853V18.9931L16.297 18.9931C15.6133 18.9931 14.7981 18.7846 14.1571 18.564C13.8242 18.4494 13.5062 18.3205 13.2383 18.1915C13.0213 18.0869 12.7453 17.9398 12.5379 17.756L3.40044 10.5084Z" fill="black"/>
</svg>
