<svg width="14" height="15" viewBox="0 0 14 15" fill="none" xmlns="http://www.w3.org/2000/svg">
<g id="shoes">
<path id="Icon" d="M1.88714 6.15679L2.8535 4.98732L3.76079 3.82163C4.36565 3.23888 4.81929 2.36464 5.27293 2.65601C6.23527 3.27411 5.38973 4.09091 6.78508 4.98732C7.8536 5.67377 8.00244 3.55228 8.59965 5.27864L9.50694 7.60995C10.1118 8.77558 10.8175 8.96985 11.3215 9.06699C12.8337 9.3584 12.8337 10.9556 12.8337 11.3442M1.88714 6.15679L7.69237 10.7613C7.89399 10.9556 8.90208 11.3442 9.50694 11.3442L12.8337 11.3442M1.88714 6.15679L1.46862 6.68984C1.267 6.98125 0.852602 7.78047 1.57843 8.24672L6.76854 12.2146C7.29758 12.5522 8.20058 13.0981 9.16836 13.0981H11.936C12.2385 13.0981 12.8337 12.914 12.8337 12.2146V11.3442M8.17419 6.79171L9.90214 6.26265M8.8505 8.32164L10.6534 7.77512" stroke="#98A2B3" stroke-width="1.16667" stroke-linecap="round" stroke-linejoin="round"/>
</g>
</svg>
