<svg xmlns="http://www.w3.org/2000/svg" width="24" height="24" viewBox="0 0 24 24">
  <defs/>
  <path d="M3.061,3 L2,3 C1.448,3 1,2.552 1,2 C1,1.448 1.448,1 2,1 L3.27,1 C3.383,1 3.518,1 3.638,1.009 C3.778,1.021 3.976,1.049 4.186,1.151 C4.459,1.284 4.686,1.497 4.836,1.761 C4.951,1.964 4.991,2.16 5.011,2.299 C5.028,2.418 5.037,2.554 5.044,2.666 C5.044,2.673 5.044,2.681 5.045,2.688 L5.127,4 L21.131,4 C21.263,4 21.418,4 21.553,4.011 C21.707,4.025 21.934,4.058 22.166,4.187 C22.464,4.351 22.696,4.611 22.827,4.924 C22.928,5.17 22.937,5.399 22.933,5.553 C22.93,5.689 22.913,5.843 22.898,5.974 L22.306,11.3 C22.254,11.772 22.208,12.183 22.144,12.521 C22.076,12.879 21.974,13.231 21.77,13.565 C21.463,14.067 21.015,14.467 20.482,14.717 C20.128,14.883 19.767,14.945 19.403,14.973 C19.06,15 18.647,15 18.172,15 L5.814,15 L5.939,17 L19,17 C19.552,17 20,17.448 20,18 C20,18.552 19.552,19 19,19 L5.73,19 C5.617,19 5.482,19 5.362,18.991 C5.222,18.979 5.024,18.951 4.814,18.849 C4.541,18.716 4.314,18.503 4.164,18.239 C4.049,18.036 4.009,17.84 3.989,17.701 C3.972,17.582 3.963,17.447 3.956,17.334 C3.956,17.327 3.956,17.319 3.955,17.312 Z M5.689,13 L18.136,13 C18.658,13 18.992,12.999 19.248,12.979 C19.492,12.96 19.585,12.928 19.634,12.906 C19.812,12.822 19.961,12.689 20.063,12.522 C20.091,12.476 20.133,12.386 20.179,12.146 C20.227,11.894 20.265,11.562 20.322,11.043 L20.883,6 L5.252,6 Z M6,21.5 C6,20.672 6.672,20 7.5,20 C8.328,20 9,20.672 9,21.5 C9,22.328 8.328,23 7.5,23 C6.672,23 6,22.328 6,21.5 Z M15,21.5 C15,20.672 15.672,20 16.5,20 C17.328,20 18,20.672 18,21.5 C18,22.328 17.328,23 16.5,23 C15.672,23 15,22.328 15,21.5 Z M3.049,2.812 L3.21,2.884 C3.222,2.894 3.235,2.904 3.248,2.913 C3.269,2.927 3.29,2.939 3.312,2.95 C3.363,2.975 3.409,2.989 3.442,2.996 C3.461,3.001 3.475,3.002 3.48,3.003 L3.48,3.003 L3.481,3.003 L3.48,3.003 L3.21,2.884 C3.182,2.861 3.158,2.835 3.136,2.807 Z"/>
</svg>
