<svg xmlns="http://www.w3.org/2000/svg" width="24" height="24" viewBox="0 0 24 24">
  <defs/>
  <path d="M3.146,3 L2,3 C1.448,3 1,2.552 1,2 C1,1.448 1.448,1 2,1 L3.337,1 C3.44,1 3.565,1 3.677,1.008 C3.81,1.018 3.993,1.044 4.19,1.133 C4.45,1.25 4.67,1.439 4.827,1.677 C4.945,1.858 4.999,2.035 5.03,2.164 C5.056,2.273 5.075,2.398 5.091,2.499 C5.092,2.506 5.093,2.513 5.094,2.519 L5.486,5 L21.068,5 C21.209,5 21.372,5 21.513,5.012 C21.672,5.026 21.911,5.062 22.153,5.202 C22.459,5.38 22.693,5.659 22.812,5.992 C22.907,6.255 22.9,6.497 22.885,6.656 C22.872,6.797 22.842,6.957 22.817,7.096 L21.455,14.585 C21.376,15.024 21.306,15.406 21.225,15.72 C21.138,16.054 21.02,16.38 20.812,16.687 C20.497,17.15 20.059,17.516 19.547,17.743 C19.208,17.893 18.866,17.95 18.521,17.976 C18.198,18 17.809,18 17.364,18 L7.539,18 L7.854,20 L19,20 C19.552,20 20,20.448 20,21 C20,21.552 19.552,22 19,22 L7.663,22 C7.56,22 7.435,22 7.323,21.992 C7.19,21.982 7.007,21.956 6.81,21.867 C6.55,21.75 6.33,21.561 6.173,21.323 C6.055,21.142 6.001,20.965 5.97,20.836 C5.944,20.727 5.925,20.603 5.909,20.501 Z M7.223,16 L17.329,16 C17.819,16 18.132,15.999 18.372,15.981 C18.599,15.964 18.688,15.936 18.736,15.914 C18.907,15.839 19.053,15.717 19.158,15.562 C19.187,15.519 19.232,15.436 19.289,15.216 C19.35,14.983 19.406,14.675 19.494,14.194 L20.802,7 L5.802,7 Z"/>
</svg>
