<svg xmlns="http://www.w3.org/2000/svg" width="24" height="24" viewBox="0 0 24 24">
  <defs/>
  <path d="M15.622,2 L15.622,2 C16.368,2 16.985,2 17.491,2.04 C18.018,2.081 18.503,2.17 18.966,2.392 C19.687,2.737 20.288,3.29 20.692,3.98 C20.951,4.423 21.08,4.899 21.165,5.42 C21.247,5.921 21.298,6.536 21.36,7.279 L22.066,15.762 C22.139,16.627 22.198,17.339 22.197,17.92 C22.197,18.52 22.134,19.077 21.903,19.606 C21.545,20.421 20.926,21.094 20.143,21.518 C19.636,21.792 19.086,21.901 18.488,21.951 C17.909,22 17.195,22 16.326,22 L7.673,22 C6.804,22 6.09,22 5.512,21.951 C4.913,21.901 4.363,21.792 3.856,21.518 C3.073,21.094 2.454,20.421 2.096,19.606 C1.865,19.077 1.802,18.52 1.802,17.92 C1.801,17.339 1.861,16.627 1.933,15.762 L1.933,15.761 L2.64,7.279 C2.701,6.536 2.753,5.921 2.834,5.42 C2.92,4.899 3.049,4.423 3.308,3.98 C3.711,3.29 4.312,2.737 5.033,2.392 C5.496,2.17 5.981,2.081 6.508,2.04 C7.014,2 7.631,2 8.377,2 L15.622,2 Z M6.665,4.034 C6.26,4.066 6.048,4.123 5.897,4.196 C5.536,4.368 5.236,4.645 5.034,4.99 C4.949,5.135 4.874,5.341 4.808,5.742 C4.741,6.156 4.695,6.692 4.629,7.484 L3.929,15.884 C3.853,16.804 3.801,17.431 3.802,17.917 C3.802,18.393 3.855,18.635 3.928,18.803 C4.107,19.211 4.416,19.547 4.808,19.759 C4.969,19.846 5.206,19.918 5.68,19.958 C6.164,19.999 6.794,20 7.716,20 L16.283,20 C17.205,20 17.835,19.999 18.32,19.958 C18.793,19.918 19.031,19.846 19.191,19.759 C19.583,19.547 19.892,19.211 20.071,18.803 C20.144,18.635 20.197,18.393 20.197,17.917 C20.198,17.431 20.146,16.804 20.07,15.884 L19.37,7.484 C19.304,6.692 19.258,6.156 19.191,5.742 C19.125,5.341 19.05,5.135 18.965,4.99 C18.764,4.645 18.463,4.368 18.102,4.196 C17.951,4.123 17.74,4.066 17.334,4.034 C16.916,4.001 16.378,4 15.583,4 L8.416,4 C7.621,4 7.083,4.001 6.665,4.034 Z M8,7 C8.552,7 9,7.448 9,8 C9,8.796 9.316,9.559 9.878,10.121 C10.441,10.684 11.204,11 12,11 C12.795,11 13.558,10.684 14.121,10.121 C14.684,9.559 15,8.796 15,8 C15,7.448 15.447,7 16,7 C16.552,7 17,7.448 17,8 C17,9.326 16.473,10.598 15.535,11.535 C14.597,12.473 13.326,13 12,13 C10.674,13 9.402,12.473 8.464,11.535 C7.526,10.598 7,9.326 7,8 C7,7.448 7.447,7 8,7 Z"/>
</svg>
