<svg xmlns="http://www.w3.org/2000/svg" width="24" height="24" viewBox="0 0 24 24">
  <defs/>
  <path d="M16.902,5.009 C17.125,5.015 17.33,5.024 17.52,5.039 C18.043,5.08 18.524,5.168 18.984,5.386 C19.701,5.727 20.3,6.273 20.706,6.955 C20.966,7.392 21.099,7.863 21.188,8.38 C21.274,8.875 21.331,9.484 21.4,10.22 L22.008,16.702 C22.09,17.575 22.157,18.293 22.163,18.878 C22.168,19.483 22.111,20.045 21.881,20.579 C21.527,21.402 20.908,22.083 20.121,22.512 C19.611,22.79 19.057,22.9 18.454,22.951 C17.871,23 17.15,23 16.273,23 L7.728,23 C6.851,23 6.13,23 5.547,22.951 C4.944,22.9 4.39,22.79 3.88,22.512 C3.093,22.083 2.473,21.402 2.12,20.579 C1.89,20.045 1.833,19.483 1.838,18.878 C1.844,18.293 1.911,17.575 1.993,16.702 L2.6,10.22 C2.669,9.484 2.726,8.875 2.812,8.38 C2.902,7.863 3.034,7.392 3.295,6.955 C3.7,6.273 4.3,5.727 5.017,5.386 C5.477,5.168 5.958,5.08 6.481,5.039 C6.671,5.024 6.876,5.015 7.098,5.009 C7.558,2.722 9.578,1 12,1 C14.423,1 16.443,2.722 16.902,5.009 Z M7,7.013 C6.869,7.018 6.749,7.024 6.637,7.033 C6.235,7.065 6.025,7.122 5.875,7.193 C5.516,7.363 5.216,7.636 5.013,7.977 C4.928,8.121 4.852,8.324 4.783,8.722 C4.712,9.131 4.661,9.661 4.588,10.445 L3.988,16.845 C3.901,17.772 3.843,18.405 3.838,18.896 C3.834,19.376 3.885,19.621 3.957,19.789 C4.134,20.201 4.444,20.541 4.837,20.756 C4.999,20.844 5.237,20.917 5.716,20.958 C6.205,20.999 6.84,21 7.771,21 L16.229,21 C17.16,21 17.796,20.999 18.285,20.958 C18.763,20.917 19.002,20.844 19.164,20.756 C19.557,20.541 19.867,20.201 20.044,19.789 C20.116,19.621 20.167,19.376 20.163,18.896 C20.158,18.405 20.1,17.772 20.013,16.845 L19.413,10.445 C19.339,9.661 19.289,9.131 19.218,8.722 C19.149,8.324 19.073,8.121 18.987,7.977 C18.784,7.636 18.485,7.363 18.126,7.193 C17.976,7.122 17.765,7.065 17.364,7.033 C17.252,7.024 17.132,7.018 17,7.013 L17,9 C17,9.552 16.553,10 16,10 C15.448,10 15,9.552 15,9 L15,7 L9,7 L9,9 C9,9.552 8.553,10 8,10 C7.448,10 7,9.552 7,9 Z M14.83,5 C14.418,3.835 13.307,3 12,3 C10.694,3 9.583,3.835 9.171,5 Z"/>
</svg>
