<svg xmlns="http://www.w3.org/2000/svg" width="24" height="24" viewBox="0 0 24 24">
  <defs/>
  <path d="M3.672,1.009 C3.805,1.019 3.991,1.045 4.19,1.136 C4.452,1.255 4.673,1.448 4.829,1.69 C4.947,1.874 4.999,2.054 5.028,2.185 C5.052,2.296 5.07,2.422 5.085,2.525 C5.086,2.532 5.087,2.539 5.088,2.545 L5.439,5 L21.06,5 C21.202,5 21.366,5 21.508,5.012 C21.668,5.026 21.908,5.062 22.151,5.204 C22.458,5.383 22.692,5.665 22.81,6.001 C22.904,6.266 22.894,6.509 22.878,6.668 C22.864,6.81 22.833,6.971 22.806,7.111 L21.471,14.119 C21.389,14.554 21.317,14.932 21.233,15.243 C21.144,15.575 21.025,15.898 20.816,16.201 C20.5,16.66 20.063,17.021 19.554,17.246 C19.217,17.394 18.877,17.451 18.535,17.476 C18.214,17.5 17.828,17.5 17.386,17.5 L8.759,17.5 C8.294,17.5 7.89,17.5 7.554,17.474 C7.197,17.447 6.843,17.386 6.494,17.226 C5.968,16.985 5.524,16.597 5.214,16.108 C5.008,15.784 4.9,15.441 4.825,15.092 C4.754,14.762 4.7,14.362 4.637,13.901 L3.581,6.138 L3.133,3 L2,3 C1.448,3 1,2.552 1,2 C1,1.448 1.448,1 2,1 L3.327,1 C3.431,1 3.558,1 3.672,1.009 Z M5.717,7 L6.614,13.597 C6.683,14.102 6.728,14.426 6.78,14.671 C6.831,14.904 6.874,14.991 6.902,15.036 C7.006,15.199 7.154,15.328 7.329,15.409 C7.377,15.431 7.469,15.462 7.707,15.48 C7.957,15.499 8.284,15.5 8.794,15.5 L17.352,15.5 C17.838,15.5 18.148,15.499 18.386,15.482 C18.611,15.465 18.7,15.436 18.748,15.415 C18.918,15.34 19.063,15.22 19.169,15.067 C19.198,15.024 19.243,14.942 19.302,14.724 C19.364,14.494 19.422,14.189 19.513,13.712 L20.792,7 Z M15,21 C15,19.895 15.895,19 17,19 C18.105,19 19,19.895 19,21 C19,22.105 18.105,23 17,23 C15.895,23 15,22.105 15,21 Z M7,21 C7,19.895 7.895,19 9,19 C10.105,19 11,19.895 11,21 C11,22.105 10.105,23 9,23 C7.895,23 7,22.105 7,21 Z"/>
</svg>
