<svg xmlns="http://www.w3.org/2000/svg" width="24" height="24" viewBox="0 0 24 24">
  <defs/>
  <path d="M6.739,1 C6.76,1 6.78,1 6.8,1 L17.2,1 C17.22,1 17.24,1 17.261,1 C17.488,0.999 17.774,0.998 18.049,1.077 C18.288,1.145 18.511,1.257 18.709,1.407 C18.937,1.58 19.108,1.809 19.243,1.991 C19.256,2.007 19.268,2.024 19.28,2.04 L20.861,4.148 C20.875,4.167 20.889,4.186 20.904,4.205 L21.16,4.546 C21.174,4.564 21.187,4.582 21.2,4.6 C21.398,4.864 21.573,5.096 21.701,5.36 C21.813,5.592 21.895,5.838 21.944,6.091 C22,6.379 22,6.67 22,6.999 L22,18.838 C22,19.365 22,19.82 21.969,20.195 C21.937,20.59 21.866,20.983 21.673,21.362 C21.385,21.926 20.927,22.385 20.362,22.673 C19.984,22.866 19.59,22.937 19.195,22.969 C18.82,23 18.366,23 17.839,23 L6.161,23 C5.634,23 5.18,23 4.805,22.969 C4.41,22.937 4.016,22.866 3.638,22.673 C3.074,22.385 2.615,21.926 2.327,21.362 C2.134,20.983 2.063,20.59 2.031,20.195 C2,19.82 2,19.366 2,18.839 L2,18.838 L2,7.066 C2,7.044 2,7.022 2,6.999 C2,6.67 2,6.379 2.056,6.091 C2.105,5.838 2.187,5.592 2.299,5.36 C2.427,5.096 2.602,4.864 2.8,4.6 C2.813,4.582 2.826,4.564 2.84,4.546 L3.097,4.204 C3.111,4.185 3.125,4.166 3.139,4.148 C3.145,4.139 3.152,4.131 3.158,4.123 C3.159,4.122 3.159,4.121 3.16,4.12 L4.72,2.04 C4.732,2.024 4.744,2.007 4.757,1.991 C4.892,1.809 5.063,1.58 5.291,1.407 C5.489,1.257 5.712,1.145 5.951,1.077 C6.226,0.998 6.512,0.999 6.739,1 Z M20,6.989 C19.827,7 19.628,7 19.435,7 L4.6,7 L4.565,7 C4.372,7 4.173,7 4,6.989 C4,7.014 4,7.039 4,7.066 L4,18.8 C4,19.376 4.001,19.749 4.024,20.032 C4.046,20.304 4.084,20.404 4.109,20.454 C4.205,20.642 4.358,20.795 4.546,20.891 C4.595,20.916 4.696,20.954 4.968,20.976 C5.251,20.999 5.623,21 6.2,21 L17.8,21 C18.377,21 18.749,20.999 19.032,20.976 C19.304,20.954 19.405,20.916 19.454,20.891 C19.642,20.795 19.795,20.642 19.891,20.454 C19.916,20.404 19.954,20.304 19.976,20.032 C19.999,19.749 20,19.376 20,18.8 Z M8,9 C8.552,9 9,9.448 9,10 C9,10.795 9.316,11.559 9.879,12.121 C10.441,12.684 11.204,13 12,13 C12.796,13 13.559,12.684 14.121,12.121 C14.684,11.559 15,10.795 15,10 C15,9.448 15.448,9 16,9 C16.552,9 17,9.448 17,10 C17,11.326 16.473,12.598 15.535,13.535 C14.598,14.473 13.326,15 12,15 C10.674,15 9.402,14.473 8.464,13.535 C7.527,12.598 7,11.326 7,10 C7,9.448 7.448,9 8,9 Z M6.32,3.24 L5,5 L19,5 L17.68,3.24 C17.586,3.114 17.538,3.051 17.501,3.007 C17.5,3.006 17.499,3.005 17.498,3.003 L17.494,3.003 C17.436,3 17.357,3 17.2,3 L6.8,3 C6.643,3 6.564,3 6.506,3.003 L6.502,3.003 C6.501,3.005 6.5,3.006 6.499,3.007 C6.462,3.051 6.414,3.114 6.32,3.24 Z"/>
</svg>
