<svg xmlns="http://www.w3.org/2000/svg" width="24" height="24" viewBox="0 0 24 24">
  <defs/>
  <path d="M18.586,4 L16,4 C15.448,4 15,3.552 15,3 C15,2.448 15.448,2 16,2 L21,2 C21.552,2 22,2.448 22,3 L22,8 C22,8.552 21.552,9 21,9 C20.448,9 20,8.552 20,8 L20,5.414 L3.707,21.707 C3.317,22.098 2.683,22.098 2.293,21.707 C1.902,21.317 1.902,20.683 2.293,20.293 Z M14.293,15.707 C13.902,15.317 13.902,14.683 14.293,14.293 C14.683,13.902 15.317,13.902 15.707,14.293 L20,18.586 L20,16 C20,15.448 20.448,15 21,15 C21.552,15 22,15.448 22,16 L22,21 C22,21.552 21.552,22 21,22 L16,22 C15.448,22 15,21.552 15,21 C15,20.448 15.448,20 16,20 L18.586,20 Z M2.293,2.293 C2.683,1.902 3.317,1.902 3.707,2.293 L9.707,8.293 C10.098,8.683 10.098,9.317 9.707,9.707 C9.317,10.098 8.683,10.098 8.293,9.707 L2.293,3.707 C1.902,3.317 1.902,2.683 2.293,2.293 Z"/>
</svg>
