<svg xmlns="http://www.w3.org/2000/svg" width="24" height="24" viewBox="0 0 24 24">
  <defs/>
  <path d="M17.293,2.293 C17.683,1.902 18.317,1.902 18.707,2.293 L21.707,5.293 C22.098,5.683 22.098,6.317 21.707,6.707 L18.707,9.707 C18.317,10.098 17.683,10.098 17.293,9.707 C16.902,9.317 16.902,8.683 17.293,8.293 L18.586,7 L18.569,7 C17.567,7 17.275,7.01 17.024,7.086 C16.773,7.163 16.539,7.288 16.336,7.455 C16.133,7.621 15.963,7.859 15.407,8.692 L10.257,16.417 C10.232,16.454 10.208,16.491 10.184,16.527 C9.735,17.202 9.396,17.711 8.934,18.09 C8.528,18.424 8.06,18.675 7.557,18.827 C6.986,19.001 6.374,19 5.564,19 L5.563,19 C5.52,19 5.476,19 5.431,19 L3,19 C2.448,19 2,18.552 2,18 C2,17.448 2.448,17 3,17 L5.431,17 C6.433,17 6.725,16.99 6.976,16.914 C7.227,16.837 7.461,16.712 7.664,16.545 C7.867,16.379 8.037,16.141 8.593,15.308 L13.743,7.583 C13.768,7.546 13.792,7.509 13.816,7.473 C14.265,6.798 14.604,6.289 15.066,5.91 C15.472,5.576 15.94,5.325 16.443,5.173 C17.014,4.999 17.626,4.999 18.437,5 C18.48,5 18.524,5 18.569,5 L18.586,5 L17.293,3.707 C16.902,3.317 16.902,2.683 17.293,2.293 Z M17.293,14.293 C17.683,13.902 18.317,13.902 18.707,14.293 L21.707,17.293 C22.098,17.683 22.098,18.317 21.707,18.707 L18.707,21.707 C18.317,22.098 17.683,22.098 17.293,21.707 C16.902,21.317 16.902,20.683 17.293,20.293 L18.586,19 L18.569,19 C18.524,19 18.48,19 18.437,19 L18.436,19 C17.626,19 17.014,19.001 16.443,18.827 C15.94,18.675 15.472,18.424 15.066,18.09 C14.604,17.711 14.265,17.202 13.816,16.527 C13.792,16.491 13.768,16.454 13.743,16.417 L13.501,16.055 C13.195,15.595 13.319,14.974 13.779,14.668 C14.238,14.362 14.859,14.486 15.165,14.945 L15.407,15.308 C15.963,16.141 16.133,16.379 16.336,16.545 C16.539,16.712 16.773,16.837 17.024,16.914 C17.275,16.99 17.567,17 18.569,17 L18.586,17 L17.293,15.707 C16.902,15.317 16.902,14.683 17.293,14.293 Z M6.976,7.086 C6.725,7.01 6.433,7 5.431,7 L3,7 C2.448,7 2,6.552 2,6 C2,5.448 2.448,5 3,5 L5.431,5 C5.476,5 5.52,5 5.563,5 C6.374,4.999 6.985,4.999 7.557,5.173 C8.06,5.325 8.528,5.576 8.934,5.91 C9.396,6.289 9.735,6.798 10.184,7.473 C10.208,7.509 10.232,7.546 10.257,7.583 L10.499,7.945 C10.805,8.405 10.681,9.026 10.221,9.332 C9.762,9.638 9.141,9.514 8.835,9.055 L8.593,8.692 C8.037,7.859 7.867,7.621 7.664,7.455 C7.461,7.288 7.227,7.163 6.976,7.086 Z"/>
</svg>
