<svg xmlns="http://www.w3.org/2000/svg" width="24" height="24" viewBox="0 0 24 24">
  <defs/>
  <path d="M9,10 C9,8.343 10.343,7 12,7 C13.657,7 15,8.343 15,10 C15,11.306 14.165,12.417 13,12.829 L13,21 C13,21.552 12.552,22 12,22 C11.448,22 11,21.552 11,21 L11,12.829 C9.835,12.417 9,11.306 9,10 Z M5.636,2.222 C6.026,2.612 6.026,3.246 5.636,3.636 C2.121,7.151 2.121,12.849 5.636,16.364 C6.026,16.754 6.026,17.388 5.636,17.778 C5.245,18.169 4.612,18.169 4.222,17.778 C-0.074,13.482 -0.074,6.518 4.222,2.222 C4.612,1.831 5.245,1.831 5.636,2.222 Z M18.364,2.222 C18.755,1.831 19.388,1.831 19.778,2.222 C24.074,6.518 24.074,13.482 19.778,17.778 C19.388,18.169 18.755,18.169 18.364,17.778 C17.974,17.388 17.974,16.754 18.364,16.364 C21.879,12.849 21.879,7.151 18.364,3.636 C17.974,3.246 17.974,2.612 18.364,2.222 Z M15.535,5.05 C15.926,4.66 16.559,4.66 16.95,5.05 C19.683,7.784 19.683,12.216 16.95,14.95 C16.559,15.34 15.926,15.34 15.535,14.95 C15.145,14.559 15.145,13.926 15.535,13.535 C17.488,11.583 17.488,8.417 15.535,6.464 C15.145,6.074 15.145,5.441 15.535,5.05 Z M8.464,5.05 C8.855,5.441 8.855,6.074 8.464,6.464 C6.512,8.417 6.512,11.583 8.464,13.535 C8.855,13.926 8.855,14.559 8.464,14.95 C8.074,15.34 7.441,15.34 7.05,14.95 C4.317,12.216 4.317,7.784 7.05,5.05 C7.441,4.66 8.074,4.66 8.464,5.05 Z M12,9 C11.448,9 11,9.448 11,10 C11,10.552 11.448,11 12,11 C12.552,11 13,10.552 13,10 C13,9.448 12.552,9 12,9 Z"/>
</svg>
