<svg xmlns="http://www.w3.org/2000/svg" width="24" height="24" viewBox="0 0 24 24">
  <defs/>
  <path d="M18.364,5.636 C14.849,2.121 9.151,2.121 5.636,5.636 C2.121,9.151 2.121,14.849 5.636,18.364 C6.027,18.754 6.027,19.388 5.636,19.778 C5.246,20.169 4.612,20.169 4.222,19.778 C-0.074,15.482 -0.074,8.518 4.222,4.222 C8.518,-0.074 15.482,-0.074 19.778,4.222 C24.074,8.518 24.074,15.482 19.778,19.778 C19.388,20.169 18.754,20.169 18.364,19.778 C17.973,19.388 17.973,18.754 18.364,18.364 C21.879,14.849 21.879,9.151 18.364,5.636 Z M15.535,8.464 C13.583,6.512 10.417,6.512 8.464,8.464 C6.512,10.417 6.512,13.583 8.464,15.535 C8.855,15.926 8.855,16.559 8.464,16.95 C8.074,17.34 7.441,17.34 7.05,16.95 C4.317,14.216 4.317,9.784 7.05,7.05 C9.784,4.317 14.216,4.317 16.95,7.05 C19.683,9.784 19.683,14.216 16.95,16.95 C16.559,17.34 15.926,17.34 15.535,16.95 C15.145,16.559 15.145,15.926 15.535,15.535 C17.488,13.583 17.488,10.417 15.535,8.464 Z M12.707,11.293 C12.317,10.902 11.683,10.902 11.293,11.293 C10.902,11.683 10.902,12.317 11.293,12.707 C11.683,13.098 11.683,13.731 11.293,14.121 C10.902,14.512 10.269,14.512 9.879,14.121 C8.707,12.95 8.707,11.05 9.879,9.879 C11.05,8.707 12.95,8.707 14.121,9.879 C15.293,11.05 15.293,12.95 14.121,14.121 C13.731,14.512 13.098,14.512 12.707,14.121 C12.317,13.731 12.317,13.098 12.707,12.707 C13.098,12.317 13.098,11.683 12.707,11.293 Z"/>
</svg>
