<svg xmlns="http://www.w3.org/2000/svg" width="24" height="24" viewBox="0 0 24 24">
  <defs/>
  <path d="M5.636,4.222 C6.027,4.612 6.027,5.246 5.636,5.636 C2.121,9.151 2.121,14.849 5.636,18.364 C6.027,18.754 6.027,19.388 5.636,19.778 C5.246,20.169 4.612,20.169 4.222,19.778 C-0.074,15.482 -0.074,8.518 4.222,4.222 C4.612,3.831 5.246,3.831 5.636,4.222 Z M18.364,4.222 C18.754,3.831 19.388,3.831 19.778,4.222 C24.074,8.518 24.074,15.483 19.778,19.778 C19.388,20.169 18.754,20.169 18.364,19.778 C17.973,19.388 17.973,18.755 18.364,18.364 C21.879,14.849 21.879,9.151 18.364,5.636 C17.973,5.246 17.973,4.612 18.364,4.222 Z M9,12 C9,10.343 10.343,9 12,9 C13.657,9 15,10.343 15,12 C15,13.657 13.657,15 12,15 C10.343,15 9,13.657 9,12 Z M8.464,7.05 C8.855,7.441 8.855,8.074 8.464,8.464 C6.512,10.417 6.512,13.583 8.464,15.535 C8.855,15.926 8.855,16.559 8.464,16.95 C8.074,17.34 7.441,17.34 7.05,16.95 C4.317,14.216 4.317,9.784 7.05,7.05 C7.441,6.66 8.074,6.66 8.464,7.05 Z M15.535,7.05 C15.926,6.66 16.559,6.66 16.95,7.05 C19.683,9.784 19.683,14.216 16.95,16.95 C16.559,17.34 15.926,17.34 15.535,16.95 C15.145,16.559 15.145,15.926 15.535,15.536 C17.488,13.583 17.488,10.417 15.535,8.464 C15.145,8.074 15.145,7.441 15.535,7.05 Z M12,11 C11.448,11 11,11.448 11,12 C11,12.552 11.448,13 12,13 C12.552,13 13,12.552 13,12 C13,11.448 12.552,11 12,11 Z"/>
</svg>
