<svg xmlns="http://www.w3.org/2000/svg" width="24" height="24" viewBox="0 0 24 24">
  <defs/>
  <path d="M12.114,1 C12.749,1 13.228,1 13.691,1.111 C14.099,1.209 14.49,1.37 14.847,1.589 C15.253,1.838 15.592,2.178 16.041,2.627 L16.113,2.699 L19.301,5.887 C19.326,5.911 19.35,5.935 19.373,5.959 C19.823,6.408 20.162,6.747 20.411,7.153 C20.63,7.511 20.792,7.901 20.889,8.309 C21.001,8.771 21,9.251 21,9.885 L21,17.241 C21,18.046 21,18.711 20.956,19.252 C20.91,19.814 20.811,20.331 20.564,20.816 C20.181,21.569 19.569,22.181 18.816,22.564 C18.331,22.811 17.814,22.91 17.252,22.956 C16.711,23 16.046,23 15.241,23 L8.759,23 C7.954,23 7.289,23 6.748,22.956 C6.186,22.91 5.669,22.811 5.184,22.564 C4.431,22.181 3.819,21.569 3.436,20.816 C3.189,20.331 3.09,19.814 3.044,19.252 C3,18.711 3,18.046 3,17.241 L3,6.759 C3,5.954 3,5.289 3.044,4.748 C3.09,4.186 3.189,3.669 3.436,3.184 C3.819,2.431 4.431,1.82 5.184,1.436 C5.669,1.189 6.186,1.09 6.748,1.044 C7.289,1 7.954,1 8.759,1 L12.012,1 C12.046,1 12.08,1 12.114,1 Z M13.224,3.055 C13.021,3.006 12.793,3 12.012,3 L8.8,3 C7.943,3 7.361,3.001 6.911,3.038 C6.473,3.073 6.248,3.138 6.092,3.218 C5.716,3.41 5.41,3.716 5.218,4.092 C5.138,4.248 5.073,4.473 5.038,4.911 C5.001,5.361 5,5.943 5,6.8 L5,17.2 C5,18.057 5.001,18.639 5.038,19.089 C5.073,19.527 5.138,19.752 5.218,19.908 C5.41,20.284 5.716,20.59 6.092,20.782 C6.248,20.862 6.473,20.927 6.911,20.962 C7.361,20.999 7.943,21 8.8,21 L15.2,21 C16.057,21 16.639,20.999 17.089,20.962 C17.527,20.927 17.752,20.862 17.908,20.782 C18.284,20.59 18.59,20.284 18.782,19.908 C18.862,19.752 18.927,19.527 18.962,19.089 C18.999,18.639 19,18.057 19,17.2 L19,9.988 C19,9.207 18.994,8.979 18.945,8.776 C18.896,8.572 18.815,8.377 18.705,8.198 C18.596,8.019 18.44,7.854 17.887,7.301 L14.699,4.113 C14.146,3.561 13.981,3.404 13.802,3.295 C13.623,3.185 13.428,3.104 13.224,3.055 Z M8.777,12 L15.223,12 C15.342,12 15.484,12 15.61,12.01 C15.755,12.022 15.963,12.052 16.181,12.164 C16.463,12.307 16.693,12.537 16.837,12.819 C16.948,13.037 16.978,13.245 16.99,13.39 C17,13.516 17,13.658 17,13.777 L17,17.223 C17,17.342 17,17.485 16.99,17.61 C16.978,17.755 16.948,17.963 16.837,18.181 C16.693,18.463 16.463,18.693 16.181,18.837 C15.963,18.948 15.755,18.978 15.61,18.99 C15.486,19 15.345,19 15.227,19 L8.773,19 C8.655,19 8.514,19 8.39,18.99 C8.245,18.978 8.037,18.948 7.819,18.837 C7.537,18.693 7.307,18.463 7.163,18.181 C7.052,17.963 7.022,17.755 7.01,17.61 C7,17.485 7,17.342 7,17.223 L7,17.223 L7,17.2 L7,13.8 L7,13.777 L7,13.777 C7,13.658 7,13.516 7.01,13.39 C7.022,13.245 7.052,13.037 7.163,12.819 C7.307,12.537 7.537,12.307 7.819,12.164 C8.037,12.052 8.245,12.022 8.39,12.01 C8.515,12 8.658,12 8.777,12 Z M9,14 L9,17 L15,17 L15,14 Z"/>
</svg>
