<svg xmlns="http://www.w3.org/2000/svg" width="24" height="24" viewBox="0 0 24 24">
  <defs/>
  <path d="M5.568,2 L6.4,2 L6.432,2 L6.432,2 C6.684,2 6.93,2 7.138,2.017 C7.367,2.036 7.637,2.08 7.908,2.218 C8.284,2.41 8.59,2.716 8.782,3.092 C8.92,3.363 8.964,3.633 8.983,3.862 C8.987,3.906 8.99,3.952 8.992,4 L17.008,4 C17.01,3.952 17.013,3.906 17.017,3.862 C17.036,3.633 17.08,3.363 17.218,3.092 C17.41,2.716 17.716,2.41 18.092,2.218 C18.363,2.08 18.633,2.036 18.862,2.017 C19.07,2 19.316,2 19.568,2 L20.432,2 C20.684,2 20.93,2 21.138,2.017 C21.367,2.036 21.637,2.08 21.908,2.218 C22.284,2.41 22.59,2.716 22.782,3.092 C22.92,3.363 22.964,3.633 22.983,3.862 C23,4.069 23,4.313 23,4.564 L23,5.436 C23,5.687 23,5.931 22.983,6.138 C22.964,6.367 22.92,6.637 22.782,6.908 C22.59,7.284 22.284,7.59 21.908,7.782 C21.637,7.92 21.367,7.964 21.138,7.983 C20.972,7.997 20.781,7.999 20.581,8 L19.431,16.056 C19.583,16.086 19.745,16.135 19.908,16.218 C20.284,16.41 20.59,16.716 20.782,17.092 C20.92,17.363 20.964,17.633 20.983,17.862 C21,18.069 21,18.313 21,18.564 L21,19.436 C21,19.687 21,19.931 20.983,20.138 C20.964,20.367 20.92,20.637 20.782,20.908 C20.59,21.284 20.284,21.59 19.908,21.782 C19.637,21.92 19.367,21.964 19.138,21.983 C18.931,22 18.687,22 18.436,22 L17.564,22 C17.313,22 17.069,22 16.862,21.983 C16.633,21.964 16.363,21.92 16.092,21.782 C15.716,21.59 15.41,21.284 15.218,20.908 C15.08,20.637 15.036,20.367 15.017,20.138 C15.013,20.094 15.01,20.048 15.008,20 L6.992,20 C6.99,20.048 6.987,20.094 6.983,20.138 C6.964,20.367 6.92,20.637 6.782,20.908 C6.59,21.284 6.284,21.59 5.908,21.782 C5.637,21.92 5.367,21.964 5.138,21.983 C4.931,22 4.687,22 4.436,22 L3.564,22 C3.313,22 3.069,22 2.862,21.983 C2.633,21.964 2.363,21.92 2.092,21.782 C1.716,21.59 1.41,21.284 1.218,20.908 C1.08,20.637 1.036,20.367 1.017,20.138 C1,19.93 1,19.684 1,19.432 L1,18.568 C1,18.316 1,18.07 1.017,17.862 C1.036,17.633 1.08,17.363 1.218,17.092 C1.41,16.716 1.716,16.41 2.092,16.218 C2.363,16.08 2.633,16.036 2.862,16.017 C3.057,16.001 3.285,16 3.52,16 L4.95,7.989 C4.92,7.987 4.891,7.985 4.862,7.983 C4.633,7.964 4.363,7.92 4.092,7.782 C3.716,7.59 3.41,7.284 3.218,6.908 C3.08,6.637 3.036,6.367 3.017,6.138 C3,5.93 3,5.684 3,5.432 L3,5.432 L3,5.4 L3,4.6 L3,4.568 L3,4.568 C3,4.316 3,4.07 3.017,3.862 C3.036,3.633 3.08,3.363 3.218,3.092 C3.41,2.716 3.716,2.41 4.092,2.218 C4.363,2.08 4.633,2.036 4.862,2.017 C5.07,2 5.316,2 5.568,2 Z M6.981,7.993 L5.537,16.08 C5.658,16.11 5.783,16.154 5.908,16.218 C6.284,16.41 6.59,16.716 6.782,17.092 C6.92,17.363 6.964,17.633 6.983,17.862 C6.987,17.906 6.99,17.952 6.992,18 L15.008,18 C15.01,17.952 15.013,17.906 15.017,17.862 C15.036,17.633 15.08,17.363 15.218,17.092 C15.41,16.716 15.716,16.41 16.092,16.218 C16.363,16.08 16.633,16.036 16.862,16.017 C17.028,16.003 17.219,16.001 17.418,16 L18.569,7.944 C18.416,7.914 18.254,7.865 18.092,7.782 C17.716,7.59 17.41,7.284 17.218,6.908 C17.08,6.637 17.036,6.367 17.017,6.138 C17.013,6.094 17.01,6.048 17.008,6 L8.992,6 C8.99,6.048 8.987,6.094 8.983,6.138 C8.964,6.367 8.92,6.637 8.782,6.908 C8.59,7.284 8.284,7.59 7.908,7.782 C7.637,7.92 7.367,7.964 7.138,7.983 C7.088,7.987 7.036,7.99 6.981,7.993 Z M6.16,6 L6.4,6 C6.697,6 6.859,5.999 6.975,5.99 C6.98,5.989 6.984,5.989 6.989,5.989 C6.989,5.984 6.989,5.98 6.99,5.975 C6.999,5.859 7,5.697 7,5.4 L7,4.6 C7,4.303 6.999,4.141 6.99,4.025 C6.989,4.02 6.989,4.016 6.989,4.011 C6.984,4.011 6.98,4.011 6.975,4.01 C6.859,4.001 6.697,4 6.4,4 L5.6,4 C5.303,4 5.141,4.001 5.025,4.01 C5.02,4.011 5.016,4.011 5.011,4.011 C5.011,4.016 5.011,4.02 5.01,4.025 C5.001,4.141 5,4.303 5,4.6 L5,5.4 C5,5.697 5.001,5.859 5.01,5.975 C5.011,5.98 5.011,5.984 5.011,5.989 C5.016,5.989 5.02,5.989 5.025,5.99 C5.141,5.999 5.303,6 5.6,6 L6.123,6 C6.136,6 6.148,6 6.16,6 Z M5,18.6 C5,18.303 4.999,18.141 4.99,18.025 C4.989,18.02 4.989,18.016 4.989,18.011 C4.984,18.011 4.98,18.011 4.975,18.01 C4.859,18.001 4.697,18 4.4,18 L4.377,18 Q4.358,18 4.34,18 L3.6,18 C3.303,18 3.141,18.001 3.025,18.01 C3.02,18.011 3.016,18.011 3.011,18.011 C3.011,18.016 3.011,18.02 3.01,18.025 C3.001,18.141 3,18.303 3,18.6 L3,19.4 C3,19.697 3.001,19.859 3.01,19.975 C3.011,19.98 3.011,19.984 3.011,19.989 C3.016,19.989 3.02,19.989 3.025,19.99 C3.141,19.999 3.303,20 3.6,20 L4.4,20 C4.697,20 4.859,19.999 4.975,19.99 C4.98,19.989 4.984,19.989 4.989,19.989 C4.989,19.984 4.989,19.98 4.99,19.975 C4.999,19.859 5,19.697 5,19.4 Z M19,5.4 C19,5.697 19.001,5.859 19.01,5.975 C19.011,5.98 19.011,5.984 19.011,5.989 C19.016,5.989 19.02,5.989 19.025,5.99 C19.141,5.999 19.303,6 19.6,6 L19.691,6 C19.706,6 19.72,6 19.734,6 L20.4,6 C20.697,6 20.859,5.999 20.975,5.99 C20.98,5.989 20.984,5.989 20.989,5.989 C20.989,5.984 20.989,5.98 20.99,5.975 C20.999,5.859 21,5.697 21,5.4 L21,4.6 C21,4.303 20.999,4.141 20.99,4.025 C20.989,4.02 20.989,4.016 20.989,4.011 C20.984,4.011 20.98,4.011 20.975,4.01 C20.859,4.001 20.697,4 20.4,4 L19.6,4 C19.303,4 19.141,4.001 19.025,4.01 C19.02,4.011 19.016,4.011 19.011,4.011 C19.011,4.016 19.011,4.02 19.01,4.025 C19.001,4.141 19,4.303 19,4.6 Z M17.6,18 C17.303,18 17.141,18.001 17.025,18.01 C17.02,18.011 17.016,18.011 17.011,18.011 C17.011,18.016 17.011,18.02 17.01,18.025 C17.001,18.141 17,18.303 17,18.6 L17,19.4 C17,19.697 17.001,19.859 17.01,19.975 C17.011,19.98 17.011,19.984 17.011,19.989 C17.016,19.989 17.02,19.989 17.025,19.99 C17.141,19.999 17.303,20 17.6,20 L18.4,20 C18.697,20 18.859,19.999 18.975,19.99 C18.98,19.989 18.984,19.989 18.989,19.989 C18.989,19.984 18.989,19.98 18.99,19.975 C18.999,19.859 19,19.697 19,19.4 L19,18.6 C19,18.303 18.999,18.141 18.99,18.025 C18.989,18.02 18.989,18.016 18.989,18.011 C18.984,18.011 18.98,18.011 18.975,18.01 C18.859,18.001 18.697,18 18.4,18 L17.6,18 Z"/>
</svg>
