<svg xmlns="http://www.w3.org/2000/svg" width="24" height="24" viewBox="0 0 24 24">
  <defs/>
  <path d="M17.998,4.081 C18.607,4.08 19.183,4.357 19.563,4.833 C19.865,5.212 19.938,5.667 19.969,6.005 C20,6.351 20,6.787 20,7.28 L20,16.72 C20,17.213 20,17.649 19.969,17.995 C19.938,18.333 19.865,18.788 19.563,19.167 C19.183,19.643 18.607,19.92 17.998,19.919 C17.513,19.919 17.112,19.691 16.829,19.504 C16.539,19.312 16.197,19.038 15.811,18.729 L9.909,14.007 C9.666,13.814 9.436,13.63 9.258,13.46 C9.068,13.278 8.853,13.036 8.728,12.702 C8.558,12.249 8.558,11.751 8.728,11.298 C8.853,10.964 9.068,10.722 9.258,10.54 C9.436,10.37 9.666,10.186 9.909,9.993 C9.918,9.985 9.928,9.977 9.937,9.97 L15.811,5.271 C16.197,4.962 16.539,4.688 16.829,4.496 C17.112,4.309 17.513,4.081 17.998,4.081 Z M17.932,6.165 C17.727,6.3 17.457,6.515 17.025,6.86 L11.186,11.531 C10.905,11.756 10.746,11.885 10.64,11.986 C10.635,11.991 10.63,11.996 10.626,12 C10.63,12.004 10.635,12.009 10.64,12.014 C10.746,12.115 10.905,12.244 11.186,12.469 L17.025,17.139 C17.457,17.485 17.727,17.7 17.932,17.835 C17.946,17.845 17.96,17.853 17.972,17.861 C17.974,17.847 17.975,17.831 17.977,17.814 C17.999,17.569 18,17.224 18,16.671 L18,7.329 C18,6.776 17.999,6.431 17.977,6.186 C17.975,6.169 17.974,6.153 17.972,6.139 C17.96,6.147 17.946,6.155 17.932,6.165 Z M5,4 C5.552,4 6,4.448 6,5 L6,19 C6,19.552 5.552,20 5,20 C4.448,20 4,19.552 4,19 L4,5 C4,4.448 4.448,4 5,4 Z"/>
</svg>
