<svg xmlns="http://www.w3.org/2000/svg" width="24" height="24" viewBox="0 0 24 24">
  <defs/>
  <path d="M4.437,4.833 C4.817,4.357 5.393,4.08 6.002,4.081 C6.487,4.081 6.888,4.309 7.171,4.496 C7.461,4.688 7.803,4.962 8.189,5.271 C8.201,5.28 8.213,5.289 8.224,5.299 L14.092,9.993 C14.334,10.186 14.564,10.37 14.742,10.54 C14.932,10.722 15.147,10.964 15.272,11.298 C15.442,11.751 15.442,12.249 15.272,12.702 C15.147,13.036 14.932,13.278 14.742,13.46 C14.564,13.63 14.334,13.814 14.091,14.007 L8.189,18.729 C7.803,19.038 7.461,19.312 7.171,19.504 C6.888,19.691 6.487,19.919 6.002,19.919 C5.393,19.92 4.817,19.643 4.437,19.167 C4.135,18.788 4.062,18.333 4.031,17.995 C4,17.648 4,17.21 4,16.715 L4,7.285 C4,6.79 4,6.352 4.031,6.005 C4.062,5.667 4.135,5.212 4.437,4.833 Z M6.028,6.139 C6.026,6.153 6.025,6.169 6.023,6.186 C6.001,6.431 6,6.776 6,7.329 L6,16.671 C6,17.224 6.001,17.569 6.023,17.814 C6.025,17.831 6.026,17.847 6.028,17.861 C6.04,17.853 6.054,17.845 6.068,17.835 C6.273,17.7 6.543,17.485 6.975,17.139 L12.814,12.469 C13.095,12.244 13.254,12.115 13.36,12.014 C13.365,12.009 13.37,12.004 13.374,12 C13.37,11.996 13.365,11.991 13.36,11.986 C13.254,11.885 13.095,11.756 12.814,11.531 L6.975,6.86 C6.543,6.515 6.273,6.3 6.068,6.165 C6.054,6.155 6.04,6.147 6.028,6.139 Z M19,4 C19.552,4 20,4.448 20,5 L20,19 C20,19.552 19.552,20 19,20 C18.448,20 18,19.552 18,19 L18,5 C18,4.448 18.448,4 19,4 Z"/>
</svg>
