<svg xmlns="http://www.w3.org/2000/svg" width="24" height="24" viewBox="0 0 24 24">
  <defs/>
  <path d="M1,12 C1,5.925 5.925,1 12,1 C18.075,1 23,5.925 23,12 C23,18.075 18.075,23 12,23 C5.925,23 1,18.075 1,12 Z M17.618,19.032 L12,13.414 L6.382,19.032 C7.922,20.264 9.875,21 12,21 C14.125,21 16.078,20.264 17.618,19.032 Z M19.032,6.382 L13.414,12 L19.032,17.618 C20.264,16.078 21,14.125 21,12 C21,9.875 20.264,7.922 19.032,6.382 Z M4.968,6.382 C3.736,7.922 3,9.875 3,12 C3,14.125 3.736,16.078 4.968,17.618 L10.586,12 Z M6.382,4.968 L12,10.586 L17.618,4.968 C16.078,3.736 14.125,3 12,3 C9.875,3 7.922,3.736 6.382,4.968 Z"/>
</svg>
