<svg xmlns="http://www.w3.org/2000/svg" width="24" height="24" viewBox="0 0 24 24">
  <defs/>
  <path d="M2,17.5 C2,15.015 4.015,13 6.5,13 C7.572,13 8.556,13.375 9.329,14 L18.5,14 C20.433,14 22,15.567 22,17.5 C22,19.433 20.433,21 18.5,21 L9.329,21 C8.556,21.625 7.572,22 6.5,22 C4.015,22 2,19.985 2,17.5 Z M14.671,3 C15.444,2.375 16.428,2 17.5,2 C19.985,2 22,4.015 22,6.5 C22,8.985 19.985,11 17.5,11 C16.428,11 15.444,10.625 14.671,10 L5.5,10 C3.567,10 2,8.433 2,6.5 C2,4.567 3.567,3 5.5,3 Z M13.256,5 L5.5,5 C4.672,5 4,5.672 4,6.5 C4,7.328 4.672,8 5.5,8 L13.256,8 C13.09,7.531 13,7.026 13,6.5 C13,5.974 13.09,5.469 13.256,5 Z M10.744,19 L18.5,19 C19.328,19 20,18.328 20,17.5 C20,16.672 19.328,16 18.5,16 L10.744,16 C10.91,16.469 11,16.974 11,17.5 C11,18.026 10.91,18.531 10.744,19 Z M17.5,4 C16.119,4 15,5.119 15,6.5 C15,7.881 16.119,9 17.5,9 C18.881,9 20,7.881 20,6.5 C20,5.119 18.881,4 17.5,4 Z M6.5,15 C5.119,15 4,16.119 4,17.5 C4,18.881 5.119,20 6.5,20 C7.881,20 9,18.881 9,17.5 C9,16.119 7.881,15 6.5,15 Z"/>
</svg>
