<svg xmlns="http://www.w3.org/2000/svg" width="24" height="24" viewBox="0 0 24 24">
  <defs/>
  <path d="M1,14 C1,13.448 1.448,13 2,13 L8,13 C8.552,13 9,13.448 9,14 C9,14.552 8.552,15 8,15 L6,15 L6,21 C6,21.552 5.552,22 5,22 C4.448,22 4,21.552 4,21 L4,15 L2,15 C1.448,15 1,14.552 1,14 Z M15,16 C15,15.448 15.448,15 16,15 L22,15 C22.552,15 23,15.448 23,16 C23,16.552 22.552,17 22,17 L20,17 L20,21 C20,21.552 19.552,22 19,22 C18.448,22 18,21.552 18,21 L18,17 L16,17 C15.448,17 15,16.552 15,16 Z M12,2 C12.552,2 13,2.448 13,3 L13,7 L15,7 C15.552,7 16,7.448 16,8 C16,8.552 15.552,9 15,9 L9,9 C8.448,9 8,8.552 8,8 C8,7.448 8.448,7 9,7 L11,7 L11,3 C11,2.448 11.448,2 12,2 Z M12,11 C12.552,11 13,11.448 13,12 L13,21 C13,21.552 12.552,22 12,22 C11.448,22 11,21.552 11,21 L11,12 C11,11.448 11.448,11 12,11 Z M19,2 C19.552,2 20,2.448 20,3 L20,12 C20,12.552 19.552,13 19,13 C18.448,13 18,12.552 18,12 L18,3 C18,2.448 18.448,2 19,2 Z M5,2 C5.552,2 6,2.448 6,3 L6,10 C6,10.552 5.552,11 5,11 C4.448,11 4,10.552 4,10 L4,3 C4,2.448 4.448,2 5,2 Z"/>
</svg>
