<svg xmlns="http://www.w3.org/2000/svg" width="24" height="24" viewBox="0 0 24 24">
  <defs/>
  <path d="M2,13 C2,11.343 3.343,10 5,10 C6.657,10 8,11.343 8,13 C8,14.306 7.165,15.417 6,15.829 L6,21 C6,21.552 5.552,22 5,22 C4.448,22 4,21.552 4,21 L4,15.829 C2.835,15.417 2,14.306 2,13 Z M16,15 C16,13.343 17.343,12 19,12 C20.657,12 22,13.343 22,15 C22,16.306 21.165,17.417 20,17.829 L20,21 C20,21.552 19.552,22 19,22 C18.448,22 18,21.552 18,21 L18,17.829 C16.835,17.417 16,16.306 16,15 Z M12,2 C12.552,2 13,2.448 13,3 L13,6.171 C14.165,6.583 15,7.694 15,9 C15,10.657 13.657,12 12,12 C10.343,12 9,10.657 9,9 C9,7.694 9.835,6.583 11,6.171 L11,3 C11,2.448 11.448,2 12,2 Z M12,14 C12.552,14 13,14.448 13,15 L13,21 C13,21.552 12.552,22 12,22 C11.448,22 11,21.552 11,21 L11,15 C11,14.448 11.448,14 12,14 Z M19,2 C19.552,2 20,2.448 20,3 L20,9 C20,9.552 19.552,10 19,10 C18.448,10 18,9.552 18,9 L18,3 C18,2.448 18.448,2 19,2 Z M5,2 C5.552,2 6,2.448 6,3 L6,7 C6,7.552 5.552,8 5,8 C4.448,8 4,7.552 4,7 L4,3 C4,2.448 4.448,2 5,2 Z M19,14 C18.448,14 18,14.448 18,15 C18,15.552 18.448,16 19,16 C19.552,16 20,15.552 20,15 C20,14.448 19.552,14 19,14 Z M12,8 C11.448,8 11,8.448 11,9 C11,9.552 11.448,10 12,10 C12.552,10 13,9.552 13,9 C13,8.448 12.552,8 12,8 Z M5,12 C4.448,12 4,12.448 4,13 C4,13.552 4.448,14 5,14 C5.552,14 6,13.552 6,13 C6,12.448 5.552,12 5,12 Z"/>
</svg>
