<svg xmlns="http://www.w3.org/2000/svg" width="24" height="24" viewBox="0 0 24 24">
  <defs/>
  <path d="M2,16 C2,13.791 3.791,12 6,12 C7.864,12 9.43,13.275 9.874,15 L21,15 C21.552,15 22,15.448 22,16 C22,16.552 21.552,17 21,17 L9.874,17 C9.43,18.725 7.864,20 6,20 C3.791,20 2,18.209 2,16 Z M14.126,7 C14.57,5.275 16.136,4 18,4 C20.209,4 22,5.791 22,8 C22,10.209 20.209,12 18,12 C16.136,12 14.57,10.725 14.126,9 L3,9 C2.448,9 2,8.552 2,8 C2,7.448 2.448,7 3,7 Z M18,6 C16.895,6 16,6.895 16,8 C16,9.105 16.895,10 18,10 C19.105,10 20,9.105 20,8 C20,6.895 19.105,6 18,6 Z M6,14 C4.895,14 4,14.895 4,16 C4,17.105 4.895,18 6,18 C7.105,18 8,17.105 8,16 C8,14.895 7.105,14 6,14 Z"/>
</svg>
