<svg xmlns="http://www.w3.org/2000/svg" width="24" height="24" viewBox="0 0 24 24">
  <defs/>
  <path d="M12,1 C12.552,1 13,1.448 13,2 L13,5.586 L16.293,2.293 C16.683,1.902 17.317,1.902 17.707,2.293 C18.098,2.683 18.098,3.317 17.707,3.707 L13,8.414 L13,11 L15.586,11 L20.293,6.293 C20.683,5.902 21.317,5.902 21.707,6.293 C22.098,6.683 22.098,7.317 21.707,7.707 L18.414,11 L22,11 C22.552,11 23,11.448 23,12 C23,12.552 22.552,13 22,13 L18.414,13 L21.707,16.293 C22.098,16.683 22.098,17.317 21.707,17.707 C21.317,18.098 20.683,18.098 20.293,17.707 L15.586,13 L13,13 L13,15.586 L17.707,20.293 C18.098,20.683 18.098,21.317 17.707,21.707 C17.317,22.098 16.683,22.098 16.293,21.707 L13,18.414 L13,22 C13,22.552 12.552,23 12,23 C11.448,23 11,22.552 11,22 L11,18.414 L7.707,21.707 C7.317,22.098 6.683,22.098 6.293,21.707 C5.902,21.317 5.902,20.683 6.293,20.293 L11,15.586 L11,13 L8.414,13 L3.707,17.707 C3.317,18.098 2.683,18.098 2.293,17.707 C1.902,17.317 1.902,16.683 2.293,16.293 L5.586,13 L2,13 C1.448,13 1,12.552 1,12 C1,11.448 1.448,11 2,11 L5.586,11 L2.293,7.707 C1.902,7.317 1.902,6.683 2.293,6.293 C2.683,5.902 3.317,5.902 3.707,6.293 L8.414,11 L11,11 L11,8.414 L6.293,3.707 C5.902,3.317 5.902,2.683 6.293,2.293 C6.683,1.902 7.317,1.902 7.707,2.293 L11,5.586 L11,2 C11,1.448 11.448,1 12,1 Z"/>
</svg>
