<svg xmlns="http://www.w3.org/2000/svg" width="24" height="24" viewBox="0 0 24 24">
  <defs/>
  <path d="M8.293,1.293 C8.683,0.902 9.317,0.902 9.707,1.293 L12,3.586 L14.293,1.293 C14.683,0.902 15.317,0.902 15.707,1.293 C16.098,1.683 16.098,2.317 15.707,2.707 L13,5.414 L13,10.268 L17.203,7.841 L18.194,4.143 C18.337,3.61 18.886,3.293 19.419,3.436 C19.952,3.579 20.269,4.127 20.126,4.661 L19.287,7.793 L22.419,8.632 C22.952,8.775 23.269,9.323 23.126,9.857 C22.983,10.39 22.435,10.707 21.901,10.564 L18.203,9.573 L14,12 L18.203,14.427 L21.901,13.436 C22.435,13.293 22.983,13.609 23.126,14.143 C23.269,14.677 22.952,15.225 22.419,15.368 L19.287,16.207 L20.126,19.339 C20.269,19.873 19.952,20.421 19.419,20.564 C18.886,20.707 18.337,20.39 18.194,19.857 L17.203,16.159 L13,13.732 L13,18.586 L15.707,21.293 C16.098,21.683 16.098,22.317 15.707,22.707 C15.317,23.098 14.683,23.098 14.293,22.707 L12,20.414 L9.707,22.707 C9.317,23.098 8.683,23.098 8.293,22.707 C7.902,22.317 7.902,21.683 8.293,21.293 L11,18.586 L11,13.732 L6.797,16.159 L5.806,19.857 C5.663,20.39 5.114,20.707 4.581,20.564 C4.047,20.421 3.731,19.873 3.874,19.339 L4.713,16.207 L1.581,15.368 C1.047,15.225 0.731,14.677 0.874,14.143 C1.017,13.61 1.565,13.293 2.099,13.436 L5.797,14.427 L10,12 L5.796,9.573 L2.099,10.564 C1.565,10.707 1.017,10.391 0.874,9.857 C0.731,9.324 1.048,8.775 1.581,8.632 L4.713,7.793 L3.874,4.661 C3.731,4.127 4.048,3.579 4.581,3.436 C5.115,3.293 5.663,3.61 5.806,4.143 L6.796,7.841 L11,10.268 L11,5.414 L8.293,2.707 C7.902,2.317 7.902,1.683 8.293,1.293 Z"/>
</svg>
