<svg xmlns="http://www.w3.org/2000/svg" width="24" height="24" viewBox="0 0 24 24">
  <defs/>
  <path d="M8,6.5 C8,5.948 8.448,5.5 9,5.5 L15,5.5 C15.552,5.5 16,5.948 16,6.5 C16,7.052 15.552,7.5 15,7.5 L13,7.5 L13,16.5 L15,16.5 C15.552,16.5 16,16.948 16,17.5 C16,18.052 15.552,18.5 15,18.5 L9,18.5 C8.448,18.5 8,18.052 8,17.5 C8,16.948 8.448,16.5 9,16.5 L11,16.5 L11,7.5 L9,7.5 C8.448,7.5 8,7.052 8,6.5 Z M2,21 C2,20.448 2.448,20 3,20 L21,20 C21.552,20 22,20.448 22,21 C22,21.552 21.552,22 21,22 L3,22 C2.448,22 2,21.552 2,21 Z M2,3 C2,2.448 2.448,2 3,2 L21,2 C21.552,2 22,2.448 22,3 C22,3.552 21.552,4 21,4 L3,4 C2.448,4 2,3.552 2,3 Z"/>
</svg>
