<svg xmlns="http://www.w3.org/2000/svg" width="24" height="24" viewBox="0 0 24 24">
  <defs/>
  <path d="M11.445,5.168 C11.781,4.944 12.219,4.944 12.555,5.168 L15.555,7.168 C16.014,7.474 16.138,8.095 15.832,8.555 C15.526,9.014 14.905,9.138 14.445,8.832 L13,7.869 L13,16.132 L14.445,15.168 C14.905,14.862 15.526,14.986 15.832,15.445 C16.138,15.905 16.014,16.526 15.555,16.832 L12.555,18.832 C12.219,19.056 11.781,19.056 11.445,18.832 L8.445,16.832 C7.986,16.526 7.862,15.905 8.168,15.445 C8.474,14.986 9.095,14.862 9.555,15.168 L11,16.132 L11,7.869 L9.555,8.832 C9.095,9.138 8.474,9.014 8.168,8.555 C7.862,8.095 7.986,7.474 8.445,7.168 Z M2,21 C2,20.448 2.448,20 3,20 L21,20 C21.552,20 22,20.448 22,21 C22,21.552 21.552,22 21,22 L3,22 C2.448,22 2,21.552 2,21 Z M2,3 C2,2.448 2.448,2 3,2 L21,2 C21.552,2 22,2.448 22,3 C22,3.552 21.552,4 21,4 L3,4 C2.448,4 2,3.552 2,3 Z"/>
</svg>
