<svg xmlns="http://www.w3.org/2000/svg" width="24" height="24" viewBox="0 0 24 24">
  <defs/>
  <path d="M8.555,8.168 C9.014,8.474 9.138,9.095 8.832,9.555 L7.869,11 L16.132,11 L15.168,9.555 C14.862,9.095 14.986,8.474 15.445,8.168 C15.905,7.862 16.526,7.986 16.832,8.445 L18.832,11.445 C19.056,11.781 19.056,12.219 18.832,12.555 L16.832,15.555 C16.526,16.014 15.905,16.138 15.445,15.832 C14.986,15.526 14.862,14.905 15.168,14.445 L16.132,13 L7.869,13 L8.832,14.445 C9.138,14.905 9.014,15.526 8.555,15.832 C8.095,16.138 7.474,16.014 7.168,15.555 L5.168,12.555 C4.944,12.219 4.944,11.781 5.168,11.445 L7.168,8.445 C7.474,7.986 8.095,7.862 8.555,8.168 Z M21,2 C21.552,2 22,2.448 22,3 L22,21 C22,21.552 21.552,22 21,22 C20.448,22 20,21.552 20,21 L20,3 C20,2.448 20.448,2 21,2 Z M3,2 C3.552,2 4,2.448 4,3 L4,21 C4,21.552 3.552,22 3,22 C2.448,22 2,21.552 2,21 L2,3 C2,2.448 2.448,2 3,2 Z"/>
</svg>
