<svg xmlns="http://www.w3.org/2000/svg" width="24" height="24" viewBox="0 0 24 24">
  <defs/>
  <path d="M6.5,8 C7.052,8 7.5,8.448 7.5,9 L7.5,11 L16.5,11 L16.5,9 C16.5,8.448 16.948,8 17.5,8 C18.052,8 18.5,8.448 18.5,9 L18.5,15 C18.5,15.552 18.052,16 17.5,16 C16.948,16 16.5,15.552 16.5,15 L16.5,13 L7.5,13 L7.5,15 C7.5,15.552 7.052,16 6.5,16 C5.948,16 5.5,15.552 5.5,15 L5.5,9 C5.5,8.448 5.948,8 6.5,8 Z M21,2 C21.552,2 22,2.448 22,3 L22,21 C22,21.552 21.552,22 21,22 C20.448,22 20,21.552 20,21 L20,3 C20,2.448 20.448,2 21,2 Z M3,2 C3.552,2 4,2.448 4,3 L4,21 C4,21.552 3.552,22 3,22 C2.448,22 2,21.552 2,21 L2,3 C2,2.448 2.448,2 3,2 Z"/>
</svg>
