<svg xmlns="http://www.w3.org/2000/svg" width="24" height="24" viewBox="0 0 24 24">
  <defs/>
  <path d="M16.241,1 L16.241,1 C17.046,1 17.711,1 18.252,1.044 C18.814,1.09 19.331,1.189 19.816,1.436 C20.569,1.819 21.181,2.431 21.564,3.184 C21.811,3.669 21.91,4.186 21.956,4.748 C22,5.289 22,5.954 22,6.759 L22,13.241 C22,14.046 22,14.711 21.956,15.252 C21.91,15.814 21.811,16.331 21.564,16.816 C21.181,17.569 20.569,18.181 19.816,18.564 C19.554,18.698 19.283,18.788 19,18.85 L19,20.436 C19,20.687 19,20.931 18.983,21.138 C18.964,21.367 18.92,21.637 18.782,21.908 C18.59,22.284 18.284,22.59 17.908,22.782 C17.637,22.92 17.367,22.964 17.138,22.983 C16.931,23 16.687,23 16.436,23 L7.564,23 C7.313,23 7.069,23 6.862,22.983 C6.633,22.964 6.363,22.92 6.092,22.782 C5.716,22.59 5.41,22.284 5.218,21.908 C5.08,21.637 5.036,21.367 5.017,21.138 C5,20.93 5,20.684 5,20.432 L5,18.85 C4.717,18.788 4.446,18.698 4.184,18.564 C3.431,18.181 2.819,17.569 2.436,16.816 C2.189,16.331 2.09,15.814 2.044,15.252 C2,14.711 2,14.046 2,13.241 L2,6.759 C2,5.954 2,5.289 2.044,4.748 C2.09,4.186 2.189,3.669 2.436,3.184 C2.819,2.431 3.431,1.819 4.184,1.436 C4.669,1.189 5.186,1.09 5.748,1.044 C6.289,1 6.954,1 7.759,1 L16.241,1 Z M5.911,3.038 C5.473,3.073 5.248,3.138 5.092,3.218 C4.716,3.41 4.41,3.716 4.218,4.092 C4.138,4.248 4.073,4.473 4.038,4.911 C4.001,5.361 4,5.943 4,6.8 L4,13.2 C4,14.057 4.001,14.639 4.038,15.089 C4.073,15.527 4.138,15.752 4.218,15.908 C4.41,16.284 4.716,16.59 5.092,16.782 C5.248,16.862 5.473,16.927 5.911,16.962 C6.361,16.999 6.943,17 7.8,17 L16.2,17 C17.057,17 17.639,16.999 18.089,16.962 C18.527,16.927 18.752,16.862 18.908,16.782 C19.284,16.59 19.59,16.284 19.782,15.908 C19.862,15.752 19.927,15.527 19.962,15.089 C19.999,14.639 20,14.057 20,13.2 L20,6.8 C20,5.943 19.999,5.361 19.962,4.911 C19.927,4.473 19.862,4.248 19.782,4.092 C19.59,3.716 19.284,3.41 18.908,3.218 C18.752,3.138 18.527,3.073 18.089,3.038 C17.639,3.001 17.057,3 16.2,3 L7.8,3 C6.943,3 6.361,3.001 5.911,3.038 Z M6,10 C6,6.686 8.686,4 12,4 C15.314,4 18,6.686 18,10 C18,13.314 15.314,16 12,16 C8.686,16 6,13.314 6,10 Z M12,6 C9.791,6 8,7.791 8,10 C8,12.209 9.791,14 12,14 C14.209,14 16,12.209 16,10 C16,7.791 14.209,6 12,6 Z M7,18.998 L7,20.4 C7,20.697 7.001,20.859 7.01,20.975 C7.011,20.98 7.011,20.984 7.011,20.989 C7.016,20.989 7.02,20.989 7.025,20.99 C7.141,20.999 7.303,21 7.6,21 L16.4,21 C16.697,21 16.859,20.999 16.975,20.99 C16.98,20.989 16.984,20.989 16.989,20.989 C16.989,20.984 16.989,20.98 16.99,20.975 C16.999,20.859 17,20.697 17,20.4 L17,18.998 C16.762,19 16.51,19 16.241,19 L7.759,19 C7.49,19 7.238,19 7,18.998 Z M10.5,10 C10.5,9.172 11.172,8.5 12,8.5 C12.828,8.5 13.5,9.172 13.5,10 C13.5,10.828 12.828,11.5 12,11.5 C11.172,11.5 10.5,10.828 10.5,10 Z"/>
</svg>
