<svg xmlns="http://www.w3.org/2000/svg" width="24" height="24" viewBox="0 0 24 24">
  <defs/>
  <path d="M1,12 C1,5.925 5.925,1 12,1 C18.075,1 23,5.925 23,12 C23,18.075 18.075,23 12,23 C5.925,23 1,18.075 1,12 Z M12,3 C7.029,3 3,7.029 3,12 C3,16.971 7.029,21 12,21 C16.971,21 21,16.971 21,12 C21,7.029 16.971,3 12,3 Z M12,6 C8.686,6 6,8.686 6,12 C6,13.276 6.397,14.456 7.075,15.428 C7.391,15.881 7.28,16.504 6.827,16.82 C6.374,17.136 5.75,17.025 5.435,16.572 C4.53,15.276 4,13.698 4,12 C4,7.582 7.582,4 12,4 C12.481,4 12.953,4.043 13.413,4.124 C13.956,4.221 14.318,4.741 14.222,5.285 C14.125,5.828 13.605,6.19 13.061,6.093 C12.718,6.032 12.363,6 12,6 Z M17.207,6.793 C17.597,7.183 17.597,7.817 17.207,8.207 L13.932,11.482 C13.976,11.647 14,11.821 14,12 C14,13.105 13.105,14 12,14 C10.895,14 10,13.105 10,12 C10,10.895 10.895,10 12,10 C12.179,10 12.353,10.024 12.518,10.068 L15.793,6.793 C16.183,6.402 16.816,6.402 17.207,6.793 Z M18.626,9.523 C19.165,9.405 19.698,9.747 19.816,10.287 C19.937,10.84 20,11.413 20,12 C20,13.698 19.47,15.276 18.566,16.572 C18.25,17.025 17.626,17.136 17.173,16.82 C16.72,16.504 16.609,15.881 16.925,15.428 C17.603,14.456 18,13.276 18,12 C18,11.557 17.952,11.127 17.862,10.713 C17.744,10.174 18.086,9.641 18.626,9.523 Z"/>
</svg>
