<svg xmlns="http://www.w3.org/2000/svg" width="24" height="24" viewBox="0 0 24 24">
  <defs/>
  <path d="M19.885,19.67 C19.855,19.71 19.822,19.749 19.785,19.785 C19.749,19.822 19.71,19.855 19.67,19.885 C17.689,21.813 14.983,23 12,23 C9.017,23 6.311,21.813 4.33,19.885 C4.289,19.855 4.251,19.822 4.215,19.785 C4.178,19.749 4.145,19.711 4.115,19.67 C2.187,17.689 1,14.983 1,12 C1,5.925 5.925,1 12,1 C18.075,1 23,5.925 23,12 C23,14.983 21.813,17.689 19.885,19.67 Z M3.055,11 L4.5,11 C5.052,11 5.5,11.448 5.5,12 C5.5,12.552 5.052,13 4.5,13 L3.055,13 C3.247,14.737 3.933,16.325 4.97,17.62 C5.354,17.246 5.678,16.962 6.044,16.737 C6.492,16.463 6.979,16.261 7.49,16.138 C8.067,16 8.668,16 9.536,16 L14.463,16 C15.332,16 15.933,16 16.51,16.138 C17.021,16.261 17.508,16.463 17.956,16.737 C18.322,16.961 18.646,17.246 19.03,17.62 C20.067,16.325 20.753,14.737 20.945,13 L19.5,13 C18.948,13 18.5,12.552 18.5,12 C18.5,11.448 18.948,11 19.5,11 L20.945,11 C20.755,9.281 20.081,7.708 19.062,6.42 L14.71,10.711 C14.896,11.102 15,11.539 15,12 C15,13.657 13.657,15 12,15 C10.343,15 9,13.657 9,12 C9,10.343 10.343,9 12,9 C12.465,9 12.905,9.106 13.298,9.295 L17.656,4.999 C16.354,3.946 14.753,3.249 13,3.055 L13,4.5 C13,5.052 12.552,5.5 12,5.5 C11.448,5.5 11,5.052 11,4.5 L11,3.055 C9.245,3.249 7.642,3.948 6.339,5.003 L7.365,6.029 C7.756,6.42 7.756,7.053 7.365,7.444 C6.975,7.834 6.341,7.834 5.951,7.444 L4.933,6.426 C3.917,7.713 3.245,9.284 3.055,11 Z M17.615,19.034 C17.283,18.713 17.103,18.56 16.911,18.442 C16.642,18.278 16.35,18.156 16.044,18.083 C15.725,18.006 15.375,18 14.349,18 L9.651,18 C8.625,18 8.275,18.007 7.957,18.083 C7.65,18.156 7.358,18.278 7.089,18.442 C6.897,18.56 6.717,18.713 6.385,19.034 C7.924,20.264 9.876,21 12,21 C14.124,21 16.076,20.264 17.615,19.034 Z M12,11 C11.448,11 11,11.448 11,12 C11,12.552 11.448,13 12,13 C12.552,13 13,12.552 13,12 C13,11.448 12.552,11 12,11 Z"/>
</svg>
