<svg xmlns="http://www.w3.org/2000/svg" width="24" height="24" viewBox="0 0 24 24">
  <defs/>
  <path d="M1,12 C1,5.925 5.925,1 12,1 C18.075,1 23,5.925 23,12 C23,18.075 18.075,23 12,23 C5.925,23 1,18.075 1,12 Z M12,3 C7.029,3 3,7.029 3,12 C3,16.971 7.029,21 12,21 C16.971,21 21,16.971 21,12 C21,7.029 16.971,3 12,3 Z M12,6 C8.686,6 6,8.686 6,12 C6,12.552 5.552,13 5,13 C4.448,13 4,12.552 4,12 C4,7.582 7.582,4 12,4 C12.552,4 13,4.448 13,5 C13,5.552 12.552,6 12,6 Z M17.207,6.793 C17.597,7.183 17.597,7.817 17.207,8.207 L13.932,11.482 C13.976,11.647 14,11.821 14,12 C14,13.105 13.105,14 12,14 C10.895,14 10,13.105 10,12 C10,10.895 10.895,10 12,10 C12.179,10 12.353,10.024 12.518,10.068 L15.793,6.793 C16.183,6.402 16.816,6.402 17.207,6.793 Z"/>
</svg>
