<svg xmlns="http://www.w3.org/2000/svg" width="24" height="24" viewBox="0 0 24 24">
  <defs/>
  <path d="M19.885,19.67 C19.855,19.71 19.822,19.749 19.785,19.785 C19.749,19.822 19.71,19.855 19.67,19.885 C17.689,21.813 14.983,23 12,23 C9.017,23 6.311,21.813 4.33,19.885 C4.289,19.855 4.251,19.822 4.215,19.785 C4.178,19.749 4.145,19.711 4.115,19.67 C2.187,17.689 1,14.983 1,12 C1,5.925 5.925,1 12,1 C18.075,1 23,5.925 23,12 C23,14.983 21.813,17.689 19.885,19.67 Z M3.055,11 L4.5,11 C5.052,11 5.5,11.448 5.5,12 C5.5,12.552 5.052,13 4.5,13 L3.055,13 C3.247,14.736 3.932,16.323 4.968,17.618 L5.99,16.596 C6.381,16.205 7.014,16.205 7.404,16.596 C7.795,16.986 7.795,17.619 7.404,18.01 L6.382,19.032 C7.677,20.068 9.264,20.753 11,20.945 L11,19.5 C11,18.948 11.448,18.5 12,18.5 C12.552,18.5 13,18.948 13,19.5 L13,20.945 C14.736,20.753 16.323,20.068 17.618,19.032 L16.598,18.012 C16.207,17.621 16.207,16.988 16.598,16.598 C16.988,16.207 17.621,16.207 18.012,16.598 L19.032,17.618 C20.068,16.323 20.753,14.736 20.945,13 L19.5,13 C18.948,13 18.5,12.552 18.5,12 C18.5,11.448 18.948,11 19.5,11 L20.945,11 C20.755,9.281 20.081,7.708 19.062,6.42 L14.71,10.711 C14.896,11.102 15,11.539 15,12 C15,13.657 13.657,15 12,15 C10.343,15 9,13.657 9,12 C9,10.343 10.343,9 12,9 C12.465,9 12.905,9.106 13.298,9.295 L17.656,4.999 C16.354,3.946 14.753,3.249 13,3.055 L13,4.5 C13,5.052 12.552,5.5 12,5.5 C11.448,5.5 11,5.052 11,4.5 L11,3.055 C9.245,3.249 7.642,3.948 6.339,5.003 L7.365,6.029 C7.756,6.42 7.756,7.053 7.365,7.444 C6.975,7.834 6.341,7.834 5.951,7.444 L4.933,6.426 C3.917,7.713 3.245,9.284 3.055,11 Z M12,11 C11.448,11 11,11.448 11,12 C11,12.552 11.448,13 12,13 C12.552,13 13,12.552 13,12 C13,11.448 12.552,11 12,11 Z"/>
</svg>
