<svg xmlns="http://www.w3.org/2000/svg" width="24" height="24" viewBox="0 0 24 24">
  <defs/>
  <path d="M12,6 C12.381,6 12.728,6.216 12.897,6.557 L14.209,9.216 L17.145,9.646 C17.521,9.701 17.834,9.965 17.951,10.327 C18.069,10.689 17.97,11.086 17.698,11.351 L15.575,13.419 L16.076,16.341 C16.14,16.716 15.986,17.095 15.678,17.319 C15.37,17.543 14.962,17.572 14.625,17.395 L12,16.015 L9.375,17.395 C9.039,17.572 8.63,17.543 8.322,17.319 C8.014,17.095 7.86,16.716 7.924,16.341 L8.425,13.419 L6.302,11.351 C6.03,11.086 5.931,10.689 6.049,10.327 C6.166,9.965 6.479,9.701 6.855,9.646 L9.791,9.216 L11.103,6.557 C11.272,6.216 11.619,6 12,6 Z M12,9.259 L11.352,10.573 C11.206,10.868 10.925,11.072 10.6,11.12 L9.148,11.332 L10.198,12.354 C10.434,12.583 10.541,12.915 10.486,13.239 L10.238,14.682 L11.535,14 C11.826,13.847 12.174,13.847 12.465,14 L13.762,14.682 L13.514,13.239 C13.459,12.915 13.566,12.583 13.802,12.354 L14.852,11.332 L13.4,11.12 C13.075,11.072 12.794,10.868 12.648,10.573 Z M19.778,4.222 C20.169,4.612 20.169,5.246 19.778,5.636 L18.364,7.05 C17.973,7.441 17.34,7.441 16.95,7.05 C16.559,6.66 16.559,6.027 16.95,5.636 L18.364,4.222 C18.754,3.831 19.388,3.831 19.778,4.222 Z M16.95,16.95 C17.34,16.559 17.973,16.559 18.364,16.95 L19.778,18.364 C20.169,18.754 20.169,19.388 19.778,19.778 C19.388,20.169 18.754,20.169 18.364,19.778 L16.95,18.364 C16.559,17.973 16.559,17.34 16.95,16.95 Z M12,19 C12.552,19 13,19.448 13,20 L13,22 C13,22.552 12.552,23 12,23 C11.448,23 11,22.552 11,22 L11,20 C11,19.448 11.448,19 12,19 Z M19,12 C19,11.448 19.448,11 20,11 L22,11 C22.552,11 23,11.448 23,12 C23,12.552 22.552,13 22,13 L20,13 C19.448,13 19,12.552 19,12 Z M4.222,4.222 C4.612,3.831 5.245,3.831 5.636,4.222 L7.05,5.636 C7.441,6.027 7.441,6.66 7.05,7.05 C6.66,7.441 6.026,7.441 5.636,7.05 L4.222,5.636 C3.831,5.246 3.831,4.612 4.222,4.222 Z M12,1 C12.552,1 13,1.448 13,2 L13,4 C13,4.552 12.552,5 12,5 C11.448,5 11,4.552 11,4 L11,2 C11,1.448 11.448,1 12,1 Z M1,12 C1,11.448 1.448,11 2,11 L4,11 C4.552,11 5,11.448 5,12 C5,12.552 4.552,13 4,13 L2,13 C1.448,13 1,12.552 1,12 Z M7.05,16.95 C7.441,17.34 7.441,17.973 7.05,18.364 L5.636,19.778 C5.245,20.169 4.612,20.169 4.222,19.778 C3.831,19.388 3.831,18.754 4.222,18.364 L5.636,16.95 C6.026,16.559 6.66,16.559 7.05,16.95 Z"/>
</svg>
