<svg xmlns="http://www.w3.org/2000/svg" width="24" height="24" viewBox="0 0 24 24">
  <defs/>
  <path d="M15,1 C15.414,1 15.785,1.255 15.933,1.641 L17.112,4.705 C17.412,5.486 17.507,5.712 17.636,5.893 C17.765,6.075 17.925,6.235 18.107,6.364 C18.288,6.493 18.514,6.588 19.295,6.888 L22.359,8.067 C22.745,8.215 23,8.586 23,9 C23,9.414 22.745,9.785 22.359,9.933 L19.295,11.112 C18.514,11.412 18.288,11.507 18.107,11.636 C17.925,11.765 17.765,11.925 17.636,12.107 C17.507,12.288 17.412,12.514 17.112,13.295 L15.933,16.359 C15.785,16.745 15.414,17 15,17 C14.586,17 14.215,16.745 14.067,16.359 L12.888,13.295 C12.588,12.514 12.493,12.288 12.364,12.107 C12.234,11.925 12.075,11.765 11.893,11.636 C11.712,11.507 11.486,11.412 10.705,11.112 L7.641,9.933 C7.255,9.785 7,9.414 7,9 C7,8.586 7.255,8.215 7.641,8.067 L10.705,6.888 C11.486,6.588 11.712,6.493 11.893,6.364 C12.075,6.235 12.234,6.075 12.364,5.893 C12.493,5.712 12.588,5.486 12.888,4.705 L14.067,1.641 C14.215,1.255 14.586,1 15,1 Z M6.5,12 C6.879,12 7.225,12.214 7.394,12.553 L8.179,14.122 C8.461,14.687 8.547,14.849 8.652,14.985 C8.757,15.121 8.879,15.243 9.015,15.348 C9.151,15.453 9.313,15.539 9.878,15.821 L11.447,16.606 C11.786,16.775 12,17.121 12,17.5 C12,17.879 11.786,18.225 11.447,18.394 L9.878,19.179 C9.313,19.461 9.151,19.548 9.015,19.652 C8.879,19.757 8.757,19.879 8.652,20.015 C8.547,20.151 8.461,20.313 8.179,20.878 L7.394,22.447 C7.225,22.786 6.879,23 6.5,23 C6.121,23 5.775,22.786 5.606,22.447 L4.821,20.878 C4.539,20.313 4.453,20.151 4.348,20.015 C4.243,19.879 4.121,19.757 3.985,19.652 C3.849,19.548 3.687,19.461 3.122,19.179 L1.553,18.394 C1.214,18.225 1,17.879 1,17.5 C1,17.121 1.214,16.775 1.553,16.606 L3.122,15.821 C3.687,15.539 3.849,15.453 3.985,15.348 C4.121,15.243 4.243,15.121 4.348,14.985 C4.453,14.849 4.539,14.687 4.821,14.122 L5.606,12.553 C5.775,12.214 6.121,12 6.5,12 Z M15,4.786 L14.755,5.423 C14.741,5.458 14.728,5.492 14.715,5.525 C14.472,6.16 14.288,6.639 13.994,7.052 C13.735,7.417 13.417,7.735 13.052,7.994 C12.639,8.288 12.16,8.472 11.526,8.715 C11.492,8.728 11.458,8.741 11.423,8.755 L10.786,9 L11.423,9.245 C11.458,9.259 11.492,9.272 11.526,9.285 C12.16,9.528 12.639,9.712 13.052,10.006 C13.417,10.265 13.735,10.583 13.994,10.948 C14.288,11.361 14.472,11.84 14.715,12.474 C14.728,12.508 14.741,12.542 14.755,12.577 L15,13.214 L15.245,12.577 C15.259,12.542 15.272,12.508 15.285,12.474 C15.528,11.84 15.712,11.361 16.006,10.948 C16.265,10.583 16.583,10.265 16.948,10.006 C17.361,9.712 17.84,9.528 18.475,9.285 C18.508,9.272 18.542,9.259 18.577,9.245 L19.214,9 L18.577,8.755 C18.542,8.741 18.508,8.728 18.475,8.715 C17.84,8.472 17.361,8.288 16.948,7.994 C16.583,7.735 16.265,7.417 16.006,7.052 C15.712,6.639 15.528,6.16 15.285,5.525 C15.272,5.492 15.259,5.458 15.245,5.423 Z M6.5,15.236 C6.305,15.625 6.144,15.931 5.932,16.206 C5.722,16.478 5.478,16.722 5.206,16.932 C4.931,17.144 4.625,17.305 4.236,17.5 C4.625,17.695 4.931,17.856 5.206,18.068 C5.478,18.278 5.722,18.522 5.932,18.794 C6.144,19.069 6.305,19.375 6.5,19.764 C6.695,19.375 6.856,19.069 7.068,18.794 C7.278,18.522 7.522,18.278 7.794,18.068 C8.069,17.856 8.375,17.695 8.764,17.5 C8.375,17.305 8.069,17.144 7.794,16.932 C7.522,16.722 7.278,16.478 7.068,16.206 C6.856,15.931 6.695,15.625 6.5,15.236 Z"/>
</svg>
