<svg xmlns="http://www.w3.org/2000/svg" width="24" height="24" viewBox="0 0 24 24">
  <defs/>
  <path d="M17,11 C17.379,11 17.725,11.214 17.894,11.553 L18.846,13.455 C19.128,14.02 19.214,14.183 19.319,14.318 C19.424,14.454 19.546,14.576 19.682,14.681 C19.817,14.786 19.98,14.872 20.545,15.154 L22.447,16.106 C22.786,16.275 23,16.621 23,17 C23,17.379 22.786,17.725 22.447,17.894 L20.545,18.846 C19.98,19.128 19.817,19.214 19.682,19.319 C19.546,19.424 19.424,19.546 19.319,19.682 C19.214,19.817 19.128,19.98 18.846,20.545 L17.894,22.447 C17.725,22.786 17.379,23 17,23 C16.621,23 16.275,22.786 16.106,22.447 L15.154,20.545 C14.872,19.98 14.786,19.817 14.681,19.682 C14.576,19.546 14.454,19.424 14.318,19.319 C14.183,19.214 14.02,19.128 13.455,18.846 L11.553,17.894 C11.214,17.725 11,17.379 11,17 C11,16.621 11.214,16.275 11.553,16.106 L13.455,15.154 C14.02,14.872 14.183,14.786 14.318,14.681 C14.454,14.576 14.576,14.454 14.681,14.318 C14.786,14.183 14.872,14.02 15.154,13.455 L16.106,11.553 C16.275,11.214 16.621,11 17,11 Z M6.5,1 C6.879,1 7.225,1.214 7.394,1.553 L8.179,3.122 C8.461,3.687 8.547,3.849 8.652,3.985 C8.757,4.121 8.879,4.243 9.015,4.348 C9.151,4.453 9.313,4.539 9.878,4.821 L11.447,5.606 C11.786,5.775 12,6.121 12,6.5 C12,6.879 11.786,7.225 11.447,7.394 L9.878,8.179 C9.313,8.461 9.151,8.547 9.015,8.652 C8.879,8.757 8.757,8.879 8.652,9.015 C8.547,9.151 8.461,9.313 8.179,9.878 L7.394,11.447 C7.225,11.786 6.879,12 6.5,12 C6.121,12 5.775,11.786 5.606,11.447 L4.821,9.878 C4.539,9.313 4.453,9.151 4.348,9.015 C4.243,8.879 4.121,8.757 3.985,8.652 C3.849,8.547 3.687,8.461 3.122,8.179 L1.553,7.394 C1.214,7.225 1,6.879 1,6.5 C1,6.121 1.214,5.775 1.553,5.606 L3.122,4.821 C3.687,4.539 3.849,4.453 3.985,4.348 C4.121,4.243 4.243,4.121 4.348,3.985 C4.453,3.849 4.539,3.687 4.821,3.122 L5.606,1.553 C5.775,1.214 6.121,1 6.5,1 Z M5.5,15 C6.052,15 6.5,15.448 6.5,16 L6.5,17.5 L8,17.5 C8.552,17.5 9,17.948 9,18.5 C9,19.052 8.552,19.5 8,19.5 L6.5,19.5 L6.5,21 C6.5,21.552 6.052,22 5.5,22 C4.948,22 4.5,21.552 4.5,21 L4.5,19.5 L3,19.5 C2.448,19.5 2,19.052 2,18.5 C2,17.948 2.448,17.5 3,17.5 L4.5,17.5 L4.5,16 C4.5,15.448 4.948,15 5.5,15 Z M18.5,2 C19.052,2 19.5,2.448 19.5,3 L19.5,4.5 L21,4.5 C21.552,4.5 22,4.948 22,5.5 C22,6.052 21.552,6.5 21,6.5 L19.5,6.5 L19.5,8 C19.5,8.552 19.052,9 18.5,9 C17.948,9 17.5,8.552 17.5,8 L17.5,6.5 L16,6.5 C15.448,6.5 15,6.052 15,5.5 C15,4.948 15.448,4.5 16,4.5 L17.5,4.5 L17.5,3 C17.5,2.448 17.948,2 18.5,2 Z M17,14.236 L16.943,14.349 C16.931,14.374 16.919,14.399 16.907,14.423 C16.677,14.883 16.503,15.231 16.265,15.539 C16.056,15.811 15.811,16.056 15.539,16.265 C15.231,16.503 14.883,16.677 14.423,16.907 C14.399,16.919 14.374,16.931 14.349,16.943 L14.236,17 L14.349,17.057 C14.374,17.069 14.399,17.081 14.423,17.093 C14.883,17.323 15.231,17.497 15.539,17.735 C15.811,17.944 16.056,18.188 16.265,18.461 C16.503,18.769 16.677,19.117 16.907,19.577 C16.919,19.601 16.931,19.626 16.943,19.65 L17,19.764 L17.057,19.65 C17.069,19.626 17.081,19.601 17.093,19.577 C17.323,19.117 17.497,18.769 17.735,18.461 C17.944,18.188 18.188,17.944 18.461,17.735 C18.769,17.497 19.117,17.323 19.577,17.093 C19.601,17.081 19.626,17.069 19.65,17.057 L19.764,17 L19.65,16.943 C19.626,16.931 19.601,16.919 19.577,16.907 C19.117,16.677 18.769,16.503 18.461,16.265 C18.188,16.056 17.944,15.811 17.735,15.539 C17.497,15.231 17.323,14.883 17.093,14.423 C17.081,14.399 17.069,14.374 17.057,14.349 Z M6.5,4.236 C6.305,4.625 6.144,4.931 5.932,5.206 C5.722,5.478 5.478,5.722 5.206,5.932 C4.931,6.144 4.625,6.305 4.236,6.5 C4.625,6.695 4.931,6.856 5.206,7.068 C5.478,7.278 5.722,7.522 5.932,7.794 C6.144,8.069 6.305,8.375 6.5,8.764 C6.695,8.375 6.856,8.069 7.068,7.794 C7.278,7.522 7.522,7.278 7.794,7.068 C8.069,6.856 8.375,6.695 8.764,6.5 C8.375,6.305 8.069,6.144 7.794,5.932 C7.522,5.722 7.278,5.478 7.068,5.206 C6.856,4.931 6.695,4.625 6.5,4.236 Z"/>
</svg>
