<svg width="24" height="24" viewBox="0 0 24 24" fill="none" xmlns="http://www.w3.org/2000/svg">
<path d="M11.5106 1.71198C11.8804 1.58433 12.2881 1.60612 12.6453 1.77643C12.998 1.94462 13.1926 2.23616 13.2908 2.39655C13.3975 2.5707 13.5077 2.79532 13.6141 3.0108L15.7537 7.34577L20.5418 8.04694C20.7795 8.08167 21.027 8.11642 21.2254 8.16412C21.4083 8.20811 21.7458 8.30338 22.0145 8.58698C22.3255 8.91533 22.4721 9.3671 22.4129 9.81549C22.3615 10.2027 22.1434 10.4784 22.0213 10.6212C21.8886 10.7762 21.7089 10.9498 21.5369 11.1173L18.074 14.4893L18.8914 19.253C18.9321 19.4899 18.9749 19.7369 18.991 19.9405C19.0059 20.1281 19.0203 20.4791 18.8338 20.8223C18.6178 21.2196 18.2336 21.4987 17.7889 21.5811C17.4045 21.6522 17.0748 21.5301 16.9012 21.4581C16.7126 21.3798 16.4918 21.2623 16.2791 21.1505L11.9998 18.8995L7.72053 21.1505C7.50791 21.2623 7.287 21.3798 7.09846 21.4581C6.92479 21.5301 6.59506 21.6523 6.21077 21.5811C5.76609 21.4987 5.38182 21.2197 5.16585 20.8223C4.9794 20.4791 4.9938 20.1281 5.00862 19.9405C5.02474 19.7369 5.06759 19.4899 5.10823 19.253L5.92464 14.4893L2.46272 11.1173C2.29072 10.9497 2.11107 10.7762 1.97835 10.6212C1.85623 10.4784 1.63813 10.2027 1.58674 9.81549C1.52754 9.36718 1.67427 8.91532 1.98518 8.58698C2.25375 8.30351 2.59133 8.20814 2.77424 8.16412C2.97261 8.11642 3.22024 8.08166 3.45784 8.04694L8.24495 7.34577L10.3856 3.0108C10.4919 2.79538 10.6022 2.57069 10.7088 2.39655C10.807 2.23621 11.0018 1.94465 11.3543 1.77643L11.5106 1.71198Z" fill="black"/>
</svg>
