<svg xmlns="http://www.w3.org/2000/svg" width="24" height="24" viewBox="0 0 24 24">
  <defs/>
  <path d="M11.365,1.725 C11.767,1.538 12.232,1.538 12.634,1.725 C12.978,1.886 13.173,2.163 13.274,2.32 C13.375,2.479 13.48,2.681 13.581,2.875 C13.586,2.885 13.592,2.895 13.597,2.905 L15.041,5.685 L18.148,5.074 C18.362,5.032 18.586,4.988 18.773,4.969 C18.959,4.949 19.297,4.929 19.637,5.098 C20.035,5.295 20.324,5.658 20.428,6.09 C20.517,6.459 20.422,6.784 20.362,6.961 C20.301,7.139 20.209,7.347 20.12,7.547 L18.833,10.44 L21.248,12.489 C21.415,12.63 21.588,12.777 21.72,12.912 C21.851,13.045 22.078,13.297 22.158,13.668 C22.251,14.102 22.148,14.554 21.875,14.905 C21.642,15.205 21.329,15.333 21.153,15.396 C20.976,15.46 20.756,15.517 20.544,15.572 L17.48,16.37 L17.384,19.535 C17.377,19.754 17.37,19.981 17.347,20.168 C17.325,20.353 17.27,20.688 17.029,20.982 C16.748,21.325 16.33,21.527 15.886,21.532 C15.506,21.537 15.21,21.372 15.052,21.274 C14.891,21.175 14.709,21.039 14.534,20.907 L12,19.009 L9.465,20.907 C9.29,21.039 9.108,21.175 8.947,21.274 C8.789,21.372 8.493,21.537 8.113,21.532 C7.669,21.527 7.251,21.325 6.97,20.982 C6.73,20.688 6.674,20.353 6.652,20.168 C6.629,19.981 6.622,19.754 6.615,19.535 L6.519,16.37 L3.455,15.572 C3.243,15.517 3.023,15.46 2.846,15.396 C2.671,15.333 2.357,15.205 2.124,14.905 C1.851,14.554 1.748,14.102 1.841,13.668 C1.921,13.297 2.148,13.045 2.279,12.912 C2.411,12.777 2.584,12.63 2.751,12.489 C2.76,12.481 2.769,12.474 2.778,12.466 L5.166,10.44 L3.893,7.578 C3.889,7.568 3.884,7.557 3.879,7.547 C3.79,7.347 3.698,7.139 3.637,6.961 C3.577,6.784 3.482,6.459 3.571,6.09 C3.675,5.658 3.965,5.295 4.362,5.098 C4.702,4.929 5.04,4.949 5.226,4.969 C5.414,4.988 5.637,5.032 5.851,5.074 C5.863,5.076 5.874,5.079 5.885,5.081 L8.958,5.685 L10.402,2.905 C10.408,2.895 10.413,2.885 10.418,2.875 C10.519,2.681 10.624,2.479 10.726,2.32 C10.826,2.163 11.021,1.886 11.365,1.725 Z M12,4.169 L10.664,6.74 C10.658,6.75 10.652,6.763 10.645,6.777 C10.577,6.911 10.437,7.189 10.203,7.389 C10.006,7.557 9.769,7.671 9.515,7.72 C9.213,7.779 8.908,7.715 8.761,7.684 C8.745,7.681 8.731,7.678 8.72,7.676 L5.877,7.117 L7.054,9.764 C7.059,9.775 7.065,9.788 7.072,9.802 C7.134,9.939 7.264,10.222 7.274,10.53 C7.283,10.788 7.224,11.045 7.104,11.274 C6.962,11.547 6.722,11.746 6.606,11.842 C6.594,11.852 6.583,11.861 6.574,11.868 L4.365,13.743 L7.168,14.472 C7.18,14.476 7.194,14.479 7.209,14.483 C7.355,14.519 7.657,14.594 7.904,14.778 C8.111,14.932 8.275,15.138 8.38,15.375 C8.504,15.656 8.51,15.968 8.513,16.118 C8.513,16.134 8.514,16.148 8.514,16.16 L8.602,19.055 L10.92,17.319 C10.93,17.312 10.941,17.303 10.954,17.293 C11.073,17.202 11.32,17.012 11.618,16.934 C11.868,16.868 12.131,16.868 12.381,16.934 C12.679,17.012 12.926,17.202 13.045,17.293 C13.058,17.303 13.069,17.312 13.079,17.319 L15.397,19.055 L15.485,16.16 C15.486,16.148 15.486,16.134 15.486,16.118 C15.489,15.968 15.495,15.656 15.619,15.375 C15.724,15.138 15.888,14.932 16.095,14.778 C16.342,14.594 16.645,14.519 16.79,14.483 C16.806,14.479 16.819,14.476 16.831,14.472 L19.634,13.743 L17.425,11.868 C17.416,11.861 17.405,11.852 17.393,11.842 C17.278,11.746 17.037,11.547 16.895,11.274 C16.775,11.045 16.716,10.788 16.725,10.53 C16.735,10.222 16.865,9.939 16.928,9.802 C16.934,9.788 16.94,9.775 16.945,9.764 L18.122,7.117 L15.28,7.676 C15.268,7.678 15.254,7.681 15.239,7.684 L15.239,7.684 C15.092,7.715 14.786,7.779 14.484,7.72 C14.23,7.671 13.993,7.557 13.797,7.389 C13.562,7.189 13.422,6.911 13.354,6.777 C13.347,6.763 13.341,6.75 13.335,6.74 Z"/>
</svg>
