<svg xmlns="http://www.w3.org/2000/svg" width="24" height="24" viewBox="0 0 24 24">
  <defs/>
  <path d="M11.354,1.776 C11.763,1.581 12.237,1.581 12.646,1.776 C12.999,1.944 13.193,2.236 13.291,2.397 C13.393,2.562 13.497,2.773 13.599,2.979 C13.604,2.99 13.609,3 13.614,3.011 L15.754,7.346 L20.576,8.051 C20.803,8.084 21.036,8.118 21.225,8.164 C21.408,8.208 21.746,8.303 22.015,8.587 C22.326,8.915 22.472,9.366 22.413,9.815 C22.362,10.202 22.144,10.478 22.022,10.62 C21.895,10.768 21.727,10.932 21.562,11.092 L18.074,14.489 L18.897,19.288 C18.936,19.514 18.976,19.746 18.992,19.94 C19.006,20.127 19.021,20.478 18.834,20.822 C18.618,21.219 18.234,21.498 17.789,21.581 C17.405,21.652 17.076,21.53 16.902,21.458 C16.722,21.383 16.514,21.274 16.311,21.167 L12,18.9 L7.689,21.167 C7.486,21.274 7.278,21.383 7.098,21.458 C6.925,21.53 6.595,21.652 6.211,21.581 C5.766,21.498 5.382,21.219 5.166,20.822 C4.979,20.478 4.994,20.127 5.008,19.94 C5.024,19.746 5.064,19.514 5.103,19.288 L5.925,14.489 L2.463,11.117 C2.454,11.109 2.446,11.1 2.438,11.092 C2.273,10.932 2.105,10.768 1.978,10.62 C1.856,10.478 1.638,10.202 1.587,9.815 C1.528,9.366 1.674,8.915 1.985,8.587 C2.254,8.303 2.592,8.208 2.775,8.164 C2.964,8.118 3.197,8.084 3.424,8.051 C3.435,8.05 3.447,8.048 3.458,8.046 L8.246,7.346 L10.386,3.011 C10.391,3 10.396,2.99 10.401,2.979 C10.503,2.773 10.607,2.562 10.709,2.397 C10.807,2.236 11.001,1.944 11.354,1.776 Z M12,4.259 L9.993,8.326 C9.989,8.334 9.984,8.343 9.98,8.353 C9.932,8.452 9.833,8.656 9.677,8.824 C9.545,8.966 9.386,9.082 9.21,9.163 C9.002,9.26 8.777,9.291 8.669,9.306 C8.657,9.308 8.648,9.309 8.639,9.31 L4.148,9.967 L7.396,13.13 C7.403,13.136 7.41,13.143 7.418,13.151 C7.497,13.227 7.661,13.384 7.773,13.585 C7.868,13.755 7.928,13.941 7.952,14.134 C7.98,14.363 7.939,14.586 7.92,14.694 L7.92,14.694 C7.918,14.705 7.916,14.715 7.915,14.724 L7.148,19.192 L11.162,17.081 C11.17,17.077 11.179,17.072 11.189,17.067 C11.285,17.015 11.486,16.907 11.711,16.863 C11.902,16.826 12.098,16.826 12.289,16.863 C12.514,16.907 12.715,17.015 12.811,17.067 C12.821,17.072 12.83,17.077 12.838,17.081 L16.852,19.192 L16.086,14.724 C16.084,14.715 16.082,14.705 16.08,14.694 C16.061,14.586 16.021,14.363 16.048,14.134 C16.072,13.941 16.132,13.755 16.227,13.585 C16.339,13.384 16.503,13.227 16.582,13.151 C16.59,13.143 16.597,13.136 16.604,13.13 L19.852,9.967 L15.361,9.31 C15.352,9.309 15.343,9.308 15.331,9.306 C15.223,9.291 14.998,9.26 14.79,9.163 C14.614,9.082 14.455,8.966 14.323,8.824 C14.167,8.656 14.068,8.452 14.021,8.353 C14.016,8.343 14.011,8.334 14.007,8.326 Z"/>
</svg>
