<svg width="24" height="24" viewBox="0 0 24 24" fill="none" xmlns="http://www.w3.org/2000/svg">
<path d="M4.5 16C5.05228 16 5.5 16.4477 5.5 17V18.5H7C7.55228 18.5 8 18.9477 8 19.5C8 20.0523 7.55228 20.5 7 20.5H5.5V22C5.5 22.5523 5.05228 23 4.5 23C3.94772 23 3.5 22.5523 3.5 22V20.5H2C1.44772 20.5 1 20.0523 1 19.5C1 18.9477 1.44772 18.5 2 18.5H3.5V17C3.5 16.4477 3.94772 16 4.5 16Z" fill="black"/>
<path d="M13 2C13.4137 2 13.785 2.25458 13.9336 2.64062L15.668 7.14941C15.9684 7.93046 16.0623 8.1563 16.1914 8.33789C16.3209 8.51996 16.48 8.6791 16.6621 8.80859C16.8437 8.93772 17.0695 9.03163 17.8506 9.33203L22.3594 11.0664C22.7454 11.215 23 11.5863 23 12C23 12.4137 22.7454 12.785 22.3594 12.9336L17.8506 14.668C17.0695 14.9684 16.8437 15.0623 16.6621 15.1914C16.48 15.3209 16.3209 15.48 16.1914 15.6621C16.0623 15.8437 15.9684 16.0695 15.668 16.8506L13.9336 21.3594C13.785 21.7454 13.4137 22 13 22C12.5863 22 12.215 21.7454 12.0664 21.3594L10.332 16.8506C10.0316 16.0695 9.93772 15.8437 9.80859 15.6621C9.6791 15.48 9.51996 15.3209 9.33789 15.1914C9.1563 15.0623 8.93046 14.9684 8.14941 14.668L3.64062 12.9336C3.25458 12.785 3 12.4137 3 12C3 11.5863 3.25458 11.215 3.64062 11.0664L8.14941 9.33203C8.93046 9.03163 9.1563 8.93772 9.33789 8.80859C9.51996 8.6791 9.6791 8.51996 9.80859 8.33789C9.93772 8.1563 10.0316 7.93046 10.332 7.14941L12.0664 2.64062C12.215 2.25458 12.5863 2 13 2Z" fill="black"/>
<path d="M4.5 1C5.05228 1 5.5 1.44772 5.5 2V3.5H7C7.55228 3.5 8 3.94772 8 4.5C8 5.05228 7.55228 5.5 7 5.5H5.5V7C5.5 7.55228 5.05228 8 4.5 8C3.94772 8 3.5 7.55228 3.5 7V5.5H2C1.44772 5.5 1 5.05228 1 4.5C1 3.94772 1.44772 3.5 2 3.5H3.5V2C3.5 1.44772 3.94772 1 4.5 1Z" fill="black"/>
</svg>
