<svg xmlns="http://www.w3.org/2000/svg" width="24" height="24" viewBox="0 0 24 24">
  <defs/>
  <path d="M13,2 C13.414,2 13.785,2.255 13.933,2.641 L15.667,7.15 C15.968,7.931 16.062,8.156 16.191,8.338 C16.321,8.52 16.48,8.679 16.662,8.809 C16.844,8.938 17.069,9.032 17.85,9.332 L22.359,11.067 C22.745,11.215 23,11.586 23,12 C23,12.414 22.745,12.785 22.359,12.933 L17.85,14.667 C17.069,14.968 16.844,15.062 16.662,15.191 C16.48,15.321 16.321,15.48 16.191,15.662 C16.062,15.844 15.968,16.069 15.667,16.85 L13.933,21.359 C13.785,21.745 13.414,22 13,22 C12.586,22 12.215,21.745 12.067,21.359 L10.333,16.85 C10.032,16.069 9.938,15.844 9.809,15.662 C9.679,15.48 9.52,15.321 9.338,15.191 C9.156,15.062 8.931,14.968 8.15,14.667 L3.641,12.933 C3.255,12.785 3,12.414 3,12 C3,11.586 3.255,11.215 3.641,11.067 L8.15,9.332 C8.931,9.032 9.156,8.938 9.338,8.809 C9.52,8.679 9.679,8.52 9.809,8.338 C9.938,8.156 10.032,7.931 10.333,7.15 L12.067,2.641 C12.215,2.255 12.586,2 13,2 Z M13,5.786 L12.199,7.868 C12.186,7.902 12.173,7.936 12.16,7.97 C11.916,8.604 11.732,9.083 11.439,9.497 C11.179,9.861 10.861,10.179 10.497,10.439 C10.083,10.732 9.604,10.916 8.97,11.16 C8.936,11.173 8.902,11.186 8.868,11.199 L6.786,12 L8.868,12.801 C8.902,12.814 8.936,12.827 8.97,12.84 C9.604,13.084 10.083,13.268 10.497,13.561 C10.861,13.821 11.179,14.139 11.439,14.503 C11.732,14.917 11.916,15.396 12.16,16.03 C12.173,16.064 12.186,16.098 12.199,16.132 L13,18.214 L13.801,16.132 C13.814,16.098 13.827,16.064 13.84,16.03 C14.084,15.396 14.268,14.917 14.561,14.503 C14.821,14.139 15.139,13.821 15.503,13.561 C15.917,13.268 16.396,13.084 17.03,12.84 C17.064,12.827 17.098,12.814 17.132,12.801 L19.214,12 L17.132,11.199 C17.098,11.186 17.064,11.173 17.03,11.16 C16.396,10.916 15.917,10.732 15.503,10.439 C15.139,10.179 14.821,9.861 14.561,9.497 C14.268,9.083 14.084,8.604 13.84,7.97 C13.827,7.936 13.814,7.902 13.801,7.868 Z M4.5,16 C5.052,16 5.5,16.448 5.5,17 L5.5,18.5 L7,18.5 C7.552,18.5 8,18.948 8,19.5 C8,20.052 7.552,20.5 7,20.5 L5.5,20.5 L5.5,22 C5.5,22.552 5.052,23 4.5,23 C3.948,23 3.5,22.552 3.5,22 L3.5,20.5 L2,20.5 C1.448,20.5 1,20.052 1,19.5 C1,18.948 1.448,18.5 2,18.5 L3.5,18.5 L3.5,17 C3.5,16.448 3.948,16 4.5,16 Z M4.5,1 C5.052,1 5.5,1.448 5.5,2 L5.5,3.5 L7,3.5 C7.552,3.5 8,3.948 8,4.5 C8,5.052 7.552,5.5 7,5.5 L5.5,5.5 L5.5,7 C5.5,7.552 5.052,8 4.5,8 C3.948,8 3.5,7.552 3.5,7 L3.5,5.5 L2,5.5 C1.448,5.5 1,5.052 1,4.5 C1,3.948 1.448,3.5 2,3.5 L3.5,3.5 L3.5,2 C3.5,1.448 3.948,1 4.5,1 Z"/>
</svg>
