<svg xmlns="http://www.w3.org/2000/svg" width="24" height="24" viewBox="0 0 24 24">
  <defs/>
  <path d="M12,1 C12.414,1 12.785,1.255 12.933,1.641 L14.945,6.872 C15.246,7.653 15.34,7.878 15.469,8.06 C15.599,8.242 15.758,8.401 15.94,8.531 C16.122,8.66 16.347,8.754 17.128,9.055 L22.359,11.067 C22.745,11.215 23,11.586 23,12 C23,12.414 22.745,12.785 22.359,12.933 L17.128,14.945 C16.347,15.246 16.122,15.34 15.94,15.469 C15.758,15.599 15.599,15.758 15.469,15.94 C15.34,16.122 15.246,16.347 14.945,17.128 L12.933,22.359 C12.785,22.745 12.414,23 12,23 C11.586,23 11.215,22.745 11.067,22.359 L9.055,17.128 C8.754,16.347 8.66,16.122 8.531,15.94 C8.401,15.758 8.242,15.599 8.06,15.469 C7.878,15.34 7.653,15.246 6.872,14.945 L1.641,12.933 C1.255,12.785 1,12.414 1,12 C1,11.586 1.255,11.215 1.641,11.067 L6.872,9.055 C7.653,8.754 7.878,8.66 8.06,8.531 C8.242,8.401 8.401,8.242 8.531,8.06 C8.66,7.878 8.754,7.653 9.055,6.872 L11.067,1.641 C11.215,1.255 11.586,1 12,1 Z M12,4.786 L10.921,7.59 C10.908,7.625 10.895,7.659 10.882,7.692 C10.639,8.326 10.455,8.806 10.161,9.219 C9.902,9.583 9.583,9.902 9.219,10.161 C8.806,10.455 8.326,10.639 7.692,10.882 C7.659,10.895 7.625,10.908 7.59,10.921 L4.786,12 L7.59,13.079 C7.625,13.092 7.659,13.105 7.692,13.118 C8.326,13.361 8.806,13.545 9.219,13.839 C9.583,14.098 9.902,14.417 10.161,14.781 C10.455,15.194 10.639,15.674 10.882,16.308 C10.895,16.341 10.908,16.375 10.921,16.41 L12,19.214 L13.079,16.41 C13.092,16.375 13.105,16.341 13.118,16.308 C13.361,15.674 13.545,15.194 13.839,14.781 C14.098,14.417 14.417,14.098 14.781,13.839 C15.194,13.545 15.674,13.361 16.308,13.118 C16.341,13.105 16.375,13.092 16.41,13.079 L19.214,12 L16.41,10.921 C16.375,10.908 16.341,10.895 16.308,10.882 C15.674,10.639 15.194,10.455 14.781,10.161 C14.417,9.902 14.098,9.583 13.839,9.219 C13.545,8.806 13.361,8.326 13.118,7.692 C13.105,7.659 13.092,7.625 13.079,7.59 Z"/>
</svg>
