<svg width="24" height="24" viewBox="0 0 24 24" fill="none" xmlns="http://www.w3.org/2000/svg">
<path d="M6.5 12C6.87877 12 7.22514 12.214 7.39453 12.5527L8.17871 14.1221C8.46111 14.6869 8.54776 14.8497 8.65234 14.9854C8.75708 15.1212 8.87885 15.2429 9.01465 15.3477C9.15032 15.4522 9.31314 15.5389 9.87793 15.8213L11.4473 16.6055C11.786 16.7749 12 17.1212 12 17.5C12 17.8788 11.786 18.2251 11.4473 18.3945L9.87793 19.1787C9.31314 19.4611 9.15032 19.5478 9.01465 19.6523C8.87884 19.7571 8.75708 19.8788 8.65234 20.0146C8.54776 20.1503 8.46111 20.3131 8.17871 20.8779L7.39453 22.4473C7.22514 22.786 6.87877 23 6.5 23C6.12123 23 5.77486 22.786 5.60547 22.4473L4.82129 20.8779C4.53889 20.3131 4.45224 20.1503 4.34766 20.0146C4.24292 19.8788 4.12115 19.7571 3.98535 19.6523C3.84968 19.5478 3.68686 19.4611 3.12207 19.1787L1.55273 18.3945C1.21395 18.2251 1 17.8788 1 17.5C1 17.1212 1.21395 16.7749 1.55273 16.6055L3.12207 15.8213C3.68686 15.5389 3.84968 15.4522 3.98535 15.3477C4.12115 15.2429 4.24292 15.1212 4.34766 14.9854C4.45224 14.8497 4.53889 14.6869 4.82129 14.1221L5.60547 12.5527C5.77486 12.214 6.12123 12 6.5 12Z" fill="black"/>
<path d="M15 1C15.4137 1 15.785 1.25458 15.9336 1.64062L17.1123 4.70508C17.4127 5.48612 17.5066 5.71196 17.6357 5.89355C17.7652 6.07561 17.9244 6.23477 18.1064 6.36426C18.288 6.49338 18.5139 6.58729 19.2949 6.8877L22.3594 8.06641C22.7454 8.21501 23 8.58632 23 9C23 9.41368 22.7454 9.78499 22.3594 9.93359L19.2949 11.1123C18.5139 11.4127 18.288 11.5066 18.1064 11.6357C17.9244 11.7652 17.7652 11.9244 17.6357 12.1064C17.5066 12.288 17.4127 12.5139 17.1123 13.2949L15.9336 16.3594C15.785 16.7454 15.4137 17 15 17C14.5863 17 14.215 16.7454 14.0664 16.3594L12.8877 13.2949C12.5873 12.5139 12.4934 12.288 12.3643 12.1064C12.2348 11.9244 12.0756 11.7652 11.8936 11.6357C11.712 11.5066 11.4861 11.4127 10.7051 11.1123L7.64062 9.93359C7.25458 9.78499 7 9.41368 7 9C7 8.58632 7.25458 8.21501 7.64062 8.06641L10.7051 6.8877C11.4861 6.58729 11.712 6.49338 11.8936 6.36426C12.0756 6.23477 12.2348 6.07561 12.3643 5.89355C12.4934 5.71196 12.5873 5.48612 12.8877 4.70508L14.0664 1.64062L14.1328 1.50293C14.309 1.19539 14.6379 1 15 1Z" fill="black"/>
</svg>
