<svg width="28" height="26" viewBox="0 0 28 26" fill="none" xmlns="http://www.w3.org/2000/svg">
<g filter="url(#filter0_d_50252_241472)">
<path d="M14.25 0C14.7618 0 15.2246 0.318493 15.4269 0.810098L18.2443 7.65212L25.3368 8.34009C25.8464 8.38952 26.2791 8.75135 26.4372 9.26041C26.5954 9.76946 26.4487 10.3281 26.0643 10.6814L20.7129 15.5979L22.279 22.8652C22.3915 23.3873 22.1961 23.9294 21.7821 24.2441C21.3681 24.5586 20.8147 24.5854 20.3747 24.3122L14.25 20.5088L8.12535 24.3122C7.68529 24.5854 7.13193 24.5586 6.71789 24.2441C6.30383 23.9294 6.10848 23.3873 6.22101 22.8652L7.78711 15.5979L2.43576 10.6814C2.05126 10.3281 1.90461 9.76946 2.06277 9.26041C2.22093 8.75135 2.65354 8.38952 3.16316 8.34009L10.2557 7.65212L13.073 0.810098C13.2755 0.318493 13.7382 0 14.25 0Z" fill="black"/>
</g>
<defs>
<filter id="filter0_d_50252_241472" x="-2" y="0" width="32.5" height="32.5" filterUnits="userSpaceOnUse" color-interpolation-filters="sRGB">
<feFlood flood-opacity="0" result="BackgroundImageFix"/>
<feColorMatrix in="SourceAlpha" type="matrix" values="0 0 0 0 0 0 0 0 0 0 0 0 0 0 0 0 0 0 127 0" result="hardAlpha"/>
<feOffset dy="4"/>
<feGaussianBlur stdDeviation="2"/>
<feComposite in2="hardAlpha" operator="out"/>
<feColorMatrix type="matrix" values="0 0 0 0 0 0 0 0 0 0 0 0 0 0 0 0 0 0 0.25 0"/>
<feBlend mode="normal" in2="BackgroundImageFix" result="effect1_dropShadow_50252_241472"/>
<feBlend mode="normal" in="SourceGraphic" in2="effect1_dropShadow_50252_241472" result="shape"/>
</filter>
</defs>
</svg>
