<svg xmlns="http://www.w3.org/2000/svg" width="24" height="24" viewBox="0 0 24 24">
  <defs/>
  <path d="M11.389,1.634 C11.778,1.46 12.222,1.46 12.611,1.634 C12.938,1.779 13.132,2.029 13.237,2.178 C13.34,2.324 13.445,2.507 13.544,2.68 C13.55,2.69 13.555,2.699 13.561,2.709 L15.458,6.01 L19.266,6.003 L19.299,6.003 C19.498,6.002 19.71,6.002 19.888,6.018 C20.069,6.034 20.382,6.077 20.672,6.287 C21.017,6.538 21.239,6.922 21.283,7.346 C21.32,7.702 21.201,7.995 21.125,8.16 C21.05,8.322 20.943,8.505 20.843,8.677 C20.838,8.687 20.832,8.696 20.827,8.706 L18.916,12 L20.827,15.294 C20.832,15.303 20.838,15.313 20.843,15.322 C20.943,15.495 21.05,15.678 21.125,15.84 C21.201,16.005 21.32,16.298 21.283,16.654 C21.239,17.077 21.017,17.462 20.672,17.712 C20.382,17.922 20.069,17.966 19.888,17.982 C19.711,17.998 19.5,17.998 19.302,17.997 L19.299,17.997 L15.458,17.989 L13.544,21.32 C13.445,21.492 13.34,21.676 13.237,21.822 C13.132,21.971 12.938,22.22 12.611,22.366 C12.222,22.54 11.778,22.54 11.389,22.366 C11.062,22.22 10.868,21.971 10.763,21.822 C10.661,21.676 10.555,21.492 10.456,21.32 L8.542,17.989 L4.701,17.997 L4.698,17.997 C4.5,17.998 4.289,17.998 4.112,17.982 C3.931,17.966 3.618,17.922 3.328,17.712 C2.983,17.462 2.761,17.077 2.717,16.654 C2.68,16.298 2.799,16.005 2.875,15.84 C2.95,15.678 3.057,15.495 3.157,15.322 C3.162,15.313 3.168,15.303 3.173,15.294 L5.084,12 L3.173,8.706 C3.168,8.696 3.162,8.687 3.157,8.677 C3.057,8.505 2.95,8.322 2.875,8.16 C2.799,7.995 2.68,7.702 2.717,7.346 C2.761,6.922 2.983,6.538 3.328,6.287 C3.618,6.077 3.931,6.034 4.112,6.018 C4.29,6.002 4.502,6.002 4.701,6.003 L4.734,6.003 L8.542,6.01 L10.439,2.709 C10.445,2.699 10.45,2.69 10.456,2.68 C10.555,2.507 10.661,2.324 10.763,2.178 C10.868,2.029 11.062,1.779 11.389,1.634 Z M12,4.007 L10.218,7.108 C10.214,7.116 10.208,7.125 10.202,7.136 C10.143,7.241 10.021,7.457 9.836,7.625 C9.679,7.766 9.494,7.873 9.293,7.938 C9.055,8.015 8.807,8.012 8.687,8.011 L8.687,8.011 C8.675,8.011 8.663,8.011 8.654,8.011 L5.078,8.003 L6.872,11.097 C6.877,11.105 6.883,11.115 6.889,11.125 C6.95,11.228 7.077,11.442 7.129,11.687 C7.173,11.893 7.173,12.107 7.129,12.313 C7.077,12.558 6.95,12.771 6.889,12.875 C6.883,12.885 6.877,12.895 6.872,12.903 L5.078,15.996 L8.654,15.989 C8.663,15.989 8.675,15.989 8.687,15.989 C8.807,15.988 9.055,15.985 9.293,16.062 C9.494,16.127 9.679,16.234 9.836,16.375 C10.021,16.542 10.143,16.759 10.202,16.864 C10.208,16.874 10.214,16.884 10.218,16.892 L12,19.993 L13.782,16.892 C13.786,16.884 13.792,16.874 13.798,16.864 C13.857,16.759 13.979,16.542 14.165,16.375 C14.321,16.234 14.506,16.127 14.707,16.062 C14.945,15.985 15.193,15.988 15.313,15.989 C15.326,15.989 15.337,15.989 15.346,15.989 L18.922,15.996 L17.128,12.903 C17.123,12.895 17.118,12.885 17.111,12.875 C17.05,12.771 16.923,12.558 16.871,12.313 C16.827,12.107 16.827,11.893 16.871,11.687 C16.923,11.442 17.05,11.228 17.111,11.125 C17.118,11.115 17.123,11.105 17.128,11.097 L18.922,8.003 L15.346,8.011 C15.337,8.011 15.326,8.011 15.313,8.011 L15.313,8.011 C15.193,8.012 14.945,8.015 14.707,7.938 C14.506,7.873 14.321,7.766 14.165,7.625 C13.979,7.457 13.857,7.241 13.798,7.136 C13.792,7.125 13.786,7.116 13.782,7.108 Z"/>
</svg>
