<svg width="25" height="25" viewBox="0 0 25 25" fill="none" xmlns="http://www.w3.org/2000/svg">
<path d="M12.25 0C12.7618 0 13.2246 0.318493 13.4269 0.810098L16.2443 7.65212L23.3368 8.34009C23.8464 8.38952 24.2791 8.75135 24.4372 9.26041C24.5954 9.76946 24.4487 10.3281 24.0643 10.6814L18.7129 15.5979L20.279 22.8652C20.3915 23.3873 20.1961 23.9294 19.7821 24.2441C19.3681 24.5586 18.8147 24.5854 18.3747 24.3122L12.25 20.5088L6.12535 24.3122C5.68529 24.5854 5.13193 24.5586 4.71789 24.2441C4.30383 23.9294 4.10848 23.3873 4.22101 22.8652L5.78711 15.5979L0.435762 10.6814C0.0512621 10.3281 -0.0953881 9.76946 0.0627719 9.26041C0.220932 8.75135 0.653542 8.38952 1.16316 8.34009L8.2557 7.65212L11.073 0.810098C11.2755 0.318493 11.7382 0 12.25 0Z" fill="black"/>
</svg>
