<svg xmlns="http://www.w3.org/2000/svg" width="24" height="24" viewBox="0 0 24 24">
  <defs/>
  <path d="M12,1 C12.459,1 12.859,1.312 12.97,1.757 L14.272,6.963 C14.543,8.047 14.634,8.361 14.789,8.604 C14.945,8.848 15.152,9.055 15.396,9.211 C15.639,9.366 15.953,9.457 17.037,9.728 L22.243,11.03 C22.688,11.141 23,11.541 23,12 C23,12.459 22.688,12.859 22.243,12.97 L17.037,14.272 C15.953,14.543 15.639,14.634 15.396,14.789 C15.152,14.945 14.945,15.152 14.789,15.396 C14.634,15.639 14.543,15.953 14.272,17.037 L12.97,22.243 C12.859,22.688 12.459,23 12,23 C11.541,23 11.141,22.688 11.03,22.243 L9.728,17.037 C9.457,15.953 9.366,15.639 9.211,15.396 C9.055,15.152 8.848,14.945 8.604,14.789 C8.361,14.634 8.047,14.543 6.963,14.272 L1.757,12.97 C1.312,12.859 1,12.459 1,12 C1,11.541 1.312,11.141 1.757,11.03 L6.963,9.728 C8.047,9.457 8.361,9.366 8.604,9.211 C8.848,9.055 9.055,8.848 9.211,8.604 C9.366,8.361 9.457,8.047 9.728,6.963 L11.03,1.757 C11.141,1.312 11.541,1 12,1 Z M12,6.123 L11.669,7.449 C11.656,7.497 11.645,7.545 11.633,7.592 C11.415,8.468 11.25,9.128 10.895,9.682 C10.583,10.17 10.17,10.583 9.682,10.895 C9.128,11.25 8.468,11.415 7.592,11.633 C7.545,11.645 7.497,11.656 7.449,11.669 L6.123,12 L7.449,12.331 C7.497,12.344 7.545,12.355 7.592,12.367 C8.468,12.585 9.128,12.75 9.682,13.105 C10.17,13.417 10.583,13.83 10.895,14.318 C11.25,14.872 11.415,15.532 11.633,16.408 C11.645,16.455 11.656,16.503 11.669,16.552 L12,17.877 L12.331,16.552 C12.344,16.503 12.355,16.455 12.367,16.408 C12.585,15.532 12.75,14.872 13.105,14.318 C13.417,13.83 13.83,13.417 14.318,13.105 C14.872,12.75 15.532,12.585 16.408,12.367 C16.455,12.355 16.503,12.344 16.552,12.331 L17.877,12 L16.552,11.669 C16.503,11.656 16.455,11.645 16.408,11.633 C15.532,11.415 14.872,11.25 14.318,10.895 C13.83,10.583 13.417,10.17 13.105,9.682 C12.75,9.128 12.585,8.468 12.367,7.592 C12.355,7.545 12.344,7.497 12.331,7.449 Z"/>
</svg>
