<svg width="24" height="24" viewBox="0 0 24 24" fill="none" xmlns="http://www.w3.org/2000/svg">
<path d="M6 1C6.55228 1 7 1.44772 7 2V4C7 4.55228 6.55228 5 6 5C5.44772 5 5 4.55228 5 4H4V10C4 12.2091 5.79086 14 8 14C10.2091 14 12 12.2091 12 10V4H11C11 4.55228 10.5523 5 10 5C9.44772 5 9 4.55228 9 4V2C9 1.44772 9.44772 1 10 1C10.5523 1 11 1.44772 11 2H13C13.5523 2 14 2.44772 14 3V10C14 12.973 11.8377 15.441 9 15.917V16.5C9 18.9853 11.0147 21 13.5 21C15.9853 21 18 18.9853 18 16.5V10.8293C16.8348 10.4175 16 9.30622 16 8C16 6.34315 17.3431 5 19 5C20.6569 5 22 6.34315 22 8C22 9.30622 21.1652 10.4175 20 10.8293V16.5C20 20.0899 17.0899 23 13.5 23C9.91015 23 7 20.0899 7 16.5V15.917C4.16229 15.441 2 12.973 2 10V3C2 2.44772 2.44772 2 3 2H5C5 1.44772 5.44772 1 6 1ZM19 7C18.4477 7 18 7.44772 18 8C18 8.55228 18.4477 9 19 9C19.5523 9 20 8.55228 20 8C20 7.44772 19.5523 7 19 7Z" fill="black"/>
</svg>
