<svg xmlns="http://www.w3.org/2000/svg" width="24" height="24" viewBox="0 0 24 24">
  <defs/>
  <path d="M11.114,2 C11.749,2 12.228,2 12.691,2.111 C13.099,2.209 13.49,2.37 13.847,2.589 C14.253,2.838 14.592,3.178 15.041,3.627 C15.065,3.65 15.089,3.675 15.113,3.699 L20.301,8.887 C20.326,8.911 20.35,8.935 20.373,8.959 C20.823,9.408 21.162,9.747 21.411,10.153 C21.63,10.511 21.792,10.901 21.889,11.309 C22.001,11.771 22,12.251 22,12.885 L22,16.241 C22,17.046 22,17.711 21.956,18.252 C21.91,18.814 21.811,19.331 21.564,19.816 C21.181,20.569 20.569,21.181 19.816,21.564 C19.331,21.811 18.814,21.91 18.252,21.956 C17.711,22 17.046,22 16.241,22 L7.759,22 C6.954,22 6.289,22 5.748,21.956 C5.186,21.91 4.669,21.811 4.184,21.564 C3.431,21.181 2.819,20.569 2.436,19.816 C2.189,19.331 2.09,18.814 2.044,18.252 C2,17.711 2,17.046 2,16.241 L2,7.759 C2,6.954 2,6.289 2.044,5.748 C2.09,5.186 2.189,4.669 2.436,4.184 C2.819,3.431 3.431,2.82 4.184,2.436 C4.669,2.189 5.186,2.09 5.748,2.044 C6.289,2 6.954,2 7.759,2 L11.012,2 C11.046,2 11.08,2 11.114,2 Z M12,4.02 C11.814,4.003 11.539,4 11.012,4 L7.8,4 C6.943,4 6.361,4.001 5.911,4.038 C5.473,4.073 5.248,4.138 5.092,4.218 C4.716,4.41 4.41,4.716 4.218,5.092 C4.138,5.248 4.073,5.473 4.038,5.911 C4.001,6.361 4,6.943 4,7.8 L4,16.2 C4,17.057 4.001,17.639 4.038,18.089 C4.073,18.527 4.138,18.752 4.218,18.908 C4.41,19.284 4.716,19.59 5.092,19.782 C5.248,19.862 5.473,19.927 5.911,19.962 C6.361,19.999 6.943,20 7.8,20 L16.2,20 C17.057,20 17.639,19.999 18.089,19.962 C18.527,19.927 18.752,19.862 18.908,19.782 C19.284,19.59 19.59,19.284 19.782,18.908 C19.862,18.752 19.927,18.527 19.962,18.089 C19.999,17.639 20,17.057 20,16.2 L20,12.988 C20,12.461 19.997,12.186 19.98,12 L17.759,12 C16.954,12 16.289,12 15.748,11.956 C15.186,11.91 14.669,11.811 14.184,11.564 C13.431,11.181 12.819,10.569 12.436,9.816 C12.189,9.331 12.09,8.814 12.044,8.252 C12,7.711 12,7.046 12,6.241 Z M14,5.414 L14,6.2 C14,7.057 14.001,7.639 14.038,8.089 C14.073,8.527 14.138,8.752 14.218,8.908 C14.41,9.284 14.716,9.59 15.092,9.782 C15.248,9.862 15.473,9.927 15.911,9.963 C16.361,9.999 16.943,10 17.8,10 L18.586,10 Z"/>
</svg>
