<svg xmlns="http://www.w3.org/2000/svg" width="24" height="24" viewBox="0 0 24 24">
  <defs/>
  <path d="M12.533,21.888 C12.468,21.824 12.403,21.759 12.341,21.698 L12.316,21.673 L2.327,11.684 C2.319,11.676 2.311,11.667 2.303,11.659 C2.245,11.602 2.185,11.542 2.126,11.481 L1.913,11.267 C1.898,11.252 1.883,11.237 1.867,11.222 C1.689,11.045 1.461,10.819 1.312,10.517 C1.188,10.267 1.113,9.958 1.106,9.679 C1.098,9.344 1.187,9.063 1.255,8.847 L1.255,8.847 C1.26,8.83 1.266,8.813 1.271,8.797 C2.683,4.28 6.899,1 11.883,1 C18.023,1 23.001,5.977 23.001,12.117 C23.001,17.102 19.721,21.318 15.204,22.73 C15.188,22.735 15.171,22.74 15.154,22.745 L15.153,22.746 C14.937,22.814 14.657,22.902 14.322,22.895 C14.043,22.888 13.734,22.812 13.483,22.688 C13.182,22.539 12.956,22.312 12.779,22.134 C12.764,22.118 12.749,22.103 12.734,22.088 Z M11.883,3 C8.045,3 4.758,5.373 3.414,8.734 C3.666,8.717 3.919,8.708 4.175,8.708 C10.315,8.708 15.292,13.686 15.292,19.825 C15.292,20.081 15.283,20.335 15.266,20.586 C18.628,19.243 21.001,15.956 21.001,12.117 C21.001,7.082 16.919,3 11.883,3 Z M4.182,10.708 L13.292,19.818 C13.288,14.788 9.212,10.712 4.182,10.708 Z"/>
</svg>
