<svg xmlns="http://www.w3.org/2000/svg" width="24" height="24" viewBox="0 0 24 24">
  <defs/>
  <path d="M16.241,2 L16.241,2 C17.046,2 17.711,2 18.252,2.044 C18.814,2.09 19.331,2.189 19.816,2.436 C20.569,2.819 21.181,3.431 21.564,4.184 C21.811,4.669 21.91,5.186 21.956,5.748 C22,6.289 22,6.954 22,7.759 L22,16.241 C22,17.046 22,17.711 21.956,18.252 C21.91,18.814 21.811,19.331 21.564,19.816 C21.181,20.569 20.569,21.181 19.816,21.564 C19.331,21.811 18.814,21.91 18.252,21.956 C17.711,22 17.046,22 16.241,22 L7.759,22 C6.954,22 6.289,22 5.748,21.956 C5.186,21.91 4.669,21.811 4.184,21.564 C3.431,21.181 2.819,20.569 2.436,19.816 C2.189,19.331 2.09,18.814 2.044,18.252 C2,17.711 2,17.046 2,16.241 L2,7.759 C2,6.954 2,6.289 2.044,5.748 C2.09,5.186 2.189,4.669 2.436,4.184 C2.819,3.431 3.431,2.819 4.184,2.436 C4.669,2.189 5.186,2.09 5.748,2.044 C6.289,2 6.954,2 7.759,2 L16.241,2 Z M5.911,4.038 C5.473,4.073 5.248,4.138 5.092,4.218 C4.716,4.41 4.41,4.716 4.218,5.092 C4.138,5.248 4.073,5.473 4.038,5.911 C4.001,6.361 4,6.943 4,7.8 L4,16.2 C4,17.057 4.001,17.639 4.038,18.089 C4.073,18.527 4.138,18.752 4.218,18.908 C4.41,19.284 4.716,19.59 5.092,19.782 C5.248,19.862 5.473,19.927 5.911,19.962 C6.361,19.999 6.943,20 7.8,20 L16.2,20 C17.057,20 17.639,19.999 18.089,19.962 C18.527,19.927 18.752,19.862 18.908,19.782 C19.284,19.59 19.59,19.284 19.782,18.908 C19.862,18.752 19.927,18.527 19.962,18.089 C19.999,17.639 20,17.057 20,16.2 L20,7.8 C20,6.943 19.999,6.361 19.962,5.911 C19.927,5.473 19.862,5.248 19.782,5.092 C19.59,4.716 19.284,4.41 18.908,4.218 C18.752,4.138 18.527,4.073 18.089,4.038 C17.639,4.001 17.057,4 16.2,4 L7.8,4 C6.943,4 6.361,4.001 5.911,4.038 Z M9.6,7 L14.432,7 C14.684,7 14.93,7 15.138,7.017 C15.367,7.036 15.637,7.08 15.908,7.218 C16.284,7.41 16.59,7.716 16.782,8.092 C16.92,8.363 16.964,8.633 16.983,8.862 C17,9.069 17,9.313 17,9.564 L17,14.436 C17,14.687 17,14.931 16.983,15.138 C16.964,15.367 16.92,15.637 16.782,15.908 C16.59,16.284 16.284,16.59 15.908,16.782 C15.637,16.92 15.367,16.964 15.138,16.983 C14.931,17 14.687,17 14.436,17 L9.564,17 C9.313,17 9.069,17 8.862,16.983 C8.633,16.964 8.363,16.92 8.092,16.782 C7.716,16.59 7.41,16.284 7.218,15.908 C7.08,15.637 7.036,15.367 7.017,15.138 C7,14.93 7,14.684 7,14.432 L7,9.568 C7,9.316 7,9.07 7.017,8.862 C7.036,8.633 7.08,8.363 7.218,8.092 C7.41,7.716 7.716,7.41 8.092,7.218 C8.363,7.08 8.633,7.036 8.862,7.017 C9.07,7 9.316,7 9.568,7 L9.6,7 Z M9.011,9.011 C9.011,9.016 9.011,9.02 9.01,9.025 C9.001,9.141 9,9.303 9,9.6 L9,14.4 C9,14.696 9.001,14.859 9.01,14.975 C9.011,14.98 9.011,14.984 9.011,14.989 C9.016,14.989 9.02,14.989 9.025,14.99 C9.141,14.999 9.303,15 9.6,15 L14.4,15 C14.696,15 14.859,14.999 14.975,14.99 C14.98,14.989 14.984,14.989 14.989,14.989 C14.989,14.984 14.989,14.98 14.99,14.975 C14.999,14.859 15,14.696 15,14.4 L15,9.6 C15,9.303 14.999,9.141 14.99,9.025 C14.989,9.02 14.989,9.016 14.989,9.011 C14.984,9.011 14.98,9.011 14.975,9.01 C14.859,9.001 14.696,9 14.4,9 L9.6,9 C9.303,9 9.141,9.001 9.025,9.01 C9.02,9.011 9.016,9.011 9.011,9.011 Z"/>
</svg>
