<svg xmlns="http://www.w3.org/2000/svg" width="24" height="24" viewBox="0 0 24 24">
  <defs/>
  <path d="M1,12 C1,5.925 5.925,1 12,1 C18.075,1 23,5.925 23,12 C23,18.075 18.075,23 12,23 C5.925,23 1,18.075 1,12 Z M12,3 C7.029,3 3,7.029 3,12 C3,16.971 7.029,21 12,21 C16.971,21 21,16.971 21,12 C21,7.029 16.971,3 12,3 Z M9.6,7 L14.432,7 C14.684,7 14.93,7 15.138,7.017 C15.367,7.036 15.637,7.08 15.908,7.218 C16.284,7.41 16.59,7.716 16.782,8.092 C16.92,8.363 16.964,8.633 16.983,8.862 C17,9.069 17,9.313 17,9.564 L17,14.436 C17,14.687 17,14.931 16.983,15.138 C16.964,15.367 16.92,15.637 16.782,15.908 C16.59,16.284 16.284,16.59 15.908,16.782 C15.637,16.92 15.367,16.964 15.138,16.983 C14.931,17 14.687,17 14.436,17 L9.564,17 C9.313,17 9.069,17 8.862,16.983 C8.633,16.964 8.363,16.92 8.092,16.782 C7.716,16.59 7.41,16.284 7.218,15.908 C7.08,15.637 7.036,15.367 7.017,15.138 C7,14.93 7,14.684 7,14.432 L7,9.568 C7,9.316 7,9.07 7.017,8.862 C7.036,8.633 7.08,8.363 7.218,8.092 C7.41,7.716 7.716,7.41 8.092,7.218 C8.363,7.08 8.633,7.036 8.862,7.017 C9.07,7 9.316,7 9.568,7 L9.6,7 Z M9.011,9.011 C9.011,9.016 9.011,9.02 9.01,9.025 C9.001,9.141 9,9.303 9,9.6 L9,14.4 C9,14.696 9.001,14.859 9.01,14.975 C9.011,14.98 9.011,14.984 9.011,14.989 C9.016,14.989 9.02,14.989 9.025,14.99 C9.141,14.999 9.303,15 9.6,15 L14.4,15 C14.696,15 14.859,14.999 14.975,14.99 C14.98,14.989 14.984,14.989 14.989,14.989 C14.989,14.984 14.989,14.98 14.99,14.975 C14.999,14.859 15,14.696 15,14.4 L15,9.6 C15,9.303 14.999,9.141 14.99,9.025 C14.989,9.02 14.989,9.016 14.989,9.011 C14.984,9.011 14.98,9.011 14.975,9.01 C14.859,9.001 14.696,9 14.4,9 L9.6,9 C9.303,9 9.141,9.001 9.025,9.01 C9.02,9.011 9.016,9.011 9.011,9.011 Z"/>
</svg>
