<svg xmlns="http://www.w3.org/2000/svg" width="24" height="24" viewBox="0 0 24 24">
  <defs/>
  <path d="M2,12 C2,11.448 2.448,11 3,11 L21,11 C21.552,11 22,11.448 22,12 C22,12.552 21.552,13 21,13 L18,13 C18.628,13.836 19,14.874 19,16 C19,18.761 16.761,21 14,21 L10,21 C7.239,21 5,18.761 5,16 C5,15.448 5.448,15 6,15 C6.552,15 7,15.448 7,16 C7,17.657 8.343,19 10,19 L10.5,19 C12.157,19 13.5,17.657 13.5,16 C13.5,14.343 12.157,13 10.5,13 L3,13 C2.448,13 2,12.552 2,12 Z M5,8 C5,5.239 7.239,3 10,3 L14,3 C16.761,3 19,5.239 19,8 C19,8.552 18.552,9 18,9 C17.448,9 17,8.552 17,8 C17,6.343 15.657,5 14,5 L13.5,5 C11.843,5 10.5,6.343 10.5,8 C10.5,8.552 10.052,9 9.5,9 C8.948,9 8.5,8.552 8.5,8 C8.5,6.896 8.858,5.875 9.464,5.048 C8.063,5.3 7,6.526 7,8 C7,8.552 6.552,9 6,9 C5.448,9 5,8.552 5,8 Z M14.536,13.048 C15.142,13.875 15.5,14.896 15.5,16 C15.5,17.104 15.142,18.125 14.536,18.952 C15.937,18.7 17,17.474 17,16 C17,14.526 15.937,13.3 14.536,13.048 Z"/>
</svg>
