<svg xmlns="http://www.w3.org/2000/svg" width="24" height="24" viewBox="0 0 24 24">
  <defs/>
  <path d="M16.241,2 L16.241,2 C17.046,2 17.711,2 18.252,2.044 C18.814,2.09 19.331,2.189 19.816,2.436 C20.569,2.819 21.181,3.431 21.564,4.184 C21.811,4.669 21.91,5.186 21.956,5.748 C22,6.289 22,6.954 22,7.759 L22,16.241 C22,17.046 22,17.711 21.956,18.252 C21.91,18.814 21.811,19.331 21.564,19.816 C21.181,20.569 20.569,21.181 19.816,21.564 C19.331,21.811 18.814,21.91 18.252,21.956 C17.711,22 17.046,22 16.241,22 L7.759,22 C6.954,22 6.289,22 5.748,21.956 C5.186,21.91 4.669,21.811 4.184,21.564 C3.431,21.181 2.819,20.569 2.436,19.816 C2.189,19.331 2.09,18.814 2.044,18.252 C2,17.711 2,17.046 2,16.241 L2,7.759 C2,6.954 2,6.289 2.044,5.748 C2.09,5.186 2.189,4.669 2.436,4.184 C2.819,3.431 3.431,2.819 4.184,2.436 C4.669,2.189 5.186,2.09 5.748,2.044 C6.289,2 6.954,2 7.759,2 L16.241,2 Z M5.911,4.038 C5.473,4.073 5.248,4.138 5.092,4.218 C4.716,4.41 4.41,4.716 4.218,5.092 C4.138,5.248 4.073,5.473 4.038,5.911 C4.001,6.361 4,6.943 4,7.8 L4,16.2 C4,17.057 4.001,17.639 4.038,18.089 C4.073,18.527 4.138,18.752 4.218,18.908 C4.41,19.284 4.716,19.59 5.092,19.782 C5.248,19.862 5.473,19.927 5.911,19.962 C6.361,19.999 6.943,20 7.8,20 L16.2,20 C17.057,20 17.639,19.999 18.089,19.962 C18.527,19.927 18.752,19.862 18.908,19.782 C19.284,19.59 19.59,19.284 19.782,18.908 C19.862,18.752 19.927,18.527 19.962,18.089 C19.999,17.639 20,17.057 20,16.2 L20,7.8 C20,6.943 19.999,6.361 19.962,5.911 C19.927,5.473 19.862,5.248 19.782,5.092 C19.59,4.716 19.284,4.41 18.908,4.218 C18.752,4.138 18.527,4.073 18.089,4.038 C17.639,4.001 17.057,4 16.2,4 L7.8,4 C6.943,4 6.361,4.001 5.911,4.038 Z M5,12 C5,11.448 5.448,11 6,11 L18,11 C18.552,11 19,11.448 19,12 C19,12.552 18.552,13 18,13 L16.163,13 C16.379,13.455 16.5,13.963 16.5,14.5 C16.5,16.433 14.933,18 13,18 L10.833,18 C9.41,18 8.198,17.109 7.719,15.857 C7.522,15.341 7.78,14.763 8.296,14.566 C8.812,14.369 9.39,14.627 9.587,15.143 C9.78,15.646 10.266,16 10.833,16 L13,16 C13.828,16 14.5,15.328 14.5,14.5 C14.5,13.672 13.828,13 13,13 L6,13 C5.448,13 5,12.552 5,12 Z M7.792,8.1 C8.331,6.866 9.563,6 11,6 L13.167,6 C14.59,6 15.802,6.891 16.281,8.143 C16.478,8.659 16.22,9.237 15.704,9.434 C15.188,9.631 14.61,9.373 14.413,8.857 C14.22,8.354 13.734,8 13.167,8 L11,8 C10.387,8 9.857,8.369 9.624,8.9 C9.403,9.406 8.814,9.637 8.308,9.416 C7.802,9.195 7.571,8.606 7.792,8.1 Z"/>
</svg>
