<svg xmlns="http://www.w3.org/2000/svg" width="24" height="24" viewBox="0 0 24 24">
  <defs/>
  <path d="M2.293,4.293 C2.683,3.902 3.317,3.902 3.707,4.293 L8,8.586 L12.293,4.293 C12.683,3.902 13.317,3.902 13.707,4.293 C14.098,4.683 14.098,5.317 13.707,5.707 L9.414,10 L13.707,14.293 C14.098,14.683 14.098,15.317 13.707,15.707 C13.317,16.098 12.683,16.098 12.293,15.707 L8,11.414 L3.707,15.707 C3.317,16.098 2.683,16.098 2.293,15.707 C1.902,15.317 1.902,14.683 2.293,14.293 L6.586,10 L2.293,5.707 C1.902,5.317 1.902,4.683 2.293,4.293 Z M17.408,11.4 C18.028,11.049 18.751,10.922 19.454,11.04 C20.157,11.158 20.798,11.514 21.27,12.048 L21.278,12.057 L21.278,12.058 C21.744,12.599 22,13.29 22,14 C22,15.082 21.396,15.84 20.774,16.34 C20.194,16.807 19.486,17.141 18.983,17.378 C18.964,17.387 18.945,17.396 18.927,17.404 C18.447,17.631 18.28,17.782 18.192,17.918 C18.177,17.941 18.162,17.968 18.147,18 L21,18 C21.552,18 22,18.448 22,19 C22,19.552 21.552,20 21,20 L17,20 C16.448,20 16,19.552 16,19 C16,18.171 16.118,17.443 16.513,16.832 C16.91,16.218 17.493,15.87 18.073,15.596 C18.628,15.334 19.138,15.09 19.521,14.782 C19.884,14.49 20,14.248 20,14 C20,13.772 19.918,13.545 19.766,13.367 C19.598,13.179 19.371,13.054 19.122,13.012 C18.872,12.97 18.615,13.015 18.394,13.139 C18.179,13.263 18.021,13.455 17.942,13.675 C17.757,14.196 17.185,14.467 16.665,14.282 C16.145,14.097 15.873,13.525 16.058,13.005 C16.299,12.326 16.78,11.759 17.404,11.402 Z"/>
</svg>
