<svg xmlns="http://www.w3.org/2000/svg" width="24" height="24" viewBox="0 0 24 24">
  <defs/>
  <path d="M5.646,18.323 C4.699,17.892 3.461,17.892 2.514,18.323 C2.011,18.551 1.418,18.329 1.19,17.826 C0.961,17.323 1.184,16.731 1.686,16.502 C3.159,15.833 5.001,15.833 6.474,16.502 C7.421,16.933 8.659,16.933 9.606,16.502 C11.079,15.833 12.921,15.833 14.394,16.502 C15.341,16.933 16.579,16.933 17.526,16.502 C18.999,15.833 20.841,15.833 22.314,16.502 C22.817,16.731 23.039,17.323 22.81,17.826 C22.582,18.329 21.989,18.551 21.486,18.323 C20.539,17.892 19.301,17.892 18.354,18.323 C16.881,18.992 15.039,18.992 13.566,18.323 C12.619,17.892 11.381,17.892 10.434,18.323 C8.961,18.992 7.119,18.992 5.646,18.323 Z M12,9 C9.791,9 8,10.791 8,13 C8,13.552 7.552,14 7,14 C6.448,14 6,13.552 6,13 C6,9.686 8.686,7 12,7 C15.314,7 18,9.686 18,13 C18,13.552 17.552,14 17,14 C16.448,14 16,13.552 16,13 C16,10.791 14.209,9 12,9 Z M13.566,21.823 C12.619,21.392 11.381,21.392 10.434,21.823 C8.961,22.492 7.119,22.492 5.646,21.823 C5.143,21.594 4.921,21.001 5.15,20.499 C5.378,19.996 5.971,19.774 6.474,20.002 C7.421,20.433 8.659,20.433 9.606,20.002 C11.079,19.333 12.921,19.333 14.394,20.002 C15.341,20.433 16.579,20.433 17.526,20.002 C18.029,19.774 18.622,19.996 18.85,20.499 C19.079,21.001 18.857,21.594 18.354,21.823 C16.881,22.492 15.039,22.492 13.566,21.823 Z M19.807,5.193 C20.197,5.583 20.197,6.216 19.807,6.607 L18.393,8.021 C18.002,8.412 17.369,8.412 16.978,8.021 C16.588,7.631 16.588,6.998 16.978,6.607 L18.393,5.193 C18.783,4.802 19.416,4.802 19.807,5.193 Z M19,13 C19,12.448 19.448,12 20,12 L22,12 C22.552,12 23,12.448 23,13 C23,13.552 22.552,14 22,14 L20,14 C19.448,14 19,13.552 19,13 Z M12,2 C12.552,2 13,2.448 13,3 L13,5 C13,5.552 12.552,6 12,6 C11.448,6 11,5.552 11,5 L11,3 C11,2.448 11.448,2 12,2 Z M1,13 C1,12.448 1.448,12 2,12 L4,12 C4.552,12 5,12.448 5,13 C5,13.552 4.552,14 4,14 L2,14 C1.448,14 1,13.552 1,13 Z M4.193,5.193 C4.583,4.802 5.216,4.802 5.607,5.193 L7.021,6.607 C7.412,6.998 7.412,7.631 7.021,8.021 C6.631,8.412 5.998,8.412 5.607,8.021 L4.193,6.607 C3.802,6.216 3.802,5.583 4.193,5.193 Z"/>
</svg>
