<svg xmlns="http://www.w3.org/2000/svg" width="24" height="24" viewBox="0 0 24 24">
  <defs/>
  <path d="M1,16.5 C1,15.948 1.448,15.5 2,15.5 L22,15.5 C22.552,15.5 23,15.948 23,16.5 C23,17.052 22.552,17.5 22,17.5 L2,17.5 C1.448,17.5 1,17.052 1,16.5 Z M3,20 C3,19.448 3.448,19 4,19 L20,19 C20.552,19 21,19.448 21,20 C21,20.552 20.552,21 20,21 L4,21 C3.448,21 3,20.552 3,20 Z M12,9 C9.791,9 8,10.791 8,13 C8,13.552 7.552,14 7,14 C6.448,14 6,13.552 6,13 C6,9.686 8.686,7 12,7 C15.314,7 18,9.686 18,13 C18,13.552 17.552,14 17,14 C16.448,14 16,13.552 16,13 C16,10.791 14.209,9 12,9 Z M19.807,5.193 C20.197,5.583 20.197,6.216 19.807,6.607 L18.393,8.021 C18.002,8.412 17.369,8.412 16.978,8.021 C16.588,7.631 16.588,6.998 16.978,6.607 L18.393,5.193 C18.783,4.802 19.416,4.802 19.807,5.193 Z M19,13 C19,12.448 19.448,12 20,12 L22,12 C22.552,12 23,12.448 23,13 C23,13.552 22.552,14 22,14 L20,14 C19.448,14 19,13.552 19,13 Z M12,2 C12.552,2 13,2.448 13,3 L13,5 C13,5.552 12.552,6 12,6 C11.448,6 11,5.552 11,5 L11,3 C11,2.448 11.448,2 12,2 Z M1,13 C1,12.448 1.448,12 2,12 L4,12 C4.552,12 5,12.448 5,13 C5,13.552 4.552,14 4,14 L2,14 C1.448,14 1,13.552 1,13 Z M4.193,5.193 C4.583,4.802 5.216,4.802 5.607,5.193 L7.021,6.607 C7.412,6.998 7.412,7.631 7.021,8.021 C6.631,8.412 5.998,8.412 5.607,8.021 L4.193,6.607 C3.802,6.216 3.802,5.583 4.193,5.193 Z"/>
</svg>
