<svg xmlns="http://www.w3.org/2000/svg" width="24" height="24" viewBox="0 0 24 24">
  <defs/>
  <path d="M5.071,14 C5.556,10.608 8.474,8 12,8 C15.526,8 18.444,10.608 18.929,14 L22,14 C22.552,14 23,14.448 23,15 C23,15.552 22.552,16 22,16 L2,16 C1.448,16 1,15.552 1,15 C1,14.448 1.448,14 2,14 Z M4,19 C4,18.448 4.448,18 5,18 L19,18 C19.552,18 20,18.448 20,19 C20,19.552 19.552,20 19,20 L5,20 C4.448,20 4,19.552 4,19 Z M7.1,14 L16.9,14 C16.437,11.718 14.419,10 12,10 C9.581,10 7.563,11.718 7.1,14 Z M12,2 C12.552,2 13,2.448 13,3 L13,5 C13,5.552 12.552,6 12,6 C11.448,6 11,5.552 11,5 L11,3 C11,2.448 11.448,2 12,2 Z M3.193,5.193 C3.583,4.802 4.216,4.802 4.607,5.193 L6.021,6.607 C6.412,6.998 6.412,7.631 6.021,8.021 C5.631,8.412 4.998,8.412 4.607,8.021 L3.193,6.607 C2.802,6.216 2.802,5.583 3.193,5.193 Z M20.807,5.193 C21.198,5.583 21.198,6.216 20.807,6.607 L19.393,8.021 C19.002,8.412 18.369,8.412 17.979,8.021 C17.588,7.631 17.588,6.998 17.979,6.607 L19.393,5.193 C19.783,4.802 20.417,4.802 20.807,5.193 Z"/>
</svg>
