<svg xmlns="http://www.w3.org/2000/svg" width="24" height="24" viewBox="0 0 24 24">
  <defs/>
  <path d="M6,12 C6,8.686 8.686,6 12,6 C15.314,6 18,8.686 18,12 C18,15.314 15.314,18 12,18 C8.686,18 6,15.314 6,12 Z M12,8 C9.791,8 8,9.791 8,12 C8,14.209 9.791,16 12,16 C14.209,16 16,14.209 16,12 C16,9.791 14.209,8 12,8 Z M12,19 C12.552,19 13,19.448 13,20 L13,22 C13,22.552 12.552,23 12,23 C11.448,23 11,22.552 11,22 L11,20 C11,19.448 11.448,19 12,19 Z M19,12 C19,11.448 19.448,11 20,11 L22,11 C22.552,11 23,11.448 23,12 C23,12.552 22.552,13 22,13 L20,13 C19.448,13 19,12.552 19,12 Z M12,1 C12.552,1 13,1.448 13,2 L13,4 C13,4.552 12.552,5 12,5 C11.448,5 11,4.552 11,4 L11,2 C11,1.448 11.448,1 12,1 Z M1,12 C1,11.448 1.448,11 2,11 L4,11 C4.552,11 5,11.448 5,12 C5,12.552 4.552,13 4,13 L2,13 C1.448,13 1,12.552 1,12 Z M4.193,4.193 C4.583,3.802 5.216,3.802 5.607,4.193 L7.021,5.607 C7.412,5.998 7.412,6.631 7.021,7.021 C6.631,7.412 5.998,7.412 5.607,7.021 L4.193,5.607 C3.802,5.216 3.802,4.583 4.193,4.193 Z M7.021,16.983 C7.412,17.373 7.412,18.007 7.021,18.397 L5.607,19.811 C5.216,20.202 4.583,20.202 4.193,19.811 C3.802,19.421 3.802,18.788 4.193,18.397 L5.607,16.983 C5.998,16.592 6.631,16.592 7.021,16.983 Z M19.807,4.193 C20.198,4.583 20.198,5.216 19.807,5.607 L18.393,7.021 C18.003,7.412 17.369,7.412 16.979,7.021 C16.588,6.631 16.588,5.998 16.979,5.607 L18.393,4.193 C18.784,3.802 19.417,3.802 19.807,4.193 Z M16.979,16.983 C17.369,16.592 18.003,16.592 18.393,16.983 L19.807,18.397 C20.198,18.788 20.198,19.421 19.807,19.811 C19.417,20.202 18.784,20.202 18.393,19.811 L16.979,18.397 C16.588,18.007 16.588,17.373 16.979,16.983 Z"/>
</svg>
