<svg xmlns="http://www.w3.org/2000/svg" width="24" height="24" viewBox="0 0 24 24">
  <defs/>
  <path d="M1,22 C1,21.448 1.448,21 2,21 L22,21 C22.552,21 23,21.448 23,22 C23,22.552 22.552,23 22,23 L2,23 C1.448,23 1,22.552 1,22 Z M11.293,1.293 C11.683,0.902 12.317,0.902 12.707,1.293 L16.707,5.293 C17.098,5.683 17.098,6.317 16.707,6.707 C16.317,7.098 15.683,7.098 15.293,6.707 L13,4.414 L13,9 C13,9.552 12.552,10 12,10 C11.448,10 11,9.552 11,9 L11,4.414 L8.707,6.707 C8.317,7.098 7.683,7.098 7.293,6.707 C6.902,6.317 6.902,5.683 7.293,5.293 Z M12,14 C9.791,14 8,15.791 8,18 C8,18.552 7.552,19 7,19 C6.448,19 6,18.552 6,18 C6,14.686 8.686,12 12,12 C15.314,12 18,14.686 18,18 C18,18.552 17.552,19 17,19 C16.448,19 16,18.552 16,18 C16,15.791 14.209,14 12,14 Z M19,18 C19,17.448 19.448,17 20,17 L22,17 C22.552,17 23,17.448 23,18 C23,18.552 22.552,19 22,19 L20,19 C19.448,19 19,18.552 19,18 Z M1,18 C1,17.448 1.448,17 2,17 L4,17 C4.552,17 5,17.448 5,18 C5,18.552 4.552,19 4,19 L2,19 C1.448,19 1,18.552 1,18 Z M4.193,10.193 C4.583,9.802 5.216,9.802 5.607,10.193 L7.021,11.607 C7.412,11.998 7.412,12.631 7.021,13.021 C6.631,13.412 5.998,13.412 5.607,13.021 L4.193,11.607 C3.802,11.217 3.802,10.583 4.193,10.193 Z M19.807,10.193 C20.198,10.583 20.198,11.217 19.807,11.607 L18.393,13.021 C18.002,13.412 17.369,13.412 16.979,13.021 C16.588,12.631 16.588,11.998 16.979,11.607 L18.393,10.193 C18.783,9.802 19.417,9.802 19.807,10.193 Z"/>
</svg>
