<svg xmlns="http://www.w3.org/2000/svg" width="24" height="24" viewBox="0 0 24 24">
  <defs/>
  <path d="M16.293,3.293 C16.683,2.902 17.317,2.902 17.707,3.293 L21.707,7.293 C22.098,7.683 22.098,8.317 21.707,8.707 C21.317,9.098 20.683,9.098 20.293,8.707 L18,6.414 L18,20 C18,20.552 17.552,21 17,21 C16.448,21 16,20.552 16,20 L16,6.414 L13.707,8.707 C13.317,9.098 12.683,9.098 12.293,8.707 C11.902,8.317 11.902,7.683 12.293,7.293 Z M7,3 C7.552,3 8,3.448 8,4 L8,17.586 L10.293,15.293 C10.683,14.902 11.317,14.902 11.707,15.293 C12.098,15.683 12.098,16.317 11.707,16.707 L7.707,20.707 C7.317,21.098 6.683,21.098 6.293,20.707 L2.293,16.707 C1.902,16.317 1.902,15.683 2.293,15.293 C2.683,14.902 3.317,14.902 3.707,15.293 L6,17.586 L6,4 C6,3.448 6.448,3 7,3 Z"/>
</svg>
