<svg xmlns="http://www.w3.org/2000/svg" width="24" height="24" viewBox="0 0 24 24">
  <defs/>
  <path d="M8.707,12.293 C9.098,12.683 9.098,13.317 8.707,13.707 L6.414,16 L20,16 C20.552,16 21,16.448 21,17 C21,17.552 20.552,18 20,18 L6.414,18 L8.707,20.293 C9.098,20.683 9.098,21.317 8.707,21.707 C8.317,22.098 7.683,22.098 7.293,21.707 L3.293,17.707 C2.902,17.317 2.902,16.683 3.293,16.293 L7.293,12.293 C7.683,11.902 8.317,11.902 8.707,12.293 Z M15.293,2.293 C15.683,1.902 16.317,1.902 16.707,2.293 L20.707,6.293 C21.098,6.683 21.098,7.317 20.707,7.707 L16.707,11.707 C16.317,12.098 15.683,12.098 15.293,11.707 C14.902,11.317 14.902,10.683 15.293,10.293 L17.586,8 L4,8 C3.448,8 3,7.552 3,7 C3,6.448 3.448,6 4,6 L17.586,6 L15.293,3.707 C14.902,3.317 14.902,2.683 15.293,2.293 Z"/>
</svg>
