<svg xmlns="http://www.w3.org/2000/svg" width="24" height="24" viewBox="0 0 24 24">
  <defs/>
  <path d="M8.707,2.293 C9.098,2.683 9.098,3.317 8.707,3.707 L6.414,6 L20,6 C20.552,6 21,6.448 21,7 C21,7.552 20.552,8 20,8 L6.414,8 L8.707,10.293 C9.098,10.683 9.098,11.317 8.707,11.707 C8.317,12.098 7.683,12.098 7.293,11.707 L3.293,7.707 C2.902,7.317 2.902,6.683 3.293,6.293 L7.293,2.293 C7.683,1.902 8.317,1.902 8.707,2.293 Z M15.293,12.293 C15.683,11.902 16.317,11.902 16.707,12.293 L20.707,16.293 C21.098,16.683 21.098,17.317 20.707,17.707 L16.707,21.707 C16.317,22.098 15.683,22.098 15.293,21.707 C14.902,21.317 14.902,20.683 15.293,20.293 L17.586,18 L4,18 C3.448,18 3,17.552 3,17 C3,16.448 3.448,16 4,16 L17.586,16 L15.293,13.707 C14.902,13.317 14.902,12.683 15.293,12.293 Z"/>
</svg>
