<svg xmlns="http://www.w3.org/2000/svg" width="24" height="24" viewBox="0 0 24 24">
  <defs/>
  <path d="M6.293,3.293 C6.683,2.902 7.317,2.902 7.707,3.293 L11.707,7.293 C12.098,7.683 12.098,8.317 11.707,8.707 C11.317,9.098 10.683,9.098 10.293,8.707 L8,6.414 L8,20 C8,20.552 7.552,21 7,21 C6.448,21 6,20.552 6,20 L6,6.414 L3.707,8.707 C3.317,9.098 2.683,9.098 2.293,8.707 C1.902,8.317 1.902,7.683 2.293,7.293 Z M16,17.586 L16,4 C16,3.448 16.448,3 17,3 C17.552,3 18,3.448 18,4 L18,17.586 L20.293,15.293 C20.683,14.902 21.317,14.902 21.707,15.293 C22.098,15.683 22.098,16.317 21.707,16.707 L17.707,20.707 C17.317,21.098 16.683,21.098 16.293,20.707 L12.293,16.707 C11.902,16.317 11.902,15.683 12.293,15.293 C12.683,14.902 13.317,14.902 13.707,15.293 Z"/>
</svg>
