<svg xmlns="http://www.w3.org/2000/svg" width="24" height="24" viewBox="0 0 24 24">
  <defs/>
  <path d="M16.838,1 L16.839,1 C17.366,1 17.821,1 18.195,1.031 C18.59,1.063 18.984,1.134 19.362,1.327 C19.927,1.615 20.385,2.074 20.673,2.638 C20.866,3.016 20.937,3.41 20.969,3.805 C21,4.18 21,4.634 21,5.161 L21,18.839 C21,19.366 21,19.82 20.969,20.195 C20.937,20.59 20.866,20.984 20.673,21.362 C20.385,21.927 19.927,22.385 19.362,22.673 C18.984,22.866 18.59,22.937 18.195,22.969 C17.82,23 17.366,23 16.839,23 L7.161,23 C6.634,23 6.18,23 5.805,22.969 C5.41,22.937 5.016,22.866 4.638,22.673 C4.074,22.385 3.615,21.927 3.327,21.362 C3.134,20.984 3.063,20.59 3.031,20.195 C3,19.82 3,19.366 3,18.838 L3,5.161 C3,4.634 3,4.18 3.031,3.805 C3.063,3.41 3.134,3.016 3.327,2.638 C3.615,2.074 4.074,1.615 4.638,1.327 C5.016,1.134 5.41,1.063 5.805,1.031 C6.18,1 6.634,1 7.161,1 L16.838,1 Z M5.968,3.024 C5.696,3.046 5.595,3.084 5.546,3.109 C5.358,3.205 5.205,3.358 5.109,3.546 C5.084,3.595 5.046,3.696 5.024,3.968 C5.001,4.251 5,4.623 5,5.2 L5,18.8 C5,19.377 5.001,19.749 5.024,20.032 C5.046,20.304 5.084,20.405 5.109,20.454 C5.205,20.642 5.358,20.795 5.546,20.891 C5.595,20.916 5.696,20.954 5.968,20.976 C6.251,20.999 6.623,21 7.2,21 L16.8,21 C17.377,21 17.749,20.999 18.032,20.976 C18.304,20.954 18.404,20.916 18.454,20.891 C18.642,20.795 18.795,20.642 18.891,20.454 C18.916,20.404 18.954,20.304 18.976,20.032 C18.999,19.749 19,19.377 19,18.8 L19,5.2 C19,4.623 18.999,4.251 18.976,3.968 C18.954,3.696 18.916,3.595 18.891,3.546 C18.795,3.358 18.642,3.205 18.454,3.109 C18.404,3.084 18.304,3.046 18.032,3.024 C17.749,3.001 17.377,3 16.8,3 L7.2,3 C6.623,3 6.251,3.001 5.968,3.024 Z M10.5,17.5 C10.5,16.672 11.172,16 12,16 C12.828,16 13.5,16.672 13.5,17.5 C13.5,18.328 12.828,19 12,19 C11.172,19 10.5,18.328 10.5,17.5 Z"/>
</svg>
