<svg xmlns="http://www.w3.org/2000/svg" width="24" height="24" viewBox="0 0 24 24">
  <defs/>
  <path d="M9.258,4.5 C9.665,4.5 10.023,4.499 10.372,4.583 C10.678,4.656 10.971,4.778 11.239,4.942 C11.545,5.129 11.798,5.383 12.085,5.671 C12.105,5.691 12.125,5.71 12.144,5.73 L19.472,13.057 C19.844,13.43 20.166,13.752 20.409,14.038 C20.666,14.341 20.893,14.669 21.025,15.073 C21.221,15.675 21.221,16.325 21.025,16.927 C20.893,17.331 20.666,17.66 20.409,17.962 C20.166,18.248 19.844,18.57 19.472,18.943 L16.943,21.472 C16.57,21.844 16.248,22.166 15.962,22.409 C15.659,22.666 15.331,22.894 14.927,23.025 C14.325,23.221 13.675,23.221 13.073,23.025 C12.669,22.894 12.341,22.666 12.038,22.409 C11.752,22.166 11.43,21.844 11.057,21.472 L3.23,13.644 C3.21,13.625 3.191,13.605 3.171,13.586 C2.883,13.298 2.629,13.045 2.442,12.739 C2.278,12.471 2.156,12.178 2.083,11.872 C1.999,11.524 2,11.165 2,10.758 C2,10.73 2,10.703 2,10.675 L2,8.662 C2,8.134 2,7.68 2.031,7.305 C2.063,6.91 2.134,6.516 2.327,6.138 C2.615,5.574 3.074,5.115 3.638,4.827 C4.016,4.634 4.41,4.563 4.805,4.531 C5.18,4.5 5.634,4.5 6.161,4.5 L9.175,4.5 C9.202,4.5 9.23,4.5 9.258,4.5 Z M9.905,6.528 C9.817,6.506 9.711,6.5 9.175,6.5 L6.2,6.5 C5.623,6.5 5.251,6.501 4.968,6.524 C4.696,6.546 4.595,6.584 4.546,6.609 C4.358,6.705 4.205,6.858 4.109,7.046 C4.084,7.096 4.046,7.196 4.024,7.468 C4.001,7.751 4,8.124 4,8.7 L4,10.675 C4,11.211 4.006,11.317 4.028,11.405 C4.052,11.507 4.093,11.605 4.147,11.694 C4.195,11.772 4.265,11.851 4.644,12.23 L12.444,20.03 C12.852,20.438 13.116,20.701 13.333,20.885 C13.54,21.061 13.638,21.105 13.691,21.123 C13.892,21.188 14.108,21.188 14.309,21.123 C14.362,21.105 14.46,21.061 14.667,20.885 C14.884,20.701 15.148,20.438 15.556,20.03 L18.03,17.556 C18.438,17.148 18.701,16.884 18.885,16.667 C19.061,16.46 19.105,16.362 19.123,16.309 C19.188,16.108 19.188,15.892 19.123,15.691 C19.105,15.638 19.061,15.54 18.885,15.333 C18.701,15.116 18.438,14.852 18.03,14.444 L10.73,7.144 C10.351,6.765 10.271,6.695 10.194,6.647 C10.105,6.593 10.007,6.552 9.905,6.528 Z M11.224,3.055 C11.021,3.006 10.793,3 10.012,3 L6,3 C5.448,3 5,2.552 5,2 C5,1.448 5.448,1 6,1 L10.012,1 C10.046,1 10.08,1 10.114,1 C10.749,1 11.228,1 11.691,1.111 C12.099,1.209 12.489,1.37 12.847,1.589 C13.253,1.838 13.592,2.178 14.041,2.627 C14.065,2.65 14.089,2.675 14.113,2.699 L21.707,10.293 C22.098,10.684 22.098,11.317 21.707,11.707 C21.317,12.098 20.683,12.098 20.293,11.707 L12.699,4.113 C12.146,3.561 11.981,3.404 11.802,3.295 C11.623,3.185 11.428,3.104 11.224,3.055 Z"/>
</svg>
