<svg xmlns="http://www.w3.org/2000/svg" width="24" height="24" viewBox="0 0 24 24">
  <defs/>
  <path d="M6.742,1 C6.77,1 6.797,1 6.825,1 L9.675,1 C9.702,1 9.73,1 9.758,1 L9.758,1 C10.165,1 10.523,0.999 10.872,1.083 C11.178,1.156 11.471,1.278 11.739,1.442 C12.045,1.629 12.298,1.883 12.585,2.171 C12.605,2.191 12.625,2.21 12.644,2.23 L20.342,9.928 C20.911,10.497 21.381,10.967 21.733,11.381 C22.098,11.811 22.393,12.246 22.562,12.764 C22.823,13.567 22.823,14.433 22.562,15.236 C22.393,15.754 22.098,16.189 21.733,16.619 C21.381,17.033 20.911,17.503 20.342,18.072 L18.072,20.342 C17.503,20.912 17.033,21.381 16.619,21.733 C16.189,22.098 15.754,22.393 15.236,22.562 C14.433,22.823 13.567,22.823 12.764,22.562 C12.246,22.393 11.811,22.098 11.381,21.733 C10.967,21.381 10.497,20.912 9.928,20.342 L2.23,12.644 C2.21,12.625 2.191,12.605 2.171,12.586 C1.883,12.298 1.629,12.045 1.442,11.739 C1.278,11.471 1.156,11.178 1.083,10.872 C0.999,10.524 1,10.165 1,9.758 C1,9.73 1,9.703 1,9.675 L1,6.826 C1,6.798 1,6.77 1,6.742 L1,6.742 C1,6.335 0.999,5.977 1.083,5.628 C1.156,5.322 1.278,5.029 1.442,4.761 C1.629,4.455 1.883,4.202 2.171,3.915 C2.191,3.895 2.21,3.876 2.23,3.856 L3.856,2.23 C3.875,2.21 3.895,2.191 3.914,2.171 C4.202,1.883 4.455,1.629 4.761,1.442 C5.029,1.278 5.322,1.156 5.628,1.083 C5.977,0.999 6.335,1 6.742,1 Z M6.825,3 C6.289,3 6.183,3.007 6.095,3.028 C5.993,3.052 5.895,3.093 5.806,3.147 C5.728,3.195 5.649,3.265 5.27,3.644 L3.644,5.27 C3.265,5.65 3.195,5.729 3.147,5.806 C3.093,5.896 3.052,5.993 3.028,6.095 C3.006,6.183 3,6.289 3,6.826 L3,9.675 C3,10.211 3.006,10.317 3.028,10.405 C3.052,10.507 3.093,10.605 3.147,10.694 C3.195,10.772 3.265,10.851 3.644,11.23 L11.313,18.899 C11.919,19.505 12.331,19.916 12.675,20.208 C13.011,20.493 13.215,20.605 13.382,20.66 C13.784,20.79 14.216,20.79 14.618,20.66 C14.785,20.605 14.989,20.493 15.325,20.208 C15.669,19.916 16.081,19.505 16.687,18.899 L18.899,16.687 C19.504,16.081 19.916,15.669 20.208,15.325 C20.493,14.99 20.605,14.785 20.659,14.618 C20.79,14.216 20.79,13.784 20.659,13.382 C20.605,13.215 20.493,13.011 20.208,12.675 C19.916,12.331 19.504,11.919 18.899,11.313 L11.23,3.644 C10.851,3.265 10.771,3.195 10.694,3.147 C10.605,3.093 10.507,3.052 10.405,3.028 C10.317,3.007 10.211,3 9.674,3 Z M6.5,8 C6.5,7.172 7.172,6.5 8,6.5 C8.828,6.5 9.5,7.172 9.5,8 C9.5,8.829 8.828,9.5 8,9.5 C7.172,9.5 6.5,8.829 6.5,8 Z"/>
</svg>
