<svg xmlns="http://www.w3.org/2000/svg" width="24" height="24" viewBox="0 0 24 24">
  <defs/>
  <path d="M12,1 C12.552,1 13,1.448 13,2 L13,3.055 C17.172,3.516 20.484,6.828 20.945,11 L22,11 C22.552,11 23,11.448 23,12 C23,12.552 22.552,13 22,13 L20.945,13 C20.484,17.172 17.172,20.484 13,20.945 L13,22 C13,22.552 12.552,23 12,23 C11.448,23 11,22.552 11,22 L11,20.945 C6.828,20.484 3.516,17.172 3.055,13 L2,13 C1.448,13 1,12.552 1,12 C1,11.448 1.448,11 2,11 L3.055,11 C3.516,6.828 6.828,3.516 11,3.055 L11,2 C11,1.448 11.448,1 12,1 Z M11,5.071 C7.934,5.509 5.509,7.934 5.071,11 L6,11 C6.552,11 7,11.448 7,12 C7,12.552 6.552,13 6,13 L5.071,13 C5.509,16.066 7.934,18.491 11,18.929 L11,18 C11,17.448 11.448,17 12,17 C12.552,17 13,17.448 13,18 L13,18.929 C16.066,18.491 18.491,16.066 18.929,13 L18,13 C17.448,13 17,12.552 17,12 C17,11.448 17.448,11 18,11 L18.929,11 C18.491,7.934 16.066,5.509 13,5.071 L13,6 C13,6.552 12.552,7 12,7 C11.448,7 11,6.552 11,6 Z"/>
</svg>
