<svg xmlns="http://www.w3.org/2000/svg" width="24" height="24" viewBox="0 0 24 24">
  <defs/>
  <path d="M1,12 C1,5.925 5.925,1 12,1 C18.075,1 23,5.925 23,12 C23,18.075 18.075,23 12,23 C5.925,23 1,18.075 1,12 Z M12,3 C7.029,3 3,7.029 3,12 C3,16.971 7.029,21 12,21 C16.971,21 21,16.971 21,12 C21,7.029 16.971,3 12,3 Z M5,12 C5,8.134 8.134,5 12,5 C15.866,5 19,8.134 19,12 C19,15.866 15.866,19 12,19 C8.134,19 5,15.866 5,12 Z M12,7 C9.239,7 7,9.239 7,12 C7,14.761 9.239,17 12,17 C14.761,17 17,14.761 17,12 C17,9.239 14.761,7 12,7 Z M9,12 C9,10.343 10.343,9 12,9 C13.657,9 15,10.343 15,12 C15,13.657 13.657,15 12,15 C10.343,15 9,13.657 9,12 Z M12,11 C11.448,11 11,11.448 11,12 C11,12.552 11.448,13 12,13 C12.552,13 13,12.552 13,12 C13,11.448 12.552,11 12,11 Z"/>
</svg>
