<svg xmlns="http://www.w3.org/2000/svg" width="24" height="24" viewBox="0 0 24 24">
  <defs/>
  <path d="M12,3 C7.029,3 3,7.029 3,12 C3,16.971 7.029,21 12,21 C16.971,21 21,16.971 21,12 C21,11.448 21.448,11 22,11 C22.552,11 23,11.448 23,12 C23,18.075 18.075,23 12,23 C5.925,23 1,18.075 1,12 C1,5.925 5.925,1 12,1 C12.552,1 13,1.448 13,2 C13,2.552 12.552,3 12,3 Z M19.16,1.013 C19.477,1.064 19.751,1.265 19.894,1.553 L20.745,3.255 L22.447,4.106 C22.735,4.249 22.936,4.523 22.987,4.84 C23.038,5.157 22.934,5.48 22.707,5.707 L19.707,8.707 C19.52,8.895 19.265,9 19,9 L16.414,9 L12.707,12.707 C12.316,13.098 11.683,13.098 11.293,12.707 C10.902,12.316 10.902,11.683 11.293,11.293 L15,7.586 L15,5 C15,4.735 15.105,4.48 15.293,4.293 L18.293,1.293 C18.52,1.066 18.843,0.961 19.16,1.013 Z M12,8 C9.791,8 8,9.791 8,12 C8,14.209 9.791,16 12,16 C14.209,16 16,14.209 16,12 C16,11.448 16.448,11 17,11 C17.552,11 18,11.448 18,12 C18,15.314 15.314,18 12,18 C8.686,18 6,15.314 6,12 C6,8.686 8.686,6 12,6 C12.552,6 13,6.448 13,7 C13,7.552 12.552,8 12,8 Z M17,7 L18.586,7 L20.312,5.274 L19.553,4.894 C19.359,4.798 19.202,4.641 19.105,4.447 L18.726,3.688 L17,5.414 Z"/>
</svg>
