<svg xmlns="http://www.w3.org/2000/svg" width="24" height="24" viewBox="0 0 24 24">
  <defs/>
  <path d="M1,12 C1,5.925 5.925,1 12,1 C18.075,1 23,5.925 23,12 C23,18.075 18.075,23 12,23 C5.925,23 1,18.075 1,12 Z M3.055,11 L6,11 C6.552,11 7,11.448 7,12 C7,12.552 6.552,13 6,13 L3.055,13 C3.516,17.172 6.828,20.484 11,20.945 L11,18 C11,17.448 11.448,17 12,17 C12.552,17 13,17.448 13,18 L13,20.945 C17.172,20.484 20.484,17.172 20.945,13 L18,13 C17.448,13 17,12.552 17,12 C17,11.448 17.448,11 18,11 L20.945,11 C20.484,6.828 17.172,3.516 13,3.055 L13,6 C13,6.552 12.552,7 12,7 C11.448,7 11,6.552 11,6 L11,3.055 C6.828,3.516 3.516,6.828 3.055,11 Z"/>
</svg>
