<svg xmlns="http://www.w3.org/2000/svg" width="24" height="24" viewBox="0 0 24 24">
  <defs/>
  <path d="M18.474,10.389 L14.45,11.467 C14.797,11.957 15,12.554 15,13.2 C15,13.864 14.785,14.477 14.42,14.974 L18.827,21.437 C19.138,21.893 19.02,22.515 18.564,22.826 C18.107,23.137 17.485,23.02 17.174,22.563 L12.768,16.101 C12.523,16.166 12.266,16.2 12,16.2 C11.735,16.2 11.478,16.166 11.233,16.101 L6.827,22.563 C6.515,23.02 5.893,23.137 5.437,22.826 C4.981,22.515 4.863,21.893 5.174,21.437 L9.581,14.974 C9.216,14.477 9,13.864 9,13.2 C9,13.107 9.005,13.015 9.013,12.924 L6.918,13.485 C6.91,13.487 6.903,13.489 6.895,13.491 C6.78,13.522 6.643,13.559 6.519,13.582 C6.376,13.608 6.167,13.632 5.928,13.581 C5.618,13.516 5.337,13.353 5.125,13.118 C5.079,13.066 5.039,13.014 5.004,12.963 L3.761,13.296 C3.754,13.298 3.746,13.3 3.739,13.302 C3.624,13.333 3.486,13.37 3.362,13.392 C3.219,13.418 3.01,13.443 2.771,13.392 C2.461,13.326 2.18,13.164 1.968,12.928 C1.805,12.747 1.721,12.554 1.672,12.416 C1.63,12.298 1.593,12.16 1.562,12.045 C1.56,12.038 1.558,12.031 1.556,12.023 L1.194,10.671 C1.192,10.663 1.19,10.656 1.188,10.649 C1.157,10.533 1.12,10.396 1.098,10.272 C1.072,10.129 1.047,9.92 1.098,9.681 C1.164,9.371 1.326,9.09 1.562,8.878 C1.743,8.714 1.936,8.631 2.074,8.582 C2.192,8.54 2.329,8.503 2.444,8.472 C2.452,8.47 2.459,8.468 2.467,8.466 L3.71,8.133 C3.714,8.071 3.723,8.006 3.737,7.939 C3.803,7.629 3.965,7.348 4.201,7.136 C4.382,6.972 4.575,6.889 4.713,6.84 C4.831,6.797 4.968,6.761 5.083,6.73 C5.091,6.728 5.098,6.726 5.106,6.724 L16.662,3.627 C16.828,3.298 17.055,3.001 17.332,2.751 C17.648,2.467 18.009,2.296 18.383,2.163 C18.736,2.036 19.176,1.919 19.685,1.782 L19.745,1.766 C19.86,1.735 19.997,1.698 20.121,1.676 C20.264,1.65 20.473,1.625 20.712,1.676 C21.022,1.742 21.303,1.904 21.515,2.14 C21.679,2.321 21.762,2.515 21.811,2.652 C21.853,2.77 21.89,2.908 21.921,3.023 C21.923,3.03 21.925,3.038 21.927,3.045 L23.324,8.261 C23.326,8.268 23.328,8.276 23.33,8.283 C23.361,8.398 23.398,8.536 23.421,8.659 C23.447,8.803 23.471,9.012 23.42,9.251 C23.354,9.561 23.192,9.842 22.957,10.054 C22.775,10.217 22.582,10.301 22.445,10.35 C22.326,10.392 22.189,10.429 22.074,10.46 L22.014,10.476 C21.505,10.612 21.066,10.73 20.696,10.797 C20.306,10.868 19.908,10.901 19.492,10.813 C19.127,10.735 18.782,10.591 18.474,10.389 Z M16.937,7.603 C16.93,7.58 16.924,7.557 16.918,7.533 L16.742,6.879 C16.736,6.857 16.731,6.835 16.725,6.814 L16.442,5.757 L5.817,8.604 L6.005,9.307 C6.009,9.323 6.014,9.339 6.018,9.354 C6.02,9.362 6.022,9.369 6.024,9.377 L6.386,10.729 C6.388,10.736 6.39,10.744 6.392,10.751 C6.396,10.767 6.4,10.783 6.405,10.799 L6.593,11.502 L17.218,8.655 Z M20.047,3.756 C19.598,3.877 19.291,3.962 19.056,4.046 C18.799,4.138 18.712,4.2 18.67,4.237 C18.514,4.379 18.405,4.566 18.361,4.773 C18.35,4.827 18.34,4.934 18.388,5.202 C18.439,5.482 18.535,5.842 18.684,6.398 L18.84,6.978 C18.989,7.535 19.086,7.894 19.181,8.162 C19.273,8.419 19.336,8.506 19.373,8.547 C19.514,8.704 19.702,8.813 19.908,8.856 C19.962,8.868 20.069,8.878 20.338,8.829 C20.583,8.785 20.891,8.705 21.341,8.585 Z M12.642,13.967 C12.861,13.784 13,13.508 13,13.2 C13,12.648 12.553,12.2 12,12.2 C11.448,12.2 11,12.648 11,13.2 C11,13.508 11.14,13.784 11.359,13.967 C11.387,13.983 11.415,14 11.442,14.018 C11.47,14.037 11.496,14.057 11.521,14.078 C11.663,14.156 11.827,14.2 12,14.2 C12.174,14.2 12.338,14.156 12.48,14.078 C12.505,14.057 12.531,14.037 12.558,14.018 C12.586,14 12.613,13.983 12.642,13.967 Z M4.402,11.054 L4.144,10.088 L3.178,10.346 L3.436,11.312 Z"/>
</svg>
