<svg xmlns="http://www.w3.org/2000/svg" width="24" height="24" viewBox="0 0 24 24">
  <defs/>
  <path d="M1,12 C1,5.925 5.925,1 12,1 C18.075,1 23,5.925 23,12 C23,18.075 18.075,23 12,23 C5.925,23 1,18.075 1,12 Z M12,3 C7.029,3 3,7.029 3,12 C3,16.971 7.029,21 12,21 C16.971,21 21,16.971 21,12 C21,7.029 16.971,3 12,3 Z M6.293,8.293 C6.683,7.902 7.317,7.902 7.707,8.293 L10.707,11.293 C11.098,11.683 11.098,12.317 10.707,12.707 L7.707,15.707 C7.317,16.098 6.683,16.098 6.293,15.707 C5.902,15.317 5.902,14.683 6.293,14.293 L8.586,12 L6.293,9.707 C5.902,9.317 5.902,8.683 6.293,8.293 Z M12,15 C12,14.448 12.448,14 13,14 L17,14 C17.552,14 18,14.448 18,15 C18,15.552 17.552,16 17,16 L13,16 C12.448,16 12,15.552 12,15 Z"/>
</svg>
