<svg xmlns="http://www.w3.org/2000/svg" width="24" height="24" viewBox="0 0 24 24">
  <defs/>
  <path d="M3.293,4.293 C3.683,3.902 4.317,3.902 4.707,4.293 L10.707,10.293 C11.098,10.683 11.098,11.317 10.707,11.707 L4.707,17.707 C4.317,18.098 3.683,18.098 3.293,17.707 C2.902,17.317 2.902,16.683 3.293,16.293 L8.586,11 L3.293,5.707 C2.902,5.317 2.902,4.683 3.293,4.293 Z M11,19 C11,18.448 11.448,18 12,18 L20,18 C20.552,18 21,18.448 21,19 C21,19.552 20.552,20 20,20 L12,20 C11.448,20 11,19.552 11,19 Z"/>
</svg>
