<svg xmlns="http://www.w3.org/2000/svg" width="24" height="24" viewBox="0 0 24 24">
  <defs/>
  <path d="M15,4 C15,2.343 16.343,1 18,1 C19.657,1 21,2.343 21,4 L21,14 C22.213,14.911 23,16.363 23,18 C23,20.761 20.761,23 18,23 C15.239,23 13,20.761 13,18 C13,16.363 13.787,14.911 15,14 Z M18,3 C17.448,3 17,3.448 17,4 L17,14.535 C17,14.892 16.81,15.222 16.501,15.401 C15.601,15.921 15,16.891 15,18 C15,19.657 16.343,21 18,21 C19.657,21 21,19.657 21,18 C21,16.891 20.399,15.921 19.499,15.401 C19.19,15.222 19,14.892 19,14.535 L19,4 C19,3.448 18.552,3 18,3 Z M8.921,9.01 C9.811,8.338 10.901,7.982 12.016,8 C12.568,8.009 13.009,8.464 13,9.016 C12.991,9.568 12.536,10.009 11.984,10 C11.315,9.989 10.661,10.202 10.127,10.606 C9.593,11.009 9.209,11.58 9.037,12.226 C8.864,12.873 8.913,13.559 9.175,14.175 C9.438,14.791 9.898,15.301 10.484,15.625 C10.967,15.892 11.142,16.501 10.875,16.984 C10.608,17.467 9.999,17.642 9.516,17.375 C8.54,16.835 7.772,15.985 7.335,14.958 C6.898,13.932 6.817,12.789 7.104,11.711 C7.392,10.633 8.031,9.683 8.921,9.01 Z M12,2 C12.552,2 13,2.448 13,3 L13,5 C13,5.552 12.552,6 12,6 C11.448,6 11,5.552 11,5 L11,3 C11,2.448 11.448,2 12,2 Z M1,13 C1,12.448 1.448,12 2,12 L4,12 C4.552,12 5,12.448 5,13 C5,13.552 4.552,14 4,14 L2,14 C1.448,14 1,13.552 1,13 Z M4.493,5.493 C4.883,5.102 5.517,5.102 5.907,5.493 L7.307,6.893 C7.698,7.283 7.698,7.917 7.307,8.307 C6.917,8.698 6.283,8.698 5.893,8.307 L4.493,6.907 C4.102,6.517 4.102,5.883 4.493,5.493 Z M7.307,17.693 C7.698,18.083 7.698,18.717 7.307,19.107 L5.907,20.507 C5.517,20.898 4.883,20.898 4.493,20.507 C4.102,20.117 4.102,19.483 4.493,19.093 L5.893,17.693 C6.283,17.302 6.917,17.302 7.307,17.693 Z"/>
</svg>
