<svg xmlns="http://www.w3.org/2000/svg" width="24" height="24" viewBox="0 0 24 24">
  <defs/>
  <path d="M8.5,4.5 C8.5,2.567 10.067,1 12,1 C13.933,1 15.5,2.567 15.5,4.5 L15.5,13.257 C16.72,14.265 17.5,15.791 17.5,17.5 C17.5,20.538 15.038,23 12,23 C8.962,23 6.5,20.538 6.5,17.5 C6.5,15.791 7.28,14.265 8.5,13.257 Z M12,3 C11.172,3 10.5,3.672 10.5,4.5 L10.5,13.758 C10.5,14.092 10.334,14.403 10.056,14.589 C9.116,15.218 8.5,16.288 8.5,17.5 C8.5,19.433 10.067,21 12,21 C13.933,21 15.5,19.433 15.5,17.5 C15.5,16.288 14.884,15.218 13.944,14.589 C13.666,14.403 13.5,14.092 13.5,13.758 L13.5,4.5 C13.5,3.672 12.828,3 12,3 Z M10,17.5 C10,16.395 10.895,15.5 12,15.5 C13.105,15.5 14,16.395 14,17.5 C14,18.605 13.105,19.5 12,19.5 C10.895,19.5 10,18.605 10,17.5 Z"/>
</svg>
