<svg xmlns="http://www.w3.org/2000/svg" width="24" height="24" viewBox="0 0 24 24">
  <defs/>
  <path d="M15,4 C15,2.343 16.343,1 18,1 C19.657,1 21,2.343 21,4 L21,14 C22.213,14.911 23,16.363 23,18 C23,20.761 20.761,23 18,23 C15.239,23 13,20.761 13,18 C13,16.363 13.787,14.911 15,14 Z M9,3 C9.552,3 10,3.448 10,4 L10,6.586 L11.293,5.293 C11.683,4.902 12.317,4.902 12.707,5.293 C13.098,5.683 13.098,6.317 12.707,6.707 L10,9.414 L10,11 L12,11 C12.552,11 13,11.448 13,12 C13,12.552 12.552,13 12,13 L10,13 L10,14.586 L11.207,15.793 C11.598,16.183 11.598,16.817 11.207,17.207 C10.88,17.534 10.382,17.587 10,17.366 L10,20 C10,20.552 9.552,21 9,21 C8.448,21 8,20.552 8,20 L8,17.414 L6.707,18.707 C6.317,19.098 5.683,19.098 5.293,18.707 C4.902,18.317 4.902,17.683 5.293,17.293 L8,14.586 L8,13 L6.414,13 L3.707,15.707 C3.317,16.098 2.683,16.098 2.293,15.707 C1.902,15.317 1.902,14.683 2.293,14.293 L3.586,13 L2,13 C1.448,13 1,12.552 1,12 C1,11.448 1.448,11 2,11 L3.586,11 L2.293,9.707 C1.902,9.317 1.902,8.683 2.293,8.293 C2.683,7.902 3.317,7.902 3.707,8.293 L6.414,11 L8,11 L8,9.414 L5.293,6.707 C4.902,6.317 4.902,5.683 5.293,5.293 C5.683,4.902 6.317,4.902 6.707,5.293 L8,6.586 L8,4 C8,3.448 8.448,3 9,3 Z M18,3 C17.448,3 17,3.448 17,4 L17,14.535 C17,14.892 16.81,15.222 16.501,15.401 C15.601,15.921 15,16.891 15,18 C15,19.657 16.343,21 18,21 C19.657,21 21,19.657 21,18 C21,16.891 20.399,15.921 19.499,15.401 C19.19,15.222 19,14.892 19,14.535 L19,4 C19,3.448 18.552,3 18,3 Z"/>
</svg>
