<svg xmlns="http://www.w3.org/2000/svg" width="24" height="24" viewBox="0 0 24 24">
  <defs/>
  <path d="M4.5,4.5 C4.5,2.567 6.067,1 8,1 C9.933,1 11.5,2.567 11.5,4.5 L11.5,13.257 C12.72,14.265 13.5,15.791 13.5,17.5 C13.5,20.538 11.038,23 8,23 C4.962,23 2.5,20.538 2.5,17.5 C2.5,15.791 3.28,14.265 4.5,13.257 Z M8,3 C7.172,3 6.5,3.672 6.5,4.5 L6.5,13.758 C6.5,14.092 6.334,14.403 6.056,14.589 C5.116,15.218 4.5,16.288 4.5,17.5 C4.5,19.433 6.067,21 8,21 C9.933,21 11.5,19.433 11.5,17.5 C11.5,16.288 10.884,15.218 9.944,14.589 C9.666,14.403 9.5,14.092 9.5,13.758 L9.5,4.5 C9.5,3.672 8.828,3 8,3 Z M14,11 C14,10.448 14.448,10 15,10 L21,10 C21.552,10 22,10.448 22,11 C22,11.552 21.552,12 21,12 L15,12 C14.448,12 14,11.552 14,11 Z M14,3 C14,2.448 14.448,2 15,2 L21,2 C21.552,2 22,2.448 22,3 C22,3.552 21.552,4 21,4 L15,4 C14.448,4 14,3.552 14,3 Z M14,7 C14,6.448 14.448,6 15,6 L21,6 C21.552,6 22,6.448 22,7 C22,7.552 21.552,8 21,8 L15,8 C14.448,8 14,7.552 14,7 Z M6,17.5 C6,16.395 6.895,15.5 8,15.5 C9.105,15.5 10,16.395 10,17.5 C10,18.605 9.105,19.5 8,19.5 C6.895,19.5 6,18.605 6,17.5 Z"/>
</svg>
