<svg xmlns="http://www.w3.org/2000/svg" width="24" height="24" viewBox="0 0 24 24">
  <defs/>
  <path d="M9.869,2.082 C10.162,1.424 10.814,1 11.534,1 C13.448,1 15,2.552 15,4.466 L15,8 L18.503,8 C20.955,8 22.829,10.185 22.457,12.608 L21.38,19.608 C21.08,21.56 19.4,23 17.426,23 L4,23 C2.343,23 1,21.657 1,20 L1,13 C1,11.343 2.343,10 4,10 L6.35,10 Z M8,21 L17.426,21 C18.413,21 19.253,20.28 19.403,19.304 L20.48,12.304 C20.666,11.093 19.729,10 18.503,10 L15,10 C13.895,10 13,9.105 13,8 L13,4.466 C13,3.695 12.404,3.062 11.648,3.004 L8.178,10.812 C8.128,10.925 8.068,11.031 8,11.131 Z M6,12 L4,12 C3.448,12 3,12.448 3,13 L3,20 C3,20.552 3.448,21 4,21 L6,21 Z"/>
</svg>
