<svg xmlns="http://www.w3.org/2000/svg" width="24" height="24" viewBox="0 0 24 24">
  <defs/>
  <path d="M18.839,1 C19.366,1 19.821,1 20.195,1.031 C20.59,1.063 20.984,1.134 21.362,1.327 C21.927,1.615 22.385,2.074 22.673,2.638 C22.866,3.016 22.937,3.41 22.969,3.805 C23,4.18 23,4.634 23,5.161 L23,9.839 C23,10.366 23,10.821 22.969,11.195 C22.937,11.59 22.866,11.984 22.673,12.362 C22.385,12.927 21.927,13.385 21.362,13.673 C20.984,13.866 20.59,13.937 20.195,13.969 C19.821,14 19.366,14 18.839,14 L18.04,14 C17.839,14 17.735,14 17.66,14.005 L17.654,14.006 C17.653,14.008 17.652,14.01 17.651,14.012 C17.616,14.078 17.573,14.173 17.492,14.356 L14.131,21.918 C13.838,22.576 13.186,23 12.466,23 C10.552,23 9,21.448 9,19.534 L9,16.6 C9,16.303 8.999,16.141 8.99,16.025 C8.989,16.02 8.989,16.016 8.989,16.011 C8.985,16.011 8.98,16.011 8.975,16.01 C8.859,16.001 8.697,16 8.4,16 L7.55,16 C6.625,16 5.866,16 5.254,15.947 C4.624,15.893 4.045,15.776 3.52,15.477 C2.713,15.018 2.09,14.293 1.76,13.425 C1.544,12.861 1.517,12.271 1.559,11.64 C1.599,11.027 1.715,10.277 1.856,9.362 L2.391,5.881 C2.498,5.19 2.586,4.617 2.694,4.151 C2.807,3.664 2.958,3.222 3.224,2.814 C3.64,2.177 4.229,1.671 4.923,1.357 C5.366,1.156 5.826,1.074 6.324,1.036 C6.802,1 7.382,1 8.08,1 L18.839,1 Z M16,12.878 L16,3 L8.118,3 C7.372,3 6.869,3.001 6.476,3.031 C6.096,3.059 5.895,3.112 5.748,3.178 C5.402,3.335 5.107,3.588 4.899,3.907 C4.811,4.042 4.729,4.233 4.642,4.604 C4.553,4.987 4.476,5.485 4.362,6.222 L3.839,9.622 C3.69,10.592 3.589,11.257 3.554,11.773 C3.52,12.279 3.561,12.536 3.628,12.713 C3.794,13.146 4.105,13.509 4.508,13.739 C4.672,13.832 4.921,13.911 5.426,13.955 C5.941,13.999 6.614,14 7.595,14 L8.436,14 C8.687,14 8.931,14 9.138,14.017 C9.367,14.036 9.637,14.08 9.908,14.218 C10.284,14.41 10.59,14.716 10.782,15.092 C10.92,15.363 10.965,15.633 10.983,15.862 C11,16.069 11,16.313 11,16.564 L11,19.534 C11,20.305 11.596,20.938 12.352,20.996 L15.664,13.544 C15.675,13.521 15.685,13.496 15.696,13.471 C15.776,13.29 15.87,13.077 16,12.878 Z M20.032,3.024 C19.749,3.001 19.377,3 18.8,3 L18,3 L18,12 C18.014,12 18.027,12 18.04,12 L18.8,12 C19.377,12 19.749,11.999 20.032,11.976 C20.304,11.954 20.405,11.916 20.454,11.891 C20.642,11.795 20.795,11.642 20.891,11.454 C20.916,11.405 20.954,11.304 20.976,11.032 C20.999,10.749 21,10.377 21,9.8 L21,5.2 C21,4.623 20.999,4.251 20.976,3.968 C20.954,3.696 20.916,3.595 20.891,3.546 C20.795,3.358 20.642,3.205 20.454,3.109 C20.405,3.084 20.304,3.046 20.032,3.024 Z"/>
</svg>
