<svg xmlns="http://www.w3.org/2000/svg" width="24" height="24" viewBox="0 0 24 24">
  <defs/>
  <path d="M1,12 C1,8.134 4.134,5 8,5 L16,5 C19.866,5 23,8.134 23,12 C23,15.866 19.866,19 16,19 L8,19 C4.134,19 1,15.866 1,12 Z M8,7 C5.239,7 3,9.239 3,12 C3,14.761 5.239,17 8,17 L16,17 C18.761,17 21,14.761 21,12 C21,9.239 18.761,7 16,7 Z M12.5,12 C12.5,10.067 14.067,8.5 16,8.5 C17.933,8.5 19.5,10.067 19.5,12 C19.5,13.933 17.933,15.5 16,15.5 C14.067,15.5 12.5,13.933 12.5,12 Z M16,10.5 C15.172,10.5 14.5,11.172 14.5,12 C14.5,12.828 15.172,13.5 16,13.5 C16.828,13.5 17.5,12.828 17.5,12 C17.5,11.172 16.828,10.5 16,10.5 Z"/>
</svg>
