<svg xmlns="http://www.w3.org/2000/svg" width="24" height="24" viewBox="0 0 24 24">
  <defs/>
  <path d="M1,12 C1,8.134 4.134,5 8,5 L16,5 C19.866,5 23,8.134 23,12 C23,15.866 19.866,19 16,19 L8,19 C4.134,19 1,15.866 1,12 Z M8,7 C5.239,7 3,9.239 3,12 C3,14.761 5.239,17 8,17 L16,17 C18.761,17 21,14.761 21,12 C21,9.239 18.761,7 16,7 Z M4.5,12 C4.5,10.067 6.067,8.5 8,8.5 C9.933,8.5 11.5,10.067 11.5,12 C11.5,13.933 9.933,15.5 8,15.5 C6.067,15.5 4.5,13.933 4.5,12 Z M8,10.5 C7.172,10.5 6.5,11.172 6.5,12 C6.5,12.828 7.172,13.5 8,13.5 C8.828,13.5 9.5,12.828 9.5,12 C9.5,11.172 8.828,10.5 8,10.5 Z"/>
</svg>
