<svg xmlns="http://www.w3.org/2000/svg" width="24" height="24" viewBox="0 0 24 24">
  <defs/>
  <path d="M1,12 C1,8.686 3.686,6 7,6 C8.227,6 9.367,6.368 10.318,7 L18,7 C20.761,7 23,9.239 23,12 C23,14.761 20.761,17 18,17 L10.318,17 C9.367,17.632 8.227,18 7,18 C3.686,18 1,15.314 1,12 Z M7,8 C4.791,8 3,9.791 3,12 C3,14.209 4.791,16 7,16 C9.209,16 11,14.209 11,12 C11,9.791 9.209,8 7,8 Z M12.197,15 L18,15 C19.657,15 21,13.657 21,12 C21,10.343 19.657,9 18,9 L12.197,9 C12.708,9.883 13,10.907 13,12 C13,13.093 12.708,14.118 12.197,15 Z"/>
</svg>
