<svg xmlns="http://www.w3.org/2000/svg" width="24" height="24" viewBox="0 0 24 24">
  <defs/>
  <path d="M13.682,7 C14.632,6.368 15.773,6 17,6 C20.313,6 23,8.686 23,12 C23,15.314 20.313,18 17,18 C15.773,18 14.632,17.632 13.682,17 L6,17 C3.239,17 1,14.761 1,12 C1,9.239 3.239,7 6,7 Z M14.582,8.813 C13.62,9.543 13,10.699 13,12 C13,13.301 13.62,14.457 14.582,15.187 C14.594,15.196 14.605,15.204 14.617,15.213 C15.282,15.708 16.107,16 17,16 C19.209,16 21,14.209 21,12 C21,9.791 19.209,8 17,8 C16.107,8 15.282,8.292 14.617,8.787 C14.605,8.796 14.594,8.804 14.582,8.813 Z M11.802,9 L6,9 C4.343,9 3,10.343 3,12 C3,13.657 4.343,15 6,15 L11.802,15 C11.292,14.118 11,13.093 11,12 C11,10.907 11.292,9.883 11.802,9 Z"/>
</svg>
