<svg xmlns="http://www.w3.org/2000/svg" width="24" height="24" viewBox="0 0 24 24">
  <defs/>
  <path d="M9,8 C9,4.134 12.134,1 16,1 C17.025,1 18.002,1.221 18.882,1.619 C19.181,1.754 19.395,2.028 19.454,2.351 C19.512,2.674 19.409,3.005 19.177,3.237 L16.338,6.076 C16.129,6.285 16.015,6.401 15.939,6.49 C15.936,6.493 15.933,6.497 15.93,6.5 C15.933,6.503 15.936,6.507 15.939,6.51 C16.015,6.599 16.129,6.715 16.338,6.924 L17.076,7.662 C17.285,7.871 17.401,7.985 17.49,8.061 C17.493,8.064 17.497,8.067 17.5,8.07 C17.503,8.067 17.507,8.064 17.51,8.061 C17.599,7.985 17.715,7.871 17.924,7.662 L20.763,4.823 C20.995,4.591 21.326,4.488 21.649,4.546 C21.972,4.605 22.246,4.819 22.381,5.118 C22.779,5.998 23,6.975 23,8 C23,11.866 19.866,15 16,15 C15.429,15 14.872,14.931 14.338,14.801 C14.085,14.74 13.925,14.701 13.808,14.677 C13.787,14.673 13.769,14.67 13.755,14.667 C13.751,14.671 13.747,14.674 13.742,14.678 C13.68,14.734 13.599,14.816 13.455,14.959 L7.207,21.207 C5.988,22.426 4.012,22.426 2.793,21.207 C1.574,19.988 1.574,18.012 2.793,16.793 L9.041,10.545 C9.185,10.401 9.266,10.32 9.322,10.258 C9.326,10.253 9.329,10.249 9.333,10.245 C9.33,10.231 9.327,10.213 9.323,10.192 C9.299,10.075 9.26,9.915 9.199,9.662 C9.069,9.128 9,8.571 9,8 Z M16,3 C13.239,3 11,5.239 11,8 C11,8.411 11.049,8.809 11.142,9.188 L11.146,9.208 C11.202,9.436 11.251,9.636 11.283,9.798 C11.314,9.951 11.351,10.162 11.336,10.382 C11.316,10.68 11.254,10.899 11.116,11.165 C10.97,11.448 10.721,11.695 10.516,11.899 C10.495,11.92 10.475,11.94 10.455,11.959 L4.207,18.207 C3.769,18.645 3.769,19.355 4.207,19.793 C4.645,20.231 5.355,20.231 5.793,19.793 L12.041,13.545 C12.06,13.525 12.08,13.505 12.101,13.484 C12.305,13.279 12.552,13.03 12.835,12.884 C13.1,12.746 13.32,12.684 13.618,12.664 C13.838,12.649 14.049,12.686 14.202,12.717 C14.364,12.749 14.564,12.798 14.792,12.853 L14.812,12.858 C15.191,12.951 15.589,13 16,13 C18.761,13 21,10.761 21,8 C21,7.812 20.99,7.627 20.97,7.445 L19.316,9.098 C19.137,9.277 18.964,9.451 18.805,9.586 C18.63,9.734 18.408,9.894 18.118,9.988 C17.716,10.118 17.284,10.118 16.882,9.988 C16.592,9.894 16.37,9.734 16.195,9.586 C16.036,9.451 15.863,9.277 15.684,9.098 L14.902,8.316 C14.723,8.137 14.549,7.964 14.414,7.804 C14.266,7.63 14.106,7.408 14.012,7.118 C13.882,6.716 13.882,6.284 14.012,5.882 C14.106,5.592 14.266,5.37 14.414,5.196 C14.549,5.036 14.723,4.863 14.902,4.684 L16.555,3.03 C16.373,3.01 16.188,3 16,3 Z M9.35,10.229 C9.348,10.233 9.346,10.239 9.345,10.245 L9.344,10.247 C9.342,10.253 9.341,10.259 9.34,10.264 L9.34,10.265 Z"/>
</svg>
