<svg xmlns="http://www.w3.org/2000/svg" width="24" height="24" viewBox="0 0 24 24">
  <defs/>
  <path d="M2.293,1.293 C2.561,1.025 2.957,0.932 3.316,1.051 L6.316,2.051 C6.725,2.187 7,2.57 7,3 L7,5.586 L10.11,8.696 C10.038,8.307 10,7.908 10,7.5 C10,3.91 12.91,1 16.5,1 C17.687,1 18.802,1.319 19.761,1.876 C20.03,2.032 20.211,2.304 20.251,2.612 C20.291,2.92 20.186,3.229 19.966,3.448 L17.338,6.076 C17.129,6.285 17.015,6.401 16.939,6.49 C16.936,6.493 16.933,6.497 16.93,6.5 C16.933,6.503 16.936,6.507 16.939,6.51 C17.015,6.599 17.129,6.715 17.338,6.924 L17.576,7.162 C17.785,7.371 17.901,7.485 17.99,7.561 C17.993,7.564 17.997,7.567 18,7.57 C18.003,7.567 18.007,7.564 18.01,7.561 C18.099,7.485 18.215,7.371 18.424,7.162 L20.882,4.704 C21.119,4.467 21.458,4.365 21.786,4.43 C22.114,4.496 22.387,4.721 22.514,5.031 C22.828,5.793 23,6.628 23,7.5 C23,10.505 20.961,13.033 18.192,13.778 L21.207,16.793 C22.426,18.012 22.426,19.988 21.207,21.207 C19.988,22.426 18.012,22.426 16.793,21.207 L12,16.414 L7.207,21.207 C5.988,22.426 4.012,22.426 2.793,21.207 C1.574,19.988 1.574,18.012 2.793,16.793 L9.086,10.5 L5.586,7 L3,7 C2.57,7 2.187,6.725 2.051,6.316 L1.051,3.316 C0.932,2.957 1.025,2.561 1.293,2.293 Z M11.206,11.208 L4.207,18.207 C3.769,18.645 3.769,19.355 4.207,19.793 C4.645,20.231 5.355,20.231 5.793,19.793 L12.95,12.636 C12.969,12.617 12.988,12.597 13.008,12.578 C13.049,12.537 13.091,12.494 13.135,12.45 L13.233,12.353 C13.345,12.241 13.467,12.146 13.594,12.067 C13.631,12.042 13.67,12.019 13.709,11.998 C13.806,11.946 13.925,11.889 14.069,11.845 C14.213,11.801 14.344,11.783 14.454,11.772 C14.476,11.77 14.497,11.768 14.518,11.767 C14.788,11.745 15.057,11.772 15.306,11.84 C15.41,11.869 15.515,11.894 15.622,11.915 L15.623,11.915 C15.643,11.919 15.662,11.922 15.682,11.926 C15.809,11.949 15.938,11.967 16.07,11.98 C16.211,11.993 16.355,12 16.5,12 C18.985,12 21,9.985 21,7.5 C21,7.472 21,7.443 20.999,7.415 L19.816,8.598 C19.638,8.777 19.464,8.951 19.305,9.086 C19.13,9.234 18.908,9.394 18.618,9.488 C18.216,9.618 17.784,9.618 17.382,9.488 C17.092,9.394 16.87,9.234 16.695,9.086 C16.536,8.951 16.362,8.777 16.184,8.598 L15.902,8.316 C15.723,8.138 15.549,7.964 15.414,7.805 C15.266,7.63 15.106,7.408 15.012,7.118 C14.882,6.716 14.882,6.284 15.012,5.882 C15.106,5.592 15.266,5.37 15.414,5.196 C15.549,5.036 15.723,4.863 15.902,4.684 L17.479,3.107 C17.164,3.037 16.837,3 16.5,3 C14.015,3 12,5.015 12,7.5 C12,7.801 12.029,8.094 12.085,8.377 L12.089,8.395 C12.134,8.623 12.173,8.821 12.198,8.979 C12.221,9.128 12.249,9.335 12.228,9.546 C12.217,9.656 12.199,9.787 12.155,9.931 C12.111,10.075 12.054,10.194 12.002,10.291 C11.858,10.559 11.62,10.796 11.422,10.992 C11.403,11.012 11.383,11.031 11.364,11.05 L11.208,11.206 L11.207,11.207 Z M13.414,15 L18.207,19.793 C18.645,20.231 19.355,20.231 19.793,19.793 C20.231,19.355 20.231,18.645 19.793,18.207 L15.511,13.925 C15.419,13.911 15.327,13.895 15.236,13.877 C14.985,13.828 14.825,13.796 14.708,13.778 C14.686,13.774 14.667,13.771 14.652,13.769 C14.648,13.773 14.644,13.776 14.64,13.78 C14.582,13.833 14.505,13.909 14.373,14.042 C14.37,14.044 14.367,14.047 14.364,14.05 Z M5,5 L5,3.721 L3.27,3.144 L3.144,3.27 L3.721,5 Z"/>
</svg>
