<svg xmlns="http://www.w3.org/2000/svg" width="24" height="24" viewBox="0 0 24 24">
  <defs/>
  <path d="M7,2 C7,1.448 7.448,1 8,1 L16,1 C16.552,1 17,1.448 17,2 C17,2.552 16.552,3 16,3 L13,3 L13,4 L15.241,4 C16.046,4 16.711,4 17.252,4.044 C17.814,4.09 18.331,4.189 18.816,4.436 C19.569,4.819 20.181,5.431 20.564,6.184 C20.811,6.669 20.91,7.186 20.956,7.748 C21,8.289 21,8.954 21,9.759 L21,14.241 C21,15.046 21,15.711 20.956,16.252 C20.91,16.814 20.811,17.331 20.564,17.816 C20.181,18.569 19.569,19.181 18.816,19.564 C18.704,19.621 18.59,19.67 18.474,19.713 L19.394,21.553 C19.641,22.047 19.441,22.647 18.947,22.894 C18.453,23.141 17.853,22.941 17.606,22.447 L16.379,19.994 C16.036,20 15.657,20 15.241,20 L8.759,20 C8.343,20 7.964,20 7.621,19.994 L6.394,22.447 C6.147,22.941 5.547,23.141 5.053,22.894 C4.559,22.647 4.359,22.047 4.606,21.553 L5.526,19.713 C5.41,19.67 5.296,19.621 5.184,19.564 C4.431,19.181 3.819,18.569 3.436,17.816 C3.189,17.331 3.09,16.814 3.044,16.252 C3,15.711 3,15.046 3,14.241 L3,9.759 C3,8.954 3,8.289 3.044,7.748 C3.09,7.186 3.189,6.669 3.436,6.184 C3.819,5.431 4.431,4.819 5.184,4.436 C5.669,4.189 6.186,4.09 6.748,4.044 C7.289,4 7.954,4 8.759,4 L11,4 L11,3 L8,3 C7.448,3 7,2.552 7,2 Z M8.8,6 C7.943,6 7.361,6.001 6.911,6.038 C6.473,6.073 6.248,6.138 6.092,6.218 C5.716,6.41 5.41,6.716 5.218,7.092 C5.138,7.248 5.073,7.473 5.038,7.911 C5.001,8.361 5,8.943 5,9.8 L5,11 L19,11 L19,9.8 C19,8.943 18.999,8.361 18.962,7.911 C18.927,7.473 18.862,7.248 18.782,7.092 C18.59,6.716 18.284,6.41 17.908,6.218 C17.752,6.138 17.527,6.073 17.089,6.038 C16.639,6.001 16.057,6 15.2,6 Z M19,13 L5,13 L5,14.2 C5,15.057 5.001,15.639 5.038,16.089 C5.073,16.527 5.138,16.752 5.218,16.908 C5.41,17.284 5.716,17.59 6.092,17.782 C6.248,17.862 6.473,17.927 6.911,17.962 C7.361,17.999 7.943,18 8.8,18 L15.2,18 C16.057,18 16.639,17.999 17.089,17.962 C17.527,17.927 17.752,17.862 17.908,17.782 C18.284,17.59 18.59,17.284 18.782,16.908 C18.862,16.752 18.927,16.527 18.962,16.089 C18.999,15.639 19,15.057 19,14.2 Z M8.5,22 C8.5,21.448 8.948,21 9.5,21 L14.5,21 C15.052,21 15.5,21.448 15.5,22 C15.5,22.552 15.052,23 14.5,23 L9.5,23 C8.948,23 8.5,22.552 8.5,22 Z M7,15.5 C7,14.672 7.672,14 8.5,14 C9.328,14 10,14.672 10,15.5 C10,16.328 9.328,17 8.5,17 C7.672,17 7,16.328 7,15.5 Z M14,15.5 C14,14.672 14.672,14 15.5,14 C16.328,14 17,14.672 17,15.5 C17,16.328 16.328,17 15.5,17 C14.672,17 14,16.328 14,15.5 Z"/>
</svg>
