<svg xmlns="http://www.w3.org/2000/svg" width="24" height="24" viewBox="0 0 24 24">
  <defs/>
  <path d="M8.978,1 C8.992,1 9.006,1 9.02,1 L14.98,1 C14.994,1 15.008,1 15.022,1 L15.367,1 L15.425,1 L15.425,1 C15.792,1 16.069,1 16.346,1.039 C16.591,1.073 16.833,1.13 17.067,1.209 C17.333,1.298 17.581,1.422 17.909,1.587 C17.926,1.595 17.943,1.604 17.961,1.613 L18.947,2.106 C19.441,2.353 19.641,2.953 19.394,3.447 C19.147,3.941 18.547,4.142 18.053,3.895 L17.066,3.401 C16.664,3.2 16.546,3.144 16.43,3.105 C16.312,3.065 16.192,3.037 16.069,3.02 C15.973,3.006 15.873,3.002 15.618,3.001 L14.618,5 L15.241,5 C16.046,5 16.711,5 17.252,5.044 C17.814,5.09 18.331,5.189 18.816,5.436 C19.569,5.82 20.181,6.432 20.564,7.184 C20.811,7.67 20.91,8.186 20.956,8.748 C21,9.29 21,9.954 21,10.759 L21,15.241 C21,16.046 21,16.711 20.956,17.252 C20.91,17.814 20.811,18.331 20.564,18.816 C20.181,19.569 19.569,20.181 18.816,20.564 C18.704,20.621 18.59,20.671 18.474,20.713 L18.894,21.553 C19.141,22.047 18.941,22.648 18.447,22.895 C17.953,23.142 17.353,22.941 17.106,22.447 L16.379,20.994 C16.036,21 15.657,21 15.241,21 L8.759,21 C8.343,21 7.964,21 7.621,20.994 L6.895,22.447 C6.648,22.941 6.047,23.142 5.553,22.895 C5.059,22.648 4.859,22.047 5.106,21.553 L5.526,20.713 C5.41,20.671 5.296,20.621 5.184,20.564 C4.431,20.181 3.819,19.569 3.436,18.816 C3.189,18.331 3.09,17.814 3.044,17.252 C3,16.711 3,16.047 3,15.242 L3,10.759 C3,9.954 3,9.29 3.044,8.748 C3.09,8.186 3.189,7.67 3.436,7.184 C3.819,6.432 4.431,5.82 5.184,5.436 C5.669,5.189 6.186,5.09 6.748,5.044 C7.289,5 7.954,5 8.759,5 L9.382,5 L8.382,3.001 C8.127,3.002 8.027,3.006 7.931,3.02 C7.808,3.037 7.688,3.065 7.57,3.105 C7.453,3.144 7.336,3.2 6.934,3.401 L5.947,3.895 C5.453,4.142 4.853,3.941 4.606,3.447 C4.359,2.953 4.559,2.353 5.053,2.106 L6.039,1.613 C6.057,1.604 6.074,1.595 6.091,1.587 C6.419,1.422 6.667,1.298 6.933,1.209 C7.167,1.13 7.409,1.073 7.654,1.039 C7.931,1 8.208,1 8.575,1 L8.575,1 Z M5,14 L5,15.2 C5,16.057 5.001,16.639 5.038,17.089 C5.073,17.528 5.138,17.752 5.218,17.908 C5.41,18.285 5.716,18.59 6.092,18.782 C6.248,18.862 6.473,18.927 6.911,18.963 C7.361,18.999 7.943,19 8.8,19 L15.2,19 C16.057,19 16.639,18.999 17.089,18.963 C17.527,18.927 17.752,18.862 17.908,18.782 C18.284,18.59 18.59,18.285 18.782,17.908 C18.862,17.752 18.927,17.528 18.962,17.089 C18.999,16.639 19,16.057 19,15.2 L19,14 Z M10.98,7 L8.8,7 C7.943,7 7.361,7.001 6.911,7.038 C6.473,7.074 6.248,7.139 6.092,7.218 C5.716,7.41 5.41,7.716 5.218,8.092 C5.138,8.249 5.073,8.473 5.038,8.911 C5.001,9.361 5,9.944 5,10.8 L5,12 L19,12 L19,10.8 C19,9.944 18.999,9.361 18.962,8.911 C18.927,8.473 18.862,8.249 18.782,8.092 C18.59,7.716 18.284,7.41 17.908,7.218 C17.752,7.139 17.527,7.074 17.089,7.038 C16.639,7.001 16.057,7 15.2,7 L13.02,7 C13.006,7.001 12.992,7.001 12.978,7 L11.022,7 C11.008,7.001 10.994,7.001 10.98,7 Z M7,16.5 C7,15.672 7.672,15 8.5,15 C9.328,15 10,15.672 10,16.5 C10,17.329 9.328,18 8.5,18 C7.672,18 7,17.329 7,16.5 Z M14,16.5 C14,15.672 14.672,15 15.5,15 C16.328,15 17,15.672 17,16.5 C17,17.329 16.328,18 15.5,18 C14.672,18 14,17.329 14,16.5 Z M13.382,3 L10.618,3 L11.618,5 L12.382,5 Z"/>
</svg>
