<svg xmlns="http://www.w3.org/2000/svg" width="24" height="24" viewBox="0 0 24 24">
  <defs/>
  <path d="M15.848,9.308 C16.26,9.109 16.74,9.109 17.152,9.308 C17.511,9.481 17.705,9.783 17.802,9.945 C17.903,10.115 18.007,10.332 18.108,10.545 L22.902,20.569 C23.14,21.067 22.93,21.664 22.431,21.902 C21.933,22.14 21.336,21.93 21.098,21.431 L19.457,18 L13.543,18 L11.902,21.431 C11.664,21.93 11.067,22.14 10.568,21.902 C10.07,21.664 9.86,21.067 10.098,20.569 L14.876,10.578 L14.892,10.545 C14.993,10.332 15.097,10.115 15.198,9.945 C15.295,9.783 15.489,9.481 15.848,9.308 Z M11.986,4 C11.996,4 12.006,4 12.016,4 L14,4 C14.552,4 15,4.448 15,5 C15,5.552 14.552,6 14,6 L12.535,6 L10.832,8.555 C10.795,8.609 10.754,8.661 10.707,8.707 L8.914,10.5 L10.707,12.293 C11.098,12.683 11.098,13.317 10.707,13.707 C10.317,14.098 9.683,14.098 9.293,13.707 L7.5,11.914 L4.707,14.707 C4.317,15.098 3.683,15.098 3.293,14.707 C2.902,14.317 2.902,13.683 3.293,13.293 L6.086,10.5 L4.293,8.707 C3.902,8.317 3.902,7.683 4.293,7.293 C4.683,6.902 5.317,6.902 5.707,7.293 L7.5,9.086 L9.223,7.363 L10.132,6 L2,6 C1.448,6 1,5.552 1,5 C1,4.448 1.448,4 2,4 Z M14.5,16 L18.5,16 L16.5,11.818 Z M6,2 C6,1.448 6.448,1 7,1 L8,1 C8.552,1 9,1.448 9,2 C9,2.552 8.552,3 8,3 L7,3 C6.448,3 6,2.552 6,2 Z"/>
</svg>
