<svg xmlns="http://www.w3.org/2000/svg" width="24" height="24" viewBox="0 0 24 24">
  <defs/>
  <path d="M8,2 C8.552,2 9,2.448 9,3 L9,4 L14,4 C14.552,4 15,4.448 15,5 C15,5.552 14.552,6 14,6 L12.328,6 C11.816,8.427 10.875,10.667 9.565,12.637 C9.85,12.812 10.134,12.964 10.41,13.088 C10.914,13.314 11.139,13.906 10.912,14.41 C10.686,14.914 10.094,15.139 9.59,14.912 C9.177,14.727 8.766,14.501 8.363,14.244 C6.756,16.164 4.757,17.746 2.445,18.896 C1.95,19.141 1.35,18.94 1.104,18.445 C0.859,17.951 1.06,17.35 1.555,17.104 C3.594,16.091 5.355,14.704 6.775,13.026 C5.636,11.994 4.639,10.716 4.079,9.389 C3.864,8.88 4.102,8.294 4.611,8.079 C5.12,7.864 5.706,8.102 5.921,8.611 C6.326,9.57 7.073,10.566 7.976,11.413 C9.03,9.799 9.813,7.977 10.279,6 L2,6 C1.448,6 1,5.552 1,5 C1,4.448 1.448,4 2,4 L7,4 L7,3 C7,2.448 7.448,2 8,2 Z M15.848,9.308 C16.26,9.109 16.74,9.109 17.152,9.308 C17.511,9.481 17.705,9.783 17.802,9.945 C17.903,10.115 18.007,10.332 18.108,10.545 L22.902,20.569 C23.14,21.067 22.93,21.664 22.431,21.902 C21.933,22.14 21.336,21.93 21.098,21.431 L19.457,18 L13.543,18 L11.902,21.431 C11.664,21.93 11.067,22.14 10.568,21.902 C10.07,21.664 9.86,21.067 10.098,20.569 L14.876,10.578 C14.881,10.567 14.886,10.556 14.892,10.545 C14.993,10.332 15.097,10.115 15.198,9.945 C15.295,9.783 15.489,9.481 15.848,9.308 Z M14.5,16 L18.5,16 L16.5,11.818 Z"/>
</svg>
