<svg xmlns="http://www.w3.org/2000/svg" width="24" height="24" viewBox="0 0 24 24">
  <defs/>
  <path d="M4.568,2 L5.4,2 L5.432,2 L5.432,2 C5.684,2 5.93,2 6.138,2.017 C6.367,2.036 6.637,2.08 6.908,2.218 C7.284,2.41 7.59,2.716 7.782,3.092 C7.92,3.363 7.964,3.633 7.983,3.862 C7.987,3.906 7.99,3.952 7.992,4 L16.008,4 C16.01,3.952 16.013,3.906 16.017,3.862 C16.036,3.633 16.08,3.363 16.218,3.092 C16.41,2.716 16.716,2.41 17.092,2.218 C17.363,2.08 17.633,2.036 17.862,2.017 C18.07,2 18.316,2 18.568,2 L19.432,2 C19.684,2 19.93,2 20.138,2.017 C20.367,2.036 20.637,2.08 20.908,2.218 C21.284,2.41 21.59,2.716 21.782,3.092 C21.92,3.363 21.964,3.633 21.983,3.862 C22,4.069 22,4.313 22,4.564 L22,5.436 C22,5.687 22,5.931 21.983,6.138 C21.964,6.367 21.92,6.637 21.782,6.908 C21.59,7.284 21.284,7.59 20.908,7.782 C20.637,7.92 20.367,7.964 20.138,7.983 C20.094,7.987 20.048,7.99 20,7.992 L20,16.008 C20.048,16.01 20.094,16.013 20.138,16.017 C20.367,16.036 20.637,16.08 20.908,16.218 C21.284,16.41 21.59,16.716 21.782,17.092 C21.92,17.363 21.964,17.633 21.983,17.862 C22,18.069 22,18.313 22,18.564 L22,19.436 C22,19.687 22,19.931 21.983,20.138 C21.964,20.367 21.92,20.637 21.782,20.908 C21.59,21.284 21.284,21.59 20.908,21.782 C20.637,21.92 20.367,21.964 20.138,21.983 C19.931,22 19.687,22 19.436,22 L18.564,22 C18.313,22 18.069,22 17.862,21.983 C17.633,21.964 17.363,21.92 17.092,21.782 C16.716,21.59 16.41,21.284 16.218,20.908 C16.08,20.637 16.036,20.367 16.017,20.138 C16.013,20.094 16.01,20.048 16.008,20 L7.992,20 C7.99,20.048 7.987,20.094 7.983,20.138 C7.964,20.367 7.92,20.637 7.782,20.908 C7.59,21.284 7.284,21.59 6.908,21.782 C6.637,21.92 6.367,21.964 6.138,21.983 C5.931,22 5.687,22 5.436,22 L4.564,22 C4.313,22 4.069,22 3.862,21.983 C3.633,21.964 3.363,21.92 3.092,21.782 C2.716,21.59 2.41,21.284 2.218,20.908 C2.08,20.637 2.036,20.367 2.017,20.138 C2,19.93 2,19.684 2,19.432 L2,18.568 C2,18.316 2,18.07 2.017,17.862 C2.036,17.633 2.08,17.363 2.218,17.092 C2.41,16.716 2.716,16.41 3.092,16.218 C3.363,16.08 3.633,16.036 3.862,16.017 C3.906,16.013 3.952,16.01 4,16.008 L4,7.992 C3.952,7.99 3.906,7.987 3.862,7.983 C3.633,7.964 3.363,7.92 3.092,7.782 C2.716,7.59 2.41,7.284 2.218,6.908 C2.08,6.637 2.036,6.367 2.017,6.138 C2,5.93 2,5.684 2,5.432 L2,5.432 L2,5.4 L2,4.6 L2,4.568 L2,4.568 C2,4.316 2,4.07 2.017,3.862 C2.036,3.633 2.08,3.363 2.218,3.092 C2.41,2.716 2.716,2.41 3.092,2.218 C3.363,2.08 3.633,2.036 3.862,2.017 C4.07,2 4.316,2 4.568,2 Z M6,7.992 L6,16.008 C6.048,16.01 6.094,16.013 6.138,16.017 C6.367,16.036 6.637,16.08 6.908,16.218 C7.284,16.41 7.59,16.716 7.782,17.092 C7.92,17.363 7.964,17.633 7.983,17.862 C7.987,17.906 7.99,17.952 7.992,18 L16.008,18 C16.01,17.952 16.013,17.906 16.017,17.862 C16.036,17.633 16.08,17.363 16.218,17.092 C16.41,16.716 16.716,16.41 17.092,16.218 C17.363,16.08 17.633,16.036 17.862,16.017 C17.906,16.013 17.952,16.01 18,16.008 L18,7.992 C17.952,7.99 17.906,7.987 17.862,7.983 C17.633,7.964 17.363,7.92 17.092,7.782 C16.716,7.59 16.41,7.284 16.218,6.908 C16.08,6.637 16.036,6.367 16.017,6.138 C16.013,6.094 16.01,6.048 16.008,6 L7.992,6 C7.99,6.048 7.987,6.094 7.983,6.138 C7.964,6.367 7.92,6.637 7.782,6.908 C7.59,7.284 7.284,7.59 6.908,7.782 C6.637,7.92 6.367,7.964 6.138,7.983 C6.094,7.987 6.048,7.99 6,7.992 Z M6,4.6 C6,4.303 5.999,4.141 5.99,4.025 C5.989,4.02 5.989,4.016 5.989,4.011 C5.984,4.011 5.98,4.011 5.975,4.01 C5.859,4.001 5.697,4 5.4,4 L4.6,4 C4.303,4 4.141,4.001 4.025,4.01 C4.02,4.011 4.016,4.011 4.011,4.011 C4.011,4.016 4.011,4.02 4.01,4.025 C4.001,4.141 4,4.303 4,4.6 L4,5.4 C4,5.697 4.001,5.859 4.01,5.975 C4.011,5.98 4.011,5.984 4.011,5.989 C4.016,5.989 4.02,5.989 4.025,5.99 C4.141,5.999 4.303,6 4.6,6 L5.4,6 C5.697,6 5.859,5.999 5.975,5.99 C5.98,5.989 5.984,5.989 5.989,5.989 C5.989,5.984 5.989,5.98 5.99,5.975 C5.999,5.859 6,5.697 6,5.4 Z M18,5.4 C18,5.697 18.001,5.859 18.01,5.975 C18.011,5.98 18.011,5.984 18.011,5.989 C18.016,5.989 18.02,5.989 18.025,5.99 C18.141,5.999 18.303,6 18.6,6 L19.4,6 C19.697,6 19.859,5.999 19.975,5.99 C19.98,5.989 19.984,5.989 19.989,5.989 C19.989,5.984 19.989,5.98 19.99,5.975 C19.999,5.859 20,5.697 20,5.4 L20,4.6 C20,4.303 19.999,4.141 19.99,4.025 C19.989,4.02 19.989,4.016 19.989,4.011 C19.984,4.011 19.98,4.011 19.975,4.01 C19.859,4.001 19.697,4 19.4,4 L18.6,4 C18.303,4 18.141,4.001 18.025,4.01 C18.02,4.011 18.016,4.011 18.011,4.011 C18.011,4.016 18.011,4.02 18.01,4.025 C18.001,4.141 18,4.303 18,4.6 Z M6,18.6 C6,18.303 5.999,18.141 5.99,18.025 C5.989,18.02 5.989,18.016 5.989,18.011 C5.984,18.011 5.98,18.011 5.975,18.01 C5.859,18.001 5.697,18 5.4,18 L4.6,18 C4.303,18 4.141,18.001 4.025,18.01 C4.02,18.011 4.016,18.011 4.011,18.011 C4.011,18.016 4.011,18.02 4.01,18.025 C4.001,18.141 4,18.303 4,18.6 L4,19.4 C4,19.697 4.001,19.859 4.01,19.975 C4.011,19.98 4.011,19.984 4.011,19.989 C4.016,19.989 4.02,19.989 4.025,19.99 C4.141,19.999 4.303,20 4.6,20 L5.4,20 C5.697,20 5.859,19.999 5.975,19.99 C5.98,19.989 5.984,19.989 5.989,19.989 C5.989,19.984 5.989,19.98 5.99,19.975 C5.999,19.859 6,19.697 6,19.4 Z M18.6,18 C18.303,18 18.141,18.001 18.025,18.01 C18.02,18.011 18.016,18.011 18.011,18.011 C18.011,18.016 18.011,18.02 18.01,18.025 C18.001,18.141 18,18.303 18,18.6 L18,19.4 C18,19.697 18.001,19.859 18.01,19.975 C18.011,19.98 18.011,19.984 18.011,19.989 C18.016,19.989 18.02,19.989 18.025,19.99 C18.141,19.999 18.303,20 18.6,20 L19.4,20 C19.697,20 19.859,19.999 19.975,19.99 C19.98,19.989 19.984,19.989 19.989,19.989 C19.989,19.984 19.989,19.98 19.99,19.975 C19.999,19.859 20,19.697 20,19.4 L20,18.6 C20,18.303 19.999,18.141 19.99,18.025 C19.989,18.02 19.989,18.016 19.989,18.011 C19.984,18.011 19.98,18.011 19.975,18.01 C19.859,18.001 19.697,18 19.4,18 Z"/>
</svg>
