<svg xmlns="http://www.w3.org/2000/svg" width="24" height="24" viewBox="0 0 24 24">
  <defs/>
  <path d="M12.839,1 L12.839,1 C13.366,1 13.821,1 14.195,1.031 C14.59,1.063 14.984,1.134 15.362,1.327 C15.927,1.615 16.385,2.074 16.673,2.638 C16.866,3.016 16.937,3.41 16.969,3.805 C16.997,4.141 17,4.541 17,5 L21,5 C21.552,5 22,5.448 22,6 C22,6.552 21.552,7 21,7 L20,7 L20,17.241 C20,18.046 20,18.711 19.956,19.252 C19.91,19.814 19.811,20.331 19.564,20.816 C19.181,21.569 18.569,22.181 17.816,22.564 C17.331,22.811 16.814,22.91 16.252,22.956 C15.711,23 15.046,23 14.241,23 L9.759,23 C8.954,23 8.289,23 7.748,22.956 C7.186,22.91 6.669,22.811 6.184,22.564 C5.431,22.181 4.819,21.569 4.436,20.816 C4.189,20.331 4.09,19.814 4.044,19.252 C4,18.711 4,18.046 4,17.241 L4,7 L3,7 C2.448,7 2,6.552 2,6 C2,5.448 2.448,5 3,5 L7,5 C7,4.541 7.003,4.141 7.031,3.805 C7.063,3.41 7.134,3.016 7.327,2.638 C7.615,2.074 8.074,1.615 8.638,1.327 C9.016,1.134 9.41,1.063 9.805,1.031 C10.179,1 10.634,1 11.161,1 L12.839,1 Z M6,7 L6,17.2 C6,18.057 6.001,18.639 6.038,19.089 C6.073,19.527 6.138,19.752 6.218,19.908 C6.41,20.284 6.716,20.59 7.092,20.782 C7.248,20.862 7.473,20.927 7.911,20.962 C8.361,20.999 8.943,21 9.8,21 L14.2,21 C15.057,21 15.639,20.999 16.089,20.962 C16.527,20.927 16.752,20.862 16.908,20.782 C17.284,20.59 17.59,20.284 17.782,19.908 C17.862,19.752 17.927,19.527 17.962,19.089 C17.999,18.639 18,18.057 18,17.2 L18,7 Z M14,10.5 C14.552,10.5 15,10.948 15,11.5 L15,16.5 C15,17.052 14.552,17.5 14,17.5 C13.448,17.5 13,17.052 13,16.5 L13,11.5 C13,10.948 13.448,10.5 14,10.5 Z M10,10.5 C10.552,10.5 11,10.948 11,11.5 L11,16.5 C11,17.052 10.552,17.5 10,17.5 C9.448,17.5 9,17.052 9,16.5 L9,11.5 C9,10.948 9.448,10.5 10,10.5 Z M15,5 C15,4.535 14.996,4.217 14.976,3.968 C14.954,3.696 14.916,3.595 14.891,3.546 C14.795,3.358 14.642,3.205 14.454,3.109 C14.405,3.084 14.304,3.046 14.032,3.024 C13.749,3.001 13.377,3 12.8,3 L11.2,3 C10.623,3 10.251,3.001 9.968,3.024 C9.696,3.046 9.595,3.084 9.546,3.109 C9.358,3.205 9.205,3.358 9.109,3.546 C9.084,3.595 9.046,3.696 9.024,3.968 C9.004,4.217 9.001,4.535 9,5 Z"/>
</svg>
