<svg xmlns="http://www.w3.org/2000/svg" width="24" height="24" viewBox="0 0 24 24">
  <defs/>
  <path d="M3,5 L21,5 C21.552,5 22,5.448 22,6 C22,6.552 21.552,7 21,7 L19.936,7 L19.294,16.625 C19.243,17.381 19.202,18.006 19.127,18.515 C19.049,19.045 18.926,19.529 18.669,19.98 C18.269,20.682 17.665,21.247 16.938,21.6 C16.471,21.826 15.979,21.917 15.445,21.959 C14.933,22 14.306,22 13.549,22 L10.451,22 C9.694,22 9.067,22 8.555,21.959 C8.021,21.917 7.53,21.826 7.062,21.6 C6.335,21.247 5.731,20.682 5.331,19.98 C5.074,19.529 4.951,19.045 4.873,18.515 C4.798,18.006 4.756,17.381 4.706,16.625 L4.064,7 L3,7 C2.448,7 2,6.552 2,6 C2,5.448 2.448,5 3,5 Z M17.931,7 L6.069,7 L6.699,16.453 C6.753,17.258 6.79,17.803 6.852,18.224 C6.912,18.633 6.985,18.843 7.069,18.99 C7.269,19.341 7.571,19.624 7.934,19.8 C8.087,19.874 8.301,19.933 8.713,19.966 C9.137,19.999 9.684,20 10.491,20 L13.509,20 C14.316,20 14.863,19.999 15.287,19.966 C15.699,19.933 15.913,19.874 16.066,19.8 C16.429,19.624 16.731,19.341 16.931,18.99 C17.015,18.843 17.088,18.633 17.148,18.224 C17.21,17.803 17.247,17.258 17.301,16.453 Z M8,3 C8,2.448 8.448,2 9,2 L15,2 C15.552,2 16,2.448 16,3 C16,3.552 15.552,4 15,4 L9,4 C8.448,4 8,3.552 8,3 Z"/>
</svg>
