<svg xmlns="http://www.w3.org/2000/svg" width="24" height="24" viewBox="0 0 24 24">
  <defs/>
  <path d="M1.293,6.293 C1.683,5.902 2.317,5.902 2.707,6.293 L7.576,11.161 C7.785,11.371 7.901,11.485 7.99,11.561 C7.993,11.564 7.997,11.567 8,11.57 C8.003,11.567 8.007,11.564 8.01,11.561 C8.099,11.485 8.215,11.371 8.424,11.161 L11.184,8.402 C11.363,8.223 11.536,8.049 11.696,7.914 C11.87,7.766 12.092,7.606 12.382,7.512 C12.784,7.382 13.216,7.382 13.618,7.512 C13.908,7.606 14.13,7.766 14.304,7.914 C14.464,8.049 14.637,8.223 14.816,8.402 L21,14.586 L21,10 C21,9.448 21.448,9 22,9 C22.552,9 23,9.448 23,10 L23,17 C23,17.552 22.552,18 22,18 L15,18 C14.448,18 14,17.552 14,17 C14,16.448 14.448,16 15,16 L19.586,16 L13.424,9.838 C13.215,9.629 13.099,9.515 13.01,9.439 C13.007,9.436 13.003,9.433 13,9.43 C12.997,9.433 12.993,9.436 12.99,9.439 C12.901,9.515 12.785,9.629 12.576,9.838 L9.816,12.598 C9.637,12.777 9.464,12.951 9.304,13.086 C9.13,13.234 8.908,13.394 8.618,13.488 C8.216,13.618 7.784,13.618 7.382,13.488 C7.092,13.394 6.87,13.234 6.696,13.086 C6.536,12.951 6.363,12.777 6.184,12.598 C6.177,12.591 6.169,12.583 6.162,12.576 L1.293,7.707 C0.902,7.317 0.902,6.683 1.293,6.293 Z"/>
</svg>
