<svg xmlns="http://www.w3.org/2000/svg" width="24" height="24" viewBox="0 0 24 24">
  <defs/>
  <path d="M15,8 C14.448,8 14,7.552 14,7 C14,6.448 14.448,6 15,6 L22,6 C22.552,6 23,6.448 23,7 L23,14 C23,14.552 22.552,15 22,15 C21.448,15 21,14.552 21,14 L21,9.414 L14.816,15.598 C14.637,15.777 14.464,15.951 14.304,16.086 C14.13,16.234 13.908,16.394 13.618,16.488 C13.216,16.618 12.784,16.618 12.382,16.488 C12.092,16.394 11.87,16.234 11.696,16.086 C11.536,15.951 11.363,15.777 11.184,15.598 L8.424,12.839 C8.215,12.629 8.099,12.515 8.01,12.439 C8.007,12.436 8.003,12.433 8,12.43 C7.997,12.433 7.993,12.436 7.99,12.439 C7.901,12.515 7.785,12.629 7.576,12.839 L2.707,17.707 C2.317,18.098 1.683,18.098 1.293,17.707 C0.902,17.317 0.902,16.683 1.293,16.293 L6.162,11.424 C6.169,11.417 6.177,11.409 6.184,11.402 C6.363,11.223 6.536,11.049 6.696,10.914 C6.87,10.766 7.092,10.606 7.382,10.512 C7.784,10.382 8.216,10.382 8.618,10.512 C8.908,10.606 9.13,10.766 9.304,10.914 C9.464,11.049 9.637,11.223 9.816,11.402 L12.576,14.161 C12.785,14.371 12.901,14.485 12.99,14.561 C12.993,14.564 12.997,14.567 13,14.57 C13.003,14.567 13.007,14.564 13.01,14.561 C13.099,14.485 13.215,14.371 13.424,14.161 L19.586,8 Z"/>
</svg>
