<svg xmlns="http://www.w3.org/2000/svg" width="24" height="24" viewBox="0 0 24 24">
  <defs/>
  <path d="M11.187,1.668 L10.347,2.414 L9.771,3.354 C9.98,2.993 10.17,2.665 10.347,2.414 C10.528,2.159 10.788,1.846 11.187,1.668 C11.704,1.438 12.295,1.438 12.812,1.668 C13.212,1.846 13.471,2.159 13.652,2.414 C13.83,2.665 14.02,2.993 14.229,3.354 L22.496,17.634 C22.706,17.996 22.896,18.326 23.026,18.605 C23.157,18.889 23.3,19.271 23.254,19.707 C23.196,20.271 22.9,20.784 22.441,21.118 C22.087,21.375 21.685,21.443 21.373,21.472 C21.066,21.5 20.686,21.5 20.267,21.5 L3.733,21.5 C3.314,21.5 2.933,21.5 2.626,21.472 C2.315,21.443 1.913,21.375 1.558,21.118 C1.099,20.784 0.804,20.271 0.745,19.707 C0.7,19.271 0.842,18.889 0.974,18.605 C1.103,18.326 1.294,17.996 1.504,17.634 L0.974,18.605 L0.745,19.707 L1.558,21.118 L2.146,20.309 Z M11.979,3.57 C11.862,3.736 11.718,3.983 11.481,4.393 L3.256,18.599 C3.018,19.01 2.875,19.259 2.789,19.445 C2.783,19.456 2.779,19.467 2.774,19.477 C2.785,19.478 2.797,19.479 2.809,19.48 C3.013,19.499 3.3,19.5 3.775,19.5 L20.225,19.5 C20.7,19.5 20.986,19.499 21.191,19.48 C21.203,19.479 21.214,19.478 21.225,19.477 C21.221,19.467 21.216,19.456 21.211,19.445 C21.125,19.259 20.982,19.01 20.744,18.599 L12.519,4.393 C12.282,3.983 12.138,3.736 12.02,3.57 C12.013,3.56 12.006,3.551 12,3.542 C11.993,3.551 11.987,3.56 11.979,3.57 Z"/>
</svg>
