<svg xmlns="http://www.w3.org/2000/svg" width="24" height="24" viewBox="0 0 24 24">
  <defs/>
  <path d="M5.161,2 L12.839,2 C13.366,2 13.821,2 14.195,2.031 C14.59,2.063 14.984,2.134 15.362,2.327 C15.927,2.615 16.385,3.074 16.673,3.638 C16.866,4.016 16.937,4.41 16.969,4.805 C17,5.18 17,5.634 17,6.161 L17,7 L18.337,7 C18.354,7 18.371,7 18.388,7 C18.578,6.999 18.817,6.999 19.053,7.055 C19.257,7.104 19.452,7.185 19.631,7.295 C19.837,7.421 20.006,7.591 20.14,7.725 C20.152,7.738 20.164,7.75 20.176,7.762 L22.239,9.824 C22.25,9.836 22.262,9.848 22.275,9.86 C22.409,9.994 22.579,10.163 22.705,10.369 C22.815,10.548 22.896,10.743 22.945,10.947 C23.001,11.183 23.001,11.422 23,11.612 C23,11.629 23,11.646 23,11.663 L23,14.436 C23,14.687 23,14.931 22.983,15.138 C22.964,15.367 22.92,15.637 22.782,15.908 C22.59,16.284 22.284,16.59 21.908,16.782 C21.637,16.92 21.367,16.964 21.138,16.983 C20.994,16.995 20.833,16.998 20.663,17 C20.879,17.454 21,17.963 21,18.5 C21,20.433 19.433,22 17.5,22 C15.567,22 14,20.433 14,18.5 C14,17.963 14.121,17.455 14.337,17 L9.663,17 C9.879,17.455 10,17.963 10,18.5 C10,20.433 8.433,22 6.5,22 C4.567,22 3,20.433 3,18.5 C3,17.93 3.136,17.391 3.378,16.915 C3.128,16.87 2.88,16.796 2.638,16.673 C2.074,16.385 1.615,15.927 1.327,15.362 C1.134,14.984 1.063,14.59 1.031,14.195 C1,13.821 1,13.366 1,12.839 L1,6.161 C1,5.634 1,5.18 1.031,4.805 C1.063,4.41 1.134,4.016 1.327,3.638 C1.615,3.074 2.074,2.615 2.638,2.327 C3.016,2.134 3.41,2.063 3.805,2.031 C4.18,2 4.634,2 5.161,2 Z M15,15 L15,6.2 C15,5.623 14.999,5.251 14.976,4.968 C14.954,4.696 14.916,4.595 14.891,4.546 C14.795,4.358 14.642,4.205 14.454,4.109 C14.405,4.084 14.304,4.046 14.032,4.024 C13.749,4.001 13.377,4 12.8,4 L5.2,4 C4.623,4 4.251,4.001 3.968,4.024 C3.696,4.046 3.595,4.084 3.546,4.109 C3.358,4.205 3.205,4.358 3.109,4.546 C3.084,4.595 3.046,4.696 3.024,4.968 C3.001,5.251 3,5.623 3,6.2 L3,12.8 C3,13.377 3.001,13.749 3.024,14.032 C3.046,14.304 3.084,14.405 3.109,14.454 C3.205,14.642 3.358,14.795 3.546,14.891 C3.595,14.916 3.696,14.954 3.968,14.976 C4.251,14.999 4.623,15 5.2,15 Z M17,9 L17,15 L20.4,15 C20.697,15 20.859,14.999 20.975,14.99 C20.98,14.989 20.984,14.989 20.989,14.988 C20.989,14.984 20.989,14.98 20.99,14.975 C20.999,14.859 21,14.696 21,14.4 L21,11.663 C21,11.532 21,11.466 20.998,11.419 L20.997,11.415 L20.995,11.413 C20.963,11.377 20.917,11.331 20.824,11.238 L18.761,9.176 C18.669,9.083 18.622,9.037 18.587,9.005 C18.587,9.004 18.586,9.003 18.585,9.003 L18.581,9.002 C18.534,9 18.468,9 18.337,9 Z M6.5,17 C5.672,17 5,17.672 5,18.5 C5,19.328 5.672,20 6.5,20 C7.328,20 8,19.328 8,18.5 C8,17.672 7.328,17 6.5,17 Z M17.5,17 C16.672,17 16,17.672 16,18.5 C16,19.328 16.672,20 17.5,20 C18.328,20 19,19.328 19,18.5 C19,17.672 18.328,17 17.5,17 Z"/>
</svg>
