<svg xmlns="http://www.w3.org/2000/svg" width="24" height="24" viewBox="0 0 24 24">
  <defs/>
  <path d="M5.161,3 L10.839,3 C11.366,3 11.821,3 12.195,3.031 C12.59,3.063 12.984,3.134 13.362,3.327 C13.927,3.615 14.385,4.074 14.673,4.638 C14.866,5.016 14.937,5.41 14.969,5.805 C14.975,5.868 14.979,5.933 14.982,6 L16.337,6 C16.354,6 16.371,6 16.388,6 C16.578,5.999 16.817,5.999 17.053,6.055 C17.257,6.104 17.452,6.185 17.631,6.295 C17.837,6.421 18.006,6.591 18.14,6.725 C18.152,6.738 18.164,6.75 18.176,6.762 L22.239,10.824 C22.25,10.836 22.262,10.848 22.275,10.86 C22.409,10.994 22.579,11.163 22.705,11.369 C22.815,11.548 22.896,11.743 22.945,11.947 C23.001,12.183 23.001,12.422 23,12.612 C23,12.629 23,12.646 23,12.663 L23,15.526 C23,15.736 23,15.941 22.988,16.115 C22.975,16.306 22.945,16.531 22.848,16.765 C22.645,17.255 22.255,17.645 21.765,17.848 C21.666,17.889 21.567,17.918 21.473,17.939 C21.257,19.665 19.784,21 18,21 C16.237,21 14.778,19.696 14.535,18 L10.874,18 C10.43,19.725 8.864,21 7,21 C5.086,21 3.486,19.656 3.093,17.86 C1.879,17.476 1,16.341 1,15 L1,7.161 C1,6.634 1,6.18 1.031,5.805 C1.063,5.41 1.134,5.016 1.327,4.638 C1.615,4.074 2.074,3.615 2.638,3.327 C3.016,3.134 3.41,3.063 3.805,3.031 C4.18,3 4.634,3 5.161,3 Z M3.235,15.645 C3.791,14.103 5.267,13 7,13 C8.864,13 10.43,14.275 10.874,16 L13,16 L13,7.2 C13,6.623 12.999,6.251 12.976,5.968 C12.954,5.696 12.916,5.595 12.891,5.546 C12.795,5.358 12.642,5.205 12.454,5.109 C12.405,5.084 12.304,5.046 12.032,5.024 C11.749,5.001 11.377,5 10.8,5 L5.2,5 C4.623,5 4.251,5.001 3.968,5.024 C3.696,5.046 3.595,5.084 3.546,5.109 C3.358,5.205 3.205,5.358 3.109,5.546 C3.084,5.595 3.046,5.696 3.024,5.968 C3.001,6.251 3,6.623 3,7.2 L3,15 C3,15.246 3.089,15.471 3.235,15.645 Z M15,15.696 C15.613,14.68 16.727,14 18,14 C19.273,14 20.387,14.68 21,15.696 C21,15.639 21,15.575 21,15.5 L21,12.663 C21,12.532 21,12.466 20.998,12.419 L20.997,12.415 L20.995,12.413 C20.963,12.377 20.917,12.331 20.824,12.238 L16.761,8.176 C16.669,8.083 16.622,8.037 16.587,8.005 C16.587,8.004 16.586,8.003 16.585,8.003 L16.581,8.002 C16.534,8 16.468,8 16.337,8 L15,8 Z M7,15 C5.895,15 5,15.895 5,17 C5,18.105 5.895,19 7,19 C8.105,19 9,18.105 9,17 C9,15.895 8.105,15 7,15 Z M18,16 C17.172,16 16.5,16.672 16.5,17.5 C16.5,18.328 17.172,19 18,19 C18.828,19 19.5,18.328 19.5,17.5 C19.5,16.672 18.828,16 18,16 Z"/>
</svg>
