<svg xmlns="http://www.w3.org/2000/svg" width="24" height="24" viewBox="0 0 24 24">
  <defs/>
  <path d="M17.241,2 L17.241,2 C18.046,2 18.711,2 19.252,2.044 C19.814,2.09 20.331,2.189 20.816,2.436 C21.569,2.819 22.181,3.431 22.564,4.184 C22.811,4.669 22.91,5.186 22.956,5.748 C23,6.289 23,6.954 23,7.759 L23,12.241 C23,13.046 23,13.711 22.956,14.252 C22.91,14.814 22.811,15.331 22.564,15.816 C22.181,16.569 21.569,17.181 20.816,17.564 C20.331,17.811 19.814,17.91 19.252,17.956 C19.171,17.962 19.087,17.968 19,17.973 L19,19.436 C19,19.687 19,19.931 18.983,20.138 C18.964,20.367 18.92,20.637 18.782,20.908 C18.59,21.284 18.284,21.59 17.908,21.782 C17.637,21.92 17.367,21.964 17.138,21.983 C16.931,22 16.687,22 16.436,22 L7.564,22 C7.313,22 7.069,22 6.862,21.983 C6.633,21.964 6.363,21.92 6.092,21.782 C5.716,21.59 5.41,21.284 5.218,20.908 C5.08,20.637 5.036,20.367 5.017,20.138 C5,19.93 5,19.684 5,19.432 L5,17.973 C4.913,17.968 4.829,17.962 4.748,17.956 C4.186,17.91 3.669,17.811 3.184,17.564 C2.431,17.181 1.819,16.569 1.436,15.816 C1.189,15.331 1.09,14.814 1.044,14.252 C1,13.711 1,13.046 1,12.241 L1,7.759 C1,6.954 1,6.289 1.044,5.748 C1.09,5.186 1.189,4.669 1.436,4.184 C1.819,3.431 2.431,2.819 3.184,2.436 C3.669,2.189 4.186,2.09 4.748,2.044 C5.289,2 5.954,2 6.759,2 L17.241,2 Z M4.911,4.038 C4.473,4.073 4.248,4.138 4.092,4.218 C3.716,4.41 3.41,4.716 3.218,5.092 C3.138,5.248 3.073,5.473 3.038,5.911 C3.001,6.361 3,6.943 3,7.8 L3,12.2 C3,13.057 3.001,13.639 3.038,14.089 C3.073,14.527 3.138,14.752 3.218,14.908 C3.41,15.284 3.716,15.59 4.092,15.782 C4.248,15.862 4.473,15.927 4.911,15.962 C5.361,15.999 5.943,16 6.8,16 L17.2,16 C18.057,16 18.639,15.999 19.089,15.962 C19.527,15.927 19.752,15.862 19.908,15.782 C20.284,15.59 20.59,15.284 20.782,14.908 C20.862,14.752 20.927,14.527 20.962,14.089 C20.999,13.639 21,13.057 21,12.2 L21,7.8 C21,6.943 20.999,6.361 20.962,5.911 C20.927,5.473 20.862,5.248 20.782,5.092 C20.59,4.716 20.284,4.41 19.908,4.218 C19.752,4.138 19.527,4.073 19.089,4.038 C18.639,4.001 18.057,4 17.2,4 L6.8,4 C5.943,4 5.361,4.001 4.911,4.038 Z M7,18 L7,19.4 C7,19.697 7.001,19.859 7.01,19.975 C7.011,19.98 7.011,19.984 7.011,19.989 C7.016,19.989 7.02,19.989 7.025,19.99 C7.141,19.999 7.303,20 7.6,20 L16.4,20 C16.697,20 16.859,19.999 16.975,19.99 C16.98,19.989 16.984,19.989 16.989,19.989 C16.989,19.984 16.989,19.98 16.99,19.975 C16.999,19.859 17,19.697 17,19.4 L17,18 Z"/>
</svg>
