<svg xmlns="http://www.w3.org/2000/svg" width="24" height="24" viewBox="0 0 24 24">
  <defs/>
  <path d="M2.293,2.293 C2.683,1.902 3.317,1.902 3.707,2.293 L21.707,20.293 C22.098,20.683 22.098,21.317 21.707,21.707 C21.317,22.098 20.683,22.098 20.293,21.707 L13,14.414 L13,19 L15,19 C15.552,19 16,19.448 16,20 C16,20.552 15.552,21 15,21 L9,21 C8.448,21 8,20.552 8,20 C8,19.448 8.448,19 9,19 L11,19 L11,12.414 L5,6.414 L5,7 C5,7.552 4.552,8 4,8 C3.448,8 3,7.552 3,7 L3,6 C3,5.537 3.105,5.098 3.293,4.707 L2.293,3.707 C1.902,3.317 1.902,2.683 2.293,2.293 Z M18.026,5.017 C17.789,5.001 17.48,5 17,5 L13,5 L13,6.5 C13,7.052 12.552,7.5 12,7.5 C11.448,7.5 11,7.052 11,6.5 L11,5 L9.5,5 C8.948,5 8.5,4.552 8.5,4 C8.5,3.448 8.948,3 9.5,3 L17.032,3 C17.471,3 17.849,3 18.162,3.021 C18.492,3.044 18.822,3.093 19.148,3.228 C19.883,3.533 20.467,4.117 20.772,4.852 C20.907,5.178 20.956,5.508 20.979,5.838 C21,6.151 21,6.529 21,6.968 L21,7 C21,7.552 20.552,8 20,8 C19.448,8 19,7.552 19,7 C19,6.52 19,6.211 18.983,5.974 C18.968,5.746 18.941,5.659 18.924,5.617 C18.822,5.372 18.628,5.178 18.383,5.076 C18.341,5.059 18.254,5.032 18.026,5.017 Z"/>
</svg>
