<svg xmlns="http://www.w3.org/2000/svg" width="24" height="24" viewBox="0 0 24 24">
  <defs/>
  <path d="M17.032,3 L17.032,3 C17.471,3 17.849,3 18.162,3.021 C18.492,3.044 18.822,3.093 19.148,3.228 C19.883,3.533 20.467,4.117 20.772,4.852 C20.907,5.178 20.956,5.508 20.979,5.838 C21,6.151 21,6.529 21,6.968 L21,7 C21,7.552 20.552,8 20,8 C19.448,8 19,7.552 19,7 C19,6.52 19,6.211 18.983,5.974 C18.968,5.746 18.941,5.659 18.924,5.617 C18.822,5.372 18.628,5.178 18.383,5.076 C18.341,5.059 18.254,5.032 18.026,5.017 C17.789,5.001 17.48,5 17,5 L14.75,5 L14.75,19 L16,19 C16.552,19 17,19.448 17,20 C17,20.552 16.552,21 16,21 L8,21 C7.448,21 7,20.552 7,20 C7,19.448 7.448,19 8,19 L9.25,19 L9.25,5 L7,5 C6.52,5 6.211,5.001 5.974,5.017 C5.746,5.032 5.659,5.059 5.617,5.076 C5.372,5.178 5.178,5.372 5.076,5.617 C5.059,5.659 5.032,5.746 5.017,5.974 C5.001,6.211 5,6.52 5,7 C5,7.552 4.552,8 4,8 C3.448,8 3,7.552 3,7 L3,6.968 C3,6.529 3,6.151 3.021,5.838 C3.044,5.508 3.093,5.178 3.228,4.852 C3.533,4.117 4.117,3.533 4.852,3.228 C5.178,3.093 5.508,3.044 5.838,3.021 C6.151,3 6.529,3 6.968,3 L17.032,3 Z M11.25,5 L11.25,19 L12.75,19 L12.75,5 Z"/>
</svg>
