<svg xmlns="http://www.w3.org/2000/svg" width="24" height="24" viewBox="0 0 24 24">
  <defs/>
  <path d="M2.293,2.293 C2.683,1.902 3.317,1.902 3.707,2.293 L21.707,20.293 C22.098,20.683 22.098,21.317 21.707,21.707 C21.317,22.098 20.683,22.098 20.293,21.707 L14.75,16.164 L14.75,19 L16,19 C16.552,19 17,19.448 17,20 C17,20.552 16.552,21 16,21 L8,21 C7.448,21 7,20.552 7,20 C7,19.448 7.448,19 8,19 L9.25,19 L9.25,10.664 L5,6.414 L5,7 C5,7.552 4.552,8 4,8 C3.448,8 3,7.552 3,7 L3,6 C3,5.537 3.105,5.098 3.293,4.707 L2.293,3.707 C1.902,3.317 1.902,2.683 2.293,2.293 Z M18.026,5.017 C17.789,5.001 17.48,5 17,5 L14.75,5 L14.75,8 C14.75,8.552 14.302,9 13.75,9 C13.198,9 12.75,8.552 12.75,8 L12.75,5 L11.25,5 C11.25,5.552 10.802,6 10.25,6 C9.698,6 9.25,5.552 9.25,5 L9.25,4.969 C8.819,4.857 8.5,4.466 8.5,4 C8.5,3.448 8.948,3 9.5,3 L17.032,3 C17.471,3 17.849,3 18.162,3.021 C18.492,3.044 18.822,3.093 19.148,3.228 C19.883,3.533 20.467,4.117 20.772,4.852 C20.907,5.178 20.956,5.508 20.979,5.838 C21,6.151 21,6.529 21,6.968 L21,7 C21,7.552 20.552,8 20,8 C19.448,8 19,7.552 19,7 C19,6.52 19,6.211 18.983,5.974 C18.968,5.746 18.941,5.659 18.924,5.617 C18.822,5.372 18.628,5.178 18.383,5.076 C18.341,5.059 18.254,5.032 18.026,5.017 Z M11.25,12.664 L11.25,19 L12.75,19 L12.75,14.164 Z"/>
</svg>
