<svg xmlns="http://www.w3.org/2000/svg" width="24" height="24" viewBox="0 0 24 24">
  <defs/>
  <path d="M22,12 L13.918,12.339 C13.612,12.252 13.3,12.174 13,12.115 L13,12.377 L11,12.461 L11,12.115 C10.572,12.199 10.12,12.321 9.695,12.454 C9.62,12.478 9.546,12.502 9.475,12.525 L7.565,12.605 C7.651,12.485 7.786,12.297 8,12 L7.565,12.605 L7.111,12.624 C6.996,12.559 6.853,12.485 6.689,12.41 C6.212,12.192 5.609,12 5,12 C4.391,12 3.788,12.192 3.311,12.41 C3.078,12.516 2.888,12.622 2.759,12.7 C2.695,12.739 2.646,12.77 2.616,12.79 C2.601,12.8 2.591,12.807 2.585,12.811 L2.583,12.812 L2.583,12.812 L2.583,12.813 L2.583,12.812 L2.611,12.813 L2.581,12.814 C2.277,13.031 1.877,13.061 1.544,12.89 C1.21,12.719 1,12.375 1,12 C1,5.925 5.925,1 12,1 C18.075,1 23,5.925 23,12 C23,12.375 22.79,12.719 22.456,12.89 C22.123,13.061 21.723,13.031 21.419,12.814 C21.418,12.813 21.417,12.812 21.416,12.812 Z M3.156,10.322 C3.686,10.142 4.319,10 5,10 C6.001,10 6.899,10.308 7.518,10.59 C7.745,10.693 7.942,10.796 8.102,10.887 C8.36,10.791 8.705,10.668 9.097,10.546 C9.912,10.291 11.034,10 12,10 C12.966,10 14.088,10.291 14.903,10.546 C15.295,10.668 15.64,10.791 15.898,10.887 C16.058,10.796 16.255,10.693 16.482,10.59 C17.101,10.308 17.999,10 19,10 C19.681,10 20.314,10.142 20.844,10.322 C20.058,6.153 16.397,3 12,3 C7.603,3 3.942,6.153 3.156,10.322 Z M15.614,12.922 L16.581,12.814 C16.299,13.015 15.934,13.056 15.614,12.923 L15.614,12.923 L15.614,12.922 L13,12.9 L13,19.4 C13,21.351 11.47,23 9.5,23 C7.53,23 6,21.351 6,19.4 C6,18.848 6.448,18.4 7,18.4 C7.552,18.4 8,18.848 8,19.4 C8,20.321 8.708,21 9.5,21 C10.292,21 11,20.321 11,19.4 L11,12.883 L8.535,12.863 C8.513,12.871 8.494,12.879 8.477,12.886 C8.445,12.898 8.421,12.908 8.406,12.914 L8.389,12.921 L8.386,12.922 L8.386,12.923 C8.089,13.047 7.752,13.02 7.479,12.854 L2.611,12.813 L7.111,12.624 C7.159,12.651 7.203,12.677 7.241,12.7 C7.305,12.739 7.354,12.77 7.384,12.79 C7.399,12.8 7.409,12.807 7.415,12.811 L7.417,12.813 L7.417,12.813 L7.417,12.813 L7.417,12.813 L7.418,12.813 L7.418,12.813 L7.418,12.814 L7.419,12.814 C7.439,12.828 7.459,12.841 7.479,12.854 L8.535,12.863 C8.592,12.84 8.665,12.812 8.751,12.78 C8.94,12.709 9.189,12.619 9.475,12.525 L11,12.461 L11,12.883 L13,12.9 L13,12.377 L13.918,12.339 C14.049,12.376 14.178,12.415 14.305,12.454 C14.682,12.573 15.013,12.691 15.249,12.78 C15.367,12.824 15.46,12.861 15.523,12.886 C15.555,12.898 15.579,12.908 15.594,12.914 L15.611,12.921 Z M7.416,12.812 L7.416,12.812 L7.565,12.605 C7.418,12.81 7.416,12.812 7.416,12.812 Z"/>
</svg>
