<svg xmlns="http://www.w3.org/2000/svg" width="24" height="24" viewBox="0 0 24 24">
  <defs/>
  <path d="M17.495,2.471 C17.497,2.472 17.499,2.473 17.5,2.474 C22.245,5.213 24.176,10.953 22.282,15.913 C22.271,15.941 22.261,15.969 22.25,15.999 C22.117,16.351 21.943,16.815 21.525,17.158 C21.181,17.44 20.691,17.614 20.247,17.612 C19.926,17.61 19.658,17.523 19.429,17.419 C19.232,17.33 19.016,17.205 18.805,17.083 L12.366,13.366 L7.959,21 L22,21 C22.552,21 23,21.448 23,22 C23,22.552 22.552,23 22,23 L2,23 C1.448,23 1,22.552 1,22 C1,21.448 1.448,21 2,21 L5.649,21 L10.634,12.366 L8.036,10.866 L4.225,8.666 C4.215,8.66 4.205,8.654 4.195,8.649 C3.984,8.527 3.768,8.402 3.592,8.276 C3.388,8.129 3.178,7.941 3.017,7.664 C2.793,7.28 2.698,6.768 2.771,6.33 C2.859,5.797 3.173,5.414 3.412,5.123 C3.432,5.099 3.451,5.075 3.47,5.052 C6.817,0.933 12.751,-0.265 17.495,2.471 Z M16.5,4.206 C16.337,4.111 16.048,4.05 15.544,4.2 C15.038,4.351 14.411,4.692 13.704,5.248 C12.474,6.216 11.129,7.737 9.92,9.644 L15.08,12.624 C16.128,10.623 16.772,8.697 16.995,7.148 C17.124,6.258 17.105,5.544 16.983,5.031 C16.861,4.52 16.663,4.3 16.5,4.206 Z M13.286,3.09 C10.207,2.646 7.039,3.831 5.022,6.314 C4.946,6.407 4.888,6.478 4.84,6.54 C4.801,6.59 4.776,6.625 4.759,6.651 C4.844,6.713 4.972,6.787 5.225,6.934 L8.186,8.643 C9.502,6.554 11.008,4.825 12.468,3.676 C12.738,3.463 13.012,3.267 13.286,3.09 Z M16.814,13.624 L19.775,15.334 C20.028,15.48 20.157,15.553 20.253,15.597 C20.267,15.569 20.284,15.529 20.308,15.47 C20.338,15.398 20.37,15.313 20.413,15.2 C21.555,12.212 20.997,8.876 19.073,6.431 C19.057,6.757 19.024,7.092 18.975,7.433 C18.71,9.271 17.966,11.441 16.814,13.624 Z"/>
</svg>
