<svg xmlns="http://www.w3.org/2000/svg" width="24" height="24" viewBox="0 0 24 24">
  <defs/>
  <path d="M13,13 L13,19.4 C13,20.321 13.708,21 14.5,21 C15.292,21 16,20.321 16,19.4 C16,18.848 16.448,18.4 17,18.4 C17.552,18.4 18,18.848 18,19.4 C18,21.351 16.47,23 14.5,23 C12.53,23 11,21.351 11,19.4 L11,13 L3.565,13 C3.322,13 3.072,13 2.856,12.979 C2.607,12.954 2.33,12.896 2.052,12.737 C1.666,12.517 1.329,12.12 1.172,11.705 C0.982,11.199 1.063,10.71 1.124,10.338 C1.129,10.307 1.134,10.277 1.139,10.248 C1.979,5.005 6.521,1 12,1 C17.479,1 22.021,5.005 22.861,10.248 C22.866,10.277 22.871,10.307 22.876,10.338 C22.937,10.71 23.018,11.199 22.828,11.705 C22.671,12.12 22.333,12.517 21.948,12.737 C21.67,12.896 21.393,12.954 21.144,12.979 C20.928,13 20.678,13 20.435,13 Z M12,3 C7.519,3 3.8,6.276 3.114,10.564 C3.095,10.684 3.08,10.774 3.07,10.851 C3.061,10.914 3.056,10.958 3.054,10.988 C3.159,10.999 3.307,11 3.6,11 L20.4,11 C20.693,11 20.841,10.999 20.946,10.988 C20.944,10.958 20.939,10.914 20.93,10.851 C20.92,10.774 20.905,10.684 20.886,10.564 C20.199,6.276 16.481,3 12,3 Z"/>
</svg>
