<svg xmlns="http://www.w3.org/2000/svg" width="24" height="24" viewBox="0 0 24 24">
  <defs/>
  <path d="M2,4 C2,3.448 2.448,3 3,3 L10.5,3 C11.052,3 11.5,3.448 11.5,4 C11.5,4.552 11.052,5 10.5,5 L9.5,5 L9.5,10 C9.5,12.704 11.289,14.992 13.75,15.741 C16.21,14.992 18,12.705 18,10 L18,5 L17,5 C16.448,5 16,4.552 16,4 C16,3.448 16.448,3 17,3 L21,3 C21.552,3 22,3.448 22,4 C22,4.552 21.552,5 21,5 L20,5 L20,10 C20,14.418 16.418,18 12,18 C7.582,18 4,14.418 4,10 L4,5 L3,5 C2.448,5 2,4.552 2,4 Z M3,21 C3,20.448 3.448,20 4,20 L20,20 C20.552,20 21,20.448 21,21 C21,21.552 20.552,22 20,22 L4,22 C3.448,22 3,21.552 3,21 Z M6,5 L6,10 C6,12.519 7.553,14.676 9.753,15.565 C8.358,14.125 7.5,12.163 7.5,10 L7.5,5 Z"/>
</svg>
