<svg width="22" height="22" viewBox="0 0 22 22" fill="none" xmlns="http://www.w3.org/2000/svg">
<path d="M0.573078 1.06697C0.963588 0.676462 1.59661 0.67649 1.98714 1.06697L5.62972 4.70955C5.6499 4.72578 5.6701 4.74229 5.68929 4.76033C5.72278 4.79185 5.75291 4.82615 5.78109 4.86092L19.9871 19.067C20.3777 19.4575 20.3777 20.0905 19.9871 20.481C19.5966 20.8713 18.9635 20.8715 18.5731 20.481L14.1336 16.0416L13.8807 17.3121C13.7894 17.7686 13.7082 18.1794 13.6131 18.4996C13.5209 18.81 13.3689 19.2109 13.0272 19.5142C12.5897 19.9025 12.0037 20.0797 11.4246 19.9996C10.9718 19.9368 10.6229 19.6873 10.3739 19.4801C10.117 19.2663 9.82128 18.9695 9.49202 18.6402L6.65609 15.8043L1.70687 20.7545C1.31639 21.1448 0.683283 21.1448 0.292804 20.7545C-0.0976625 20.364 -0.0975403 19.731 0.292804 19.3404L5.24202 14.3902L2.40706 11.5543C2.07777 11.225 1.78094 10.9293 1.56722 10.6724C1.35998 10.4234 1.10948 10.0745 1.04671 9.62166C0.966573 9.04263 1.1441 8.45737 1.53206 8.0201C1.8355 7.67811 2.23709 7.52643 2.54769 7.43416C2.86794 7.33904 3.27866 7.25789 3.73519 7.16658L5.00472 6.91268L0.573078 2.48104C0.18269 2.0906 0.182852 1.45751 0.573078 1.06697ZM4.12777 9.12752C3.63216 9.22664 3.32855 9.28832 3.11702 9.35115C3.10434 9.35492 3.0928 9.35941 3.08187 9.36287C3.08915 9.37196 3.09571 9.38278 3.10433 9.39314C3.24549 9.56278 3.46369 9.78274 3.82112 10.1402L10.9071 17.2262C11.2643 17.5834 11.4836 17.8018 11.6532 17.9429C11.6631 17.9512 11.6737 17.9574 11.6825 17.9644C11.6859 17.9537 11.6914 17.9427 11.6951 17.9303C11.758 17.7187 11.8206 17.4151 11.9198 16.9195L12.4344 14.3414L6.70394 8.61189L4.12777 9.12752ZM12.8534 0.0103324L13.0487 0.0396293L13.1903 0.0747856C13.5113 0.170425 13.7636 0.351418 13.9578 0.513262C14.1778 0.69659 14.4258 0.945136 14.6922 1.2115L19.8348 6.35506C20.1011 6.62135 20.3497 6.86857 20.533 7.08846C20.7181 7.3105 20.9286 7.6087 21.0076 7.99861C21.0993 8.45072 21.0314 8.9186 20.8192 9.32381L20.7196 9.49275C20.5013 9.82558 20.1955 10.0243 19.9412 10.1617C19.6893 10.2978 19.3665 10.4352 19.0203 10.5836L16.5262 11.6529C16.4692 11.6774 16.4418 11.6887 16.4217 11.6978C16.4086 11.7038 16.409 11.7035 16.4159 11.6998C15.9833 12.0403 15.357 11.9683 15.0145 11.5367C14.6712 11.1041 14.744 10.4747 15.1766 10.1314C15.2558 10.0686 15.3396 10.0118 15.4276 9.9615L15.5926 9.87752C15.6458 9.85316 15.6959 9.83215 15.7381 9.81404L18.2323 8.74471C18.6137 8.5812 18.8378 8.48475 18.991 8.40193C18.9986 8.39787 19.005 8.39292 19.0116 8.38924C19.0068 8.38331 19.0024 8.37635 18.9969 8.36971C18.8854 8.2359 18.7142 8.06257 18.4207 7.76912L13.2772 2.62654C12.9839 2.33327 12.8114 2.16191 12.6776 2.05037C12.6706 2.04455 12.6633 2.03975 12.6571 2.03475C12.6533 2.04151 12.6486 2.04848 12.6444 2.05623C12.5616 2.20943 12.465 2.43273 12.3016 2.81404L11.2332 5.30818L11.2323 5.30916C11.1954 5.39516 11.1484 5.50889 11.0858 5.61873C11.0355 5.70665 10.9782 5.79199 10.9149 5.87166C10.5711 6.30374 9.94182 6.37539 9.5096 6.03182C9.07783 5.68849 9.00513 5.05975 9.34749 4.62752L9.34944 4.62459C9.35859 4.60451 9.37019 4.57644 9.39437 4.5201L10.4637 2.02596C10.612 1.67981 10.7495 1.35692 10.8856 1.10506C11.023 0.850784 11.222 0.544808 11.5545 0.326739C11.94 0.0739098 12.3987 -0.0359505 12.8534 0.0103324Z" fill="black"/>
</svg>
