<svg xmlns="http://www.w3.org/2000/svg" width="24" height="24" viewBox="0 0 24 24">
  <defs/>
  <path d="M12,6 C12.265,6 12.52,6.105 12.707,6.293 L18.707,12.293 C19.098,12.683 19.098,13.317 18.707,13.707 C18.317,14.098 17.683,14.098 17.293,13.707 L13,9.414 L13,21 C13,21.552 12.552,22 12,22 C11.448,22 11,21.552 11,21 L11,9.414 L6.707,13.707 C6.317,14.098 5.683,14.098 5.293,13.707 C4.902,13.317 4.902,12.683 5.293,12.293 L11.293,6.293 C11.48,6.105 11.735,6 12,6 Z M2,3 C2,2.448 2.448,2 3,2 L21,2 C21.552,2 22,2.448 22,3 C22,3.552 21.552,4 21,4 L3,4 C2.448,4 2,3.552 2,3 Z"/>
</svg>
