<svg xmlns="http://www.w3.org/2000/svg" width="24" height="24" viewBox="0 0 24 24">
  <defs/>
  <path d="M12,3 C7.029,3 3,7.029 3,12 C3,15.33 4.808,18.239 7.501,19.797 C7.979,20.073 8.142,20.685 7.866,21.163 C7.589,21.641 6.977,21.804 6.499,21.528 C3.214,19.627 1,16.073 1,12 C1,5.925 5.925,1 12,1 C18.075,1 23,5.925 23,12 C23,16.244 20.597,19.925 17.081,21.758 C17.066,21.766 17.052,21.774 17.037,21.782 C16.714,21.95 16.355,22.138 15.946,22.245 C15.486,22.365 15.021,22.372 14.463,22.296 C13.95,22.227 13.392,21.966 12.957,21.702 C12.522,21.438 12.033,21.064 11.734,20.642 C10.998,19.601 10.999,18.606 11,17.345 L11,17.345 C11,17.297 11,17.249 11,17.2 L11,10.414 L8.707,12.707 C8.317,13.098 7.683,13.098 7.293,12.707 C6.902,12.317 6.902,11.683 7.293,11.293 L11.293,7.293 C11.48,7.105 11.735,7 12,7 C12.265,7 12.52,7.105 12.707,7.293 L16.707,11.293 C17.098,11.683 17.098,12.317 16.707,12.707 C16.317,13.098 15.683,13.098 15.293,12.707 L13,10.414 L13,17.2 C13,18.651 13.03,19.01 13.367,19.487 C13.434,19.582 13.654,19.786 13.994,19.992 C14.334,20.198 14.616,20.299 14.731,20.314 C15.118,20.367 15.306,20.345 15.441,20.309 C15.608,20.266 15.773,20.185 16.156,19.985 C19.037,18.483 21,15.47 21,12 C21,7.029 16.971,3 12,3 Z"/>
</svg>
