<svg xmlns="http://www.w3.org/2000/svg" width="24" height="24" viewBox="0 0 24 24">
  <defs/>
  <path d="M9.5,4 C5.91,4 3,6.91 3,10.5 C3,12.291 3.723,13.911 4.895,15.088 C5.285,15.479 5.284,16.112 4.893,16.502 C4.502,16.892 3.868,16.891 3.479,16.499 C1.948,14.963 1,12.841 1,10.5 C1,5.806 4.806,2 9.5,2 C12.545,2 15.214,3.601 16.715,6.003 C20.205,6.117 23,8.982 23,12.5 C23,14.519 22.078,16.323 20.637,17.514 C20.211,17.866 19.581,17.806 19.229,17.38 C18.877,16.954 18.937,16.323 19.363,15.972 C20.365,15.145 21,13.897 21,12.5 C21,10.015 18.985,8 16.5,8 C15.936,8 15.4,7.706 15.105,7.205 C13.973,5.285 11.886,4 9.5,4 Z M11.293,11.293 C11.683,10.902 12.317,10.902 12.707,11.293 L16.707,15.293 C17.098,15.683 17.098,16.317 16.707,16.707 C16.317,17.098 15.683,17.098 15.293,16.707 L13,14.414 L13,21 C13,21.552 12.552,22 12,22 C11.448,22 11,21.552 11,21 L11,14.414 L8.707,16.707 C8.317,17.098 7.683,17.098 7.293,16.707 C6.902,16.317 6.902,15.683 7.293,15.293 Z"/>
</svg>
