<svg xmlns="http://www.w3.org/2000/svg" width="24" height="24" viewBox="0 0 24 24">
  <defs/>
  <path d="M7.568,1 L16.432,1 L16.432,1 C16.684,1 16.93,1 17.138,1.017 C17.367,1.036 17.637,1.08 17.908,1.218 C18.284,1.41 18.59,1.716 18.782,2.092 C18.92,2.363 18.964,2.633 18.983,2.862 C19,3.069 19,3.313 19,3.564 L19,8.178 C19.122,8.217 19.243,8.266 19.362,8.327 C19.927,8.615 20.385,9.074 20.673,9.638 C20.866,10.016 20.937,10.41 20.969,10.805 C21,11.179 21,11.634 21,12.161 L21,17.241 C21,18.046 21,18.711 20.956,19.252 C20.91,19.814 20.811,20.331 20.564,20.816 C20.181,21.569 19.569,22.181 18.816,22.564 C18.331,22.811 17.814,22.91 17.252,22.956 C16.711,23 16.046,23 15.241,23 L8.759,23 C7.954,23 7.289,23 6.748,22.956 C6.186,22.91 5.669,22.811 5.184,22.564 C4.431,22.181 3.819,21.569 3.436,20.816 C3.189,20.331 3.09,19.814 3.044,19.252 C3,18.711 3,18.046 3,17.241 L3,12.161 C3,11.634 3,11.179 3.031,10.805 C3.063,10.41 3.134,10.016 3.327,9.638 C3.615,9.074 4.074,8.615 4.638,8.327 C4.757,8.266 4.878,8.217 5,8.178 L5,3.568 C5,3.316 5,3.07 5.017,2.862 C5.036,2.633 5.08,2.363 5.218,2.092 C5.41,1.716 5.716,1.41 6.092,1.218 C6.363,1.08 6.633,1.036 6.862,1.017 C7.07,1 7.316,1 7.568,1 Z M7.2,10 C6.623,10 6.251,10.001 5.968,10.024 C5.696,10.046 5.595,10.084 5.546,10.109 C5.358,10.205 5.205,10.358 5.109,10.546 C5.084,10.595 5.046,10.696 5.024,10.968 C5.001,11.251 5,11.623 5,12.2 L5,17.2 C5,18.057 5.001,18.639 5.038,19.089 C5.073,19.527 5.138,19.752 5.218,19.908 C5.41,20.284 5.716,20.59 6.092,20.782 C6.248,20.862 6.473,20.927 6.911,20.962 C7.361,20.999 7.943,21 8.8,21 L15.2,21 C16.057,21 16.639,20.999 17.089,20.962 C17.527,20.927 17.752,20.862 17.908,20.782 C18.284,20.59 18.59,20.284 18.782,19.908 C18.862,19.752 18.927,19.527 18.962,19.089 C18.999,18.639 19,18.057 19,17.2 L19,12.2 C19,11.623 18.999,11.251 18.976,10.968 C18.954,10.696 18.916,10.595 18.891,10.546 C18.795,10.358 18.642,10.205 18.454,10.109 C18.404,10.084 18.304,10.046 18.032,10.024 C17.749,10.001 17.377,10 16.8,10 Z M7,8 C7.053,8 7.107,8 7.161,8 L16.838,8 C16.893,8 16.947,8 17,8 L17,3.6 C17,3.303 16.999,3.141 16.99,3.025 C16.989,3.02 16.989,3.016 16.989,3.011 C16.984,3.011 16.98,3.011 16.975,3.01 C16.859,3.001 16.697,3 16.4,3 L7.6,3 C7.303,3 7.141,3.001 7.025,3.01 C7.02,3.011 7.016,3.011 7.011,3.011 C7.011,3.016 7.011,3.02 7.01,3.025 C7.001,3.141 7,3.303 7,3.6 Z M14,4 C14.552,4 15,4.448 15,5 L15,6 C15,6.552 14.552,7 14,7 C13.448,7 13,6.552 13,6 L13,5 C13,4.448 13.448,4 14,4 Z M10,4 C10.552,4 11,4.448 11,5 L11,6 C11,6.552 10.552,7 10,7 C9.448,7 9,6.552 9,6 L9,5 C9,4.448 9.448,4 10,4 Z"/>
</svg>
