<svg xmlns="http://www.w3.org/2000/svg" width="24" height="24" viewBox="0 0 24 24">
  <defs/>
  <path d="M4.5,7 C4.5,4.239 6.739,2 9.5,2 C12.261,2 14.5,4.239 14.5,7 C14.5,9.761 12.261,12 9.5,12 C6.739,12 4.5,9.761 4.5,7 Z M18.793,11.293 C19.736,10.35 21.264,10.35 22.207,11.293 C23.15,12.236 23.15,13.764 22.207,14.707 L15.55,21.365 L15.523,21.391 C15.424,21.49 15.299,21.616 15.151,21.719 C15.022,21.809 14.883,21.883 14.737,21.941 C14.569,22.007 14.396,22.041 14.258,22.068 C14.245,22.071 14.233,22.073 14.221,22.076 L12.196,22.481 C11.868,22.546 11.529,22.444 11.293,22.207 C11.056,21.971 10.954,21.632 11.019,21.304 L11.424,19.279 C11.427,19.267 11.429,19.255 11.432,19.242 C11.459,19.104 11.493,18.931 11.559,18.763 C11.617,18.617 11.691,18.478 11.781,18.349 C11.884,18.201 12.009,18.076 12.109,17.977 C12.118,17.968 12.127,17.959 12.135,17.95 Z M7.964,14 L11,14 C11.552,14 12,14.448 12,15 C12,15.552 11.552,16 11,16 L8,16 C7.054,16 6.395,16 5.879,16.036 C5.373,16.07 5.077,16.135 4.852,16.228 C4.117,16.533 3.533,17.117 3.228,17.852 C3.135,18.077 3.07,18.372 3.036,18.879 C3.001,19.395 3,20.054 3,21 C3,21.552 2.552,22 2,22 C1.448,22 1,21.552 1,21 L1,20.965 C1,20.063 1,19.335 1.04,18.743 C1.082,18.135 1.169,17.596 1.381,17.087 C1.888,15.861 2.861,14.888 4.087,14.381 C4.596,14.17 5.135,14.082 5.743,14.04 C6.335,14 7.063,14 7.964,14 Z M9.5,4 C7.843,4 6.5,5.343 6.5,7 C6.5,8.657 7.843,10 9.5,10 C11.157,10 12.5,8.657 12.5,7 C12.5,5.343 11.157,4 9.5,4 Z M14.573,2.916 C14.78,2.404 15.363,2.157 15.875,2.364 C17.706,3.105 19,4.9 19,7 C19,7.552 18.552,8 18,8 C17.448,8 17,7.552 17,7 C17,5.743 16.226,4.663 15.125,4.218 C14.613,4.01 14.366,3.427 14.573,2.916 Z M20.793,12.707 C20.631,12.545 20.369,12.545 20.207,12.707 L13.55,19.365 C13.481,19.433 13.448,19.467 13.424,19.492 C13.424,19.493 13.423,19.493 13.422,19.494 L13.422,19.496 C13.414,19.53 13.405,19.576 13.385,19.671 L13.275,20.225 L13.829,20.114 C13.924,20.096 13.97,20.086 14.004,20.078 L14.006,20.077 L14.008,20.076 C14.033,20.052 14.067,20.019 14.135,19.95 L20.793,13.293 C20.955,13.131 20.955,12.869 20.793,12.707 Z"/>
</svg>
