<svg xmlns="http://www.w3.org/2000/svg" width="24" height="24" viewBox="0 0 24 24">
  <defs/>
  <path d="M4.5,7 C4.5,4.239 6.739,2 9.5,2 C12.261,2 14.5,4.239 14.5,7 C14.5,9.761 12.261,12 9.5,12 C6.739,12 4.5,9.761 4.5,7 Z M7.964,14 L12,14 C12.552,14 13,14.448 13,15 C13,15.552 12.552,16 12,16 L8,16 C7.054,16 6.395,16 5.879,16.036 C5.373,16.07 5.077,16.135 4.852,16.228 C4.117,16.533 3.533,17.117 3.228,17.852 C3.135,18.077 3.07,18.372 3.036,18.879 C3.001,19.395 3,20.054 3,21 C3,21.552 2.552,22 2,22 C1.448,22 1,21.552 1,21 L1,20.965 C1,20.063 1,19.335 1.04,18.743 C1.082,18.135 1.169,17.596 1.381,17.087 C1.888,15.861 2.861,14.888 4.087,14.381 C4.596,14.17 5.135,14.082 5.743,14.04 C6.335,14 7.063,14 7.964,14 Z M9.5,4 C7.843,4 6.5,5.343 6.5,7 C6.5,8.657 7.843,10 9.5,10 C11.157,10 12.5,8.657 12.5,7 C12.5,5.343 11.157,4 9.5,4 Z M14.573,2.916 C14.78,2.404 15.363,2.157 15.875,2.364 C17.706,3.105 19,4.9 19,7 C19,9.1 17.706,10.895 15.875,11.636 C15.363,11.843 14.78,11.596 14.573,11.085 C14.366,10.573 14.613,9.99 15.125,9.782 C16.226,9.337 17,8.257 17,7 C17,5.743 16.226,4.663 15.125,4.218 C14.613,4.01 14.366,3.427 14.573,2.916 Z M15,18 C15,17.448 15.448,17 16,17 L22,17 C22.552,17 23,17.448 23,18 C23,18.552 22.552,19 22,19 L16,19 C15.448,19 15,18.552 15,18 Z"/>
</svg>
