<svg xmlns="http://www.w3.org/2000/svg" width="24" height="24" viewBox="0 0 24 24">
  <defs/>
  <path d="M3.418,18.303 C5.391,15.692 8.499,14 12,14 C15.501,14 18.609,15.692 20.582,18.303 C20.591,18.315 20.6,18.327 20.609,18.339 C20.778,18.563 20.96,18.803 21.09,19.036 C21.247,19.316 21.364,19.641 21.357,20.037 C21.351,20.354 21.255,20.652 21.138,20.886 C21.021,21.121 20.842,21.377 20.592,21.573 C20.259,21.835 19.896,21.928 19.573,21.966 C19.291,22 18.955,22 18.618,22 L5.382,22 C5.045,22 4.709,22 4.427,21.966 C4.104,21.928 3.741,21.835 3.408,21.573 C3.158,21.377 2.979,21.121 2.862,20.886 C2.745,20.652 2.649,20.354 2.643,20.037 C2.636,19.641 2.752,19.316 2.91,19.036 C3.04,18.803 3.222,18.563 3.391,18.339 C3.4,18.327 3.409,18.315 3.418,18.303 Z M6.5,7.5 C6.5,4.462 8.962,2 12,2 C15.038,2 17.5,4.462 17.5,7.5 C17.5,10.538 15.038,13 12,13 C8.962,13 6.5,10.538 6.5,7.5 Z M12,16 C9.161,16 6.63,17.369 5.014,19.509 C4.915,19.64 4.839,19.74 4.776,19.828 C4.728,19.895 4.696,19.944 4.673,19.981 C4.822,19.998 5.034,20 5.427,20 L18.573,20 C18.966,20 19.178,19.998 19.327,19.981 C19.304,19.944 19.271,19.895 19.224,19.828 C19.161,19.74 19.085,19.64 18.986,19.509 C17.369,17.369 14.839,16 12,16 Z M12,4 C10.067,4 8.5,5.567 8.5,7.5 C8.5,9.433 10.067,11 12,11 C13.933,11 15.5,9.433 15.5,7.5 C15.5,5.567 13.933,4 12,4 Z"/>
</svg>
