<svg xmlns="http://www.w3.org/2000/svg" width="24" height="24" viewBox="0 0 24 24">
  <defs/>
  <path d="M19.37,20.166 C19.359,20.177 19.347,20.188 19.334,20.198 C17.388,21.94 14.818,23 12,23 C9.182,23 6.612,21.94 4.665,20.198 C4.653,20.188 4.641,20.177 4.63,20.166 C2.401,18.153 1,15.24 1,12 C1,5.925 5.925,1 12,1 C18.075,1 23,5.925 23,12 C23,15.24 21.599,18.153 19.37,20.166 Z M12,3 C7.029,3 3,7.029 3,12 C3,14.221 3.805,16.254 5.138,17.824 C6.055,16.711 7.444,16 9,16 L15,16 C16.556,16 17.945,16.711 18.862,17.824 C20.195,16.254 21,14.221 21,12 C21,7.029 16.971,3 12,3 Z M7,9.5 C7,6.739 9.239,4.5 12,4.5 C14.761,4.5 17,6.739 17,9.5 C17,12.261 14.761,14.5 12,14.5 C9.239,14.5 7,12.261 7,9.5 Z M12,6.5 C10.343,6.5 9,7.843 9,9.5 C9,11.157 10.343,12.5 12,12.5 C13.657,12.5 15,11.157 15,9.5 C15,7.843 13.657,6.5 12,6.5 Z M17.401,19.2 C16.853,18.471 15.981,18 15,18 L9,18 C8.019,18 7.147,18.471 6.599,19.2 C8.104,20.33 9.974,21 12,21 C14.026,21 15.896,20.33 17.401,19.2 Z"/>
</svg>
