<svg xmlns="http://www.w3.org/2000/svg" width="24" height="24" viewBox="0 0 24 24">
  <defs/>
  <path d="M6.5,7.5 C6.5,4.462 8.962,2 12,2 C15.038,2 17.5,4.462 17.5,7.5 C17.5,10.538 15.038,13 12,13 C8.962,13 6.5,10.538 6.5,7.5 Z M12,17 C8.809,17 5.893,18.389 3.728,20.686 C3.349,21.088 2.716,21.107 2.314,20.728 C1.912,20.349 1.894,19.716 2.272,19.314 C4.778,16.656 8.205,15 12,15 C15.795,15 19.222,16.656 21.728,19.314 C22.107,19.716 22.088,20.349 21.686,20.728 C21.284,21.107 20.651,21.088 20.272,20.686 C18.107,18.389 15.191,17 12,17 Z M12,4 C10.067,4 8.5,5.567 8.5,7.5 C8.5,9.433 10.067,11 12,11 C13.933,11 15.5,9.433 15.5,7.5 C15.5,5.567 13.933,4 12,4 Z"/>
</svg>
