<svg xmlns="http://www.w3.org/2000/svg" width="24" height="24" viewBox="0 0 24 24">
  <defs/>
  <path d="M4.5,7 C4.5,4.239 6.739,2 9.5,2 C12.261,2 14.5,4.239 14.5,7 C14.5,9.761 12.261,12 9.5,12 C6.739,12 4.5,9.761 4.5,7 Z M7.964,14 L11.035,14 C11.937,14 12.665,14 13.257,14.04 C13.865,14.082 14.404,14.17 14.913,14.381 C16.139,14.888 17.112,15.861 17.619,17.087 C17.83,17.596 17.918,18.135 17.96,18.743 C18,19.335 18,20.063 18,20.965 L18,21 C18,21.552 17.552,22 17,22 C16.448,22 16,21.552 16,21 C16,20.054 16,19.395 15.964,18.879 C15.93,18.372 15.865,18.077 15.772,17.852 C15.467,17.117 14.883,16.533 14.148,16.228 C13.923,16.135 13.627,16.07 13.121,16.036 C12.605,16 11.946,16 11,16 L8,16 C7.054,16 6.395,16 5.879,16.036 C5.373,16.07 5.077,16.135 4.852,16.228 C4.117,16.533 3.533,17.117 3.228,17.852 C3.135,18.077 3.07,18.372 3.036,18.879 C3.001,19.395 3,20.054 3,21 C3,21.552 2.552,22 2,22 C1.448,22 1,21.552 1,21 L1,20.965 C1,20.063 1,19.335 1.04,18.743 C1.082,18.135 1.169,17.596 1.381,17.087 C1.888,15.861 2.861,14.888 4.087,14.381 C4.596,14.17 5.135,14.082 5.743,14.04 C6.335,14 7.063,14 7.964,14 Z M9.5,4 C7.843,4 6.5,5.343 6.5,7 C6.5,8.657 7.843,10 9.5,10 C11.157,10 12.5,8.657 12.5,7 C12.5,5.343 11.157,4 9.5,4 Z M14.573,2.916 C14.78,2.404 15.363,2.157 15.875,2.364 C17.706,3.105 19,4.9 19,7 C19,9.1 17.706,10.895 15.875,11.636 C15.363,11.843 14.78,11.596 14.573,11.085 C14.366,10.573 14.613,9.99 15.125,9.782 C16.226,9.337 17,8.257 17,7 C17,5.743 16.226,4.663 15.125,4.218 C14.613,4.01 14.366,3.427 14.573,2.916 Z M18.032,14.877 C18.169,14.342 18.714,14.02 19.249,14.158 C21.406,14.713 23,16.669 23,19 L23,21 C23,21.552 22.552,22 22,22 C21.448,22 21,21.552 21,21 L21,19 C21,17.604 20.045,16.427 18.751,16.094 C18.216,15.957 17.894,15.412 18.032,14.877 Z"/>
</svg>
