<svg xmlns="http://www.w3.org/2000/svg" width="24" height="24" viewBox="0 0 24 24">
  <defs/>
  <path d="M4.5,7.5 C4.5,5.015 6.515,3 9,3 C11.485,3 13.5,5.015 13.5,7.5 C13.5,9.985 11.485,12 9,12 C6.515,12 4.5,9.985 4.5,7.5 Z M6.759,14 L11.241,14 C12.046,14 12.711,14 13.252,14.044 C13.814,14.09 14.331,14.189 14.816,14.436 C15.569,14.819 16.181,15.431 16.564,16.184 C16.811,16.669 16.91,17.186 16.956,17.748 C17,18.289 17,18.954 17,19.759 L17,21 C17,21.552 16.552,22 16,22 C15.448,22 15,21.552 15,21 L15,19.8 C15,18.943 14.999,18.361 14.962,17.911 C14.927,17.473 14.862,17.248 14.782,17.092 C14.59,16.716 14.284,16.41 13.908,16.218 C13.752,16.138 13.527,16.073 13.089,16.038 C12.639,16.001 12.057,16 11.2,16 L6.8,16 C5.943,16 5.361,16.001 4.911,16.038 C4.473,16.073 4.248,16.138 4.092,16.218 C3.716,16.41 3.41,16.716 3.218,17.092 C3.138,17.248 3.073,17.473 3.038,17.911 C3.001,18.361 3,18.943 3,19.8 L3,21 C3,21.552 2.552,22 2,22 C1.448,22 1,21.552 1,21 L1,19.759 C1,18.954 1,18.289 1.044,17.748 C1.09,17.186 1.189,16.669 1.436,16.184 C1.819,15.431 2.431,14.819 3.184,14.436 C3.669,14.189 4.186,14.09 4.748,14.044 C5.289,14 5.954,14 6.759,14 Z M9,5 C7.619,5 6.5,6.119 6.5,7.5 C6.5,8.881 7.619,10 9,10 C10.381,10 11.5,8.881 11.5,7.5 C11.5,6.119 10.381,5 9,5 Z M15,7 C15,6.448 15.448,6 16,6 L22,6 C22.552,6 23,6.448 23,7 C23,7.552 22.552,8 22,8 L16,8 C15.448,8 15,7.552 15,7 Z"/>
</svg>
