<svg xmlns="http://www.w3.org/2000/svg" width="24" height="24" viewBox="0 0 24 24">
  <defs/>
  <path d="M4.5,7.5 C4.5,4.462 6.962,2 10,2 C13.038,2 15.5,4.462 15.5,7.5 C15.5,10.538 13.038,13 10,13 C6.962,13 4.5,10.538 4.5,7.5 Z M10,4 C8.067,4 6.5,5.567 6.5,7.5 C6.5,9.433 8.067,11 10,11 C11.933,11 13.5,9.433 13.5,7.5 C13.5,5.567 11.933,4 10,4 Z M7.326,14.5 L12,14.5 C12.552,14.5 13,14.948 13,15.5 C13,16.052 12.552,16.5 12,16.5 L7.5,16.5 C6.032,16.5 5.519,16.511 5.129,16.629 C4.17,16.92 3.42,17.67 3.129,18.629 C3.011,19.019 3,19.532 3,21 C3,21.552 2.552,22 2,22 C1.448,22 1,21.552 1,21 C1,20.941 1,20.883 1,20.826 C0.999,19.599 0.999,18.761 1.215,18.049 C1.7,16.451 2.951,15.2 4.549,14.715 C5.261,14.499 6.099,14.5 7.326,14.5 Z M22.707,15.293 C23.098,15.683 23.098,16.317 22.707,16.707 L18.707,20.707 C18.316,21.098 17.683,21.098 17.293,20.707 L15.293,18.707 C14.902,18.317 14.902,17.683 15.293,17.293 C15.683,16.902 16.316,16.902 16.707,17.293 L18,18.586 L21.293,15.293 C21.683,14.902 22.316,14.902 22.707,15.293 Z"/>
</svg>
