<svg xmlns="http://www.w3.org/2000/svg" width="24" height="24" viewBox="0 0 24 24">
  <defs/>
  <path d="M6.5,7.5 C6.5,4.462 8.962,2 12,2 C15.038,2 17.5,4.462 17.5,7.5 C17.5,10.538 15.038,13 12,13 C8.962,13 6.5,10.538 6.5,7.5 Z M9.326,14.5 L14.674,14.5 C15.901,14.5 16.739,14.499 17.451,14.715 C19.049,15.2 20.3,16.451 20.785,18.049 C21.001,18.761 21,19.599 21,20.826 L21,21 C21,21.552 20.552,22 20,22 C19.448,22 19,21.552 19,21 C19,19.532 18.989,19.019 18.871,18.629 C18.58,17.67 17.83,16.92 16.871,16.629 C16.481,16.511 15.968,16.5 14.5,16.5 L9.5,16.5 C8.032,16.5 7.519,16.511 7.129,16.629 C6.17,16.92 5.42,17.67 5.129,18.629 C5.011,19.019 5,19.532 5,21 C5,21.552 4.552,22 4,22 C3.448,22 3,21.552 3,21 C3,20.941 3,20.883 3,20.826 C2.999,19.599 2.999,18.761 3.215,18.049 C3.7,16.451 4.951,15.2 6.549,14.715 C7.261,14.499 8.099,14.5 9.326,14.5 Z M12,4 C10.067,4 8.5,5.567 8.5,7.5 C8.5,9.433 10.067,11 12,11 C13.933,11 15.5,9.433 15.5,7.5 C15.5,5.567 13.933,4 12,4 Z"/>
</svg>
