<svg xmlns="http://www.w3.org/2000/svg" width="24" height="24" viewBox="0 0 24 24">
  <defs/>
  <path d="M4.5,7.5 C4.5,4.462 6.962,2 10,2 C13.038,2 15.5,4.462 15.5,7.5 C15.5,10.538 13.038,13 10,13 C6.962,13 4.5,10.538 4.5,7.5 Z M18.043,10.043 C19.124,8.962 20.876,8.962 21.957,10.043 C23.038,11.124 23.038,12.876 21.957,13.957 L15.5,20.414 C15.493,20.421 15.485,20.429 15.478,20.437 C15.392,20.522 15.285,20.63 15.16,20.722 C15.051,20.802 14.934,20.871 14.811,20.927 C14.669,20.992 14.523,21.034 14.407,21.067 C14.396,21.07 14.386,21.073 14.376,21.075 L11.275,21.962 C10.925,22.061 10.55,21.964 10.293,21.707 C10.036,21.45 9.939,21.074 10.038,20.725 L10.925,17.624 C10.927,17.614 10.93,17.604 10.933,17.593 C10.966,17.477 11.008,17.331 11.073,17.189 C11.129,17.066 11.198,16.949 11.278,16.84 C11.37,16.715 11.478,16.608 11.563,16.522 C11.571,16.515 11.579,16.507 11.586,16.5 Z M10,4 C8.067,4 6.5,5.567 6.5,7.5 C6.5,9.433 8.067,11 10,11 C11.933,11 13.5,9.433 13.5,7.5 C13.5,5.567 11.933,4 10,4 Z M7.326,14.5 L9,14.5 C9.552,14.5 10,14.948 10,15.5 C10,16.052 9.552,16.5 9,16.5 L7.5,16.5 C6.032,16.5 5.519,16.511 5.129,16.629 C4.17,16.92 3.42,17.67 3.129,18.629 C3.011,19.019 3,19.532 3,21 C3,21.552 2.552,22 2,22 C1.448,22 1,21.552 1,21 C1,20.941 1,20.883 1,20.826 C0.999,19.599 0.999,18.761 1.215,18.049 C1.7,16.451 2.951,15.2 4.549,14.715 C5.261,14.499 6.099,14.5 7.326,14.5 Z M20.543,11.457 C20.243,11.157 19.757,11.157 19.457,11.457 L13,17.914 C12.942,17.972 12.913,18.001 12.893,18.023 L12.891,18.024 L12.891,18.026 C12.882,18.055 12.87,18.094 12.848,18.173 L12.456,19.544 L13.827,19.152 C13.906,19.13 13.945,19.118 13.974,19.109 L13.976,19.109 L13.977,19.107 C13.999,19.087 14.027,19.058 14.086,19 L20.543,12.543 C20.843,12.243 20.843,11.757 20.543,11.457 Z"/>
</svg>
