<svg xmlns="http://www.w3.org/2000/svg" width="24" height="24" viewBox="0 0 24 24">
  <defs/>
  <path d="M4,7.5 C4,4.462 6.462,2 9.5,2 C12.538,2 15,4.462 15,7.5 C15,10.538 12.538,13 9.5,13 C6.462,13 4,10.538 4,7.5 Z M9.5,4 C7.567,4 6,5.567 6,7.5 C6,9.433 7.567,11 9.5,11 C11.433,11 13,9.433 13,7.5 C13,5.567 11.433,4 9.5,4 Z M9.5,17 C6.961,17 4.588,18.325 2.786,20.618 C2.445,21.052 1.817,21.128 1.382,20.786 C0.948,20.445 0.873,19.816 1.214,19.382 C3.306,16.72 6.217,15 9.5,15 C12.783,15 15.695,16.72 17.786,19.382 C18.128,19.816 18.052,20.445 17.618,20.786 C17.184,21.128 16.555,21.052 16.214,20.618 C14.413,18.325 12.039,17 9.5,17 Z M15.104,3.023 C15.35,2.528 15.95,2.326 16.445,2.572 C18.254,3.471 19.5,5.339 19.5,7.5 C19.5,9.661 18.254,11.529 16.445,12.428 C15.95,12.674 15.35,12.472 15.104,11.977 C14.859,11.483 15.06,10.882 15.555,10.637 C16.71,10.063 17.5,8.873 17.5,7.5 C17.5,6.127 16.71,4.937 15.555,4.363 C15.06,4.117 14.859,3.517 15.104,3.023 Z M17.089,16.354 C17.317,15.851 17.909,15.628 18.412,15.855 C20.09,16.615 21.574,17.839 22.786,19.382 C23.128,19.816 23.052,20.445 22.618,20.786 C22.184,21.128 21.555,21.052 21.214,20.618 C20.171,19.291 18.933,18.286 17.588,17.677 C17.085,17.45 16.861,16.857 17.089,16.354 Z"/>
</svg>
