<svg xmlns="http://www.w3.org/2000/svg" width="24" height="24" viewBox="0 0 24 24">
  <defs/>
  <path d="M1.727,18.384 C3.477,15.756 6.285,14 9.5,14 C12.715,14 15.523,15.756 17.273,18.384 C17.281,18.396 17.289,18.408 17.297,18.42 C17.451,18.651 17.615,18.896 17.729,19.13 C17.867,19.411 17.966,19.734 17.943,20.12 C17.924,20.427 17.822,20.713 17.701,20.94 C17.58,21.166 17.399,21.409 17.153,21.595 C16.823,21.844 16.469,21.931 16.155,21.968 C15.879,22 15.551,22 15.222,22 L3.778,22 C3.448,22 3.121,22 2.845,21.968 C2.531,21.931 2.177,21.844 1.847,21.595 C1.601,21.409 1.42,21.166 1.299,20.94 C1.178,20.713 1.076,20.427 1.057,20.12 C1.034,19.734 1.133,19.411 1.271,19.13 C1.385,18.896 1.549,18.651 1.703,18.42 L1.271,19.13 L1.057,20.12 L1.299,20.94 L1.847,21.595 L2.45,20.798 Z M4,7.5 C4,4.462 6.462,2 9.5,2 C12.538,2 15,4.462 15,7.5 C15,10.538 12.538,13 9.5,13 C6.462,13 4,10.538 4,7.5 Z M9.5,4 C7.567,4 6,5.567 6,7.5 C6,9.433 7.567,11 9.5,11 C11.433,11 13,9.433 13,7.5 C13,5.567 11.433,4 9.5,4 Z M9.5,16 C7.053,16 4.83,17.333 3.391,19.493 C3.302,19.627 3.234,19.73 3.177,19.82 C3.132,19.892 3.102,19.943 3.081,19.982 C3.227,19.999 3.435,20 3.822,20 L15.178,20 C15.565,20 15.773,19.999 15.919,19.982 C15.898,19.943 15.868,19.892 15.823,19.82 C15.766,19.73 15.698,19.627 15.608,19.493 C14.17,17.333 11.947,16 9.5,16 Z M15.104,3.023 C15.35,2.528 15.95,2.326 16.445,2.572 C18.254,3.471 19.5,5.339 19.5,7.5 C19.5,9.661 18.254,11.529 16.445,12.428 C15.95,12.674 15.35,12.472 15.104,11.977 C14.859,11.483 15.06,10.882 15.555,10.637 C16.71,10.063 17.5,8.873 17.5,7.5 C17.5,6.127 16.71,4.937 15.555,4.363 C15.06,4.117 14.859,3.517 15.104,3.023 Z M17.106,15.388 C17.354,14.894 17.955,14.695 18.449,14.943 C20.083,15.764 21.465,17.072 22.465,18.682 C22.476,18.7 22.487,18.719 22.499,18.737 C22.648,18.975 22.842,19.285 22.905,19.694 C22.979,20.167 22.85,20.619 22.659,20.962 C22.468,21.306 22.151,21.654 21.711,21.841 C21.328,22.003 20.914,22.002 20.588,22 L20.588,22 C20.558,22 20.528,22 20.5,22 C19.948,22 19.5,21.552 19.5,21 C19.5,20.448 19.948,20 20.5,20 C20.715,20 20.828,19.999 20.909,19.994 C20.91,19.993 20.91,19.991 20.911,19.99 C20.912,19.988 20.913,19.986 20.914,19.984 C20.905,19.967 20.892,19.945 20.875,19.915 C20.846,19.867 20.812,19.812 20.766,19.737 C19.943,18.412 18.828,17.372 17.551,16.73 C17.058,16.483 16.858,15.882 17.106,15.388 Z"/>
</svg>
