<svg xmlns="http://www.w3.org/2000/svg" width="24" height="24" viewBox="0 0 24 24">
  <defs/>
  <path d="M7.715,8.625 C7.715,8.073 8.163,7.625 8.715,7.625 L10.109,7.625 C11.059,7.625 11.888,8.258 12.147,9.168 L12.523,10.492 L13.999,8.762 C14.613,8.041 15.512,7.625 16.459,7.625 L16.549,7.625 C17.101,7.625 17.549,8.073 17.549,8.625 C17.549,9.178 17.101,9.625 16.549,9.625 L16.459,9.625 C16.099,9.625 15.756,9.783 15.521,10.06 L13.18,12.804 L13.921,15.411 C13.937,15.467 13.986,15.5 14.035,15.5 L15.43,15.5 C15.982,15.5 16.43,15.948 16.43,16.5 C16.43,17.052 15.982,17.5 15.43,17.5 L14.035,17.5 C13.086,17.5 12.256,16.868 11.998,15.958 L11.621,14.633 L10.146,16.363 C9.531,17.084 8.633,17.5 7.685,17.5 L7.596,17.5 C7.043,17.5 6.596,17.052 6.596,16.5 C6.596,15.948 7.043,15.5 7.596,15.5 L7.685,15.5 C8.045,15.5 8.388,15.342 8.624,15.066 L10.964,12.321 L10.223,9.715 C10.207,9.659 10.158,9.625 10.109,9.625 L8.715,9.625 C8.163,9.625 7.715,9.178 7.715,8.625 Z M19.463,2.104 C19.958,1.859 20.558,2.062 20.802,2.557 C22.209,5.403 23,8.61 23,12 C23,15.39 22.209,18.597 20.802,21.443 C20.558,21.938 19.958,22.141 19.463,21.897 C18.968,21.652 18.765,21.052 19.01,20.557 C20.283,17.981 21,15.076 21,12 C21,8.924 20.283,6.02 19.01,3.443 C18.765,2.948 18.968,2.349 19.463,2.104 Z M4.537,2.104 C5.032,2.349 5.235,2.948 4.99,3.443 C3.717,6.02 3,8.924 3,12 C3,15.076 3.717,17.981 4.99,20.557 C5.235,21.052 5.032,21.652 4.537,21.897 C4.042,22.141 3.442,21.938 3.197,21.443 C1.791,18.597 1,15.39 1,12 C1,8.61 1.791,5.403 3.197,2.557 C3.442,2.062 4.042,1.859 4.537,2.104 Z"/>
</svg>
