<svg xmlns="http://www.w3.org/2000/svg" width="24" height="24" viewBox="0 0 24 24">
  <defs/>
  <path d="M1.293,1.293 C1.683,0.902 2.317,0.902 2.707,1.293 L22.707,21.293 C23.098,21.683 23.098,22.317 22.707,22.707 C22.317,23.098 21.683,23.098 21.293,22.707 L17.106,18.52 C16.373,19.423 15.255,20 14,20 L5,20 C2.791,20 1,18.209 1,16 L1,8 C1,6.488 1.839,5.171 3.077,4.492 L1.293,2.707 C0.902,2.317 0.902,1.683 1.293,1.293 Z M4.622,6.036 C3.698,6.213 3,7.025 3,8 L3,16 C3,17.105 3.895,18 5,18 L14,18 C14.701,18 15.32,17.639 15.677,17.091 Z M14.089,6.038 C13.639,6.001 13.057,6 12.2,6 L9.5,6 C8.948,6 8.5,5.552 8.5,5 C8.5,4.448 8.948,4 9.5,4 L12.241,4 C13.046,4 13.711,4 14.252,4.044 C14.814,4.09 15.331,4.189 15.816,4.436 C16.569,4.819 17.181,5.431 17.564,6.184 C17.811,6.669 17.91,7.186 17.956,7.748 C17.997,8.25 18,8.858 18,9.586 L19.954,7.632 C20.145,7.441 20.333,7.253 20.497,7.115 C20.644,6.992 20.954,6.745 21.382,6.712 C21.861,6.674 22.329,6.868 22.641,7.233 C22.92,7.56 22.964,7.953 22.981,8.144 C23,8.357 23,8.621 23,8.89 L23,15.11 C23,15.379 23,15.643 22.981,15.856 C22.964,16.047 22.92,16.44 22.641,16.767 C22.329,17.132 21.861,17.326 21.382,17.288 C20.954,17.254 20.644,17.008 20.497,16.885 C20.333,16.747 20.145,16.559 19.954,16.368 L16.293,12.707 C16.105,12.52 16,12.265 16,12 L16,9.8 C16,8.943 15.999,8.361 15.962,7.911 C15.927,7.473 15.862,7.248 15.782,7.092 C15.59,6.716 15.284,6.41 14.908,6.218 C14.752,6.138 14.527,6.073 14.089,6.038 Z M18.414,12 L21,14.586 L21,9.414 Z"/>
</svg>
