<svg xmlns="http://www.w3.org/2000/svg" width="24" height="24" viewBox="0 0 24 24">
  <defs/>
  <path d="M12.241,4 L12.241,4 C13.046,4 13.711,4 14.252,4.044 C14.814,4.09 15.331,4.189 15.816,4.436 C16.569,4.819 17.181,5.431 17.564,6.184 C17.811,6.669 17.91,7.186 17.956,7.748 C17.997,8.25 18,8.858 18,9.586 L19.954,7.632 C20.145,7.441 20.333,7.253 20.497,7.115 C20.644,6.992 20.954,6.745 21.382,6.712 C21.861,6.674 22.329,6.868 22.641,7.233 C22.92,7.56 22.964,7.953 22.981,8.144 C23,8.357 23,8.621 23,8.89 L23,15.11 C23,15.379 23,15.643 22.981,15.856 C22.964,16.047 22.92,16.44 22.641,16.767 C22.329,17.132 21.861,17.326 21.382,17.288 C20.954,17.254 20.644,17.008 20.497,16.885 C20.333,16.747 20.145,16.559 19.954,16.368 L18,14.414 C18,15.142 17.997,15.75 17.956,16.252 C17.91,16.814 17.811,17.331 17.564,17.816 C17.181,18.569 16.569,19.181 15.816,19.564 C15.331,19.811 14.814,19.91 14.252,19.956 C13.711,20 13.046,20 12.241,20 L6.759,20 C5.954,20 5.289,20 4.748,19.956 C4.186,19.91 3.669,19.811 3.184,19.564 C2.431,19.181 1.819,18.569 1.436,17.816 C1.189,17.331 1.09,16.814 1.044,16.252 C1,15.711 1,15.046 1,14.241 L1,9.759 C1,8.954 1,8.289 1.044,7.748 C1.09,7.186 1.189,6.669 1.436,6.184 C1.819,5.431 2.431,4.819 3.184,4.436 C3.669,4.189 4.186,4.09 4.748,4.044 C5.289,4 5.954,4 6.759,4 L12.241,4 Z M16,9.8 C16,8.943 15.999,8.361 15.962,7.911 C15.927,7.473 15.862,7.248 15.782,7.092 C15.59,6.716 15.284,6.41 14.908,6.218 C14.752,6.138 14.527,6.073 14.089,6.038 C13.639,6.001 13.057,6 12.2,6 L6.8,6 C5.943,6 5.361,6.001 4.911,6.038 C4.473,6.073 4.248,6.138 4.092,6.218 C3.716,6.41 3.41,6.716 3.218,7.092 C3.138,7.248 3.073,7.473 3.038,7.911 C3.001,8.361 3,8.943 3,9.8 L3,14.2 C3,15.057 3.001,15.639 3.038,16.089 C3.073,16.527 3.138,16.752 3.218,16.908 C3.41,17.284 3.716,17.59 4.092,17.782 C4.248,17.862 4.473,17.927 4.911,17.962 C5.361,17.999 5.943,18 6.8,18 L12.2,18 C13.057,18 13.639,17.999 14.089,17.962 C14.527,17.927 14.752,17.862 14.908,17.782 C15.284,17.59 15.59,17.284 15.782,16.908 C15.862,16.752 15.927,16.527 15.962,16.089 C15.999,15.639 16,15.057 16,14.2 Z M18.414,12 L21,14.586 L21,9.414 Z"/>
</svg>
