<svg xmlns="http://www.w3.org/2000/svg" width="24" height="24" viewBox="0 0 24 24">
  <defs/>
  <path d="M11,3.055 L11,6.083 C10.499,6.167 10.018,6.313 9.567,6.514 L6.4,14.16 C6.582,14.63 6.821,15.072 7.109,15.476 L4.968,17.618 L8.007,17.408 L8.523,16.891 C8.748,17.05 8.983,17.195 9.229,17.323 L15.476,16.891 C14.754,17.406 13.912,17.764 13,17.917 L13,20.945 C13.295,20.913 13.585,20.866 13.87,20.806 C14.411,20.691 14.941,21.037 15.055,21.577 C15.17,22.118 14.824,22.648 14.284,22.762 C13.546,22.918 12.782,23 12,23 C11.215,23 10.448,22.918 9.708,22.761 C9.168,22.646 8.823,22.115 8.937,21.575 C9.052,21.035 9.583,20.69 10.123,20.804 C10.41,20.865 10.703,20.912 11,20.945 L11,17.917 C10.371,17.811 9.775,17.608 9.229,17.323 L8.007,17.408 L6.382,19.032 C6.612,19.216 6.851,19.389 7.099,19.55 C7.562,19.851 7.693,20.471 7.392,20.934 C7.091,21.396 6.471,21.528 6.008,21.226 C5.363,20.806 4.765,20.321 4.222,19.779 L4.222,19.778 C3.831,19.388 3.831,18.754 4.222,18.364 L4.968,17.618 L6.4,14.16 C6.258,13.789 6.15,13.401 6.083,13 L3.055,13 C3.087,13.296 3.134,13.587 3.195,13.873 C3.309,14.413 2.964,14.944 2.424,15.059 C1.883,15.173 1.353,14.828 1.238,14.287 C1.082,13.549 1,12.783 1,12 C1,11.216 1.082,10.449 1.239,9.71 C1.353,9.169 1.884,8.824 2.425,8.939 C2.965,9.053 3.31,9.584 3.196,10.124 C3.135,10.411 3.088,10.703 3.055,11 L6.083,11 C6.236,10.088 6.594,9.246 7.109,8.523 L4.968,6.382 C4.784,6.612 4.611,6.852 4.45,7.099 C4.149,7.562 3.529,7.693 3.066,7.392 C2.603,7.091 2.472,6.471 2.773,6.009 C3.613,4.718 4.717,3.614 6.007,2.774 C6.47,2.473 7.09,2.604 7.391,3.067 C7.692,3.53 7.561,4.149 7.098,4.451 C6.851,4.612 6.612,4.784 6.382,4.968 L8.523,7.109 C8.849,6.878 9.198,6.678 9.567,6.514 L11,3.055 C10.704,3.088 10.413,3.134 10.127,3.195 C9.587,3.309 9.056,2.964 8.942,2.424 C8.827,1.883 9.173,1.353 9.713,1.238 C10.452,1.082 11.217,1 12,1 C12.783,1 13.548,1.082 14.287,1.238 C14.827,1.353 15.173,1.883 15.058,2.424 C14.944,2.964 14.413,3.309 13.873,3.195 C13.587,3.134 13.296,3.088 13,3.055 L13,6.083 C13.912,6.236 14.754,6.594 15.476,7.109 L17.618,4.968 C17.388,4.784 17.149,4.611 16.901,4.45 C16.438,4.149 16.307,3.53 16.608,3.067 C16.91,2.604 17.529,2.473 17.992,2.774 C18.637,3.194 19.235,3.679 19.777,4.221 L19.778,4.222 C19.779,4.223 19.78,4.224 19.781,4.224 C20.322,4.766 20.808,5.364 21.227,6.009 C21.528,6.472 21.397,7.092 20.934,7.393 C20.471,7.694 19.852,7.563 19.551,7.1 C19.389,6.852 19.216,6.613 19.032,6.382 L16.891,8.523 C17.406,9.246 17.764,10.088 17.917,11 L20.945,11 C20.913,10.704 20.865,10.413 20.805,10.127 C20.691,9.586 21.036,9.056 21.576,8.941 C22.117,8.827 22.647,9.172 22.762,9.713 C22.918,10.451 23,11.217 23,12 C23,12.783 22.918,13.548 22.762,14.286 C22.648,14.827 22.117,15.172 21.577,15.058 C21.036,14.943 20.691,14.413 20.805,13.873 C20.866,13.587 20.913,13.296 20.945,13 L17.917,13 C17.764,13.912 17.406,14.754 16.891,15.476 L19.032,17.618 C19.215,17.389 19.388,17.15 19.548,16.904 C19.849,16.441 20.469,16.31 20.932,16.612 C21.395,16.913 21.525,17.532 21.224,17.995 C20.805,18.639 20.32,19.236 19.779,19.778 L19.778,19.778 C19.388,20.169 18.754,20.169 18.364,19.778 L17.618,19.032 L15.504,13.93 C15.323,14.259 15.096,14.56 14.832,14.825 L14.825,14.832 C14.101,15.554 13.103,16 12,16 C9.791,16 8,14.209 8,12 C8,9.791 9.791,8 12,8 C12.386,8 12.76,8.055 13.113,8.157 Z M13.113,8.157 L15.504,13.93 C15.82,13.358 16,12.7 16,12 C16,10.895 15.552,9.894 14.827,9.171 C14.357,8.7 13.77,8.347 13.113,8.157 Z"/>
</svg>
