<svg xmlns="http://www.w3.org/2000/svg" width="24" height="24" viewBox="0 0 24 24">
  <defs/>
  <path d="M10,15 L14,15 C13.372,14.164 13,13.126 13,12 C13,9.239 15.239,7 18,7 C20.761,7 23,9.239 23,12 C23,14.761 20.761,17 18,17 L6,17 C3.239,17 1,14.761 1,12 C1,9.239 3.239,7 6,7 C8.761,7 11,9.239 11,12 C11,13.126 10.628,14.164 10,15 Z M18,15 C19.657,15 21,13.657 21,12 C21,10.343 19.657,9 18,9 C16.343,9 15,10.343 15,12 C15,13.657 16.343,15 18,15 Z M6,9 C4.343,9 3,10.343 3,12 C3,13.657 4.343,15 6,15 C7.657,15 9,13.657 9,12 C9,10.343 7.657,9 6,9 Z"/>
</svg>
