<svg xmlns="http://www.w3.org/2000/svg" width="24" height="24" viewBox="0 0 24 24">
  <defs/>
  <path d="M12.882,2.712 C13.361,2.674 13.829,2.868 14.141,3.233 C14.42,3.56 14.464,3.953 14.481,4.144 C14.5,4.357 14.5,4.621 14.5,4.89 L14.5,19.11 C14.5,19.379 14.5,19.643 14.481,19.856 C14.464,20.047 14.42,20.44 14.141,20.767 C13.829,21.132 13.361,21.326 12.882,21.288 C12.454,21.254 12.144,21.008 11.997,20.885 C11.833,20.747 11.645,20.559 11.453,20.368 L8.262,17.176 C8.169,17.083 8.123,17.037 8.087,17.005 C8.086,17.004 8.086,17.003 8.085,17.003 L8.081,17.002 C8.034,17 7.968,17 7.837,17 L6.068,17 C5.816,17 5.57,17 5.362,16.983 C5.133,16.964 4.863,16.92 4.592,16.782 C4.216,16.59 3.91,16.284 3.718,15.908 C3.58,15.637 3.536,15.367 3.517,15.138 C3.5,14.93 3.5,14.684 3.5,14.432 L3.5,14.432 L3.5,9.6 L3.5,9.568 L3.5,9.568 C3.5,9.316 3.5,9.07 3.517,8.862 C3.536,8.633 3.58,8.363 3.718,8.092 C3.91,7.716 4.216,7.41 4.592,7.218 C4.863,7.08 5.133,7.036 5.362,7.017 C5.57,7 5.816,7 6.068,7 L7.837,7 C7.968,7 8.034,7 8.081,6.998 L8.085,6.997 C8.086,6.997 8.086,6.996 8.087,6.995 C8.123,6.963 8.169,6.917 8.262,6.824 L11.427,3.659 C11.436,3.65 11.445,3.641 11.453,3.632 C11.645,3.441 11.833,3.253 11.997,3.115 C12.144,2.992 12.454,2.745 12.882,2.712 Z M12.5,5.414 L9.676,8.238 C9.664,8.25 9.652,8.262 9.64,8.275 C9.506,8.409 9.337,8.579 9.131,8.705 C8.952,8.815 8.757,8.896 8.553,8.945 C8.317,9.001 8.078,9.001 7.888,9 C7.871,9 7.854,9 7.837,9 L6.1,9 C5.803,9 5.641,9.001 5.525,9.01 C5.52,9.011 5.516,9.011 5.511,9.011 C5.511,9.016 5.511,9.02 5.51,9.025 C5.501,9.141 5.5,9.303 5.5,9.6 L5.5,14.4 C5.5,14.696 5.501,14.859 5.51,14.975 C5.511,14.98 5.511,14.984 5.511,14.988 C5.516,14.989 5.52,14.989 5.525,14.99 C5.641,14.999 5.803,15 6.1,15 L7.837,15 C7.854,15 7.871,15 7.888,15 C8.078,14.999 8.317,14.999 8.553,15.055 C8.757,15.104 8.952,15.185 9.131,15.295 C9.337,15.421 9.506,15.591 9.64,15.725 C9.652,15.738 9.664,15.75 9.676,15.762 L12.5,18.586 Z M17.673,7.18 C18.126,6.864 18.749,6.975 19.065,7.428 C19.969,8.724 20.5,10.302 20.5,12 C20.5,13.698 19.969,15.276 19.065,16.572 C18.749,17.025 18.126,17.136 17.673,16.82 C17.22,16.504 17.109,15.881 17.425,15.428 C18.103,14.456 18.5,13.276 18.5,12 C18.5,10.724 18.103,9.543 17.425,8.572 C17.109,8.119 17.22,7.496 17.673,7.18 Z"/>
</svg>
