<svg xmlns="http://www.w3.org/2000/svg" width="24" height="24" viewBox="0 0 24 24">
  <defs/>
  <path d="M10.382,2.712 C10.861,2.674 11.329,2.868 11.641,3.233 C11.92,3.56 11.964,3.953 11.981,4.144 C12,4.357 12,4.621 12,4.89 L12,19.11 C12,19.379 12,19.643 11.981,19.856 C11.964,20.047 11.92,20.44 11.641,20.767 C11.329,21.132 10.861,21.326 10.382,21.288 C9.954,21.254 9.644,21.008 9.497,20.885 C9.333,20.747 9.145,20.559 8.954,20.368 L5.762,17.176 C5.669,17.083 5.622,17.037 5.587,17.005 C5.586,17.004 5.586,17.003 5.585,17.003 L5.581,17.002 C5.534,17 5.468,17 5.337,17 L3.568,17 C3.316,17 3.07,17 2.862,16.983 C2.633,16.964 2.363,16.92 2.092,16.782 C1.716,16.59 1.41,16.284 1.218,15.908 C1.08,15.637 1.036,15.367 1.017,15.138 C1,14.93 1,14.684 1,14.432 L1,14.432 L1,9.6 L1,9.568 L1,9.568 C1,9.316 1,9.07 1.017,8.862 C1.036,8.633 1.08,8.363 1.218,8.092 C1.41,7.716 1.716,7.41 2.092,7.218 C2.363,7.08 2.633,7.036 2.862,7.017 C3.07,7 3.316,7 3.568,7 L5.337,7 C5.468,7 5.534,7 5.581,6.998 L5.585,6.997 C5.586,6.997 5.586,6.996 5.587,6.995 C5.622,6.963 5.669,6.917 5.762,6.824 L8.927,3.659 L8.954,3.632 C9.145,3.441 9.333,3.253 9.497,3.115 C9.644,2.992 9.954,2.745 10.382,2.712 Z M10,5.414 L7.176,8.238 C7.164,8.25 7.152,8.262 7.14,8.275 C7.006,8.409 6.837,8.579 6.631,8.705 C6.452,8.815 6.257,8.896 6.053,8.945 C5.817,9.001 5.578,9.001 5.388,9 C5.371,9 5.354,9 5.337,9 L3.6,9 C3.303,9 3.141,9.001 3.025,9.01 C3.02,9.011 3.016,9.011 3.011,9.011 C3.011,9.016 3.011,9.02 3.01,9.025 C3.001,9.141 3,9.303 3,9.6 L3,14.4 C3,14.696 3.001,14.859 3.01,14.975 C3.011,14.98 3.011,14.984 3.011,14.988 C3.016,14.989 3.02,14.989 3.025,14.99 C3.141,14.999 3.303,15 3.6,15 L5.337,15 C5.354,15 5.371,15 5.388,15 C5.578,14.999 5.817,14.999 6.053,15.055 C6.257,15.104 6.452,15.185 6.631,15.295 C6.837,15.421 7.006,15.591 7.14,15.725 C7.152,15.738 7.164,15.75 7.176,15.762 L10,18.586 Z M14,12 C14,11.448 14.448,11 15,11 L22,11 C22.552,11 23,11.448 23,12 C23,12.552 22.552,13 22,13 L15,13 C14.448,13 14,12.552 14,12 Z"/>
</svg>
