<svg xmlns="http://www.w3.org/2000/svg" width="24" height="24" viewBox="0 0 24 24">
  <defs/>
  <path d="M10.382,3.712 C10.861,3.674 11.329,3.868 11.641,4.233 C11.92,4.56 11.964,4.953 11.981,5.144 C12,5.357 12,5.621 12,5.89 L12,18.11 C12,18.379 12,18.643 11.981,18.856 C11.964,19.047 11.92,19.44 11.641,19.767 C11.329,20.132 10.861,20.326 10.382,20.288 C9.954,20.254 9.644,20.008 9.497,19.885 C9.333,19.747 9.145,19.559 8.954,19.368 L5.762,16.176 C5.669,16.083 5.622,16.037 5.587,16.005 C5.586,16.004 5.586,16.003 5.585,16.003 L5.581,16.002 C5.534,16 5.468,16 5.337,16 L3.568,16 C3.316,16 3.07,16 2.862,15.983 C2.633,15.964 2.363,15.92 2.092,15.782 C1.716,15.59 1.41,15.284 1.218,14.908 C1.08,14.637 1.036,14.367 1.017,14.138 C1,13.93 1,13.684 1,13.432 L1,13.432 L1,10.6 L1,10.568 L1,10.568 C1,10.316 1,10.07 1.017,9.862 C1.036,9.633 1.08,9.363 1.218,9.092 C1.41,8.716 1.716,8.41 2.092,8.218 C2.363,8.08 2.633,8.036 2.862,8.017 C3.07,8 3.316,8 3.568,8 L5.337,8 C5.468,8 5.534,8 5.581,7.998 L5.585,7.997 C5.586,7.997 5.586,7.996 5.587,7.995 C5.622,7.963 5.669,7.917 5.762,7.824 L8.927,4.659 L8.954,4.632 C9.145,4.441 9.333,4.253 9.497,4.115 C9.644,3.992 9.954,3.745 10.382,3.712 Z M10,6.414 L7.176,9.238 C7.164,9.25 7.152,9.262 7.14,9.275 C7.006,9.409 6.837,9.579 6.631,9.705 C6.452,9.815 6.257,9.896 6.053,9.945 C5.818,10.001 5.579,10.001 5.389,10 L5.388,10 L5.337,10 L3.6,10 C3.303,10 3.141,10.001 3.025,10.01 C3.02,10.011 3.016,10.011 3.011,10.011 C3.011,10.016 3.011,10.02 3.01,10.025 C3.001,10.141 3,10.303 3,10.6 L3,13.4 C3,13.696 3.001,13.859 3.01,13.975 C3.011,13.98 3.011,13.984 3.011,13.988 C3.016,13.989 3.02,13.989 3.025,13.99 C3.141,13.999 3.303,14 3.6,14 L5.337,14 C5.354,14 5.371,14 5.388,14 C5.578,13.999 5.817,13.999 6.053,14.055 C6.257,14.104 6.452,14.185 6.631,14.295 C6.837,14.421 7.006,14.591 7.14,14.725 C7.152,14.738 7.164,14.75 7.176,14.762 L10,17.586 Z M19.164,4.188 C19.612,3.866 20.237,3.968 20.56,4.416 C22.095,6.551 23,9.171 23,12 C23,14.829 22.095,17.449 20.56,19.584 C20.237,20.032 19.612,20.134 19.164,19.812 C18.716,19.489 18.614,18.864 18.936,18.416 C20.235,16.61 21,14.396 21,12 C21,9.604 20.235,7.39 18.936,5.584 C18.614,5.136 18.716,4.511 19.164,4.188 Z M15.173,7.18 C15.626,6.864 16.25,6.975 16.566,7.428 C17.47,8.724 18,10.302 18,12 C18,13.698 17.47,15.276 16.566,16.572 C16.25,17.025 15.626,17.136 15.173,16.82 C14.72,16.504 14.609,15.881 14.925,15.428 C15.603,14.456 16,13.276 16,12 C16,10.724 15.603,9.543 14.925,8.572 C14.609,8.119 14.72,7.496 15.173,7.18 Z"/>
</svg>
