<svg xmlns="http://www.w3.org/2000/svg" width="24" height="24" viewBox="0 0 24 24">
  <defs/>
  <path d="M3.919,9.858 L3.621,8.814 C3.618,8.802 3.614,8.79 3.611,8.778 C3.521,8.463 3.436,8.166 3.388,7.915 C3.336,7.647 3.3,7.311 3.402,6.954 C3.538,6.474 3.848,6.063 4.272,5.8 C4.588,5.604 4.92,5.547 5.192,5.523 C5.336,5.51 5.498,5.504 5.67,5.502 C5.558,5.183 5.5,4.844 5.5,4.5 C5.5,3.71 5.808,2.949 6.362,2.385 C6.916,1.821 7.672,1.5 8.464,1.5 C10.259,1.5 11.373,2.718 12,3.772 C12.627,2.718 13.741,1.5 15.536,1.5 C16.328,1.5 17.084,1.821 17.638,2.385 C18.192,2.949 18.5,3.71 18.5,4.5 C18.5,4.844 18.442,5.183 18.33,5.502 C18.502,5.504 18.664,5.51 18.808,5.523 C19.08,5.547 19.412,5.604 19.728,5.8 C20.152,6.063 20.462,6.474 20.598,6.954 C20.7,7.311 20.664,7.647 20.612,7.915 C20.564,8.166 20.479,8.463 20.389,8.778 L20.081,9.858 L21.722,12.592 C21.741,12.625 21.761,12.658 21.78,12.689 C22.142,13.291 22.414,13.746 22.56,14.248 C22.688,14.691 22.739,15.153 22.71,15.613 C22.677,16.134 22.509,16.637 22.286,17.303 C22.275,17.339 22.263,17.374 22.251,17.411 L22.043,18.034 C22.024,18.091 22.005,18.147 21.986,18.203 C21.649,19.218 21.395,19.981 20.906,20.566 C20.477,21.08 19.925,21.477 19.302,21.722 C18.592,22.001 17.788,22.001 16.719,22 C16.66,22 16.601,22 16.54,22 L7.46,22 C7.399,22 7.34,22 7.282,22 C6.212,22.001 5.408,22.001 4.698,21.722 C4.075,21.477 3.523,21.08 3.094,20.566 C2.605,19.981 2.351,19.218 2.014,18.203 C1.995,18.147 1.976,18.091 1.957,18.034 L1.749,17.411 C1.737,17.374 1.725,17.339 1.714,17.303 C1.491,16.637 1.323,16.134 1.29,15.613 C1.261,15.153 1.312,14.691 1.44,14.248 C1.586,13.746 1.859,13.291 2.22,12.689 C2.239,12.658 2.259,12.625 2.278,12.592 Z M18.434,11 L5.566,11 L3.993,13.621 C3.548,14.363 3.425,14.584 3.361,14.804 C3.297,15.026 3.272,15.256 3.286,15.486 C3.301,15.716 3.373,15.957 3.647,16.778 L3.855,17.402 C4.275,18.663 4.414,19.027 4.628,19.283 C4.843,19.54 5.119,19.739 5.43,19.861 C5.74,19.983 6.13,20 7.46,20 L16.54,20 C17.87,20 18.26,19.983 18.57,19.861 C18.881,19.739 19.157,19.54 19.372,19.283 C19.586,19.027 19.725,18.663 20.145,17.402 L20.353,16.778 C20.627,15.957 20.699,15.716 20.714,15.486 C20.728,15.256 20.703,15.026 20.639,14.804 C20.575,14.584 20.452,14.363 20.007,13.621 Z M8.464,7.5 L6.121,7.5 C5.743,7.5 5.525,7.501 5.37,7.515 C5.362,7.515 5.355,7.516 5.348,7.517 C5.349,7.523 5.351,7.531 5.352,7.538 C5.381,7.691 5.44,7.901 5.544,8.265 L5.754,9 L18.246,9 L18.456,8.265 C18.56,7.901 18.619,7.691 18.648,7.538 C18.649,7.531 18.651,7.523 18.652,7.517 C18.645,7.516 18.638,7.515 18.63,7.515 C18.475,7.501 18.257,7.5 17.879,7.5 L8.464,7.5 Z M8.464,3.5 C8.214,3.5 7.971,3.601 7.789,3.786 C7.606,3.973 7.5,4.229 7.5,4.5 C7.5,4.771 7.606,5.027 7.789,5.214 C7.971,5.399 8.214,5.5 8.463,5.5 L10.634,5.5 C10.562,5.329 10.479,5.151 10.384,4.975 C9.898,4.076 9.274,3.5 8.464,3.5 Z M13.366,5.5 L15.536,5.5 C15.785,5.5 16.029,5.399 16.211,5.214 C16.394,5.027 16.5,4.771 16.5,4.5 C16.5,4.229 16.394,3.973 16.211,3.786 C16.029,3.601 15.786,3.5 15.536,3.5 C14.726,3.5 14.102,4.076 13.616,4.975 C13.521,5.151 13.438,5.329 13.366,5.5 Z"/>
</svg>
