<svg xmlns="http://www.w3.org/2000/svg" width="24" height="24" viewBox="0 0 24 24">
  <defs/>
  <path d="M5,4 C4.448,4 4,4.448 4,5 C4,5.552 4.448,6 5,6 L19,6 C20.657,6 22,7.343 22,9 L22,19 C22,20.657 20.657,22 19,22 L5,22 C3.343,22 2,20.657 2,19 L2,5 C2,3.343 3.343,2 5,2 L17,2 C17.552,2 18,2.448 18,3 C18,3.552 17.552,4 17,4 Z M4,7.829 L4,19 C4,19.552 4.448,20 5,20 L19,20 C19.552,20 20,19.552 20,19 L20,9 C20,8.448 19.552,8 19,8 L5,8 C4.649,8 4.313,7.94 4,7.829 Z M15,14 C15,13.172 15.672,12.5 16.5,12.5 C17.328,12.5 18,13.172 18,14 C18,14.828 17.328,15.5 16.5,15.5 C15.672,15.5 15,14.828 15,14 Z"/>
</svg>
