<svg xmlns="http://www.w3.org/2000/svg" width="24" height="24" viewBox="0 0 24 24">
  <defs/>
  <path d="M17,7 L17.839,7 C18.366,7 18.82,7 19.195,7.03 C19.59,7.063 19.984,7.134 20.362,7.327 C20.926,7.614 21.385,8.073 21.673,8.638 C21.866,9.016 21.937,9.409 21.969,9.805 C22,10.179 22,10.634 22,11.161 L22,17.838 C22,18.365 22,18.82 21.969,19.195 C21.937,19.59 21.866,19.983 21.673,20.362 C21.385,20.926 20.926,21.385 20.362,21.673 C19.984,21.866 19.59,21.937 19.195,21.969 C18.82,22 18.366,22 17.839,22 L6.161,22 C5.634,22 5.18,22 4.805,21.969 C4.41,21.937 4.016,21.866 3.638,21.673 C3.074,21.385 2.615,20.926 2.327,20.362 C2.134,19.983 2.063,19.59 2.031,19.195 C2,18.82 2,18.366 2,17.839 L2,11.161 L2,11.084 L2,10.047 C2,10.004 2,9.961 2,9.918 L2,9.918 C1.999,9.306 1.998,8.767 2.173,8.275 C2.326,7.844 2.576,7.454 2.903,7.134 C3.277,6.769 3.766,6.544 4.323,6.288 C4.362,6.27 4.401,6.252 4.44,6.234 L13.347,2.123 C13.693,1.963 14.012,1.816 14.283,1.72 C14.563,1.62 14.929,1.522 15.335,1.591 C15.869,1.682 16.343,1.985 16.65,2.432 C16.882,2.772 16.947,3.146 16.974,3.442 C17,3.728 17,4.079 17,4.46 Z M6.2,9 C5.623,9 5.251,9.001 4.968,9.024 C4.696,9.046 4.595,9.084 4.546,9.109 C4.358,9.205 4.205,9.358 4.109,9.546 C4.084,9.595 4.046,9.696 4.024,9.968 C4.001,10.251 4,10.623 4,11.2 L4,15 L4,17.8 C4,18.376 4.001,18.749 4.024,19.032 C4.046,19.304 4.084,19.404 4.109,19.454 C4.205,19.642 4.358,19.795 4.546,19.891 C4.595,19.916 4.696,19.954 4.968,19.976 C5.251,19.999 5.623,20 6.2,20 L17.8,20 C18.376,20 18.749,19.999 19.032,19.976 C19.304,19.954 19.404,19.916 19.454,19.891 C19.642,19.795 19.795,19.642 19.891,19.454 C19.916,19.404 19.954,19.304 19.976,19.032 C19.999,18.749 20,18.376 20,17.8 L20,11.2 C20,10.623 19.999,10.251 19.976,9.968 C19.954,9.696 19.916,9.595 19.891,9.546 C19.795,9.358 19.642,9.205 19.454,9.109 C19.404,9.084 19.304,9.046 19.032,9.024 C18.749,9.001 18.376,9 17.8,9 Z M14.952,3.604 C14.778,3.666 14.544,3.773 14.149,3.956 L7.553,7 L15,7 L15,4.5 C15,4.065 14.999,3.807 14.982,3.624 C14.981,3.613 14.98,3.604 14.979,3.595 C14.971,3.598 14.962,3.601 14.952,3.604 Z M15,14.5 C15,13.671 15.672,13 16.5,13 C17.328,13 18,13.671 18,14.5 C18,15.328 17.328,16 16.5,16 C15.672,16 15,15.328 15,14.5 Z"/>
</svg>
