<svg xmlns="http://www.w3.org/2000/svg" width="24" height="24" viewBox="0 0 24 24">
  <defs/>
  <path d="M5.161,3 L16.838,3 C17.366,3 17.82,3 18.195,3.031 C18.59,3.063 18.984,3.134 19.362,3.327 C19.927,3.615 20.385,4.074 20.673,4.638 C20.866,5.016 20.937,5.41 20.969,5.805 C21,6.18 21,6.634 21,7.161 L21,8.671 C21.988,9.02 22.734,9.867 22.942,10.915 C23.001,11.207 23,11.535 23,11.915 L23,12.085 C23,12.465 23.001,12.793 22.942,13.085 C22.734,14.133 21.988,14.98 21,15.328 L21,16.839 C21,17.366 21,17.82 20.969,18.195 C20.937,18.59 20.866,18.984 20.673,19.362 C20.385,19.927 19.927,20.385 19.362,20.673 C18.984,20.866 18.59,20.937 18.195,20.969 C17.82,21 17.366,21 16.839,21 L5.161,21 C4.634,21 4.18,21 3.805,20.969 C3.41,20.937 3.016,20.866 2.638,20.673 C2.074,20.385 1.615,19.927 1.327,19.362 C1.134,18.984 1.063,18.59 1.031,18.195 C1,17.821 1,17.366 1,16.839 L1,7.161 C1,6.634 1,6.18 1.031,5.805 C1.063,5.41 1.134,5.016 1.327,4.638 C1.615,4.074 2.074,3.615 2.638,3.327 C3.016,3.134 3.41,3.063 3.805,3.031 C4.18,3 4.634,3 5.161,3 Z M19,15.5 L17.416,15.5 L17.415,15.5 C17.035,15.5 16.707,15.501 16.415,15.442 C15.225,15.206 14.294,14.275 14.058,13.085 C13.999,12.793 14,12.465 14,12.085 L14,12.084 L14,11.916 L14,11.915 C14,11.535 13.999,11.207 14.058,10.915 C14.294,9.725 15.225,8.794 16.415,8.558 C16.708,8.499 17.035,8.5 17.416,8.5 C17.444,8.5 17.472,8.5 17.5,8.5 L19,8.5 L19,7.2 C19,6.623 18.999,6.251 18.976,5.968 C18.954,5.696 18.916,5.595 18.891,5.546 C18.795,5.358 18.642,5.205 18.454,5.109 C18.405,5.084 18.304,5.046 18.032,5.024 C17.749,5.001 17.376,5 16.8,5 L5.2,5 C4.623,5 4.251,5.001 3.968,5.024 C3.696,5.046 3.595,5.084 3.546,5.109 C3.358,5.205 3.205,5.358 3.109,5.546 C3.084,5.595 3.046,5.696 3.024,5.968 C3.001,6.251 3,6.623 3,7.2 L3,16.8 C3,17.377 3.001,17.749 3.024,18.032 C3.046,18.304 3.084,18.404 3.109,18.454 C3.205,18.642 3.358,18.795 3.546,18.891 C3.595,18.916 3.696,18.954 3.968,18.976 C4.251,18.999 4.623,19 5.2,19 L16.8,19 C17.377,19 17.749,18.999 18.032,18.976 C18.304,18.954 18.404,18.916 18.454,18.891 C18.642,18.795 18.795,18.642 18.891,18.454 C18.916,18.404 18.954,18.304 18.976,18.032 C18.999,17.749 19,17.377 19,16.8 Z M17.5,10.5 C16.987,10.5 16.877,10.505 16.805,10.519 C16.408,10.598 16.098,10.908 16.019,11.305 C16.005,11.377 16,11.487 16,12 C16,12.513 16.005,12.623 16.019,12.695 C16.098,13.092 16.408,13.402 16.805,13.481 C16.877,13.495 16.987,13.5 17.5,13.5 L19.5,13.5 C20.013,13.5 20.123,13.495 20.195,13.481 C20.592,13.402 20.902,13.092 20.981,12.695 C20.995,12.623 21,12.513 21,12 C21,11.487 20.995,11.377 20.981,11.305 C20.902,10.908 20.592,10.598 20.195,10.519 C20.123,10.505 20.013,10.5 19.5,10.5 Z"/>
</svg>
