<svg xmlns="http://www.w3.org/2000/svg" width="24" height="24" viewBox="0 0 24 24">
  <defs/>
  <path d="M5.161,3 L18.838,3 C19.366,3 19.82,3 20.195,3.031 C20.59,3.063 20.984,3.134 21.362,3.327 C21.927,3.615 22.385,4.074 22.673,4.638 C22.866,5.016 22.937,5.41 22.969,5.805 C23,6.18 23,6.634 23,7.161 L23,16.839 C23,17.366 23,17.82 22.969,18.195 C22.937,18.59 22.866,18.984 22.673,19.362 C22.385,19.927 21.927,20.385 21.362,20.673 C20.984,20.866 20.59,20.937 20.195,20.969 C19.82,21 19.366,21 18.838,21 L5.161,21 C4.634,21 4.18,21 3.805,20.969 C3.41,20.937 3.016,20.866 2.638,20.673 C2.074,20.385 1.615,19.927 1.327,19.362 C1.134,18.984 1.063,18.59 1.031,18.195 C1,17.821 1,17.366 1,16.839 L1,7.161 C1,6.634 1,6.18 1.031,5.805 C1.063,5.41 1.134,5.016 1.327,4.638 C1.615,4.074 2.074,3.615 2.638,3.327 C3.016,3.134 3.41,3.063 3.805,3.031 C4.18,3 4.634,3 5.161,3 Z M21,13.5 L18.453,13.5 C17.879,13.5 17.711,13.504 17.557,13.531 C17.403,13.559 17.252,13.604 17.108,13.667 C16.965,13.73 16.824,13.819 16.346,14.138 L15.764,14.526 C15.743,14.54 15.722,14.554 15.702,14.567 C15.312,14.827 15.018,15.024 14.692,15.166 C14.404,15.292 14.103,15.383 13.794,15.438 C13.444,15.5 13.09,15.5 12.621,15.5 L11.379,15.5 C10.91,15.5 10.556,15.5 10.206,15.438 C9.897,15.383 9.596,15.292 9.308,15.166 C8.982,15.024 8.688,14.827 8.298,14.567 C8.278,14.554 8.257,14.54 8.236,14.526 L7.655,14.138 C7.176,13.819 7.035,13.73 6.892,13.667 C6.748,13.604 6.597,13.559 6.443,13.531 C6.289,13.504 6.121,13.5 5.547,13.5 L3,13.5 L3,16.8 C3,17.377 3.001,17.749 3.024,18.032 C3.046,18.304 3.084,18.404 3.109,18.454 C3.205,18.642 3.358,18.795 3.546,18.891 C3.595,18.916 3.696,18.954 3.968,18.976 C4.251,18.999 4.623,19 5.2,19 L18.8,19 C19.377,19 19.749,18.999 20.032,18.976 C20.304,18.954 20.405,18.916 20.454,18.891 C20.642,18.795 20.795,18.642 20.891,18.454 C20.916,18.404 20.954,18.304 20.976,18.032 C20.999,17.749 21,17.377 21,16.8 Z M3,9.5 L3,11.5 L5.621,11.5 C6.089,11.5 6.444,11.5 6.794,11.562 C7.103,11.617 7.404,11.708 7.692,11.834 C8.018,11.976 8.312,12.173 8.702,12.433 C8.722,12.446 8.743,12.46 8.764,12.474 L9.345,12.862 C9.824,13.181 9.965,13.27 10.108,13.333 C10.252,13.396 10.403,13.441 10.557,13.469 C10.712,13.496 10.879,13.5 11.453,13.5 L12.547,13.5 C13.121,13.5 13.289,13.496 13.443,13.469 C13.597,13.441 13.748,13.396 13.892,13.333 C14.035,13.27 14.176,13.181 14.655,12.862 L15.236,12.474 C15.257,12.46 15.278,12.446 15.298,12.433 C15.688,12.173 15.982,11.976 16.308,11.834 C16.596,11.708 16.897,11.617 17.206,11.562 C17.556,11.5 17.91,11.5 18.379,11.5 L21,11.5 L21,9.5 Z M21,7.5 L21,7.2 C21,6.623 20.999,6.251 20.976,5.968 C20.954,5.696 20.916,5.595 20.891,5.546 C20.795,5.358 20.642,5.205 20.454,5.109 C20.404,5.084 20.304,5.046 20.032,5.024 C19.749,5.001 19.377,5 18.8,5 L5.2,5 C4.623,5 4.251,5.001 3.968,5.024 C3.696,5.046 3.595,5.084 3.546,5.109 C3.358,5.205 3.205,5.358 3.109,5.546 C3.084,5.595 3.046,5.696 3.024,5.968 C3.001,6.251 3,6.623 3,7.2 L3,7.5 Z"/>
</svg>
