<svg xmlns="http://www.w3.org/2000/svg" width="24" height="24" viewBox="0 0 24 24">
  <defs/>
  <path d="M10.59,1 L13.41,1 C13.849,1 14.231,1 14.55,1.024 C14.89,1.049 15.226,1.105 15.562,1.251 C16.068,1.472 16.504,1.83 16.82,2.283 C17.03,2.583 17.15,2.902 17.242,3.23 C17.327,3.539 17.403,3.913 17.488,4.343 L17.95,6.653 C19.225,8.07 20,9.944 20,12 C20,14.056 19.225,15.93 17.95,17.347 L17.488,19.657 C17.403,20.087 17.327,20.462 17.242,20.77 C17.15,21.098 17.03,21.417 16.82,21.717 C16.504,22.17 16.068,22.528 15.562,22.749 C15.226,22.896 14.89,22.951 14.55,22.976 C14.231,23 13.849,23 13.41,23 L10.59,23 C10.151,23 9.769,23 9.45,22.976 C9.11,22.951 8.773,22.896 8.438,22.749 C7.932,22.528 7.496,22.17 7.18,21.717 C6.97,21.417 6.85,21.098 6.758,20.77 C6.672,20.462 6.598,20.087 6.512,19.657 L6.05,17.347 C4.775,15.93 4,14.056 4,12 C4,9.944 4.775,8.07 6.05,6.653 L6.512,4.343 C6.598,3.913 6.672,3.539 6.758,3.23 C6.85,2.902 6.97,2.583 7.18,2.283 C7.496,1.83 7.932,1.472 8.438,1.251 C8.773,1.105 9.11,1.049 9.45,1.024 C9.769,1 10.151,1 10.59,1 Z M12,6 C8.686,6 6,8.686 6,12 C6,15.314 8.686,18 12,18 C15.314,18 18,15.314 18,12 C18,8.686 15.314,6 12,6 Z M12,8 C12.552,8 13,8.448 13,9 L13,11.586 L14.207,12.793 C14.598,13.183 14.598,13.817 14.207,14.207 C13.817,14.598 13.183,14.598 12.793,14.207 L11.293,12.707 C11.105,12.52 11,12.265 11,12 L11,9 C11,8.448 11.448,8 12,8 Z M8.454,4.827 C9.523,4.297 10.727,4 12,4 C13.273,4 14.477,4.297 15.545,4.827 L15.534,4.769 C15.439,4.296 15.378,3.995 15.315,3.767 C15.255,3.551 15.21,3.47 15.18,3.428 C15.075,3.277 14.93,3.157 14.761,3.084 C14.713,3.063 14.625,3.035 14.402,3.018 C14.166,3.001 13.859,3 13.377,3 L10.623,3 C10.141,3 9.834,3.001 9.598,3.018 C9.375,3.035 9.287,3.063 9.239,3.084 C9.07,3.157 8.925,3.277 8.82,3.428 C8.79,3.47 8.745,3.551 8.685,3.767 C8.621,3.995 8.561,4.296 8.466,4.769 Z M8.454,19.173 L8.466,19.232 C8.561,19.704 8.621,20.005 8.685,20.233 C8.745,20.449 8.79,20.53 8.82,20.572 C8.925,20.723 9.07,20.843 9.239,20.916 C9.287,20.937 9.375,20.965 9.598,20.982 C9.834,20.999 10.141,21 10.623,21 L13.377,21 C13.859,21 14.166,20.999 14.402,20.982 C14.625,20.965 14.713,20.937 14.761,20.916 C14.93,20.843 15.075,20.723 15.18,20.572 C15.21,20.53 15.255,20.449 15.315,20.233 C15.378,20.005 15.439,19.704 15.534,19.232 L15.545,19.173 C14.477,19.703 13.273,20 12,20 C10.727,20 9.523,19.703 8.454,19.173 Z"/>
</svg>
