<svg xmlns="http://www.w3.org/2000/svg" width="24" height="24" viewBox="0 0 24 24">
  <defs/>
  <path d="M10.262,1 C10.312,1 10.363,1 10.414,1 L13.586,1 C13.637,1 13.688,1 13.738,1 C14.45,0.999 15.075,0.998 15.626,1.223 C16.107,1.419 16.529,1.737 16.85,2.146 C17.218,2.614 17.389,3.215 17.583,3.9 C17.597,3.948 17.611,3.997 17.625,4.046 L17.845,4.818 C17.851,4.821 17.856,4.824 17.862,4.827 C18.427,5.114 18.885,5.573 19.173,6.138 C19.366,6.516 19.437,6.909 19.469,7.305 C19.5,7.679 19.5,8.134 19.5,8.661 L19.5,15.338 C19.5,15.866 19.5,16.32 19.469,16.695 C19.437,17.09 19.366,17.483 19.173,17.862 C18.885,18.426 18.427,18.885 17.862,19.173 C17.856,19.176 17.851,19.178 17.845,19.181 L17.625,19.954 C17.611,20.003 17.597,20.051 17.583,20.1 C17.389,20.785 17.218,21.386 16.85,21.854 C16.529,22.262 16.107,22.58 15.626,22.777 C15.075,23.002 14.45,23.001 13.738,23 C13.688,23 13.637,23 13.586,23 L10.414,23 C10.363,23 10.312,23 10.262,23 C9.55,23.001 8.925,23.002 8.374,22.777 C7.893,22.58 7.471,22.262 7.15,21.854 C6.782,21.386 6.612,20.785 6.417,20.1 C6.403,20.051 6.389,20.003 6.375,19.954 L6.155,19.181 C6.149,19.178 6.144,19.176 6.138,19.173 C5.574,18.885 5.115,18.426 4.827,17.862 C4.634,17.483 4.563,17.09 4.531,16.695 C4.5,16.32 4.5,15.866 4.5,15.338 L4.5,8.661 C4.5,8.134 4.5,7.679 4.531,7.305 C4.563,6.909 4.634,6.516 4.827,6.138 C5.115,5.573 5.574,5.114 6.138,4.827 Q6.146,4.823 6.155,4.818 L6.375,4.046 C6.389,3.997 6.403,3.948 6.417,3.9 C6.612,3.215 6.782,2.614 7.15,2.146 C7.471,1.737 7.893,1.419 8.374,1.223 C8.925,0.998 9.55,0.999 10.262,1 Z M7.468,6.524 C7.196,6.546 7.095,6.584 7.046,6.609 C6.858,6.705 6.705,6.858 6.609,7.046 C6.584,7.095 6.546,7.196 6.524,7.468 C6.501,7.751 6.5,8.123 6.5,8.7 L6.5,15.3 C6.5,15.876 6.501,16.249 6.524,16.532 C6.546,16.804 6.584,16.904 6.609,16.954 C6.705,17.142 6.858,17.295 7.046,17.391 C7.095,17.416 7.196,17.454 7.468,17.476 C7.751,17.499 8.123,17.5 8.7,17.5 L15.3,17.5 C15.877,17.5 16.249,17.499 16.532,17.476 C16.804,17.454 16.904,17.416 16.954,17.391 C17.142,17.295 17.295,17.142 17.391,16.954 C17.416,16.904 17.454,16.804 17.476,16.532 C17.499,16.249 17.5,15.876 17.5,15.3 L17.5,8.7 C17.5,8.123 17.499,7.751 17.476,7.468 C17.454,7.196 17.416,7.095 17.391,7.046 C17.295,6.858 17.142,6.705 16.954,6.609 C16.904,6.584 16.804,6.546 16.532,6.524 C16.249,6.501 15.877,6.5 15.3,6.5 L8.7,6.5 C8.123,6.5 7.751,6.501 7.468,6.524 Z M12,8 C12.552,8 13,8.448 13,9 L13,11.586 L14.207,12.793 C14.598,13.183 14.598,13.816 14.207,14.207 C13.817,14.597 13.183,14.597 12.793,14.207 L11.293,12.707 C11.105,12.519 11,12.265 11,12 L11,9 C11,8.448 11.448,8 12,8 Z M8.326,19.5 C8.566,20.335 8.634,20.505 8.722,20.618 C8.829,20.754 8.97,20.86 9.13,20.926 C9.268,20.982 9.459,21 10.414,21 L13.586,21 C14.541,21 14.732,20.982 14.87,20.926 C15.03,20.86 15.171,20.754 15.278,20.618 C15.366,20.505 15.434,20.335 15.674,19.5 C15.566,19.5 15.454,19.5 15.339,19.5 L8.661,19.5 C8.546,19.5 8.434,19.5 8.326,19.5 Z M8.326,4.5 C8.434,4.5 8.546,4.5 8.661,4.5 L15.339,4.5 C15.454,4.5 15.566,4.5 15.674,4.5 C15.434,3.665 15.366,3.495 15.278,3.382 C15.171,3.246 15.03,3.14 14.87,3.074 C14.732,3.018 14.541,3 13.586,3 L10.414,3 C9.459,3 9.268,3.018 9.13,3.074 C8.97,3.14 8.829,3.246 8.722,3.382 C8.634,3.495 8.566,3.665 8.326,4.5 Z"/>
</svg>
