<svg xmlns="http://www.w3.org/2000/svg" width="24" height="24" viewBox="0 0 24 24">
  <defs/>
  <path d="M6.417,7.589 C5.887,7.843 5.27,8 4.5,8 C3.711,8 3.086,7.846 2.552,7.588 C2.053,7.346 1.673,7.029 1.385,6.789 C1.376,6.782 1.368,6.775 1.36,6.768 C0.936,6.415 0.878,5.784 1.232,5.36 C1.585,4.936 2.216,4.878 2.64,5.232 C2.95,5.49 3.162,5.661 3.423,5.787 C3.664,5.904 3.989,6 4.5,6 C4.98,6 5.3,5.907 5.552,5.786 C5.824,5.655 6.053,5.477 6.375,5.219 C6.384,5.212 6.392,5.206 6.401,5.199 C6.7,4.959 7.088,4.648 7.583,4.411 C8.113,4.157 8.73,4 9.5,4 C10.289,4 10.914,4.154 11.448,4.412 C11.947,4.654 12.328,4.971 12.615,5.211 C12.624,5.218 12.632,5.225 12.64,5.232 C12.95,5.49 13.162,5.661 13.423,5.787 C13.664,5.904 13.989,6 14.5,6 C14.98,6 15.3,5.907 15.552,5.786 C15.824,5.655 16.053,5.477 16.375,5.219 C16.384,5.212 16.392,5.206 16.401,5.199 C16.7,4.959 17.088,4.648 17.583,4.411 C18.113,4.157 18.73,4 19.5,4 C20.289,4 20.914,4.154 21.448,4.412 C21.947,4.654 22.327,4.971 22.615,5.211 L22.64,5.232 C23.065,5.585 23.122,6.216 22.768,6.64 C22.415,7.064 21.784,7.122 21.36,6.768 C21.051,6.51 20.838,6.339 20.577,6.213 C20.336,6.096 20.011,6 19.5,6 C19.02,6 18.7,6.093 18.448,6.214 C18.176,6.345 17.947,6.523 17.625,6.781 L17.599,6.801 C17.3,7.041 16.912,7.352 16.417,7.589 C15.887,7.843 15.27,8 14.5,8 C13.711,8 13.086,7.846 12.552,7.588 C12.053,7.346 11.673,7.029 11.385,6.789 C11.376,6.782 11.368,6.775 11.36,6.768 C11.05,6.51 10.839,6.339 10.577,6.213 C10.336,6.096 10.011,6 9.5,6 C9.02,6 8.7,6.093 8.448,6.214 C8.176,6.345 7.947,6.523 7.625,6.781 C7.616,6.788 7.608,6.794 7.599,6.801 C7.3,7.041 6.912,7.352 6.417,7.589 Z M6.417,19.589 C5.887,19.843 5.27,20 4.5,20 C3.711,20 3.086,19.846 2.552,19.588 C2.053,19.346 1.673,19.029 1.385,18.789 C1.376,18.782 1.368,18.775 1.36,18.768 C0.936,18.415 0.878,17.784 1.232,17.36 C1.585,16.935 2.216,16.878 2.64,17.232 C2.95,17.49 3.162,17.661 3.423,17.787 C3.664,17.904 3.989,18 4.5,18 C4.98,18 5.3,17.907 5.552,17.786 C5.824,17.655 6.053,17.477 6.375,17.219 C6.384,17.212 6.392,17.206 6.401,17.199 C6.7,16.959 7.088,16.648 7.583,16.411 C8.113,16.157 8.73,16 9.5,16 C10.289,16 10.914,16.154 11.448,16.412 C11.947,16.654 12.328,16.971 12.615,17.211 C12.624,17.218 12.632,17.225 12.64,17.232 C12.95,17.49 13.162,17.661 13.423,17.787 C13.664,17.904 13.989,18 14.5,18 C14.98,18 15.3,17.907 15.552,17.786 C15.824,17.655 16.053,17.477 16.375,17.219 L16.401,17.199 C16.7,16.959 17.088,16.648 17.583,16.411 C18.113,16.157 18.73,16 19.5,16 C20.289,16 20.914,16.154 21.448,16.412 C21.947,16.654 22.327,16.971 22.615,17.211 L22.64,17.232 C23.065,17.585 23.122,18.216 22.768,18.64 C22.415,19.065 21.784,19.122 21.36,18.768 C21.051,18.51 20.838,18.339 20.577,18.213 C20.336,18.096 20.011,18 19.5,18 C19.02,18 18.7,18.093 18.448,18.214 C18.176,18.345 17.947,18.523 17.625,18.781 L17.599,18.801 C17.3,19.041 16.912,19.352 16.417,19.589 C15.887,19.843 15.27,20 14.5,20 C13.711,20 13.086,19.846 12.552,19.588 C12.053,19.346 11.673,19.029 11.385,18.789 C11.376,18.782 11.368,18.775 11.36,18.768 C11.05,18.51 10.839,18.339 10.577,18.213 C10.336,18.096 10.011,18 9.5,18 C9.02,18 8.7,18.093 8.448,18.214 C8.176,18.345 7.947,18.523 7.625,18.781 C7.616,18.788 7.608,18.794 7.599,18.801 C7.3,19.041 6.912,19.352 6.417,19.589 Z M6.417,13.589 C5.887,13.843 5.27,14 4.5,14 C3.711,14 3.086,13.846 2.552,13.588 C2.053,13.346 1.673,13.029 1.385,12.789 C1.376,12.782 1.368,12.775 1.36,12.768 C0.936,12.415 0.878,11.784 1.232,11.36 C1.585,10.936 2.216,10.878 2.64,11.232 C2.95,11.49 3.162,11.661 3.423,11.787 C3.664,11.904 3.989,12 4.5,12 C4.98,12 5.3,11.907 5.552,11.786 C5.824,11.655 6.053,11.477 6.375,11.219 C6.384,11.212 6.392,11.206 6.401,11.199 C6.7,10.959 7.088,10.648 7.583,10.411 C8.113,10.157 8.73,10 9.5,10 C10.289,10 10.914,10.154 11.448,10.412 C11.947,10.654 12.328,10.971 12.615,11.211 C12.624,11.218 12.632,11.225 12.64,11.232 C12.95,11.49 13.162,11.661 13.423,11.787 C13.664,11.904 13.989,12 14.5,12 C14.98,12 15.3,11.907 15.552,11.786 C15.824,11.655 16.053,11.477 16.375,11.219 C16.384,11.212 16.392,11.206 16.401,11.199 C16.7,10.959 17.088,10.648 17.583,10.411 C18.113,10.157 18.73,10 19.5,10 C20.289,10 20.914,10.154 21.448,10.412 C21.947,10.654 22.327,10.971 22.615,11.211 L22.64,11.232 C23.065,11.585 23.122,12.216 22.768,12.64 C22.415,13.064 21.784,13.122 21.36,12.768 C21.051,12.51 20.838,12.339 20.577,12.213 C20.336,12.096 20.011,12 19.5,12 C19.02,12 18.7,12.093 18.448,12.214 C18.176,12.345 17.947,12.523 17.625,12.781 L17.599,12.801 C17.3,13.041 16.912,13.352 16.417,13.589 C15.887,13.843 15.27,14 14.5,14 C13.711,14 13.086,13.846 12.552,13.588 C12.053,13.346 11.673,13.029 11.385,12.789 C11.376,12.782 11.368,12.775 11.36,12.768 C11.05,12.51 10.839,12.339 10.577,12.213 C10.336,12.096 10.011,12 9.5,12 C9.02,12 8.7,12.093 8.448,12.214 C8.176,12.345 7.947,12.523 7.625,12.781 C7.616,12.788 7.608,12.794 7.599,12.801 C7.3,13.041 6.912,13.352 6.417,13.589 Z"/>
</svg>
