<svg xmlns="http://www.w3.org/2000/svg" width="24" height="24" viewBox="0 0 24 24">
  <defs/>
  <path d="M2.5,10.5 C2.5,5.253 6.753,1 12,1 C17.247,1 21.5,5.253 21.5,10.5 C21.5,15.747 17.247,20 12,20 C6.753,20 2.5,15.747 2.5,10.5 Z M12,3 C7.858,3 4.5,6.358 4.5,10.5 C4.5,14.642 7.858,18 12,18 C16.142,18 19.5,14.642 19.5,10.5 C19.5,6.358 16.142,3 12,3 Z M7.812,10.5 C7.812,8.187 9.687,6.312 12,6.312 C14.313,6.312 16.188,8.187 16.188,10.5 C16.188,12.813 14.313,14.688 12,14.688 C9.687,14.688 7.812,12.813 7.812,10.5 Z M7,22 C7,21.448 7.448,21 8,21 L16,21 C16.552,21 17,21.448 17,22 C17,22.552 16.552,23 16,23 L8,23 C7.448,23 7,22.552 7,22 Z M12,8.312 C10.792,8.312 9.812,9.292 9.812,10.5 C9.812,11.708 10.792,12.688 12,12.688 C13.208,12.688 14.188,11.708 14.188,10.5 C14.188,9.292 13.208,8.312 12,8.312 Z"/>
</svg>
