<svg width="24" height="24" viewBox="0 0 24 24" fill="none" xmlns="http://www.w3.org/2000/svg">
<path d="M19.8333 7.79981C19.8333 6.94342 19.833 6.36117 19.7962 5.91113C19.7604 5.47272 19.6952 5.2482 19.6155 5.0918C19.4238 4.71555 19.1178 4.40951 18.7415 4.21778C18.5851 4.13809 18.3606 4.07293 17.9222 4.03711C17.4721 4.00035 16.8899 4 16.0335 4H7.63312C6.77673 4 6.19448 4.00035 5.74445 4.03711C5.30603 4.07293 5.08151 4.13809 4.92511 4.21778C4.54886 4.40951 4.24282 4.71555 4.05109 5.0918C3.9714 5.2482 3.90624 5.47272 3.87042 5.91113C3.83366 6.36117 3.83332 6.94342 3.83331 7.79981V16.2002C3.83332 17.0566 3.83366 17.6388 3.87042 18.0889C3.90624 18.5273 3.9714 18.7518 4.05109 18.9082C4.24282 19.2845 4.54886 19.5905 4.92511 19.7822C5.08151 19.8619 5.30603 19.9271 5.74445 19.9629C6.19448 19.9997 6.77673 20 7.63312 20H16.0335C16.8899 20 17.4721 19.9997 17.9222 19.9629C18.3606 19.9271 18.5851 19.8619 18.7415 19.7822C19.1178 19.5905 19.4238 19.2845 19.6155 18.9082C19.6952 18.7518 19.7604 18.5273 19.7962 18.0889C19.833 17.6388 19.8333 17.0566 19.8333 16.2002V7.79981ZM11.6927 6C13.8165 6 16.1232 6.68602 17.5638 8.22656C17.8836 8.56877 17.9229 9.08698 17.6585 9.47363L16.2288 11.5645C15.9563 11.9628 15.4384 12.1101 14.9974 11.9141C14.0048 11.4726 12.9257 11.2432 11.8333 11.2432C10.7409 11.2432 9.66186 11.4726 8.66925 11.9141C8.22826 12.1101 7.71028 11.9628 7.43781 11.5645L6.00812 9.47363C5.76141 9.11283 5.77765 8.63336 6.04816 8.29004C7.31679 6.68024 9.58346 6.00003 11.6927 6ZM11.6927 8C10.2423 8.00002 8.95626 8.38755 8.12726 9.03028L8.63996 9.78028C9.66452 9.42698 10.7437 9.24317 11.8333 9.24317C12.9226 9.24317 14.0014 9.42718 15.0257 9.78028L15.5062 9.07715C14.5323 8.38967 13.142 8 11.6927 8ZM21.8333 16.2002C21.8333 17.0237 21.8343 17.7016 21.7894 18.252C21.7434 18.814 21.645 19.3311 21.3978 19.8164C21.0143 20.5689 20.4022 21.181 19.6497 21.5645C19.1644 21.8117 18.6473 21.9101 18.0853 21.9561C17.5349 22.001 16.857 22 16.0335 22H7.63312C6.80963 22 6.13174 22.001 5.58136 21.9561C5.01931 21.9101 4.50221 21.8117 4.01691 21.5645C3.2644 21.181 2.65233 20.5689 2.26886 19.8164C2.02159 19.3311 1.92319 18.814 1.87726 18.252C1.83229 17.7016 1.83331 17.0237 1.83331 16.2002V7.79981C1.83331 6.97632 1.83229 6.29843 1.87726 5.74805C1.92319 5.18599 2.02159 4.6689 2.26886 4.1836C2.65233 3.43109 3.2644 2.81902 4.01691 2.43555C4.50221 2.18827 5.01931 2.08988 5.58136 2.04395C6.13174 1.99898 6.80963 2 7.63312 2H16.0335C16.857 2 17.5349 1.99898 18.0853 2.04395C18.6473 2.08988 19.1644 2.18827 19.6497 2.43555C20.4022 2.81902 21.0143 3.43109 21.3978 4.1836C21.645 4.6689 21.7434 5.18599 21.7894 5.74805C21.8343 6.29843 21.8333 6.97632 21.8333 7.79981V16.2002Z" fill="black"/>
</svg>
