<svg xmlns="http://www.w3.org/2000/svg" width="24" height="24" viewBox="0 0 24 24">
  <defs/>
  <path d="M12,5.5 C8.094,5.5 4.539,6.992 1.869,9.438 C1.462,9.811 0.829,9.784 0.456,9.376 C0.083,8.969 0.111,8.337 0.518,7.964 C3.542,5.192 7.574,3.5 12,3.5 C16.425,3.5 20.458,5.192 23.482,7.964 C23.889,8.337 23.917,8.969 23.544,9.376 C23.171,9.784 22.538,9.811 22.131,9.438 C19.461,6.992 15.906,5.5 12,5.5 Z M12,10.5 C9.467,10.5 7.155,11.441 5.393,12.993 C4.979,13.358 4.347,13.318 3.982,12.904 C3.616,12.49 3.657,11.858 4.071,11.493 C6.185,9.631 8.962,8.5 12,8.5 C15.038,8.5 17.815,9.631 19.929,11.493 C20.344,11.858 20.383,12.49 20.018,12.904 C19.653,13.318 19.021,13.358 18.607,12.993 C16.844,11.441 14.533,10.5 12,10.5 Z M12,15.5 C10.819,15.5 9.735,15.908 8.88,16.593 C8.449,16.938 7.819,16.868 7.474,16.436 C7.129,16.005 7.199,15.375 7.631,15.031 C8.828,14.073 10.348,13.5 12,13.5 C13.627,13.5 15.126,14.056 16.315,14.988 C16.75,15.329 16.826,15.957 16.485,16.392 C16.145,16.827 15.516,16.903 15.081,16.562 C14.232,15.896 13.164,15.5 12,15.5 Z M11,19.5 C11,18.948 11.448,18.5 12,18.5 L12.01,18.5 C12.562,18.5 13.01,18.948 13.01,19.5 C13.01,20.052 12.562,20.5 12.01,20.5 L12,20.5 C11.448,20.5 11,20.052 11,19.5 Z"/>
</svg>
