<svg xmlns="http://www.w3.org/2000/svg" width="24" height="24" viewBox="0 0 24 24">
  <defs/>
  <path d="M2.293,2.293 C2.683,1.902 3.317,1.902 3.707,2.293 L21.707,20.293 C22.098,20.683 22.098,21.317 21.707,21.707 C21.317,22.098 20.683,22.098 20.293,21.707 L15.26,16.674 C15.198,16.644 15.138,16.607 15.081,16.562 C14.857,16.386 14.617,16.229 14.365,16.093 C13.642,15.706 12.831,15.501 12.005,15.501 C10.967,15.501 9.955,15.824 9.109,16.425 C9.085,16.442 9.062,16.457 9.037,16.472 C8.984,16.511 8.932,16.551 8.88,16.593 C8.449,16.938 7.819,16.868 7.474,16.436 C7.129,16.005 7.199,15.375 7.631,15.031 C8.828,14.073 10.348,13.5 12,13.5 C12.029,13.5 12.057,13.5 12.086,13.5 L9.421,10.835 C7.908,11.238 6.535,11.987 5.393,12.993 C4.979,13.358 4.347,13.318 3.982,12.904 C3.616,12.49 3.657,11.858 4.071,11.493 C5.165,10.529 6.436,9.761 7.83,9.245 L5.543,6.957 C4.195,7.601 2.958,8.44 1.869,9.438 C1.462,9.811 0.829,9.784 0.456,9.376 C0.083,8.969 0.111,8.337 0.518,7.964 C1.581,6.99 2.768,6.149 4.054,5.468 L2.293,3.707 C1.902,3.317 1.902,2.683 2.293,2.293 Z M12,5.503 C11.433,5.503 10.868,5.535 10.31,5.598 C9.761,5.66 9.266,5.266 9.204,4.717 C9.141,4.168 9.536,3.673 10.085,3.611 C10.718,3.539 11.357,3.503 12,3.503 C16.139,3.503 20.136,5.013 23.241,7.75 C23.656,8.115 23.695,8.747 23.33,9.161 C22.965,9.576 22.333,9.615 21.919,9.25 C19.179,6.835 15.652,5.503 12,5.503 Z M14.357,9.703 C14.521,9.175 15.082,8.881 15.609,9.045 C17.102,9.51 18.501,10.266 19.72,11.282 C20.144,11.635 20.202,12.266 19.848,12.69 C19.495,13.114 18.864,13.172 18.44,12.818 C17.424,11.972 16.258,11.342 15.014,10.955 C14.487,10.79 14.193,10.23 14.357,9.703 Z M11,19.5 C11,18.948 11.448,18.5 12,18.5 L12.01,18.5 C12.562,18.5 13.01,18.948 13.01,19.5 C13.01,20.052 12.562,20.5 12.01,20.5 L12,20.5 C11.448,20.5 11,20.052 11,19.5 Z"/>
</svg>
