<svg xmlns="http://www.w3.org/2000/svg" width="24" height="24" viewBox="0 0 24 24">
  <defs/>
  <path d="M19,7 C18.408,7 17.877,7.256 17.509,7.667 C17.141,8.078 16.508,8.113 16.097,7.745 C15.686,7.377 15.651,6.745 16.019,6.333 C16.75,5.516 17.815,5 19,5 C21.209,5 23,6.791 23,9 C23,11.209 21.209,13 19,13 L2,13 C1.448,13 1,12.552 1,12 C1,11.448 1.448,11 2,11 L19,11 C20.105,11 21,10.105 21,9 C21,7.895 20.105,7 19,7 Z M1,16 C1,15.448 1.448,15 2,15 L14,15 C15.657,15 17,16.343 17,18 C17,19.657 15.657,21 14,21 C13.111,21 12.312,20.612 11.764,20 C11.396,19.589 11.431,18.956 11.842,18.588 C12.254,18.22 12.886,18.255 13.254,18.666 C13.439,18.873 13.704,19 14,19 C14.552,19 15,18.552 15,18 C15,17.448 14.552,17 14,17 L2,17 C1.448,17 1,16.552 1,16 Z M11,5 C10.704,5 10.439,5.127 10.254,5.334 C9.886,5.745 9.254,5.78 8.842,5.412 C8.431,5.043 8.396,4.411 8.764,4 C9.312,3.388 10.111,3 11,3 C12.657,3 14,4.343 14,6 C14,7.657 12.657,9 11,9 L2,9 C1.448,9 1,8.552 1,8 C1,7.448 1.448,7 2,7 L11,7 C11.552,7 12,6.552 12,6 C12,5.448 11.552,5 11,5 Z"/>
</svg>
