<svg xmlns="http://www.w3.org/2000/svg" width="24" height="24" viewBox="0 0 24 24">
  <defs/>
  <path d="M1,15 C1,14.448 1.448,14 2,14 L13,14 C15.209,14 17,15.791 17,18 C17,20.209 15.209,22 13,22 C11.815,22 10.75,21.484 10.019,20.667 C9.65,20.255 9.685,19.623 10.097,19.255 C10.509,18.886 11.141,18.922 11.509,19.333 C11.877,19.744 12.408,20 13,20 C14.105,20 15,19.105 15,18 C15,16.895 14.105,16 13,16 L2,16 C1.448,16 1,15.552 1,15 Z M9,4 C8.408,4 7.877,4.256 7.509,4.667 C7.141,5.078 6.509,5.113 6.097,4.745 C5.685,4.377 5.65,3.745 6.019,3.333 C6.75,2.516 7.815,2 9,2 C11.209,2 13,3.791 13,6 C13,8.209 11.209,10 9,10 L2,10 C1.448,10 1,9.552 1,9 C1,8.448 1.448,8 2,8 L9,8 C10.105,8 11,7.105 11,6 C11,4.895 10.105,4 9,4 Z M19,6.5 C18.408,6.5 17.877,6.756 17.509,7.167 C17.141,7.578 16.508,7.613 16.097,7.245 C15.686,6.877 15.651,6.245 16.019,5.833 C16.75,5.016 17.815,4.5 19,4.5 C21.209,4.5 23,6.291 23,8.5 C23,10.709 21.209,12.5 19,12.5 L13,12.5 C12.448,12.5 12,12.052 12,11.5 C12,10.948 12.448,10.5 13,10.5 L19,10.5 C20.105,10.5 21,9.605 21,8.5 C21,7.395 20.105,6.5 19,6.5 Z"/>
</svg>
