<svg xmlns="http://www.w3.org/2000/svg" width="24" height="24" viewBox="0 0 24 24">
  <defs/>
  <path d="M12.219,12.98 C10.05,13.674 7.579,14.464 4.728,13.66 C4.286,13.535 3.757,13.35 3.353,13.202 C3.148,13.127 2.969,13.059 2.841,13.011 C2.777,12.986 2.726,12.966 2.69,12.952 L2.649,12.936 L2.633,12.93 C2.119,12.727 1.867,12.147 2.07,11.633 C2.272,11.119 2.853,10.867 3.367,11.069 L3.378,11.074 L3.415,11.089 C3.448,11.101 3.496,11.12 3.556,11.143 C3.677,11.189 3.846,11.253 4.04,11.324 C4.434,11.468 4.905,11.632 5.272,11.735 C7.503,12.365 9.445,11.767 11.695,11.047 C11.724,11.038 11.752,11.029 11.781,11.02 L11.781,11.02 C13.95,10.326 16.421,9.535 19.271,10.339 C19.714,10.464 20.243,10.65 20.647,10.797 C20.852,10.872 21.031,10.94 21.159,10.989 C21.223,11.014 21.274,11.033 21.31,11.047 L21.351,11.063 L21.367,11.069 C21.881,11.272 22.133,11.853 21.93,12.367 C21.728,12.88 21.147,13.133 20.633,12.93 L20.622,12.925 L20.585,12.911 C20.552,12.898 20.504,12.88 20.444,12.857 C20.323,12.811 20.154,12.747 19.96,12.676 C19.566,12.531 19.095,12.368 18.729,12.264 C16.497,11.634 14.555,12.232 12.305,12.952 C12.276,12.961 12.248,12.97 12.219,12.98 Z M12.219,6.98 C10.05,7.674 7.579,8.464 4.728,7.66 C4.286,7.535 3.757,7.35 3.353,7.202 C3.148,7.127 2.969,7.06 2.841,7.011 C2.777,6.986 2.726,6.966 2.69,6.952 L2.649,6.936 L2.633,6.93 C2.119,6.727 1.867,6.147 2.07,5.633 C2.272,5.119 2.853,4.867 3.367,5.069 L3.378,5.074 L3.415,5.088 C3.448,5.101 3.496,5.12 3.556,5.143 C3.677,5.189 3.846,5.253 4.04,5.324 C4.434,5.468 4.905,5.632 5.272,5.735 C7.503,6.365 9.445,5.767 11.695,5.047 C11.724,5.038 11.752,5.029 11.781,5.02 L11.781,5.02 C13.95,4.326 16.421,3.535 19.271,4.339 C19.714,4.464 20.243,4.65 20.647,4.797 C20.852,4.872 21.031,4.94 21.159,4.989 C21.223,5.013 21.274,5.033 21.31,5.047 L21.351,5.063 L21.367,5.069 C21.881,5.272 22.133,5.853 21.93,6.367 C21.728,6.88 21.147,7.133 20.633,6.93 L20.622,6.925 L20.585,6.911 C20.552,6.898 20.504,6.88 20.444,6.857 C20.323,6.81 20.154,6.746 19.96,6.676 C19.566,6.531 19.095,6.368 18.729,6.264 C16.497,5.635 14.555,6.232 12.305,6.952 C12.276,6.961 12.248,6.97 12.219,6.98 Z M12.219,18.98 L12.219,18.98 C10.05,19.674 7.579,20.464 4.728,19.66 C4.286,19.535 3.757,19.35 3.353,19.202 C3.148,19.127 2.969,19.059 2.841,19.011 C2.777,18.986 2.726,18.966 2.69,18.952 L2.649,18.936 L2.634,18.931 L2.633,18.93 C2.119,18.728 1.867,18.147 2.07,17.633 C2.272,17.119 2.853,16.867 3.367,17.069 L3.415,17.088 C3.448,17.101 3.496,17.12 3.556,17.143 C3.677,17.189 3.846,17.253 4.04,17.324 C4.434,17.468 4.905,17.632 5.272,17.735 C6.085,17.965 6.859,18.031 7.624,17.988 C8.959,17.913 10.265,17.505 11.695,17.047 C11.724,17.038 11.752,17.029 11.781,17.02 L11.781,17.02 C13.95,16.326 16.421,15.535 19.271,16.339 C19.714,16.464 20.243,16.65 20.647,16.797 C20.852,16.872 21.031,16.94 21.159,16.989 C21.223,17.014 21.274,17.033 21.31,17.047 L21.351,17.063 L21.362,17.068 L21.366,17.069 L21.367,17.069 C21.881,17.272 22.133,17.853 21.93,18.367 C21.728,18.88 21.147,19.133 20.633,18.93 L20.622,18.926 L20.585,18.911 C20.552,18.898 20.504,18.88 20.444,18.857 C20.323,18.81 20.154,18.747 19.96,18.676 C19.566,18.531 19.095,18.368 18.729,18.264 C16.497,17.635 14.555,18.232 12.305,18.952 C12.276,18.961 12.248,18.97 12.219,18.98 Z M21,12 C21.367,11.07 21.367,11.069 21.367,11.069 L21,12 Z M21.008,5.978 C21.365,5.074 21.367,5.069 21.367,5.069 L21.008,5.978 Z M3,12 C2.634,12.927 2.633,12.93 2.633,12.93 L3,12 Z"/>
</svg>
