<svg xmlns="http://www.w3.org/2000/svg" width="24" height="24" viewBox="0 0 24 24">
  <defs/>
  <path d="M1,12 C1,5.925 5.925,1 12,1 C18.075,1 23,5.925 23,12 C23,18.075 18.075,23 12,23 C5.925,23 1,18.075 1,12 Z M12,3 C7.029,3 3,7.029 3,12 C3,16.971 7.029,21 12,21 C16.971,21 21,16.971 21,12 C21,7.029 16.971,3 12,3 Z M8.293,8.293 C8.683,7.902 9.317,7.902 9.707,8.293 L12,10.586 L14.293,8.293 C14.683,7.902 15.317,7.902 15.707,8.293 C16.098,8.683 16.098,9.317 15.707,9.707 L13.414,12 L15.707,14.293 C16.098,14.683 16.098,15.317 15.707,15.707 C15.317,16.098 14.683,16.098 14.293,15.707 L12,13.414 L9.707,15.707 C9.317,16.098 8.683,16.098 8.293,15.707 C7.902,15.317 7.902,14.683 8.293,14.293 L10.586,12 L8.293,9.707 C7.902,9.317 7.902,8.683 8.293,8.293 Z"/>
</svg>
