<svg xmlns="http://www.w3.org/2000/svg" width="24" height="24" viewBox="0 0 24 24">
  <defs/>
  <path d="M5.293,5.293 C5.683,4.902 6.317,4.902 6.707,5.293 L12,10.586 L17.293,5.293 C17.683,4.902 18.317,4.902 18.707,5.293 C19.098,5.683 19.098,6.317 18.707,6.707 L13.414,12 L18.707,17.293 C19.098,17.683 19.098,18.317 18.707,18.707 C18.317,19.098 17.683,19.098 17.293,18.707 L12,13.414 L6.707,18.707 C6.317,19.098 5.683,19.098 5.293,18.707 C4.902,18.317 4.902,17.683 5.293,17.293 L10.586,12 L5.293,6.707 C4.902,6.317 4.902,5.683 5.293,5.293 Z"/>
</svg>
