<svg xmlns="http://www.w3.org/2000/svg" width="24" height="24" viewBox="0 0 24 24">
  <defs/>
  <path d="M6.293,6.293 C6.683,5.902 7.317,5.902 7.707,6.293 L12,10.586 L16.293,6.293 C16.683,5.902 17.317,5.902 17.707,6.293 C18.098,6.683 18.098,7.317 17.707,7.707 L13.414,12 L17.707,16.293 C18.098,16.683 18.098,17.317 17.707,17.707 C17.317,18.098 16.683,18.098 16.293,17.707 L12,13.414 L7.707,17.707 C7.317,18.098 6.683,18.098 6.293,17.707 C5.902,17.317 5.902,16.683 6.293,16.293 L10.586,12 L6.293,7.707 C5.902,7.317 5.902,6.683 6.293,6.293 Z"/>
</svg>
