<svg xmlns="http://www.w3.org/2000/svg" width="24" height="24" viewBox="0 0 24 24">
  <defs/>
  <path d="M1,12 C1,5.925 5.925,1 12,1 C18.075,1 23,5.925 23,12 C23,18.075 18.075,23 12,23 C5.925,23 1,18.075 1,12 Z M12,3 C7.029,3 3,7.029 3,12 C3,16.971 7.029,21 12,21 C16.971,21 21,16.971 21,12 C21,7.029 16.971,3 12,3 Z M12.297,4.545 C12.715,4.675 13,5.062 13,5.5 L13,9.5 L16.013,9.5 C16.23,9.5 16.455,9.5 16.642,9.517 C16.827,9.534 17.16,9.579 17.46,9.808 C17.811,10.075 18.026,10.484 18.048,10.926 C18.066,11.302 17.915,11.602 17.824,11.764 C17.732,11.928 17.604,12.113 17.482,12.292 L12.824,19.066 C12.576,19.427 12.122,19.585 11.703,19.455 C11.285,19.325 11,18.938 11,18.5 L11,14.5 L7.987,14.5 C7.77,14.5 7.545,14.5 7.358,14.483 C7.173,14.466 6.84,14.421 6.54,14.192 C6.189,13.925 5.974,13.516 5.952,13.074 C5.934,12.698 6.085,12.398 6.176,12.236 C6.268,12.072 6.396,11.887 6.518,11.708 C6.525,11.699 6.531,11.69 6.538,11.68 L11.176,4.933 C11.424,4.573 11.878,4.415 12.297,4.545 Z M8.401,12.5 L12,12.5 C12.552,12.5 13,12.948 13,13.5 L13,15.28 L15.599,11.5 L12,11.5 C11.448,11.5 11,11.052 11,10.5 L11,8.72 Z"/>
</svg>
