<svg xmlns="http://www.w3.org/2000/svg" width="24" height="24" viewBox="0 0 24 24">
  <defs/>
  <path d="M17.368,2.07 C17.795,2.239 18.052,2.677 17.991,3.132 L17.142,9.5 L20.98,9.5 C21.201,9.5 21.43,9.5 21.618,9.517 C21.804,9.534 22.143,9.579 22.445,9.813 C22.798,10.085 23.011,10.499 23.027,10.944 C23.042,11.326 22.882,11.627 22.787,11.789 C22.692,11.953 22.559,12.139 22.43,12.318 L15.814,21.581 C15.547,21.955 15.06,22.099 14.632,21.93 C14.205,21.761 13.948,21.323 14.009,20.868 L14.858,14.5 L11.016,14.5 C10.797,14.5 10.569,14.5 10.382,14.483 C10.196,14.466 9.857,14.421 9.555,14.188 C9.203,13.915 8.989,13.501 8.973,13.056 C8.958,12.674 9.118,12.373 9.213,12.212 C9.308,12.048 9.441,11.861 9.57,11.682 C9.576,11.672 9.583,11.663 9.59,11.654 L16.186,2.419 C16.453,2.045 16.94,1.901 17.368,2.07 Z M11.443,12.5 L16,12.5 C16.288,12.5 16.562,12.625 16.752,12.841 C16.942,13.058 17.029,13.347 16.991,13.632 L16.522,17.148 L20.557,11.5 L16,11.5 C15.712,11.5 15.438,11.376 15.248,11.159 C15.058,10.942 14.971,10.654 15.009,10.368 L15.478,6.852 Z M2.5,17.5 C2.5,16.948 2.948,16.5 3.5,16.5 L9,16.5 C9.552,16.5 10,16.948 10,17.5 C10,18.052 9.552,18.5 9,18.5 L3.5,18.5 C2.948,18.5 2.5,18.052 2.5,17.5 Z M3,6.5 C3,5.948 3.448,5.5 4,5.5 L9,5.5 C9.552,5.5 10,5.948 10,6.5 C10,7.052 9.552,7.5 9,7.5 L4,7.5 C3.448,7.5 3,7.052 3,6.5 Z M1,12 C1,11.448 1.448,11 2,11 L6.5,11 C7.052,11 7.5,11.448 7.5,12 C7.5,12.552 7.052,13 6.5,13 L2,13 C1.448,13 1,12.552 1,12 Z"/>
</svg>
