<svg xmlns="http://www.w3.org/2000/svg" width="24" height="24" viewBox="0 0 24 24">
  <defs/>
  <path d="M16.241,2 L16.241,2 C17.046,2 17.711,2 18.252,2.044 C18.814,2.09 19.331,2.189 19.816,2.436 C20.569,2.819 21.181,3.431 21.564,4.184 C21.811,4.669 21.91,5.186 21.956,5.748 C22,6.289 22,6.954 22,7.759 L22,16.241 C22,17.046 22,17.711 21.956,18.252 C21.91,18.814 21.811,19.331 21.564,19.816 C21.181,20.569 20.569,21.181 19.816,21.564 C19.331,21.811 18.814,21.91 18.252,21.956 C17.711,22 17.046,22 16.241,22 L7.759,22 C6.954,22 6.289,22 5.748,21.956 C5.186,21.91 4.669,21.811 4.184,21.564 C3.431,21.181 2.819,20.569 2.436,19.816 C2.189,19.331 2.09,18.814 2.044,18.252 C2,17.711 2,17.046 2,16.241 L2,7.759 C2,6.954 2,6.289 2.044,5.748 C2.09,5.186 2.189,4.669 2.436,4.184 C2.819,3.431 3.431,2.819 4.184,2.436 C4.669,2.189 5.186,2.09 5.748,2.044 C6.289,2 6.954,2 7.759,2 L16.241,2 Z M5.911,4.038 C5.473,4.073 5.248,4.138 5.092,4.218 C4.716,4.41 4.41,4.716 4.218,5.092 C4.138,5.248 4.073,5.473 4.038,5.911 C4.001,6.361 4,6.943 4,7.8 L4,16.2 C4,17.057 4.001,17.639 4.038,18.089 C4.073,18.527 4.138,18.752 4.218,18.908 C4.41,19.284 4.716,19.59 5.092,19.782 C5.248,19.862 5.473,19.927 5.911,19.962 C6.361,19.999 6.943,20 7.8,20 L16.2,20 C17.057,20 17.639,19.999 18.089,19.962 C18.527,19.927 18.752,19.862 18.908,19.782 C19.284,19.59 19.59,19.284 19.782,18.908 C19.862,18.752 19.927,18.527 19.962,18.089 C19.999,17.639 20,17.057 20,16.2 L20,7.8 C20,6.943 19.999,6.361 19.962,5.911 C19.927,5.473 19.862,5.248 19.782,5.092 C19.59,4.716 19.284,4.41 18.908,4.218 C18.752,4.138 18.527,4.073 18.089,4.038 C17.639,4.001 17.057,4 16.2,4 L7.8,4 C6.943,4 6.361,4.001 5.911,4.038 Z M12.311,5.05 C12.722,5.184 13,5.568 13,6 L13,9.5 L15.956,9.5 C16.18,9.5 16.411,9.5 16.602,9.517 C16.788,9.534 17.13,9.579 17.434,9.816 C17.788,10.091 18,10.51 18.013,10.958 C18.024,11.343 17.858,11.645 17.761,11.805 C17.663,11.969 17.526,12.156 17.393,12.337 C17.386,12.346 17.38,12.355 17.373,12.365 L12.806,18.591 C12.551,18.94 12.1,19.085 11.689,18.95 C11.278,18.816 11,18.432 11,18 L11,14.5 L8.044,14.5 C7.82,14.5 7.589,14.5 7.398,14.483 C7.212,14.466 6.87,14.421 6.566,14.184 C6.212,13.909 6,13.49 5.987,13.042 C5.976,12.657 6.142,12.355 6.239,12.195 C6.337,12.031 6.474,11.844 6.607,11.663 C6.614,11.654 6.62,11.645 6.627,11.635 L11.194,5.409 C11.449,5.06 11.9,4.915 12.311,5.05 Z M8.473,12.5 L12,12.5 C12.552,12.5 13,12.948 13,13.5 L13,14.945 L15.527,11.5 L12,11.5 C11.448,11.5 11,11.052 11,10.5 L11,9.055 Z"/>
</svg>
