<svg xmlns="http://www.w3.org/2000/svg" width="24" height="24" viewBox="0 0 24 24">
  <defs/>
  <path d="M13.398,1.083 C13.805,1.26 14.047,1.684 13.992,2.124 L13.133,9 L19.328,9 L19.328,9 C19.569,9 19.813,9 20.012,9.018 C20.201,9.035 20.562,9.08 20.875,9.333 C21.234,9.623 21.439,10.062 21.432,10.523 C21.426,10.925 21.23,11.232 21.122,11.387 C21.008,11.552 20.852,11.74 20.698,11.925 L11.768,22.64 C11.484,22.981 11.009,23.094 10.602,22.917 C10.195,22.741 9.953,22.316 10.008,21.876 L10.867,15 L4.668,15 C4.429,15 4.186,15 3.988,14.982 C3.799,14.965 3.438,14.92 3.125,14.667 C2.766,14.377 2.561,13.938 2.568,13.477 C2.574,13.075 2.77,12.768 2.878,12.613 C2.992,12.448 3.148,12.26 3.302,12.075 C3.31,12.066 3.318,12.057 3.325,12.048 L12.232,1.36 C12.516,1.019 12.991,0.906 13.398,1.083 Z M5.135,13 L12,13 C12.287,13 12.56,13.123 12.75,13.338 C12.939,13.553 13.028,13.84 12.992,14.124 L12.415,18.74 L18.865,11 L12,11 C11.713,11 11.44,10.877 11.25,10.662 C11.061,10.447 10.972,10.161 11.008,9.876 L11.585,5.261 Z"/>
</svg>
